<?xml version="1.0" encoding="utf-8" standalone="no"?>
<!DOCTYPE svg PUBLIC "-//W3C//DTD SVG 1.1//EN"
  "http://www.w3.org/Graphics/SVG/1.1/DTD/svg11.dtd">
<!-- Created with matplotlib (https://matplotlib.org/) -->
<svg height="504pt" version="1.1" viewBox="0 0 720 504" width="720pt" xmlns="http://www.w3.org/2000/svg" xmlns:xlink="http://www.w3.org/1999/xlink">
 <metadata>
  <rdf:RDF xmlns:cc="http://creativecommons.org/ns#" xmlns:dc="http://purl.org/dc/elements/1.1/" xmlns:rdf="http://www.w3.org/1999/02/22-rdf-syntax-ns#">
   <cc:Work>
    <dc:type rdf:resource="http://purl.org/dc/dcmitype/StillImage"/>
    <dc:date>2021-08-26T01:13:51.860941</dc:date>
    <dc:format>image/svg+xml</dc:format>
    <dc:creator>
     <cc:Agent>
      <dc:title>Matplotlib v3.3.3, https://matplotlib.org/</dc:title>
     </cc:Agent>
    </dc:creator>
   </cc:Work>
  </rdf:RDF>
 </metadata>
 <defs>
  <style type="text/css">*{stroke-linecap:butt;stroke-linejoin:round;}</style>
 </defs>
 <g id="figure_1">
  <g id="patch_1">
   <path d="M 0 504 
L 720 504 
L 720 0 
L 0 0 
z
" style="fill:#ffffff;"/>
  </g>
  <g id="axes_1">
   <g id="patch_2">
    <path d="M 90 448.56 
L 648 448.56 
L 648 60.48 
L 90 60.48 
z
" style="fill:#ffffff;"/>
   </g>
   <g id="PolyCollection_1">
    <path clip-path="url(#p1bc96e3120)" d="M 312.225882 430.2144 
L 312.225882 430.92 
L 311.1959 430.92 
L 311.1959 430.92 
L 311.1959 430.92 
L 310.165918 430.92 
L 310.165918 430.92 
L 309.135936 430.92 
L 309.135936 430.92 
L 308.105954 430.92 
L 308.105954 430.92 
L 307.075972 430.92 
L 307.075972 430.92 
L 306.04599 430.92 
L 306.04599 430.92 
L 305.016009 430.92 
L 305.016009 430.92 
L 303.986027 430.92 
L 303.986027 430.92 
L 302.956045 430.92 
L 302.956045 430.92 
L 301.926063 430.92 
L 301.926063 430.92 
L 300.896081 430.92 
L 300.896081 430.92 
L 299.866099 430.92 
L 299.866099 430.92 
L 298.836117 430.92 
L 298.836117 430.92 
L 297.806135 430.92 
L 297.806135 430.92 
L 296.776153 430.92 
L 296.776153 430.92 
L 295.746171 430.92 
L 295.746171 430.92 
L 294.716189 430.92 
L 294.716189 430.92 
L 293.686207 430.92 
L 293.686207 430.92 
L 292.656225 430.92 
L 292.656225 430.92 
L 291.626243 430.92 
L 291.626243 430.92 
L 290.596261 430.92 
L 290.596261 430.92 
L 289.566279 430.92 
L 289.566279 430.92 
L 288.536297 430.92 
L 288.536297 430.92 
L 287.506315 430.92 
L 287.506315 430.92 
L 286.476333 430.92 
L 286.476333 430.92 
L 285.446351 430.92 
L 285.446351 430.92 
L 284.416369 430.92 
L 284.416369 430.92 
L 283.386387 430.92 
L 283.386387 430.92 
L 282.356405 430.92 
L 282.356405 430.92 
L 281.326424 430.92 
L 281.326424 430.92 
L 280.296442 430.92 
L 280.296442 430.92 
L 279.26646 430.92 
L 279.26646 430.92 
L 278.236478 430.92 
L 278.236478 430.92 
L 277.206496 430.92 
L 277.206496 430.92 
L 276.176514 430.92 
L 276.176514 430.92 
L 275.146532 430.92 
L 275.146532 430.92 
L 274.11655 430.92 
L 274.11655 430.92 
L 273.086568 430.92 
L 273.086568 430.92 
L 272.056586 430.92 
L 271.026604 430.92 
L 271.026604 430.92 
L 269.996622 430.92 
L 269.996622 430.92 
L 268.96664 430.92 
L 268.96664 430.92 
L 267.936658 430.92 
L 267.936658 430.92 
L 266.906676 430.92 
L 266.906676 430.92 
L 265.876694 430.92 
L 265.876694 430.92 
L 264.846712 430.92 
L 264.846712 430.92 
L 263.81673 430.92 
L 263.81673 430.92 
L 262.786748 430.92 
L 261.756766 430.92 
L 261.756766 430.92 
L 260.726784 430.92 
L 260.726784 430.92 
L 259.696802 430.92 
L 259.696802 430.92 
L 258.66682 430.92 
L 258.66682 430.92 
L 257.636839 430.92 
L 257.636839 430.92 
L 256.606857 430.92 
L 256.606857 430.92 
L 255.576875 430.92 
L 254.546893 430.92 
L 254.546893 430.92 
L 253.516911 430.92 
L 253.516911 430.92 
L 252.486929 430.92 
L 252.486929 430.92 
L 251.456947 430.92 
L 251.456947 430.92 
L 250.426965 430.92 
L 249.396983 430.92 
L 249.396983 430.92 
L 248.367001 430.92 
L 248.367001 430.92 
L 247.337019 430.92 
L 247.337019 430.92 
L 246.307037 430.92 
L 246.307037 430.92 
L 245.277055 430.92 
L 244.247073 430.92 
L 244.247073 430.92 
L 243.217091 430.92 
L 243.217091 430.92 
L 242.187109 430.92 
L 242.187109 430.92 
L 241.157127 430.92 
L 240.127145 430.92 
L 240.127145 430.92 
L 239.097163 430.92 
L 239.097163 430.92 
L 238.067181 430.92 
L 238.067181 430.92 
L 237.037199 430.92 
L 236.007217 430.92 
L 236.007217 430.92 
L 234.977235 430.92 
L 234.977235 430.92 
L 233.947254 430.92 
L 232.917272 430.92 
L 232.917272 430.92 
L 231.88729 430.92 
L 231.88729 430.92 
L 230.857308 430.92 
L 229.827326 430.92 
L 229.827326 430.92 
L 228.797344 430.92 
L 228.797344 430.92 
L 227.767362 430.92 
L 226.73738 430.92 
L 226.73738 430.92 
L 225.707398 430.92 
L 225.707398 430.92 
L 224.677416 430.92 
L 223.647434 430.92 
L 223.647434 430.92 
L 222.617452 430.92 
L 221.58747 430.92 
L 221.58747 430.92 
L 220.557488 430.92 
L 220.557488 430.92 
L 219.527506 430.92 
L 218.497524 430.92 
L 218.497524 430.92 
L 217.467542 430.92 
L 216.43756 430.92 
L 216.43756 430.92 
L 215.407578 430.92 
L 214.377596 430.92 
L 214.377596 430.92 
L 213.347614 430.92 
L 212.317632 430.92 
L 212.317632 430.92 
L 211.28765 430.92 
L 210.257669 430.92 
L 210.257669 430.92 
L 209.227687 430.92 
L 208.197705 430.92 
L 208.197705 430.92 
L 207.167723 430.92 
L 206.137741 430.92 
L 206.137741 430.92 
L 205.107759 430.92 
L 204.077777 430.92 
L 203.047795 430.92 
L 203.047795 430.92 
L 202.017813 430.92 
L 200.987831 430.92 
L 200.987831 430.92 
L 199.957849 430.92 
L 198.927867 430.92 
L 197.897885 430.92 
L 197.897885 430.92 
L 196.867903 430.92 
L 195.837921 430.92 
L 194.807939 430.92 
L 194.807939 430.92 
L 193.777957 430.92 
L 192.747975 430.92 
L 191.717993 430.92 
L 190.688011 430.92 
L 190.688011 430.92 
L 189.658029 430.92 
L 188.628047 430.92 
L 187.598065 430.92 
L 186.568084 430.92 
L 185.538102 430.92 
L 185.538102 430.92 
L 184.50812 430.92 
L 183.478138 430.92 
L 182.448156 430.92 
L 181.418174 430.92 
L 180.388192 430.92 
L 179.35821 430.92 
L 178.328228 430.92 
L 177.298246 430.92 
L 176.268264 430.92 
L 175.238282 430.92 
L 174.2083 430.92 
L 173.178318 430.92 
L 172.148336 430.92 
L 171.118354 430.92 
L 170.088372 430.92 
L 169.05839 430.92 
L 168.028408 430.92 
L 165.968444 430.92 
L 164.938462 430.92 
L 163.90848 430.92 
L 162.878499 430.92 
L 160.818535 430.92 
L 159.788553 430.92 
L 157.728589 430.92 
L 156.698607 430.92 
L 154.638643 430.92 
L 153.608661 430.92 
L 151.548697 430.92 
L 149.488733 430.92 
L 147.428769 430.92 
L 145.368805 430.92 
L 142.278859 430.92 
L 139.188914 430.92 
L 136.098968 430.92 
L 133.009022 430.92 
L 90 430.92 
L 90 254.52 
L 90 254.52 
L 133.009022 253.8144 
L 136.098968 255.2256 
L 139.188914 255.9312 
L 142.278859 256.6368 
L 145.368805 257.3424 
L 147.428769 258.048 
L 149.488733 258.7536 
L 151.548697 259.4592 
L 153.608661 260.1648 
L 154.638643 260.8704 
L 156.698607 261.576 
L 157.728589 262.2816 
L 159.788553 262.9872 
L 160.818535 263.6928 
L 162.878499 264.3984 
L 163.90848 265.104 
L 164.938462 265.8096 
L 165.968444 266.5152 
L 168.028408 267.2208 
L 169.05839 267.9264 
L 170.088372 268.632 
L 171.118354 269.3376 
L 172.148336 270.0432 
L 173.178318 270.7488 
L 174.2083 271.4544 
L 175.238282 272.16 
L 176.268264 272.8656 
L 177.298246 273.5712 
L 178.328228 274.2768 
L 179.35821 274.9824 
L 180.388192 275.688 
L 181.418174 276.3936 
L 182.448156 277.0992 
L 183.478138 277.8048 
L 184.50812 278.5104 
L 185.538102 279.216 
L 185.538102 279.9216 
L 186.568084 280.6272 
L 187.598065 281.3328 
L 188.628047 282.0384 
L 189.658029 282.744 
L 190.688011 283.4496 
L 190.688011 284.1552 
L 191.717993 284.8608 
L 192.747975 285.5664 
L 193.777957 286.272 
L 194.807939 286.9776 
L 194.807939 287.6832 
L 195.837921 288.3888 
L 196.867903 289.0944 
L 197.897885 289.8 
L 197.897885 290.5056 
L 198.927867 291.2112 
L 199.957849 291.9168 
L 200.987831 292.6224 
L 200.987831 293.328 
L 202.017813 294.0336 
L 203.047795 294.7392 
L 203.047795 295.4448 
L 204.077777 296.1504 
L 205.107759 296.856 
L 206.137741 297.5616 
L 206.137741 298.2672 
L 207.167723 298.9728 
L 208.197705 299.6784 
L 208.197705 300.384 
L 209.227687 301.0896 
L 210.257669 301.7952 
L 210.257669 302.5008 
L 211.28765 303.2064 
L 212.317632 303.912 
L 212.317632 304.6176 
L 213.347614 305.3232 
L 214.377596 306.0288 
L 214.377596 306.7344 
L 215.407578 307.44 
L 216.43756 308.1456 
L 216.43756 308.8512 
L 217.467542 309.5568 
L 218.497524 310.2624 
L 218.497524 310.968 
L 219.527506 311.6736 
L 220.557488 312.3792 
L 220.557488 313.0848 
L 221.58747 313.7904 
L 221.58747 314.496 
L 222.617452 315.2016 
L 223.647434 315.9072 
L 223.647434 316.6128 
L 224.677416 317.3184 
L 225.707398 318.024 
L 225.707398 318.7296 
L 226.73738 319.4352 
L 226.73738 320.1408 
L 227.767362 320.8464 
L 228.797344 321.552 
L 228.797344 322.2576 
L 229.827326 322.9632 
L 229.827326 323.6688 
L 230.857308 324.3744 
L 231.88729 325.08 
L 231.88729 325.7856 
L 232.917272 326.4912 
L 232.917272 327.1968 
L 233.947254 327.9024 
L 234.977235 328.608 
L 234.977235 329.3136 
L 236.007217 330.0192 
L 236.007217 330.7248 
L 237.037199 331.4304 
L 238.067181 332.136 
L 238.067181 332.8416 
L 239.097163 333.5472 
L 239.097163 334.2528 
L 240.127145 334.9584 
L 240.127145 335.664 
L 241.157127 336.3696 
L 242.187109 337.0752 
L 242.187109 337.7808 
L 243.217091 338.4864 
L 243.217091 339.192 
L 244.247073 339.8976 
L 244.247073 340.6032 
L 245.277055 341.3088 
L 246.307037 342.0144 
L 246.307037 342.72 
L 247.337019 343.4256 
L 247.337019 344.1312 
L 248.367001 344.8368 
L 248.367001 345.5424 
L 249.396983 346.248 
L 249.396983 346.9536 
L 250.426965 347.6592 
L 251.456947 348.3648 
L 251.456947 349.0704 
L 252.486929 349.776 
L 252.486929 350.4816 
L 253.516911 351.1872 
L 253.516911 351.8928 
L 254.546893 352.5984 
L 254.546893 353.304 
L 255.576875 354.0096 
L 256.606857 354.7152 
L 256.606857 355.4208 
L 257.636839 356.1264 
L 257.636839 356.832 
L 258.66682 357.5376 
L 258.66682 358.2432 
L 259.696802 358.9488 
L 259.696802 359.6544 
L 260.726784 360.36 
L 260.726784 361.0656 
L 261.756766 361.7712 
L 261.756766 362.4768 
L 262.786748 363.1824 
L 263.81673 363.888 
L 263.81673 364.5936 
L 264.846712 365.2992 
L 264.846712 366.0048 
L 265.876694 366.7104 
L 265.876694 367.416 
L 266.906676 368.1216 
L 266.906676 368.8272 
L 267.936658 369.5328 
L 267.936658 370.2384 
L 268.96664 370.944 
L 268.96664 371.6496 
L 269.996622 372.3552 
L 269.996622 373.0608 
L 271.026604 373.7664 
L 271.026604 374.472 
L 272.056586 375.1776 
L 273.086568 375.8832 
L 273.086568 376.5888 
L 274.11655 377.2944 
L 274.11655 378 
L 275.146532 378.7056 
L 275.146532 379.4112 
L 276.176514 380.1168 
L 276.176514 380.8224 
L 277.206496 381.528 
L 277.206496 382.2336 
L 278.236478 382.9392 
L 278.236478 383.6448 
L 279.26646 384.3504 
L 279.26646 385.056 
L 280.296442 385.7616 
L 280.296442 386.4672 
L 281.326424 387.1728 
L 281.326424 387.8784 
L 282.356405 388.584 
L 282.356405 389.2896 
L 283.386387 389.9952 
L 283.386387 390.7008 
L 284.416369 391.4064 
L 284.416369 392.112 
L 285.446351 392.8176 
L 285.446351 393.5232 
L 286.476333 394.2288 
L 286.476333 394.9344 
L 287.506315 395.64 
L 287.506315 396.3456 
L 288.536297 397.0512 
L 288.536297 397.7568 
L 289.566279 398.4624 
L 289.566279 399.168 
L 290.596261 399.8736 
L 290.596261 400.5792 
L 291.626243 401.2848 
L 291.626243 401.9904 
L 292.656225 402.696 
L 292.656225 403.4016 
L 293.686207 404.1072 
L 293.686207 404.8128 
L 294.716189 405.5184 
L 294.716189 406.224 
L 295.746171 406.9296 
L 295.746171 407.6352 
L 296.776153 408.3408 
L 296.776153 409.0464 
L 297.806135 409.752 
L 297.806135 410.4576 
L 298.836117 411.1632 
L 298.836117 411.8688 
L 299.866099 412.5744 
L 299.866099 413.28 
L 300.896081 413.9856 
L 300.896081 414.6912 
L 301.926063 415.3968 
L 301.926063 416.1024 
L 302.956045 416.808 
L 302.956045 417.5136 
L 303.986027 418.2192 
L 303.986027 418.9248 
L 305.016009 419.6304 
L 305.016009 420.336 
L 306.04599 421.0416 
L 306.04599 421.7472 
L 307.075972 422.4528 
L 307.075972 423.1584 
L 308.105954 423.864 
L 308.105954 424.5696 
L 309.135936 425.2752 
L 309.135936 425.9808 
L 310.165918 426.6864 
L 310.165918 427.392 
L 311.1959 428.0976 
L 311.1959 428.8032 
L 311.1959 429.5088 
L 312.225882 430.2144 
z
" style="fill:url(#h08e38f5a30);fill-opacity:0.6;"/>
   </g>
   <g id="PolyCollection_2">
    <path clip-path="url(#p1bc96e3120)" d="M 90 254.52 
L 90 78.12 
L 134.039004 78.12 
L 134.039004 78.12 
L 135.068986 78.12 
L 136.098968 78.12 
L 137.12895 78.12 
L 137.12895 78.12 
L 138.158932 78.12 
L 139.188914 78.12 
L 140.218895 78.12 
L 141.248877 78.12 
L 141.248877 78.12 
L 142.278859 78.12 
L 143.308841 78.12 
L 144.338823 78.12 
L 145.368805 78.12 
L 146.398787 78.12 
L 146.398787 78.12 
L 147.428769 78.12 
L 148.458751 78.12 
L 149.488733 78.12 
L 150.518715 78.12 
L 151.548697 78.12 
L 152.578679 78.12 
L 152.578679 78.12 
L 153.608661 78.12 
L 154.638643 78.12 
L 155.668625 78.12 
L 156.698607 78.12 
L 157.728589 78.12 
L 158.758571 78.12 
L 159.788553 78.12 
L 159.788553 78.12 
L 160.818535 78.12 
L 161.848517 78.12 
L 162.878499 78.12 
L 163.90848 78.12 
L 164.938462 78.12 
L 165.968444 78.12 
L 166.998426 78.12 
L 168.028408 78.12 
L 169.05839 78.12 
L 169.05839 78.12 
L 170.088372 78.12 
L 171.118354 78.12 
L 172.148336 78.12 
L 173.178318 78.12 
L 174.2083 78.12 
L 175.238282 78.12 
L 176.268264 78.12 
L 177.298246 78.12 
L 178.328228 78.12 
L 178.328228 78.12 
L 179.35821 78.12 
L 180.388192 78.12 
L 181.418174 78.12 
L 182.448156 78.12 
L 183.478138 78.12 
L 184.50812 78.12 
L 185.538102 78.12 
L 186.568084 78.12 
L 187.598065 78.12 
L 187.598065 78.12 
L 188.628047 78.12 
L 189.658029 78.12 
L 190.688011 78.12 
L 191.717993 78.12 
L 192.747975 78.12 
L 193.777957 78.12 
L 194.807939 78.12 
L 194.807939 78.12 
L 195.837921 78.12 
L 196.867903 78.12 
L 197.897885 78.12 
L 198.927867 78.12 
L 199.957849 78.12 
L 200.987831 78.12 
L 202.017813 78.12 
L 202.017813 78.12 
L 203.047795 78.12 
L 204.077777 78.12 
L 205.107759 78.12 
L 206.137741 78.12 
L 207.167723 78.12 
L 208.197705 78.12 
L 208.197705 78.12 
L 209.227687 78.12 
L 210.257669 78.12 
L 211.28765 78.12 
L 212.317632 78.12 
L 213.347614 78.12 
L 213.347614 78.12 
L 214.377596 78.12 
L 215.407578 78.12 
L 216.43756 78.12 
L 217.467542 78.12 
L 218.497524 78.12 
L 218.497524 78.12 
L 219.527506 78.12 
L 220.557488 78.12 
L 221.58747 78.12 
L 222.617452 78.12 
L 222.617452 78.12 
L 223.647434 78.12 
L 224.677416 78.12 
L 225.707398 78.12 
L 226.73738 78.12 
L 226.73738 78.12 
L 227.767362 78.12 
L 228.797344 78.12 
L 229.827326 78.12 
L 229.827326 78.12 
L 230.857308 78.12 
L 231.88729 78.12 
L 232.917272 78.12 
L 232.917272 78.12 
L 233.947254 78.12 
L 234.977235 78.12 
L 236.007217 78.12 
L 236.007217 78.12 
L 237.037199 78.12 
L 238.067181 78.12 
L 239.097163 78.12 
L 239.097163 78.12 
L 240.127145 78.12 
L 241.157127 78.12 
L 242.187109 78.12 
L 242.187109 78.12 
L 243.217091 78.12 
L 244.247073 78.12 
L 244.247073 78.12 
L 245.277055 78.12 
L 246.307037 78.12 
L 247.337019 78.12 
L 247.337019 78.12 
L 248.367001 78.12 
L 249.396983 78.12 
L 249.396983 78.12 
L 250.426965 78.12 
L 251.456947 78.12 
L 252.486929 78.12 
L 253.516911 78.12 
L 254.546893 78.12 
L 255.576875 78.12 
L 256.606857 78.12 
L 257.636839 78.12 
L 257.636839 78.12 
L 258.66682 78.12 
L 259.696802 78.12 
L 259.696802 78.12 
L 260.726784 78.12 
L 261.756766 78.12 
L 261.756766 78.12 
L 301.926063 78.12 
L 302.956045 78.12 
L 302.956045 78.12 
L 303.986027 78.12 
L 303.986027 78.12 
L 303.986027 78.12 
L 305.016009 78.12 
L 305.016009 78.12 
L 306.04599 78.12 
L 306.04599 78.12 
L 307.075972 78.12 
L 307.075972 78.12 
L 308.105954 78.12 
L 308.105954 78.12 
L 309.135936 78.12 
L 309.135936 78.12 
L 309.135936 78.12 
L 310.165918 78.12 
L 310.165918 78.12 
L 311.1959 78.12 
L 311.1959 78.12 
L 312.225882 78.12 
L 312.225882 78.12 
L 312.225882 78.8256 
L 312.225882 78.8256 
L 312.225882 79.5312 
L 311.1959 80.2368 
L 311.1959 80.9424 
L 310.165918 81.648 
L 310.165918 82.3536 
L 309.135936 83.0592 
L 309.135936 83.7648 
L 309.135936 84.4704 
L 308.105954 85.176 
L 308.105954 85.8816 
L 307.075972 86.5872 
L 307.075972 87.2928 
L 306.04599 87.9984 
L 306.04599 88.704 
L 305.016009 89.4096 
L 305.016009 90.1152 
L 303.986027 90.8208 
L 303.986027 91.5264 
L 303.986027 92.232 
L 302.956045 92.9376 
L 302.956045 93.6432 
L 301.926063 94.3488 
L 261.756766 144.4464 
L 261.756766 145.152 
L 260.726784 145.8576 
L 259.696802 146.5632 
L 259.696802 147.2688 
L 258.66682 147.9744 
L 257.636839 148.68 
L 257.636839 149.3856 
L 256.606857 150.0912 
L 255.576875 151.5024 
L 254.546893 152.208 
L 253.516911 153.6192 
L 252.486929 154.3248 
L 251.456947 155.0304 
L 250.426965 156.4416 
L 249.396983 157.1472 
L 249.396983 157.8528 
L 248.367001 158.5584 
L 247.337019 159.264 
L 247.337019 159.9696 
L 246.307037 160.6752 
L 245.277055 161.3808 
L 244.247073 162.0864 
L 244.247073 162.792 
L 243.217091 163.4976 
L 242.187109 164.2032 
L 242.187109 164.9088 
L 241.157127 165.6144 
L 240.127145 166.32 
L 239.097163 167.0256 
L 239.097163 167.7312 
L 238.067181 168.4368 
L 237.037199 169.1424 
L 236.007217 169.848 
L 236.007217 170.5536 
L 234.977235 171.2592 
L 233.947254 171.9648 
L 232.917272 172.6704 
L 232.917272 173.376 
L 231.88729 174.0816 
L 230.857308 174.7872 
L 229.827326 175.4928 
L 229.827326 176.1984 
L 228.797344 176.904 
L 227.767362 177.6096 
L 226.73738 178.3152 
L 226.73738 179.0208 
L 225.707398 179.7264 
L 224.677416 180.432 
L 223.647434 181.1376 
L 222.617452 181.8432 
L 222.617452 182.5488 
L 221.58747 183.2544 
L 220.557488 183.96 
L 219.527506 184.6656 
L 218.497524 185.3712 
L 218.497524 186.0768 
L 217.467542 186.7824 
L 216.43756 187.488 
L 215.407578 188.1936 
L 214.377596 188.8992 
L 213.347614 189.6048 
L 213.347614 190.3104 
L 212.317632 191.016 
L 211.28765 191.7216 
L 210.257669 192.4272 
L 209.227687 193.1328 
L 208.197705 193.8384 
L 208.197705 194.544 
L 207.167723 195.2496 
L 206.137741 195.9552 
L 205.107759 196.6608 
L 204.077777 197.3664 
L 203.047795 198.072 
L 202.017813 198.7776 
L 202.017813 199.4832 
L 200.987831 200.1888 
L 199.957849 200.8944 
L 198.927867 201.6 
L 197.897885 202.3056 
L 196.867903 203.0112 
L 195.837921 203.7168 
L 194.807939 204.4224 
L 194.807939 205.128 
L 193.777957 205.8336 
L 192.747975 206.5392 
L 191.717993 207.2448 
L 190.688011 207.9504 
L 189.658029 208.656 
L 188.628047 209.3616 
L 187.598065 210.0672 
L 187.598065 210.7728 
L 186.568084 211.4784 
L 185.538102 212.184 
L 184.50812 212.8896 
L 183.478138 213.5952 
L 182.448156 214.3008 
L 181.418174 215.0064 
L 180.388192 215.712 
L 179.35821 216.4176 
L 178.328228 217.1232 
L 178.328228 217.8288 
L 177.298246 218.5344 
L 176.268264 219.24 
L 175.238282 219.9456 
L 174.2083 220.6512 
L 173.178318 221.3568 
L 172.148336 222.0624 
L 171.118354 222.768 
L 170.088372 223.4736 
L 169.05839 224.1792 
L 169.05839 224.8848 
L 168.028408 225.5904 
L 166.998426 226.296 
L 165.968444 227.0016 
L 164.938462 227.7072 
L 163.90848 228.4128 
L 162.878499 229.1184 
L 161.848517 229.824 
L 160.818535 230.5296 
L 159.788553 231.2352 
L 159.788553 231.9408 
L 158.758571 232.6464 
L 157.728589 233.352 
L 156.698607 234.0576 
L 155.668625 234.7632 
L 154.638643 235.4688 
L 153.608661 236.1744 
L 152.578679 236.88 
L 152.578679 237.5856 
L 151.548697 238.2912 
L 150.518715 238.9968 
L 149.488733 239.7024 
L 148.458751 240.408 
L 147.428769 241.1136 
L 146.398787 241.8192 
L 146.398787 242.5248 
L 145.368805 243.2304 
L 144.338823 243.936 
L 143.308841 244.6416 
L 142.278859 245.3472 
L 141.248877 246.0528 
L 141.248877 246.7584 
L 140.218895 247.464 
L 139.188914 248.1696 
L 138.158932 248.8752 
L 137.12895 249.5808 
L 137.12895 250.2864 
L 136.098968 250.992 
L 135.068986 251.6976 
L 134.039004 252.4032 
L 134.039004 253.1088 
L 90 254.52 
z
" style="fill:url(#h08e38f5a30);fill-opacity:0.6;"/>
   </g>
   <g id="patch_3">
    <path clip-path="url(#p1bc96e3120)" d="M 133.009022 448.56 
L 133.009022 60.48 
L 449.153129 60.48 
L 449.153129 448.56 
z
" style="fill:#333333;opacity:0.1;"/>
   </g>
   <g id="matplotlib.axis_1">
    <g id="xtick_1">
     <g id="line2d_1">
      <defs>
       <path d="M 0 0 
L 0 3.5 
" id="m84d732c387" style="stroke:#000000;stroke-width:0.8;"/>
      </defs>
      <g>
       <use style="stroke:#000000;stroke-width:0.8;" x="90" xlink:href="#m84d732c387" y="448.56"/>
      </g>
     </g>
     <g id="text_1">
      <!-- 1.0 -->
      <g transform="translate(82.048438 463.158437)scale(0.1 -0.1)">
       <defs>
        <path d="M 12.40625 8.296875 
L 28.515625 8.296875 
L 28.515625 63.921875 
L 10.984375 60.40625 
L 10.984375 69.390625 
L 28.421875 72.90625 
L 38.28125 72.90625 
L 38.28125 8.296875 
L 54.390625 8.296875 
L 54.390625 0 
L 12.40625 0 
z
" id="DejaVuSans-49"/>
        <path d="M 10.6875 12.40625 
L 21 12.40625 
L 21 0 
L 10.6875 0 
z
" id="DejaVuSans-46"/>
        <path d="M 31.78125 66.40625 
Q 24.171875 66.40625 20.328125 58.90625 
Q 16.5 51.421875 16.5 36.375 
Q 16.5 21.390625 20.328125 13.890625 
Q 24.171875 6.390625 31.78125 6.390625 
Q 39.453125 6.390625 43.28125 13.890625 
Q 47.125 21.390625 47.125 36.375 
Q 47.125 51.421875 43.28125 58.90625 
Q 39.453125 66.40625 31.78125 66.40625 
z
M 31.78125 74.21875 
Q 44.046875 74.21875 50.515625 64.515625 
Q 56.984375 54.828125 56.984375 36.375 
Q 56.984375 17.96875 50.515625 8.265625 
Q 44.046875 -1.421875 31.78125 -1.421875 
Q 19.53125 -1.421875 13.0625 8.265625 
Q 6.59375 17.96875 6.59375 36.375 
Q 6.59375 54.828125 13.0625 64.515625 
Q 19.53125 74.21875 31.78125 74.21875 
z
" id="DejaVuSans-48"/>
       </defs>
       <use xlink:href="#DejaVuSans-49"/>
       <use x="63.623047" xlink:href="#DejaVuSans-46"/>
       <use x="95.410156" xlink:href="#DejaVuSans-48"/>
      </g>
     </g>
    </g>
    <g id="xtick_2">
     <g id="line2d_2">
      <g>
       <use style="stroke:#000000;stroke-width:0.8;" x="201.6" xlink:href="#m84d732c387" y="448.56"/>
      </g>
     </g>
     <g id="text_2">
      <!-- 1.2 -->
      <g transform="translate(193.648438 463.158437)scale(0.1 -0.1)">
       <defs>
        <path d="M 19.1875 8.296875 
L 53.609375 8.296875 
L 53.609375 0 
L 7.328125 0 
L 7.328125 8.296875 
Q 12.9375 14.109375 22.625 23.890625 
Q 32.328125 33.6875 34.8125 36.53125 
Q 39.546875 41.84375 41.421875 45.53125 
Q 43.3125 49.21875 43.3125 52.78125 
Q 43.3125 58.59375 39.234375 62.25 
Q 35.15625 65.921875 28.609375 65.921875 
Q 23.96875 65.921875 18.8125 64.3125 
Q 13.671875 62.703125 7.8125 59.421875 
L 7.8125 69.390625 
Q 13.765625 71.78125 18.9375 73 
Q 24.125 74.21875 28.421875 74.21875 
Q 39.75 74.21875 46.484375 68.546875 
Q 53.21875 62.890625 53.21875 53.421875 
Q 53.21875 48.921875 51.53125 44.890625 
Q 49.859375 40.875 45.40625 35.40625 
Q 44.1875 33.984375 37.640625 27.21875 
Q 31.109375 20.453125 19.1875 8.296875 
z
" id="DejaVuSans-50"/>
       </defs>
       <use xlink:href="#DejaVuSans-49"/>
       <use x="63.623047" xlink:href="#DejaVuSans-46"/>
       <use x="95.410156" xlink:href="#DejaVuSans-50"/>
      </g>
     </g>
    </g>
    <g id="xtick_3">
     <g id="line2d_3">
      <g>
       <use style="stroke:#000000;stroke-width:0.8;" x="313.2" xlink:href="#m84d732c387" y="448.56"/>
      </g>
     </g>
     <g id="text_3">
      <!-- 1.4 -->
      <g transform="translate(305.248438 463.158437)scale(0.1 -0.1)">
       <defs>
        <path d="M 37.796875 64.3125 
L 12.890625 25.390625 
L 37.796875 25.390625 
z
M 35.203125 72.90625 
L 47.609375 72.90625 
L 47.609375 25.390625 
L 58.015625 25.390625 
L 58.015625 17.1875 
L 47.609375 17.1875 
L 47.609375 0 
L 37.796875 0 
L 37.796875 17.1875 
L 4.890625 17.1875 
L 4.890625 26.703125 
z
" id="DejaVuSans-52"/>
       </defs>
       <use xlink:href="#DejaVuSans-49"/>
       <use x="63.623047" xlink:href="#DejaVuSans-46"/>
       <use x="95.410156" xlink:href="#DejaVuSans-52"/>
      </g>
     </g>
    </g>
    <g id="xtick_4">
     <g id="line2d_4">
      <g>
       <use style="stroke:#000000;stroke-width:0.8;" x="424.8" xlink:href="#m84d732c387" y="448.56"/>
      </g>
     </g>
     <g id="text_4">
      <!-- 1.6 -->
      <g transform="translate(416.848438 463.158437)scale(0.1 -0.1)">
       <defs>
        <path d="M 33.015625 40.375 
Q 26.375 40.375 22.484375 35.828125 
Q 18.609375 31.296875 18.609375 23.390625 
Q 18.609375 15.53125 22.484375 10.953125 
Q 26.375 6.390625 33.015625 6.390625 
Q 39.65625 6.390625 43.53125 10.953125 
Q 47.40625 15.53125 47.40625 23.390625 
Q 47.40625 31.296875 43.53125 35.828125 
Q 39.65625 40.375 33.015625 40.375 
z
M 52.59375 71.296875 
L 52.59375 62.3125 
Q 48.875 64.0625 45.09375 64.984375 
Q 41.3125 65.921875 37.59375 65.921875 
Q 27.828125 65.921875 22.671875 59.328125 
Q 17.53125 52.734375 16.796875 39.40625 
Q 19.671875 43.65625 24.015625 45.921875 
Q 28.375 48.1875 33.59375 48.1875 
Q 44.578125 48.1875 50.953125 41.515625 
Q 57.328125 34.859375 57.328125 23.390625 
Q 57.328125 12.15625 50.6875 5.359375 
Q 44.046875 -1.421875 33.015625 -1.421875 
Q 20.359375 -1.421875 13.671875 8.265625 
Q 6.984375 17.96875 6.984375 36.375 
Q 6.984375 53.65625 15.1875 63.9375 
Q 23.390625 74.21875 37.203125 74.21875 
Q 40.921875 74.21875 44.703125 73.484375 
Q 48.484375 72.75 52.59375 71.296875 
z
" id="DejaVuSans-54"/>
       </defs>
       <use xlink:href="#DejaVuSans-49"/>
       <use x="63.623047" xlink:href="#DejaVuSans-46"/>
       <use x="95.410156" xlink:href="#DejaVuSans-54"/>
      </g>
     </g>
    </g>
    <g id="xtick_5">
     <g id="line2d_5">
      <g>
       <use style="stroke:#000000;stroke-width:0.8;" x="536.4" xlink:href="#m84d732c387" y="448.56"/>
      </g>
     </g>
     <g id="text_5">
      <!-- 1.8 -->
      <g transform="translate(528.448437 463.158437)scale(0.1 -0.1)">
       <defs>
        <path d="M 31.78125 34.625 
Q 24.75 34.625 20.71875 30.859375 
Q 16.703125 27.09375 16.703125 20.515625 
Q 16.703125 13.921875 20.71875 10.15625 
Q 24.75 6.390625 31.78125 6.390625 
Q 38.8125 6.390625 42.859375 10.171875 
Q 46.921875 13.96875 46.921875 20.515625 
Q 46.921875 27.09375 42.890625 30.859375 
Q 38.875 34.625 31.78125 34.625 
z
M 21.921875 38.8125 
Q 15.578125 40.375 12.03125 44.71875 
Q 8.5 49.078125 8.5 55.328125 
Q 8.5 64.0625 14.71875 69.140625 
Q 20.953125 74.21875 31.78125 74.21875 
Q 42.671875 74.21875 48.875 69.140625 
Q 55.078125 64.0625 55.078125 55.328125 
Q 55.078125 49.078125 51.53125 44.71875 
Q 48 40.375 41.703125 38.8125 
Q 48.828125 37.15625 52.796875 32.3125 
Q 56.78125 27.484375 56.78125 20.515625 
Q 56.78125 9.90625 50.3125 4.234375 
Q 43.84375 -1.421875 31.78125 -1.421875 
Q 19.734375 -1.421875 13.25 4.234375 
Q 6.78125 9.90625 6.78125 20.515625 
Q 6.78125 27.484375 10.78125 32.3125 
Q 14.796875 37.15625 21.921875 38.8125 
z
M 18.3125 54.390625 
Q 18.3125 48.734375 21.84375 45.5625 
Q 25.390625 42.390625 31.78125 42.390625 
Q 38.140625 42.390625 41.71875 45.5625 
Q 45.3125 48.734375 45.3125 54.390625 
Q 45.3125 60.0625 41.71875 63.234375 
Q 38.140625 66.40625 31.78125 66.40625 
Q 25.390625 66.40625 21.84375 63.234375 
Q 18.3125 60.0625 18.3125 54.390625 
z
" id="DejaVuSans-56"/>
       </defs>
       <use xlink:href="#DejaVuSans-49"/>
       <use x="63.623047" xlink:href="#DejaVuSans-46"/>
       <use x="95.410156" xlink:href="#DejaVuSans-56"/>
      </g>
     </g>
    </g>
    <g id="xtick_6">
     <g id="line2d_6">
      <g>
       <use style="stroke:#000000;stroke-width:0.8;" x="648" xlink:href="#m84d732c387" y="448.56"/>
      </g>
     </g>
     <g id="text_6">
      <!-- 2.0 -->
      <g transform="translate(640.048437 463.158437)scale(0.1 -0.1)">
       <use xlink:href="#DejaVuSans-50"/>
       <use x="63.623047" xlink:href="#DejaVuSans-46"/>
       <use x="95.410156" xlink:href="#DejaVuSans-48"/>
      </g>
     </g>
    </g>
    <g id="text_7">
     <!-- Current $I$ -->
     <g transform="translate(338.13 479.875938)scale(0.14 -0.14)">
      <defs>
       <path d="M 64.40625 67.28125 
L 64.40625 56.890625 
Q 59.421875 61.53125 53.78125 63.8125 
Q 48.140625 66.109375 41.796875 66.109375 
Q 29.296875 66.109375 22.65625 58.46875 
Q 16.015625 50.828125 16.015625 36.375 
Q 16.015625 21.96875 22.65625 14.328125 
Q 29.296875 6.6875 41.796875 6.6875 
Q 48.140625 6.6875 53.78125 8.984375 
Q 59.421875 11.28125 64.40625 15.921875 
L 64.40625 5.609375 
Q 59.234375 2.09375 53.4375 0.328125 
Q 47.65625 -1.421875 41.21875 -1.421875 
Q 24.65625 -1.421875 15.125 8.703125 
Q 5.609375 18.84375 5.609375 36.375 
Q 5.609375 53.953125 15.125 64.078125 
Q 24.65625 74.21875 41.21875 74.21875 
Q 47.75 74.21875 53.53125 72.484375 
Q 59.328125 70.75 64.40625 67.28125 
z
" id="DejaVuSans-67"/>
       <path d="M 8.5 21.578125 
L 8.5 54.6875 
L 17.484375 54.6875 
L 17.484375 21.921875 
Q 17.484375 14.15625 20.5 10.265625 
Q 23.53125 6.390625 29.59375 6.390625 
Q 36.859375 6.390625 41.078125 11.03125 
Q 45.3125 15.671875 45.3125 23.6875 
L 45.3125 54.6875 
L 54.296875 54.6875 
L 54.296875 0 
L 45.3125 0 
L 45.3125 8.40625 
Q 42.046875 3.421875 37.71875 1 
Q 33.40625 -1.421875 27.6875 -1.421875 
Q 18.265625 -1.421875 13.375 4.4375 
Q 8.5 10.296875 8.5 21.578125 
z
M 31.109375 56 
z
" id="DejaVuSans-117"/>
       <path d="M 41.109375 46.296875 
Q 39.59375 47.171875 37.8125 47.578125 
Q 36.03125 48 33.890625 48 
Q 26.265625 48 22.1875 43.046875 
Q 18.109375 38.09375 18.109375 28.8125 
L 18.109375 0 
L 9.078125 0 
L 9.078125 54.6875 
L 18.109375 54.6875 
L 18.109375 46.1875 
Q 20.953125 51.171875 25.484375 53.578125 
Q 30.03125 56 36.53125 56 
Q 37.453125 56 38.578125 55.875 
Q 39.703125 55.765625 41.0625 55.515625 
z
" id="DejaVuSans-114"/>
       <path d="M 56.203125 29.59375 
L 56.203125 25.203125 
L 14.890625 25.203125 
Q 15.484375 15.921875 20.484375 11.0625 
Q 25.484375 6.203125 34.421875 6.203125 
Q 39.59375 6.203125 44.453125 7.46875 
Q 49.3125 8.734375 54.109375 11.28125 
L 54.109375 2.78125 
Q 49.265625 0.734375 44.1875 -0.34375 
Q 39.109375 -1.421875 33.890625 -1.421875 
Q 20.796875 -1.421875 13.15625 6.1875 
Q 5.515625 13.8125 5.515625 26.8125 
Q 5.515625 40.234375 12.765625 48.109375 
Q 20.015625 56 32.328125 56 
Q 43.359375 56 49.78125 48.890625 
Q 56.203125 41.796875 56.203125 29.59375 
z
M 47.21875 32.234375 
Q 47.125 39.59375 43.09375 43.984375 
Q 39.0625 48.390625 32.421875 48.390625 
Q 24.90625 48.390625 20.390625 44.140625 
Q 15.875 39.890625 15.1875 32.171875 
z
" id="DejaVuSans-101"/>
       <path d="M 54.890625 33.015625 
L 54.890625 0 
L 45.90625 0 
L 45.90625 32.71875 
Q 45.90625 40.484375 42.875 44.328125 
Q 39.84375 48.1875 33.796875 48.1875 
Q 26.515625 48.1875 22.3125 43.546875 
Q 18.109375 38.921875 18.109375 30.90625 
L 18.109375 0 
L 9.078125 0 
L 9.078125 54.6875 
L 18.109375 54.6875 
L 18.109375 46.1875 
Q 21.34375 51.125 25.703125 53.5625 
Q 30.078125 56 35.796875 56 
Q 45.21875 56 50.046875 50.171875 
Q 54.890625 44.34375 54.890625 33.015625 
z
" id="DejaVuSans-110"/>
       <path d="M 18.3125 70.21875 
L 18.3125 54.6875 
L 36.8125 54.6875 
L 36.8125 47.703125 
L 18.3125 47.703125 
L 18.3125 18.015625 
Q 18.3125 11.328125 20.140625 9.421875 
Q 21.96875 7.515625 27.59375 7.515625 
L 36.8125 7.515625 
L 36.8125 0 
L 27.59375 0 
Q 17.1875 0 13.234375 3.875 
Q 9.28125 7.765625 9.28125 18.015625 
L 9.28125 47.703125 
L 2.6875 47.703125 
L 2.6875 54.6875 
L 9.28125 54.6875 
L 9.28125 70.21875 
z
" id="DejaVuSans-116"/>
       <path id="DejaVuSans-32"/>
       <path d="M 16.890625 72.90625 
L 26.8125 72.90625 
L 12.59375 0 
L 2.6875 0 
z
" id="DejaVuSans-Oblique-73"/>
      </defs>
      <use transform="translate(0 0.78125)" xlink:href="#DejaVuSans-67"/>
      <use transform="translate(69.824219 0.78125)" xlink:href="#DejaVuSans-117"/>
      <use transform="translate(133.203125 0.78125)" xlink:href="#DejaVuSans-114"/>
      <use transform="translate(174.316406 0.78125)" xlink:href="#DejaVuSans-114"/>
      <use transform="translate(215.429688 0.78125)" xlink:href="#DejaVuSans-101"/>
      <use transform="translate(276.953125 0.78125)" xlink:href="#DejaVuSans-110"/>
      <use transform="translate(340.332031 0.78125)" xlink:href="#DejaVuSans-116"/>
      <use transform="translate(379.541016 0.78125)" xlink:href="#DejaVuSans-32"/>
      <use transform="translate(411.328125 0.78125)" xlink:href="#DejaVuSans-Oblique-73"/>
     </g>
    </g>
   </g>
   <g id="matplotlib.axis_2">
    <g id="ytick_1">
     <g id="line2d_7">
      <defs>
       <path d="M 0 0 
L -3.5 0 
" id="mcca1afe148" style="stroke:#000000;stroke-width:0.8;"/>
      </defs>
      <g>
       <use style="stroke:#000000;stroke-width:0.8;" x="90" xlink:href="#mcca1afe148" y="430.92"/>
      </g>
     </g>
     <g id="text_8">
      <!-- 0.0 -->
      <g transform="translate(67.096875 434.719219)scale(0.1 -0.1)">
       <use xlink:href="#DejaVuSans-48"/>
       <use x="63.623047" xlink:href="#DejaVuSans-46"/>
       <use x="95.410156" xlink:href="#DejaVuSans-48"/>
      </g>
     </g>
    </g>
    <g id="ytick_2">
     <g id="line2d_8">
      <g>
       <use style="stroke:#000000;stroke-width:0.8;" x="90" xlink:href="#mcca1afe148" y="360.36"/>
      </g>
     </g>
     <g id="text_9">
      <!-- 0.2 -->
      <g transform="translate(67.096875 364.159219)scale(0.1 -0.1)">
       <use xlink:href="#DejaVuSans-48"/>
       <use x="63.623047" xlink:href="#DejaVuSans-46"/>
       <use x="95.410156" xlink:href="#DejaVuSans-50"/>
      </g>
     </g>
    </g>
    <g id="ytick_3">
     <g id="line2d_9">
      <g>
       <use style="stroke:#000000;stroke-width:0.8;" x="90" xlink:href="#mcca1afe148" y="289.8"/>
      </g>
     </g>
     <g id="text_10">
      <!-- 0.4 -->
      <g transform="translate(67.096875 293.599219)scale(0.1 -0.1)">
       <use xlink:href="#DejaVuSans-48"/>
       <use x="63.623047" xlink:href="#DejaVuSans-46"/>
       <use x="95.410156" xlink:href="#DejaVuSans-52"/>
      </g>
     </g>
    </g>
    <g id="ytick_4">
     <g id="line2d_10">
      <g>
       <use style="stroke:#000000;stroke-width:0.8;" x="90" xlink:href="#mcca1afe148" y="219.24"/>
      </g>
     </g>
     <g id="text_11">
      <!-- 0.6 -->
      <g transform="translate(67.096875 223.039219)scale(0.1 -0.1)">
       <use xlink:href="#DejaVuSans-48"/>
       <use x="63.623047" xlink:href="#DejaVuSans-46"/>
       <use x="95.410156" xlink:href="#DejaVuSans-54"/>
      </g>
     </g>
    </g>
    <g id="ytick_5">
     <g id="line2d_11">
      <g>
       <use style="stroke:#000000;stroke-width:0.8;" x="90" xlink:href="#mcca1afe148" y="148.68"/>
      </g>
     </g>
     <g id="text_12">
      <!-- 0.8 -->
      <g transform="translate(67.096875 152.479219)scale(0.1 -0.1)">
       <use xlink:href="#DejaVuSans-48"/>
       <use x="63.623047" xlink:href="#DejaVuSans-46"/>
       <use x="95.410156" xlink:href="#DejaVuSans-56"/>
      </g>
     </g>
    </g>
    <g id="ytick_6">
     <g id="line2d_12">
      <g>
       <use style="stroke:#000000;stroke-width:0.8;" x="90" xlink:href="#mcca1afe148" y="78.12"/>
      </g>
     </g>
     <g id="text_13">
      <!-- 1.0 -->
      <g transform="translate(67.096875 81.919219)scale(0.1 -0.1)">
       <use xlink:href="#DejaVuSans-49"/>
       <use x="63.623047" xlink:href="#DejaVuSans-46"/>
       <use x="95.410156" xlink:href="#DejaVuSans-48"/>
      </g>
     </g>
    </g>
    <g id="text_14">
     <!-- Phase Difference $\phi$ -->
     <g transform="translate(60.156875 320.88)rotate(-90)scale(0.14 -0.14)">
      <defs>
       <path d="M 19.671875 64.796875 
L 19.671875 37.40625 
L 32.078125 37.40625 
Q 38.96875 37.40625 42.71875 40.96875 
Q 46.484375 44.53125 46.484375 51.125 
Q 46.484375 57.671875 42.71875 61.234375 
Q 38.96875 64.796875 32.078125 64.796875 
z
M 9.8125 72.90625 
L 32.078125 72.90625 
Q 44.34375 72.90625 50.609375 67.359375 
Q 56.890625 61.8125 56.890625 51.125 
Q 56.890625 40.328125 50.609375 34.8125 
Q 44.34375 29.296875 32.078125 29.296875 
L 19.671875 29.296875 
L 19.671875 0 
L 9.8125 0 
z
" id="DejaVuSans-80"/>
       <path d="M 54.890625 33.015625 
L 54.890625 0 
L 45.90625 0 
L 45.90625 32.71875 
Q 45.90625 40.484375 42.875 44.328125 
Q 39.84375 48.1875 33.796875 48.1875 
Q 26.515625 48.1875 22.3125 43.546875 
Q 18.109375 38.921875 18.109375 30.90625 
L 18.109375 0 
L 9.078125 0 
L 9.078125 75.984375 
L 18.109375 75.984375 
L 18.109375 46.1875 
Q 21.34375 51.125 25.703125 53.5625 
Q 30.078125 56 35.796875 56 
Q 45.21875 56 50.046875 50.171875 
Q 54.890625 44.34375 54.890625 33.015625 
z
" id="DejaVuSans-104"/>
       <path d="M 34.28125 27.484375 
Q 23.390625 27.484375 19.1875 25 
Q 14.984375 22.515625 14.984375 16.5 
Q 14.984375 11.71875 18.140625 8.90625 
Q 21.296875 6.109375 26.703125 6.109375 
Q 34.1875 6.109375 38.703125 11.40625 
Q 43.21875 16.703125 43.21875 25.484375 
L 43.21875 27.484375 
z
M 52.203125 31.203125 
L 52.203125 0 
L 43.21875 0 
L 43.21875 8.296875 
Q 40.140625 3.328125 35.546875 0.953125 
Q 30.953125 -1.421875 24.3125 -1.421875 
Q 15.921875 -1.421875 10.953125 3.296875 
Q 6 8.015625 6 15.921875 
Q 6 25.140625 12.171875 29.828125 
Q 18.359375 34.515625 30.609375 34.515625 
L 43.21875 34.515625 
L 43.21875 35.40625 
Q 43.21875 41.609375 39.140625 45 
Q 35.0625 48.390625 27.6875 48.390625 
Q 23 48.390625 18.546875 47.265625 
Q 14.109375 46.140625 10.015625 43.890625 
L 10.015625 52.203125 
Q 14.9375 54.109375 19.578125 55.046875 
Q 24.21875 56 28.609375 56 
Q 40.484375 56 46.34375 49.84375 
Q 52.203125 43.703125 52.203125 31.203125 
z
" id="DejaVuSans-97"/>
       <path d="M 44.28125 53.078125 
L 44.28125 44.578125 
Q 40.484375 46.53125 36.375 47.5 
Q 32.28125 48.484375 27.875 48.484375 
Q 21.1875 48.484375 17.84375 46.4375 
Q 14.5 44.390625 14.5 40.28125 
Q 14.5 37.15625 16.890625 35.375 
Q 19.28125 33.59375 26.515625 31.984375 
L 29.59375 31.296875 
Q 39.15625 29.25 43.1875 25.515625 
Q 47.21875 21.78125 47.21875 15.09375 
Q 47.21875 7.46875 41.1875 3.015625 
Q 35.15625 -1.421875 24.609375 -1.421875 
Q 20.21875 -1.421875 15.453125 -0.5625 
Q 10.6875 0.296875 5.421875 2 
L 5.421875 11.28125 
Q 10.40625 8.6875 15.234375 7.390625 
Q 20.0625 6.109375 24.8125 6.109375 
Q 31.15625 6.109375 34.5625 8.28125 
Q 37.984375 10.453125 37.984375 14.40625 
Q 37.984375 18.0625 35.515625 20.015625 
Q 33.0625 21.96875 24.703125 23.78125 
L 21.578125 24.515625 
Q 13.234375 26.265625 9.515625 29.90625 
Q 5.8125 33.546875 5.8125 39.890625 
Q 5.8125 47.609375 11.28125 51.796875 
Q 16.75 56 26.8125 56 
Q 31.78125 56 36.171875 55.265625 
Q 40.578125 54.546875 44.28125 53.078125 
z
" id="DejaVuSans-115"/>
       <path d="M 19.671875 64.796875 
L 19.671875 8.109375 
L 31.59375 8.109375 
Q 46.6875 8.109375 53.6875 14.9375 
Q 60.6875 21.78125 60.6875 36.53125 
Q 60.6875 51.171875 53.6875 57.984375 
Q 46.6875 64.796875 31.59375 64.796875 
z
M 9.8125 72.90625 
L 30.078125 72.90625 
Q 51.265625 72.90625 61.171875 64.09375 
Q 71.09375 55.28125 71.09375 36.53125 
Q 71.09375 17.671875 61.125 8.828125 
Q 51.171875 0 30.078125 0 
L 9.8125 0 
z
" id="DejaVuSans-68"/>
       <path d="M 9.421875 54.6875 
L 18.40625 54.6875 
L 18.40625 0 
L 9.421875 0 
z
M 9.421875 75.984375 
L 18.40625 75.984375 
L 18.40625 64.59375 
L 9.421875 64.59375 
z
" id="DejaVuSans-105"/>
       <path d="M 37.109375 75.984375 
L 37.109375 68.5 
L 28.515625 68.5 
Q 23.6875 68.5 21.796875 66.546875 
Q 19.921875 64.59375 19.921875 59.515625 
L 19.921875 54.6875 
L 34.71875 54.6875 
L 34.71875 47.703125 
L 19.921875 47.703125 
L 19.921875 0 
L 10.890625 0 
L 10.890625 47.703125 
L 2.296875 47.703125 
L 2.296875 54.6875 
L 10.890625 54.6875 
L 10.890625 58.5 
Q 10.890625 67.625 15.140625 71.796875 
Q 19.390625 75.984375 28.609375 75.984375 
z
" id="DejaVuSans-102"/>
       <path d="M 48.78125 52.59375 
L 48.78125 44.1875 
Q 44.96875 46.296875 41.140625 47.34375 
Q 37.3125 48.390625 33.40625 48.390625 
Q 24.65625 48.390625 19.8125 42.84375 
Q 14.984375 37.3125 14.984375 27.296875 
Q 14.984375 17.28125 19.8125 11.734375 
Q 24.65625 6.203125 33.40625 6.203125 
Q 37.3125 6.203125 41.140625 7.25 
Q 44.96875 8.296875 48.78125 10.40625 
L 48.78125 2.09375 
Q 45.015625 0.34375 40.984375 -0.53125 
Q 36.96875 -1.421875 32.421875 -1.421875 
Q 20.0625 -1.421875 12.78125 6.34375 
Q 5.515625 14.109375 5.515625 27.296875 
Q 5.515625 40.671875 12.859375 48.328125 
Q 20.21875 56 33.015625 56 
Q 37.15625 56 41.109375 55.140625 
Q 45.0625 54.296875 48.78125 52.59375 
z
" id="DejaVuSans-99"/>
       <path d="M 46.734375 75.984375 
L 42.78125 55.8125 
Q 52.546875 55.8125 57.5625 48.34375 
Q 62.75 40.71875 60.15625 27.296875 
Q 57.515625 13.875 49.359375 6.25 
Q 41.453125 -1.21875 31.6875 -1.21875 
L 27.875 -20.796875 
L 18.953125 -20.796875 
L 22.75 -1.21875 
Q 13.03125 -1.21875 7.953125 6.25 
Q 2.78125 13.875 5.421875 27.296875 
Q 8.015625 40.71875 16.15625 48.34375 
Q 24.125 55.8125 33.84375 55.8125 
L 37.796875 75.984375 
z
M 33.25 6.78125 
Q 38.765625 6.78125 43.5 11.8125 
Q 48.6875 17.4375 50.6875 27.296875 
Q 52.640625 37.0625 49.515625 42.78125 
Q 46.734375 47.796875 41.21875 47.796875 
z
M 24.3125 6.78125 
L 32.28125 47.796875 
Q 26.8125 47.796875 22.078125 42.78125 
Q 16.75 37.0625 14.890625 27.296875 
Q 13.03125 17.4375 16.0625 11.8125 
Q 18.796875 6.78125 24.3125 6.78125 
z
" id="DejaVuSans-Oblique-981"/>
      </defs>
      <use transform="translate(0 0.015625)" xlink:href="#DejaVuSans-80"/>
      <use transform="translate(60.302734 0.015625)" xlink:href="#DejaVuSans-104"/>
      <use transform="translate(123.681641 0.015625)" xlink:href="#DejaVuSans-97"/>
      <use transform="translate(184.960938 0.015625)" xlink:href="#DejaVuSans-115"/>
      <use transform="translate(237.060547 0.015625)" xlink:href="#DejaVuSans-101"/>
      <use transform="translate(298.583984 0.015625)" xlink:href="#DejaVuSans-32"/>
      <use transform="translate(330.371094 0.015625)" xlink:href="#DejaVuSans-68"/>
      <use transform="translate(407.373047 0.015625)" xlink:href="#DejaVuSans-105"/>
      <use transform="translate(435.15625 0.015625)" xlink:href="#DejaVuSans-102"/>
      <use transform="translate(470.361328 0.015625)" xlink:href="#DejaVuSans-102"/>
      <use transform="translate(505.566406 0.015625)" xlink:href="#DejaVuSans-101"/>
      <use transform="translate(567.089844 0.015625)" xlink:href="#DejaVuSans-114"/>
      <use transform="translate(608.203125 0.015625)" xlink:href="#DejaVuSans-101"/>
      <use transform="translate(669.726562 0.015625)" xlink:href="#DejaVuSans-110"/>
      <use transform="translate(733.105469 0.015625)" xlink:href="#DejaVuSans-99"/>
      <use transform="translate(788.085938 0.015625)" xlink:href="#DejaVuSans-101"/>
      <use transform="translate(849.609375 0.015625)" xlink:href="#DejaVuSans-32"/>
      <use transform="translate(881.396484 0.015625)" xlink:href="#DejaVuSans-Oblique-981"/>
     </g>
    </g>
   </g>
   <g id="line2d_13">
    <path clip-path="url(#p1bc96e3120)" d="M 648 254.52 
L 449.153129 254.52 
L 449.153129 254.52 
" style="fill:none;stroke:#000000;stroke-dasharray:7.4,3.2;stroke-dashoffset:0;stroke-width:2;"/>
   </g>
   <g id="line2d_14">
    <path clip-path="url(#p1bc96e3120)" d="M 449.153129 254.52 
L 133.009022 254.52 
L 133.009022 254.52 
" style="fill:none;stroke:#000000;stroke-linecap:square;stroke-width:2;"/>
   </g>
   <g id="line2d_15">
    <path clip-path="url(#p1bc96e3120)" d="M 449.153129 254.52 
L 449.153129 252.006759 
L 448.594571 245.662392 
L 448.036013 242.308251 
L 446.918897 237.596184 
L 445.801781 234.075558 
L 444.684665 231.198685 
L 443.008991 227.646695 
L 441.333317 224.724876 
L 439.657643 222.260709 
L 437.423411 219.28096 
L 435.747737 216.476588 
L 434.072063 214.021453 
L 431.837831 211.189422 
L 429.603599 208.77761 
L 427.369367 206.722021 
L 426.810809 206.257983 
L 424.018019 202.951718 
L 421.783787 200.668432 
L 419.549555 198.678922 
L 417.315323 196.953201 
L 416.198207 196.174183 
L 413.963975 193.969994 
L 411.729743 192.022433 
L 408.936953 189.914841 
L 405.027047 187.16293 
L 402.234257 184.947769 
L 399.441467 183.046036 
L 394.972947 180.185604 
L 392.180157 178.248344 
L 389.387367 176.583587 
L 386.594577 175.029785 
L 383.801787 173.186299 
L 381.008997 171.593866 
L 377.099091 169.499187 
L 374.306301 167.85214 
L 371.513511 166.433566 
L 368.720721 165.028364 
L 365.927931 163.482112 
L 363.135141 162.151068 
L 360.900909 161.11934 
L 357.549561 159.370052 
L 354.198213 157.911753 
L 353.081097 157.394795 
L 349.729749 155.737905 
L 346.378401 154.358951 
L 344.702727 153.558977 
L 341.351379 152.05171 
L 335.765743 149.683751 
L 332.414395 148.373135 
L 330.738721 147.681153 
L 327.387373 146.282124 
L 316.774771 142.206508 
L 313.423423 140.963064 
L 310.630633 139.939062 
L 307.279285 138.731146 
L 304.486495 137.734345 
L 301.135147 136.573174 
L 298.900915 135.797261 
L 295.549567 134.655671 
L 292.756777 133.705298 
L 286.612639 131.676769 
L 277.117097 128.675146 
L 277.117097 128.675146 
" style="fill:none;stroke:#000000;stroke-dasharray:7.4,3.2;stroke-dashoffset:0;stroke-width:2;"/>
   </g>
   <g id="line2d_16">
    <path clip-path="url(#p1bc96e3120)" d="M 449.153129 254.52 
L 449.153129 257.033241 
L 448.594571 263.377608 
L 448.036013 266.731749 
L 446.918897 271.443816 
L 445.801781 274.964442 
L 444.684665 277.841315 
L 443.008991 281.393305 
L 441.333317 284.315124 
L 439.657643 286.779291 
L 437.423411 289.75904 
L 435.747737 292.563412 
L 434.072063 295.018547 
L 431.837831 297.850578 
L 429.603599 300.26239 
L 427.369367 302.317979 
L 426.810809 302.782017 
L 424.018019 306.088282 
L 421.783787 308.371568 
L 419.549555 310.361078 
L 417.315323 312.086799 
L 416.198207 312.865817 
L 413.963975 315.070006 
L 411.729743 317.017567 
L 408.936953 319.125159 
L 405.027047 321.87707 
L 402.234257 324.092231 
L 399.441467 325.993964 
L 394.972947 328.854396 
L 392.180157 330.791656 
L 389.387367 332.456413 
L 386.594577 334.010215 
L 383.801787 335.853701 
L 381.008997 337.446134 
L 377.099091 339.540813 
L 374.306301 341.18786 
L 371.513511 342.606434 
L 368.720721 344.011636 
L 365.927931 345.557888 
L 363.135141 346.888932 
L 360.900909 347.92066 
L 357.549561 349.669948 
L 354.198213 351.128247 
L 353.081097 351.645205 
L 349.729749 353.302095 
L 346.378401 354.681049 
L 344.702727 355.481023 
L 341.351379 356.98829 
L 335.765743 359.356249 
L 332.414395 360.666865 
L 330.738721 361.358847 
L 327.387373 362.757876 
L 316.774771 366.833492 
L 313.423423 368.076936 
L 310.630633 369.100938 
L 307.279285 370.308854 
L 304.486495 371.305655 
L 301.135147 372.466826 
L 298.900915 373.242739 
L 295.549567 374.384329 
L 292.756777 375.334702 
L 286.612639 377.363231 
L 277.117097 380.364854 
L 277.117097 380.364854 
" style="fill:none;stroke:#000000;stroke-dasharray:7.4,3.2;stroke-dashoffset:0;stroke-width:2;"/>
   </g>
   <g id="line2d_17">
    <path clip-path="url(#p1bc96e3120)" d="M 648 430.92 
L 636.84 430.92 
L 631.26 430.92 
L 625.68 430.92 
L 620.1 430.92 
L 614.52 430.92 
L 608.94 430.92 
L 603.36 430.92 
L 597.78 430.92 
L 592.2 430.92 
L 586.62 430.92 
L 581.04 430.92 
L 575.46 430.92 
L 569.88 430.92 
L 564.3 430.92 
L 558.72 430.92 
L 553.14 430.92 
L 547.56 430.92 
L 541.98 430.92 
L 536.4 430.92 
L 530.82 430.92 
L 525.24 430.92 
L 519.66 430.92 
L 514.08 430.92 
L 508.5 430.92 
L 502.92 430.92 
L 497.34 430.92 
L 491.76 430.92 
L 486.18 430.92 
L 480.6 430.92 
L 475.02 430.92 
L 469.44 430.92 
L 463.86 430.92 
L 458.28 430.92 
L 452.7 430.92 
L 447.12 430.92 
L 441.54 430.92 
L 435.96 430.92 
L 430.38 430.92 
L 424.8 430.92 
L 419.22 430.92 
L 413.64 430.92 
L 408.06 430.92 
L 402.48 430.92 
L 396.9 430.92 
L 391.32 430.92 
L 385.74 430.92 
L 380.16 430.92 
L 374.58 430.92 
L 369 430.92 
L 363.42 430.92 
L 357.84 430.92 
L 352.26 430.92 
L 346.68 430.92 
L 341.1 430.92 
L 335.52 430.92 
L 329.94 430.92 
L 324.36 430.92 
L 318.78 430.92 
L 313.2 430.92 
L 307.62 430.92 
L 302.04 430.92 
L 296.46 430.92 
L 290.88 430.92 
L 285.3 430.92 
L 279.72 430.92 
L 274.14 430.92 
L 268.56 430.92 
L 262.98 430.92 
L 257.4 430.92 
L 251.82 430.92 
L 246.24 430.92 
L 240.66 430.92 
L 235.08 430.92 
L 229.5 430.92 
L 223.92 430.92 
L 218.34 430.92 
L 212.76 430.92 
L 207.18 430.92 
L 201.6 430.92 
L 196.02 430.92 
L 190.44 430.92 
L 184.86 430.92 
L 179.28 430.92 
L 173.7 430.92 
L 168.12 430.92 
L 162.54 430.92 
L 156.96 430.92 
L 151.38 430.92 
L 145.8 430.92 
L 140.22 430.92 
L 134.64 430.92 
L 129.06 430.92 
L 123.48 430.92 
L 117.9 430.92 
L 112.32 430.92 
L 106.74 430.92 
L 101.16 430.92 
L 95.58 430.92 
L 90 430.92 
" style="fill:none;stroke:#000000;stroke-linecap:square;stroke-width:2;"/>
   </g>
   <g id="line2d_18">
    <path clip-path="url(#p1bc96e3120)" d="M 648 78.12 
L 636.84 78.12 
L 631.26 78.12 
L 625.68 78.12 
L 620.1 78.12 
L 614.52 78.12 
L 608.94 78.12 
L 603.36 78.12 
L 597.78 78.12 
L 592.2 78.12 
L 586.62 78.12 
L 581.04 78.12 
L 575.46 78.12 
L 569.88 78.12 
L 564.3 78.12 
L 558.72 78.12 
L 553.14 78.12 
L 547.56 78.12 
L 541.98 78.12 
L 536.4 78.12 
L 530.82 78.12 
L 525.24 78.12 
L 519.66 78.12 
L 514.08 78.12 
L 508.5 78.12 
L 502.92 78.12 
L 497.34 78.12 
L 491.76 78.12 
L 486.18 78.12 
L 480.6 78.12 
L 475.02 78.12 
L 469.44 78.12 
L 463.86 78.12 
L 458.28 78.12 
L 452.7 78.12 
L 447.12 78.12 
L 441.54 78.12 
L 435.96 78.12 
L 430.38 78.12 
L 424.8 78.12 
L 419.22 78.12 
L 413.64 78.12 
L 408.06 78.12 
L 402.48 78.12 
L 396.9 78.12 
L 391.32 78.12 
L 385.74 78.12 
L 380.16 78.12 
L 374.58 78.12 
L 369 78.12 
L 363.42 78.12 
L 357.84 78.12 
L 352.26 78.12 
L 346.68 78.12 
L 341.1 78.12 
L 335.52 78.12 
L 329.94 78.12 
L 324.36 78.12 
L 318.78 78.12 
L 313.2 78.12 
L 307.62 78.12 
L 302.04 78.12 
L 296.46 78.12 
L 290.88 78.12 
L 285.3 78.12 
L 279.72 78.12 
L 274.14 78.12 
L 268.56 78.12 
L 262.98 78.12 
L 257.4 78.12 
L 251.82 78.12 
L 246.24 78.12 
L 240.66 78.12 
L 235.08 78.12 
L 229.5 78.12 
L 223.92 78.12 
L 218.34 78.12 
L 212.76 78.12 
L 207.18 78.12 
L 201.6 78.12 
L 196.02 78.12 
L 190.44 78.12 
L 184.86 78.12 
L 179.28 78.12 
L 173.7 78.12 
L 168.12 78.12 
L 162.54 78.12 
L 156.96 78.12 
L 151.38 78.12 
L 145.8 78.12 
L 140.22 78.12 
L 134.64 78.12 
L 129.06 78.12 
L 123.48 78.12 
L 117.9 78.12 
L 112.32 78.12 
L 106.74 78.12 
L 101.16 78.12 
L 95.58 78.12 
L 90 78.12 
" style="fill:none;stroke:#000000;stroke-linecap:square;stroke-width:2;"/>
   </g>
   <g id="patch_4">
    <path d="M 90 448.56 
L 90 60.48 
" style="fill:none;stroke:#000000;stroke-linecap:square;stroke-linejoin:miter;stroke-width:0.8;"/>
   </g>
   <g id="patch_5">
    <path d="M 648 448.56 
L 648 60.48 
" style="fill:none;stroke:#000000;stroke-linecap:square;stroke-linejoin:miter;stroke-width:0.8;"/>
   </g>
   <g id="patch_6">
    <path d="M 90 448.56 
L 648 448.56 
" style="fill:none;stroke:#000000;stroke-linecap:square;stroke-linejoin:miter;stroke-width:0.8;"/>
   </g>
   <g id="patch_7">
    <path d="M 90 60.48 
L 648 60.48 
" style="fill:none;stroke:#000000;stroke-linecap:square;stroke-linejoin:miter;stroke-width:0.8;"/>
   </g>
   <g id="text_15">
    <!-- Bifurcation diagram of two coupled neurons, $\gamma$=0.4, $\beta$=0.1 -->
    <g transform="translate(119.525 45.48)scale(0.17 -0.17)">
     <defs>
      <path d="M 19.671875 34.8125 
L 19.671875 8.109375 
L 35.5 8.109375 
Q 43.453125 8.109375 47.28125 11.40625 
Q 51.125 14.703125 51.125 21.484375 
Q 51.125 28.328125 47.28125 31.5625 
Q 43.453125 34.8125 35.5 34.8125 
z
M 19.671875 64.796875 
L 19.671875 42.828125 
L 34.28125 42.828125 
Q 41.5 42.828125 45.03125 45.53125 
Q 48.578125 48.25 48.578125 53.8125 
Q 48.578125 59.328125 45.03125 62.0625 
Q 41.5 64.796875 34.28125 64.796875 
z
M 9.8125 72.90625 
L 35.015625 72.90625 
Q 46.296875 72.90625 52.390625 68.21875 
Q 58.5 63.53125 58.5 54.890625 
Q 58.5 48.1875 55.375 44.234375 
Q 52.25 40.28125 46.1875 39.3125 
Q 53.46875 37.75 57.5 32.78125 
Q 61.53125 27.828125 61.53125 20.40625 
Q 61.53125 10.640625 54.890625 5.3125 
Q 48.25 0 35.984375 0 
L 9.8125 0 
z
" id="DejaVuSans-66"/>
      <path d="M 30.609375 48.390625 
Q 23.390625 48.390625 19.1875 42.75 
Q 14.984375 37.109375 14.984375 27.296875 
Q 14.984375 17.484375 19.15625 11.84375 
Q 23.34375 6.203125 30.609375 6.203125 
Q 37.796875 6.203125 41.984375 11.859375 
Q 46.1875 17.53125 46.1875 27.296875 
Q 46.1875 37.015625 41.984375 42.703125 
Q 37.796875 48.390625 30.609375 48.390625 
z
M 30.609375 56 
Q 42.328125 56 49.015625 48.375 
Q 55.71875 40.765625 55.71875 27.296875 
Q 55.71875 13.875 49.015625 6.21875 
Q 42.328125 -1.421875 30.609375 -1.421875 
Q 18.84375 -1.421875 12.171875 6.21875 
Q 5.515625 13.875 5.515625 27.296875 
Q 5.515625 40.765625 12.171875 48.375 
Q 18.84375 56 30.609375 56 
z
" id="DejaVuSans-111"/>
      <path d="M 45.40625 46.390625 
L 45.40625 75.984375 
L 54.390625 75.984375 
L 54.390625 0 
L 45.40625 0 
L 45.40625 8.203125 
Q 42.578125 3.328125 38.25 0.953125 
Q 33.9375 -1.421875 27.875 -1.421875 
Q 17.96875 -1.421875 11.734375 6.484375 
Q 5.515625 14.40625 5.515625 27.296875 
Q 5.515625 40.1875 11.734375 48.09375 
Q 17.96875 56 27.875 56 
Q 33.9375 56 38.25 53.625 
Q 42.578125 51.265625 45.40625 46.390625 
z
M 14.796875 27.296875 
Q 14.796875 17.390625 18.875 11.75 
Q 22.953125 6.109375 30.078125 6.109375 
Q 37.203125 6.109375 41.296875 11.75 
Q 45.40625 17.390625 45.40625 27.296875 
Q 45.40625 37.203125 41.296875 42.84375 
Q 37.203125 48.484375 30.078125 48.484375 
Q 22.953125 48.484375 18.875 42.84375 
Q 14.796875 37.203125 14.796875 27.296875 
z
" id="DejaVuSans-100"/>
      <path d="M 45.40625 27.984375 
Q 45.40625 37.75 41.375 43.109375 
Q 37.359375 48.484375 30.078125 48.484375 
Q 22.859375 48.484375 18.828125 43.109375 
Q 14.796875 37.75 14.796875 27.984375 
Q 14.796875 18.265625 18.828125 12.890625 
Q 22.859375 7.515625 30.078125 7.515625 
Q 37.359375 7.515625 41.375 12.890625 
Q 45.40625 18.265625 45.40625 27.984375 
z
M 54.390625 6.78125 
Q 54.390625 -7.171875 48.1875 -13.984375 
Q 42 -20.796875 29.203125 -20.796875 
Q 24.46875 -20.796875 20.265625 -20.09375 
Q 16.0625 -19.390625 12.109375 -17.921875 
L 12.109375 -9.1875 
Q 16.0625 -11.328125 19.921875 -12.34375 
Q 23.78125 -13.375 27.78125 -13.375 
Q 36.625 -13.375 41.015625 -8.765625 
Q 45.40625 -4.15625 45.40625 5.171875 
L 45.40625 9.625 
Q 42.625 4.78125 38.28125 2.390625 
Q 33.9375 0 27.875 0 
Q 17.828125 0 11.671875 7.65625 
Q 5.515625 15.328125 5.515625 27.984375 
Q 5.515625 40.671875 11.671875 48.328125 
Q 17.828125 56 27.875 56 
Q 33.9375 56 38.28125 53.609375 
Q 42.625 51.21875 45.40625 46.390625 
L 45.40625 54.6875 
L 54.390625 54.6875 
z
" id="DejaVuSans-103"/>
      <path d="M 52 44.1875 
Q 55.375 50.25 60.0625 53.125 
Q 64.75 56 71.09375 56 
Q 79.640625 56 84.28125 50.015625 
Q 88.921875 44.046875 88.921875 33.015625 
L 88.921875 0 
L 79.890625 0 
L 79.890625 32.71875 
Q 79.890625 40.578125 77.09375 44.375 
Q 74.3125 48.1875 68.609375 48.1875 
Q 61.625 48.1875 57.5625 43.546875 
Q 53.515625 38.921875 53.515625 30.90625 
L 53.515625 0 
L 44.484375 0 
L 44.484375 32.71875 
Q 44.484375 40.625 41.703125 44.40625 
Q 38.921875 48.1875 33.109375 48.1875 
Q 26.21875 48.1875 22.15625 43.53125 
Q 18.109375 38.875 18.109375 30.90625 
L 18.109375 0 
L 9.078125 0 
L 9.078125 54.6875 
L 18.109375 54.6875 
L 18.109375 46.1875 
Q 21.1875 51.21875 25.484375 53.609375 
Q 29.78125 56 35.6875 56 
Q 41.65625 56 45.828125 52.96875 
Q 50 49.953125 52 44.1875 
z
" id="DejaVuSans-109"/>
      <path d="M 4.203125 54.6875 
L 13.1875 54.6875 
L 24.421875 12.015625 
L 35.59375 54.6875 
L 46.1875 54.6875 
L 57.421875 12.015625 
L 68.609375 54.6875 
L 77.59375 54.6875 
L 63.28125 0 
L 52.6875 0 
L 40.921875 44.828125 
L 29.109375 0 
L 18.5 0 
z
" id="DejaVuSans-119"/>
      <path d="M 18.109375 8.203125 
L 18.109375 -20.796875 
L 9.078125 -20.796875 
L 9.078125 54.6875 
L 18.109375 54.6875 
L 18.109375 46.390625 
Q 20.953125 51.265625 25.265625 53.625 
Q 29.59375 56 35.59375 56 
Q 45.5625 56 51.78125 48.09375 
Q 58.015625 40.1875 58.015625 27.296875 
Q 58.015625 14.40625 51.78125 6.484375 
Q 45.5625 -1.421875 35.59375 -1.421875 
Q 29.59375 -1.421875 25.265625 0.953125 
Q 20.953125 3.328125 18.109375 8.203125 
z
M 48.6875 27.296875 
Q 48.6875 37.203125 44.609375 42.84375 
Q 40.53125 48.484375 33.40625 48.484375 
Q 26.265625 48.484375 22.1875 42.84375 
Q 18.109375 37.203125 18.109375 27.296875 
Q 18.109375 17.390625 22.1875 11.75 
Q 26.265625 6.109375 33.40625 6.109375 
Q 40.53125 6.109375 44.609375 11.75 
Q 48.6875 17.390625 48.6875 27.296875 
z
" id="DejaVuSans-112"/>
      <path d="M 9.421875 75.984375 
L 18.40625 75.984375 
L 18.40625 0 
L 9.421875 0 
z
" id="DejaVuSans-108"/>
      <path d="M 11.71875 12.40625 
L 22.015625 12.40625 
L 22.015625 4 
L 14.015625 -11.625 
L 7.71875 -11.625 
L 11.71875 4 
z
" id="DejaVuSans-44"/>
      <path d="M 23.296875 46.09375 
L 28.71875 12.3125 
L 54 54.6875 
L 63.53125 54.6875 
L 30.8125 0 
L 26.765625 -20.796875 
L 17.78125 -20.796875 
L 21.828125 0 
L 15.4375 40.828125 
Q 14.453125 46.96875 9.8125 46.96875 
L 7.421875 46.96875 
L 8.890625 54.6875 
L 12.3125 54.6875 
Q 21.921875 54.6875 23.296875 46.09375 
z
" id="DejaVuSans-Oblique-947"/>
      <path d="M 10.59375 45.40625 
L 73.1875 45.40625 
L 73.1875 37.203125 
L 10.59375 37.203125 
z
M 10.59375 25.484375 
L 73.1875 25.484375 
L 73.1875 17.1875 
L 10.59375 17.1875 
z
" id="DejaVuSans-61"/>
      <path d="M 13.625 3.375 
L 8.9375 -20.796875 
L -0.09375 -20.796875 
L 14.5 54.34375 
Q 18.84375 76.609375 39.65625 76.609375 
Q 60.75 76.609375 57.171875 57.8125 
Q 54.734375 44.4375 45.21875 39.546875 
Q 58.015625 35.15625 55.515625 22.125 
Q 51.125 -1.078125 27.484375 -1.03125 
Q 17.140625 -0.984375 13.625 3.375 
z
M 15.921875 15.09375 
Q 19.671875 6.59375 29.296875 6.640625 
Q 43.359375 6.640625 46.34375 21.96875 
Q 49.03125 35.75 26.171875 34.671875 
L 27.78125 42.96875 
Q 45.453125 42.671875 48.53125 58.59375 
Q 50.640625 69.34375 39.203125 69.28125 
Q 26.421875 69.28125 23.484375 54.046875 
z
" id="DejaVuSans-Oblique-946"/>
     </defs>
     <use transform="translate(0 0.390625)" xlink:href="#DejaVuSans-66"/>
     <use transform="translate(68.603516 0.390625)" xlink:href="#DejaVuSans-105"/>
     <use transform="translate(96.386719 0.390625)" xlink:href="#DejaVuSans-102"/>
     <use transform="translate(131.591797 0.390625)" xlink:href="#DejaVuSans-117"/>
     <use transform="translate(194.970703 0.390625)" xlink:href="#DejaVuSans-114"/>
     <use transform="translate(236.083984 0.390625)" xlink:href="#DejaVuSans-99"/>
     <use transform="translate(291.064453 0.390625)" xlink:href="#DejaVuSans-97"/>
     <use transform="translate(352.34375 0.390625)" xlink:href="#DejaVuSans-116"/>
     <use transform="translate(391.552734 0.390625)" xlink:href="#DejaVuSans-105"/>
     <use transform="translate(419.335938 0.390625)" xlink:href="#DejaVuSans-111"/>
     <use transform="translate(480.517578 0.390625)" xlink:href="#DejaVuSans-110"/>
     <use transform="translate(543.896484 0.390625)" xlink:href="#DejaVuSans-32"/>
     <use transform="translate(575.683594 0.390625)" xlink:href="#DejaVuSans-100"/>
     <use transform="translate(639.160156 0.390625)" xlink:href="#DejaVuSans-105"/>
     <use transform="translate(666.943359 0.390625)" xlink:href="#DejaVuSans-97"/>
     <use transform="translate(728.222656 0.390625)" xlink:href="#DejaVuSans-103"/>
     <use transform="translate(791.699219 0.390625)" xlink:href="#DejaVuSans-114"/>
     <use transform="translate(832.8125 0.390625)" xlink:href="#DejaVuSans-97"/>
     <use transform="translate(894.091797 0.390625)" xlink:href="#DejaVuSans-109"/>
     <use transform="translate(991.503906 0.390625)" xlink:href="#DejaVuSans-32"/>
     <use transform="translate(1023.291016 0.390625)" xlink:href="#DejaVuSans-111"/>
     <use transform="translate(1084.472656 0.390625)" xlink:href="#DejaVuSans-102"/>
     <use transform="translate(1119.677734 0.390625)" xlink:href="#DejaVuSans-32"/>
     <use transform="translate(1151.464844 0.390625)" xlink:href="#DejaVuSans-116"/>
     <use transform="translate(1190.673828 0.390625)" xlink:href="#DejaVuSans-119"/>
     <use transform="translate(1272.460938 0.390625)" xlink:href="#DejaVuSans-111"/>
     <use transform="translate(1333.642578 0.390625)" xlink:href="#DejaVuSans-32"/>
     <use transform="translate(1365.429688 0.390625)" xlink:href="#DejaVuSans-99"/>
     <use transform="translate(1420.410156 0.390625)" xlink:href="#DejaVuSans-111"/>
     <use transform="translate(1481.591797 0.390625)" xlink:href="#DejaVuSans-117"/>
     <use transform="translate(1544.970703 0.390625)" xlink:href="#DejaVuSans-112"/>
     <use transform="translate(1608.447266 0.390625)" xlink:href="#DejaVuSans-108"/>
     <use transform="translate(1636.230469 0.390625)" xlink:href="#DejaVuSans-101"/>
     <use transform="translate(1697.753906 0.390625)" xlink:href="#DejaVuSans-100"/>
     <use transform="translate(1761.230469 0.390625)" xlink:href="#DejaVuSans-32"/>
     <use transform="translate(1793.017578 0.390625)" xlink:href="#DejaVuSans-110"/>
     <use transform="translate(1856.396484 0.390625)" xlink:href="#DejaVuSans-101"/>
     <use transform="translate(1917.919922 0.390625)" xlink:href="#DejaVuSans-117"/>
     <use transform="translate(1981.298828 0.390625)" xlink:href="#DejaVuSans-114"/>
     <use transform="translate(2022.412109 0.390625)" xlink:href="#DejaVuSans-111"/>
     <use transform="translate(2083.59375 0.390625)" xlink:href="#DejaVuSans-110"/>
     <use transform="translate(2146.972656 0.390625)" xlink:href="#DejaVuSans-115"/>
     <use transform="translate(2199.072266 0.390625)" xlink:href="#DejaVuSans-44"/>
     <use transform="translate(2230.859375 0.390625)" xlink:href="#DejaVuSans-32"/>
     <use transform="translate(2262.646484 0.390625)" xlink:href="#DejaVuSans-Oblique-947"/>
     <use transform="translate(2321.826172 0.390625)" xlink:href="#DejaVuSans-61"/>
     <use transform="translate(2405.615234 0.390625)" xlink:href="#DejaVuSans-48"/>
     <use transform="translate(2469.238281 0.390625)" xlink:href="#DejaVuSans-46"/>
     <use transform="translate(2501.025391 0.390625)" xlink:href="#DejaVuSans-52"/>
     <use transform="translate(2564.648438 0.390625)" xlink:href="#DejaVuSans-44"/>
     <use transform="translate(2596.435547 0.390625)" xlink:href="#DejaVuSans-32"/>
     <use transform="translate(2628.222656 0.390625)" xlink:href="#DejaVuSans-Oblique-946"/>
     <use transform="translate(2692.041016 0.390625)" xlink:href="#DejaVuSans-61"/>
     <use transform="translate(2775.830078 0.390625)" xlink:href="#DejaVuSans-48"/>
     <use transform="translate(2839.453125 0.390625)" xlink:href="#DejaVuSans-46"/>
     <use transform="translate(2871.240234 0.390625)" xlink:href="#DejaVuSans-49"/>
    </g>
   </g>
   <g id="legend_1">
    <g id="patch_8">
     <path d="M 535.361719 137.121813 
L 640.3 137.121813 
Q 642.5 137.121813 642.5 134.921813 
L 642.5 87.584 
Q 642.5 85.384 640.3 85.384 
L 535.361719 85.384 
Q 533.161719 85.384 533.161719 87.584 
L 533.161719 134.921813 
Q 533.161719 137.121813 535.361719 137.121813 
z
" style="fill:#ffffff;opacity:0.8;stroke:#cccccc;stroke-linejoin:miter;"/>
    </g>
    <g id="line2d_19">
     <path d="M 537.561719 94.292281 
L 559.561719 94.292281 
" style="fill:none;stroke:#000000;stroke-dasharray:7.4,3.2;stroke-dashoffset:0;stroke-width:2;"/>
    </g>
    <g id="line2d_20"/>
    <g id="text_16">
     <!-- unstable -->
     <g transform="translate(568.361719 98.142281)scale(0.11 -0.11)">
      <defs>
       <path d="M 48.6875 27.296875 
Q 48.6875 37.203125 44.609375 42.84375 
Q 40.53125 48.484375 33.40625 48.484375 
Q 26.265625 48.484375 22.1875 42.84375 
Q 18.109375 37.203125 18.109375 27.296875 
Q 18.109375 17.390625 22.1875 11.75 
Q 26.265625 6.109375 33.40625 6.109375 
Q 40.53125 6.109375 44.609375 11.75 
Q 48.6875 17.390625 48.6875 27.296875 
z
M 18.109375 46.390625 
Q 20.953125 51.265625 25.265625 53.625 
Q 29.59375 56 35.59375 56 
Q 45.5625 56 51.78125 48.09375 
Q 58.015625 40.1875 58.015625 27.296875 
Q 58.015625 14.40625 51.78125 6.484375 
Q 45.5625 -1.421875 35.59375 -1.421875 
Q 29.59375 -1.421875 25.265625 0.953125 
Q 20.953125 3.328125 18.109375 8.203125 
L 18.109375 0 
L 9.078125 0 
L 9.078125 75.984375 
L 18.109375 75.984375 
z
" id="DejaVuSans-98"/>
      </defs>
      <use xlink:href="#DejaVuSans-117"/>
      <use x="63.378906" xlink:href="#DejaVuSans-110"/>
      <use x="126.757812" xlink:href="#DejaVuSans-115"/>
      <use x="178.857422" xlink:href="#DejaVuSans-116"/>
      <use x="218.066406" xlink:href="#DejaVuSans-97"/>
      <use x="279.345703" xlink:href="#DejaVuSans-98"/>
      <use x="342.822266" xlink:href="#DejaVuSans-108"/>
      <use x="370.605469" xlink:href="#DejaVuSans-101"/>
     </g>
    </g>
    <g id="line2d_21">
     <path d="M 537.561719 110.438219 
L 559.561719 110.438219 
" style="fill:none;stroke:#000000;stroke-linecap:square;stroke-width:2;"/>
    </g>
    <g id="line2d_22"/>
    <g id="text_17">
     <!-- stable -->
     <g transform="translate(568.361719 114.288219)scale(0.11 -0.11)">
      <use xlink:href="#DejaVuSans-115"/>
      <use x="52.099609" xlink:href="#DejaVuSans-116"/>
      <use x="91.308594" xlink:href="#DejaVuSans-97"/>
      <use x="152.587891" xlink:href="#DejaVuSans-98"/>
      <use x="216.064453" xlink:href="#DejaVuSans-108"/>
      <use x="243.847656" xlink:href="#DejaVuSans-101"/>
     </g>
    </g>
    <g id="patch_9">
     <path d="M 537.561719 130.434156 
L 559.561719 130.434156 
L 559.561719 122.734156 
L 537.561719 122.734156 
z
" style="fill:url(#h08e38f5a30);opacity:0.6;"/>
    </g>
    <g id="text_18">
     <!-- non-physical -->
     <g transform="translate(568.361719 130.434156)scale(0.11 -0.11)">
      <defs>
       <path d="M 4.890625 31.390625 
L 31.203125 31.390625 
L 31.203125 23.390625 
L 4.890625 23.390625 
z
" id="DejaVuSans-45"/>
       <path d="M 32.171875 -5.078125 
Q 28.375 -14.84375 24.75 -17.8125 
Q 21.140625 -20.796875 15.09375 -20.796875 
L 7.90625 -20.796875 
L 7.90625 -13.28125 
L 13.1875 -13.28125 
Q 16.890625 -13.28125 18.9375 -11.515625 
Q 21 -9.765625 23.484375 -3.21875 
L 25.09375 0.875 
L 2.984375 54.6875 
L 12.5 54.6875 
L 29.59375 11.921875 
L 46.6875 54.6875 
L 56.203125 54.6875 
z
" id="DejaVuSans-121"/>
      </defs>
      <use xlink:href="#DejaVuSans-110"/>
      <use x="63.378906" xlink:href="#DejaVuSans-111"/>
      <use x="124.560547" xlink:href="#DejaVuSans-110"/>
      <use x="187.939453" xlink:href="#DejaVuSans-45"/>
      <use x="224.023438" xlink:href="#DejaVuSans-112"/>
      <use x="287.5" xlink:href="#DejaVuSans-104"/>
      <use x="350.878906" xlink:href="#DejaVuSans-121"/>
      <use x="410.058594" xlink:href="#DejaVuSans-115"/>
      <use x="462.158203" xlink:href="#DejaVuSans-105"/>
      <use x="489.941406" xlink:href="#DejaVuSans-99"/>
      <use x="544.921875" xlink:href="#DejaVuSans-97"/>
      <use x="606.201172" xlink:href="#DejaVuSans-108"/>
     </g>
    </g>
   </g>
  </g>
 </g>
 <defs>
  <clipPath id="p1bc96e3120">
   <rect height="388.08" width="558" x="90" y="60.48"/>
  </clipPath>
 </defs>
 <defs>
  <pattern height="72" id="h08e38f5a30" patternUnits="userSpaceOnUse" width="72" x="0" y="0">
   <rect fill="#c1e1c1" height="73" width="73" x="0" y="0"/>
   <path d="M -36 36 
L 36 -36 
M -30 42 
L 42 -30 
M -24 48 
L 48 -24 
M -18 54 
L 54 -18 
M -12 60 
L 60 -12 
M -6 66 
L 66 -6 
M 0 72 
L 72 0 
M 6 78 
L 78 6 
M 12 84 
L 84 12 
M 18 90 
L 90 18 
M 24 96 
L 96 24 
M 30 102 
L 102 30 
M 36 108 
L 108 36 
" style="fill:#000000;stroke:#000000;stroke-linecap:butt;stroke-linejoin:miter;stroke-width:1.0;"/>
  </pattern>
 </defs>
</svg>
