<?xml version="1.0" encoding="utf-8" standalone="no"?>
<!DOCTYPE svg PUBLIC "-//W3C//DTD SVG 1.1//EN"
  "http://www.w3.org/Graphics/SVG/1.1/DTD/svg11.dtd">
<!-- Created with matplotlib (https://matplotlib.org/) -->
<svg height="576pt" version="1.1" viewBox="0 0 720 576" width="720pt" xmlns="http://www.w3.org/2000/svg" xmlns:xlink="http://www.w3.org/1999/xlink">
 <metadata>
  <rdf:RDF xmlns:cc="http://creativecommons.org/ns#" xmlns:dc="http://purl.org/dc/elements/1.1/" xmlns:rdf="http://www.w3.org/1999/02/22-rdf-syntax-ns#">
   <cc:Work>
    <dc:type rdf:resource="http://purl.org/dc/dcmitype/StillImage"/>
    <dc:date>2021-07-11T15:19:02.597693</dc:date>
    <dc:format>image/svg+xml</dc:format>
    <dc:creator>
     <cc:Agent>
      <dc:title>Matplotlib v3.3.3, https://matplotlib.org/</dc:title>
     </cc:Agent>
    </dc:creator>
   </cc:Work>
  </rdf:RDF>
 </metadata>
 <defs>
  <style type="text/css">*{stroke-linecap:butt;stroke-linejoin:round;}</style>
 </defs>
 <g id="figure_1">
  <g id="patch_1">
   <path d="M 0 576 
L 720 576 
L 720 0 
L 0 0 
z
" style="fill:#ffffff;"/>
  </g>
  <g id="axes_1">
   <g id="patch_2">
    <path d="M 55.1 267.751111 
L 341.951111 267.751111 
L 341.951111 57.6 
L 55.1 57.6 
z
" style="fill:#ffffff;"/>
   </g>
   <g id="patch_3">
    <path clip-path="url(#p1f46f7fd45)" d="M 56.822828 267.751111 
L 56.822828 57.6 
L 209.006091 57.6 
L 209.006091 267.751111 
z
" style="fill:#333333;opacity:0.1;"/>
   </g>
   <g id="matplotlib.axis_1">
    <g id="xtick_1">
     <g id="line2d_1">
      <defs>
       <path d="M 0 0 
L 0 3.5 
" id="m5e374906fd" style="stroke:#000000;stroke-width:0.8;"/>
      </defs>
      <g>
       <use style="stroke:#000000;stroke-width:0.8;" x="55.1" xlink:href="#m5e374906fd" y="267.751111"/>
      </g>
     </g>
    </g>
    <g id="xtick_2">
     <g id="line2d_2">
      <g>
       <use style="stroke:#000000;stroke-width:0.8;" x="112.470222" xlink:href="#m5e374906fd" y="267.751111"/>
      </g>
     </g>
    </g>
    <g id="xtick_3">
     <g id="line2d_3">
      <g>
       <use style="stroke:#000000;stroke-width:0.8;" x="169.840444" xlink:href="#m5e374906fd" y="267.751111"/>
      </g>
     </g>
    </g>
    <g id="xtick_4">
     <g id="line2d_4">
      <g>
       <use style="stroke:#000000;stroke-width:0.8;" x="227.210667" xlink:href="#m5e374906fd" y="267.751111"/>
      </g>
     </g>
    </g>
    <g id="xtick_5">
     <g id="line2d_5">
      <g>
       <use style="stroke:#000000;stroke-width:0.8;" x="284.580889" xlink:href="#m5e374906fd" y="267.751111"/>
      </g>
     </g>
    </g>
    <g id="xtick_6">
     <g id="line2d_6">
      <g>
       <use style="stroke:#000000;stroke-width:0.8;" x="341.951111" xlink:href="#m5e374906fd" y="267.751111"/>
      </g>
     </g>
    </g>
   </g>
   <g id="matplotlib.axis_2">
    <g id="ytick_1">
     <g id="line2d_7">
      <defs>
       <path d="M 0 0 
L -3.5 0 
" id="m6ab0a2c130" style="stroke:#000000;stroke-width:0.8;"/>
      </defs>
      <g>
       <use style="stroke:#000000;stroke-width:0.8;" x="55.1" xlink:href="#m6ab0a2c130" y="258.198788"/>
      </g>
     </g>
     <g id="text_1">
      <!-- 0.0 -->
      <g transform="translate(30.606563 262.377929)scale(0.11 -0.11)">
       <defs>
        <path d="M 31.78125 66.40625 
Q 24.171875 66.40625 20.328125 58.90625 
Q 16.5 51.421875 16.5 36.375 
Q 16.5 21.390625 20.328125 13.890625 
Q 24.171875 6.390625 31.78125 6.390625 
Q 39.453125 6.390625 43.28125 13.890625 
Q 47.125 21.390625 47.125 36.375 
Q 47.125 51.421875 43.28125 58.90625 
Q 39.453125 66.40625 31.78125 66.40625 
z
M 31.78125 74.21875 
Q 44.046875 74.21875 50.515625 64.515625 
Q 56.984375 54.828125 56.984375 36.375 
Q 56.984375 17.96875 50.515625 8.265625 
Q 44.046875 -1.421875 31.78125 -1.421875 
Q 19.53125 -1.421875 13.0625 8.265625 
Q 6.59375 17.96875 6.59375 36.375 
Q 6.59375 54.828125 13.0625 64.515625 
Q 19.53125 74.21875 31.78125 74.21875 
z
" id="DejaVuSans-48"/>
        <path d="M 10.6875 12.40625 
L 21 12.40625 
L 21 0 
L 10.6875 0 
z
" id="DejaVuSans-46"/>
       </defs>
       <use xlink:href="#DejaVuSans-48"/>
       <use x="63.623047" xlink:href="#DejaVuSans-46"/>
       <use x="95.410156" xlink:href="#DejaVuSans-48"/>
      </g>
     </g>
    </g>
    <g id="ytick_2">
     <g id="line2d_8">
      <g>
       <use style="stroke:#000000;stroke-width:0.8;" x="55.1" xlink:href="#m6ab0a2c130" y="219.989495"/>
      </g>
     </g>
     <g id="text_2">
      <!-- 0.2 -->
      <g transform="translate(30.606563 224.168636)scale(0.11 -0.11)">
       <defs>
        <path d="M 19.1875 8.296875 
L 53.609375 8.296875 
L 53.609375 0 
L 7.328125 0 
L 7.328125 8.296875 
Q 12.9375 14.109375 22.625 23.890625 
Q 32.328125 33.6875 34.8125 36.53125 
Q 39.546875 41.84375 41.421875 45.53125 
Q 43.3125 49.21875 43.3125 52.78125 
Q 43.3125 58.59375 39.234375 62.25 
Q 35.15625 65.921875 28.609375 65.921875 
Q 23.96875 65.921875 18.8125 64.3125 
Q 13.671875 62.703125 7.8125 59.421875 
L 7.8125 69.390625 
Q 13.765625 71.78125 18.9375 73 
Q 24.125 74.21875 28.421875 74.21875 
Q 39.75 74.21875 46.484375 68.546875 
Q 53.21875 62.890625 53.21875 53.421875 
Q 53.21875 48.921875 51.53125 44.890625 
Q 49.859375 40.875 45.40625 35.40625 
Q 44.1875 33.984375 37.640625 27.21875 
Q 31.109375 20.453125 19.1875 8.296875 
z
" id="DejaVuSans-50"/>
       </defs>
       <use xlink:href="#DejaVuSans-48"/>
       <use x="63.623047" xlink:href="#DejaVuSans-46"/>
       <use x="95.410156" xlink:href="#DejaVuSans-50"/>
      </g>
     </g>
    </g>
    <g id="ytick_3">
     <g id="line2d_9">
      <g>
       <use style="stroke:#000000;stroke-width:0.8;" x="55.1" xlink:href="#m6ab0a2c130" y="181.780202"/>
      </g>
     </g>
     <g id="text_3">
      <!-- 0.4 -->
      <g transform="translate(30.606563 185.959343)scale(0.11 -0.11)">
       <defs>
        <path d="M 37.796875 64.3125 
L 12.890625 25.390625 
L 37.796875 25.390625 
z
M 35.203125 72.90625 
L 47.609375 72.90625 
L 47.609375 25.390625 
L 58.015625 25.390625 
L 58.015625 17.1875 
L 47.609375 17.1875 
L 47.609375 0 
L 37.796875 0 
L 37.796875 17.1875 
L 4.890625 17.1875 
L 4.890625 26.703125 
z
" id="DejaVuSans-52"/>
       </defs>
       <use xlink:href="#DejaVuSans-48"/>
       <use x="63.623047" xlink:href="#DejaVuSans-46"/>
       <use x="95.410156" xlink:href="#DejaVuSans-52"/>
      </g>
     </g>
    </g>
    <g id="ytick_4">
     <g id="line2d_10">
      <g>
       <use style="stroke:#000000;stroke-width:0.8;" x="55.1" xlink:href="#m6ab0a2c130" y="143.570909"/>
      </g>
     </g>
     <g id="text_4">
      <!-- 0.6 -->
      <g transform="translate(30.606563 147.75005)scale(0.11 -0.11)">
       <defs>
        <path d="M 33.015625 40.375 
Q 26.375 40.375 22.484375 35.828125 
Q 18.609375 31.296875 18.609375 23.390625 
Q 18.609375 15.53125 22.484375 10.953125 
Q 26.375 6.390625 33.015625 6.390625 
Q 39.65625 6.390625 43.53125 10.953125 
Q 47.40625 15.53125 47.40625 23.390625 
Q 47.40625 31.296875 43.53125 35.828125 
Q 39.65625 40.375 33.015625 40.375 
z
M 52.59375 71.296875 
L 52.59375 62.3125 
Q 48.875 64.0625 45.09375 64.984375 
Q 41.3125 65.921875 37.59375 65.921875 
Q 27.828125 65.921875 22.671875 59.328125 
Q 17.53125 52.734375 16.796875 39.40625 
Q 19.671875 43.65625 24.015625 45.921875 
Q 28.375 48.1875 33.59375 48.1875 
Q 44.578125 48.1875 50.953125 41.515625 
Q 57.328125 34.859375 57.328125 23.390625 
Q 57.328125 12.15625 50.6875 5.359375 
Q 44.046875 -1.421875 33.015625 -1.421875 
Q 20.359375 -1.421875 13.671875 8.265625 
Q 6.984375 17.96875 6.984375 36.375 
Q 6.984375 53.65625 15.1875 63.9375 
Q 23.390625 74.21875 37.203125 74.21875 
Q 40.921875 74.21875 44.703125 73.484375 
Q 48.484375 72.75 52.59375 71.296875 
z
" id="DejaVuSans-54"/>
       </defs>
       <use xlink:href="#DejaVuSans-48"/>
       <use x="63.623047" xlink:href="#DejaVuSans-46"/>
       <use x="95.410156" xlink:href="#DejaVuSans-54"/>
      </g>
     </g>
    </g>
    <g id="ytick_5">
     <g id="line2d_11">
      <g>
       <use style="stroke:#000000;stroke-width:0.8;" x="55.1" xlink:href="#m6ab0a2c130" y="105.361616"/>
      </g>
     </g>
     <g id="text_5">
      <!-- 0.8 -->
      <g transform="translate(30.606563 109.540757)scale(0.11 -0.11)">
       <defs>
        <path d="M 31.78125 34.625 
Q 24.75 34.625 20.71875 30.859375 
Q 16.703125 27.09375 16.703125 20.515625 
Q 16.703125 13.921875 20.71875 10.15625 
Q 24.75 6.390625 31.78125 6.390625 
Q 38.8125 6.390625 42.859375 10.171875 
Q 46.921875 13.96875 46.921875 20.515625 
Q 46.921875 27.09375 42.890625 30.859375 
Q 38.875 34.625 31.78125 34.625 
z
M 21.921875 38.8125 
Q 15.578125 40.375 12.03125 44.71875 
Q 8.5 49.078125 8.5 55.328125 
Q 8.5 64.0625 14.71875 69.140625 
Q 20.953125 74.21875 31.78125 74.21875 
Q 42.671875 74.21875 48.875 69.140625 
Q 55.078125 64.0625 55.078125 55.328125 
Q 55.078125 49.078125 51.53125 44.71875 
Q 48 40.375 41.703125 38.8125 
Q 48.828125 37.15625 52.796875 32.3125 
Q 56.78125 27.484375 56.78125 20.515625 
Q 56.78125 9.90625 50.3125 4.234375 
Q 43.84375 -1.421875 31.78125 -1.421875 
Q 19.734375 -1.421875 13.25 4.234375 
Q 6.78125 9.90625 6.78125 20.515625 
Q 6.78125 27.484375 10.78125 32.3125 
Q 14.796875 37.15625 21.921875 38.8125 
z
M 18.3125 54.390625 
Q 18.3125 48.734375 21.84375 45.5625 
Q 25.390625 42.390625 31.78125 42.390625 
Q 38.140625 42.390625 41.71875 45.5625 
Q 45.3125 48.734375 45.3125 54.390625 
Q 45.3125 60.0625 41.71875 63.234375 
Q 38.140625 66.40625 31.78125 66.40625 
Q 25.390625 66.40625 21.84375 63.234375 
Q 18.3125 60.0625 18.3125 54.390625 
z
" id="DejaVuSans-56"/>
       </defs>
       <use xlink:href="#DejaVuSans-48"/>
       <use x="63.623047" xlink:href="#DejaVuSans-46"/>
       <use x="95.410156" xlink:href="#DejaVuSans-56"/>
      </g>
     </g>
    </g>
    <g id="ytick_6">
     <g id="line2d_12">
      <g>
       <use style="stroke:#000000;stroke-width:0.8;" x="55.1" xlink:href="#m6ab0a2c130" y="67.152323"/>
      </g>
     </g>
     <g id="text_6">
      <!-- 1.0 -->
      <g transform="translate(30.606563 71.331464)scale(0.11 -0.11)">
       <defs>
        <path d="M 12.40625 8.296875 
L 28.515625 8.296875 
L 28.515625 63.921875 
L 10.984375 60.40625 
L 10.984375 69.390625 
L 28.421875 72.90625 
L 38.28125 72.90625 
L 38.28125 8.296875 
L 54.390625 8.296875 
L 54.390625 0 
L 12.40625 0 
z
" id="DejaVuSans-49"/>
       </defs>
       <use xlink:href="#DejaVuSans-49"/>
       <use x="63.623047" xlink:href="#DejaVuSans-46"/>
       <use x="95.410156" xlink:href="#DejaVuSans-48"/>
      </g>
     </g>
    </g>
    <g id="text_7">
     <!-- Phase Difference $\phi$ -->
     <g transform="translate(24.086562 219.555556)rotate(-90)scale(0.12 -0.12)">
      <defs>
       <path d="M 19.671875 64.796875 
L 19.671875 37.40625 
L 32.078125 37.40625 
Q 38.96875 37.40625 42.71875 40.96875 
Q 46.484375 44.53125 46.484375 51.125 
Q 46.484375 57.671875 42.71875 61.234375 
Q 38.96875 64.796875 32.078125 64.796875 
z
M 9.8125 72.90625 
L 32.078125 72.90625 
Q 44.34375 72.90625 50.609375 67.359375 
Q 56.890625 61.8125 56.890625 51.125 
Q 56.890625 40.328125 50.609375 34.8125 
Q 44.34375 29.296875 32.078125 29.296875 
L 19.671875 29.296875 
L 19.671875 0 
L 9.8125 0 
z
" id="DejaVuSans-80"/>
       <path d="M 54.890625 33.015625 
L 54.890625 0 
L 45.90625 0 
L 45.90625 32.71875 
Q 45.90625 40.484375 42.875 44.328125 
Q 39.84375 48.1875 33.796875 48.1875 
Q 26.515625 48.1875 22.3125 43.546875 
Q 18.109375 38.921875 18.109375 30.90625 
L 18.109375 0 
L 9.078125 0 
L 9.078125 75.984375 
L 18.109375 75.984375 
L 18.109375 46.1875 
Q 21.34375 51.125 25.703125 53.5625 
Q 30.078125 56 35.796875 56 
Q 45.21875 56 50.046875 50.171875 
Q 54.890625 44.34375 54.890625 33.015625 
z
" id="DejaVuSans-104"/>
       <path d="M 34.28125 27.484375 
Q 23.390625 27.484375 19.1875 25 
Q 14.984375 22.515625 14.984375 16.5 
Q 14.984375 11.71875 18.140625 8.90625 
Q 21.296875 6.109375 26.703125 6.109375 
Q 34.1875 6.109375 38.703125 11.40625 
Q 43.21875 16.703125 43.21875 25.484375 
L 43.21875 27.484375 
z
M 52.203125 31.203125 
L 52.203125 0 
L 43.21875 0 
L 43.21875 8.296875 
Q 40.140625 3.328125 35.546875 0.953125 
Q 30.953125 -1.421875 24.3125 -1.421875 
Q 15.921875 -1.421875 10.953125 3.296875 
Q 6 8.015625 6 15.921875 
Q 6 25.140625 12.171875 29.828125 
Q 18.359375 34.515625 30.609375 34.515625 
L 43.21875 34.515625 
L 43.21875 35.40625 
Q 43.21875 41.609375 39.140625 45 
Q 35.0625 48.390625 27.6875 48.390625 
Q 23 48.390625 18.546875 47.265625 
Q 14.109375 46.140625 10.015625 43.890625 
L 10.015625 52.203125 
Q 14.9375 54.109375 19.578125 55.046875 
Q 24.21875 56 28.609375 56 
Q 40.484375 56 46.34375 49.84375 
Q 52.203125 43.703125 52.203125 31.203125 
z
" id="DejaVuSans-97"/>
       <path d="M 44.28125 53.078125 
L 44.28125 44.578125 
Q 40.484375 46.53125 36.375 47.5 
Q 32.28125 48.484375 27.875 48.484375 
Q 21.1875 48.484375 17.84375 46.4375 
Q 14.5 44.390625 14.5 40.28125 
Q 14.5 37.15625 16.890625 35.375 
Q 19.28125 33.59375 26.515625 31.984375 
L 29.59375 31.296875 
Q 39.15625 29.25 43.1875 25.515625 
Q 47.21875 21.78125 47.21875 15.09375 
Q 47.21875 7.46875 41.1875 3.015625 
Q 35.15625 -1.421875 24.609375 -1.421875 
Q 20.21875 -1.421875 15.453125 -0.5625 
Q 10.6875 0.296875 5.421875 2 
L 5.421875 11.28125 
Q 10.40625 8.6875 15.234375 7.390625 
Q 20.0625 6.109375 24.8125 6.109375 
Q 31.15625 6.109375 34.5625 8.28125 
Q 37.984375 10.453125 37.984375 14.40625 
Q 37.984375 18.0625 35.515625 20.015625 
Q 33.0625 21.96875 24.703125 23.78125 
L 21.578125 24.515625 
Q 13.234375 26.265625 9.515625 29.90625 
Q 5.8125 33.546875 5.8125 39.890625 
Q 5.8125 47.609375 11.28125 51.796875 
Q 16.75 56 26.8125 56 
Q 31.78125 56 36.171875 55.265625 
Q 40.578125 54.546875 44.28125 53.078125 
z
" id="DejaVuSans-115"/>
       <path d="M 56.203125 29.59375 
L 56.203125 25.203125 
L 14.890625 25.203125 
Q 15.484375 15.921875 20.484375 11.0625 
Q 25.484375 6.203125 34.421875 6.203125 
Q 39.59375 6.203125 44.453125 7.46875 
Q 49.3125 8.734375 54.109375 11.28125 
L 54.109375 2.78125 
Q 49.265625 0.734375 44.1875 -0.34375 
Q 39.109375 -1.421875 33.890625 -1.421875 
Q 20.796875 -1.421875 13.15625 6.1875 
Q 5.515625 13.8125 5.515625 26.8125 
Q 5.515625 40.234375 12.765625 48.109375 
Q 20.015625 56 32.328125 56 
Q 43.359375 56 49.78125 48.890625 
Q 56.203125 41.796875 56.203125 29.59375 
z
M 47.21875 32.234375 
Q 47.125 39.59375 43.09375 43.984375 
Q 39.0625 48.390625 32.421875 48.390625 
Q 24.90625 48.390625 20.390625 44.140625 
Q 15.875 39.890625 15.1875 32.171875 
z
" id="DejaVuSans-101"/>
       <path id="DejaVuSans-32"/>
       <path d="M 19.671875 64.796875 
L 19.671875 8.109375 
L 31.59375 8.109375 
Q 46.6875 8.109375 53.6875 14.9375 
Q 60.6875 21.78125 60.6875 36.53125 
Q 60.6875 51.171875 53.6875 57.984375 
Q 46.6875 64.796875 31.59375 64.796875 
z
M 9.8125 72.90625 
L 30.078125 72.90625 
Q 51.265625 72.90625 61.171875 64.09375 
Q 71.09375 55.28125 71.09375 36.53125 
Q 71.09375 17.671875 61.125 8.828125 
Q 51.171875 0 30.078125 0 
L 9.8125 0 
z
" id="DejaVuSans-68"/>
       <path d="M 9.421875 54.6875 
L 18.40625 54.6875 
L 18.40625 0 
L 9.421875 0 
z
M 9.421875 75.984375 
L 18.40625 75.984375 
L 18.40625 64.59375 
L 9.421875 64.59375 
z
" id="DejaVuSans-105"/>
       <path d="M 37.109375 75.984375 
L 37.109375 68.5 
L 28.515625 68.5 
Q 23.6875 68.5 21.796875 66.546875 
Q 19.921875 64.59375 19.921875 59.515625 
L 19.921875 54.6875 
L 34.71875 54.6875 
L 34.71875 47.703125 
L 19.921875 47.703125 
L 19.921875 0 
L 10.890625 0 
L 10.890625 47.703125 
L 2.296875 47.703125 
L 2.296875 54.6875 
L 10.890625 54.6875 
L 10.890625 58.5 
Q 10.890625 67.625 15.140625 71.796875 
Q 19.390625 75.984375 28.609375 75.984375 
z
" id="DejaVuSans-102"/>
       <path d="M 41.109375 46.296875 
Q 39.59375 47.171875 37.8125 47.578125 
Q 36.03125 48 33.890625 48 
Q 26.265625 48 22.1875 43.046875 
Q 18.109375 38.09375 18.109375 28.8125 
L 18.109375 0 
L 9.078125 0 
L 9.078125 54.6875 
L 18.109375 54.6875 
L 18.109375 46.1875 
Q 20.953125 51.171875 25.484375 53.578125 
Q 30.03125 56 36.53125 56 
Q 37.453125 56 38.578125 55.875 
Q 39.703125 55.765625 41.0625 55.515625 
z
" id="DejaVuSans-114"/>
       <path d="M 54.890625 33.015625 
L 54.890625 0 
L 45.90625 0 
L 45.90625 32.71875 
Q 45.90625 40.484375 42.875 44.328125 
Q 39.84375 48.1875 33.796875 48.1875 
Q 26.515625 48.1875 22.3125 43.546875 
Q 18.109375 38.921875 18.109375 30.90625 
L 18.109375 0 
L 9.078125 0 
L 9.078125 54.6875 
L 18.109375 54.6875 
L 18.109375 46.1875 
Q 21.34375 51.125 25.703125 53.5625 
Q 30.078125 56 35.796875 56 
Q 45.21875 56 50.046875 50.171875 
Q 54.890625 44.34375 54.890625 33.015625 
z
" id="DejaVuSans-110"/>
       <path d="M 48.78125 52.59375 
L 48.78125 44.1875 
Q 44.96875 46.296875 41.140625 47.34375 
Q 37.3125 48.390625 33.40625 48.390625 
Q 24.65625 48.390625 19.8125 42.84375 
Q 14.984375 37.3125 14.984375 27.296875 
Q 14.984375 17.28125 19.8125 11.734375 
Q 24.65625 6.203125 33.40625 6.203125 
Q 37.3125 6.203125 41.140625 7.25 
Q 44.96875 8.296875 48.78125 10.40625 
L 48.78125 2.09375 
Q 45.015625 0.34375 40.984375 -0.53125 
Q 36.96875 -1.421875 32.421875 -1.421875 
Q 20.0625 -1.421875 12.78125 6.34375 
Q 5.515625 14.109375 5.515625 27.296875 
Q 5.515625 40.671875 12.859375 48.328125 
Q 20.21875 56 33.015625 56 
Q 37.15625 56 41.109375 55.140625 
Q 45.0625 54.296875 48.78125 52.59375 
z
" id="DejaVuSans-99"/>
       <path d="M 46.734375 75.984375 
L 42.78125 55.8125 
Q 52.546875 55.8125 57.5625 48.34375 
Q 62.75 40.71875 60.15625 27.296875 
Q 57.515625 13.875 49.359375 6.25 
Q 41.453125 -1.21875 31.6875 -1.21875 
L 27.875 -20.796875 
L 18.953125 -20.796875 
L 22.75 -1.21875 
Q 13.03125 -1.21875 7.953125 6.25 
Q 2.78125 13.875 5.421875 27.296875 
Q 8.015625 40.71875 16.15625 48.34375 
Q 24.125 55.8125 33.84375 55.8125 
L 37.796875 75.984375 
z
M 33.25 6.78125 
Q 38.765625 6.78125 43.5 11.8125 
Q 48.6875 17.4375 50.6875 27.296875 
Q 52.640625 37.0625 49.515625 42.78125 
Q 46.734375 47.796875 41.21875 47.796875 
z
M 24.3125 6.78125 
L 32.28125 47.796875 
Q 26.8125 47.796875 22.078125 42.78125 
Q 16.75 37.0625 14.890625 27.296875 
Q 13.03125 17.4375 16.0625 11.8125 
Q 18.796875 6.78125 24.3125 6.78125 
z
" id="DejaVuSans-Oblique-981"/>
      </defs>
      <use transform="translate(0 0.015625)" xlink:href="#DejaVuSans-80"/>
      <use transform="translate(60.302734 0.015625)" xlink:href="#DejaVuSans-104"/>
      <use transform="translate(123.681641 0.015625)" xlink:href="#DejaVuSans-97"/>
      <use transform="translate(184.960938 0.015625)" xlink:href="#DejaVuSans-115"/>
      <use transform="translate(237.060547 0.015625)" xlink:href="#DejaVuSans-101"/>
      <use transform="translate(298.583984 0.015625)" xlink:href="#DejaVuSans-32"/>
      <use transform="translate(330.371094 0.015625)" xlink:href="#DejaVuSans-68"/>
      <use transform="translate(407.373047 0.015625)" xlink:href="#DejaVuSans-105"/>
      <use transform="translate(435.15625 0.015625)" xlink:href="#DejaVuSans-102"/>
      <use transform="translate(470.361328 0.015625)" xlink:href="#DejaVuSans-102"/>
      <use transform="translate(505.566406 0.015625)" xlink:href="#DejaVuSans-101"/>
      <use transform="translate(567.089844 0.015625)" xlink:href="#DejaVuSans-114"/>
      <use transform="translate(608.203125 0.015625)" xlink:href="#DejaVuSans-101"/>
      <use transform="translate(669.726562 0.015625)" xlink:href="#DejaVuSans-110"/>
      <use transform="translate(733.105469 0.015625)" xlink:href="#DejaVuSans-99"/>
      <use transform="translate(788.085938 0.015625)" xlink:href="#DejaVuSans-101"/>
      <use transform="translate(849.609375 0.015625)" xlink:href="#DejaVuSans-32"/>
      <use transform="translate(881.396484 0.015625)" xlink:href="#DejaVuSans-Oblique-981"/>
     </g>
    </g>
   </g>
   <g id="line2d_13">
    <path clip-path="url(#p1f46f7fd45)" d="M 341.951111 162.675556 
L 209.006091 162.675556 
L 209.006091 162.675556 
" style="fill:none;stroke:#000000;stroke-dasharray:5.55,2.4;stroke-dashoffset:0;stroke-width:1.5;"/>
   </g>
   <g id="line2d_14">
    <path clip-path="url(#p1f46f7fd45)" d="M 209.006091 162.675556 
L 56.822828 162.675556 
L 56.822828 162.675556 
" style="fill:none;stroke:#000000;stroke-linecap:square;stroke-width:1.5;"/>
   </g>
   <g id="line2d_15">
    <path clip-path="url(#p1f46f7fd45)" d="M 209.006091 162.675556 
L 209.006091 158.576768 
L 208.431815 155.704576 
L 208.144677 154.858889 
L 207.283263 151.019964 
L 206.708987 149.373315 
L 206.134712 148.217216 
L 205.847574 147.785948 
L 204.699022 144.887926 
L 203.837608 143.511188 
L 203.55047 143.189485 
L 202.401918 140.900939 
L 201.540504 139.800435 
L 201.253366 139.501046 
L 200.391952 137.966695 
L 199.530538 136.913437 
L 198.956262 136.27964 
L 198.094849 134.990267 
L 197.233435 134.112905 
L 196.946297 133.876142 
L 196.084883 132.656176 
L 195.223469 131.812668 
L 194.936331 131.610006 
L 193.787779 130.199739 
L 187.183606 124.17954 
L 186.896468 124.011629 
L 186.035054 123.143189 
L 183.450784 121.155962 
L 183.163646 121.008455 
L 182.015094 120.009244 
L 180.866542 119.185796 
L 180.005128 118.557692 
L 179.430852 118.218489 
L 178.569438 117.516279 
L 175.698059 115.604439 
L 174.836645 115.017296 
L 173.975231 114.474666 
L 173.113817 113.914709 
L 172.539541 113.598718 
L 171.678127 112.998851 
L 170.242438 112.116924 
L 159.331195 106.03282 
L 158.469781 105.583039 
L 155.311235 103.99401 
L 153.588407 103.189284 
L 151.291303 102.064727 
L 150.142752 101.523302 
L 148.132786 100.614818 
L 146.12282 99.724198 
L 138.370095 96.41107 
L 136.934405 95.842879 
L 135.211578 95.14212 
L 132.914474 94.258168 
L 131.191646 93.585092 
L 116.260443 88.263187 
L 112.52765 87.043241 
L 100.754993 83.411963 
L 83.526687 78.609609 
L 81.516721 78.079092 
L 81.516721 78.079092 
" style="fill:none;stroke:#000000;stroke-dasharray:5.55,2.4;stroke-dashoffset:0;stroke-width:1.5;"/>
   </g>
   <g id="line2d_16">
    <path clip-path="url(#p1f46f7fd45)" d="M 209.006091 162.675556 
L 209.006091 166.774343 
L 208.431815 169.646535 
L 208.144677 170.492222 
L 207.283263 174.331148 
L 206.708987 175.977796 
L 206.134712 177.133895 
L 205.847574 177.565163 
L 204.699022 180.463185 
L 203.837608 181.839923 
L 203.55047 182.161626 
L 202.401918 184.450172 
L 201.540504 185.550676 
L 201.253366 185.850065 
L 200.391952 187.384416 
L 199.530538 188.437675 
L 198.956262 189.071471 
L 198.094849 190.360844 
L 197.233435 191.238206 
L 196.946297 191.474969 
L 196.084883 192.694935 
L 195.223469 193.538443 
L 194.936331 193.741105 
L 193.787779 195.151372 
L 187.183606 201.171571 
L 186.896468 201.339482 
L 186.035054 202.207922 
L 183.450784 204.195149 
L 183.163646 204.342656 
L 182.015094 205.341867 
L 180.866542 206.165315 
L 180.005128 206.793419 
L 179.430852 207.132622 
L 178.569438 207.834832 
L 175.698059 209.746672 
L 174.836645 210.333816 
L 173.975231 210.876445 
L 173.113817 211.436402 
L 172.539541 211.752393 
L 171.678127 212.35226 
L 170.242438 213.234187 
L 159.331195 219.318291 
L 158.469781 219.768072 
L 155.311235 221.357101 
L 153.588407 222.161827 
L 151.291303 223.286384 
L 150.142752 223.827809 
L 148.132786 224.736293 
L 146.12282 225.626913 
L 138.370095 228.940041 
L 136.934405 229.508232 
L 135.211578 230.208991 
L 132.914474 231.092944 
L 131.191646 231.766019 
L 116.260443 237.087924 
L 112.52765 238.307871 
L 100.754993 241.939148 
L 83.526687 246.741502 
L 81.516721 247.272019 
L 81.516721 247.272019 
" style="fill:none;stroke:#000000;stroke-dasharray:5.55,2.4;stroke-dashoffset:0;stroke-width:1.5;"/>
   </g>
   <g id="line2d_17">
    <path clip-path="url(#p1f46f7fd45)" d="M 341.951111 258.198788 
L 336.214089 258.198788 
L 333.345578 258.198788 
L 330.477067 258.198788 
L 327.608556 258.198788 
L 324.740044 258.198788 
L 321.871533 258.198788 
L 319.003022 258.198788 
L 316.134511 258.198788 
L 313.266 258.198788 
L 310.397489 258.198788 
L 307.528978 258.198788 
L 304.660467 258.198788 
L 301.791956 258.198788 
L 298.923444 258.198788 
L 296.054933 258.198788 
L 293.186422 258.198788 
L 290.317911 258.198788 
L 287.4494 258.198788 
L 284.580889 258.198788 
L 281.712378 258.198788 
L 278.843867 258.198788 
L 275.975356 258.198788 
L 273.106844 258.198788 
L 270.238333 258.198788 
L 267.369822 258.198788 
L 264.501311 258.198788 
L 261.6328 258.198788 
L 258.764289 258.198788 
L 255.895778 258.198788 
L 253.027267 258.198788 
L 250.158756 258.198788 
L 247.290244 258.198788 
L 244.421733 258.198788 
L 241.553222 258.198788 
L 238.684711 258.198788 
L 235.8162 258.198788 
L 232.947689 258.198788 
L 230.079178 258.198788 
L 227.210667 258.198788 
L 224.342156 258.198788 
L 221.473644 258.198788 
L 218.605133 258.198788 
L 215.736622 258.198788 
L 212.868111 258.198788 
L 209.9996 258.198788 
L 207.131089 258.198788 
L 204.262578 258.198788 
L 201.394067 258.198788 
L 198.525556 258.198788 
L 195.657044 258.198788 
L 192.788533 258.198788 
L 189.920022 258.198788 
L 187.051511 258.198788 
L 184.183 258.198788 
L 181.314489 258.198788 
L 178.445978 258.198788 
L 175.577467 258.198788 
L 172.708956 258.198788 
L 169.840444 258.198788 
L 166.971933 258.198788 
L 164.103422 258.198788 
L 161.234911 258.198788 
L 158.3664 258.198788 
L 155.497889 258.198788 
L 152.629378 258.198788 
L 149.760867 258.198788 
L 146.892356 258.198788 
L 144.023844 258.198788 
L 141.155333 258.198788 
L 138.286822 258.198788 
L 135.418311 258.198788 
L 132.5498 258.198788 
L 129.681289 258.198788 
L 126.812778 258.198788 
L 123.944267 258.198788 
L 121.075756 258.198788 
L 118.207244 258.198788 
L 115.338733 258.198788 
L 112.470222 258.198788 
L 109.601711 258.198788 
L 106.7332 258.198788 
L 103.864689 258.198788 
L 100.996178 258.198788 
L 98.127667 258.198788 
L 95.259156 258.198788 
L 92.390644 258.198788 
L 89.522133 258.198788 
L 86.653622 258.198788 
L 83.785111 258.198788 
L 80.9166 258.198788 
L 78.048089 258.198788 
L 75.179578 258.198788 
L 72.311067 258.198788 
L 69.442556 258.198788 
L 66.574044 258.198788 
L 63.705533 258.198788 
L 60.837022 258.198788 
L 57.968511 258.198788 
L 55.1 258.198788 
" style="fill:none;stroke:#000000;stroke-linecap:square;stroke-width:1.5;"/>
   </g>
   <g id="line2d_18">
    <path clip-path="url(#p1f46f7fd45)" d="M 341.951111 67.152323 
L 336.214089 67.152323 
L 333.345578 67.152323 
L 330.477067 67.152323 
L 327.608556 67.152323 
L 324.740044 67.152323 
L 321.871533 67.152323 
L 319.003022 67.152323 
L 316.134511 67.152323 
L 313.266 67.152323 
L 310.397489 67.152323 
L 307.528978 67.152323 
L 304.660467 67.152323 
L 301.791956 67.152323 
L 298.923444 67.152323 
L 296.054933 67.152323 
L 293.186422 67.152323 
L 290.317911 67.152323 
L 287.4494 67.152323 
L 284.580889 67.152323 
L 281.712378 67.152323 
L 278.843867 67.152323 
L 275.975356 67.152323 
L 273.106844 67.152323 
L 270.238333 67.152323 
L 267.369822 67.152323 
L 264.501311 67.152323 
L 261.6328 67.152323 
L 258.764289 67.152323 
L 255.895778 67.152323 
L 253.027267 67.152323 
L 250.158756 67.152323 
L 247.290244 67.152323 
L 244.421733 67.152323 
L 241.553222 67.152323 
L 238.684711 67.152323 
L 235.8162 67.152323 
L 232.947689 67.152323 
L 230.079178 67.152323 
L 227.210667 67.152323 
L 224.342156 67.152323 
L 221.473644 67.152323 
L 218.605133 67.152323 
L 215.736622 67.152323 
L 212.868111 67.152323 
L 209.9996 67.152323 
L 207.131089 67.152323 
L 204.262578 67.152323 
L 201.394067 67.152323 
L 198.525556 67.152323 
L 195.657044 67.152323 
L 192.788533 67.152323 
L 189.920022 67.152323 
L 187.051511 67.152323 
L 184.183 67.152323 
L 181.314489 67.152323 
L 178.445978 67.152323 
L 175.577467 67.152323 
L 172.708956 67.152323 
L 169.840444 67.152323 
L 166.971933 67.152323 
L 164.103422 67.152323 
L 161.234911 67.152323 
L 158.3664 67.152323 
L 155.497889 67.152323 
L 152.629378 67.152323 
L 149.760867 67.152323 
L 146.892356 67.152323 
L 144.023844 67.152323 
L 141.155333 67.152323 
L 138.286822 67.152323 
L 135.418311 67.152323 
L 132.5498 67.152323 
L 129.681289 67.152323 
L 126.812778 67.152323 
L 123.944267 67.152323 
L 121.075756 67.152323 
L 118.207244 67.152323 
L 115.338733 67.152323 
L 112.470222 67.152323 
L 109.601711 67.152323 
L 106.7332 67.152323 
L 103.864689 67.152323 
L 100.996178 67.152323 
L 98.127667 67.152323 
L 95.259156 67.152323 
L 92.390644 67.152323 
L 89.522133 67.152323 
L 86.653622 67.152323 
L 83.785111 67.152323 
L 80.9166 67.152323 
L 78.048089 67.152323 
L 75.179578 67.152323 
L 72.311067 67.152323 
L 69.442556 67.152323 
L 66.574044 67.152323 
L 63.705533 67.152323 
L 60.837022 67.152323 
L 57.968511 67.152323 
L 55.1 67.152323 
" style="fill:none;stroke:#000000;stroke-linecap:square;stroke-width:1.5;"/>
   </g>
   <g id="patch_4">
    <path d="M 55.1 267.751111 
L 55.1 57.6 
" style="fill:none;stroke:#000000;stroke-linecap:square;stroke-linejoin:miter;stroke-width:0.8;"/>
   </g>
   <g id="patch_5">
    <path d="M 341.951111 267.751111 
L 341.951111 57.6 
" style="fill:none;stroke:#000000;stroke-linecap:square;stroke-linejoin:miter;stroke-width:0.8;"/>
   </g>
   <g id="patch_6">
    <path d="M 55.1 267.751111 
L 341.951111 267.751111 
" style="fill:none;stroke:#000000;stroke-linecap:square;stroke-linejoin:miter;stroke-width:0.8;"/>
   </g>
   <g id="patch_7">
    <path d="M 55.1 57.6 
L 341.951111 57.6 
" style="fill:none;stroke:#000000;stroke-linecap:square;stroke-linejoin:miter;stroke-width:0.8;"/>
   </g>
   <g id="text_8">
    <!-- $\gamma=0.1, \beta=0.1$ -->
    <g transform="translate(150.555556 51.6)scale(0.13 -0.13)">
     <defs>
      <path d="M 23.296875 46.09375 
L 28.71875 12.3125 
L 54 54.6875 
L 63.53125 54.6875 
L 30.8125 0 
L 26.765625 -20.796875 
L 17.78125 -20.796875 
L 21.828125 0 
L 15.4375 40.828125 
Q 14.453125 46.96875 9.8125 46.96875 
L 7.421875 46.96875 
L 8.890625 54.6875 
L 12.3125 54.6875 
Q 21.921875 54.6875 23.296875 46.09375 
z
" id="DejaVuSans-Oblique-947"/>
      <path d="M 10.59375 45.40625 
L 73.1875 45.40625 
L 73.1875 37.203125 
L 10.59375 37.203125 
z
M 10.59375 25.484375 
L 73.1875 25.484375 
L 73.1875 17.1875 
L 10.59375 17.1875 
z
" id="DejaVuSans-61"/>
      <path d="M 11.71875 12.40625 
L 22.015625 12.40625 
L 22.015625 4 
L 14.015625 -11.625 
L 7.71875 -11.625 
L 11.71875 4 
z
" id="DejaVuSans-44"/>
      <path d="M 13.625 3.375 
L 8.9375 -20.796875 
L -0.09375 -20.796875 
L 14.5 54.34375 
Q 18.84375 76.609375 39.65625 76.609375 
Q 60.75 76.609375 57.171875 57.8125 
Q 54.734375 44.4375 45.21875 39.546875 
Q 58.015625 35.15625 55.515625 22.125 
Q 51.125 -1.078125 27.484375 -1.03125 
Q 17.140625 -0.984375 13.625 3.375 
z
M 15.921875 15.09375 
Q 19.671875 6.59375 29.296875 6.640625 
Q 43.359375 6.640625 46.34375 21.96875 
Q 49.03125 35.75 26.171875 34.671875 
L 27.78125 42.96875 
Q 45.453125 42.671875 48.53125 58.59375 
Q 50.640625 69.34375 39.203125 69.28125 
Q 26.421875 69.28125 23.484375 54.046875 
z
" id="DejaVuSans-Oblique-946"/>
     </defs>
     <use transform="translate(0 0.390625)" xlink:href="#DejaVuSans-Oblique-947"/>
     <use transform="translate(78.662109 0.390625)" xlink:href="#DejaVuSans-61"/>
     <use transform="translate(181.933594 0.390625)" xlink:href="#DejaVuSans-48"/>
     <use transform="translate(245.556641 0.390625)" xlink:href="#DejaVuSans-46"/>
     <use transform="translate(277.34375 0.390625)" xlink:href="#DejaVuSans-49"/>
     <use transform="translate(340.966797 0.390625)" xlink:href="#DejaVuSans-44"/>
     <use transform="translate(392.236328 0.390625)" xlink:href="#DejaVuSans-Oblique-946"/>
     <use transform="translate(475.537109 0.390625)" xlink:href="#DejaVuSans-61"/>
     <use transform="translate(578.808594 0.390625)" xlink:href="#DejaVuSans-48"/>
     <use transform="translate(642.431641 0.390625)" xlink:href="#DejaVuSans-46"/>
     <use transform="translate(674.21875 0.390625)" xlink:href="#DejaVuSans-49"/>
    </g>
   </g>
  </g>
  <g id="axes_2">
   <g id="patch_8">
    <path d="M 413.663889 267.751111 
L 700.515 267.751111 
L 700.515 57.6 
L 413.663889 57.6 
z
" style="fill:#ffffff;"/>
   </g>
   <g id="patch_9">
    <path clip-path="url(#p6766353ff9)" d="M 416.535269 267.751111 
L 416.535269 57.6 
L 496.07257 57.6 
L 496.07257 267.751111 
z
" style="fill:#333333;opacity:0.1;"/>
   </g>
   <g id="matplotlib.axis_3">
    <g id="xtick_7">
     <g id="line2d_19">
      <g>
       <use style="stroke:#000000;stroke-width:0.8;" x="413.663889" xlink:href="#m5e374906fd" y="267.751111"/>
      </g>
     </g>
    </g>
    <g id="xtick_8">
     <g id="line2d_20">
      <g>
       <use style="stroke:#000000;stroke-width:0.8;" x="471.034111" xlink:href="#m5e374906fd" y="267.751111"/>
      </g>
     </g>
    </g>
    <g id="xtick_9">
     <g id="line2d_21">
      <g>
       <use style="stroke:#000000;stroke-width:0.8;" x="528.404333" xlink:href="#m5e374906fd" y="267.751111"/>
      </g>
     </g>
    </g>
    <g id="xtick_10">
     <g id="line2d_22">
      <g>
       <use style="stroke:#000000;stroke-width:0.8;" x="585.774556" xlink:href="#m5e374906fd" y="267.751111"/>
      </g>
     </g>
    </g>
    <g id="xtick_11">
     <g id="line2d_23">
      <g>
       <use style="stroke:#000000;stroke-width:0.8;" x="643.144778" xlink:href="#m5e374906fd" y="267.751111"/>
      </g>
     </g>
    </g>
    <g id="xtick_12">
     <g id="line2d_24">
      <g>
       <use style="stroke:#000000;stroke-width:0.8;" x="700.515" xlink:href="#m5e374906fd" y="267.751111"/>
      </g>
     </g>
    </g>
   </g>
   <g id="matplotlib.axis_4">
    <g id="ytick_7">
     <g id="line2d_25">
      <g>
       <use style="stroke:#000000;stroke-width:0.8;" x="413.663889" xlink:href="#m6ab0a2c130" y="258.198788"/>
      </g>
     </g>
    </g>
    <g id="ytick_8">
     <g id="line2d_26">
      <g>
       <use style="stroke:#000000;stroke-width:0.8;" x="413.663889" xlink:href="#m6ab0a2c130" y="219.989495"/>
      </g>
     </g>
    </g>
    <g id="ytick_9">
     <g id="line2d_27">
      <g>
       <use style="stroke:#000000;stroke-width:0.8;" x="413.663889" xlink:href="#m6ab0a2c130" y="181.780202"/>
      </g>
     </g>
    </g>
    <g id="ytick_10">
     <g id="line2d_28">
      <g>
       <use style="stroke:#000000;stroke-width:0.8;" x="413.663889" xlink:href="#m6ab0a2c130" y="143.570909"/>
      </g>
     </g>
    </g>
    <g id="ytick_11">
     <g id="line2d_29">
      <g>
       <use style="stroke:#000000;stroke-width:0.8;" x="413.663889" xlink:href="#m6ab0a2c130" y="105.361616"/>
      </g>
     </g>
    </g>
    <g id="ytick_12">
     <g id="line2d_30">
      <g>
       <use style="stroke:#000000;stroke-width:0.8;" x="413.663889" xlink:href="#m6ab0a2c130" y="67.152323"/>
      </g>
     </g>
    </g>
   </g>
   <g id="line2d_31">
    <path clip-path="url(#p6766353ff9)" d="M 700.515 162.675556 
L 496.07257 162.675556 
L 496.07257 162.675556 
" style="fill:none;stroke:#000000;stroke-dasharray:5.55,2.4;stroke-dashoffset:0;stroke-width:1.5;"/>
   </g>
   <g id="line2d_32">
    <path clip-path="url(#p6766353ff9)" d="M 496.07257 162.675556 
L 416.535269 162.675556 
L 416.535269 162.675556 
" style="fill:none;stroke:#000000;stroke-linecap:square;stroke-width:1.5;"/>
   </g>
   <g id="line2d_33">
    <path clip-path="url(#p6766353ff9)" d="M 496.07257 162.675556 
L 496.07257 157.536329 
L 495.498294 153.780069 
L 494.924018 150.981601 
L 494.349742 148.347491 
L 493.488328 145.670663 
L 492.914053 144.105476 
L 492.052639 141.621051 
L 489.755535 136.675316 
L 488.894121 135.106366 
L 488.032707 133.475689 
L 486.884155 131.591474 
L 486.022741 130.217258 
L 485.448465 129.454104 
L 484.587023 128.038048 
L 479.705678 121.66044 
L 476.260022 117.766894 
L 475.11147 116.546642 
L 471.952953 113.384116 
L 469.942987 111.537881 
L 469.081573 110.717661 
L 468.220159 109.934218 
L 464.200228 106.507876 
L 462.4774 105.134385 
L 460.754572 103.766894 
L 459.318882 102.696824 
L 457.883192 101.592995 
L 450.417577 96.374026 
L 448.407611 95.066581 
L 445.823369 93.407419 
L 442.95199 91.637526 
L 438.932058 89.225507 
L 437.783506 88.55652 
L 437.783506 88.55652 
" style="fill:none;stroke:#000000;stroke-dasharray:5.55,2.4;stroke-dashoffset:0;stroke-width:1.5;"/>
   </g>
   <g id="line2d_34">
    <path clip-path="url(#p6766353ff9)" d="M 496.07257 162.675556 
L 496.07257 167.814782 
L 495.498294 171.571042 
L 494.924018 174.36951 
L 494.349742 177.00362 
L 493.488328 179.680449 
L 492.914053 181.245635 
L 492.052639 183.73006 
L 489.755535 188.675795 
L 488.894121 190.244745 
L 488.032707 191.875422 
L 486.884155 193.759637 
L 486.022741 195.133853 
L 485.448465 195.897007 
L 484.587023 197.313063 
L 479.705678 203.690671 
L 476.260022 207.584218 
L 475.11147 208.80447 
L 471.952953 211.966995 
L 469.942987 213.81323 
L 469.081573 214.63345 
L 468.220159 215.416893 
L 464.200228 218.843235 
L 462.4774 220.216726 
L 460.754572 221.584217 
L 459.318882 222.654287 
L 457.883192 223.758116 
L 450.417577 228.977085 
L 448.407611 230.28453 
L 445.823369 231.943693 
L 442.95199 233.713585 
L 438.932058 236.125604 
L 437.783506 236.794592 
L 437.783506 236.794592 
" style="fill:none;stroke:#000000;stroke-dasharray:5.55,2.4;stroke-dashoffset:0;stroke-width:1.5;"/>
   </g>
   <g id="line2d_35">
    <path clip-path="url(#p6766353ff9)" d="M 700.515 258.198788 
L 694.777978 258.198788 
L 691.909467 258.198788 
L 689.040956 258.198788 
L 686.172444 258.198788 
L 683.303933 258.198788 
L 680.435422 258.198788 
L 677.566911 258.198788 
L 674.6984 258.198788 
L 671.829889 258.198788 
L 668.961378 258.198788 
L 666.092867 258.198788 
L 663.224356 258.198788 
L 660.355844 258.198788 
L 657.487333 258.198788 
L 654.618822 258.198788 
L 651.750311 258.198788 
L 648.8818 258.198788 
L 646.013289 258.198788 
L 643.144778 258.198788 
L 640.276267 258.198788 
L 637.407756 258.198788 
L 634.539244 258.198788 
L 631.670733 258.198788 
L 628.802222 258.198788 
L 625.933711 258.198788 
L 623.0652 258.198788 
L 620.196689 258.198788 
L 617.328178 258.198788 
L 614.459667 258.198788 
L 611.591156 258.198788 
L 608.722644 258.198788 
L 605.854133 258.198788 
L 602.985622 258.198788 
L 600.117111 258.198788 
L 597.2486 258.198788 
L 594.380089 258.198788 
L 591.511578 258.198788 
L 588.643067 258.198788 
L 585.774556 258.198788 
L 582.906044 258.198788 
L 580.037533 258.198788 
L 577.169022 258.198788 
L 574.300511 258.198788 
L 571.432 258.198788 
L 568.563489 258.198788 
L 565.694978 258.198788 
L 562.826467 258.198788 
L 559.957956 258.198788 
L 557.089444 258.198788 
L 554.220933 258.198788 
L 551.352422 258.198788 
L 548.483911 258.198788 
L 545.6154 258.198788 
L 542.746889 258.198788 
L 539.878378 258.198788 
L 537.009867 258.198788 
L 534.141356 258.198788 
L 531.272844 258.198788 
L 528.404333 258.198788 
L 525.535822 258.198788 
L 522.667311 258.198788 
L 519.7988 258.198788 
L 516.930289 258.198788 
L 514.061778 258.198788 
L 511.193267 258.198788 
L 508.324756 258.198788 
L 505.456244 258.198788 
L 502.587733 258.198788 
L 499.719222 258.198788 
L 496.850711 258.198788 
L 493.9822 258.198788 
L 491.113689 258.198788 
L 488.245178 258.198788 
L 485.376667 258.198788 
L 482.508156 258.198788 
L 479.639644 258.198788 
L 476.771133 258.198788 
L 473.902622 258.198788 
L 471.034111 258.198788 
L 468.1656 258.198788 
L 465.297089 258.198788 
L 462.428578 258.198788 
L 459.560067 258.198788 
L 456.691556 258.198788 
L 453.823044 258.198788 
L 450.954533 258.198788 
L 448.086022 258.198788 
L 445.217511 258.198788 
L 442.349 258.198788 
L 439.480489 258.198788 
L 436.611978 258.198788 
L 433.743467 258.198788 
L 430.874956 258.198788 
L 428.006444 258.198788 
L 425.137933 258.198788 
L 422.269422 258.198788 
L 419.400911 258.198788 
L 416.5324 258.198788 
L 413.663889 258.198788 
" style="fill:none;stroke:#000000;stroke-linecap:square;stroke-width:1.5;"/>
   </g>
   <g id="line2d_36">
    <path clip-path="url(#p6766353ff9)" d="M 700.515 67.152323 
L 694.777978 67.152323 
L 691.909467 67.152323 
L 689.040956 67.152323 
L 686.172444 67.152323 
L 683.303933 67.152323 
L 680.435422 67.152323 
L 677.566911 67.152323 
L 674.6984 67.152323 
L 671.829889 67.152323 
L 668.961378 67.152323 
L 666.092867 67.152323 
L 663.224356 67.152323 
L 660.355844 67.152323 
L 657.487333 67.152323 
L 654.618822 67.152323 
L 651.750311 67.152323 
L 648.8818 67.152323 
L 646.013289 67.152323 
L 643.144778 67.152323 
L 640.276267 67.152323 
L 637.407756 67.152323 
L 634.539244 67.152323 
L 631.670733 67.152323 
L 628.802222 67.152323 
L 625.933711 67.152323 
L 623.0652 67.152323 
L 620.196689 67.152323 
L 617.328178 67.152323 
L 614.459667 67.152323 
L 611.591156 67.152323 
L 608.722644 67.152323 
L 605.854133 67.152323 
L 602.985622 67.152323 
L 600.117111 67.152323 
L 597.2486 67.152323 
L 594.380089 67.152323 
L 591.511578 67.152323 
L 588.643067 67.152323 
L 585.774556 67.152323 
L 582.906044 67.152323 
L 580.037533 67.152323 
L 577.169022 67.152323 
L 574.300511 67.152323 
L 571.432 67.152323 
L 568.563489 67.152323 
L 565.694978 67.152323 
L 562.826467 67.152323 
L 559.957956 67.152323 
L 557.089444 67.152323 
L 554.220933 67.152323 
L 551.352422 67.152323 
L 548.483911 67.152323 
L 545.6154 67.152323 
L 542.746889 67.152323 
L 539.878378 67.152323 
L 537.009867 67.152323 
L 534.141356 67.152323 
L 531.272844 67.152323 
L 528.404333 67.152323 
L 525.535822 67.152323 
L 522.667311 67.152323 
L 519.7988 67.152323 
L 516.930289 67.152323 
L 514.061778 67.152323 
L 511.193267 67.152323 
L 508.324756 67.152323 
L 505.456244 67.152323 
L 502.587733 67.152323 
L 499.719222 67.152323 
L 496.850711 67.152323 
L 493.9822 67.152323 
L 491.113689 67.152323 
L 488.245178 67.152323 
L 485.376667 67.152323 
L 482.508156 67.152323 
L 479.639644 67.152323 
L 476.771133 67.152323 
L 473.902622 67.152323 
L 471.034111 67.152323 
L 468.1656 67.152323 
L 465.297089 67.152323 
L 462.428578 67.152323 
L 459.560067 67.152323 
L 456.691556 67.152323 
L 453.823044 67.152323 
L 450.954533 67.152323 
L 448.086022 67.152323 
L 445.217511 67.152323 
L 442.349 67.152323 
L 439.480489 67.152323 
L 436.611978 67.152323 
L 433.743467 67.152323 
L 430.874956 67.152323 
L 428.006444 67.152323 
L 425.137933 67.152323 
L 422.269422 67.152323 
L 419.400911 67.152323 
L 416.5324 67.152323 
L 413.663889 67.152323 
" style="fill:none;stroke:#000000;stroke-linecap:square;stroke-width:1.5;"/>
   </g>
   <g id="patch_10">
    <path d="M 413.663889 267.751111 
L 413.663889 57.6 
" style="fill:none;stroke:#000000;stroke-linecap:square;stroke-linejoin:miter;stroke-width:0.8;"/>
   </g>
   <g id="patch_11">
    <path d="M 700.515 267.751111 
L 700.515 57.6 
" style="fill:none;stroke:#000000;stroke-linecap:square;stroke-linejoin:miter;stroke-width:0.8;"/>
   </g>
   <g id="patch_12">
    <path d="M 413.663889 267.751111 
L 700.515 267.751111 
" style="fill:none;stroke:#000000;stroke-linecap:square;stroke-linejoin:miter;stroke-width:0.8;"/>
   </g>
   <g id="patch_13">
    <path d="M 413.663889 57.6 
L 700.515 57.6 
" style="fill:none;stroke:#000000;stroke-linecap:square;stroke-linejoin:miter;stroke-width:0.8;"/>
   </g>
   <g id="text_9">
    <!-- $\gamma=0.1, \beta=0.2$ -->
    <g transform="translate(509.444444 51.6)scale(0.13 -0.13)">
     <use transform="translate(0 0.390625)" xlink:href="#DejaVuSans-Oblique-947"/>
     <use transform="translate(78.662109 0.390625)" xlink:href="#DejaVuSans-61"/>
     <use transform="translate(181.933594 0.390625)" xlink:href="#DejaVuSans-48"/>
     <use transform="translate(245.556641 0.390625)" xlink:href="#DejaVuSans-46"/>
     <use transform="translate(277.34375 0.390625)" xlink:href="#DejaVuSans-49"/>
     <use transform="translate(340.966797 0.390625)" xlink:href="#DejaVuSans-44"/>
     <use transform="translate(392.236328 0.390625)" xlink:href="#DejaVuSans-Oblique-946"/>
     <use transform="translate(475.537109 0.390625)" xlink:href="#DejaVuSans-61"/>
     <use transform="translate(578.808594 0.390625)" xlink:href="#DejaVuSans-48"/>
     <use transform="translate(642.431641 0.390625)" xlink:href="#DejaVuSans-46"/>
     <use transform="translate(668.71875 0.390625)" xlink:href="#DejaVuSans-50"/>
    </g>
   </g>
   <g id="legend_1">
    <g id="patch_14">
     <path d="M 616.868244 105.463806 
L 692.080744 105.463806 
Q 694.080744 105.463806 694.080744 103.463806 
L 694.080744 75.107556 
Q 694.080744 73.107556 692.080744 73.107556 
L 616.868244 73.107556 
Q 614.868244 73.107556 614.868244 75.107556 
L 614.868244 103.463806 
Q 614.868244 105.463806 616.868244 105.463806 
z
" style="fill:#ffffff;opacity:0.8;stroke:#cccccc;stroke-linejoin:miter;"/>
    </g>
    <g id="line2d_37">
     <path d="M 618.868244 81.205993 
L 638.868244 81.205993 
" style="fill:none;stroke:#000000;stroke-dasharray:5.55,2.4;stroke-dashoffset:0;stroke-width:1.5;"/>
    </g>
    <g id="line2d_38"/>
    <g id="text_10">
     <!-- unstable -->
     <g transform="translate(646.868244 84.705993)scale(0.1 -0.1)">
      <defs>
       <path d="M 8.5 21.578125 
L 8.5 54.6875 
L 17.484375 54.6875 
L 17.484375 21.921875 
Q 17.484375 14.15625 20.5 10.265625 
Q 23.53125 6.390625 29.59375 6.390625 
Q 36.859375 6.390625 41.078125 11.03125 
Q 45.3125 15.671875 45.3125 23.6875 
L 45.3125 54.6875 
L 54.296875 54.6875 
L 54.296875 0 
L 45.3125 0 
L 45.3125 8.40625 
Q 42.046875 3.421875 37.71875 1 
Q 33.40625 -1.421875 27.6875 -1.421875 
Q 18.265625 -1.421875 13.375 4.4375 
Q 8.5 10.296875 8.5 21.578125 
z
M 31.109375 56 
z
" id="DejaVuSans-117"/>
       <path d="M 18.3125 70.21875 
L 18.3125 54.6875 
L 36.8125 54.6875 
L 36.8125 47.703125 
L 18.3125 47.703125 
L 18.3125 18.015625 
Q 18.3125 11.328125 20.140625 9.421875 
Q 21.96875 7.515625 27.59375 7.515625 
L 36.8125 7.515625 
L 36.8125 0 
L 27.59375 0 
Q 17.1875 0 13.234375 3.875 
Q 9.28125 7.765625 9.28125 18.015625 
L 9.28125 47.703125 
L 2.6875 47.703125 
L 2.6875 54.6875 
L 9.28125 54.6875 
L 9.28125 70.21875 
z
" id="DejaVuSans-116"/>
       <path d="M 48.6875 27.296875 
Q 48.6875 37.203125 44.609375 42.84375 
Q 40.53125 48.484375 33.40625 48.484375 
Q 26.265625 48.484375 22.1875 42.84375 
Q 18.109375 37.203125 18.109375 27.296875 
Q 18.109375 17.390625 22.1875 11.75 
Q 26.265625 6.109375 33.40625 6.109375 
Q 40.53125 6.109375 44.609375 11.75 
Q 48.6875 17.390625 48.6875 27.296875 
z
M 18.109375 46.390625 
Q 20.953125 51.265625 25.265625 53.625 
Q 29.59375 56 35.59375 56 
Q 45.5625 56 51.78125 48.09375 
Q 58.015625 40.1875 58.015625 27.296875 
Q 58.015625 14.40625 51.78125 6.484375 
Q 45.5625 -1.421875 35.59375 -1.421875 
Q 29.59375 -1.421875 25.265625 0.953125 
Q 20.953125 3.328125 18.109375 8.203125 
L 18.109375 0 
L 9.078125 0 
L 9.078125 75.984375 
L 18.109375 75.984375 
z
" id="DejaVuSans-98"/>
       <path d="M 9.421875 75.984375 
L 18.40625 75.984375 
L 18.40625 0 
L 9.421875 0 
z
" id="DejaVuSans-108"/>
      </defs>
      <use xlink:href="#DejaVuSans-117"/>
      <use x="63.378906" xlink:href="#DejaVuSans-110"/>
      <use x="126.757812" xlink:href="#DejaVuSans-115"/>
      <use x="178.857422" xlink:href="#DejaVuSans-116"/>
      <use x="218.066406" xlink:href="#DejaVuSans-97"/>
      <use x="279.345703" xlink:href="#DejaVuSans-98"/>
      <use x="342.822266" xlink:href="#DejaVuSans-108"/>
      <use x="370.605469" xlink:href="#DejaVuSans-101"/>
     </g>
    </g>
    <g id="line2d_39">
     <path d="M 618.868244 95.884118 
L 638.868244 95.884118 
" style="fill:none;stroke:#000000;stroke-linecap:square;stroke-width:1.5;"/>
    </g>
    <g id="line2d_40"/>
    <g id="text_11">
     <!-- stable -->
     <g transform="translate(646.868244 99.384118)scale(0.1 -0.1)">
      <use xlink:href="#DejaVuSans-115"/>
      <use x="52.099609" xlink:href="#DejaVuSans-116"/>
      <use x="91.308594" xlink:href="#DejaVuSans-97"/>
      <use x="152.587891" xlink:href="#DejaVuSans-98"/>
      <use x="216.064453" xlink:href="#DejaVuSans-108"/>
      <use x="243.847656" xlink:href="#DejaVuSans-101"/>
     </g>
    </g>
   </g>
  </g>
  <g id="axes_3">
   <g id="patch_15">
    <path d="M 55.1 530.44 
L 341.951111 530.44 
L 341.951111 320.288889 
L 55.1 320.288889 
z
" style="fill:#ffffff;"/>
   </g>
   <g id="patch_16">
    <path clip-path="url(#p7623c9ac17)" d="M 61.417035 530.44 
L 61.417035 320.288889 
L 220.2045 320.288889 
L 220.2045 530.44 
z
" style="fill:#333333;opacity:0.1;"/>
   </g>
   <g id="matplotlib.axis_5">
    <g id="xtick_13">
     <g id="line2d_41">
      <g>
       <use style="stroke:#000000;stroke-width:0.8;" x="55.1" xlink:href="#m5e374906fd" y="530.44"/>
      </g>
     </g>
     <g id="text_12">
      <!-- 1.0 -->
      <g transform="translate(46.353281 545.798281)scale(0.11 -0.11)">
       <use xlink:href="#DejaVuSans-49"/>
       <use x="63.623047" xlink:href="#DejaVuSans-46"/>
       <use x="95.410156" xlink:href="#DejaVuSans-48"/>
      </g>
     </g>
    </g>
    <g id="xtick_14">
     <g id="line2d_42">
      <g>
       <use style="stroke:#000000;stroke-width:0.8;" x="112.470222" xlink:href="#m5e374906fd" y="530.44"/>
      </g>
     </g>
     <g id="text_13">
      <!-- 1.2 -->
      <g transform="translate(103.723503 545.798281)scale(0.11 -0.11)">
       <use xlink:href="#DejaVuSans-49"/>
       <use x="63.623047" xlink:href="#DejaVuSans-46"/>
       <use x="95.410156" xlink:href="#DejaVuSans-50"/>
      </g>
     </g>
    </g>
    <g id="xtick_15">
     <g id="line2d_43">
      <g>
       <use style="stroke:#000000;stroke-width:0.8;" x="169.840444" xlink:href="#m5e374906fd" y="530.44"/>
      </g>
     </g>
     <g id="text_14">
      <!-- 1.4 -->
      <g transform="translate(161.093726 545.798281)scale(0.11 -0.11)">
       <use xlink:href="#DejaVuSans-49"/>
       <use x="63.623047" xlink:href="#DejaVuSans-46"/>
       <use x="95.410156" xlink:href="#DejaVuSans-52"/>
      </g>
     </g>
    </g>
    <g id="xtick_16">
     <g id="line2d_44">
      <g>
       <use style="stroke:#000000;stroke-width:0.8;" x="227.210667" xlink:href="#m5e374906fd" y="530.44"/>
      </g>
     </g>
     <g id="text_15">
      <!-- 1.6 -->
      <g transform="translate(218.463948 545.798281)scale(0.11 -0.11)">
       <use xlink:href="#DejaVuSans-49"/>
       <use x="63.623047" xlink:href="#DejaVuSans-46"/>
       <use x="95.410156" xlink:href="#DejaVuSans-54"/>
      </g>
     </g>
    </g>
    <g id="xtick_17">
     <g id="line2d_45">
      <g>
       <use style="stroke:#000000;stroke-width:0.8;" x="284.580889" xlink:href="#m5e374906fd" y="530.44"/>
      </g>
     </g>
     <g id="text_16">
      <!-- 1.8 -->
      <g transform="translate(275.83417 545.798281)scale(0.11 -0.11)">
       <use xlink:href="#DejaVuSans-49"/>
       <use x="63.623047" xlink:href="#DejaVuSans-46"/>
       <use x="95.410156" xlink:href="#DejaVuSans-56"/>
      </g>
     </g>
    </g>
    <g id="xtick_18">
     <g id="line2d_46">
      <g>
       <use style="stroke:#000000;stroke-width:0.8;" x="341.951111" xlink:href="#m5e374906fd" y="530.44"/>
      </g>
     </g>
     <g id="text_17">
      <!-- 2.0 -->
      <g transform="translate(333.204392 545.798281)scale(0.11 -0.11)">
       <use xlink:href="#DejaVuSans-50"/>
       <use x="63.623047" xlink:href="#DejaVuSans-46"/>
       <use x="95.410156" xlink:href="#DejaVuSans-48"/>
      </g>
     </g>
    </g>
    <g id="text_18">
     <!-- Current $I$ -->
     <g transform="translate(172.065556 561.204062)scale(0.12 -0.12)">
      <defs>
       <path d="M 64.40625 67.28125 
L 64.40625 56.890625 
Q 59.421875 61.53125 53.78125 63.8125 
Q 48.140625 66.109375 41.796875 66.109375 
Q 29.296875 66.109375 22.65625 58.46875 
Q 16.015625 50.828125 16.015625 36.375 
Q 16.015625 21.96875 22.65625 14.328125 
Q 29.296875 6.6875 41.796875 6.6875 
Q 48.140625 6.6875 53.78125 8.984375 
Q 59.421875 11.28125 64.40625 15.921875 
L 64.40625 5.609375 
Q 59.234375 2.09375 53.4375 0.328125 
Q 47.65625 -1.421875 41.21875 -1.421875 
Q 24.65625 -1.421875 15.125 8.703125 
Q 5.609375 18.84375 5.609375 36.375 
Q 5.609375 53.953125 15.125 64.078125 
Q 24.65625 74.21875 41.21875 74.21875 
Q 47.75 74.21875 53.53125 72.484375 
Q 59.328125 70.75 64.40625 67.28125 
z
" id="DejaVuSans-67"/>
       <path d="M 16.890625 72.90625 
L 26.8125 72.90625 
L 12.59375 0 
L 2.6875 0 
z
" id="DejaVuSans-Oblique-73"/>
      </defs>
      <use transform="translate(0 0.78125)" xlink:href="#DejaVuSans-67"/>
      <use transform="translate(69.824219 0.78125)" xlink:href="#DejaVuSans-117"/>
      <use transform="translate(133.203125 0.78125)" xlink:href="#DejaVuSans-114"/>
      <use transform="translate(174.316406 0.78125)" xlink:href="#DejaVuSans-114"/>
      <use transform="translate(215.429688 0.78125)" xlink:href="#DejaVuSans-101"/>
      <use transform="translate(276.953125 0.78125)" xlink:href="#DejaVuSans-110"/>
      <use transform="translate(340.332031 0.78125)" xlink:href="#DejaVuSans-116"/>
      <use transform="translate(379.541016 0.78125)" xlink:href="#DejaVuSans-32"/>
      <use transform="translate(411.328125 0.78125)" xlink:href="#DejaVuSans-Oblique-73"/>
     </g>
    </g>
   </g>
   <g id="matplotlib.axis_6">
    <g id="ytick_13">
     <g id="line2d_47">
      <g>
       <use style="stroke:#000000;stroke-width:0.8;" x="55.1" xlink:href="#m6ab0a2c130" y="520.887677"/>
      </g>
     </g>
     <g id="text_19">
      <!-- 0.0 -->
      <g transform="translate(30.606563 525.066817)scale(0.11 -0.11)">
       <use xlink:href="#DejaVuSans-48"/>
       <use x="63.623047" xlink:href="#DejaVuSans-46"/>
       <use x="95.410156" xlink:href="#DejaVuSans-48"/>
      </g>
     </g>
    </g>
    <g id="ytick_14">
     <g id="line2d_48">
      <g>
       <use style="stroke:#000000;stroke-width:0.8;" x="55.1" xlink:href="#m6ab0a2c130" y="482.678384"/>
      </g>
     </g>
     <g id="text_20">
      <!-- 0.2 -->
      <g transform="translate(30.606563 486.857524)scale(0.11 -0.11)">
       <use xlink:href="#DejaVuSans-48"/>
       <use x="63.623047" xlink:href="#DejaVuSans-46"/>
       <use x="95.410156" xlink:href="#DejaVuSans-50"/>
      </g>
     </g>
    </g>
    <g id="ytick_15">
     <g id="line2d_49">
      <g>
       <use style="stroke:#000000;stroke-width:0.8;" x="55.1" xlink:href="#m6ab0a2c130" y="444.469091"/>
      </g>
     </g>
     <g id="text_21">
      <!-- 0.4 -->
      <g transform="translate(30.606563 448.648232)scale(0.11 -0.11)">
       <use xlink:href="#DejaVuSans-48"/>
       <use x="63.623047" xlink:href="#DejaVuSans-46"/>
       <use x="95.410156" xlink:href="#DejaVuSans-52"/>
      </g>
     </g>
    </g>
    <g id="ytick_16">
     <g id="line2d_50">
      <g>
       <use style="stroke:#000000;stroke-width:0.8;" x="55.1" xlink:href="#m6ab0a2c130" y="406.259798"/>
      </g>
     </g>
     <g id="text_22">
      <!-- 0.6 -->
      <g transform="translate(30.606563 410.438939)scale(0.11 -0.11)">
       <use xlink:href="#DejaVuSans-48"/>
       <use x="63.623047" xlink:href="#DejaVuSans-46"/>
       <use x="95.410156" xlink:href="#DejaVuSans-54"/>
      </g>
     </g>
    </g>
    <g id="ytick_17">
     <g id="line2d_51">
      <g>
       <use style="stroke:#000000;stroke-width:0.8;" x="55.1" xlink:href="#m6ab0a2c130" y="368.050505"/>
      </g>
     </g>
     <g id="text_23">
      <!-- 0.8 -->
      <g transform="translate(30.606563 372.229646)scale(0.11 -0.11)">
       <use xlink:href="#DejaVuSans-48"/>
       <use x="63.623047" xlink:href="#DejaVuSans-46"/>
       <use x="95.410156" xlink:href="#DejaVuSans-56"/>
      </g>
     </g>
    </g>
    <g id="ytick_18">
     <g id="line2d_52">
      <g>
       <use style="stroke:#000000;stroke-width:0.8;" x="55.1" xlink:href="#m6ab0a2c130" y="329.841212"/>
      </g>
     </g>
     <g id="text_24">
      <!-- 1.0 -->
      <g transform="translate(30.606563 334.020353)scale(0.11 -0.11)">
       <use xlink:href="#DejaVuSans-49"/>
       <use x="63.623047" xlink:href="#DejaVuSans-46"/>
       <use x="95.410156" xlink:href="#DejaVuSans-48"/>
      </g>
     </g>
    </g>
    <g id="text_25">
     <!-- Phase Difference $\phi$ -->
     <g transform="translate(24.086562 482.244444)rotate(-90)scale(0.12 -0.12)">
      <use transform="translate(0 0.015625)" xlink:href="#DejaVuSans-80"/>
      <use transform="translate(60.302734 0.015625)" xlink:href="#DejaVuSans-104"/>
      <use transform="translate(123.681641 0.015625)" xlink:href="#DejaVuSans-97"/>
      <use transform="translate(184.960938 0.015625)" xlink:href="#DejaVuSans-115"/>
      <use transform="translate(237.060547 0.015625)" xlink:href="#DejaVuSans-101"/>
      <use transform="translate(298.583984 0.015625)" xlink:href="#DejaVuSans-32"/>
      <use transform="translate(330.371094 0.015625)" xlink:href="#DejaVuSans-68"/>
      <use transform="translate(407.373047 0.015625)" xlink:href="#DejaVuSans-105"/>
      <use transform="translate(435.15625 0.015625)" xlink:href="#DejaVuSans-102"/>
      <use transform="translate(470.361328 0.015625)" xlink:href="#DejaVuSans-102"/>
      <use transform="translate(505.566406 0.015625)" xlink:href="#DejaVuSans-101"/>
      <use transform="translate(567.089844 0.015625)" xlink:href="#DejaVuSans-114"/>
      <use transform="translate(608.203125 0.015625)" xlink:href="#DejaVuSans-101"/>
      <use transform="translate(669.726562 0.015625)" xlink:href="#DejaVuSans-110"/>
      <use transform="translate(733.105469 0.015625)" xlink:href="#DejaVuSans-99"/>
      <use transform="translate(788.085938 0.015625)" xlink:href="#DejaVuSans-101"/>
      <use transform="translate(849.609375 0.015625)" xlink:href="#DejaVuSans-32"/>
      <use transform="translate(881.396484 0.015625)" xlink:href="#DejaVuSans-Oblique-981"/>
     </g>
    </g>
   </g>
   <g id="line2d_53">
    <path clip-path="url(#p7623c9ac17)" d="M 341.951111 425.364444 
L 220.2045 425.364444 
L 220.2045 425.364444 
" style="fill:none;stroke:#000000;stroke-dasharray:5.55,2.4;stroke-dashoffset:0;stroke-width:1.5;"/>
   </g>
   <g id="line2d_54">
    <path clip-path="url(#p7623c9ac17)" d="M 220.2045 425.364444 
L 61.417035 425.364444 
L 61.417035 425.364444 
" style="fill:none;stroke:#000000;stroke-linecap:square;stroke-width:1.5;"/>
   </g>
   <g id="line2d_55">
    <path clip-path="url(#p7623c9ac17)" d="M 220.2045 425.364444 
L 220.2045 424.518051 
L 219.917362 420.697026 
L 219.343087 417.559375 
L 218.768811 415.5642 
L 216.758845 410.172124 
L 214.748879 406.350755 
L 213.600327 404.562503 
L 213.026051 403.744461 
L 211.877471 401.953248 
L 209.006091 398.339394 
L 207.857539 397.01974 
L 206.708987 395.753274 
L 205.560436 394.557495 
L 204.411884 393.3979 
L 203.263332 392.289716 
L 202.11478 391.225263 
L 201.253366 390.464783 
L 200.104814 389.423962 
L 198.669125 388.203786 
L 196.084883 386.119107 
L 188.04502 380.35982 
L 178.569438 374.576939 
L 175.985197 373.148274 
L 173.688093 371.898563 
L 162.202575 366.267373 
L 155.598402 363.331466 
L 138.082957 356.49634 
L 133.48875 354.879666 
L 128.033128 353.046442 
L 116.547581 349.453488 
L 106.210615 346.488256 
L 106.210615 346.488256 
" style="fill:none;stroke:#000000;stroke-dasharray:5.55,2.4;stroke-dashoffset:0;stroke-width:1.5;"/>
   </g>
   <g id="line2d_56">
    <path clip-path="url(#p7623c9ac17)" d="M 220.2045 425.364444 
L 220.2045 426.210838 
L 219.917362 430.031862 
L 219.343087 433.169514 
L 218.768811 435.164689 
L 216.758845 440.556765 
L 214.748879 444.378134 
L 213.600327 446.166386 
L 213.026051 446.984428 
L 211.877471 448.775641 
L 209.006091 452.389495 
L 207.857539 453.709149 
L 206.708987 454.975615 
L 205.560436 456.171394 
L 204.411884 457.330988 
L 203.263332 458.439173 
L 202.11478 459.503626 
L 201.253366 460.264106 
L 200.104814 461.304927 
L 198.669125 462.525102 
L 196.084883 464.609782 
L 188.04502 470.369069 
L 178.569438 476.15195 
L 175.985197 477.580615 
L 173.688093 478.830326 
L 162.202575 484.461516 
L 155.598402 487.397423 
L 138.082957 494.232549 
L 133.48875 495.849223 
L 128.033128 497.682447 
L 116.547581 501.275401 
L 106.210615 504.240633 
L 106.210615 504.240633 
" style="fill:none;stroke:#000000;stroke-dasharray:5.55,2.4;stroke-dashoffset:0;stroke-width:1.5;"/>
   </g>
   <g id="line2d_57">
    <path clip-path="url(#p7623c9ac17)" d="M 341.951111 520.887677 
L 336.214089 520.887677 
L 333.345578 520.887677 
L 330.477067 520.887677 
L 327.608556 520.887677 
L 324.740044 520.887677 
L 321.871533 520.887677 
L 319.003022 520.887677 
L 316.134511 520.887677 
L 313.266 520.887677 
L 310.397489 520.887677 
L 307.528978 520.887677 
L 304.660467 520.887677 
L 301.791956 520.887677 
L 298.923444 520.887677 
L 296.054933 520.887677 
L 293.186422 520.887677 
L 290.317911 520.887677 
L 287.4494 520.887677 
L 284.580889 520.887677 
L 281.712378 520.887677 
L 278.843867 520.887677 
L 275.975356 520.887677 
L 273.106844 520.887677 
L 270.238333 520.887677 
L 267.369822 520.887677 
L 264.501311 520.887677 
L 261.6328 520.887677 
L 258.764289 520.887677 
L 255.895778 520.887677 
L 253.027267 520.887677 
L 250.158756 520.887677 
L 247.290244 520.887677 
L 244.421733 520.887677 
L 241.553222 520.887677 
L 238.684711 520.887677 
L 235.8162 520.887677 
L 232.947689 520.887677 
L 230.079178 520.887677 
L 227.210667 520.887677 
L 224.342156 520.887677 
L 221.473644 520.887677 
L 218.605133 520.887677 
L 215.736622 520.887677 
L 212.868111 520.887677 
L 209.9996 520.887677 
L 207.131089 520.887677 
L 204.262578 520.887677 
L 201.394067 520.887677 
L 198.525556 520.887677 
L 195.657044 520.887677 
L 192.788533 520.887677 
L 189.920022 520.887677 
L 187.051511 520.887677 
L 184.183 520.887677 
L 181.314489 520.887677 
L 178.445978 520.887677 
L 175.577467 520.887677 
L 172.708956 520.887677 
L 169.840444 520.887677 
L 166.971933 520.887677 
L 164.103422 520.887677 
L 161.234911 520.887677 
L 158.3664 520.887677 
L 155.497889 520.887677 
L 152.629378 520.887677 
L 149.760867 520.887677 
L 146.892356 520.887677 
L 144.023844 520.887677 
L 141.155333 520.887677 
L 138.286822 520.887677 
L 135.418311 520.887677 
L 132.5498 520.887677 
L 129.681289 520.887677 
L 126.812778 520.887677 
L 123.944267 520.887677 
L 121.075756 520.887677 
L 118.207244 520.887677 
L 115.338733 520.887677 
L 112.470222 520.887677 
L 109.601711 520.887677 
L 106.7332 520.887677 
L 103.864689 520.887677 
L 100.996178 520.887677 
L 98.127667 520.887677 
L 95.259156 520.887677 
L 92.390644 520.887677 
L 89.522133 520.887677 
L 86.653622 520.887677 
L 83.785111 520.887677 
L 80.9166 520.887677 
L 78.048089 520.887677 
L 75.179578 520.887677 
L 72.311067 520.887677 
L 69.442556 520.887677 
L 66.574044 520.887677 
L 63.705533 520.887677 
L 60.837022 520.887677 
L 57.968511 520.887677 
L 55.1 520.887677 
" style="fill:none;stroke:#000000;stroke-linecap:square;stroke-width:1.5;"/>
   </g>
   <g id="line2d_58">
    <path clip-path="url(#p7623c9ac17)" d="M 341.951111 329.841212 
L 336.214089 329.841212 
L 333.345578 329.841212 
L 330.477067 329.841212 
L 327.608556 329.841212 
L 324.740044 329.841212 
L 321.871533 329.841212 
L 319.003022 329.841212 
L 316.134511 329.841212 
L 313.266 329.841212 
L 310.397489 329.841212 
L 307.528978 329.841212 
L 304.660467 329.841212 
L 301.791956 329.841212 
L 298.923444 329.841212 
L 296.054933 329.841212 
L 293.186422 329.841212 
L 290.317911 329.841212 
L 287.4494 329.841212 
L 284.580889 329.841212 
L 281.712378 329.841212 
L 278.843867 329.841212 
L 275.975356 329.841212 
L 273.106844 329.841212 
L 270.238333 329.841212 
L 267.369822 329.841212 
L 264.501311 329.841212 
L 261.6328 329.841212 
L 258.764289 329.841212 
L 255.895778 329.841212 
L 253.027267 329.841212 
L 250.158756 329.841212 
L 247.290244 329.841212 
L 244.421733 329.841212 
L 241.553222 329.841212 
L 238.684711 329.841212 
L 235.8162 329.841212 
L 232.947689 329.841212 
L 230.079178 329.841212 
L 227.210667 329.841212 
L 224.342156 329.841212 
L 221.473644 329.841212 
L 218.605133 329.841212 
L 215.736622 329.841212 
L 212.868111 329.841212 
L 209.9996 329.841212 
L 207.131089 329.841212 
L 204.262578 329.841212 
L 201.394067 329.841212 
L 198.525556 329.841212 
L 195.657044 329.841212 
L 192.788533 329.841212 
L 189.920022 329.841212 
L 187.051511 329.841212 
L 184.183 329.841212 
L 181.314489 329.841212 
L 178.445978 329.841212 
L 175.577467 329.841212 
L 172.708956 329.841212 
L 169.840444 329.841212 
L 166.971933 329.841212 
L 164.103422 329.841212 
L 161.234911 329.841212 
L 158.3664 329.841212 
L 155.497889 329.841212 
L 152.629378 329.841212 
L 149.760867 329.841212 
L 146.892356 329.841212 
L 144.023844 329.841212 
L 141.155333 329.841212 
L 138.286822 329.841212 
L 135.418311 329.841212 
L 132.5498 329.841212 
L 129.681289 329.841212 
L 126.812778 329.841212 
L 123.944267 329.841212 
L 121.075756 329.841212 
L 118.207244 329.841212 
L 115.338733 329.841212 
L 112.470222 329.841212 
L 109.601711 329.841212 
L 106.7332 329.841212 
L 103.864689 329.841212 
L 100.996178 329.841212 
L 98.127667 329.841212 
L 95.259156 329.841212 
L 92.390644 329.841212 
L 89.522133 329.841212 
L 86.653622 329.841212 
L 83.785111 329.841212 
L 80.9166 329.841212 
L 78.048089 329.841212 
L 75.179578 329.841212 
L 72.311067 329.841212 
L 69.442556 329.841212 
L 66.574044 329.841212 
L 63.705533 329.841212 
L 60.837022 329.841212 
L 57.968511 329.841212 
L 55.1 329.841212 
" style="fill:none;stroke:#000000;stroke-linecap:square;stroke-width:1.5;"/>
   </g>
   <g id="patch_17">
    <path d="M 55.1 530.44 
L 55.1 320.288889 
" style="fill:none;stroke:#000000;stroke-linecap:square;stroke-linejoin:miter;stroke-width:0.8;"/>
   </g>
   <g id="patch_18">
    <path d="M 341.951111 530.44 
L 341.951111 320.288889 
" style="fill:none;stroke:#000000;stroke-linecap:square;stroke-linejoin:miter;stroke-width:0.8;"/>
   </g>
   <g id="patch_19">
    <path d="M 55.1 530.44 
L 341.951111 530.44 
" style="fill:none;stroke:#000000;stroke-linecap:square;stroke-linejoin:miter;stroke-width:0.8;"/>
   </g>
   <g id="patch_20">
    <path d="M 55.1 320.288889 
L 341.951111 320.288889 
" style="fill:none;stroke:#000000;stroke-linecap:square;stroke-linejoin:miter;stroke-width:0.8;"/>
   </g>
   <g id="text_26">
    <!-- $\gamma=0.2, \beta=0.1$ -->
    <g transform="translate(150.880556 314.288889)scale(0.13 -0.13)">
     <use transform="translate(0 0.390625)" xlink:href="#DejaVuSans-Oblique-947"/>
     <use transform="translate(78.662109 0.390625)" xlink:href="#DejaVuSans-61"/>
     <use transform="translate(181.933594 0.390625)" xlink:href="#DejaVuSans-48"/>
     <use transform="translate(245.556641 0.390625)" xlink:href="#DejaVuSans-46"/>
     <use transform="translate(271.84375 0.390625)" xlink:href="#DejaVuSans-50"/>
     <use transform="translate(335.466797 0.390625)" xlink:href="#DejaVuSans-44"/>
     <use transform="translate(386.736328 0.390625)" xlink:href="#DejaVuSans-Oblique-946"/>
     <use transform="translate(470.037109 0.390625)" xlink:href="#DejaVuSans-61"/>
     <use transform="translate(573.308594 0.390625)" xlink:href="#DejaVuSans-48"/>
     <use transform="translate(636.931641 0.390625)" xlink:href="#DejaVuSans-46"/>
     <use transform="translate(668.71875 0.390625)" xlink:href="#DejaVuSans-49"/>
    </g>
   </g>
  </g>
  <g id="axes_4">
   <g id="patch_21">
    <path d="M 413.663889 530.44 
L 700.515 530.44 
L 700.515 320.288889 
L 413.663889 320.288889 
z
" style="fill:#ffffff;"/>
   </g>
   <g id="patch_22">
    <path clip-path="url(#pbc333843ef)" d="M 423.42658 530.44 
L 423.42658 320.288889 
L 503.251019 320.288889 
L 503.251019 530.44 
z
" style="fill:#333333;opacity:0.1;"/>
   </g>
   <g id="matplotlib.axis_7">
    <g id="xtick_19">
     <g id="line2d_59">
      <g>
       <use style="stroke:#000000;stroke-width:0.8;" x="413.663889" xlink:href="#m5e374906fd" y="530.44"/>
      </g>
     </g>
     <g id="text_27">
      <!-- 1.0 -->
      <g transform="translate(404.91717 545.798281)scale(0.11 -0.11)">
       <use xlink:href="#DejaVuSans-49"/>
       <use x="63.623047" xlink:href="#DejaVuSans-46"/>
       <use x="95.410156" xlink:href="#DejaVuSans-48"/>
      </g>
     </g>
    </g>
    <g id="xtick_20">
     <g id="line2d_60">
      <g>
       <use style="stroke:#000000;stroke-width:0.8;" x="471.034111" xlink:href="#m5e374906fd" y="530.44"/>
      </g>
     </g>
     <g id="text_28">
      <!-- 1.2 -->
      <g transform="translate(462.287392 545.798281)scale(0.11 -0.11)">
       <use xlink:href="#DejaVuSans-49"/>
       <use x="63.623047" xlink:href="#DejaVuSans-46"/>
       <use x="95.410156" xlink:href="#DejaVuSans-50"/>
      </g>
     </g>
    </g>
    <g id="xtick_21">
     <g id="line2d_61">
      <g>
       <use style="stroke:#000000;stroke-width:0.8;" x="528.404333" xlink:href="#m5e374906fd" y="530.44"/>
      </g>
     </g>
     <g id="text_29">
      <!-- 1.4 -->
      <g transform="translate(519.657615 545.798281)scale(0.11 -0.11)">
       <use xlink:href="#DejaVuSans-49"/>
       <use x="63.623047" xlink:href="#DejaVuSans-46"/>
       <use x="95.410156" xlink:href="#DejaVuSans-52"/>
      </g>
     </g>
    </g>
    <g id="xtick_22">
     <g id="line2d_62">
      <g>
       <use style="stroke:#000000;stroke-width:0.8;" x="585.774556" xlink:href="#m5e374906fd" y="530.44"/>
      </g>
     </g>
     <g id="text_30">
      <!-- 1.6 -->
      <g transform="translate(577.027837 545.798281)scale(0.11 -0.11)">
       <use xlink:href="#DejaVuSans-49"/>
       <use x="63.623047" xlink:href="#DejaVuSans-46"/>
       <use x="95.410156" xlink:href="#DejaVuSans-54"/>
      </g>
     </g>
    </g>
    <g id="xtick_23">
     <g id="line2d_63">
      <g>
       <use style="stroke:#000000;stroke-width:0.8;" x="643.144778" xlink:href="#m5e374906fd" y="530.44"/>
      </g>
     </g>
     <g id="text_31">
      <!-- 1.8 -->
      <g transform="translate(634.398059 545.798281)scale(0.11 -0.11)">
       <use xlink:href="#DejaVuSans-49"/>
       <use x="63.623047" xlink:href="#DejaVuSans-46"/>
       <use x="95.410156" xlink:href="#DejaVuSans-56"/>
      </g>
     </g>
    </g>
    <g id="xtick_24">
     <g id="line2d_64">
      <g>
       <use style="stroke:#000000;stroke-width:0.8;" x="700.515" xlink:href="#m5e374906fd" y="530.44"/>
      </g>
     </g>
     <g id="text_32">
      <!-- 2.0 -->
      <g transform="translate(691.768281 545.798281)scale(0.11 -0.11)">
       <use xlink:href="#DejaVuSans-50"/>
       <use x="63.623047" xlink:href="#DejaVuSans-46"/>
       <use x="95.410156" xlink:href="#DejaVuSans-48"/>
      </g>
     </g>
    </g>
    <g id="text_33">
     <!-- Current $I$ -->
     <g transform="translate(530.629444 561.204062)scale(0.12 -0.12)">
      <use transform="translate(0 0.78125)" xlink:href="#DejaVuSans-67"/>
      <use transform="translate(69.824219 0.78125)" xlink:href="#DejaVuSans-117"/>
      <use transform="translate(133.203125 0.78125)" xlink:href="#DejaVuSans-114"/>
      <use transform="translate(174.316406 0.78125)" xlink:href="#DejaVuSans-114"/>
      <use transform="translate(215.429688 0.78125)" xlink:href="#DejaVuSans-101"/>
      <use transform="translate(276.953125 0.78125)" xlink:href="#DejaVuSans-110"/>
      <use transform="translate(340.332031 0.78125)" xlink:href="#DejaVuSans-116"/>
      <use transform="translate(379.541016 0.78125)" xlink:href="#DejaVuSans-32"/>
      <use transform="translate(411.328125 0.78125)" xlink:href="#DejaVuSans-Oblique-73"/>
     </g>
    </g>
   </g>
   <g id="matplotlib.axis_8">
    <g id="ytick_19">
     <g id="line2d_65">
      <g>
       <use style="stroke:#000000;stroke-width:0.8;" x="413.663889" xlink:href="#m6ab0a2c130" y="520.887677"/>
      </g>
     </g>
    </g>
    <g id="ytick_20">
     <g id="line2d_66">
      <g>
       <use style="stroke:#000000;stroke-width:0.8;" x="413.663889" xlink:href="#m6ab0a2c130" y="482.678384"/>
      </g>
     </g>
    </g>
    <g id="ytick_21">
     <g id="line2d_67">
      <g>
       <use style="stroke:#000000;stroke-width:0.8;" x="413.663889" xlink:href="#m6ab0a2c130" y="444.469091"/>
      </g>
     </g>
    </g>
    <g id="ytick_22">
     <g id="line2d_68">
      <g>
       <use style="stroke:#000000;stroke-width:0.8;" x="413.663889" xlink:href="#m6ab0a2c130" y="406.259798"/>
      </g>
     </g>
    </g>
    <g id="ytick_23">
     <g id="line2d_69">
      <g>
       <use style="stroke:#000000;stroke-width:0.8;" x="413.663889" xlink:href="#m6ab0a2c130" y="368.050505"/>
      </g>
     </g>
    </g>
    <g id="ytick_24">
     <g id="line2d_70">
      <g>
       <use style="stroke:#000000;stroke-width:0.8;" x="413.663889" xlink:href="#m6ab0a2c130" y="329.841212"/>
      </g>
     </g>
    </g>
   </g>
   <g id="line2d_71">
    <path clip-path="url(#pbc333843ef)" d="M 700.515 425.364444 
L 503.251019 425.364444 
L 503.251019 425.364444 
" style="fill:none;stroke:#000000;stroke-dasharray:5.55,2.4;stroke-dashoffset:0;stroke-width:1.5;"/>
   </g>
   <g id="line2d_72">
    <path clip-path="url(#pbc333843ef)" d="M 503.251019 425.364444 
L 423.42658 425.364444 
L 423.42658 425.364444 
" style="fill:none;stroke:#000000;stroke-linecap:square;stroke-width:1.5;"/>
   </g>
   <g id="line2d_73">
    <path clip-path="url(#pbc333843ef)" d="M 503.251019 425.364444 
L 503.251019 421.584858 
L 502.676743 417.121535 
L 501.528191 411.933687 
L 500.666777 409.086674 
L 498.656812 403.931763 
L 496.646846 399.836109 
L 494.349742 395.88053 
L 490.904087 390.840858 
L 488.894121 388.233437 
L 486.597017 385.489685 
L 481.141367 379.724972 
L 478.844264 377.535026 
L 476.54716 375.447977 
L 467.645883 368.270037 
L 465.348779 366.593699 
L 462.190262 364.369899 
L 458.744606 362.081067 
L 458.744606 362.081067 
" style="fill:none;stroke:#000000;stroke-dasharray:5.55,2.4;stroke-dashoffset:0;stroke-width:1.5;"/>
   </g>
   <g id="line2d_74">
    <path clip-path="url(#pbc333843ef)" d="M 503.251019 425.364444 
L 503.251019 429.144031 
L 502.676743 433.607354 
L 501.528191 438.795202 
L 500.666777 441.642215 
L 498.656812 446.797126 
L 496.646846 450.89278 
L 494.349742 454.848359 
L 490.904087 459.888031 
L 488.894121 462.495452 
L 486.597017 465.239204 
L 481.141367 471.003916 
L 478.844264 473.193863 
L 476.54716 475.280912 
L 467.645883 482.458852 
L 465.348779 484.13519 
L 462.190262 486.35899 
L 458.744606 488.647822 
L 458.744606 488.647822 
" style="fill:none;stroke:#000000;stroke-dasharray:5.55,2.4;stroke-dashoffset:0;stroke-width:1.5;"/>
   </g>
   <g id="line2d_75">
    <path clip-path="url(#pbc333843ef)" d="M 700.515 520.887677 
L 694.777978 520.887677 
L 691.909467 520.887677 
L 689.040956 520.887677 
L 686.172444 520.887677 
L 683.303933 520.887677 
L 680.435422 520.887677 
L 677.566911 520.887677 
L 674.6984 520.887677 
L 671.829889 520.887677 
L 668.961378 520.887677 
L 666.092867 520.887677 
L 663.224356 520.887677 
L 660.355844 520.887677 
L 657.487333 520.887677 
L 654.618822 520.887677 
L 651.750311 520.887677 
L 648.8818 520.887677 
L 646.013289 520.887677 
L 643.144778 520.887677 
L 640.276267 520.887677 
L 637.407756 520.887677 
L 634.539244 520.887677 
L 631.670733 520.887677 
L 628.802222 520.887677 
L 625.933711 520.887677 
L 623.0652 520.887677 
L 620.196689 520.887677 
L 617.328178 520.887677 
L 614.459667 520.887677 
L 611.591156 520.887677 
L 608.722644 520.887677 
L 605.854133 520.887677 
L 602.985622 520.887677 
L 600.117111 520.887677 
L 597.2486 520.887677 
L 594.380089 520.887677 
L 591.511578 520.887677 
L 588.643067 520.887677 
L 585.774556 520.887677 
L 582.906044 520.887677 
L 580.037533 520.887677 
L 577.169022 520.887677 
L 574.300511 520.887677 
L 571.432 520.887677 
L 568.563489 520.887677 
L 565.694978 520.887677 
L 562.826467 520.887677 
L 559.957956 520.887677 
L 557.089444 520.887677 
L 554.220933 520.887677 
L 551.352422 520.887677 
L 548.483911 520.887677 
L 545.6154 520.887677 
L 542.746889 520.887677 
L 539.878378 520.887677 
L 537.009867 520.887677 
L 534.141356 520.887677 
L 531.272844 520.887677 
L 528.404333 520.887677 
L 525.535822 520.887677 
L 522.667311 520.887677 
L 519.7988 520.887677 
L 516.930289 520.887677 
L 514.061778 520.887677 
L 511.193267 520.887677 
L 508.324756 520.887677 
L 505.456244 520.887677 
L 502.587733 520.887677 
L 499.719222 520.887677 
L 496.850711 520.887677 
L 493.9822 520.887677 
L 491.113689 520.887677 
L 488.245178 520.887677 
L 485.376667 520.887677 
L 482.508156 520.887677 
L 479.639644 520.887677 
L 476.771133 520.887677 
L 473.902622 520.887677 
L 471.034111 520.887677 
L 468.1656 520.887677 
L 465.297089 520.887677 
L 462.428578 520.887677 
L 459.560067 520.887677 
L 456.691556 520.887677 
L 453.823044 520.887677 
L 450.954533 520.887677 
L 448.086022 520.887677 
L 445.217511 520.887677 
L 442.349 520.887677 
L 439.480489 520.887677 
L 436.611978 520.887677 
L 433.743467 520.887677 
L 430.874956 520.887677 
L 428.006444 520.887677 
L 425.137933 520.887677 
L 422.269422 520.887677 
L 419.400911 520.887677 
L 416.5324 520.887677 
L 413.663889 520.887677 
" style="fill:none;stroke:#000000;stroke-linecap:square;stroke-width:1.5;"/>
   </g>
   <g id="line2d_76">
    <path clip-path="url(#pbc333843ef)" d="M 700.515 329.841212 
L 694.777978 329.841212 
L 691.909467 329.841212 
L 689.040956 329.841212 
L 686.172444 329.841212 
L 683.303933 329.841212 
L 680.435422 329.841212 
L 677.566911 329.841212 
L 674.6984 329.841212 
L 671.829889 329.841212 
L 668.961378 329.841212 
L 666.092867 329.841212 
L 663.224356 329.841212 
L 660.355844 329.841212 
L 657.487333 329.841212 
L 654.618822 329.841212 
L 651.750311 329.841212 
L 648.8818 329.841212 
L 646.013289 329.841212 
L 643.144778 329.841212 
L 640.276267 329.841212 
L 637.407756 329.841212 
L 634.539244 329.841212 
L 631.670733 329.841212 
L 628.802222 329.841212 
L 625.933711 329.841212 
L 623.0652 329.841212 
L 620.196689 329.841212 
L 617.328178 329.841212 
L 614.459667 329.841212 
L 611.591156 329.841212 
L 608.722644 329.841212 
L 605.854133 329.841212 
L 602.985622 329.841212 
L 600.117111 329.841212 
L 597.2486 329.841212 
L 594.380089 329.841212 
L 591.511578 329.841212 
L 588.643067 329.841212 
L 585.774556 329.841212 
L 582.906044 329.841212 
L 580.037533 329.841212 
L 577.169022 329.841212 
L 574.300511 329.841212 
L 571.432 329.841212 
L 568.563489 329.841212 
L 565.694978 329.841212 
L 562.826467 329.841212 
L 559.957956 329.841212 
L 557.089444 329.841212 
L 554.220933 329.841212 
L 551.352422 329.841212 
L 548.483911 329.841212 
L 545.6154 329.841212 
L 542.746889 329.841212 
L 539.878378 329.841212 
L 537.009867 329.841212 
L 534.141356 329.841212 
L 531.272844 329.841212 
L 528.404333 329.841212 
L 525.535822 329.841212 
L 522.667311 329.841212 
L 519.7988 329.841212 
L 516.930289 329.841212 
L 514.061778 329.841212 
L 511.193267 329.841212 
L 508.324756 329.841212 
L 505.456244 329.841212 
L 502.587733 329.841212 
L 499.719222 329.841212 
L 496.850711 329.841212 
L 493.9822 329.841212 
L 491.113689 329.841212 
L 488.245178 329.841212 
L 485.376667 329.841212 
L 482.508156 329.841212 
L 479.639644 329.841212 
L 476.771133 329.841212 
L 473.902622 329.841212 
L 471.034111 329.841212 
L 468.1656 329.841212 
L 465.297089 329.841212 
L 462.428578 329.841212 
L 459.560067 329.841212 
L 456.691556 329.841212 
L 453.823044 329.841212 
L 450.954533 329.841212 
L 448.086022 329.841212 
L 445.217511 329.841212 
L 442.349 329.841212 
L 439.480489 329.841212 
L 436.611978 329.841212 
L 433.743467 329.841212 
L 430.874956 329.841212 
L 428.006444 329.841212 
L 425.137933 329.841212 
L 422.269422 329.841212 
L 419.400911 329.841212 
L 416.5324 329.841212 
L 413.663889 329.841212 
" style="fill:none;stroke:#000000;stroke-linecap:square;stroke-width:1.5;"/>
   </g>
   <g id="patch_23">
    <path d="M 413.663889 530.44 
L 413.663889 320.288889 
" style="fill:none;stroke:#000000;stroke-linecap:square;stroke-linejoin:miter;stroke-width:0.8;"/>
   </g>
   <g id="patch_24">
    <path d="M 700.515 530.44 
L 700.515 320.288889 
" style="fill:none;stroke:#000000;stroke-linecap:square;stroke-linejoin:miter;stroke-width:0.8;"/>
   </g>
   <g id="patch_25">
    <path d="M 413.663889 530.44 
L 700.515 530.44 
" style="fill:none;stroke:#000000;stroke-linecap:square;stroke-linejoin:miter;stroke-width:0.8;"/>
   </g>
   <g id="patch_26">
    <path d="M 413.663889 320.288889 
L 700.515 320.288889 
" style="fill:none;stroke:#000000;stroke-linecap:square;stroke-linejoin:miter;stroke-width:0.8;"/>
   </g>
   <g id="text_34">
    <!-- $\gamma=0.2, \beta=0.2$ -->
    <g transform="translate(509.834444 314.288889)scale(0.13 -0.13)">
     <use transform="translate(0 0.390625)" xlink:href="#DejaVuSans-Oblique-947"/>
     <use transform="translate(78.662109 0.390625)" xlink:href="#DejaVuSans-61"/>
     <use transform="translate(181.933594 0.390625)" xlink:href="#DejaVuSans-48"/>
     <use transform="translate(245.556641 0.390625)" xlink:href="#DejaVuSans-46"/>
     <use transform="translate(271.84375 0.390625)" xlink:href="#DejaVuSans-50"/>
     <use transform="translate(335.466797 0.390625)" xlink:href="#DejaVuSans-44"/>
     <use transform="translate(386.736328 0.390625)" xlink:href="#DejaVuSans-Oblique-946"/>
     <use transform="translate(470.037109 0.390625)" xlink:href="#DejaVuSans-61"/>
     <use transform="translate(573.308594 0.390625)" xlink:href="#DejaVuSans-48"/>
     <use transform="translate(636.931641 0.390625)" xlink:href="#DejaVuSans-46"/>
     <use transform="translate(663.21875 0.390625)" xlink:href="#DejaVuSans-50"/>
    </g>
   </g>
  </g>
  <g id="text_35">
   <!-- Bifurcation diagrams for moderately two coupled neurons -->
   <g transform="translate(143.00625 22.917656)scale(0.15 -0.15)">
    <defs>
     <path d="M 19.671875 34.8125 
L 19.671875 8.109375 
L 35.5 8.109375 
Q 43.453125 8.109375 47.28125 11.40625 
Q 51.125 14.703125 51.125 21.484375 
Q 51.125 28.328125 47.28125 31.5625 
Q 43.453125 34.8125 35.5 34.8125 
z
M 19.671875 64.796875 
L 19.671875 42.828125 
L 34.28125 42.828125 
Q 41.5 42.828125 45.03125 45.53125 
Q 48.578125 48.25 48.578125 53.8125 
Q 48.578125 59.328125 45.03125 62.0625 
Q 41.5 64.796875 34.28125 64.796875 
z
M 9.8125 72.90625 
L 35.015625 72.90625 
Q 46.296875 72.90625 52.390625 68.21875 
Q 58.5 63.53125 58.5 54.890625 
Q 58.5 48.1875 55.375 44.234375 
Q 52.25 40.28125 46.1875 39.3125 
Q 53.46875 37.75 57.5 32.78125 
Q 61.53125 27.828125 61.53125 20.40625 
Q 61.53125 10.640625 54.890625 5.3125 
Q 48.25 0 35.984375 0 
L 9.8125 0 
z
" id="DejaVuSans-66"/>
     <path d="M 30.609375 48.390625 
Q 23.390625 48.390625 19.1875 42.75 
Q 14.984375 37.109375 14.984375 27.296875 
Q 14.984375 17.484375 19.15625 11.84375 
Q 23.34375 6.203125 30.609375 6.203125 
Q 37.796875 6.203125 41.984375 11.859375 
Q 46.1875 17.53125 46.1875 27.296875 
Q 46.1875 37.015625 41.984375 42.703125 
Q 37.796875 48.390625 30.609375 48.390625 
z
M 30.609375 56 
Q 42.328125 56 49.015625 48.375 
Q 55.71875 40.765625 55.71875 27.296875 
Q 55.71875 13.875 49.015625 6.21875 
Q 42.328125 -1.421875 30.609375 -1.421875 
Q 18.84375 -1.421875 12.171875 6.21875 
Q 5.515625 13.875 5.515625 27.296875 
Q 5.515625 40.765625 12.171875 48.375 
Q 18.84375 56 30.609375 56 
z
" id="DejaVuSans-111"/>
     <path d="M 45.40625 46.390625 
L 45.40625 75.984375 
L 54.390625 75.984375 
L 54.390625 0 
L 45.40625 0 
L 45.40625 8.203125 
Q 42.578125 3.328125 38.25 0.953125 
Q 33.9375 -1.421875 27.875 -1.421875 
Q 17.96875 -1.421875 11.734375 6.484375 
Q 5.515625 14.40625 5.515625 27.296875 
Q 5.515625 40.1875 11.734375 48.09375 
Q 17.96875 56 27.875 56 
Q 33.9375 56 38.25 53.625 
Q 42.578125 51.265625 45.40625 46.390625 
z
M 14.796875 27.296875 
Q 14.796875 17.390625 18.875 11.75 
Q 22.953125 6.109375 30.078125 6.109375 
Q 37.203125 6.109375 41.296875 11.75 
Q 45.40625 17.390625 45.40625 27.296875 
Q 45.40625 37.203125 41.296875 42.84375 
Q 37.203125 48.484375 30.078125 48.484375 
Q 22.953125 48.484375 18.875 42.84375 
Q 14.796875 37.203125 14.796875 27.296875 
z
" id="DejaVuSans-100"/>
     <path d="M 45.40625 27.984375 
Q 45.40625 37.75 41.375 43.109375 
Q 37.359375 48.484375 30.078125 48.484375 
Q 22.859375 48.484375 18.828125 43.109375 
Q 14.796875 37.75 14.796875 27.984375 
Q 14.796875 18.265625 18.828125 12.890625 
Q 22.859375 7.515625 30.078125 7.515625 
Q 37.359375 7.515625 41.375 12.890625 
Q 45.40625 18.265625 45.40625 27.984375 
z
M 54.390625 6.78125 
Q 54.390625 -7.171875 48.1875 -13.984375 
Q 42 -20.796875 29.203125 -20.796875 
Q 24.46875 -20.796875 20.265625 -20.09375 
Q 16.0625 -19.390625 12.109375 -17.921875 
L 12.109375 -9.1875 
Q 16.0625 -11.328125 19.921875 -12.34375 
Q 23.78125 -13.375 27.78125 -13.375 
Q 36.625 -13.375 41.015625 -8.765625 
Q 45.40625 -4.15625 45.40625 5.171875 
L 45.40625 9.625 
Q 42.625 4.78125 38.28125 2.390625 
Q 33.9375 0 27.875 0 
Q 17.828125 0 11.671875 7.65625 
Q 5.515625 15.328125 5.515625 27.984375 
Q 5.515625 40.671875 11.671875 48.328125 
Q 17.828125 56 27.875 56 
Q 33.9375 56 38.28125 53.609375 
Q 42.625 51.21875 45.40625 46.390625 
L 45.40625 54.6875 
L 54.390625 54.6875 
z
" id="DejaVuSans-103"/>
     <path d="M 52 44.1875 
Q 55.375 50.25 60.0625 53.125 
Q 64.75 56 71.09375 56 
Q 79.640625 56 84.28125 50.015625 
Q 88.921875 44.046875 88.921875 33.015625 
L 88.921875 0 
L 79.890625 0 
L 79.890625 32.71875 
Q 79.890625 40.578125 77.09375 44.375 
Q 74.3125 48.1875 68.609375 48.1875 
Q 61.625 48.1875 57.5625 43.546875 
Q 53.515625 38.921875 53.515625 30.90625 
L 53.515625 0 
L 44.484375 0 
L 44.484375 32.71875 
Q 44.484375 40.625 41.703125 44.40625 
Q 38.921875 48.1875 33.109375 48.1875 
Q 26.21875 48.1875 22.15625 43.53125 
Q 18.109375 38.875 18.109375 30.90625 
L 18.109375 0 
L 9.078125 0 
L 9.078125 54.6875 
L 18.109375 54.6875 
L 18.109375 46.1875 
Q 21.1875 51.21875 25.484375 53.609375 
Q 29.78125 56 35.6875 56 
Q 41.65625 56 45.828125 52.96875 
Q 50 49.953125 52 44.1875 
z
" id="DejaVuSans-109"/>
     <path d="M 32.171875 -5.078125 
Q 28.375 -14.84375 24.75 -17.8125 
Q 21.140625 -20.796875 15.09375 -20.796875 
L 7.90625 -20.796875 
L 7.90625 -13.28125 
L 13.1875 -13.28125 
Q 16.890625 -13.28125 18.9375 -11.515625 
Q 21 -9.765625 23.484375 -3.21875 
L 25.09375 0.875 
L 2.984375 54.6875 
L 12.5 54.6875 
L 29.59375 11.921875 
L 46.6875 54.6875 
L 56.203125 54.6875 
z
" id="DejaVuSans-121"/>
     <path d="M 4.203125 54.6875 
L 13.1875 54.6875 
L 24.421875 12.015625 
L 35.59375 54.6875 
L 46.1875 54.6875 
L 57.421875 12.015625 
L 68.609375 54.6875 
L 77.59375 54.6875 
L 63.28125 0 
L 52.6875 0 
L 40.921875 44.828125 
L 29.109375 0 
L 18.5 0 
z
" id="DejaVuSans-119"/>
     <path d="M 18.109375 8.203125 
L 18.109375 -20.796875 
L 9.078125 -20.796875 
L 9.078125 54.6875 
L 18.109375 54.6875 
L 18.109375 46.390625 
Q 20.953125 51.265625 25.265625 53.625 
Q 29.59375 56 35.59375 56 
Q 45.5625 56 51.78125 48.09375 
Q 58.015625 40.1875 58.015625 27.296875 
Q 58.015625 14.40625 51.78125 6.484375 
Q 45.5625 -1.421875 35.59375 -1.421875 
Q 29.59375 -1.421875 25.265625 0.953125 
Q 20.953125 3.328125 18.109375 8.203125 
z
M 48.6875 27.296875 
Q 48.6875 37.203125 44.609375 42.84375 
Q 40.53125 48.484375 33.40625 48.484375 
Q 26.265625 48.484375 22.1875 42.84375 
Q 18.109375 37.203125 18.109375 27.296875 
Q 18.109375 17.390625 22.1875 11.75 
Q 26.265625 6.109375 33.40625 6.109375 
Q 40.53125 6.109375 44.609375 11.75 
Q 48.6875 17.390625 48.6875 27.296875 
z
" id="DejaVuSans-112"/>
    </defs>
    <use xlink:href="#DejaVuSans-66"/>
    <use x="68.603516" xlink:href="#DejaVuSans-105"/>
    <use x="96.386719" xlink:href="#DejaVuSans-102"/>
    <use x="131.591797" xlink:href="#DejaVuSans-117"/>
    <use x="194.970703" xlink:href="#DejaVuSans-114"/>
    <use x="233.833984" xlink:href="#DejaVuSans-99"/>
    <use x="288.814453" xlink:href="#DejaVuSans-97"/>
    <use x="350.09375" xlink:href="#DejaVuSans-116"/>
    <use x="389.302734" xlink:href="#DejaVuSans-105"/>
    <use x="417.085938" xlink:href="#DejaVuSans-111"/>
    <use x="478.267578" xlink:href="#DejaVuSans-110"/>
    <use x="541.646484" xlink:href="#DejaVuSans-32"/>
    <use x="573.433594" xlink:href="#DejaVuSans-100"/>
    <use x="636.910156" xlink:href="#DejaVuSans-105"/>
    <use x="664.693359" xlink:href="#DejaVuSans-97"/>
    <use x="725.972656" xlink:href="#DejaVuSans-103"/>
    <use x="789.449219" xlink:href="#DejaVuSans-114"/>
    <use x="830.5625" xlink:href="#DejaVuSans-97"/>
    <use x="891.841797" xlink:href="#DejaVuSans-109"/>
    <use x="989.253906" xlink:href="#DejaVuSans-115"/>
    <use x="1041.353516" xlink:href="#DejaVuSans-32"/>
    <use x="1073.140625" xlink:href="#DejaVuSans-102"/>
    <use x="1108.345703" xlink:href="#DejaVuSans-111"/>
    <use x="1169.527344" xlink:href="#DejaVuSans-114"/>
    <use x="1210.640625" xlink:href="#DejaVuSans-32"/>
    <use x="1242.427734" xlink:href="#DejaVuSans-109"/>
    <use x="1339.839844" xlink:href="#DejaVuSans-111"/>
    <use x="1401.021484" xlink:href="#DejaVuSans-100"/>
    <use x="1464.498047" xlink:href="#DejaVuSans-101"/>
    <use x="1526.021484" xlink:href="#DejaVuSans-114"/>
    <use x="1567.134766" xlink:href="#DejaVuSans-97"/>
    <use x="1628.414062" xlink:href="#DejaVuSans-116"/>
    <use x="1667.623047" xlink:href="#DejaVuSans-101"/>
    <use x="1729.146484" xlink:href="#DejaVuSans-108"/>
    <use x="1756.929688" xlink:href="#DejaVuSans-121"/>
    <use x="1816.109375" xlink:href="#DejaVuSans-32"/>
    <use x="1847.896484" xlink:href="#DejaVuSans-116"/>
    <use x="1887.105469" xlink:href="#DejaVuSans-119"/>
    <use x="1968.892578" xlink:href="#DejaVuSans-111"/>
    <use x="2030.074219" xlink:href="#DejaVuSans-32"/>
    <use x="2061.861328" xlink:href="#DejaVuSans-99"/>
    <use x="2116.841797" xlink:href="#DejaVuSans-111"/>
    <use x="2178.023438" xlink:href="#DejaVuSans-117"/>
    <use x="2241.402344" xlink:href="#DejaVuSans-112"/>
    <use x="2304.878906" xlink:href="#DejaVuSans-108"/>
    <use x="2332.662109" xlink:href="#DejaVuSans-101"/>
    <use x="2394.185547" xlink:href="#DejaVuSans-100"/>
    <use x="2457.662109" xlink:href="#DejaVuSans-32"/>
    <use x="2489.449219" xlink:href="#DejaVuSans-110"/>
    <use x="2552.828125" xlink:href="#DejaVuSans-101"/>
    <use x="2614.351562" xlink:href="#DejaVuSans-117"/>
    <use x="2677.730469" xlink:href="#DejaVuSans-114"/>
    <use x="2716.59375" xlink:href="#DejaVuSans-111"/>
    <use x="2777.775391" xlink:href="#DejaVuSans-110"/>
    <use x="2841.154297" xlink:href="#DejaVuSans-115"/>
   </g>
  </g>
 </g>
 <defs>
  <clipPath id="p1f46f7fd45">
   <rect height="210.151111" width="286.851111" x="55.1" y="57.6"/>
  </clipPath>
  <clipPath id="p6766353ff9">
   <rect height="210.151111" width="286.851111" x="413.663889" y="57.6"/>
  </clipPath>
  <clipPath id="p7623c9ac17">
   <rect height="210.151111" width="286.851111" x="55.1" y="320.288889"/>
  </clipPath>
  <clipPath id="pbc333843ef">
   <rect height="210.151111" width="286.851111" x="413.663889" y="320.288889"/>
  </clipPath>
 </defs>
</svg>
