<?xml version="1.0" encoding="utf-8" standalone="no"?>
<!DOCTYPE svg PUBLIC "-//W3C//DTD SVG 1.1//EN"
  "http://www.w3.org/Graphics/SVG/1.1/DTD/svg11.dtd">
<!-- Created with matplotlib (https://matplotlib.org/) -->
<svg height="432pt" version="1.1" viewBox="0 0 576 432" width="576pt" xmlns="http://www.w3.org/2000/svg" xmlns:xlink="http://www.w3.org/1999/xlink">
 <metadata>
  <rdf:RDF xmlns:cc="http://creativecommons.org/ns#" xmlns:dc="http://purl.org/dc/elements/1.1/" xmlns:rdf="http://www.w3.org/1999/02/22-rdf-syntax-ns#">
   <cc:Work>
    <dc:type rdf:resource="http://purl.org/dc/dcmitype/StillImage"/>
    <dc:date>2021-08-16T10:31:01.825077</dc:date>
    <dc:format>image/svg+xml</dc:format>
    <dc:creator>
     <cc:Agent>
      <dc:title>Matplotlib v3.3.3, https://matplotlib.org/</dc:title>
     </cc:Agent>
    </dc:creator>
   </cc:Work>
  </rdf:RDF>
 </metadata>
 <defs>
  <style type="text/css">*{stroke-linecap:butt;stroke-linejoin:round;}</style>
 </defs>
 <g id="figure_1">
  <g id="patch_1">
   <path d="M 0 432 
L 576 432 
L 576 0 
L 0 0 
z
" style="fill:#ffffff;"/>
  </g>
  <g id="axes_1">
   <g id="patch_2">
    <path d="M 55.82 379.72 
L 556.515 379.72 
L 556.515 38.76 
L 55.82 38.76 
z
" style="fill:#ffffff;"/>
   </g>
   <g id="matplotlib.axis_1">
    <g id="xtick_1">
     <g id="line2d_1">
      <defs>
       <path d="M 0 0 
L 0 3.5 
" id="m9d1d2b60c3" style="stroke:#000000;stroke-width:0.8;"/>
      </defs>
      <g>
       <use style="stroke:#000000;stroke-width:0.8;" x="147.784388" xlink:href="#m9d1d2b60c3" y="379.72"/>
      </g>
     </g>
     <g id="text_1">
      <!-- 1.2 -->
      <g transform="translate(139.037669 395.078281)scale(0.11 -0.11)">
       <defs>
        <path d="M 12.40625 8.296875 
L 28.515625 8.296875 
L 28.515625 63.921875 
L 10.984375 60.40625 
L 10.984375 69.390625 
L 28.421875 72.90625 
L 38.28125 72.90625 
L 38.28125 8.296875 
L 54.390625 8.296875 
L 54.390625 0 
L 12.40625 0 
z
" id="DejaVuSans-49"/>
        <path d="M 10.6875 12.40625 
L 21 12.40625 
L 21 0 
L 10.6875 0 
z
" id="DejaVuSans-46"/>
        <path d="M 19.1875 8.296875 
L 53.609375 8.296875 
L 53.609375 0 
L 7.328125 0 
L 7.328125 8.296875 
Q 12.9375 14.109375 22.625 23.890625 
Q 32.328125 33.6875 34.8125 36.53125 
Q 39.546875 41.84375 41.421875 45.53125 
Q 43.3125 49.21875 43.3125 52.78125 
Q 43.3125 58.59375 39.234375 62.25 
Q 35.15625 65.921875 28.609375 65.921875 
Q 23.96875 65.921875 18.8125 64.3125 
Q 13.671875 62.703125 7.8125 59.421875 
L 7.8125 69.390625 
Q 13.765625 71.78125 18.9375 73 
Q 24.125 74.21875 28.421875 74.21875 
Q 39.75 74.21875 46.484375 68.546875 
Q 53.21875 62.890625 53.21875 53.421875 
Q 53.21875 48.921875 51.53125 44.890625 
Q 49.859375 40.875 45.40625 35.40625 
Q 44.1875 33.984375 37.640625 27.21875 
Q 31.109375 20.453125 19.1875 8.296875 
z
" id="DejaVuSans-50"/>
       </defs>
       <use xlink:href="#DejaVuSans-49"/>
       <use x="63.623047" xlink:href="#DejaVuSans-46"/>
       <use x="95.410156" xlink:href="#DejaVuSans-50"/>
      </g>
     </g>
    </g>
    <g id="xtick_2">
     <g id="line2d_2">
      <g>
       <use style="stroke:#000000;stroke-width:0.8;" x="249.967041" xlink:href="#m9d1d2b60c3" y="379.72"/>
      </g>
     </g>
     <g id="text_2">
      <!-- 1.4 -->
      <g transform="translate(241.220322 395.078281)scale(0.11 -0.11)">
       <defs>
        <path d="M 37.796875 64.3125 
L 12.890625 25.390625 
L 37.796875 25.390625 
z
M 35.203125 72.90625 
L 47.609375 72.90625 
L 47.609375 25.390625 
L 58.015625 25.390625 
L 58.015625 17.1875 
L 47.609375 17.1875 
L 47.609375 0 
L 37.796875 0 
L 37.796875 17.1875 
L 4.890625 17.1875 
L 4.890625 26.703125 
z
" id="DejaVuSans-52"/>
       </defs>
       <use xlink:href="#DejaVuSans-49"/>
       <use x="63.623047" xlink:href="#DejaVuSans-46"/>
       <use x="95.410156" xlink:href="#DejaVuSans-52"/>
      </g>
     </g>
    </g>
    <g id="xtick_3">
     <g id="line2d_3">
      <g>
       <use style="stroke:#000000;stroke-width:0.8;" x="352.149694" xlink:href="#m9d1d2b60c3" y="379.72"/>
      </g>
     </g>
     <g id="text_3">
      <!-- 1.6 -->
      <g transform="translate(343.402975 395.078281)scale(0.11 -0.11)">
       <defs>
        <path d="M 33.015625 40.375 
Q 26.375 40.375 22.484375 35.828125 
Q 18.609375 31.296875 18.609375 23.390625 
Q 18.609375 15.53125 22.484375 10.953125 
Q 26.375 6.390625 33.015625 6.390625 
Q 39.65625 6.390625 43.53125 10.953125 
Q 47.40625 15.53125 47.40625 23.390625 
Q 47.40625 31.296875 43.53125 35.828125 
Q 39.65625 40.375 33.015625 40.375 
z
M 52.59375 71.296875 
L 52.59375 62.3125 
Q 48.875 64.0625 45.09375 64.984375 
Q 41.3125 65.921875 37.59375 65.921875 
Q 27.828125 65.921875 22.671875 59.328125 
Q 17.53125 52.734375 16.796875 39.40625 
Q 19.671875 43.65625 24.015625 45.921875 
Q 28.375 48.1875 33.59375 48.1875 
Q 44.578125 48.1875 50.953125 41.515625 
Q 57.328125 34.859375 57.328125 23.390625 
Q 57.328125 12.15625 50.6875 5.359375 
Q 44.046875 -1.421875 33.015625 -1.421875 
Q 20.359375 -1.421875 13.671875 8.265625 
Q 6.984375 17.96875 6.984375 36.375 
Q 6.984375 53.65625 15.1875 63.9375 
Q 23.390625 74.21875 37.203125 74.21875 
Q 40.921875 74.21875 44.703125 73.484375 
Q 48.484375 72.75 52.59375 71.296875 
z
" id="DejaVuSans-54"/>
       </defs>
       <use xlink:href="#DejaVuSans-49"/>
       <use x="63.623047" xlink:href="#DejaVuSans-46"/>
       <use x="95.410156" xlink:href="#DejaVuSans-54"/>
      </g>
     </g>
    </g>
    <g id="xtick_4">
     <g id="line2d_4">
      <g>
       <use style="stroke:#000000;stroke-width:0.8;" x="454.332347" xlink:href="#m9d1d2b60c3" y="379.72"/>
      </g>
     </g>
     <g id="text_4">
      <!-- 1.8 -->
      <g transform="translate(445.585628 395.078281)scale(0.11 -0.11)">
       <defs>
        <path d="M 31.78125 34.625 
Q 24.75 34.625 20.71875 30.859375 
Q 16.703125 27.09375 16.703125 20.515625 
Q 16.703125 13.921875 20.71875 10.15625 
Q 24.75 6.390625 31.78125 6.390625 
Q 38.8125 6.390625 42.859375 10.171875 
Q 46.921875 13.96875 46.921875 20.515625 
Q 46.921875 27.09375 42.890625 30.859375 
Q 38.875 34.625 31.78125 34.625 
z
M 21.921875 38.8125 
Q 15.578125 40.375 12.03125 44.71875 
Q 8.5 49.078125 8.5 55.328125 
Q 8.5 64.0625 14.71875 69.140625 
Q 20.953125 74.21875 31.78125 74.21875 
Q 42.671875 74.21875 48.875 69.140625 
Q 55.078125 64.0625 55.078125 55.328125 
Q 55.078125 49.078125 51.53125 44.71875 
Q 48 40.375 41.703125 38.8125 
Q 48.828125 37.15625 52.796875 32.3125 
Q 56.78125 27.484375 56.78125 20.515625 
Q 56.78125 9.90625 50.3125 4.234375 
Q 43.84375 -1.421875 31.78125 -1.421875 
Q 19.734375 -1.421875 13.25 4.234375 
Q 6.78125 9.90625 6.78125 20.515625 
Q 6.78125 27.484375 10.78125 32.3125 
Q 14.796875 37.15625 21.921875 38.8125 
z
M 18.3125 54.390625 
Q 18.3125 48.734375 21.84375 45.5625 
Q 25.390625 42.390625 31.78125 42.390625 
Q 38.140625 42.390625 41.71875 45.5625 
Q 45.3125 48.734375 45.3125 54.390625 
Q 45.3125 60.0625 41.71875 63.234375 
Q 38.140625 66.40625 31.78125 66.40625 
Q 25.390625 66.40625 21.84375 63.234375 
Q 18.3125 60.0625 18.3125 54.390625 
z
" id="DejaVuSans-56"/>
       </defs>
       <use xlink:href="#DejaVuSans-49"/>
       <use x="63.623047" xlink:href="#DejaVuSans-46"/>
       <use x="95.410156" xlink:href="#DejaVuSans-56"/>
      </g>
     </g>
    </g>
    <g id="xtick_5">
     <g id="line2d_5">
      <g>
       <use style="stroke:#000000;stroke-width:0.8;" x="556.515" xlink:href="#m9d1d2b60c3" y="379.72"/>
      </g>
     </g>
     <g id="text_5">
      <!-- 2.0 -->
      <g transform="translate(547.768281 395.078281)scale(0.11 -0.11)">
       <defs>
        <path d="M 31.78125 66.40625 
Q 24.171875 66.40625 20.328125 58.90625 
Q 16.5 51.421875 16.5 36.375 
Q 16.5 21.390625 20.328125 13.890625 
Q 24.171875 6.390625 31.78125 6.390625 
Q 39.453125 6.390625 43.28125 13.890625 
Q 47.125 21.390625 47.125 36.375 
Q 47.125 51.421875 43.28125 58.90625 
Q 39.453125 66.40625 31.78125 66.40625 
z
M 31.78125 74.21875 
Q 44.046875 74.21875 50.515625 64.515625 
Q 56.984375 54.828125 56.984375 36.375 
Q 56.984375 17.96875 50.515625 8.265625 
Q 44.046875 -1.421875 31.78125 -1.421875 
Q 19.53125 -1.421875 13.0625 8.265625 
Q 6.59375 17.96875 6.59375 36.375 
Q 6.59375 54.828125 13.0625 64.515625 
Q 19.53125 74.21875 31.78125 74.21875 
z
" id="DejaVuSans-48"/>
       </defs>
       <use xlink:href="#DejaVuSans-50"/>
       <use x="63.623047" xlink:href="#DejaVuSans-46"/>
       <use x="95.410156" xlink:href="#DejaVuSans-48"/>
      </g>
     </g>
    </g>
    <g id="text_6">
     <!-- Current $I$ -->
     <g transform="translate(275.2975 418.00375)scale(0.14 -0.14)">
      <defs>
       <path d="M 64.40625 67.28125 
L 64.40625 56.890625 
Q 59.421875 61.53125 53.78125 63.8125 
Q 48.140625 66.109375 41.796875 66.109375 
Q 29.296875 66.109375 22.65625 58.46875 
Q 16.015625 50.828125 16.015625 36.375 
Q 16.015625 21.96875 22.65625 14.328125 
Q 29.296875 6.6875 41.796875 6.6875 
Q 48.140625 6.6875 53.78125 8.984375 
Q 59.421875 11.28125 64.40625 15.921875 
L 64.40625 5.609375 
Q 59.234375 2.09375 53.4375 0.328125 
Q 47.65625 -1.421875 41.21875 -1.421875 
Q 24.65625 -1.421875 15.125 8.703125 
Q 5.609375 18.84375 5.609375 36.375 
Q 5.609375 53.953125 15.125 64.078125 
Q 24.65625 74.21875 41.21875 74.21875 
Q 47.75 74.21875 53.53125 72.484375 
Q 59.328125 70.75 64.40625 67.28125 
z
" id="DejaVuSans-67"/>
       <path d="M 8.5 21.578125 
L 8.5 54.6875 
L 17.484375 54.6875 
L 17.484375 21.921875 
Q 17.484375 14.15625 20.5 10.265625 
Q 23.53125 6.390625 29.59375 6.390625 
Q 36.859375 6.390625 41.078125 11.03125 
Q 45.3125 15.671875 45.3125 23.6875 
L 45.3125 54.6875 
L 54.296875 54.6875 
L 54.296875 0 
L 45.3125 0 
L 45.3125 8.40625 
Q 42.046875 3.421875 37.71875 1 
Q 33.40625 -1.421875 27.6875 -1.421875 
Q 18.265625 -1.421875 13.375 4.4375 
Q 8.5 10.296875 8.5 21.578125 
z
M 31.109375 56 
z
" id="DejaVuSans-117"/>
       <path d="M 41.109375 46.296875 
Q 39.59375 47.171875 37.8125 47.578125 
Q 36.03125 48 33.890625 48 
Q 26.265625 48 22.1875 43.046875 
Q 18.109375 38.09375 18.109375 28.8125 
L 18.109375 0 
L 9.078125 0 
L 9.078125 54.6875 
L 18.109375 54.6875 
L 18.109375 46.1875 
Q 20.953125 51.171875 25.484375 53.578125 
Q 30.03125 56 36.53125 56 
Q 37.453125 56 38.578125 55.875 
Q 39.703125 55.765625 41.0625 55.515625 
z
" id="DejaVuSans-114"/>
       <path d="M 56.203125 29.59375 
L 56.203125 25.203125 
L 14.890625 25.203125 
Q 15.484375 15.921875 20.484375 11.0625 
Q 25.484375 6.203125 34.421875 6.203125 
Q 39.59375 6.203125 44.453125 7.46875 
Q 49.3125 8.734375 54.109375 11.28125 
L 54.109375 2.78125 
Q 49.265625 0.734375 44.1875 -0.34375 
Q 39.109375 -1.421875 33.890625 -1.421875 
Q 20.796875 -1.421875 13.15625 6.1875 
Q 5.515625 13.8125 5.515625 26.8125 
Q 5.515625 40.234375 12.765625 48.109375 
Q 20.015625 56 32.328125 56 
Q 43.359375 56 49.78125 48.890625 
Q 56.203125 41.796875 56.203125 29.59375 
z
M 47.21875 32.234375 
Q 47.125 39.59375 43.09375 43.984375 
Q 39.0625 48.390625 32.421875 48.390625 
Q 24.90625 48.390625 20.390625 44.140625 
Q 15.875 39.890625 15.1875 32.171875 
z
" id="DejaVuSans-101"/>
       <path d="M 54.890625 33.015625 
L 54.890625 0 
L 45.90625 0 
L 45.90625 32.71875 
Q 45.90625 40.484375 42.875 44.328125 
Q 39.84375 48.1875 33.796875 48.1875 
Q 26.515625 48.1875 22.3125 43.546875 
Q 18.109375 38.921875 18.109375 30.90625 
L 18.109375 0 
L 9.078125 0 
L 9.078125 54.6875 
L 18.109375 54.6875 
L 18.109375 46.1875 
Q 21.34375 51.125 25.703125 53.5625 
Q 30.078125 56 35.796875 56 
Q 45.21875 56 50.046875 50.171875 
Q 54.890625 44.34375 54.890625 33.015625 
z
" id="DejaVuSans-110"/>
       <path d="M 18.3125 70.21875 
L 18.3125 54.6875 
L 36.8125 54.6875 
L 36.8125 47.703125 
L 18.3125 47.703125 
L 18.3125 18.015625 
Q 18.3125 11.328125 20.140625 9.421875 
Q 21.96875 7.515625 27.59375 7.515625 
L 36.8125 7.515625 
L 36.8125 0 
L 27.59375 0 
Q 17.1875 0 13.234375 3.875 
Q 9.28125 7.765625 9.28125 18.015625 
L 9.28125 47.703125 
L 2.6875 47.703125 
L 2.6875 54.6875 
L 9.28125 54.6875 
L 9.28125 70.21875 
z
" id="DejaVuSans-116"/>
       <path id="DejaVuSans-32"/>
       <path d="M 16.890625 72.90625 
L 26.8125 72.90625 
L 12.59375 0 
L 2.6875 0 
z
" id="DejaVuSans-Oblique-73"/>
      </defs>
      <use transform="translate(0 0.78125)" xlink:href="#DejaVuSans-67"/>
      <use transform="translate(69.824219 0.78125)" xlink:href="#DejaVuSans-117"/>
      <use transform="translate(133.203125 0.78125)" xlink:href="#DejaVuSans-114"/>
      <use transform="translate(174.316406 0.78125)" xlink:href="#DejaVuSans-114"/>
      <use transform="translate(215.429688 0.78125)" xlink:href="#DejaVuSans-101"/>
      <use transform="translate(276.953125 0.78125)" xlink:href="#DejaVuSans-110"/>
      <use transform="translate(340.332031 0.78125)" xlink:href="#DejaVuSans-116"/>
      <use transform="translate(379.541016 0.78125)" xlink:href="#DejaVuSans-32"/>
      <use transform="translate(411.328125 0.78125)" xlink:href="#DejaVuSans-Oblique-73"/>
     </g>
    </g>
   </g>
   <g id="matplotlib.axis_2">
    <g id="ytick_1">
     <g id="line2d_6">
      <defs>
       <path d="M 0 0 
L -3.5 0 
" id="m87f9785e47" style="stroke:#000000;stroke-width:0.8;"/>
      </defs>
      <g>
       <use style="stroke:#000000;stroke-width:0.8;" x="55.82" xlink:href="#m87f9785e47" y="364.559763"/>
      </g>
     </g>
     <g id="text_7">
      <!-- 0.0 -->
      <g transform="translate(31.326563 368.738904)scale(0.11 -0.11)">
       <use xlink:href="#DejaVuSans-48"/>
       <use x="63.623047" xlink:href="#DejaVuSans-46"/>
       <use x="95.410156" xlink:href="#DejaVuSans-48"/>
      </g>
     </g>
    </g>
    <g id="ytick_2">
     <g id="line2d_7">
      <g>
       <use style="stroke:#000000;stroke-width:0.8;" x="55.82" xlink:href="#m87f9785e47" y="302.431858"/>
      </g>
     </g>
     <g id="text_8">
      <!-- 0.2 -->
      <g transform="translate(31.326563 306.610998)scale(0.11 -0.11)">
       <use xlink:href="#DejaVuSans-48"/>
       <use x="63.623047" xlink:href="#DejaVuSans-46"/>
       <use x="95.410156" xlink:href="#DejaVuSans-50"/>
      </g>
     </g>
    </g>
    <g id="ytick_3">
     <g id="line2d_8">
      <g>
       <use style="stroke:#000000;stroke-width:0.8;" x="55.82" xlink:href="#m87f9785e47" y="240.303953"/>
      </g>
     </g>
     <g id="text_9">
      <!-- 0.4 -->
      <g transform="translate(31.326563 244.483093)scale(0.11 -0.11)">
       <use xlink:href="#DejaVuSans-48"/>
       <use x="63.623047" xlink:href="#DejaVuSans-46"/>
       <use x="95.410156" xlink:href="#DejaVuSans-52"/>
      </g>
     </g>
    </g>
    <g id="ytick_4">
     <g id="line2d_9">
      <g>
       <use style="stroke:#000000;stroke-width:0.8;" x="55.82" xlink:href="#m87f9785e47" y="178.176047"/>
      </g>
     </g>
     <g id="text_10">
      <!-- 0.6 -->
      <g transform="translate(31.326563 182.355188)scale(0.11 -0.11)">
       <use xlink:href="#DejaVuSans-48"/>
       <use x="63.623047" xlink:href="#DejaVuSans-46"/>
       <use x="95.410156" xlink:href="#DejaVuSans-54"/>
      </g>
     </g>
    </g>
    <g id="ytick_5">
     <g id="line2d_10">
      <g>
       <use style="stroke:#000000;stroke-width:0.8;" x="55.82" xlink:href="#m87f9785e47" y="116.048142"/>
      </g>
     </g>
     <g id="text_11">
      <!-- 0.8 -->
      <g transform="translate(31.326563 120.227283)scale(0.11 -0.11)">
       <use xlink:href="#DejaVuSans-48"/>
       <use x="63.623047" xlink:href="#DejaVuSans-46"/>
       <use x="95.410156" xlink:href="#DejaVuSans-56"/>
      </g>
     </g>
    </g>
    <g id="ytick_6">
     <g id="line2d_11">
      <g>
       <use style="stroke:#000000;stroke-width:0.8;" x="55.82" xlink:href="#m87f9785e47" y="53.920237"/>
      </g>
     </g>
     <g id="text_12">
      <!-- 1.0 -->
      <g transform="translate(31.326563 58.099378)scale(0.11 -0.11)">
       <use xlink:href="#DejaVuSans-49"/>
       <use x="63.623047" xlink:href="#DejaVuSans-46"/>
       <use x="95.410156" xlink:href="#DejaVuSans-48"/>
      </g>
     </g>
    </g>
    <g id="text_13">
     <!-- Phase Difference $\phi$ -->
     <g transform="translate(24.386563 275.6)rotate(-90)scale(0.14 -0.14)">
      <defs>
       <path d="M 19.671875 64.796875 
L 19.671875 37.40625 
L 32.078125 37.40625 
Q 38.96875 37.40625 42.71875 40.96875 
Q 46.484375 44.53125 46.484375 51.125 
Q 46.484375 57.671875 42.71875 61.234375 
Q 38.96875 64.796875 32.078125 64.796875 
z
M 9.8125 72.90625 
L 32.078125 72.90625 
Q 44.34375 72.90625 50.609375 67.359375 
Q 56.890625 61.8125 56.890625 51.125 
Q 56.890625 40.328125 50.609375 34.8125 
Q 44.34375 29.296875 32.078125 29.296875 
L 19.671875 29.296875 
L 19.671875 0 
L 9.8125 0 
z
" id="DejaVuSans-80"/>
       <path d="M 54.890625 33.015625 
L 54.890625 0 
L 45.90625 0 
L 45.90625 32.71875 
Q 45.90625 40.484375 42.875 44.328125 
Q 39.84375 48.1875 33.796875 48.1875 
Q 26.515625 48.1875 22.3125 43.546875 
Q 18.109375 38.921875 18.109375 30.90625 
L 18.109375 0 
L 9.078125 0 
L 9.078125 75.984375 
L 18.109375 75.984375 
L 18.109375 46.1875 
Q 21.34375 51.125 25.703125 53.5625 
Q 30.078125 56 35.796875 56 
Q 45.21875 56 50.046875 50.171875 
Q 54.890625 44.34375 54.890625 33.015625 
z
" id="DejaVuSans-104"/>
       <path d="M 34.28125 27.484375 
Q 23.390625 27.484375 19.1875 25 
Q 14.984375 22.515625 14.984375 16.5 
Q 14.984375 11.71875 18.140625 8.90625 
Q 21.296875 6.109375 26.703125 6.109375 
Q 34.1875 6.109375 38.703125 11.40625 
Q 43.21875 16.703125 43.21875 25.484375 
L 43.21875 27.484375 
z
M 52.203125 31.203125 
L 52.203125 0 
L 43.21875 0 
L 43.21875 8.296875 
Q 40.140625 3.328125 35.546875 0.953125 
Q 30.953125 -1.421875 24.3125 -1.421875 
Q 15.921875 -1.421875 10.953125 3.296875 
Q 6 8.015625 6 15.921875 
Q 6 25.140625 12.171875 29.828125 
Q 18.359375 34.515625 30.609375 34.515625 
L 43.21875 34.515625 
L 43.21875 35.40625 
Q 43.21875 41.609375 39.140625 45 
Q 35.0625 48.390625 27.6875 48.390625 
Q 23 48.390625 18.546875 47.265625 
Q 14.109375 46.140625 10.015625 43.890625 
L 10.015625 52.203125 
Q 14.9375 54.109375 19.578125 55.046875 
Q 24.21875 56 28.609375 56 
Q 40.484375 56 46.34375 49.84375 
Q 52.203125 43.703125 52.203125 31.203125 
z
" id="DejaVuSans-97"/>
       <path d="M 44.28125 53.078125 
L 44.28125 44.578125 
Q 40.484375 46.53125 36.375 47.5 
Q 32.28125 48.484375 27.875 48.484375 
Q 21.1875 48.484375 17.84375 46.4375 
Q 14.5 44.390625 14.5 40.28125 
Q 14.5 37.15625 16.890625 35.375 
Q 19.28125 33.59375 26.515625 31.984375 
L 29.59375 31.296875 
Q 39.15625 29.25 43.1875 25.515625 
Q 47.21875 21.78125 47.21875 15.09375 
Q 47.21875 7.46875 41.1875 3.015625 
Q 35.15625 -1.421875 24.609375 -1.421875 
Q 20.21875 -1.421875 15.453125 -0.5625 
Q 10.6875 0.296875 5.421875 2 
L 5.421875 11.28125 
Q 10.40625 8.6875 15.234375 7.390625 
Q 20.0625 6.109375 24.8125 6.109375 
Q 31.15625 6.109375 34.5625 8.28125 
Q 37.984375 10.453125 37.984375 14.40625 
Q 37.984375 18.0625 35.515625 20.015625 
Q 33.0625 21.96875 24.703125 23.78125 
L 21.578125 24.515625 
Q 13.234375 26.265625 9.515625 29.90625 
Q 5.8125 33.546875 5.8125 39.890625 
Q 5.8125 47.609375 11.28125 51.796875 
Q 16.75 56 26.8125 56 
Q 31.78125 56 36.171875 55.265625 
Q 40.578125 54.546875 44.28125 53.078125 
z
" id="DejaVuSans-115"/>
       <path d="M 19.671875 64.796875 
L 19.671875 8.109375 
L 31.59375 8.109375 
Q 46.6875 8.109375 53.6875 14.9375 
Q 60.6875 21.78125 60.6875 36.53125 
Q 60.6875 51.171875 53.6875 57.984375 
Q 46.6875 64.796875 31.59375 64.796875 
z
M 9.8125 72.90625 
L 30.078125 72.90625 
Q 51.265625 72.90625 61.171875 64.09375 
Q 71.09375 55.28125 71.09375 36.53125 
Q 71.09375 17.671875 61.125 8.828125 
Q 51.171875 0 30.078125 0 
L 9.8125 0 
z
" id="DejaVuSans-68"/>
       <path d="M 9.421875 54.6875 
L 18.40625 54.6875 
L 18.40625 0 
L 9.421875 0 
z
M 9.421875 75.984375 
L 18.40625 75.984375 
L 18.40625 64.59375 
L 9.421875 64.59375 
z
" id="DejaVuSans-105"/>
       <path d="M 37.109375 75.984375 
L 37.109375 68.5 
L 28.515625 68.5 
Q 23.6875 68.5 21.796875 66.546875 
Q 19.921875 64.59375 19.921875 59.515625 
L 19.921875 54.6875 
L 34.71875 54.6875 
L 34.71875 47.703125 
L 19.921875 47.703125 
L 19.921875 0 
L 10.890625 0 
L 10.890625 47.703125 
L 2.296875 47.703125 
L 2.296875 54.6875 
L 10.890625 54.6875 
L 10.890625 58.5 
Q 10.890625 67.625 15.140625 71.796875 
Q 19.390625 75.984375 28.609375 75.984375 
z
" id="DejaVuSans-102"/>
       <path d="M 48.78125 52.59375 
L 48.78125 44.1875 
Q 44.96875 46.296875 41.140625 47.34375 
Q 37.3125 48.390625 33.40625 48.390625 
Q 24.65625 48.390625 19.8125 42.84375 
Q 14.984375 37.3125 14.984375 27.296875 
Q 14.984375 17.28125 19.8125 11.734375 
Q 24.65625 6.203125 33.40625 6.203125 
Q 37.3125 6.203125 41.140625 7.25 
Q 44.96875 8.296875 48.78125 10.40625 
L 48.78125 2.09375 
Q 45.015625 0.34375 40.984375 -0.53125 
Q 36.96875 -1.421875 32.421875 -1.421875 
Q 20.0625 -1.421875 12.78125 6.34375 
Q 5.515625 14.109375 5.515625 27.296875 
Q 5.515625 40.671875 12.859375 48.328125 
Q 20.21875 56 33.015625 56 
Q 37.15625 56 41.109375 55.140625 
Q 45.0625 54.296875 48.78125 52.59375 
z
" id="DejaVuSans-99"/>
       <path d="M 46.734375 75.984375 
L 42.78125 55.8125 
Q 52.546875 55.8125 57.5625 48.34375 
Q 62.75 40.71875 60.15625 27.296875 
Q 57.515625 13.875 49.359375 6.25 
Q 41.453125 -1.21875 31.6875 -1.21875 
L 27.875 -20.796875 
L 18.953125 -20.796875 
L 22.75 -1.21875 
Q 13.03125 -1.21875 7.953125 6.25 
Q 2.78125 13.875 5.421875 27.296875 
Q 8.015625 40.71875 16.15625 48.34375 
Q 24.125 55.8125 33.84375 55.8125 
L 37.796875 75.984375 
z
M 33.25 6.78125 
Q 38.765625 6.78125 43.5 11.8125 
Q 48.6875 17.4375 50.6875 27.296875 
Q 52.640625 37.0625 49.515625 42.78125 
Q 46.734375 47.796875 41.21875 47.796875 
z
M 24.3125 6.78125 
L 32.28125 47.796875 
Q 26.8125 47.796875 22.078125 42.78125 
Q 16.75 37.0625 14.890625 27.296875 
Q 13.03125 17.4375 16.0625 11.8125 
Q 18.796875 6.78125 24.3125 6.78125 
z
" id="DejaVuSans-Oblique-981"/>
      </defs>
      <use transform="translate(0 0.015625)" xlink:href="#DejaVuSans-80"/>
      <use transform="translate(60.302734 0.015625)" xlink:href="#DejaVuSans-104"/>
      <use transform="translate(123.681641 0.015625)" xlink:href="#DejaVuSans-97"/>
      <use transform="translate(184.960938 0.015625)" xlink:href="#DejaVuSans-115"/>
      <use transform="translate(237.060547 0.015625)" xlink:href="#DejaVuSans-101"/>
      <use transform="translate(298.583984 0.015625)" xlink:href="#DejaVuSans-32"/>
      <use transform="translate(330.371094 0.015625)" xlink:href="#DejaVuSans-68"/>
      <use transform="translate(407.373047 0.015625)" xlink:href="#DejaVuSans-105"/>
      <use transform="translate(435.15625 0.015625)" xlink:href="#DejaVuSans-102"/>
      <use transform="translate(470.361328 0.015625)" xlink:href="#DejaVuSans-102"/>
      <use transform="translate(505.566406 0.015625)" xlink:href="#DejaVuSans-101"/>
      <use transform="translate(567.089844 0.015625)" xlink:href="#DejaVuSans-114"/>
      <use transform="translate(608.203125 0.015625)" xlink:href="#DejaVuSans-101"/>
      <use transform="translate(669.726562 0.015625)" xlink:href="#DejaVuSans-110"/>
      <use transform="translate(733.105469 0.015625)" xlink:href="#DejaVuSans-99"/>
      <use transform="translate(788.085938 0.015625)" xlink:href="#DejaVuSans-101"/>
      <use transform="translate(849.609375 0.015625)" xlink:href="#DejaVuSans-32"/>
      <use transform="translate(881.396484 0.015625)" xlink:href="#DejaVuSans-Oblique-981"/>
     </g>
    </g>
   </g>
   <g id="line2d_12">
    <path clip-path="url(#pe71a375fdd)" d="M 556.515 209.24 
L 494.242643 209.24 
L 494.242643 209.24 
" style="fill:none;stroke:#aa3863;stroke-dasharray:5.55,2.4;stroke-dashoffset:0;stroke-width:1.5;"/>
   </g>
   <g id="line2d_13">
    <path clip-path="url(#pe71a375fdd)" d="M 493.928125 209.24 
L 55.82 209.24 
L 55.82 209.24 
" style="fill:none;stroke:#aa3863;stroke-linecap:square;stroke-width:1.5;"/>
   </g>
   <g id="line2d_14">
    <path clip-path="url(#pe71a375fdd)" d="M 493.928125 209.24 
L 493.928125 200.45586 
L 492.650842 195.815558 
L 491.373559 192.189245 
L 490.096276 189.022865 
L 488.818992 186.333472 
L 487.541709 183.967611 
L 484.987143 179.905253 
L 482.432577 176.468369 
L 479.87801 173.47865 
L 473.491594 166.386439 
L 470.937028 163.96811 
L 467.105179 160.733824 
L 460.718763 155.379424 
L 456.886913 152.598299 
L 453.055064 149.933043 
L 449.223214 147.270863 
L 445.391365 144.874869 
L 441.559515 142.566848 
L 437.727666 140.232206 
L 433.895816 138.120199 
L 430.063967 136.043263 
L 426.232117 133.965147 
L 422.400268 132.082361 
L 419.845702 130.820419 
L 414.736569 128.296006 
L 401.963737 122.595864 
L 399.409171 121.509651 
L 394.300038 119.336728 
L 375.140791 111.952049 
L 349.595128 103.265885 
L 338.099579 99.740499 
L 332.990446 98.221192 
L 329.158597 97.095279 
L 320.217615 94.576645 
L 298.503801 88.906821 
L 290.840102 87.05864 
L 280.621837 84.627141 
L 247.412474 77.558383 
L 241.026059 76.33378 
L 234.639643 75.101162 
L 214.203112 71.481435 
L 205.26213 69.990924 
L 169.498202 64.69626 
L 158.002653 63.208825 
L 145.229821 61.660349 
L 128.62514 59.823662 
L 112.020459 58.204236 
L 100.524911 57.192793 
L 83.92023 55.900906 
L 66.038265 54.764462 
L 57.097283 54.295303 
L 55.82 54.258182 
L 55.82 54.258182 
" style="fill:none;stroke:#aa3863;stroke-dasharray:5.55,2.4;stroke-dashoffset:0;stroke-width:1.5;"/>
   </g>
   <g id="line2d_15">
    <path clip-path="url(#pe71a375fdd)" d="M 493.928125 209.24 
L 493.928125 218.02414 
L 492.650842 222.664442 
L 491.373559 226.290755 
L 490.096276 229.457135 
L 488.818992 232.146528 
L 487.541709 234.512389 
L 484.987143 238.574747 
L 482.432577 242.011631 
L 479.87801 245.00135 
L 473.491594 252.093561 
L 470.937028 254.51189 
L 467.105179 257.746176 
L 460.718763 263.100576 
L 456.886913 265.881701 
L 453.055064 268.546957 
L 449.223214 271.209137 
L 445.391365 273.605131 
L 441.559515 275.913152 
L 437.727666 278.247794 
L 433.895816 280.359801 
L 430.063967 282.436737 
L 426.232117 284.514853 
L 422.400268 286.397639 
L 419.845702 287.659581 
L 414.736569 290.183994 
L 401.963737 295.884136 
L 399.409171 296.970349 
L 394.300038 299.143272 
L 375.140791 306.527951 
L 349.595128 315.214115 
L 338.099579 318.739501 
L 332.990446 320.258808 
L 329.158597 321.384721 
L 320.217615 323.903355 
L 298.503801 329.573179 
L 290.840102 331.42136 
L 280.621837 333.852859 
L 247.412474 340.921617 
L 241.026059 342.14622 
L 234.639643 343.378838 
L 214.203112 346.998565 
L 205.26213 348.489076 
L 169.498202 353.78374 
L 158.002653 355.271175 
L 145.229821 356.819651 
L 128.62514 358.656338 
L 112.020459 360.275764 
L 100.524911 361.287207 
L 83.92023 362.579094 
L 66.038265 363.715538 
L 57.097283 364.184697 
L 55.82 364.221818 
L 55.82 364.221818 
" style="fill:none;stroke:#aa3863;stroke-dasharray:5.55,2.4;stroke-dashoffset:0;stroke-width:1.5;"/>
   </g>
   <g id="line2d_16">
    <path clip-path="url(#pe71a375fdd)" d="M 556.515 209.24 
L 456.116712 209.24 
L 456.116712 209.24 
" style="fill:none;stroke:#d97020;stroke-dasharray:5.55,2.4;stroke-dashoffset:0;stroke-width:1.5;"/>
   </g>
   <g id="line2d_17">
    <path clip-path="url(#pe71a375fdd)" d="M 455.60963 209.24 
L 63.483699 209.24 
L 63.483699 209.24 
" style="fill:none;stroke:#d97020;stroke-linecap:square;stroke-width:1.5;"/>
   </g>
   <g id="line2d_18">
    <path clip-path="url(#pe71a375fdd)" d="M 455.60963 209.24 
L 455.60963 199.959427 
L 454.332347 195.181853 
L 451.777781 188.355363 
L 450.500497 185.51298 
L 449.223214 183.027584 
L 446.668648 178.790772 
L 444.114082 175.241529 
L 439.004949 168.998389 
L 436.450383 166.103601 
L 433.895816 163.514887 
L 431.34125 161.185339 
L 428.786684 158.898504 
L 426.232117 156.55914 
L 422.400268 153.424383 
L 412.182003 145.918991 
L 401.963737 139.347908 
L 391.745472 133.466974 
L 380.249923 127.527795 
L 377.695357 126.293624 
L 373.863508 124.391702 
L 363.645242 119.77299 
L 345.763278 112.448545 
L 341.931429 110.980121 
L 338.099579 109.547731 
L 332.990446 107.682589 
L 324.049464 104.57141 
L 307.444783 99.245681 
L 290.840102 94.327947 
L 278.06727 90.858973 
L 260.185306 86.391449 
L 229.53051 79.676292 
L 218.034962 77.413438 
L 207.816696 75.549197 
L 207.816696 75.549197 
" style="fill:none;stroke:#d97020;stroke-dasharray:5.55,2.4;stroke-dashoffset:0;stroke-width:1.5;"/>
   </g>
   <g id="line2d_19">
    <path clip-path="url(#pe71a375fdd)" d="M 455.60963 209.24 
L 455.60963 218.520573 
L 454.332347 223.298147 
L 451.777781 230.124637 
L 450.500497 232.96702 
L 449.223214 235.452416 
L 446.668648 239.689228 
L 444.114082 243.238471 
L 439.004949 249.481611 
L 436.450383 252.376399 
L 433.895816 254.965113 
L 431.34125 257.294661 
L 428.786684 259.581496 
L 426.232117 261.92086 
L 422.400268 265.055617 
L 412.182003 272.561009 
L 401.963737 279.132092 
L 391.745472 285.013026 
L 380.249923 290.952205 
L 377.695357 292.186376 
L 373.863508 294.088298 
L 363.645242 298.70701 
L 345.763278 306.031455 
L 341.931429 307.499879 
L 338.099579 308.932269 
L 332.990446 310.797411 
L 324.049464 313.90859 
L 307.444783 319.234319 
L 290.840102 324.152053 
L 278.06727 327.621027 
L 260.185306 332.088551 
L 229.53051 338.803708 
L 218.034962 341.066562 
L 207.816696 342.930803 
L 207.816696 342.930803 
" style="fill:none;stroke:#d97020;stroke-dasharray:5.55,2.4;stroke-dashoffset:0;stroke-width:1.5;"/>
   </g>
   <g id="line2d_20">
    <path clip-path="url(#pe71a375fdd)" d="M 556.515 209.24 
L 420.532471 209.24 
L 420.532471 209.24 
" style="fill:none;stroke:#ef9f07;stroke-dasharray:5.55,2.4;stroke-dashoffset:0;stroke-width:1.5;"/>
   </g>
   <g id="line2d_21">
    <path clip-path="url(#pe71a375fdd)" d="M 419.845702 209.24 
L 77.533814 209.24 
L 77.533814 209.24 
" style="fill:none;stroke:#ef9f07;stroke-linecap:square;stroke-width:1.5;"/>
   </g>
   <g id="line2d_22">
    <path clip-path="url(#pe71a375fdd)" d="M 419.845702 209.24 
L 419.845702 200.735187 
L 418.568418 194.915852 
L 417.291135 190.958833 
L 416.013852 187.805345 
L 414.736569 185.141704 
L 413.459286 182.81579 
L 410.904719 178.534277 
L 408.350153 174.445733 
L 405.795587 170.989029 
L 403.24102 168.007822 
L 400.686454 165.28839 
L 398.131888 162.381612 
L 395.577321 159.800725 
L 393.022755 157.500036 
L 390.468189 155.360537 
L 387.913622 153.01757 
L 385.359056 150.902829 
L 382.80449 148.993794 
L 380.249923 147.14319 
L 376.418074 144.242749 
L 372.586224 141.733185 
L 370.031658 140.035757 
L 366.199809 137.53076 
L 355.981543 131.55856 
L 352.149694 129.503835 
L 348.317844 127.420034 
L 334.26773 120.560927 
L 330.43588 118.837095 
L 327.881314 117.726807 
L 324.049464 116.014593 
L 307.444783 109.368367 
L 290.840102 103.351249 
L 283.176403 100.792666 
L 265.294439 95.285369 
L 244.857908 89.672486 
L 233.36236 86.803978 
L 228.253227 85.594627 
L 228.253227 85.594627 
" style="fill:none;stroke:#ef9f07;stroke-dasharray:5.55,2.4;stroke-dashoffset:0;stroke-width:1.5;"/>
   </g>
   <g id="line2d_23">
    <path clip-path="url(#pe71a375fdd)" d="M 419.845702 209.24 
L 419.845702 217.744813 
L 418.568418 223.564148 
L 417.291135 227.521167 
L 416.013852 230.674655 
L 414.736569 233.338296 
L 413.459286 235.66421 
L 410.904719 239.945723 
L 408.350153 244.034267 
L 405.795587 247.490971 
L 403.24102 250.472178 
L 400.686454 253.19161 
L 398.131888 256.098388 
L 395.577321 258.679275 
L 393.022755 260.979964 
L 390.468189 263.119463 
L 387.913622 265.46243 
L 385.359056 267.577171 
L 382.80449 269.486206 
L 380.249923 271.33681 
L 376.418074 274.237251 
L 372.586224 276.746815 
L 370.031658 278.444243 
L 366.199809 280.94924 
L 355.981543 286.92144 
L 352.149694 288.976165 
L 348.317844 291.059966 
L 334.26773 297.919073 
L 330.43588 299.642905 
L 327.881314 300.753193 
L 324.049464 302.465407 
L 307.444783 309.111633 
L 290.840102 315.128751 
L 283.176403 317.687334 
L 265.294439 323.194631 
L 244.857908 328.807514 
L 233.36236 331.676022 
L 228.253227 332.885373 
L 228.253227 332.885373 
" style="fill:none;stroke:#ef9f07;stroke-dasharray:5.55,2.4;stroke-dashoffset:0;stroke-width:1.5;"/>
   </g>
   <g id="line2d_24">
    <path clip-path="url(#pe71a375fdd)" d="M 556.515 209.24 
L 390.031716 209.24 
L 390.031716 209.24 
" style="fill:none;stroke:#449775;stroke-dasharray:5.55,2.4;stroke-dashoffset:0;stroke-width:1.5;"/>
   </g>
   <g id="line2d_25">
    <path clip-path="url(#pe71a375fdd)" d="M 389.190906 209.24 
L 83.92023 209.24 
L 83.92023 209.24 
" style="fill:none;stroke:#449775;stroke-linecap:square;stroke-width:1.5;"/>
   </g>
   <g id="line2d_26">
    <path clip-path="url(#pe71a375fdd)" d="M 389.190906 209.24 
L 389.190906 200.351298 
L 387.913622 194.888671 
L 386.636339 190.517942 
L 385.359056 187.108642 
L 384.081773 184.265203 
L 382.80449 181.810841 
L 381.527207 179.649535 
L 378.97264 175.985635 
L 373.863508 168.783768 
L 371.308941 165.869907 
L 366.199809 160.545577 
L 363.645242 157.99212 
L 361.090676 155.762225 
L 358.53611 153.691036 
L 355.981543 151.371739 
L 353.426977 149.320711 
L 343.208712 141.969706 
L 340.654145 140.360873 
L 338.099579 138.574478 
L 335.545013 136.981767 
L 331.713163 134.734321 
L 327.881314 132.423722 
L 312.553916 124.292422 
L 297.226518 117.183064 
L 293.394668 115.533226 
L 289.562819 113.950021 
L 287.008253 112.88754 
L 283.176403 111.361058 
L 280.621837 110.353809 
L 276.789987 108.892934 
L 272.958138 107.431716 
L 260.185306 102.921075 
L 234.639643 94.904214 
L 228.253227 93.104555 
L 228.253227 93.104555 
" style="fill:none;stroke:#449775;stroke-dasharray:5.55,2.4;stroke-dashoffset:0;stroke-width:1.5;"/>
   </g>
   <g id="line2d_27">
    <path clip-path="url(#pe71a375fdd)" d="M 389.190906 209.24 
L 389.190906 218.128702 
L 387.913622 223.591329 
L 386.636339 227.962058 
L 385.359056 231.371358 
L 384.081773 234.214797 
L 382.80449 236.669159 
L 381.527207 238.830465 
L 378.97264 242.494365 
L 373.863508 249.696232 
L 371.308941 252.610093 
L 366.199809 257.934423 
L 363.645242 260.48788 
L 361.090676 262.717775 
L 358.53611 264.788964 
L 355.981543 267.108261 
L 353.426977 269.159289 
L 343.208712 276.510294 
L 340.654145 278.119127 
L 338.099579 279.905522 
L 335.545013 281.498233 
L 331.713163 283.745679 
L 327.881314 286.056278 
L 312.553916 294.187578 
L 297.226518 301.296936 
L 293.394668 302.946774 
L 289.562819 304.529979 
L 287.008253 305.59246 
L 283.176403 307.118942 
L 280.621837 308.126191 
L 276.789987 309.587066 
L 272.958138 311.048284 
L 260.185306 315.558925 
L 234.639643 323.575786 
L 228.253227 325.375445 
L 228.253227 325.375445 
" style="fill:none;stroke:#449775;stroke-dasharray:5.55,2.4;stroke-dashoffset:0;stroke-width:1.5;"/>
   </g>
   <g id="line2d_28">
    <path clip-path="url(#pe71a375fdd)" d="M 556.515 209.24 
L 374.781363 209.24 
L 374.781363 209.24 
" style="fill:none;stroke:#3b7d86;stroke-dasharray:5.55,2.4;stroke-dashoffset:0;stroke-width:1.5;"/>
   </g>
   <g id="line2d_29">
    <path clip-path="url(#pe71a375fdd)" d="M 373.863508 209.24 
L 85.197513 209.24 
L 85.197513 209.24 
" style="fill:none;stroke:#3b7d86;stroke-linecap:square;stroke-width:1.5;"/>
   </g>
   <g id="line2d_30">
    <path clip-path="url(#pe71a375fdd)" d="M 373.863508 209.24 
L 373.863508 198.915057 
L 372.586224 194.742919 
L 371.308941 191.721422 
L 370.031658 189.319091 
L 368.754375 186.154327 
L 367.477092 183.503143 
L 366.199809 181.222676 
L 364.922526 179.227966 
L 363.645242 177.464403 
L 362.367959 175.896015 
L 361.090676 174.495746 
L 359.813393 173.176304 
L 358.53611 171.384101 
L 357.258827 169.758959 
L 355.981543 168.281371 
L 354.70426 166.935649 
L 353.426977 165.709369 
L 352.149694 164.593365 
L 350.872411 163.578319 
L 349.595128 162.38301 
L 348.317844 161.050801 
L 347.040561 159.823185 
L 345.763278 158.693016 
L 344.485995 157.652715 
L 343.208712 156.698275 
L 341.931429 155.824167 
L 340.654145 154.906631 
L 339.376862 153.76385 
L 338.099579 152.703109 
L 336.822296 151.721861 
L 335.545013 150.814732 
L 334.26773 149.979204 
L 332.990446 149.211676 
L 331.713163 148.388916 
L 330.43588 147.389962 
L 329.158597 146.460901 
L 327.881314 145.598721 
L 326.604031 144.800968 
L 325.326747 144.064535 
L 324.049464 143.387806 
L 322.772181 142.558585 
L 321.494898 141.680935 
L 320.217615 140.863674 
L 318.940332 140.105714 
L 317.663048 139.403948 
L 316.385765 138.757414 
L 315.108482 138.091775 
L 313.831199 137.266499 
L 312.553916 136.496548 
L 311.276633 135.781083 
L 309.999349 135.117899 
L 308.722066 134.50597 
L 307.444783 133.918613 
L 306.1675 133.146021 
L 304.890217 132.425897 
L 303.612934 131.755816 
L 302.335651 131.134661 
L 301.058367 130.561314 
L 299.781084 129.991725 
L 298.503801 129.274956 
L 297.226518 128.606087 
L 295.949235 127.984218 
L 294.671952 127.408354 
L 293.394668 126.877316 
L 292.117385 126.283497 
L 290.840102 125.623357 
L 289.562819 125.008136 
L 288.285536 124.436932 
L 287.008253 123.909683 
L 285.730969 123.422259 
L 284.453686 122.777029 
L 283.176403 122.174886 
L 281.89912 121.615082 
L 280.621837 121.097463 
L 279.344554 120.620725 
L 278.06727 120.045607 
L 276.789987 119.461977 
L 275.512704 118.919756 
L 274.235421 118.417607 
L 272.958138 117.954817 
L 271.680855 117.416447 
L 270.403571 116.856519 
L 269.126288 116.335763 
L 267.849005 115.854396 
L 266.571722 115.410803 
L 265.294439 114.88107 
L 264.017156 114.349006 
L 262.739872 113.854561 
L 261.462589 113.398294 
L 260.185306 112.974116 
L 258.908023 112.436305 
L 257.63074 111.935492 
L 256.353457 111.471521 
L 255.076173 111.043739 
L 253.79889 110.583403 
L 252.521607 110.081192 
L 251.244324 109.615201 
L 249.967041 109.184531 
L 248.689758 108.779892 
L 247.412474 108.280912 
L 246.135191 107.817903 
L 244.857908 107.389159 
L 243.580625 106.995143 
L 242.303342 106.528128 
L 241.026059 106.07155 
L 239.748776 105.649515 
L 238.471492 105.260998 
L 237.194209 104.81725 
L 235.916926 104.371917 
L 234.639643 103.959605 
L 233.36236 103.580718 
L 232.085077 103.146786 
L 230.807793 102.715432 
L 229.53051 102.317192 
L 228.253227 101.951445 
L 226.975944 101.515587 
L 225.698661 101.101939 
L 224.421378 100.720691 
L 223.144094 100.34985 
L 221.866811 99.924801 
L 220.589528 99.53178 
L 219.312245 99.170289 
L 218.034962 98.777827 
L 216.757679 98.376481 
" style="fill:none;stroke:#3b7d86;stroke-dasharray:5.55,2.4;stroke-dashoffset:0;stroke-width:1.5;"/>
   </g>
   <g id="line2d_31">
    <path clip-path="url(#pe71a375fdd)" d="M 373.863508 209.24 
L 373.863508 219.564943 
L 372.586224 223.737081 
L 371.308941 226.758578 
L 370.031658 229.160909 
L 368.754375 232.325673 
L 367.477092 234.976857 
L 366.199809 237.257324 
L 364.922526 239.252034 
L 363.645242 241.015597 
L 362.367959 242.583985 
L 361.090676 243.984254 
L 359.813393 245.303696 
L 358.53611 247.095899 
L 357.258827 248.721041 
L 355.981543 250.198629 
L 354.70426 251.544351 
L 353.426977 252.770631 
L 352.149694 253.886635 
L 350.872411 254.901681 
L 349.595128 256.09699 
L 348.317844 257.429199 
L 347.040561 258.656815 
L 345.763278 259.786984 
L 344.485995 260.827285 
L 343.208712 261.781725 
L 341.931429 262.655833 
L 340.654145 263.573369 
L 339.376862 264.71615 
L 338.099579 265.776891 
L 336.822296 266.758139 
L 335.545013 267.665268 
L 334.26773 268.500796 
L 332.990446 269.268324 
L 331.713163 270.091084 
L 330.43588 271.090038 
L 329.158597 272.019099 
L 327.881314 272.881279 
L 326.604031 273.679032 
L 325.326747 274.415465 
L 324.049464 275.092194 
L 322.772181 275.921415 
L 321.494898 276.799065 
L 320.217615 277.616326 
L 318.940332 278.374286 
L 317.663048 279.076052 
L 316.385765 279.722586 
L 315.108482 280.388225 
L 313.831199 281.213501 
L 312.553916 281.983452 
L 311.276633 282.698917 
L 309.999349 283.362101 
L 308.722066 283.97403 
L 307.444783 284.561387 
L 306.1675 285.333979 
L 304.890217 286.054103 
L 303.612934 286.724184 
L 302.335651 287.345339 
L 301.058367 287.918686 
L 299.781084 288.488275 
L 298.503801 289.205044 
L 297.226518 289.873913 
L 295.949235 290.495782 
L 294.671952 291.071646 
L 293.394668 291.602684 
L 292.117385 292.196503 
L 290.840102 292.856643 
L 289.562819 293.471864 
L 288.285536 294.043068 
L 287.008253 294.570317 
L 285.730969 295.057741 
L 284.453686 295.702971 
L 283.176403 296.305114 
L 281.89912 296.864918 
L 280.621837 297.382537 
L 279.344554 297.859275 
L 278.06727 298.434393 
L 276.789987 299.018023 
L 275.512704 299.560244 
L 274.235421 300.062393 
L 272.958138 300.525183 
L 271.680855 301.063553 
L 270.403571 301.623481 
L 269.126288 302.144237 
L 267.849005 302.625604 
L 266.571722 303.069197 
L 265.294439 303.59893 
L 264.017156 304.130994 
L 262.739872 304.625439 
L 261.462589 305.081706 
L 260.185306 305.505884 
L 258.908023 306.043695 
L 257.63074 306.544508 
L 256.353457 307.008479 
L 255.076173 307.436261 
L 253.79889 307.896597 
L 252.521607 308.398808 
L 251.244324 308.864799 
L 249.967041 309.295469 
L 248.689758 309.700108 
L 247.412474 310.199088 
L 246.135191 310.662097 
L 244.857908 311.090841 
L 243.580625 311.484857 
L 242.303342 311.951872 
L 241.026059 312.40845 
L 239.748776 312.830485 
L 238.471492 313.219002 
L 237.194209 313.66275 
L 235.916926 314.108083 
L 234.639643 314.520395 
L 233.36236 314.899282 
L 232.085077 315.333214 
L 230.807793 315.764568 
L 229.53051 316.162808 
L 228.253227 316.528555 
L 226.975944 316.964413 
L 225.698661 317.378061 
L 224.421378 317.759309 
L 223.144094 318.13015 
L 221.866811 318.555199 
L 220.589528 318.94822 
L 219.312245 319.309711 
L 218.034962 319.702173 
L 216.757679 320.103519 
" style="fill:none;stroke:#3b7d86;stroke-dasharray:5.55,2.4;stroke-dashoffset:0;stroke-width:1.5;"/>
   </g>
   <g id="patch_3">
    <path d="M 55.82 379.72 
L 55.82 38.76 
" style="fill:none;stroke:#000000;stroke-linecap:square;stroke-linejoin:miter;stroke-width:0.8;"/>
   </g>
   <g id="patch_4">
    <path d="M 556.515 379.72 
L 556.515 38.76 
" style="fill:none;stroke:#000000;stroke-linecap:square;stroke-linejoin:miter;stroke-width:0.8;"/>
   </g>
   <g id="patch_5">
    <path d="M 55.82 379.72 
L 556.515 379.72 
" style="fill:none;stroke:#000000;stroke-linecap:square;stroke-linejoin:miter;stroke-width:0.8;"/>
   </g>
   <g id="patch_6">
    <path d="M 55.82 38.76 
L 556.515 38.76 
" style="fill:none;stroke:#000000;stroke-linecap:square;stroke-linejoin:miter;stroke-width:0.8;"/>
   </g>
   <g id="text_14">
    <!-- Bifurcation diagram for two coupled neurons, $\gamma=0.4, \beta=0.1, \alpha=2$ -->
    <g transform="translate(38.4875 23.76)scale(0.16 -0.16)">
     <defs>
      <path d="M 19.671875 34.8125 
L 19.671875 8.109375 
L 35.5 8.109375 
Q 43.453125 8.109375 47.28125 11.40625 
Q 51.125 14.703125 51.125 21.484375 
Q 51.125 28.328125 47.28125 31.5625 
Q 43.453125 34.8125 35.5 34.8125 
z
M 19.671875 64.796875 
L 19.671875 42.828125 
L 34.28125 42.828125 
Q 41.5 42.828125 45.03125 45.53125 
Q 48.578125 48.25 48.578125 53.8125 
Q 48.578125 59.328125 45.03125 62.0625 
Q 41.5 64.796875 34.28125 64.796875 
z
M 9.8125 72.90625 
L 35.015625 72.90625 
Q 46.296875 72.90625 52.390625 68.21875 
Q 58.5 63.53125 58.5 54.890625 
Q 58.5 48.1875 55.375 44.234375 
Q 52.25 40.28125 46.1875 39.3125 
Q 53.46875 37.75 57.5 32.78125 
Q 61.53125 27.828125 61.53125 20.40625 
Q 61.53125 10.640625 54.890625 5.3125 
Q 48.25 0 35.984375 0 
L 9.8125 0 
z
" id="DejaVuSans-66"/>
      <path d="M 30.609375 48.390625 
Q 23.390625 48.390625 19.1875 42.75 
Q 14.984375 37.109375 14.984375 27.296875 
Q 14.984375 17.484375 19.15625 11.84375 
Q 23.34375 6.203125 30.609375 6.203125 
Q 37.796875 6.203125 41.984375 11.859375 
Q 46.1875 17.53125 46.1875 27.296875 
Q 46.1875 37.015625 41.984375 42.703125 
Q 37.796875 48.390625 30.609375 48.390625 
z
M 30.609375 56 
Q 42.328125 56 49.015625 48.375 
Q 55.71875 40.765625 55.71875 27.296875 
Q 55.71875 13.875 49.015625 6.21875 
Q 42.328125 -1.421875 30.609375 -1.421875 
Q 18.84375 -1.421875 12.171875 6.21875 
Q 5.515625 13.875 5.515625 27.296875 
Q 5.515625 40.765625 12.171875 48.375 
Q 18.84375 56 30.609375 56 
z
" id="DejaVuSans-111"/>
      <path d="M 45.40625 46.390625 
L 45.40625 75.984375 
L 54.390625 75.984375 
L 54.390625 0 
L 45.40625 0 
L 45.40625 8.203125 
Q 42.578125 3.328125 38.25 0.953125 
Q 33.9375 -1.421875 27.875 -1.421875 
Q 17.96875 -1.421875 11.734375 6.484375 
Q 5.515625 14.40625 5.515625 27.296875 
Q 5.515625 40.1875 11.734375 48.09375 
Q 17.96875 56 27.875 56 
Q 33.9375 56 38.25 53.625 
Q 42.578125 51.265625 45.40625 46.390625 
z
M 14.796875 27.296875 
Q 14.796875 17.390625 18.875 11.75 
Q 22.953125 6.109375 30.078125 6.109375 
Q 37.203125 6.109375 41.296875 11.75 
Q 45.40625 17.390625 45.40625 27.296875 
Q 45.40625 37.203125 41.296875 42.84375 
Q 37.203125 48.484375 30.078125 48.484375 
Q 22.953125 48.484375 18.875 42.84375 
Q 14.796875 37.203125 14.796875 27.296875 
z
" id="DejaVuSans-100"/>
      <path d="M 45.40625 27.984375 
Q 45.40625 37.75 41.375 43.109375 
Q 37.359375 48.484375 30.078125 48.484375 
Q 22.859375 48.484375 18.828125 43.109375 
Q 14.796875 37.75 14.796875 27.984375 
Q 14.796875 18.265625 18.828125 12.890625 
Q 22.859375 7.515625 30.078125 7.515625 
Q 37.359375 7.515625 41.375 12.890625 
Q 45.40625 18.265625 45.40625 27.984375 
z
M 54.390625 6.78125 
Q 54.390625 -7.171875 48.1875 -13.984375 
Q 42 -20.796875 29.203125 -20.796875 
Q 24.46875 -20.796875 20.265625 -20.09375 
Q 16.0625 -19.390625 12.109375 -17.921875 
L 12.109375 -9.1875 
Q 16.0625 -11.328125 19.921875 -12.34375 
Q 23.78125 -13.375 27.78125 -13.375 
Q 36.625 -13.375 41.015625 -8.765625 
Q 45.40625 -4.15625 45.40625 5.171875 
L 45.40625 9.625 
Q 42.625 4.78125 38.28125 2.390625 
Q 33.9375 0 27.875 0 
Q 17.828125 0 11.671875 7.65625 
Q 5.515625 15.328125 5.515625 27.984375 
Q 5.515625 40.671875 11.671875 48.328125 
Q 17.828125 56 27.875 56 
Q 33.9375 56 38.28125 53.609375 
Q 42.625 51.21875 45.40625 46.390625 
L 45.40625 54.6875 
L 54.390625 54.6875 
z
" id="DejaVuSans-103"/>
      <path d="M 52 44.1875 
Q 55.375 50.25 60.0625 53.125 
Q 64.75 56 71.09375 56 
Q 79.640625 56 84.28125 50.015625 
Q 88.921875 44.046875 88.921875 33.015625 
L 88.921875 0 
L 79.890625 0 
L 79.890625 32.71875 
Q 79.890625 40.578125 77.09375 44.375 
Q 74.3125 48.1875 68.609375 48.1875 
Q 61.625 48.1875 57.5625 43.546875 
Q 53.515625 38.921875 53.515625 30.90625 
L 53.515625 0 
L 44.484375 0 
L 44.484375 32.71875 
Q 44.484375 40.625 41.703125 44.40625 
Q 38.921875 48.1875 33.109375 48.1875 
Q 26.21875 48.1875 22.15625 43.53125 
Q 18.109375 38.875 18.109375 30.90625 
L 18.109375 0 
L 9.078125 0 
L 9.078125 54.6875 
L 18.109375 54.6875 
L 18.109375 46.1875 
Q 21.1875 51.21875 25.484375 53.609375 
Q 29.78125 56 35.6875 56 
Q 41.65625 56 45.828125 52.96875 
Q 50 49.953125 52 44.1875 
z
" id="DejaVuSans-109"/>
      <path d="M 4.203125 54.6875 
L 13.1875 54.6875 
L 24.421875 12.015625 
L 35.59375 54.6875 
L 46.1875 54.6875 
L 57.421875 12.015625 
L 68.609375 54.6875 
L 77.59375 54.6875 
L 63.28125 0 
L 52.6875 0 
L 40.921875 44.828125 
L 29.109375 0 
L 18.5 0 
z
" id="DejaVuSans-119"/>
      <path d="M 18.109375 8.203125 
L 18.109375 -20.796875 
L 9.078125 -20.796875 
L 9.078125 54.6875 
L 18.109375 54.6875 
L 18.109375 46.390625 
Q 20.953125 51.265625 25.265625 53.625 
Q 29.59375 56 35.59375 56 
Q 45.5625 56 51.78125 48.09375 
Q 58.015625 40.1875 58.015625 27.296875 
Q 58.015625 14.40625 51.78125 6.484375 
Q 45.5625 -1.421875 35.59375 -1.421875 
Q 29.59375 -1.421875 25.265625 0.953125 
Q 20.953125 3.328125 18.109375 8.203125 
z
M 48.6875 27.296875 
Q 48.6875 37.203125 44.609375 42.84375 
Q 40.53125 48.484375 33.40625 48.484375 
Q 26.265625 48.484375 22.1875 42.84375 
Q 18.109375 37.203125 18.109375 27.296875 
Q 18.109375 17.390625 22.1875 11.75 
Q 26.265625 6.109375 33.40625 6.109375 
Q 40.53125 6.109375 44.609375 11.75 
Q 48.6875 17.390625 48.6875 27.296875 
z
" id="DejaVuSans-112"/>
      <path d="M 9.421875 75.984375 
L 18.40625 75.984375 
L 18.40625 0 
L 9.421875 0 
z
" id="DejaVuSans-108"/>
      <path d="M 11.71875 12.40625 
L 22.015625 12.40625 
L 22.015625 4 
L 14.015625 -11.625 
L 7.71875 -11.625 
L 11.71875 4 
z
" id="DejaVuSans-44"/>
      <path d="M 23.296875 46.09375 
L 28.71875 12.3125 
L 54 54.6875 
L 63.53125 54.6875 
L 30.8125 0 
L 26.765625 -20.796875 
L 17.78125 -20.796875 
L 21.828125 0 
L 15.4375 40.828125 
Q 14.453125 46.96875 9.8125 46.96875 
L 7.421875 46.96875 
L 8.890625 54.6875 
L 12.3125 54.6875 
Q 21.921875 54.6875 23.296875 46.09375 
z
" id="DejaVuSans-Oblique-947"/>
      <path d="M 10.59375 45.40625 
L 73.1875 45.40625 
L 73.1875 37.203125 
L 10.59375 37.203125 
z
M 10.59375 25.484375 
L 73.1875 25.484375 
L 73.1875 17.1875 
L 10.59375 17.1875 
z
" id="DejaVuSans-61"/>
      <path d="M 13.625 3.375 
L 8.9375 -20.796875 
L -0.09375 -20.796875 
L 14.5 54.34375 
Q 18.84375 76.609375 39.65625 76.609375 
Q 60.75 76.609375 57.171875 57.8125 
Q 54.734375 44.4375 45.21875 39.546875 
Q 58.015625 35.15625 55.515625 22.125 
Q 51.125 -1.078125 27.484375 -1.03125 
Q 17.140625 -0.984375 13.625 3.375 
z
M 15.921875 15.09375 
Q 19.671875 6.59375 29.296875 6.640625 
Q 43.359375 6.640625 46.34375 21.96875 
Q 49.03125 35.75 26.171875 34.671875 
L 27.78125 42.96875 
Q 45.453125 42.671875 48.53125 58.59375 
Q 50.640625 69.34375 39.203125 69.28125 
Q 26.421875 69.28125 23.484375 54.046875 
z
" id="DejaVuSans-Oblique-946"/>
      <path d="M 40.921875 25.4375 
L 40.96875 36.71875 
Q 41.015625 48.25 32.328125 48.296875 
Q 25.828125 48.34375 21.78125 42.921875 
Q 16.703125 36.234375 14.984375 27.296875 
Q 12.890625 16.546875 15.53125 11.421875 
Q 18.265625 6.203125 24.171875 6.203125 
Q 30.71875 6.203125 36.234375 16.609375 
z
M 33.84375 55.90625 
Q 49.078125 56.15625 48.875 40.375 
Q 48.875 40.375 56.5 54.6875 
L 64.5 54.6875 
L 48.734375 25.046875 
L 48.578125 14.359375 
Q 48.578125 11.96875 49.90625 9.96875 
Q 51.421875 7.625 52.984375 7.625 
L 57.328125 7.625 
L 55.859375 0 
L 50.4375 0 
Q 45.84375 0 42.53125 4.109375 
Q 40.96875 6.15625 40.921875 10.453125 
Q 37.75 5.21875 32.28125 0.78125 
Q 29.6875 -1.265625 22.703125 -1.21875 
Q 11.28125 -1.125 7.125 6.203125 
Q 2.875 13.8125 5.515625 27.296875 
Q 8.34375 41.796875 15.765625 48.390625 
Q 24.125 55.765625 33.84375 55.90625 
z
" id="DejaVuSans-Oblique-945"/>
     </defs>
     <use transform="translate(0 0.390625)" xlink:href="#DejaVuSans-66"/>
     <use transform="translate(68.603516 0.390625)" xlink:href="#DejaVuSans-105"/>
     <use transform="translate(96.386719 0.390625)" xlink:href="#DejaVuSans-102"/>
     <use transform="translate(131.591797 0.390625)" xlink:href="#DejaVuSans-117"/>
     <use transform="translate(194.970703 0.390625)" xlink:href="#DejaVuSans-114"/>
     <use transform="translate(236.083984 0.390625)" xlink:href="#DejaVuSans-99"/>
     <use transform="translate(291.064453 0.390625)" xlink:href="#DejaVuSans-97"/>
     <use transform="translate(352.34375 0.390625)" xlink:href="#DejaVuSans-116"/>
     <use transform="translate(391.552734 0.390625)" xlink:href="#DejaVuSans-105"/>
     <use transform="translate(419.335938 0.390625)" xlink:href="#DejaVuSans-111"/>
     <use transform="translate(480.517578 0.390625)" xlink:href="#DejaVuSans-110"/>
     <use transform="translate(543.896484 0.390625)" xlink:href="#DejaVuSans-32"/>
     <use transform="translate(575.683594 0.390625)" xlink:href="#DejaVuSans-100"/>
     <use transform="translate(639.160156 0.390625)" xlink:href="#DejaVuSans-105"/>
     <use transform="translate(666.943359 0.390625)" xlink:href="#DejaVuSans-97"/>
     <use transform="translate(728.222656 0.390625)" xlink:href="#DejaVuSans-103"/>
     <use transform="translate(791.699219 0.390625)" xlink:href="#DejaVuSans-114"/>
     <use transform="translate(832.8125 0.390625)" xlink:href="#DejaVuSans-97"/>
     <use transform="translate(894.091797 0.390625)" xlink:href="#DejaVuSans-109"/>
     <use transform="translate(991.503906 0.390625)" xlink:href="#DejaVuSans-32"/>
     <use transform="translate(1023.291016 0.390625)" xlink:href="#DejaVuSans-102"/>
     <use transform="translate(1058.496094 0.390625)" xlink:href="#DejaVuSans-111"/>
     <use transform="translate(1119.677734 0.390625)" xlink:href="#DejaVuSans-114"/>
     <use transform="translate(1160.791016 0.390625)" xlink:href="#DejaVuSans-32"/>
     <use transform="translate(1192.578125 0.390625)" xlink:href="#DejaVuSans-116"/>
     <use transform="translate(1231.787109 0.390625)" xlink:href="#DejaVuSans-119"/>
     <use transform="translate(1313.574219 0.390625)" xlink:href="#DejaVuSans-111"/>
     <use transform="translate(1374.755859 0.390625)" xlink:href="#DejaVuSans-32"/>
     <use transform="translate(1406.542969 0.390625)" xlink:href="#DejaVuSans-99"/>
     <use transform="translate(1461.523438 0.390625)" xlink:href="#DejaVuSans-111"/>
     <use transform="translate(1522.705078 0.390625)" xlink:href="#DejaVuSans-117"/>
     <use transform="translate(1586.083984 0.390625)" xlink:href="#DejaVuSans-112"/>
     <use transform="translate(1649.560547 0.390625)" xlink:href="#DejaVuSans-108"/>
     <use transform="translate(1677.34375 0.390625)" xlink:href="#DejaVuSans-101"/>
     <use transform="translate(1738.867188 0.390625)" xlink:href="#DejaVuSans-100"/>
     <use transform="translate(1802.34375 0.390625)" xlink:href="#DejaVuSans-32"/>
     <use transform="translate(1834.130859 0.390625)" xlink:href="#DejaVuSans-110"/>
     <use transform="translate(1897.509766 0.390625)" xlink:href="#DejaVuSans-101"/>
     <use transform="translate(1959.033203 0.390625)" xlink:href="#DejaVuSans-117"/>
     <use transform="translate(2022.412109 0.390625)" xlink:href="#DejaVuSans-114"/>
     <use transform="translate(2063.525391 0.390625)" xlink:href="#DejaVuSans-111"/>
     <use transform="translate(2124.707031 0.390625)" xlink:href="#DejaVuSans-110"/>
     <use transform="translate(2188.085938 0.390625)" xlink:href="#DejaVuSans-115"/>
     <use transform="translate(2240.185547 0.390625)" xlink:href="#DejaVuSans-44"/>
     <use transform="translate(2271.972656 0.390625)" xlink:href="#DejaVuSans-32"/>
     <use transform="translate(2303.759766 0.390625)" xlink:href="#DejaVuSans-Oblique-947"/>
     <use transform="translate(2382.421875 0.390625)" xlink:href="#DejaVuSans-61"/>
     <use transform="translate(2485.693359 0.390625)" xlink:href="#DejaVuSans-48"/>
     <use transform="translate(2549.316406 0.390625)" xlink:href="#DejaVuSans-46"/>
     <use transform="translate(2581.103516 0.390625)" xlink:href="#DejaVuSans-52"/>
     <use transform="translate(2644.726562 0.390625)" xlink:href="#DejaVuSans-44"/>
     <use transform="translate(2695.996094 0.390625)" xlink:href="#DejaVuSans-Oblique-946"/>
     <use transform="translate(2779.296875 0.390625)" xlink:href="#DejaVuSans-61"/>
     <use transform="translate(2882.568359 0.390625)" xlink:href="#DejaVuSans-48"/>
     <use transform="translate(2946.191406 0.390625)" xlink:href="#DejaVuSans-46"/>
     <use transform="translate(2977.978516 0.390625)" xlink:href="#DejaVuSans-49"/>
     <use transform="translate(3041.601562 0.390625)" xlink:href="#DejaVuSans-44"/>
     <use transform="translate(3092.871094 0.390625)" xlink:href="#DejaVuSans-Oblique-945"/>
     <use transform="translate(3178.271484 0.390625)" xlink:href="#DejaVuSans-61"/>
     <use transform="translate(3281.542969 0.390625)" xlink:href="#DejaVuSans-50"/>
    </g>
   </g>
   <g id="legend_1">
    <g id="patch_7">
     <path d="M 471.595 145.337688 
L 548.815 145.337688 
Q 551.015 145.337688 551.015 143.137688 
L 551.015 63.508 
Q 551.015 61.308 548.815 61.308 
L 471.595 61.308 
Q 469.395 61.308 469.395 63.508 
L 469.395 143.137688 
Q 469.395 145.337688 471.595 145.337688 
z
" style="fill:#ffffff;opacity:0.8;stroke:#cccccc;stroke-linejoin:miter;"/>
    </g>
    <g id="line2d_32">
     <path d="M 473.795 70.216281 
L 495.795 70.216281 
" style="fill:none;stroke:#aa3863;stroke-dasharray:5.55,2.4;stroke-dashoffset:0;stroke-width:1.5;"/>
    </g>
    <g id="line2d_33"/>
    <g id="text_15">
     <!-- $r = 0$ -->
     <g transform="translate(504.595 74.066281)scale(0.11 -0.11)">
      <defs>
       <path d="M 44.578125 46.390625 
Q 43.21875 47.125 41.453125 47.515625 
Q 39.703125 47.90625 37.703125 47.90625 
Q 30.515625 47.90625 25.140625 42.453125 
Q 19.78125 37.015625 18.015625 27.875 
L 12.5 0 
L 3.515625 0 
L 14.203125 54.6875 
L 23.1875 54.6875 
L 21.484375 46.1875 
Q 25.046875 50.921875 30 53.453125 
Q 34.96875 56 40.578125 56 
Q 42.046875 56 43.453125 55.828125 
Q 44.875 55.671875 46.296875 55.28125 
z
" id="DejaVuSans-Oblique-114"/>
      </defs>
      <use transform="translate(0 0.78125)" xlink:href="#DejaVuSans-Oblique-114"/>
      <use transform="translate(60.595703 0.78125)" xlink:href="#DejaVuSans-61"/>
      <use transform="translate(163.867188 0.78125)" xlink:href="#DejaVuSans-48"/>
     </g>
    </g>
    <g id="line2d_34">
     <path d="M 473.795 86.362219 
L 495.795 86.362219 
" style="fill:none;stroke:#d97020;stroke-dasharray:5.55,2.4;stroke-dashoffset:0;stroke-width:1.5;"/>
    </g>
    <g id="line2d_35"/>
    <g id="text_16">
     <!-- $r = 0.25$ -->
     <g transform="translate(504.595 90.212219)scale(0.11 -0.11)">
      <defs>
       <path d="M 10.796875 72.90625 
L 49.515625 72.90625 
L 49.515625 64.59375 
L 19.828125 64.59375 
L 19.828125 46.734375 
Q 21.96875 47.46875 24.109375 47.828125 
Q 26.265625 48.1875 28.421875 48.1875 
Q 40.625 48.1875 47.75 41.5 
Q 54.890625 34.8125 54.890625 23.390625 
Q 54.890625 11.625 47.5625 5.09375 
Q 40.234375 -1.421875 26.90625 -1.421875 
Q 22.3125 -1.421875 17.546875 -0.640625 
Q 12.796875 0.140625 7.71875 1.703125 
L 7.71875 11.625 
Q 12.109375 9.234375 16.796875 8.0625 
Q 21.484375 6.890625 26.703125 6.890625 
Q 35.15625 6.890625 40.078125 11.328125 
Q 45.015625 15.765625 45.015625 23.390625 
Q 45.015625 31 40.078125 35.4375 
Q 35.15625 39.890625 26.703125 39.890625 
Q 22.75 39.890625 18.8125 39.015625 
Q 14.890625 38.140625 10.796875 36.28125 
z
" id="DejaVuSans-53"/>
      </defs>
      <use transform="translate(0 0.78125)" xlink:href="#DejaVuSans-Oblique-114"/>
      <use transform="translate(60.595703 0.78125)" xlink:href="#DejaVuSans-61"/>
      <use transform="translate(163.867188 0.78125)" xlink:href="#DejaVuSans-48"/>
      <use transform="translate(227.490234 0.78125)" xlink:href="#DejaVuSans-46"/>
      <use transform="translate(253.777344 0.78125)" xlink:href="#DejaVuSans-50"/>
      <use transform="translate(317.400391 0.78125)" xlink:href="#DejaVuSans-53"/>
     </g>
    </g>
    <g id="line2d_36">
     <path d="M 473.795 102.508156 
L 495.795 102.508156 
" style="fill:none;stroke:#ef9f07;stroke-dasharray:5.55,2.4;stroke-dashoffset:0;stroke-width:1.5;"/>
    </g>
    <g id="line2d_37"/>
    <g id="text_17">
     <!-- $r = 0.5$ -->
     <g transform="translate(504.595 106.358156)scale(0.11 -0.11)">
      <use transform="translate(0 0.78125)" xlink:href="#DejaVuSans-Oblique-114"/>
      <use transform="translate(60.595703 0.78125)" xlink:href="#DejaVuSans-61"/>
      <use transform="translate(163.867188 0.78125)" xlink:href="#DejaVuSans-48"/>
      <use transform="translate(227.490234 0.78125)" xlink:href="#DejaVuSans-46"/>
      <use transform="translate(259.277344 0.78125)" xlink:href="#DejaVuSans-53"/>
     </g>
    </g>
    <g id="line2d_38">
     <path d="M 473.795 118.654094 
L 495.795 118.654094 
" style="fill:none;stroke:#449775;stroke-dasharray:5.55,2.4;stroke-dashoffset:0;stroke-width:1.5;"/>
    </g>
    <g id="line2d_39"/>
    <g id="text_18">
     <!-- $r = 0.75$ -->
     <g transform="translate(504.595 122.504094)scale(0.11 -0.11)">
      <defs>
       <path d="M 8.203125 72.90625 
L 55.078125 72.90625 
L 55.078125 68.703125 
L 28.609375 0 
L 18.3125 0 
L 43.21875 64.59375 
L 8.203125 64.59375 
z
" id="DejaVuSans-55"/>
      </defs>
      <use transform="translate(0 0.78125)" xlink:href="#DejaVuSans-Oblique-114"/>
      <use transform="translate(60.595703 0.78125)" xlink:href="#DejaVuSans-61"/>
      <use transform="translate(163.867188 0.78125)" xlink:href="#DejaVuSans-48"/>
      <use transform="translate(227.490234 0.78125)" xlink:href="#DejaVuSans-46"/>
      <use transform="translate(251.527344 0.78125)" xlink:href="#DejaVuSans-55"/>
      <use transform="translate(315.150391 0.78125)" xlink:href="#DejaVuSans-53"/>
     </g>
    </g>
    <g id="line2d_40">
     <path d="M 473.795 134.800031 
L 495.795 134.800031 
" style="fill:none;stroke:#3b7d86;stroke-dasharray:5.55,2.4;stroke-dashoffset:0;stroke-width:1.5;"/>
    </g>
    <g id="line2d_41"/>
    <g id="text_19">
     <!-- $r = 1$ -->
     <g transform="translate(504.595 138.650031)scale(0.11 -0.11)">
      <use transform="translate(0 0.09375)" xlink:href="#DejaVuSans-Oblique-114"/>
      <use transform="translate(60.595703 0.09375)" xlink:href="#DejaVuSans-61"/>
      <use transform="translate(163.867188 0.09375)" xlink:href="#DejaVuSans-49"/>
     </g>
    </g>
   </g>
  </g>
 </g>
 <defs>
  <clipPath id="pe71a375fdd">
   <rect height="340.96" width="500.695" x="55.82" y="38.76"/>
  </clipPath>
 </defs>
</svg>
