<?xml version="1.0" encoding="utf-8" standalone="no"?>
<!DOCTYPE svg PUBLIC "-//W3C//DTD SVG 1.1//EN"
  "http://www.w3.org/Graphics/SVG/1.1/DTD/svg11.dtd">
<!-- Created with matplotlib (https://matplotlib.org/) -->
<svg height="432pt" version="1.1" viewBox="0 0 1152 432" width="1152pt" xmlns="http://www.w3.org/2000/svg" xmlns:xlink="http://www.w3.org/1999/xlink">
 <metadata>
  <rdf:RDF xmlns:cc="http://creativecommons.org/ns#" xmlns:dc="http://purl.org/dc/elements/1.1/" xmlns:rdf="http://www.w3.org/1999/02/22-rdf-syntax-ns#">
   <cc:Work>
    <dc:type rdf:resource="http://purl.org/dc/dcmitype/StillImage"/>
    <dc:date>2021-08-23T04:23:41.990530</dc:date>
    <dc:format>image/svg+xml</dc:format>
    <dc:creator>
     <cc:Agent>
      <dc:title>Matplotlib v3.3.3, https://matplotlib.org/</dc:title>
     </cc:Agent>
    </dc:creator>
   </cc:Work>
  </rdf:RDF>
 </metadata>
 <defs>
  <style type="text/css">*{stroke-linecap:butt;stroke-linejoin:round;}</style>
 </defs>
 <g id="figure_1">
  <g id="patch_1">
   <path d="M 0 432 
L 1152 432 
L 1152 0 
L 0 0 
z
" style="fill:#ffffff;"/>
  </g>
  <g id="axes_1">
   <g id="patch_2">
    <path d="M 57.645625 205.981406 
L 592.272812 205.981406 
L 592.272812 42.819844 
L 57.645625 42.819844 
z
" style="fill:#ffffff;"/>
   </g>
   <g id="matplotlib.axis_1">
    <g id="xtick_1">
     <g id="line2d_1">
      <defs>
       <path d="M 0 0 
L 0 3.5 
" id="me41714d98d" style="stroke:#000000;stroke-width:0.8;"/>
      </defs>
      <g>
       <use style="stroke:#000000;stroke-width:0.8;" x="81.946861" xlink:href="#me41714d98d" y="205.981406"/>
      </g>
     </g>
    </g>
    <g id="xtick_2">
     <g id="line2d_2">
      <g>
       <use style="stroke:#000000;stroke-width:0.8;" x="179.151804" xlink:href="#me41714d98d" y="205.981406"/>
      </g>
     </g>
    </g>
    <g id="xtick_3">
     <g id="line2d_3">
      <g>
       <use style="stroke:#000000;stroke-width:0.8;" x="276.356747" xlink:href="#me41714d98d" y="205.981406"/>
      </g>
     </g>
    </g>
    <g id="xtick_4">
     <g id="line2d_4">
      <g>
       <use style="stroke:#000000;stroke-width:0.8;" x="373.56169" xlink:href="#me41714d98d" y="205.981406"/>
      </g>
     </g>
    </g>
    <g id="xtick_5">
     <g id="line2d_5">
      <g>
       <use style="stroke:#000000;stroke-width:0.8;" x="470.766634" xlink:href="#me41714d98d" y="205.981406"/>
      </g>
     </g>
    </g>
    <g id="xtick_6">
     <g id="line2d_6">
      <g>
       <use style="stroke:#000000;stroke-width:0.8;" x="567.971577" xlink:href="#me41714d98d" y="205.981406"/>
      </g>
     </g>
    </g>
   </g>
   <g id="matplotlib.axis_2">
    <g id="ytick_1">
     <g id="line2d_7">
      <defs>
       <path d="M 0 0 
L -3.5 0 
" id="m9a041d459e" style="stroke:#000000;stroke-width:0.8;"/>
      </defs>
      <g>
       <use style="stroke:#000000;stroke-width:0.8;" x="57.645625" xlink:href="#m9a041d459e" y="205.981406"/>
      </g>
     </g>
     <g id="text_1">
      <!-- 0.0 -->
      <g transform="translate(34.7425 209.780625)scale(0.1 -0.1)">
       <defs>
        <path d="M 31.78125 66.40625 
Q 24.171875 66.40625 20.328125 58.90625 
Q 16.5 51.421875 16.5 36.375 
Q 16.5 21.390625 20.328125 13.890625 
Q 24.171875 6.390625 31.78125 6.390625 
Q 39.453125 6.390625 43.28125 13.890625 
Q 47.125 21.390625 47.125 36.375 
Q 47.125 51.421875 43.28125 58.90625 
Q 39.453125 66.40625 31.78125 66.40625 
z
M 31.78125 74.21875 
Q 44.046875 74.21875 50.515625 64.515625 
Q 56.984375 54.828125 56.984375 36.375 
Q 56.984375 17.96875 50.515625 8.265625 
Q 44.046875 -1.421875 31.78125 -1.421875 
Q 19.53125 -1.421875 13.0625 8.265625 
Q 6.59375 17.96875 6.59375 36.375 
Q 6.59375 54.828125 13.0625 64.515625 
Q 19.53125 74.21875 31.78125 74.21875 
z
" id="DejaVuSans-48"/>
        <path d="M 10.6875 12.40625 
L 21 12.40625 
L 21 0 
L 10.6875 0 
z
" id="DejaVuSans-46"/>
       </defs>
       <use xlink:href="#DejaVuSans-48"/>
       <use x="63.623047" xlink:href="#DejaVuSans-46"/>
       <use x="95.410156" xlink:href="#DejaVuSans-48"/>
      </g>
     </g>
    </g>
    <g id="ytick_2">
     <g id="line2d_8">
      <g>
       <use style="stroke:#000000;stroke-width:0.8;" x="57.645625" xlink:href="#m9a041d459e" y="185.586211"/>
      </g>
     </g>
     <g id="text_2">
      <!-- 2.5 -->
      <g transform="translate(34.7425 189.38543)scale(0.1 -0.1)">
       <defs>
        <path d="M 19.1875 8.296875 
L 53.609375 8.296875 
L 53.609375 0 
L 7.328125 0 
L 7.328125 8.296875 
Q 12.9375 14.109375 22.625 23.890625 
Q 32.328125 33.6875 34.8125 36.53125 
Q 39.546875 41.84375 41.421875 45.53125 
Q 43.3125 49.21875 43.3125 52.78125 
Q 43.3125 58.59375 39.234375 62.25 
Q 35.15625 65.921875 28.609375 65.921875 
Q 23.96875 65.921875 18.8125 64.3125 
Q 13.671875 62.703125 7.8125 59.421875 
L 7.8125 69.390625 
Q 13.765625 71.78125 18.9375 73 
Q 24.125 74.21875 28.421875 74.21875 
Q 39.75 74.21875 46.484375 68.546875 
Q 53.21875 62.890625 53.21875 53.421875 
Q 53.21875 48.921875 51.53125 44.890625 
Q 49.859375 40.875 45.40625 35.40625 
Q 44.1875 33.984375 37.640625 27.21875 
Q 31.109375 20.453125 19.1875 8.296875 
z
" id="DejaVuSans-50"/>
        <path d="M 10.796875 72.90625 
L 49.515625 72.90625 
L 49.515625 64.59375 
L 19.828125 64.59375 
L 19.828125 46.734375 
Q 21.96875 47.46875 24.109375 47.828125 
Q 26.265625 48.1875 28.421875 48.1875 
Q 40.625 48.1875 47.75 41.5 
Q 54.890625 34.8125 54.890625 23.390625 
Q 54.890625 11.625 47.5625 5.09375 
Q 40.234375 -1.421875 26.90625 -1.421875 
Q 22.3125 -1.421875 17.546875 -0.640625 
Q 12.796875 0.140625 7.71875 1.703125 
L 7.71875 11.625 
Q 12.109375 9.234375 16.796875 8.0625 
Q 21.484375 6.890625 26.703125 6.890625 
Q 35.15625 6.890625 40.078125 11.328125 
Q 45.015625 15.765625 45.015625 23.390625 
Q 45.015625 31 40.078125 35.4375 
Q 35.15625 39.890625 26.703125 39.890625 
Q 22.75 39.890625 18.8125 39.015625 
Q 14.890625 38.140625 10.796875 36.28125 
z
" id="DejaVuSans-53"/>
       </defs>
       <use xlink:href="#DejaVuSans-50"/>
       <use x="63.623047" xlink:href="#DejaVuSans-46"/>
       <use x="95.410156" xlink:href="#DejaVuSans-53"/>
      </g>
     </g>
    </g>
    <g id="ytick_3">
     <g id="line2d_9">
      <g>
       <use style="stroke:#000000;stroke-width:0.8;" x="57.645625" xlink:href="#m9a041d459e" y="165.191016"/>
      </g>
     </g>
     <g id="text_3">
      <!-- 5.0 -->
      <g transform="translate(34.7425 168.990234)scale(0.1 -0.1)">
       <use xlink:href="#DejaVuSans-53"/>
       <use x="63.623047" xlink:href="#DejaVuSans-46"/>
       <use x="95.410156" xlink:href="#DejaVuSans-48"/>
      </g>
     </g>
    </g>
    <g id="ytick_4">
     <g id="line2d_10">
      <g>
       <use style="stroke:#000000;stroke-width:0.8;" x="57.645625" xlink:href="#m9a041d459e" y="144.79582"/>
      </g>
     </g>
     <g id="text_4">
      <!-- 7.5 -->
      <g transform="translate(34.7425 148.595039)scale(0.1 -0.1)">
       <defs>
        <path d="M 8.203125 72.90625 
L 55.078125 72.90625 
L 55.078125 68.703125 
L 28.609375 0 
L 18.3125 0 
L 43.21875 64.59375 
L 8.203125 64.59375 
z
" id="DejaVuSans-55"/>
       </defs>
       <use xlink:href="#DejaVuSans-55"/>
       <use x="63.623047" xlink:href="#DejaVuSans-46"/>
       <use x="95.410156" xlink:href="#DejaVuSans-53"/>
      </g>
     </g>
    </g>
    <g id="ytick_5">
     <g id="line2d_11">
      <g>
       <use style="stroke:#000000;stroke-width:0.8;" x="57.645625" xlink:href="#m9a041d459e" y="124.400625"/>
      </g>
     </g>
     <g id="text_5">
      <!-- 10.0 -->
      <g transform="translate(28.38 128.199844)scale(0.1 -0.1)">
       <defs>
        <path d="M 12.40625 8.296875 
L 28.515625 8.296875 
L 28.515625 63.921875 
L 10.984375 60.40625 
L 10.984375 69.390625 
L 28.421875 72.90625 
L 38.28125 72.90625 
L 38.28125 8.296875 
L 54.390625 8.296875 
L 54.390625 0 
L 12.40625 0 
z
" id="DejaVuSans-49"/>
       </defs>
       <use xlink:href="#DejaVuSans-49"/>
       <use x="63.623047" xlink:href="#DejaVuSans-48"/>
       <use x="127.246094" xlink:href="#DejaVuSans-46"/>
       <use x="159.033203" xlink:href="#DejaVuSans-48"/>
      </g>
     </g>
    </g>
    <g id="ytick_6">
     <g id="line2d_12">
      <g>
       <use style="stroke:#000000;stroke-width:0.8;" x="57.645625" xlink:href="#m9a041d459e" y="104.00543"/>
      </g>
     </g>
     <g id="text_6">
      <!-- 12.5 -->
      <g transform="translate(28.38 107.804648)scale(0.1 -0.1)">
       <use xlink:href="#DejaVuSans-49"/>
       <use x="63.623047" xlink:href="#DejaVuSans-50"/>
       <use x="127.246094" xlink:href="#DejaVuSans-46"/>
       <use x="159.033203" xlink:href="#DejaVuSans-53"/>
      </g>
     </g>
    </g>
    <g id="ytick_7">
     <g id="line2d_13">
      <g>
       <use style="stroke:#000000;stroke-width:0.8;" x="57.645625" xlink:href="#m9a041d459e" y="83.610234"/>
      </g>
     </g>
     <g id="text_7">
      <!-- 15.0 -->
      <g transform="translate(28.38 87.409453)scale(0.1 -0.1)">
       <use xlink:href="#DejaVuSans-49"/>
       <use x="63.623047" xlink:href="#DejaVuSans-53"/>
       <use x="127.246094" xlink:href="#DejaVuSans-46"/>
       <use x="159.033203" xlink:href="#DejaVuSans-48"/>
      </g>
     </g>
    </g>
    <g id="ytick_8">
     <g id="line2d_14">
      <g>
       <use style="stroke:#000000;stroke-width:0.8;" x="57.645625" xlink:href="#m9a041d459e" y="63.215039"/>
      </g>
     </g>
     <g id="text_8">
      <!-- 17.5 -->
      <g transform="translate(28.38 67.014258)scale(0.1 -0.1)">
       <use xlink:href="#DejaVuSans-49"/>
       <use x="63.623047" xlink:href="#DejaVuSans-55"/>
       <use x="127.246094" xlink:href="#DejaVuSans-46"/>
       <use x="159.033203" xlink:href="#DejaVuSans-53"/>
      </g>
     </g>
    </g>
    <g id="ytick_9">
     <g id="line2d_15">
      <g>
       <use style="stroke:#000000;stroke-width:0.8;" x="57.645625" xlink:href="#m9a041d459e" y="42.819844"/>
      </g>
     </g>
     <g id="text_9">
      <!-- 20.0 -->
      <g transform="translate(28.38 46.619063)scale(0.1 -0.1)">
       <use xlink:href="#DejaVuSans-50"/>
       <use x="63.623047" xlink:href="#DejaVuSans-48"/>
       <use x="127.246094" xlink:href="#DejaVuSans-46"/>
       <use x="159.033203" xlink:href="#DejaVuSans-48"/>
      </g>
     </g>
    </g>
    <g id="text_10">
     <!-- Current $I$ -->
     <g transform="translate(21.468438 155.270625)rotate(-90)scale(0.14 -0.14)">
      <defs>
       <path d="M 64.40625 67.28125 
L 64.40625 56.890625 
Q 59.421875 61.53125 53.78125 63.8125 
Q 48.140625 66.109375 41.796875 66.109375 
Q 29.296875 66.109375 22.65625 58.46875 
Q 16.015625 50.828125 16.015625 36.375 
Q 16.015625 21.96875 22.65625 14.328125 
Q 29.296875 6.6875 41.796875 6.6875 
Q 48.140625 6.6875 53.78125 8.984375 
Q 59.421875 11.28125 64.40625 15.921875 
L 64.40625 5.609375 
Q 59.234375 2.09375 53.4375 0.328125 
Q 47.65625 -1.421875 41.21875 -1.421875 
Q 24.65625 -1.421875 15.125 8.703125 
Q 5.609375 18.84375 5.609375 36.375 
Q 5.609375 53.953125 15.125 64.078125 
Q 24.65625 74.21875 41.21875 74.21875 
Q 47.75 74.21875 53.53125 72.484375 
Q 59.328125 70.75 64.40625 67.28125 
z
" id="DejaVuSans-67"/>
       <path d="M 8.5 21.578125 
L 8.5 54.6875 
L 17.484375 54.6875 
L 17.484375 21.921875 
Q 17.484375 14.15625 20.5 10.265625 
Q 23.53125 6.390625 29.59375 6.390625 
Q 36.859375 6.390625 41.078125 11.03125 
Q 45.3125 15.671875 45.3125 23.6875 
L 45.3125 54.6875 
L 54.296875 54.6875 
L 54.296875 0 
L 45.3125 0 
L 45.3125 8.40625 
Q 42.046875 3.421875 37.71875 1 
Q 33.40625 -1.421875 27.6875 -1.421875 
Q 18.265625 -1.421875 13.375 4.4375 
Q 8.5 10.296875 8.5 21.578125 
z
M 31.109375 56 
z
" id="DejaVuSans-117"/>
       <path d="M 41.109375 46.296875 
Q 39.59375 47.171875 37.8125 47.578125 
Q 36.03125 48 33.890625 48 
Q 26.265625 48 22.1875 43.046875 
Q 18.109375 38.09375 18.109375 28.8125 
L 18.109375 0 
L 9.078125 0 
L 9.078125 54.6875 
L 18.109375 54.6875 
L 18.109375 46.1875 
Q 20.953125 51.171875 25.484375 53.578125 
Q 30.03125 56 36.53125 56 
Q 37.453125 56 38.578125 55.875 
Q 39.703125 55.765625 41.0625 55.515625 
z
" id="DejaVuSans-114"/>
       <path d="M 56.203125 29.59375 
L 56.203125 25.203125 
L 14.890625 25.203125 
Q 15.484375 15.921875 20.484375 11.0625 
Q 25.484375 6.203125 34.421875 6.203125 
Q 39.59375 6.203125 44.453125 7.46875 
Q 49.3125 8.734375 54.109375 11.28125 
L 54.109375 2.78125 
Q 49.265625 0.734375 44.1875 -0.34375 
Q 39.109375 -1.421875 33.890625 -1.421875 
Q 20.796875 -1.421875 13.15625 6.1875 
Q 5.515625 13.8125 5.515625 26.8125 
Q 5.515625 40.234375 12.765625 48.109375 
Q 20.015625 56 32.328125 56 
Q 43.359375 56 49.78125 48.890625 
Q 56.203125 41.796875 56.203125 29.59375 
z
M 47.21875 32.234375 
Q 47.125 39.59375 43.09375 43.984375 
Q 39.0625 48.390625 32.421875 48.390625 
Q 24.90625 48.390625 20.390625 44.140625 
Q 15.875 39.890625 15.1875 32.171875 
z
" id="DejaVuSans-101"/>
       <path d="M 54.890625 33.015625 
L 54.890625 0 
L 45.90625 0 
L 45.90625 32.71875 
Q 45.90625 40.484375 42.875 44.328125 
Q 39.84375 48.1875 33.796875 48.1875 
Q 26.515625 48.1875 22.3125 43.546875 
Q 18.109375 38.921875 18.109375 30.90625 
L 18.109375 0 
L 9.078125 0 
L 9.078125 54.6875 
L 18.109375 54.6875 
L 18.109375 46.1875 
Q 21.34375 51.125 25.703125 53.5625 
Q 30.078125 56 35.796875 56 
Q 45.21875 56 50.046875 50.171875 
Q 54.890625 44.34375 54.890625 33.015625 
z
" id="DejaVuSans-110"/>
       <path d="M 18.3125 70.21875 
L 18.3125 54.6875 
L 36.8125 54.6875 
L 36.8125 47.703125 
L 18.3125 47.703125 
L 18.3125 18.015625 
Q 18.3125 11.328125 20.140625 9.421875 
Q 21.96875 7.515625 27.59375 7.515625 
L 36.8125 7.515625 
L 36.8125 0 
L 27.59375 0 
Q 17.1875 0 13.234375 3.875 
Q 9.28125 7.765625 9.28125 18.015625 
L 9.28125 47.703125 
L 2.6875 47.703125 
L 2.6875 54.6875 
L 9.28125 54.6875 
L 9.28125 70.21875 
z
" id="DejaVuSans-116"/>
       <path id="DejaVuSans-32"/>
       <path d="M 16.890625 72.90625 
L 26.8125 72.90625 
L 12.59375 0 
L 2.6875 0 
z
" id="DejaVuSans-Oblique-73"/>
      </defs>
      <use transform="translate(0 0.78125)" xlink:href="#DejaVuSans-67"/>
      <use transform="translate(69.824219 0.78125)" xlink:href="#DejaVuSans-117"/>
      <use transform="translate(133.203125 0.78125)" xlink:href="#DejaVuSans-114"/>
      <use transform="translate(174.316406 0.78125)" xlink:href="#DejaVuSans-114"/>
      <use transform="translate(215.429688 0.78125)" xlink:href="#DejaVuSans-101"/>
      <use transform="translate(276.953125 0.78125)" xlink:href="#DejaVuSans-110"/>
      <use transform="translate(340.332031 0.78125)" xlink:href="#DejaVuSans-116"/>
      <use transform="translate(379.541016 0.78125)" xlink:href="#DejaVuSans-32"/>
      <use transform="translate(411.328125 0.78125)" xlink:href="#DejaVuSans-Oblique-73"/>
     </g>
    </g>
   </g>
   <g id="line2d_16">
    <path clip-path="url(#p65cf8eb685)" d="M 81.946861 194.152193 
L 298.130654 194.152193 
L 298.2473 75.452156 
L 298.597238 75.452156 
L 298.713884 194.152193 
L 567.971577 194.152193 
L 567.971577 194.152193 
" style="fill:none;stroke:#5443a3;stroke-linecap:square;stroke-width:1.5;"/>
   </g>
   <g id="patch_3">
    <path d="M 57.645625 205.981406 
L 57.645625 42.819844 
" style="fill:none;stroke:#000000;stroke-linecap:square;stroke-linejoin:miter;stroke-width:0.8;"/>
   </g>
   <g id="patch_4">
    <path d="M 592.272812 205.981406 
L 592.272812 42.819844 
" style="fill:none;stroke:#000000;stroke-linecap:square;stroke-linejoin:miter;stroke-width:0.8;"/>
   </g>
   <g id="patch_5">
    <path d="M 57.645625 205.981406 
L 592.272812 205.981406 
" style="fill:none;stroke:#000000;stroke-linecap:square;stroke-linejoin:miter;stroke-width:0.8;"/>
   </g>
   <g id="patch_6">
    <path d="M 57.645625 42.819844 
L 592.272812 42.819844 
" style="fill:none;stroke:#000000;stroke-linecap:square;stroke-linejoin:miter;stroke-width:0.8;"/>
   </g>
  </g>
  <g id="axes_2">
   <g id="patch_7">
    <path d="M 606.572812 205.981406 
L 1141.2 205.981406 
L 1141.2 42.819844 
L 606.572812 42.819844 
z
" style="fill:#ffffff;"/>
   </g>
   <g id="matplotlib.axis_3">
    <g id="xtick_7">
     <g id="line2d_17">
      <g>
       <use style="stroke:#000000;stroke-width:0.8;" x="630.874048" xlink:href="#me41714d98d" y="205.981406"/>
      </g>
     </g>
    </g>
    <g id="xtick_8">
     <g id="line2d_18">
      <g>
       <use style="stroke:#000000;stroke-width:0.8;" x="728.078991" xlink:href="#me41714d98d" y="205.981406"/>
      </g>
     </g>
    </g>
    <g id="xtick_9">
     <g id="line2d_19">
      <g>
       <use style="stroke:#000000;stroke-width:0.8;" x="825.283935" xlink:href="#me41714d98d" y="205.981406"/>
      </g>
     </g>
    </g>
    <g id="xtick_10">
     <g id="line2d_20">
      <g>
       <use style="stroke:#000000;stroke-width:0.8;" x="922.488878" xlink:href="#me41714d98d" y="205.981406"/>
      </g>
     </g>
    </g>
    <g id="xtick_11">
     <g id="line2d_21">
      <g>
       <use style="stroke:#000000;stroke-width:0.8;" x="1019.693821" xlink:href="#me41714d98d" y="205.981406"/>
      </g>
     </g>
    </g>
    <g id="xtick_12">
     <g id="line2d_22">
      <g>
       <use style="stroke:#000000;stroke-width:0.8;" x="1116.898764" xlink:href="#me41714d98d" y="205.981406"/>
      </g>
     </g>
    </g>
   </g>
   <g id="matplotlib.axis_4">
    <g id="ytick_10">
     <g id="line2d_23">
      <g>
       <use style="stroke:#000000;stroke-width:0.8;" x="606.572812" xlink:href="#m9a041d459e" y="205.981406"/>
      </g>
     </g>
    </g>
    <g id="ytick_11">
     <g id="line2d_24">
      <g>
       <use style="stroke:#000000;stroke-width:0.8;" x="606.572812" xlink:href="#m9a041d459e" y="185.586211"/>
      </g>
     </g>
    </g>
    <g id="ytick_12">
     <g id="line2d_25">
      <g>
       <use style="stroke:#000000;stroke-width:0.8;" x="606.572812" xlink:href="#m9a041d459e" y="165.191016"/>
      </g>
     </g>
    </g>
    <g id="ytick_13">
     <g id="line2d_26">
      <g>
       <use style="stroke:#000000;stroke-width:0.8;" x="606.572812" xlink:href="#m9a041d459e" y="144.79582"/>
      </g>
     </g>
    </g>
    <g id="ytick_14">
     <g id="line2d_27">
      <g>
       <use style="stroke:#000000;stroke-width:0.8;" x="606.572812" xlink:href="#m9a041d459e" y="124.400625"/>
      </g>
     </g>
    </g>
    <g id="ytick_15">
     <g id="line2d_28">
      <g>
       <use style="stroke:#000000;stroke-width:0.8;" x="606.572812" xlink:href="#m9a041d459e" y="104.00543"/>
      </g>
     </g>
    </g>
    <g id="ytick_16">
     <g id="line2d_29">
      <g>
       <use style="stroke:#000000;stroke-width:0.8;" x="606.572812" xlink:href="#m9a041d459e" y="83.610234"/>
      </g>
     </g>
    </g>
    <g id="ytick_17">
     <g id="line2d_30">
      <g>
       <use style="stroke:#000000;stroke-width:0.8;" x="606.572812" xlink:href="#m9a041d459e" y="63.215039"/>
      </g>
     </g>
    </g>
    <g id="ytick_18">
     <g id="line2d_31">
      <g>
       <use style="stroke:#000000;stroke-width:0.8;" x="606.572812" xlink:href="#m9a041d459e" y="42.819844"/>
      </g>
     </g>
    </g>
   </g>
   <g id="line2d_32">
    <path clip-path="url(#pd0de2a552f)" d="M 630.874048 194.152193 
L 1116.898764 194.152193 
L 1116.898764 194.152193 
" style="fill:none;stroke:#5443a3;stroke-linecap:square;stroke-width:1.5;"/>
   </g>
   <g id="patch_8">
    <path d="M 606.572812 205.981406 
L 606.572812 42.819844 
" style="fill:none;stroke:#000000;stroke-linecap:square;stroke-linejoin:miter;stroke-width:0.8;"/>
   </g>
   <g id="patch_9">
    <path d="M 1141.2 205.981406 
L 1141.2 42.819844 
" style="fill:none;stroke:#000000;stroke-linecap:square;stroke-linejoin:miter;stroke-width:0.8;"/>
   </g>
   <g id="patch_10">
    <path d="M 606.572812 205.981406 
L 1141.2 205.981406 
" style="fill:none;stroke:#000000;stroke-linecap:square;stroke-linejoin:miter;stroke-width:0.8;"/>
   </g>
   <g id="patch_11">
    <path d="M 606.572812 42.819844 
L 1141.2 42.819844 
" style="fill:none;stroke:#000000;stroke-linecap:square;stroke-linejoin:miter;stroke-width:0.8;"/>
   </g>
   <g id="legend_1">
    <g id="patch_12">
     <path d="M 1086.6 80.459484 
L 1132.1 80.459484 
Q 1134.7 80.459484 1134.7 77.859484 
L 1134.7 60.077922 
Q 1134.7 57.477922 1132.1 57.477922 
L 1086.6 57.477922 
Q 1084 57.477922 1084 60.077922 
L 1084 77.859484 
Q 1084 80.459484 1086.6 80.459484 
z
" style="fill:#ffffff;opacity:0.8;stroke:#cccccc;stroke-linejoin:miter;"/>
    </g>
    <g id="line2d_33">
     <path d="M 1089.2 68.005891 
L 1115.2 68.005891 
" style="fill:none;stroke:#5443a3;stroke-linecap:square;stroke-width:1.5;"/>
    </g>
    <g id="line2d_34"/>
    <g id="text_11">
     <!-- $I$ -->
     <g transform="translate(1125.6 72.555891)scale(0.13 -0.13)">
      <use transform="translate(0 0.09375)" xlink:href="#DejaVuSans-Oblique-73"/>
     </g>
    </g>
   </g>
  </g>
  <g id="axes_3">
   <g id="patch_13">
    <path d="M 57.645625 385.821875 
L 592.272812 385.821875 
L 592.272812 222.660313 
L 57.645625 222.660313 
z
" style="fill:#ffffff;"/>
   </g>
   <g id="matplotlib.axis_5">
    <g id="xtick_13">
     <g id="line2d_35">
      <g>
       <use style="stroke:#000000;stroke-width:0.8;" x="81.946861" xlink:href="#me41714d98d" y="385.821875"/>
      </g>
     </g>
     <g id="text_12">
      <!-- 0 -->
      <g transform="translate(78.765611 400.420313)scale(0.1 -0.1)">
       <use xlink:href="#DejaVuSans-48"/>
      </g>
     </g>
    </g>
    <g id="xtick_14">
     <g id="line2d_36">
      <g>
       <use style="stroke:#000000;stroke-width:0.8;" x="179.151804" xlink:href="#me41714d98d" y="385.821875"/>
      </g>
     </g>
     <g id="text_13">
      <!-- 5 -->
      <g transform="translate(175.970554 400.420313)scale(0.1 -0.1)">
       <use xlink:href="#DejaVuSans-53"/>
      </g>
     </g>
    </g>
    <g id="xtick_15">
     <g id="line2d_37">
      <g>
       <use style="stroke:#000000;stroke-width:0.8;" x="276.356747" xlink:href="#me41714d98d" y="385.821875"/>
      </g>
     </g>
     <g id="text_14">
      <!-- 10 -->
      <g transform="translate(269.994247 400.420313)scale(0.1 -0.1)">
       <use xlink:href="#DejaVuSans-49"/>
       <use x="63.623047" xlink:href="#DejaVuSans-48"/>
      </g>
     </g>
    </g>
    <g id="xtick_16">
     <g id="line2d_38">
      <g>
       <use style="stroke:#000000;stroke-width:0.8;" x="373.56169" xlink:href="#me41714d98d" y="385.821875"/>
      </g>
     </g>
     <g id="text_15">
      <!-- 15 -->
      <g transform="translate(367.19919 400.420313)scale(0.1 -0.1)">
       <use xlink:href="#DejaVuSans-49"/>
       <use x="63.623047" xlink:href="#DejaVuSans-53"/>
      </g>
     </g>
    </g>
    <g id="xtick_17">
     <g id="line2d_39">
      <g>
       <use style="stroke:#000000;stroke-width:0.8;" x="470.766634" xlink:href="#me41714d98d" y="385.821875"/>
      </g>
     </g>
     <g id="text_16">
      <!-- 20 -->
      <g transform="translate(464.404134 400.420313)scale(0.1 -0.1)">
       <use xlink:href="#DejaVuSans-50"/>
       <use x="63.623047" xlink:href="#DejaVuSans-48"/>
      </g>
     </g>
    </g>
    <g id="xtick_18">
     <g id="line2d_40">
      <g>
       <use style="stroke:#000000;stroke-width:0.8;" x="567.971577" xlink:href="#me41714d98d" y="385.821875"/>
      </g>
     </g>
     <g id="text_17">
      <!-- 25 -->
      <g transform="translate(561.609077 400.420313)scale(0.1 -0.1)">
       <use xlink:href="#DejaVuSans-50"/>
       <use x="63.623047" xlink:href="#DejaVuSans-53"/>
      </g>
     </g>
    </g>
    <g id="text_18">
     <!-- Time ($10^{-2}$ seconds) -->
     <g transform="translate(252.649219 418.288438)scale(0.14 -0.14)">
      <defs>
       <path d="M -0.296875 72.90625 
L 61.375 72.90625 
L 61.375 64.59375 
L 35.5 64.59375 
L 35.5 0 
L 25.59375 0 
L 25.59375 64.59375 
L -0.296875 64.59375 
z
" id="DejaVuSans-84"/>
       <path d="M 9.421875 54.6875 
L 18.40625 54.6875 
L 18.40625 0 
L 9.421875 0 
z
M 9.421875 75.984375 
L 18.40625 75.984375 
L 18.40625 64.59375 
L 9.421875 64.59375 
z
" id="DejaVuSans-105"/>
       <path d="M 52 44.1875 
Q 55.375 50.25 60.0625 53.125 
Q 64.75 56 71.09375 56 
Q 79.640625 56 84.28125 50.015625 
Q 88.921875 44.046875 88.921875 33.015625 
L 88.921875 0 
L 79.890625 0 
L 79.890625 32.71875 
Q 79.890625 40.578125 77.09375 44.375 
Q 74.3125 48.1875 68.609375 48.1875 
Q 61.625 48.1875 57.5625 43.546875 
Q 53.515625 38.921875 53.515625 30.90625 
L 53.515625 0 
L 44.484375 0 
L 44.484375 32.71875 
Q 44.484375 40.625 41.703125 44.40625 
Q 38.921875 48.1875 33.109375 48.1875 
Q 26.21875 48.1875 22.15625 43.53125 
Q 18.109375 38.875 18.109375 30.90625 
L 18.109375 0 
L 9.078125 0 
L 9.078125 54.6875 
L 18.109375 54.6875 
L 18.109375 46.1875 
Q 21.1875 51.21875 25.484375 53.609375 
Q 29.78125 56 35.6875 56 
Q 41.65625 56 45.828125 52.96875 
Q 50 49.953125 52 44.1875 
z
" id="DejaVuSans-109"/>
       <path d="M 31 75.875 
Q 24.46875 64.65625 21.28125 53.65625 
Q 18.109375 42.671875 18.109375 31.390625 
Q 18.109375 20.125 21.3125 9.0625 
Q 24.515625 -2 31 -13.1875 
L 23.1875 -13.1875 
Q 15.875 -1.703125 12.234375 9.375 
Q 8.59375 20.453125 8.59375 31.390625 
Q 8.59375 42.28125 12.203125 53.3125 
Q 15.828125 64.359375 23.1875 75.875 
z
" id="DejaVuSans-40"/>
       <path d="M 10.59375 35.5 
L 73.1875 35.5 
L 73.1875 27.203125 
L 10.59375 27.203125 
z
" id="DejaVuSans-8722"/>
       <path d="M 44.28125 53.078125 
L 44.28125 44.578125 
Q 40.484375 46.53125 36.375 47.5 
Q 32.28125 48.484375 27.875 48.484375 
Q 21.1875 48.484375 17.84375 46.4375 
Q 14.5 44.390625 14.5 40.28125 
Q 14.5 37.15625 16.890625 35.375 
Q 19.28125 33.59375 26.515625 31.984375 
L 29.59375 31.296875 
Q 39.15625 29.25 43.1875 25.515625 
Q 47.21875 21.78125 47.21875 15.09375 
Q 47.21875 7.46875 41.1875 3.015625 
Q 35.15625 -1.421875 24.609375 -1.421875 
Q 20.21875 -1.421875 15.453125 -0.5625 
Q 10.6875 0.296875 5.421875 2 
L 5.421875 11.28125 
Q 10.40625 8.6875 15.234375 7.390625 
Q 20.0625 6.109375 24.8125 6.109375 
Q 31.15625 6.109375 34.5625 8.28125 
Q 37.984375 10.453125 37.984375 14.40625 
Q 37.984375 18.0625 35.515625 20.015625 
Q 33.0625 21.96875 24.703125 23.78125 
L 21.578125 24.515625 
Q 13.234375 26.265625 9.515625 29.90625 
Q 5.8125 33.546875 5.8125 39.890625 
Q 5.8125 47.609375 11.28125 51.796875 
Q 16.75 56 26.8125 56 
Q 31.78125 56 36.171875 55.265625 
Q 40.578125 54.546875 44.28125 53.078125 
z
" id="DejaVuSans-115"/>
       <path d="M 48.78125 52.59375 
L 48.78125 44.1875 
Q 44.96875 46.296875 41.140625 47.34375 
Q 37.3125 48.390625 33.40625 48.390625 
Q 24.65625 48.390625 19.8125 42.84375 
Q 14.984375 37.3125 14.984375 27.296875 
Q 14.984375 17.28125 19.8125 11.734375 
Q 24.65625 6.203125 33.40625 6.203125 
Q 37.3125 6.203125 41.140625 7.25 
Q 44.96875 8.296875 48.78125 10.40625 
L 48.78125 2.09375 
Q 45.015625 0.34375 40.984375 -0.53125 
Q 36.96875 -1.421875 32.421875 -1.421875 
Q 20.0625 -1.421875 12.78125 6.34375 
Q 5.515625 14.109375 5.515625 27.296875 
Q 5.515625 40.671875 12.859375 48.328125 
Q 20.21875 56 33.015625 56 
Q 37.15625 56 41.109375 55.140625 
Q 45.0625 54.296875 48.78125 52.59375 
z
" id="DejaVuSans-99"/>
       <path d="M 30.609375 48.390625 
Q 23.390625 48.390625 19.1875 42.75 
Q 14.984375 37.109375 14.984375 27.296875 
Q 14.984375 17.484375 19.15625 11.84375 
Q 23.34375 6.203125 30.609375 6.203125 
Q 37.796875 6.203125 41.984375 11.859375 
Q 46.1875 17.53125 46.1875 27.296875 
Q 46.1875 37.015625 41.984375 42.703125 
Q 37.796875 48.390625 30.609375 48.390625 
z
M 30.609375 56 
Q 42.328125 56 49.015625 48.375 
Q 55.71875 40.765625 55.71875 27.296875 
Q 55.71875 13.875 49.015625 6.21875 
Q 42.328125 -1.421875 30.609375 -1.421875 
Q 18.84375 -1.421875 12.171875 6.21875 
Q 5.515625 13.875 5.515625 27.296875 
Q 5.515625 40.765625 12.171875 48.375 
Q 18.84375 56 30.609375 56 
z
" id="DejaVuSans-111"/>
       <path d="M 45.40625 46.390625 
L 45.40625 75.984375 
L 54.390625 75.984375 
L 54.390625 0 
L 45.40625 0 
L 45.40625 8.203125 
Q 42.578125 3.328125 38.25 0.953125 
Q 33.9375 -1.421875 27.875 -1.421875 
Q 17.96875 -1.421875 11.734375 6.484375 
Q 5.515625 14.40625 5.515625 27.296875 
Q 5.515625 40.1875 11.734375 48.09375 
Q 17.96875 56 27.875 56 
Q 33.9375 56 38.25 53.625 
Q 42.578125 51.265625 45.40625 46.390625 
z
M 14.796875 27.296875 
Q 14.796875 17.390625 18.875 11.75 
Q 22.953125 6.109375 30.078125 6.109375 
Q 37.203125 6.109375 41.296875 11.75 
Q 45.40625 17.390625 45.40625 27.296875 
Q 45.40625 37.203125 41.296875 42.84375 
Q 37.203125 48.484375 30.078125 48.484375 
Q 22.953125 48.484375 18.875 42.84375 
Q 14.796875 37.203125 14.796875 27.296875 
z
" id="DejaVuSans-100"/>
       <path d="M 8.015625 75.875 
L 15.828125 75.875 
Q 23.140625 64.359375 26.78125 53.3125 
Q 30.421875 42.28125 30.421875 31.390625 
Q 30.421875 20.453125 26.78125 9.375 
Q 23.140625 -1.703125 15.828125 -13.1875 
L 8.015625 -13.1875 
Q 14.5 -2 17.703125 9.0625 
Q 20.90625 20.125 20.90625 31.390625 
Q 20.90625 42.671875 17.703125 53.65625 
Q 14.5 64.65625 8.015625 75.875 
z
" id="DejaVuSans-41"/>
      </defs>
      <use transform="translate(0 0.765625)" xlink:href="#DejaVuSans-84"/>
      <use transform="translate(61.083984 0.765625)" xlink:href="#DejaVuSans-105"/>
      <use transform="translate(88.867188 0.765625)" xlink:href="#DejaVuSans-109"/>
      <use transform="translate(186.279297 0.765625)" xlink:href="#DejaVuSans-101"/>
      <use transform="translate(247.802734 0.765625)" xlink:href="#DejaVuSans-32"/>
      <use transform="translate(279.589844 0.765625)" xlink:href="#DejaVuSans-40"/>
      <use transform="translate(318.603516 0.765625)" xlink:href="#DejaVuSans-49"/>
      <use transform="translate(382.226562 0.765625)" xlink:href="#DejaVuSans-48"/>
      <use transform="translate(446.806641 39.046875)scale(0.7)" xlink:href="#DejaVuSans-8722"/>
      <use transform="translate(505.458984 39.046875)scale(0.7)" xlink:href="#DejaVuSans-50"/>
      <use transform="translate(552.729492 0.765625)" xlink:href="#DejaVuSans-32"/>
      <use transform="translate(584.516602 0.765625)" xlink:href="#DejaVuSans-115"/>
      <use transform="translate(636.616211 0.765625)" xlink:href="#DejaVuSans-101"/>
      <use transform="translate(698.139648 0.765625)" xlink:href="#DejaVuSans-99"/>
      <use transform="translate(753.120117 0.765625)" xlink:href="#DejaVuSans-111"/>
      <use transform="translate(814.301758 0.765625)" xlink:href="#DejaVuSans-110"/>
      <use transform="translate(877.680664 0.765625)" xlink:href="#DejaVuSans-100"/>
      <use transform="translate(941.157227 0.765625)" xlink:href="#DejaVuSans-115"/>
      <use transform="translate(993.256836 0.765625)" xlink:href="#DejaVuSans-41"/>
     </g>
    </g>
   </g>
   <g id="matplotlib.axis_6">
    <g id="ytick_19">
     <g id="line2d_41">
      <g>
       <use style="stroke:#000000;stroke-width:0.8;" x="57.645625" xlink:href="#m9a041d459e" y="378.409877"/>
      </g>
     </g>
     <g id="text_19">
      <!-- 0.00 -->
      <g transform="translate(28.38 382.209096)scale(0.1 -0.1)">
       <use xlink:href="#DejaVuSans-48"/>
       <use x="63.623047" xlink:href="#DejaVuSans-46"/>
       <use x="95.410156" xlink:href="#DejaVuSans-48"/>
       <use x="159.033203" xlink:href="#DejaVuSans-48"/>
      </g>
     </g>
    </g>
    <g id="ytick_20">
     <g id="line2d_42">
      <g>
       <use style="stroke:#000000;stroke-width:0.8;" x="57.645625" xlink:href="#m9a041d459e" y="353.687689"/>
      </g>
     </g>
     <g id="text_20">
      <!-- 0.25 -->
      <g transform="translate(28.38 357.486908)scale(0.1 -0.1)">
       <use xlink:href="#DejaVuSans-48"/>
       <use x="63.623047" xlink:href="#DejaVuSans-46"/>
       <use x="95.410156" xlink:href="#DejaVuSans-50"/>
       <use x="159.033203" xlink:href="#DejaVuSans-53"/>
      </g>
     </g>
    </g>
    <g id="ytick_21">
     <g id="line2d_43">
      <g>
       <use style="stroke:#000000;stroke-width:0.8;" x="57.645625" xlink:href="#m9a041d459e" y="328.965501"/>
      </g>
     </g>
     <g id="text_21">
      <!-- 0.50 -->
      <g transform="translate(28.38 332.764719)scale(0.1 -0.1)">
       <use xlink:href="#DejaVuSans-48"/>
       <use x="63.623047" xlink:href="#DejaVuSans-46"/>
       <use x="95.410156" xlink:href="#DejaVuSans-53"/>
       <use x="159.033203" xlink:href="#DejaVuSans-48"/>
      </g>
     </g>
    </g>
    <g id="ytick_22">
     <g id="line2d_44">
      <g>
       <use style="stroke:#000000;stroke-width:0.8;" x="57.645625" xlink:href="#m9a041d459e" y="304.243312"/>
      </g>
     </g>
     <g id="text_22">
      <!-- 0.75 -->
      <g transform="translate(28.38 308.042531)scale(0.1 -0.1)">
       <use xlink:href="#DejaVuSans-48"/>
       <use x="63.623047" xlink:href="#DejaVuSans-46"/>
       <use x="95.410156" xlink:href="#DejaVuSans-55"/>
       <use x="159.033203" xlink:href="#DejaVuSans-53"/>
      </g>
     </g>
    </g>
    <g id="ytick_23">
     <g id="line2d_45">
      <g>
       <use style="stroke:#000000;stroke-width:0.8;" x="57.645625" xlink:href="#m9a041d459e" y="279.521124"/>
      </g>
     </g>
     <g id="text_23">
      <!-- 1.00 -->
      <g transform="translate(28.38 283.320343)scale(0.1 -0.1)">
       <use xlink:href="#DejaVuSans-49"/>
       <use x="63.623047" xlink:href="#DejaVuSans-46"/>
       <use x="95.410156" xlink:href="#DejaVuSans-48"/>
       <use x="159.033203" xlink:href="#DejaVuSans-48"/>
      </g>
     </g>
    </g>
    <g id="ytick_24">
     <g id="line2d_46">
      <g>
       <use style="stroke:#000000;stroke-width:0.8;" x="57.645625" xlink:href="#m9a041d459e" y="254.798936"/>
      </g>
     </g>
     <g id="text_24">
      <!-- 1.25 -->
      <g transform="translate(28.38 258.598154)scale(0.1 -0.1)">
       <use xlink:href="#DejaVuSans-49"/>
       <use x="63.623047" xlink:href="#DejaVuSans-46"/>
       <use x="95.410156" xlink:href="#DejaVuSans-50"/>
       <use x="159.033203" xlink:href="#DejaVuSans-53"/>
      </g>
     </g>
    </g>
    <g id="ytick_25">
     <g id="line2d_47">
      <g>
       <use style="stroke:#000000;stroke-width:0.8;" x="57.645625" xlink:href="#m9a041d459e" y="230.076747"/>
      </g>
     </g>
     <g id="text_25">
      <!-- 1.50 -->
      <g transform="translate(28.38 233.875966)scale(0.1 -0.1)">
       <use xlink:href="#DejaVuSans-49"/>
       <use x="63.623047" xlink:href="#DejaVuSans-46"/>
       <use x="95.410156" xlink:href="#DejaVuSans-53"/>
       <use x="159.033203" xlink:href="#DejaVuSans-48"/>
      </g>
     </g>
    </g>
    <g id="text_26">
     <!-- Voltage $V_k, k \in \{1,2\}$ -->
     <g transform="translate(21.44 379.001094)rotate(-90)scale(0.14 -0.14)">
      <defs>
       <path d="M 28.609375 0 
L 0.78125 72.90625 
L 11.078125 72.90625 
L 34.1875 11.53125 
L 57.328125 72.90625 
L 67.578125 72.90625 
L 39.796875 0 
z
" id="DejaVuSans-86"/>
       <path d="M 9.421875 75.984375 
L 18.40625 75.984375 
L 18.40625 0 
L 9.421875 0 
z
" id="DejaVuSans-108"/>
       <path d="M 34.28125 27.484375 
Q 23.390625 27.484375 19.1875 25 
Q 14.984375 22.515625 14.984375 16.5 
Q 14.984375 11.71875 18.140625 8.90625 
Q 21.296875 6.109375 26.703125 6.109375 
Q 34.1875 6.109375 38.703125 11.40625 
Q 43.21875 16.703125 43.21875 25.484375 
L 43.21875 27.484375 
z
M 52.203125 31.203125 
L 52.203125 0 
L 43.21875 0 
L 43.21875 8.296875 
Q 40.140625 3.328125 35.546875 0.953125 
Q 30.953125 -1.421875 24.3125 -1.421875 
Q 15.921875 -1.421875 10.953125 3.296875 
Q 6 8.015625 6 15.921875 
Q 6 25.140625 12.171875 29.828125 
Q 18.359375 34.515625 30.609375 34.515625 
L 43.21875 34.515625 
L 43.21875 35.40625 
Q 43.21875 41.609375 39.140625 45 
Q 35.0625 48.390625 27.6875 48.390625 
Q 23 48.390625 18.546875 47.265625 
Q 14.109375 46.140625 10.015625 43.890625 
L 10.015625 52.203125 
Q 14.9375 54.109375 19.578125 55.046875 
Q 24.21875 56 28.609375 56 
Q 40.484375 56 46.34375 49.84375 
Q 52.203125 43.703125 52.203125 31.203125 
z
" id="DejaVuSans-97"/>
       <path d="M 45.40625 27.984375 
Q 45.40625 37.75 41.375 43.109375 
Q 37.359375 48.484375 30.078125 48.484375 
Q 22.859375 48.484375 18.828125 43.109375 
Q 14.796875 37.75 14.796875 27.984375 
Q 14.796875 18.265625 18.828125 12.890625 
Q 22.859375 7.515625 30.078125 7.515625 
Q 37.359375 7.515625 41.375 12.890625 
Q 45.40625 18.265625 45.40625 27.984375 
z
M 54.390625 6.78125 
Q 54.390625 -7.171875 48.1875 -13.984375 
Q 42 -20.796875 29.203125 -20.796875 
Q 24.46875 -20.796875 20.265625 -20.09375 
Q 16.0625 -19.390625 12.109375 -17.921875 
L 12.109375 -9.1875 
Q 16.0625 -11.328125 19.921875 -12.34375 
Q 23.78125 -13.375 27.78125 -13.375 
Q 36.625 -13.375 41.015625 -8.765625 
Q 45.40625 -4.15625 45.40625 5.171875 
L 45.40625 9.625 
Q 42.625 4.78125 38.28125 2.390625 
Q 33.9375 0 27.875 0 
Q 17.828125 0 11.671875 7.65625 
Q 5.515625 15.328125 5.515625 27.984375 
Q 5.515625 40.671875 11.671875 48.328125 
Q 17.828125 56 27.875 56 
Q 33.9375 56 38.28125 53.609375 
Q 42.625 51.21875 45.40625 46.390625 
L 45.40625 54.6875 
L 54.390625 54.6875 
z
" id="DejaVuSans-103"/>
       <path d="M 20.609375 0 
L 7.8125 72.90625 
L 17.484375 72.90625 
L 28.078125 10.203125 
L 63.484375 72.90625 
L 74.21875 72.90625 
L 32.078125 0 
z
" id="DejaVuSans-Oblique-86"/>
       <path d="M 18.3125 75.984375 
L 27.296875 75.984375 
L 18.703125 31.6875 
L 49.515625 54.6875 
L 61.1875 54.6875 
L 26.8125 28.515625 
L 51.90625 0 
L 41.015625 0 
L 17.671875 26.703125 
L 12.5 0 
L 3.515625 0 
z
" id="DejaVuSans-Oblique-107"/>
       <path d="M 11.71875 12.40625 
L 22.015625 12.40625 
L 22.015625 4 
L 14.015625 -11.625 
L 7.71875 -11.625 
L 11.71875 4 
z
" id="DejaVuSans-44"/>
       <path d="M 16.75 30.609375 
Q 17.09375 27 20.171875 21.140625 
Q 23.78125 14.359375 30.609375 10.546875 
Q 37.3125 6.84375 44.53125 6.78125 
L 78.5625 6.78125 
L 78.5625 -0.984375 
L 44.53125 -0.984375 
Q 35.15625 -0.984375 26.484375 3.84375 
Q 17.828125 8.6875 13.1875 17.28125 
Q 8.546875 25.875 8.546875 35.015625 
Q 8.546875 44.046875 13.1875 52.640625 
Q 17.828125 61.234375 26.484375 66.109375 
Q 35.15625 71 44.53125 71 
L 78.5625 71 
L 78.5625 63.234375 
L 44.53125 63.234375 
Q 37.3125 63.1875 30.609375 59.421875 
Q 23.828125 55.5625 20.171875 48.828125 
Q 17.046875 42.96875 16.609375 38.421875 
L 78.5625 38.421875 
L 78.5625 30.609375 
z
" id="DejaVuSans-8712"/>
       <path d="M 51.125 -9.28125 
L 51.125 -16.3125 
L 48.09375 -16.3125 
Q 35.9375 -16.3125 31.8125 -12.6875 
Q 27.6875 -9.078125 27.6875 1.703125 
L 27.6875 13.375 
Q 27.6875 20.75 25.046875 23.578125 
Q 22.40625 26.421875 15.484375 26.421875 
L 12.5 26.421875 
L 12.5 33.40625 
L 15.484375 33.40625 
Q 22.46875 33.40625 25.078125 36.203125 
Q 27.6875 39.015625 27.6875 46.296875 
L 27.6875 58.015625 
Q 27.6875 68.796875 31.8125 72.390625 
Q 35.9375 75.984375 48.09375 75.984375 
L 51.125 75.984375 
L 51.125 69 
L 47.796875 69 
Q 40.921875 69 38.8125 66.84375 
Q 36.71875 64.703125 36.71875 57.8125 
L 36.71875 45.703125 
Q 36.71875 38.03125 34.5 34.5625 
Q 32.28125 31.109375 26.90625 29.890625 
Q 32.328125 28.5625 34.515625 25.09375 
Q 36.71875 21.625 36.71875 14.015625 
L 36.71875 1.90625 
Q 36.71875 -4.984375 38.8125 -7.125 
Q 40.921875 -9.28125 47.796875 -9.28125 
z
" id="DejaVuSans-123"/>
       <path d="M 12.5 -9.28125 
L 15.921875 -9.28125 
Q 22.75 -9.28125 24.828125 -7.171875 
Q 26.90625 -5.078125 26.90625 1.90625 
L 26.90625 14.015625 
Q 26.90625 21.625 29.09375 25.09375 
Q 31.296875 28.5625 36.71875 29.890625 
Q 31.296875 31.109375 29.09375 34.5625 
Q 26.90625 38.03125 26.90625 45.703125 
L 26.90625 57.8125 
Q 26.90625 64.75 24.828125 66.875 
Q 22.75 69 15.921875 69 
L 12.5 69 
L 12.5 75.984375 
L 15.578125 75.984375 
Q 27.734375 75.984375 31.8125 72.390625 
Q 35.890625 68.796875 35.890625 58.015625 
L 35.890625 46.296875 
Q 35.890625 39.015625 38.515625 36.203125 
Q 41.15625 33.40625 48.09375 33.40625 
L 51.125 33.40625 
L 51.125 26.421875 
L 48.09375 26.421875 
Q 41.15625 26.421875 38.515625 23.578125 
Q 35.890625 20.75 35.890625 13.375 
L 35.890625 1.703125 
Q 35.890625 -9.078125 31.8125 -12.6875 
Q 27.734375 -16.3125 15.578125 -16.3125 
L 12.5 -16.3125 
z
" id="DejaVuSans-125"/>
      </defs>
      <use transform="translate(0 0.015625)" xlink:href="#DejaVuSans-86"/>
      <use transform="translate(68.408203 0.015625)" xlink:href="#DejaVuSans-111"/>
      <use transform="translate(129.589844 0.015625)" xlink:href="#DejaVuSans-108"/>
      <use transform="translate(157.373047 0.015625)" xlink:href="#DejaVuSans-116"/>
      <use transform="translate(196.582031 0.015625)" xlink:href="#DejaVuSans-97"/>
      <use transform="translate(257.861328 0.015625)" xlink:href="#DejaVuSans-103"/>
      <use transform="translate(321.337891 0.015625)" xlink:href="#DejaVuSans-101"/>
      <use transform="translate(382.861328 0.015625)" xlink:href="#DejaVuSans-32"/>
      <use transform="translate(414.648438 0.015625)" xlink:href="#DejaVuSans-Oblique-86"/>
      <use transform="translate(483.056641 -16.390625)scale(0.7)" xlink:href="#DejaVuSans-Oblique-107"/>
      <use transform="translate(526.328125 0.015625)" xlink:href="#DejaVuSans-44"/>
      <use transform="translate(577.597656 0.015625)" xlink:href="#DejaVuSans-Oblique-107"/>
      <use transform="translate(654.990234 0.015625)" xlink:href="#DejaVuSans-8712"/>
      <use transform="translate(761.582031 0.015625)" xlink:href="#DejaVuSans-123"/>
      <use transform="translate(825.205078 0.015625)" xlink:href="#DejaVuSans-49"/>
      <use transform="translate(888.828125 0.015625)" xlink:href="#DejaVuSans-44"/>
      <use transform="translate(940.097656 0.015625)" xlink:href="#DejaVuSans-50"/>
      <use transform="translate(1003.720703 0.015625)" xlink:href="#DejaVuSans-125"/>
     </g>
    </g>
   </g>
   <g id="line2d_48">
    <path clip-path="url(#pebaf3b992b)" d="M 81.946861 314.343315 
L 84.08537 306.143657 
L 86.26276 298.665097 
L 88.440151 291.9728 
L 90.617542 285.983998 
L 92.794932 280.624821 
L 93.261516 279.551878 
L 93.300398 230.076747 
L 93.300398 378.222209 
L 93.378162 377.648018 
L 95.516671 362.72889 
L 97.65518 349.370404 
L 99.793688 337.409315 
L 101.932197 326.699465 
L 104.070706 317.109926 
L 106.248097 308.357084 
L 108.425487 300.645838 
L 110.602878 293.745183 
L 112.780269 287.570075 
L 114.996541 281.951018 
L 116.007473 279.591434 
L 116.046355 230.076747 
L 116.046355 378.351037 
L 116.124119 377.776329 
L 118.262628 362.843799 
L 120.401136 349.473248 
L 122.539645 337.501479 
L 124.678154 326.781938 
L 126.816663 317.183796 
L 128.994053 308.422252 
L 131.171444 300.704084 
L 133.348835 293.797397 
L 135.526225 287.616849 
L 137.703616 282.086001 
L 138.792312 279.542583 
L 138.831194 230.076747 
L 138.831194 378.192078 
L 138.908957 377.618007 
L 141.047466 362.701992 
L 143.185975 349.346374 
L 145.324484 337.387757 
L 147.462992 326.680181 
L 149.601501 317.092719 
L 151.778892 308.341856 
L 153.917401 300.762428 
L 156.094791 293.84961 
L 158.272182 287.663525 
L 160.488455 282.034382 
L 161.538268 279.582138 
L 161.57715 230.076747 
L 161.57715 378.320878 
L 161.654914 377.746291 
L 163.793423 362.816901 
L 165.931932 349.449218 
L 168.07044 337.479921 
L 170.208949 326.762655 
L 172.347458 317.16649 
L 174.524849 308.406924 
L 176.702239 300.690437 
L 178.87963 293.785233 
L 181.057021 287.605873 
L 183.234412 282.076211 
L 184.323107 279.533386 
L 184.361989 230.076747 
L 184.361989 378.161953 
L 184.439753 377.588003 
L 186.578262 362.675094 
L 188.71677 349.322245 
L 190.855279 337.366298 
L 192.993788 326.660898 
L 195.132297 317.075414 
L 197.309687 308.326627 
L 199.487078 300.618545 
L 201.664469 293.720857 
L 203.84186 287.54832 
L 206.01925 282.02469 
L 207.069064 279.572942 
L 207.107946 230.076747 
L 207.107946 378.290726 
L 207.18571 377.71626 
L 209.324218 362.790003 
L 211.462727 349.425089 
L 213.601236 337.458363 
L 215.739745 326.743371 
L 217.878253 317.149283 
L 220.055644 308.391695 
L 222.233035 300.67679 
L 224.410426 293.772971 
L 226.587816 287.594896 
L 228.804089 281.973169 
L 229.853902 279.524091 
L 229.892784 230.076747 
L 229.892784 378.131835 
L 229.970548 377.558006 
L 232.109057 362.648296 
L 234.247566 349.298215 
L 236.386075 337.34474 
L 238.524583 326.641615 
L 240.663092 317.058207 
L 242.840483 308.311398 
L 245.017873 300.604898 
L 247.195264 293.708594 
L 249.372655 287.537343 
L 251.588928 281.921747 
L 252.599859 279.563646 
L 252.638741 230.076747 
L 252.638741 378.260581 
L 252.716505 377.686235 
L 254.855014 362.763105 
L 256.993522 349.401059 
L 259.132031 337.436806 
L 261.27054 326.724088 
L 263.409049 317.131978 
L 265.586439 308.376467 
L 267.76383 300.663144 
L 269.941221 293.760808 
L 272.118612 287.584018 
L 274.296002 282.056632 
L 275.345816 279.603202 
L 275.384698 230.076747 
L 275.384698 378.389443 
L 275.462462 377.814581 
L 277.60097 362.878014 
L 279.739479 349.503904 
L 281.877988 337.528871 
L 284.016497 326.806561 
L 286.155005 317.205848 
L 288.332396 308.441634 
L 290.509787 300.721488 
L 292.687178 293.812922 
L 294.864568 287.630694 
L 297.080841 282.00511 
L 298.130654 279.55435 
L 298.169536 230.076747 
L 298.169536 376.437848 
L 298.2473 370.126955 
L 298.713884 338.748961 
L 300.852393 327.980173 
L 302.990902 318.329224 
L 305.12941 309.680216 
L 307.306801 301.795816 
L 309.484192 294.744059 
L 311.661583 288.436835 
L 313.877855 282.700595 
L 315.199842 279.576699 
L 315.238724 230.076747 
L 315.238724 378.302116 
L 315.316488 377.72681 
L 317.454997 362.779916 
L 319.554624 349.628899 
L 321.770897 337.153094 
L 323.909405 326.549846 
L 326.047914 317.047428 
L 328.186423 308.531425 
L 330.324932 300.899587 
L 332.46344 294.059946 
L 334.640831 287.82501 
L 336.818222 282.248476 
L 337.945799 279.59618 
L 337.984681 230.076747 
L 337.984681 378.365354 
L 338.062445 377.789793 
L 340.200954 362.836283 
L 342.300581 349.67953 
L 344.516853 337.197792 
L 346.655362 326.589995 
L 348.793871 317.083325 
L 350.93238 308.563663 
L 353.070888 300.928363 
L 355.248279 293.968177 
L 357.42567 287.742933 
L 359.60306 282.1751 
L 360.730638 279.526859 
L 360.76952 230.076747 
L 360.76952 378.14038 
L 360.847284 377.565722 
L 362.985793 362.635638 
L 365.124301 349.269438 
L 367.340574 336.835958 
L 369.479083 326.26564 
L 371.617591 316.792691 
L 373.7561 308.303091 
L 375.933491 300.564156 
L 378.110882 293.642339 
L 380.288272 287.451507 
L 382.465663 281.914429 
L 383.476595 279.546341 
L 383.515477 230.076747 
L 383.515477 378.203461 
L 383.59324 377.62855 
L 385.731749 362.691905 
L 387.831376 349.549986 
L 390.047649 337.083674 
L 392.186157 326.487645 
L 394.324666 316.991655 
L 396.463175 308.481388 
L 398.601684 300.854691 
L 400.779074 293.902219 
L 402.956465 287.683896 
L 405.172738 282.028448 
L 406.222551 279.565723 
L 406.261433 230.076747 
L 406.261433 378.266527 
L 406.339197 377.691362 
L 408.477706 362.748173 
L 410.616215 349.370107 
L 412.832487 336.924957 
L 414.970996 326.345443 
L 417.109505 316.864187 
L 419.248014 308.367171 
L 421.386522 300.752243 
L 423.563913 293.810648 
L 425.741304 287.602016 
L 427.918695 282.049017 
L 428.968508 279.585204 
L 429.00739 230.076747 
L 429.00739 378.329578 
L 429.085154 377.754161 
L 431.223663 362.804342 
L 433.362171 349.420441 
L 435.578444 336.969556 
L 437.716953 326.385295 
L 439.855462 316.899886 
L 441.99397 308.399211 
L 444.132479 300.78092 
L 446.30987 293.83626 
L 448.487261 287.624958 
L 450.664651 282.069487 
L 451.714465 279.604586 
L 451.753347 230.076747 
L 451.753347 378.392615 
L 451.831111 377.816943 
L 453.969619 362.860511 
L 456.108128 349.470776 
L 458.324401 337.014056 
L 460.46291 326.425246 
L 462.601418 316.935684 
L 464.739927 308.431152 
L 466.878436 300.809598 
L 469.055827 293.861872 
L 471.233217 287.647802 
L 473.44949 281.996309 
L 474.499303 279.535166 
L 474.538185 230.076747 
L 474.538185 378.167384 
L 474.615949 377.592617 
L 476.754458 362.659668 
L 478.892967 349.290996 
L 481.109239 336.855439 
L 483.247748 326.283044 
L 485.386257 316.808216 
L 487.524766 308.316936 
L 489.702156 300.576418 
L 491.879547 293.653316 
L 494.056938 287.461297 
L 496.234329 281.923132 
L 497.24526 279.554548 
L 497.284142 230.076747 
L 497.284142 378.230264 
L 497.361906 377.655243 
L 499.500415 362.715738 
L 501.638923 349.341133 
L 503.855196 336.89984 
L 505.993705 326.322798 
L 508.132214 316.843816 
L 510.270722 308.348877 
L 512.448113 300.604997 
L 514.625504 293.678829 
L 516.802895 287.484141 
L 518.980285 281.943503 
L 519.991217 279.57393 
L 520.030099 230.076747 
L 520.030099 378.293127 
L 520.107863 377.717855 
L 522.246371 362.771808 
L 524.38488 349.391368 
L 526.601153 336.944241 
L 528.739662 326.362551 
L 530.87817 316.879515 
L 533.016679 308.380818 
L 535.155188 300.764406 
L 537.332579 293.821427 
L 539.509969 287.611608 
L 541.726242 281.963973 
L 542.737173 279.593313 
L 542.776055 230.076747 
L 542.776055 378.355975 
L 542.853819 377.78045 
L 544.992328 362.827878 
L 547.091955 349.671916 
L 549.308228 337.192056 
L 551.446736 326.584655 
L 553.585245 317.078479 
L 555.723754 308.559114 
L 557.901145 300.793084 
L 560.039653 293.96442 
L 562.217044 287.739472 
L 564.394435 282.171936 
L 565.522012 279.523893 
L 565.560894 230.076747 
L 565.560894 378.130629 
L 565.638658 377.55601 
L 567.777167 362.626936 
L 567.971577 361.349886 
L 567.971577 361.349886 
" style="fill:none;stroke:#aa3863;stroke-linecap:square;stroke-width:1.5;"/>
   </g>
   <g id="line2d_49">
    <path clip-path="url(#pebaf3b992b)" d="M 81.946861 378.398315 
L 84.08537 363.400246 
L 86.223878 349.971153 
L 88.362387 337.946973 
L 90.500896 327.180559 
L 92.639405 317.540487 
L 94.816795 308.741564 
L 96.994186 300.98918 
L 99.171577 294.051837 
L 101.348967 287.843997 
L 103.526358 282.288723 
L 104.692817 279.557119 
L 104.731699 230.076747 
L 104.731699 378.239176 
L 104.809463 377.664899 
L 106.947972 362.743525 
L 109.086481 349.38316 
L 111.22499 337.420489 
L 113.363498 326.709156 
L 115.502007 317.118331 
L 117.679398 308.369149 
L 119.856789 300.655925 
L 122.034179 293.753589 
L 124.21157 287.577096 
L 126.388961 282.049907 
L 127.438774 279.596576 
L 127.477656 230.076747 
L 127.477656 378.367897 
L 127.55542 377.793104 
L 129.693929 362.858335 
L 131.832438 349.486005 
L 133.970946 337.512456 
L 136.109455 326.79153 
L 138.247964 317.192102 
L 140.425355 308.434218 
L 142.602745 300.71417 
L 144.780136 293.805802 
L 146.957527 287.623673 
L 149.173799 281.998386 
L 150.223613 279.547725 
L 150.262495 230.076747 
L 150.262495 378.208791 
L 150.340259 377.634637 
L 152.478768 362.71643 
L 154.617276 349.358933 
L 156.755785 337.398733 
L 158.894294 326.689675 
L 161.032803 317.100927 
L 163.210193 308.353821 
L 165.387584 300.642179 
L 167.564975 293.741327 
L 169.742365 287.566021 
L 171.958638 281.946865 
L 172.96957 279.58728 
L 173.008452 230.076747 
L 173.008452 378.337486 
L 173.086216 377.762816 
L 175.224724 362.83124 
L 177.363233 349.461678 
L 179.501742 337.4907 
L 181.640251 326.772049 
L 183.778759 317.174698 
L 185.95615 308.41889 
L 188.133541 300.700425 
L 190.310931 293.793441 
L 192.488322 287.612696 
L 194.704595 281.988497 
L 195.754408 279.538429 
L 195.79329 230.076747 
L 195.79329 378.178414 
L 195.871054 377.604381 
L 198.009563 362.689334 
L 200.148072 349.334705 
L 202.28658 337.376978 
L 204.425089 326.670293 
L 206.563598 317.083522 
L 208.740989 308.338394 
L 210.918379 300.628434 
L 213.09577 293.729064 
L 215.273161 287.555044 
L 217.489434 281.936976 
L 218.500365 279.577985 
L 218.539247 230.076747 
L 218.539247 378.307081 
L 218.617011 377.732533 
L 220.75552 362.804144 
L 222.894028 349.43745 
L 225.032537 337.469043 
L 227.171046 326.752667 
L 229.309555 317.157293 
L 231.486945 308.403463 
L 233.664336 300.686679 
L 235.841727 293.781179 
L 238.019118 287.601621 
L 240.23539 281.978707 
L 241.285204 279.529134 
L 241.324086 230.076747 
L 241.324086 378.148044 
L 241.40185 377.574133 
L 243.540358 362.662338 
L 245.678867 349.310378 
L 247.817376 337.355321 
L 249.955885 326.650812 
L 252.094393 317.066118 
L 254.271784 308.323067 
L 256.449175 300.614688 
L 258.626566 293.716703 
L 260.803956 287.544067 
L 262.981347 282.020339 
L 264.03116 279.56859 
L 264.070042 230.076747 
L 264.070042 378.276684 
L 264.147806 377.702257 
L 266.286315 362.777049 
L 268.424824 349.413124 
L 270.563333 337.447288 
L 272.701841 326.733186 
L 274.84035 317.139889 
L 277.017741 308.388135 
L 279.15625 300.803269 
L 281.33364 293.885506 
L 283.511031 287.69507 
L 285.688422 282.15552 
L 286.777117 279.608146 
L 286.815999 230.076747 
L 286.815999 378.40544 
L 286.893763 377.830497 
L 289.032272 362.891859 
L 291.17078 349.515968 
L 293.309289 337.539353 
L 295.447798 326.81556 
L 297.586307 317.21366 
L 298.130654 314.934274 
L 298.402828 294.799733 
L 298.597238 279.894528 
L 298.63612 230.076747 
L 298.63612 375.957367 
L 298.713884 375.393286 
L 300.852393 360.735194 
L 302.990902 347.607909 
L 305.12941 335.851322 
L 307.267919 325.322538 
L 309.406428 315.893198 
L 311.544937 307.448495 
L 313.683445 299.88568 
L 316.016364 292.476836 
L 318.193755 286.469245 
L 320.410027 280.998819 
L 321.032139 279.570568 
L 321.071021 230.076747 
L 321.071021 378.284186 
L 321.148785 377.710789 
L 323.287294 362.81077 
L 325.425802 349.466623 
L 327.564311 337.516016 
L 329.70282 326.813385 
L 331.841329 317.228394 
L 333.979837 308.644257 
L 336.118346 300.956547 
L 338.451265 293.409555 
L 340.628656 287.30446 
L 342.844928 281.74533 
L 343.778096 279.585105 
L 343.816978 230.076747 
L 343.816978 378.331851 
L 343.894742 377.758263 
L 346.03325 362.853292 
L 348.171759 349.504794 
L 350.310268 337.550132 
L 352.448777 326.843941 
L 354.587285 317.255787 
L 356.725794 308.668782 
L 358.864303 300.9785 
L 361.197222 293.428541 
L 363.413494 287.218526 
L 365.629767 281.668493 
L 366.524052 279.599642 
L 366.562934 230.076747 
L 366.562934 378.379461 
L 366.640698 377.805684 
L 368.779207 362.895715 
L 370.917716 349.542767 
L 373.056225 337.584249 
L 375.194733 326.874498 
L 377.333242 317.28308 
L 379.471751 308.693306 
L 381.61026 301.000453 
L 383.98206 293.332422 
L 386.198333 287.13269 
L 388.375724 281.683623 
L 389.308891 279.526365 
L 389.347773 230.076747 
L 389.347773 378.139746 
L 389.425537 377.566928 
L 391.564046 362.681918 
L 393.702555 349.351318 
L 395.841063 337.412776 
L 397.979572 326.720924 
L 400.118081 317.145625 
L 402.25659 308.57019 
L 404.395098 300.890192 
L 406.728017 293.351408 
L 408.905408 287.252543 
L 411.12168 281.698852 
L 412.054848 279.540902 
L 412.09373 230.076747 
L 412.09373 378.187153 
L 412.171494 377.614146 
L 414.310003 362.724242 
L 416.448511 349.389193 
L 418.58702 337.446695 
L 420.725529 326.751381 
L 422.864038 317.172819 
L 425.002546 308.594516 
L 427.141055 300.912047 
L 429.473974 293.370395 
L 431.651364 287.269453 
L 433.867637 281.714081 
L 434.800805 279.555339 
L 434.839687 230.076747 
L 434.839687 378.234506 
L 434.91745 377.661309 
L 437.055959 362.766468 
L 439.194468 349.427067 
L 441.332977 337.480613 
L 443.471485 326.78174 
L 445.609994 317.200013 
L 447.748503 308.618942 
L 449.887012 300.933901 
L 452.21993 293.389283 
L 454.397321 287.286462 
L 456.574712 281.821375 
L 457.546761 279.569777 
L 457.585643 230.076747 
L 457.585643 378.281804 
L 457.663407 377.708418 
L 459.801916 362.808693 
L 461.940425 349.464843 
L 464.078933 337.514532 
L 466.217442 326.812099 
L 468.355951 317.227208 
L 470.49446 308.643268 
L 472.632968 300.955657 
L 475.004769 293.293163 
L 477.18216 287.20033 
L 479.398432 281.652275 
L 480.292718 279.584215 
L 480.3316 230.076747 
L 480.3316 378.329046 
L 480.409364 377.755472 
L 482.547873 362.85082 
L 484.686381 349.502618 
L 486.82489 337.548352 
L 488.963399 326.842359 
L 491.101908 317.254402 
L 493.240416 308.667595 
L 495.378925 300.977511 
L 497.750726 293.311952 
L 499.928116 287.21724 
L 502.144389 281.667405 
L 503.038675 279.598653 
L 503.077557 230.076747 
L 503.077557 378.376234 
L 503.155321 377.802471 
L 505.293829 362.892946 
L 507.432338 349.540394 
L 509.570847 337.582073 
L 511.709356 326.872619 
L 513.847864 317.281498 
L 515.986373 308.691922 
L 518.124882 300.999267 
L 520.4578 293.445847 
L 522.635191 287.337192 
L 524.812582 281.866864 
L 525.823513 279.525277 
L 525.862395 230.076747 
L 525.862395 378.136103 
L 525.940159 377.563302 
L 528.078668 362.678753 
L 530.217177 349.348549 
L 532.355686 337.410303 
L 534.494194 326.718847 
L 536.632703 317.143746 
L 538.771212 308.568509 
L 540.909721 300.888808 
L 543.242639 293.349529 
L 545.42003 287.250961 
L 547.636303 281.697566 
L 548.56947 279.539616 
L 548.608352 230.076747 
L 548.608352 378.183085 
L 548.686116 377.610097 
L 550.824625 362.720682 
L 552.963133 349.386127 
L 555.101642 337.444025 
L 557.240151 326.748909 
L 559.37866 317.170742 
L 561.517168 308.592736 
L 563.655677 300.910465 
L 565.988596 293.368318 
L 567.971577 287.785455 
L 567.971577 287.785455 
" style="fill:none;stroke:#3b7d86;stroke-linecap:square;stroke-width:1.5;"/>
   </g>
   <g id="patch_14">
    <path d="M 57.645625 385.821875 
L 57.645625 222.660313 
" style="fill:none;stroke:#000000;stroke-linecap:square;stroke-linejoin:miter;stroke-width:0.8;"/>
   </g>
   <g id="patch_15">
    <path d="M 592.272812 385.821875 
L 592.272812 222.660313 
" style="fill:none;stroke:#000000;stroke-linecap:square;stroke-linejoin:miter;stroke-width:0.8;"/>
   </g>
   <g id="patch_16">
    <path d="M 57.645625 385.821875 
L 592.272812 385.821875 
" style="fill:none;stroke:#000000;stroke-linecap:square;stroke-linejoin:miter;stroke-width:0.8;"/>
   </g>
   <g id="patch_17">
    <path d="M 57.645625 222.660313 
L 592.272812 222.660313 
" style="fill:none;stroke:#000000;stroke-linecap:square;stroke-linejoin:miter;stroke-width:0.8;"/>
   </g>
  </g>
  <g id="axes_4">
   <g id="patch_18">
    <path d="M 606.572812 385.821875 
L 1141.2 385.821875 
L 1141.2 222.660313 
L 606.572812 222.660313 
z
" style="fill:#ffffff;"/>
   </g>
   <g id="matplotlib.axis_7">
    <g id="xtick_19">
     <g id="line2d_50">
      <g>
       <use style="stroke:#000000;stroke-width:0.8;" x="630.874048" xlink:href="#me41714d98d" y="385.821875"/>
      </g>
     </g>
     <g id="text_27">
      <!-- 885 -->
      <g transform="translate(621.330298 400.420313)scale(0.1 -0.1)">
       <defs>
        <path d="M 31.78125 34.625 
Q 24.75 34.625 20.71875 30.859375 
Q 16.703125 27.09375 16.703125 20.515625 
Q 16.703125 13.921875 20.71875 10.15625 
Q 24.75 6.390625 31.78125 6.390625 
Q 38.8125 6.390625 42.859375 10.171875 
Q 46.921875 13.96875 46.921875 20.515625 
Q 46.921875 27.09375 42.890625 30.859375 
Q 38.875 34.625 31.78125 34.625 
z
M 21.921875 38.8125 
Q 15.578125 40.375 12.03125 44.71875 
Q 8.5 49.078125 8.5 55.328125 
Q 8.5 64.0625 14.71875 69.140625 
Q 20.953125 74.21875 31.78125 74.21875 
Q 42.671875 74.21875 48.875 69.140625 
Q 55.078125 64.0625 55.078125 55.328125 
Q 55.078125 49.078125 51.53125 44.71875 
Q 48 40.375 41.703125 38.8125 
Q 48.828125 37.15625 52.796875 32.3125 
Q 56.78125 27.484375 56.78125 20.515625 
Q 56.78125 9.90625 50.3125 4.234375 
Q 43.84375 -1.421875 31.78125 -1.421875 
Q 19.734375 -1.421875 13.25 4.234375 
Q 6.78125 9.90625 6.78125 20.515625 
Q 6.78125 27.484375 10.78125 32.3125 
Q 14.796875 37.15625 21.921875 38.8125 
z
M 18.3125 54.390625 
Q 18.3125 48.734375 21.84375 45.5625 
Q 25.390625 42.390625 31.78125 42.390625 
Q 38.140625 42.390625 41.71875 45.5625 
Q 45.3125 48.734375 45.3125 54.390625 
Q 45.3125 60.0625 41.71875 63.234375 
Q 38.140625 66.40625 31.78125 66.40625 
Q 25.390625 66.40625 21.84375 63.234375 
Q 18.3125 60.0625 18.3125 54.390625 
z
" id="DejaVuSans-56"/>
       </defs>
       <use xlink:href="#DejaVuSans-56"/>
       <use x="63.623047" xlink:href="#DejaVuSans-56"/>
       <use x="127.246094" xlink:href="#DejaVuSans-53"/>
      </g>
     </g>
    </g>
    <g id="xtick_20">
     <g id="line2d_51">
      <g>
       <use style="stroke:#000000;stroke-width:0.8;" x="728.078991" xlink:href="#me41714d98d" y="385.821875"/>
      </g>
     </g>
     <g id="text_28">
      <!-- 890 -->
      <g transform="translate(718.535241 400.420313)scale(0.1 -0.1)">
       <defs>
        <path d="M 10.984375 1.515625 
L 10.984375 10.5 
Q 14.703125 8.734375 18.5 7.8125 
Q 22.3125 6.890625 25.984375 6.890625 
Q 35.75 6.890625 40.890625 13.453125 
Q 46.046875 20.015625 46.78125 33.40625 
Q 43.953125 29.203125 39.59375 26.953125 
Q 35.25 24.703125 29.984375 24.703125 
Q 19.046875 24.703125 12.671875 31.3125 
Q 6.296875 37.9375 6.296875 49.421875 
Q 6.296875 60.640625 12.9375 67.421875 
Q 19.578125 74.21875 30.609375 74.21875 
Q 43.265625 74.21875 49.921875 64.515625 
Q 56.59375 54.828125 56.59375 36.375 
Q 56.59375 19.140625 48.40625 8.859375 
Q 40.234375 -1.421875 26.421875 -1.421875 
Q 22.703125 -1.421875 18.890625 -0.6875 
Q 15.09375 0.046875 10.984375 1.515625 
z
M 30.609375 32.421875 
Q 37.25 32.421875 41.125 36.953125 
Q 45.015625 41.5 45.015625 49.421875 
Q 45.015625 57.28125 41.125 61.84375 
Q 37.25 66.40625 30.609375 66.40625 
Q 23.96875 66.40625 20.09375 61.84375 
Q 16.21875 57.28125 16.21875 49.421875 
Q 16.21875 41.5 20.09375 36.953125 
Q 23.96875 32.421875 30.609375 32.421875 
z
" id="DejaVuSans-57"/>
       </defs>
       <use xlink:href="#DejaVuSans-56"/>
       <use x="63.623047" xlink:href="#DejaVuSans-57"/>
       <use x="127.246094" xlink:href="#DejaVuSans-48"/>
      </g>
     </g>
    </g>
    <g id="xtick_21">
     <g id="line2d_52">
      <g>
       <use style="stroke:#000000;stroke-width:0.8;" x="825.283935" xlink:href="#me41714d98d" y="385.821875"/>
      </g>
     </g>
     <g id="text_29">
      <!-- 895 -->
      <g transform="translate(815.740185 400.420313)scale(0.1 -0.1)">
       <use xlink:href="#DejaVuSans-56"/>
       <use x="63.623047" xlink:href="#DejaVuSans-57"/>
       <use x="127.246094" xlink:href="#DejaVuSans-53"/>
      </g>
     </g>
    </g>
    <g id="xtick_22">
     <g id="line2d_53">
      <g>
       <use style="stroke:#000000;stroke-width:0.8;" x="922.488878" xlink:href="#me41714d98d" y="385.821875"/>
      </g>
     </g>
     <g id="text_30">
      <!-- 900 -->
      <g transform="translate(912.945128 400.420313)scale(0.1 -0.1)">
       <use xlink:href="#DejaVuSans-57"/>
       <use x="63.623047" xlink:href="#DejaVuSans-48"/>
       <use x="127.246094" xlink:href="#DejaVuSans-48"/>
      </g>
     </g>
    </g>
    <g id="xtick_23">
     <g id="line2d_54">
      <g>
       <use style="stroke:#000000;stroke-width:0.8;" x="1019.693821" xlink:href="#me41714d98d" y="385.821875"/>
      </g>
     </g>
     <g id="text_31">
      <!-- 905 -->
      <g transform="translate(1010.150071 400.420313)scale(0.1 -0.1)">
       <use xlink:href="#DejaVuSans-57"/>
       <use x="63.623047" xlink:href="#DejaVuSans-48"/>
       <use x="127.246094" xlink:href="#DejaVuSans-53"/>
      </g>
     </g>
    </g>
    <g id="xtick_24">
     <g id="line2d_55">
      <g>
       <use style="stroke:#000000;stroke-width:0.8;" x="1116.898764" xlink:href="#me41714d98d" y="385.821875"/>
      </g>
     </g>
     <g id="text_32">
      <!-- 910 -->
      <g transform="translate(1107.355014 400.420313)scale(0.1 -0.1)">
       <use xlink:href="#DejaVuSans-57"/>
       <use x="63.623047" xlink:href="#DejaVuSans-49"/>
       <use x="127.246094" xlink:href="#DejaVuSans-48"/>
      </g>
     </g>
    </g>
    <g id="text_33">
     <!-- Time ($10^{-2}$ seconds) -->
     <g transform="translate(801.576406 418.288438)scale(0.14 -0.14)">
      <use transform="translate(0 0.765625)" xlink:href="#DejaVuSans-84"/>
      <use transform="translate(61.083984 0.765625)" xlink:href="#DejaVuSans-105"/>
      <use transform="translate(88.867188 0.765625)" xlink:href="#DejaVuSans-109"/>
      <use transform="translate(186.279297 0.765625)" xlink:href="#DejaVuSans-101"/>
      <use transform="translate(247.802734 0.765625)" xlink:href="#DejaVuSans-32"/>
      <use transform="translate(279.589844 0.765625)" xlink:href="#DejaVuSans-40"/>
      <use transform="translate(318.603516 0.765625)" xlink:href="#DejaVuSans-49"/>
      <use transform="translate(382.226562 0.765625)" xlink:href="#DejaVuSans-48"/>
      <use transform="translate(446.806641 39.046875)scale(0.7)" xlink:href="#DejaVuSans-8722"/>
      <use transform="translate(505.458984 39.046875)scale(0.7)" xlink:href="#DejaVuSans-50"/>
      <use transform="translate(552.729492 0.765625)" xlink:href="#DejaVuSans-32"/>
      <use transform="translate(584.516602 0.765625)" xlink:href="#DejaVuSans-115"/>
      <use transform="translate(636.616211 0.765625)" xlink:href="#DejaVuSans-101"/>
      <use transform="translate(698.139648 0.765625)" xlink:href="#DejaVuSans-99"/>
      <use transform="translate(753.120117 0.765625)" xlink:href="#DejaVuSans-111"/>
      <use transform="translate(814.301758 0.765625)" xlink:href="#DejaVuSans-110"/>
      <use transform="translate(877.680664 0.765625)" xlink:href="#DejaVuSans-100"/>
      <use transform="translate(941.157227 0.765625)" xlink:href="#DejaVuSans-115"/>
      <use transform="translate(993.256836 0.765625)" xlink:href="#DejaVuSans-41"/>
     </g>
    </g>
   </g>
   <g id="matplotlib.axis_8">
    <g id="ytick_26">
     <g id="line2d_56">
      <g>
       <use style="stroke:#000000;stroke-width:0.8;" x="606.572812" xlink:href="#m9a041d459e" y="378.409877"/>
      </g>
     </g>
    </g>
    <g id="ytick_27">
     <g id="line2d_57">
      <g>
       <use style="stroke:#000000;stroke-width:0.8;" x="606.572812" xlink:href="#m9a041d459e" y="353.687689"/>
      </g>
     </g>
    </g>
    <g id="ytick_28">
     <g id="line2d_58">
      <g>
       <use style="stroke:#000000;stroke-width:0.8;" x="606.572812" xlink:href="#m9a041d459e" y="328.965501"/>
      </g>
     </g>
    </g>
    <g id="ytick_29">
     <g id="line2d_59">
      <g>
       <use style="stroke:#000000;stroke-width:0.8;" x="606.572812" xlink:href="#m9a041d459e" y="304.243312"/>
      </g>
     </g>
    </g>
    <g id="ytick_30">
     <g id="line2d_60">
      <g>
       <use style="stroke:#000000;stroke-width:0.8;" x="606.572812" xlink:href="#m9a041d459e" y="279.521124"/>
      </g>
     </g>
    </g>
    <g id="ytick_31">
     <g id="line2d_61">
      <g>
       <use style="stroke:#000000;stroke-width:0.8;" x="606.572812" xlink:href="#m9a041d459e" y="254.798936"/>
      </g>
     </g>
    </g>
    <g id="ytick_32">
     <g id="line2d_62">
      <g>
       <use style="stroke:#000000;stroke-width:0.8;" x="606.572812" xlink:href="#m9a041d459e" y="230.076747"/>
      </g>
     </g>
    </g>
   </g>
   <g id="line2d_63">
    <path clip-path="url(#p5847bd33eb)" d="M 630.874048 372.946719 
L 632.973675 358.741399 
L 635.112184 345.859161 
L 637.250693 334.318349 
L 639.389201 323.979134 
L 641.52771 314.716521 
L 643.666219 306.418271 
L 645.84361 298.856446 
L 648.021 292.095422 
L 650.198391 286.050452 
L 652.414664 280.554709 
L 652.842365 279.564338 
L 652.881247 230.076747 
L 652.881247 378.261288 
L 652.959011 377.685607 
L 655.09752 362.706838 
L 657.236029 349.41164 
L 659.374538 337.500787 
L 661.513046 326.830097 
L 663.651555 317.270422 
L 665.790064 308.706261 
L 667.928573 301.033779 
L 670.105963 294.042047 
L 672.283354 287.790894 
L 674.460745 282.2018 
L 675.588322 279.544264 
L 675.627204 230.076747 
L 675.627204 378.196306 
L 675.704968 377.620884 
L 677.843477 362.650471 
L 679.981986 349.36091 
L 682.120494 337.455199 
L 684.259003 326.789157 
L 686.397512 317.233636 
L 688.536021 308.673133 
L 690.713411 300.872294 
L 692.890802 293.897571 
L 695.068193 287.661646 
L 697.245584 282.086199 
L 698.334279 279.523992 
L 698.373161 230.076747 
L 698.373161 378.130644 
L 698.450925 377.555483 
L 700.589434 362.593511 
L 702.727942 349.309686 
L 704.866451 337.409117 
L 707.00496 326.747723 
L 709.143469 317.196453 
L 711.281977 308.639708 
L 713.459368 300.84233 
L 715.597877 293.98845 
L 717.775268 287.742834 
L 719.952658 282.158685 
L 721.041354 279.592522 
L 721.080236 230.076747 
L 721.080236 378.352611 
L 721.158 377.776556 
L 723.296508 362.791091 
L 725.435017 349.486598 
L 727.573526 337.567438 
L 729.712035 326.88943 
L 731.850543 317.323229 
L 733.989052 308.753233 
L 736.127561 301.075609 
L 738.304951 294.079229 
L 740.482342 287.823824 
L 742.659733 282.231071 
L 743.78731 279.571755 
L 743.826192 230.076747 
L 743.826192 378.285435 
L 743.903956 377.709648 
L 746.042465 362.732747 
L 748.180974 349.434187 
L 750.319482 337.520268 
L 752.457991 326.847106 
L 754.5965 317.285255 
L 756.735009 308.719017 
L 758.912399 300.912937 
L 761.08979 293.933764 
L 763.267181 287.693686 
L 765.483454 282.020636 
L 766.533267 279.55079 
L 766.572149 230.076747 
L 766.572149 378.21756 
L 766.649913 377.642044 
L 768.788422 362.673809 
L 770.92693 349.381183 
L 773.065439 337.472702 
L 775.203948 326.804287 
L 777.342457 317.246788 
L 779.480965 308.684505 
L 781.619474 301.013803 
L 783.796865 294.023753 
L 785.974256 287.774181 
L 788.151646 282.186472 
L 789.279224 279.529628 
L 789.318106 230.076747 
L 789.318106 378.148981 
L 789.39587 377.573737 
L 791.534378 362.614278 
L 793.672887 349.327684 
L 795.811396 337.424642 
L 797.949905 326.761072 
L 800.088413 317.207924 
L 802.226922 308.649597 
L 804.365431 300.982456 
L 806.50394 294.113643 
L 808.68133 287.854479 
L 810.858721 282.258266 
L 811.986298 279.597268 
L 812.02518 230.076747 
L 812.02518 378.368045 
L 812.102944 377.791919 
L 814.241453 362.809286 
L 816.379962 349.502222 
L 818.518471 337.580887 
L 820.656979 326.900901 
L 822.795488 317.333118 
L 824.933997 308.761539 
L 827.111388 300.950712 
L 829.288778 293.967189 
L 831.466169 287.723452 
L 833.64356 282.140984 
L 834.732255 279.575612 
L 834.771137 230.076747 
L 834.771137 378.297901 
L 834.848901 377.722054 
L 836.98741 362.748371 
L 839.125919 349.447438 
L 841.264427 337.53164 
L 843.402936 326.856698 
L 845.541445 317.293364 
L 847.679954 308.725841 
L 849.857344 300.918672 
L 852.034735 293.938511 
L 854.212126 287.697642 
L 856.389516 282.117943 
L 857.478212 279.553757 
L 857.517094 230.076747 
L 857.517094 378.227033 
L 857.594858 377.65147 
L 859.733367 362.686763 
L 861.871875 349.392159 
L 864.010384 337.481899 
L 866.148893 326.812 
L 868.287402 317.253216 
L 870.42591 308.689746 
L 872.564419 301.018154 
L 874.74181 294.027313 
L 876.9192 287.777049 
L 879.096591 282.188747 
L 880.224169 279.531606 
L 880.263051 230.076747 
L 880.263051 378.155438 
L 880.340814 377.580159 
L 882.479323 362.624562 
L 884.617832 349.336188 
L 886.756341 337.431663 
L 888.894849 326.766808 
L 891.033358 317.212572 
L 893.171867 308.653355 
L 895.310376 300.985422 
L 897.448884 294.116016 
L 899.626275 287.85616 
L 901.803666 282.259452 
L 902.931243 279.598356 
L 902.970125 230.076747 
L 902.970125 378.371474 
L 903.047889 377.795324 
L 905.186398 362.817 
L 907.324907 349.508452 
L 909.463415 337.585831 
L 911.601924 326.904758 
L 913.740433 317.335985 
L 915.878942 308.763814 
L 918.01745 301.084212 
L 920.194841 294.086251 
L 922.372232 287.829559 
L 924.549623 282.23562 
L 925.6772 279.57571 
L 925.716082 230.076747 
L 925.716082 378.298259 
L 925.793846 377.722401 
L 927.932355 362.753414 
L 930.070863 349.451196 
L 932.209372 337.534409 
L 934.347881 326.858577 
L 936.48639 317.294551 
L 938.624898 308.726533 
L 940.763407 301.050788 
L 942.940798 294.056188 
L 945.118189 287.802563 
L 947.295579 282.211392 
L 948.423157 279.552867 
L 948.462039 230.076747 
L 948.462039 378.224296 
L 948.539803 377.648734 
L 950.678311 362.689137 
L 952.81682 349.393445 
L 954.955329 337.482492 
L 957.093838 326.811901 
L 959.232346 317.252622 
L 961.370855 308.688856 
L 963.509364 301.016869 
L 965.686755 294.02583 
L 967.864145 287.775368 
L 970.041536 282.186967 
L 971.169113 279.529826 
L 971.207995 230.076747 
L 971.207995 378.14958 
L 971.285759 377.574316 
L 973.424268 362.624167 
L 975.562777 349.3351 
L 977.701286 337.430081 
L 979.839794 326.76483 
L 981.978303 317.210298 
L 984.116812 308.650784 
L 986.255321 300.982752 
L 988.393829 294.113247 
L 990.57122 287.853391 
L 992.748611 282.256683 
L 993.876188 279.595587 
L 993.91507 230.076747 
L 993.91507 378.362457 
L 993.992834 377.786334 
L 996.131343 362.813835 
L 998.269852 349.504794 
L 1000.40836 337.581974 
L 1002.546869 326.900703 
L 1004.685378 317.331931 
L 1006.823887 308.75966 
L 1008.962395 301.080158 
L 1011.100904 294.200368 
L 1013.278295 287.931217 
L 1015.494567 282.231763 
L 1016.622145 279.571953 
L 1016.661027 230.076747 
L 1016.661027 378.286064 
L 1016.738791 377.710245 
L 1018.877299 362.747382 
L 1021.015808 349.445164 
L 1023.154317 337.528278 
L 1025.292826 326.852545 
L 1027.431334 317.288618 
L 1029.569843 308.720698 
L 1031.747234 300.913332 
L 1033.885743 294.050848 
L 1036.063133 287.79742 
L 1038.240524 282.206547 
L 1039.368102 279.548121 
L 1039.406983 230.076747 
L 1039.406983 378.208898 
L 1039.484747 377.633387 
L 1041.623256 362.680237 
L 1043.761765 349.384842 
L 1045.900274 337.474087 
L 1048.038782 326.803891 
L 1050.177291 317.244909 
L 1052.3158 308.681439 
L 1054.454309 301.009848 
L 1056.631699 294.019204 
L 1058.80909 287.769039 
L 1060.986481 282.181034 
L 1062.114058 279.524091 
L 1062.15294 230.076747 
L 1062.15294 378.130952 
L 1062.230704 377.555751 
L 1064.330331 362.867927 
L 1066.46884 349.552755 
L 1068.607348 337.624299 
L 1070.745857 326.938281 
L 1072.884366 317.365158 
L 1075.022875 308.789129 
L 1077.161383 301.106165 
L 1079.338774 294.105237 
L 1081.516165 287.845876 
L 1083.693556 282.249662 
L 1084.821133 279.588764 
L 1084.860015 230.076747 
L 1084.860015 378.340531 
L 1084.937779 377.764487 
L 1087.037406 363.055025 
L 1089.175914 349.720173 
L 1091.314423 337.774214 
L 1093.452932 327.072374 
L 1095.591441 317.485209 
L 1097.729949 308.896523 
L 1099.868458 301.202285 
L 1102.045849 294.191073 
L 1104.22324 287.922515 
L 1106.439512 282.223655 
L 1107.56709 279.56414 
L 1107.605972 230.076747 
L 1107.605972 378.260848 
L 1107.683736 377.685121 
L 1109.783362 362.985605 
L 1111.921871 349.657774 
L 1114.06038 337.718144 
L 1116.198889 327.02204 
L 1116.898764 323.769292 
L 1116.898764 323.769292 
" style="fill:none;stroke:#aa3863;stroke-linecap:square;stroke-width:1.5;"/>
   </g>
   <g id="line2d_64">
    <path clip-path="url(#p5847bd33eb)" d="M 630.874048 279.63623 
L 630.91293 279.548912 
L 630.951812 230.076747 
L 630.951812 378.214722 
L 631.029576 377.642857 
L 633.168085 362.780708 
L 635.306594 349.467414 
L 637.445102 337.541331 
L 639.583611 326.858082 
L 641.72212 317.288123 
L 643.860629 308.715358 
L 646.038019 300.904037 
L 648.21541 293.920711 
L 650.392801 287.677567 
L 652.570192 282.096187 
L 653.620005 279.562657 
L 653.658887 230.076747 
L 653.658887 378.259657 
L 653.736651 377.687619 
L 655.87516 362.821054 
L 658.013668 349.503607 
L 660.152177 337.573964 
L 662.290686 326.887452 
L 664.429195 317.314527 
L 666.567703 308.739092 
L 668.706212 301.057314 
L 670.883603 294.05787 
L 673.060994 287.800189 
L 675.277266 282.111614 
L 676.32708 279.57571 
L 676.365962 230.076747 
L 676.365962 378.302535 
L 676.443726 377.730332 
L 678.582234 362.859423 
L 680.720743 349.538218 
L 682.859252 337.605015 
L 684.997761 326.915438 
L 687.136269 317.339644 
L 689.274778 308.761737 
L 691.452169 300.945669 
L 693.62956 293.958091 
L 695.80695 287.71109 
L 697.984341 282.126348 
L 699.034154 279.588072 
L 699.073036 230.076747 
L 699.073036 378.34333 
L 699.1508 377.770971 
L 701.289309 362.896012 
L 703.427818 349.571049 
L 705.566327 337.634682 
L 707.704835 326.942039 
L 709.843344 317.363674 
L 711.981853 308.783394 
L 714.120362 301.097167 
L 716.25887 294.211839 
L 718.436261 287.93804 
L 720.613652 282.329268 
L 721.741229 279.599839 
L 721.780111 230.076747 
L 721.780111 378.382017 
L 721.857875 377.809511 
L 723.996384 362.930722 
L 726.134893 349.602298 
L 728.273401 337.662766 
L 730.41191 326.967354 
L 732.550419 317.386419 
L 734.688928 308.803864 
L 736.827436 301.115659 
L 739.004827 294.110182 
L 741.182218 287.84726 
L 743.359609 282.24808 
L 744.487186 279.523794 
L 744.526068 230.076747 
L 744.526068 378.13196 
L 744.603832 377.56046 
L 746.742341 362.707827 
L 748.880849 349.40274 
L 751.019358 337.484173 
L 753.157867 326.807451 
L 755.296376 317.243327 
L 757.434884 308.675803 
L 759.573393 301.000948 
L 761.750784 294.007733 
L 763.928175 287.755689 
L 766.144447 282.072157 
L 767.194261 279.534177 
L 767.233143 230.076747 
L 767.233143 378.166288 
L 767.310907 377.594657 
L 769.449415 362.738581 
L 771.587924 349.430528 
L 773.726433 337.509192 
L 775.864942 326.829998 
L 778.00345 317.263599 
L 780.141959 308.694097 
L 782.280468 301.017462 
L 784.457859 294.022566 
L 786.635249 287.769039 
L 788.81264 282.178364 
L 789.901335 279.543967 
L 789.940217 230.076747 
L 789.940217 378.198432 
L 790.017981 377.62668 
L 792.15649 362.767457 
L 794.294999 349.456536 
L 796.433508 337.532629 
L 798.572016 326.85116 
L 800.710525 317.282684 
L 802.849034 308.711205 
L 804.987543 301.032889 
L 807.164933 294.036411 
L 809.342324 287.781499 
L 811.519715 282.189538 
L 812.60841 279.553065 
L 812.647292 230.076747 
L 812.647292 378.228366 
L 812.725056 377.656502 
L 814.863565 362.794354 
L 817.002073 349.480764 
L 819.140582 337.554483 
L 821.279091 326.870839 
L 823.4176 317.300484 
L 825.556108 308.727225 
L 827.733499 300.915409 
L 829.91089 293.93149 
L 832.088281 287.687753 
L 834.265671 282.105779 
L 835.315485 279.56147 
L 835.354367 230.076747 
L 835.354367 378.256063 
L 835.432131 377.684096 
L 837.570639 362.819274 
L 839.709148 349.50331 
L 841.847657 337.574755 
L 843.986166 326.889133 
L 846.124674 317.3169 
L 848.263183 308.742157 
L 850.401692 301.060775 
L 852.540201 294.179799 
L 854.717591 287.909857 
L 856.894982 282.304348 
L 858.02256 279.569283 
L 858.061441 230.076747 
L 858.061441 378.281495 
L 858.139205 377.709433 
L 860.277714 362.842118 
L 862.416223 349.523978 
L 864.554732 337.593445 
L 866.69324 326.906043 
L 868.831749 317.332129 
L 870.970258 308.755804 
L 873.108767 301.073137 
L 875.286157 294.072703 
L 877.463548 287.814133 
L 879.640939 282.218908 
L 880.729634 279.576304 
L 880.768516 230.076747 
L 880.768516 378.304633 
L 880.84628 377.732486 
L 882.984789 362.862983 
L 885.123298 349.542767 
L 887.261806 337.610454 
L 889.400315 326.921371 
L 891.538824 317.346072 
L 893.677333 308.768363 
L 895.854723 300.952492 
L 897.993232 294.082888 
L 900.170623 287.823329 
L 902.348014 282.227215 
L 903.436709 279.582633 
L 903.475591 230.076747 
L 903.475591 378.325449 
L 903.553355 377.753227 
L 905.691864 362.881772 
L 907.830372 349.559776 
L 909.968881 337.625782 
L 912.10739 326.935216 
L 914.245899 317.358631 
L 916.384407 308.779735 
L 918.561798 300.962678 
L 920.739189 293.974111 
L 922.91658 287.72622 
L 925.09397 282.140489 
L 926.143784 279.588269 
L 926.182666 230.076747 
L 926.182666 378.343914 
L 926.26043 377.771627 
L 928.398938 362.898385 
L 930.537447 349.574807 
L 932.675956 337.639429 
L 934.814465 326.947676 
L 936.952973 317.369805 
L 939.091482 308.78992 
L 941.229991 301.10399 
L 943.3685 294.218762 
L 945.54589 287.944962 
L 947.723281 282.336091 
L 948.850858 279.593115 
L 948.88974 230.076747 
L 948.88974 378.359999 
L 948.967504 377.787654 
L 951.106013 362.912922 
L 953.244522 349.588058 
L 955.383031 337.651493 
L 957.521539 326.958553 
L 959.660048 317.379694 
L 961.798557 308.79882 
L 963.937066 301.112099 
L 966.075574 294.226178 
L 968.252965 287.951687 
L 970.430356 282.342123 
L 971.557933 279.597268 
L 971.596815 230.076747 
L 971.596815 378.373674 
L 971.674579 377.801282 
L 973.813088 362.925382 
L 975.951597 349.599331 
L 978.090105 337.661679 
L 980.228614 326.967849 
L 982.367123 317.388199 
L 984.505632 308.806534 
L 986.64414 301.119021 
L 988.782649 294.232507 
L 990.96004 287.957422 
L 993.137431 282.347364 
L 994.265008 279.600729 
L 994.30389 230.076747 
L 994.30389 378.384908 
L 994.381654 377.81248 
L 996.520163 362.935567 
L 998.658671 349.608627 
L 1000.79718 337.670183 
L 1002.935689 326.975562 
L 1005.074198 317.39522 
L 1007.212706 308.812962 
L 1009.351215 301.124954 
L 1011.528606 294.119477 
L 1013.705997 287.856457 
L 1015.922269 282.162838 
L 1016.972083 279.603399 
L 1017.010965 230.076747 
L 1017.010965 378.393672 
L 1017.088729 377.821216 
L 1019.227237 362.943577 
L 1021.365746 349.616043 
L 1023.504255 337.677006 
L 1025.642764 326.981792 
L 1027.781272 317.400856 
L 1029.919781 308.818203 
L 1032.05829 301.129701 
L 1034.235681 294.123828 
L 1036.413071 287.860412 
L 1038.629344 282.166398 
L 1039.679157 279.605278 
L 1039.718039 230.076747 
L 1039.718039 378.399933 
L 1039.795803 377.827461 
L 1041.934312 362.949412 
L 1044.072821 349.621383 
L 1046.21133 337.681951 
L 1048.349838 326.986341 
L 1050.488347 317.405109 
L 1052.626856 308.822059 
L 1054.765365 301.133261 
L 1056.942755 294.127191 
L 1059.120146 287.863478 
L 1061.297537 282.263606 
L 1062.386232 279.606366 
L 1062.425114 230.076747 
L 1062.425114 378.403662 
L 1062.502878 377.831182 
L 1064.641387 362.952972 
L 1066.779895 349.624746 
L 1068.918404 337.685115 
L 1071.056913 326.989308 
L 1073.195422 317.407878 
L 1075.33393 308.824729 
L 1077.472439 301.135733 
L 1079.64983 294.129465 
L 1081.827221 287.865555 
L 1084.043493 282.171145 
L 1085.093307 279.606762 
L 1085.132189 230.076747 
L 1085.132189 378.404825 
L 1085.209953 377.832349 
L 1087.348461 362.954158 
L 1089.48697 349.626031 
L 1091.625479 337.686401 
L 1093.763988 326.990692 
L 1095.902496 317.409262 
L 1098.041005 308.826015 
L 1100.179514 301.137019 
L 1102.356905 294.130652 
L 1104.534295 287.866741 
L 1106.750568 282.172331 
L 1107.800382 279.606267 
L 1107.839263 230.076747 
L 1107.839263 378.40339 
L 1107.917027 377.830928 
L 1110.055536 362.953071 
L 1112.194045 349.62524 
L 1114.332554 337.685906 
L 1116.471062 326.990396 
L 1116.898764 324.988887 
L 1116.898764 324.988887 
" style="fill:none;stroke:#3b7d86;stroke-linecap:square;stroke-width:1.5;"/>
   </g>
   <g id="patch_19">
    <path d="M 606.572812 385.821875 
L 606.572812 222.660313 
" style="fill:none;stroke:#000000;stroke-linecap:square;stroke-linejoin:miter;stroke-width:0.8;"/>
   </g>
   <g id="patch_20">
    <path d="M 1141.2 385.821875 
L 1141.2 222.660313 
" style="fill:none;stroke:#000000;stroke-linecap:square;stroke-linejoin:miter;stroke-width:0.8;"/>
   </g>
   <g id="patch_21">
    <path d="M 606.572812 385.821875 
L 1141.2 385.821875 
" style="fill:none;stroke:#000000;stroke-linecap:square;stroke-linejoin:miter;stroke-width:0.8;"/>
   </g>
   <g id="patch_22">
    <path d="M 606.572812 222.660313 
L 1141.2 222.660313 
" style="fill:none;stroke:#000000;stroke-linecap:square;stroke-linejoin:miter;stroke-width:0.8;"/>
   </g>
   <g id="legend_2">
    <g id="patch_23">
     <path d="M 1075.42 279.381516 
L 1132.1 279.381516 
Q 1134.7 279.381516 1134.7 276.781516 
L 1134.7 239.918391 
Q 1134.7 237.318391 1132.1 237.318391 
L 1075.42 237.318391 
Q 1072.82 237.318391 1072.82 239.918391 
L 1072.82 276.781516 
Q 1072.82 279.381516 1075.42 279.381516 
z
" style="fill:#ffffff;opacity:0.8;stroke:#cccccc;stroke-linejoin:miter;"/>
    </g>
    <g id="line2d_65">
     <path d="M 1078.02 247.846359 
L 1104.02 247.846359 
" style="fill:none;stroke:#aa3863;stroke-linecap:square;stroke-width:1.5;"/>
    </g>
    <g id="line2d_66"/>
    <g id="text_34">
     <!-- $V_1$ -->
     <g transform="translate(1114.42 252.396359)scale(0.13 -0.13)">
      <use transform="translate(0 0.09375)" xlink:href="#DejaVuSans-Oblique-86"/>
      <use transform="translate(68.408203 -16.3125)scale(0.7)" xlink:href="#DejaVuSans-49"/>
     </g>
    </g>
    <g id="line2d_67">
     <path d="M 1078.02 266.927922 
L 1104.02 266.927922 
" style="fill:none;stroke:#3b7d86;stroke-linecap:square;stroke-width:1.5;"/>
    </g>
    <g id="line2d_68"/>
    <g id="text_35">
     <!-- $V_2$ -->
     <g transform="translate(1114.42 271.477922)scale(0.13 -0.13)">
      <use transform="translate(0 0.09375)" xlink:href="#DejaVuSans-Oblique-86"/>
      <use transform="translate(68.408203 -16.3125)scale(0.7)" xlink:href="#DejaVuSans-50"/>
     </g>
    </g>
   </g>
  </g>
  <g id="text_36">
   <!-- System is perturbed by a pulse current -->
   <g transform="translate(400.078125 22.317187)scale(0.18 -0.18)">
    <defs>
     <path d="M 53.515625 70.515625 
L 53.515625 60.890625 
Q 47.90625 63.578125 42.921875 64.890625 
Q 37.9375 66.21875 33.296875 66.21875 
Q 25.25 66.21875 20.875 63.09375 
Q 16.5 59.96875 16.5 54.203125 
Q 16.5 49.359375 19.40625 46.890625 
Q 22.3125 44.4375 30.421875 42.921875 
L 36.375 41.703125 
Q 47.40625 39.59375 52.65625 34.296875 
Q 57.90625 29 57.90625 20.125 
Q 57.90625 9.515625 50.796875 4.046875 
Q 43.703125 -1.421875 29.984375 -1.421875 
Q 24.8125 -1.421875 18.96875 -0.25 
Q 13.140625 0.921875 6.890625 3.21875 
L 6.890625 13.375 
Q 12.890625 10.015625 18.65625 8.296875 
Q 24.421875 6.59375 29.984375 6.59375 
Q 38.421875 6.59375 43.015625 9.90625 
Q 47.609375 13.234375 47.609375 19.390625 
Q 47.609375 24.75 44.3125 27.78125 
Q 41.015625 30.8125 33.5 32.328125 
L 27.484375 33.5 
Q 16.453125 35.6875 11.515625 40.375 
Q 6.59375 45.0625 6.59375 53.421875 
Q 6.59375 63.09375 13.40625 68.65625 
Q 20.21875 74.21875 32.171875 74.21875 
Q 37.3125 74.21875 42.625 73.28125 
Q 47.953125 72.359375 53.515625 70.515625 
z
" id="DejaVuSans-83"/>
     <path d="M 32.171875 -5.078125 
Q 28.375 -14.84375 24.75 -17.8125 
Q 21.140625 -20.796875 15.09375 -20.796875 
L 7.90625 -20.796875 
L 7.90625 -13.28125 
L 13.1875 -13.28125 
Q 16.890625 -13.28125 18.9375 -11.515625 
Q 21 -9.765625 23.484375 -3.21875 
L 25.09375 0.875 
L 2.984375 54.6875 
L 12.5 54.6875 
L 29.59375 11.921875 
L 46.6875 54.6875 
L 56.203125 54.6875 
z
" id="DejaVuSans-121"/>
     <path d="M 18.109375 8.203125 
L 18.109375 -20.796875 
L 9.078125 -20.796875 
L 9.078125 54.6875 
L 18.109375 54.6875 
L 18.109375 46.390625 
Q 20.953125 51.265625 25.265625 53.625 
Q 29.59375 56 35.59375 56 
Q 45.5625 56 51.78125 48.09375 
Q 58.015625 40.1875 58.015625 27.296875 
Q 58.015625 14.40625 51.78125 6.484375 
Q 45.5625 -1.421875 35.59375 -1.421875 
Q 29.59375 -1.421875 25.265625 0.953125 
Q 20.953125 3.328125 18.109375 8.203125 
z
M 48.6875 27.296875 
Q 48.6875 37.203125 44.609375 42.84375 
Q 40.53125 48.484375 33.40625 48.484375 
Q 26.265625 48.484375 22.1875 42.84375 
Q 18.109375 37.203125 18.109375 27.296875 
Q 18.109375 17.390625 22.1875 11.75 
Q 26.265625 6.109375 33.40625 6.109375 
Q 40.53125 6.109375 44.609375 11.75 
Q 48.6875 17.390625 48.6875 27.296875 
z
" id="DejaVuSans-112"/>
     <path d="M 48.6875 27.296875 
Q 48.6875 37.203125 44.609375 42.84375 
Q 40.53125 48.484375 33.40625 48.484375 
Q 26.265625 48.484375 22.1875 42.84375 
Q 18.109375 37.203125 18.109375 27.296875 
Q 18.109375 17.390625 22.1875 11.75 
Q 26.265625 6.109375 33.40625 6.109375 
Q 40.53125 6.109375 44.609375 11.75 
Q 48.6875 17.390625 48.6875 27.296875 
z
M 18.109375 46.390625 
Q 20.953125 51.265625 25.265625 53.625 
Q 29.59375 56 35.59375 56 
Q 45.5625 56 51.78125 48.09375 
Q 58.015625 40.1875 58.015625 27.296875 
Q 58.015625 14.40625 51.78125 6.484375 
Q 45.5625 -1.421875 35.59375 -1.421875 
Q 29.59375 -1.421875 25.265625 0.953125 
Q 20.953125 3.328125 18.109375 8.203125 
L 18.109375 0 
L 9.078125 0 
L 9.078125 75.984375 
L 18.109375 75.984375 
z
" id="DejaVuSans-98"/>
    </defs>
    <use xlink:href="#DejaVuSans-83"/>
    <use x="63.476562" xlink:href="#DejaVuSans-121"/>
    <use x="122.65625" xlink:href="#DejaVuSans-115"/>
    <use x="174.755859" xlink:href="#DejaVuSans-116"/>
    <use x="213.964844" xlink:href="#DejaVuSans-101"/>
    <use x="275.488281" xlink:href="#DejaVuSans-109"/>
    <use x="372.900391" xlink:href="#DejaVuSans-32"/>
    <use x="404.6875" xlink:href="#DejaVuSans-105"/>
    <use x="432.470703" xlink:href="#DejaVuSans-115"/>
    <use x="484.570312" xlink:href="#DejaVuSans-32"/>
    <use x="516.357422" xlink:href="#DejaVuSans-112"/>
    <use x="579.833984" xlink:href="#DejaVuSans-101"/>
    <use x="641.357422" xlink:href="#DejaVuSans-114"/>
    <use x="682.470703" xlink:href="#DejaVuSans-116"/>
    <use x="721.679688" xlink:href="#DejaVuSans-117"/>
    <use x="785.058594" xlink:href="#DejaVuSans-114"/>
    <use x="826.171875" xlink:href="#DejaVuSans-98"/>
    <use x="889.648438" xlink:href="#DejaVuSans-101"/>
    <use x="951.171875" xlink:href="#DejaVuSans-100"/>
    <use x="1014.648438" xlink:href="#DejaVuSans-32"/>
    <use x="1046.435547" xlink:href="#DejaVuSans-98"/>
    <use x="1109.912109" xlink:href="#DejaVuSans-121"/>
    <use x="1169.091797" xlink:href="#DejaVuSans-32"/>
    <use x="1200.878906" xlink:href="#DejaVuSans-97"/>
    <use x="1262.158203" xlink:href="#DejaVuSans-32"/>
    <use x="1293.945312" xlink:href="#DejaVuSans-112"/>
    <use x="1357.421875" xlink:href="#DejaVuSans-117"/>
    <use x="1420.800781" xlink:href="#DejaVuSans-108"/>
    <use x="1448.583984" xlink:href="#DejaVuSans-115"/>
    <use x="1500.683594" xlink:href="#DejaVuSans-101"/>
    <use x="1562.207031" xlink:href="#DejaVuSans-32"/>
    <use x="1593.994141" xlink:href="#DejaVuSans-99"/>
    <use x="1648.974609" xlink:href="#DejaVuSans-117"/>
    <use x="1712.353516" xlink:href="#DejaVuSans-114"/>
    <use x="1751.716797" xlink:href="#DejaVuSans-114"/>
    <use x="1790.580078" xlink:href="#DejaVuSans-101"/>
    <use x="1852.103516" xlink:href="#DejaVuSans-110"/>
    <use x="1915.482422" xlink:href="#DejaVuSans-116"/>
   </g>
  </g>
 </g>
 <defs>
  <clipPath id="p65cf8eb685">
   <rect height="163.161562" width="534.627187" x="57.645625" y="42.819844"/>
  </clipPath>
  <clipPath id="pd0de2a552f">
   <rect height="163.161562" width="534.627187" x="606.572812" y="42.819844"/>
  </clipPath>
  <clipPath id="pebaf3b992b">
   <rect height="163.161562" width="534.627187" x="57.645625" y="222.660313"/>
  </clipPath>
  <clipPath id="p5847bd33eb">
   <rect height="163.161562" width="534.627187" x="606.572812" y="222.660313"/>
  </clipPath>
 </defs>
</svg>
