<?xml version="1.0" encoding="utf-8" standalone="no"?>
<!DOCTYPE svg PUBLIC "-//W3C//DTD SVG 1.1//EN"
  "http://www.w3.org/Graphics/SVG/1.1/DTD/svg11.dtd">
<!-- Created with matplotlib (https://matplotlib.org/) -->
<svg height="432pt" version="1.1" viewBox="0 0 1152 432" width="1152pt" xmlns="http://www.w3.org/2000/svg" xmlns:xlink="http://www.w3.org/1999/xlink">
 <metadata>
  <rdf:RDF xmlns:cc="http://creativecommons.org/ns#" xmlns:dc="http://purl.org/dc/elements/1.1/" xmlns:rdf="http://www.w3.org/1999/02/22-rdf-syntax-ns#">
   <cc:Work>
    <dc:type rdf:resource="http://purl.org/dc/dcmitype/StillImage"/>
    <dc:date>2021-08-14T19:04:43.720660</dc:date>
    <dc:format>image/svg+xml</dc:format>
    <dc:creator>
     <cc:Agent>
      <dc:title>Matplotlib v3.3.3, https://matplotlib.org/</dc:title>
     </cc:Agent>
    </dc:creator>
   </cc:Work>
  </rdf:RDF>
 </metadata>
 <defs>
  <style type="text/css">*{stroke-linecap:butt;stroke-linejoin:round;}</style>
 </defs>
 <g id="figure_1">
  <g id="patch_1">
   <path d="M 0 432 
L 1152 432 
L 1152 0 
L 0 0 
z
" style="fill:#ffffff;"/>
  </g>
  <g id="axes_1">
   <g id="patch_2">
    <path d="M 55.705625 205.095781 
L 588.121562 205.095781 
L 588.121562 38.948594 
L 55.705625 38.948594 
z
" style="fill:#ffffff;"/>
   </g>
   <g id="matplotlib.axis_1">
    <g id="xtick_1">
     <g id="line2d_1">
      <defs>
       <path d="M 0 0 
L 0 3.5 
" id="m583b8b59eb" style="stroke:#000000;stroke-width:0.8;"/>
      </defs>
      <g>
       <use style="stroke:#000000;stroke-width:0.8;" x="91.200021" xlink:href="#m583b8b59eb" y="205.095781"/>
      </g>
     </g>
    </g>
    <g id="xtick_2">
     <g id="line2d_2">
      <g>
       <use style="stroke:#000000;stroke-width:0.8;" x="162.188812" xlink:href="#m583b8b59eb" y="205.095781"/>
      </g>
     </g>
    </g>
    <g id="xtick_3">
     <g id="line2d_3">
      <g>
       <use style="stroke:#000000;stroke-width:0.8;" x="233.177604" xlink:href="#m583b8b59eb" y="205.095781"/>
      </g>
     </g>
    </g>
    <g id="xtick_4">
     <g id="line2d_4">
      <g>
       <use style="stroke:#000000;stroke-width:0.8;" x="304.166396" xlink:href="#m583b8b59eb" y="205.095781"/>
      </g>
     </g>
    </g>
    <g id="xtick_5">
     <g id="line2d_5">
      <g>
       <use style="stroke:#000000;stroke-width:0.8;" x="375.155187" xlink:href="#m583b8b59eb" y="205.095781"/>
      </g>
     </g>
    </g>
    <g id="xtick_6">
     <g id="line2d_6">
      <g>
       <use style="stroke:#000000;stroke-width:0.8;" x="446.143979" xlink:href="#m583b8b59eb" y="205.095781"/>
      </g>
     </g>
    </g>
    <g id="xtick_7">
     <g id="line2d_7">
      <g>
       <use style="stroke:#000000;stroke-width:0.8;" x="517.132771" xlink:href="#m583b8b59eb" y="205.095781"/>
      </g>
     </g>
    </g>
    <g id="xtick_8">
     <g id="line2d_8">
      <g>
       <use style="stroke:#000000;stroke-width:0.8;" x="588.121562" xlink:href="#m583b8b59eb" y="205.095781"/>
      </g>
     </g>
    </g>
   </g>
   <g id="matplotlib.axis_2">
    <g id="ytick_1">
     <g id="line2d_9">
      <defs>
       <path d="M 0 0 
L -3.5 0 
" id="mf86fa53987" style="stroke:#000000;stroke-width:0.8;"/>
      </defs>
      <g>
       <use style="stroke:#000000;stroke-width:0.8;" x="55.705625" xlink:href="#mf86fa53987" y="205.095781"/>
      </g>
     </g>
     <g id="text_1">
      <!-- 1.2 -->
      <g transform="translate(32.8025 208.895)scale(0.1 -0.1)">
       <defs>
        <path d="M 12.40625 8.296875 
L 28.515625 8.296875 
L 28.515625 63.921875 
L 10.984375 60.40625 
L 10.984375 69.390625 
L 28.421875 72.90625 
L 38.28125 72.90625 
L 38.28125 8.296875 
L 54.390625 8.296875 
L 54.390625 0 
L 12.40625 0 
z
" id="DejaVuSans-49"/>
        <path d="M 10.6875 12.40625 
L 21 12.40625 
L 21 0 
L 10.6875 0 
z
" id="DejaVuSans-46"/>
        <path d="M 19.1875 8.296875 
L 53.609375 8.296875 
L 53.609375 0 
L 7.328125 0 
L 7.328125 8.296875 
Q 12.9375 14.109375 22.625 23.890625 
Q 32.328125 33.6875 34.8125 36.53125 
Q 39.546875 41.84375 41.421875 45.53125 
Q 43.3125 49.21875 43.3125 52.78125 
Q 43.3125 58.59375 39.234375 62.25 
Q 35.15625 65.921875 28.609375 65.921875 
Q 23.96875 65.921875 18.8125 64.3125 
Q 13.671875 62.703125 7.8125 59.421875 
L 7.8125 69.390625 
Q 13.765625 71.78125 18.9375 73 
Q 24.125 74.21875 28.421875 74.21875 
Q 39.75 74.21875 46.484375 68.546875 
Q 53.21875 62.890625 53.21875 53.421875 
Q 53.21875 48.921875 51.53125 44.890625 
Q 49.859375 40.875 45.40625 35.40625 
Q 44.1875 33.984375 37.640625 27.21875 
Q 31.109375 20.453125 19.1875 8.296875 
z
" id="DejaVuSans-50"/>
       </defs>
       <use xlink:href="#DejaVuSans-49"/>
       <use x="63.623047" xlink:href="#DejaVuSans-46"/>
       <use x="95.410156" xlink:href="#DejaVuSans-50"/>
      </g>
     </g>
    </g>
    <g id="ytick_2">
     <g id="line2d_10">
      <g>
       <use style="stroke:#000000;stroke-width:0.8;" x="55.705625" xlink:href="#mf86fa53987" y="184.327383"/>
      </g>
     </g>
     <g id="text_2">
      <!-- 1.3 -->
      <g transform="translate(32.8025 188.126602)scale(0.1 -0.1)">
       <defs>
        <path d="M 40.578125 39.3125 
Q 47.65625 37.796875 51.625 33 
Q 55.609375 28.21875 55.609375 21.1875 
Q 55.609375 10.40625 48.1875 4.484375 
Q 40.765625 -1.421875 27.09375 -1.421875 
Q 22.515625 -1.421875 17.65625 -0.515625 
Q 12.796875 0.390625 7.625 2.203125 
L 7.625 11.71875 
Q 11.71875 9.328125 16.59375 8.109375 
Q 21.484375 6.890625 26.8125 6.890625 
Q 36.078125 6.890625 40.9375 10.546875 
Q 45.796875 14.203125 45.796875 21.1875 
Q 45.796875 27.640625 41.28125 31.265625 
Q 36.765625 34.90625 28.71875 34.90625 
L 20.21875 34.90625 
L 20.21875 43.015625 
L 29.109375 43.015625 
Q 36.375 43.015625 40.234375 45.921875 
Q 44.09375 48.828125 44.09375 54.296875 
Q 44.09375 59.90625 40.109375 62.90625 
Q 36.140625 65.921875 28.71875 65.921875 
Q 24.65625 65.921875 20.015625 65.03125 
Q 15.375 64.15625 9.8125 62.3125 
L 9.8125 71.09375 
Q 15.4375 72.65625 20.34375 73.4375 
Q 25.25 74.21875 29.59375 74.21875 
Q 40.828125 74.21875 47.359375 69.109375 
Q 53.90625 64.015625 53.90625 55.328125 
Q 53.90625 49.265625 50.4375 45.09375 
Q 46.96875 40.921875 40.578125 39.3125 
z
" id="DejaVuSans-51"/>
       </defs>
       <use xlink:href="#DejaVuSans-49"/>
       <use x="63.623047" xlink:href="#DejaVuSans-46"/>
       <use x="95.410156" xlink:href="#DejaVuSans-51"/>
      </g>
     </g>
    </g>
    <g id="ytick_3">
     <g id="line2d_11">
      <g>
       <use style="stroke:#000000;stroke-width:0.8;" x="55.705625" xlink:href="#mf86fa53987" y="163.558984"/>
      </g>
     </g>
     <g id="text_3">
      <!-- 1.4 -->
      <g transform="translate(32.8025 167.358203)scale(0.1 -0.1)">
       <defs>
        <path d="M 37.796875 64.3125 
L 12.890625 25.390625 
L 37.796875 25.390625 
z
M 35.203125 72.90625 
L 47.609375 72.90625 
L 47.609375 25.390625 
L 58.015625 25.390625 
L 58.015625 17.1875 
L 47.609375 17.1875 
L 47.609375 0 
L 37.796875 0 
L 37.796875 17.1875 
L 4.890625 17.1875 
L 4.890625 26.703125 
z
" id="DejaVuSans-52"/>
       </defs>
       <use xlink:href="#DejaVuSans-49"/>
       <use x="63.623047" xlink:href="#DejaVuSans-46"/>
       <use x="95.410156" xlink:href="#DejaVuSans-52"/>
      </g>
     </g>
    </g>
    <g id="ytick_4">
     <g id="line2d_12">
      <g>
       <use style="stroke:#000000;stroke-width:0.8;" x="55.705625" xlink:href="#mf86fa53987" y="142.790586"/>
      </g>
     </g>
     <g id="text_4">
      <!-- 1.5 -->
      <g transform="translate(32.8025 146.589805)scale(0.1 -0.1)">
       <defs>
        <path d="M 10.796875 72.90625 
L 49.515625 72.90625 
L 49.515625 64.59375 
L 19.828125 64.59375 
L 19.828125 46.734375 
Q 21.96875 47.46875 24.109375 47.828125 
Q 26.265625 48.1875 28.421875 48.1875 
Q 40.625 48.1875 47.75 41.5 
Q 54.890625 34.8125 54.890625 23.390625 
Q 54.890625 11.625 47.5625 5.09375 
Q 40.234375 -1.421875 26.90625 -1.421875 
Q 22.3125 -1.421875 17.546875 -0.640625 
Q 12.796875 0.140625 7.71875 1.703125 
L 7.71875 11.625 
Q 12.109375 9.234375 16.796875 8.0625 
Q 21.484375 6.890625 26.703125 6.890625 
Q 35.15625 6.890625 40.078125 11.328125 
Q 45.015625 15.765625 45.015625 23.390625 
Q 45.015625 31 40.078125 35.4375 
Q 35.15625 39.890625 26.703125 39.890625 
Q 22.75 39.890625 18.8125 39.015625 
Q 14.890625 38.140625 10.796875 36.28125 
z
" id="DejaVuSans-53"/>
       </defs>
       <use xlink:href="#DejaVuSans-49"/>
       <use x="63.623047" xlink:href="#DejaVuSans-46"/>
       <use x="95.410156" xlink:href="#DejaVuSans-53"/>
      </g>
     </g>
    </g>
    <g id="ytick_5">
     <g id="line2d_13">
      <g>
       <use style="stroke:#000000;stroke-width:0.8;" x="55.705625" xlink:href="#mf86fa53987" y="122.022188"/>
      </g>
     </g>
     <g id="text_5">
      <!-- 1.6 -->
      <g transform="translate(32.8025 125.821406)scale(0.1 -0.1)">
       <defs>
        <path d="M 33.015625 40.375 
Q 26.375 40.375 22.484375 35.828125 
Q 18.609375 31.296875 18.609375 23.390625 
Q 18.609375 15.53125 22.484375 10.953125 
Q 26.375 6.390625 33.015625 6.390625 
Q 39.65625 6.390625 43.53125 10.953125 
Q 47.40625 15.53125 47.40625 23.390625 
Q 47.40625 31.296875 43.53125 35.828125 
Q 39.65625 40.375 33.015625 40.375 
z
M 52.59375 71.296875 
L 52.59375 62.3125 
Q 48.875 64.0625 45.09375 64.984375 
Q 41.3125 65.921875 37.59375 65.921875 
Q 27.828125 65.921875 22.671875 59.328125 
Q 17.53125 52.734375 16.796875 39.40625 
Q 19.671875 43.65625 24.015625 45.921875 
Q 28.375 48.1875 33.59375 48.1875 
Q 44.578125 48.1875 50.953125 41.515625 
Q 57.328125 34.859375 57.328125 23.390625 
Q 57.328125 12.15625 50.6875 5.359375 
Q 44.046875 -1.421875 33.015625 -1.421875 
Q 20.359375 -1.421875 13.671875 8.265625 
Q 6.984375 17.96875 6.984375 36.375 
Q 6.984375 53.65625 15.1875 63.9375 
Q 23.390625 74.21875 37.203125 74.21875 
Q 40.921875 74.21875 44.703125 73.484375 
Q 48.484375 72.75 52.59375 71.296875 
z
" id="DejaVuSans-54"/>
       </defs>
       <use xlink:href="#DejaVuSans-49"/>
       <use x="63.623047" xlink:href="#DejaVuSans-46"/>
       <use x="95.410156" xlink:href="#DejaVuSans-54"/>
      </g>
     </g>
    </g>
    <g id="ytick_6">
     <g id="line2d_14">
      <g>
       <use style="stroke:#000000;stroke-width:0.8;" x="55.705625" xlink:href="#mf86fa53987" y="101.253789"/>
      </g>
     </g>
     <g id="text_6">
      <!-- 1.7 -->
      <g transform="translate(32.8025 105.053008)scale(0.1 -0.1)">
       <defs>
        <path d="M 8.203125 72.90625 
L 55.078125 72.90625 
L 55.078125 68.703125 
L 28.609375 0 
L 18.3125 0 
L 43.21875 64.59375 
L 8.203125 64.59375 
z
" id="DejaVuSans-55"/>
       </defs>
       <use xlink:href="#DejaVuSans-49"/>
       <use x="63.623047" xlink:href="#DejaVuSans-46"/>
       <use x="95.410156" xlink:href="#DejaVuSans-55"/>
      </g>
     </g>
    </g>
    <g id="ytick_7">
     <g id="line2d_15">
      <g>
       <use style="stroke:#000000;stroke-width:0.8;" x="55.705625" xlink:href="#mf86fa53987" y="80.485391"/>
      </g>
     </g>
     <g id="text_7">
      <!-- 1.8 -->
      <g transform="translate(32.8025 84.284609)scale(0.1 -0.1)">
       <defs>
        <path d="M 31.78125 34.625 
Q 24.75 34.625 20.71875 30.859375 
Q 16.703125 27.09375 16.703125 20.515625 
Q 16.703125 13.921875 20.71875 10.15625 
Q 24.75 6.390625 31.78125 6.390625 
Q 38.8125 6.390625 42.859375 10.171875 
Q 46.921875 13.96875 46.921875 20.515625 
Q 46.921875 27.09375 42.890625 30.859375 
Q 38.875 34.625 31.78125 34.625 
z
M 21.921875 38.8125 
Q 15.578125 40.375 12.03125 44.71875 
Q 8.5 49.078125 8.5 55.328125 
Q 8.5 64.0625 14.71875 69.140625 
Q 20.953125 74.21875 31.78125 74.21875 
Q 42.671875 74.21875 48.875 69.140625 
Q 55.078125 64.0625 55.078125 55.328125 
Q 55.078125 49.078125 51.53125 44.71875 
Q 48 40.375 41.703125 38.8125 
Q 48.828125 37.15625 52.796875 32.3125 
Q 56.78125 27.484375 56.78125 20.515625 
Q 56.78125 9.90625 50.3125 4.234375 
Q 43.84375 -1.421875 31.78125 -1.421875 
Q 19.734375 -1.421875 13.25 4.234375 
Q 6.78125 9.90625 6.78125 20.515625 
Q 6.78125 27.484375 10.78125 32.3125 
Q 14.796875 37.15625 21.921875 38.8125 
z
M 18.3125 54.390625 
Q 18.3125 48.734375 21.84375 45.5625 
Q 25.390625 42.390625 31.78125 42.390625 
Q 38.140625 42.390625 41.71875 45.5625 
Q 45.3125 48.734375 45.3125 54.390625 
Q 45.3125 60.0625 41.71875 63.234375 
Q 38.140625 66.40625 31.78125 66.40625 
Q 25.390625 66.40625 21.84375 63.234375 
Q 18.3125 60.0625 18.3125 54.390625 
z
" id="DejaVuSans-56"/>
       </defs>
       <use xlink:href="#DejaVuSans-49"/>
       <use x="63.623047" xlink:href="#DejaVuSans-46"/>
       <use x="95.410156" xlink:href="#DejaVuSans-56"/>
      </g>
     </g>
    </g>
    <g id="ytick_8">
     <g id="line2d_16">
      <g>
       <use style="stroke:#000000;stroke-width:0.8;" x="55.705625" xlink:href="#mf86fa53987" y="59.716992"/>
      </g>
     </g>
     <g id="text_8">
      <!-- 1.9 -->
      <g transform="translate(32.8025 63.516211)scale(0.1 -0.1)">
       <defs>
        <path d="M 10.984375 1.515625 
L 10.984375 10.5 
Q 14.703125 8.734375 18.5 7.8125 
Q 22.3125 6.890625 25.984375 6.890625 
Q 35.75 6.890625 40.890625 13.453125 
Q 46.046875 20.015625 46.78125 33.40625 
Q 43.953125 29.203125 39.59375 26.953125 
Q 35.25 24.703125 29.984375 24.703125 
Q 19.046875 24.703125 12.671875 31.3125 
Q 6.296875 37.9375 6.296875 49.421875 
Q 6.296875 60.640625 12.9375 67.421875 
Q 19.578125 74.21875 30.609375 74.21875 
Q 43.265625 74.21875 49.921875 64.515625 
Q 56.59375 54.828125 56.59375 36.375 
Q 56.59375 19.140625 48.40625 8.859375 
Q 40.234375 -1.421875 26.421875 -1.421875 
Q 22.703125 -1.421875 18.890625 -0.6875 
Q 15.09375 0.046875 10.984375 1.515625 
z
M 30.609375 32.421875 
Q 37.25 32.421875 41.125 36.953125 
Q 45.015625 41.5 45.015625 49.421875 
Q 45.015625 57.28125 41.125 61.84375 
Q 37.25 66.40625 30.609375 66.40625 
Q 23.96875 66.40625 20.09375 61.84375 
Q 16.21875 57.28125 16.21875 49.421875 
Q 16.21875 41.5 20.09375 36.953125 
Q 23.96875 32.421875 30.609375 32.421875 
z
" id="DejaVuSans-57"/>
       </defs>
       <use xlink:href="#DejaVuSans-49"/>
       <use x="63.623047" xlink:href="#DejaVuSans-46"/>
       <use x="95.410156" xlink:href="#DejaVuSans-57"/>
      </g>
     </g>
    </g>
    <g id="ytick_9">
     <g id="line2d_17">
      <g>
       <use style="stroke:#000000;stroke-width:0.8;" x="55.705625" xlink:href="#mf86fa53987" y="38.948594"/>
      </g>
     </g>
     <g id="text_9">
      <!-- 2.0 -->
      <g transform="translate(32.8025 42.747813)scale(0.1 -0.1)">
       <defs>
        <path d="M 31.78125 66.40625 
Q 24.171875 66.40625 20.328125 58.90625 
Q 16.5 51.421875 16.5 36.375 
Q 16.5 21.390625 20.328125 13.890625 
Q 24.171875 6.390625 31.78125 6.390625 
Q 39.453125 6.390625 43.28125 13.890625 
Q 47.125 21.390625 47.125 36.375 
Q 47.125 51.421875 43.28125 58.90625 
Q 39.453125 66.40625 31.78125 66.40625 
z
M 31.78125 74.21875 
Q 44.046875 74.21875 50.515625 64.515625 
Q 56.984375 54.828125 56.984375 36.375 
Q 56.984375 17.96875 50.515625 8.265625 
Q 44.046875 -1.421875 31.78125 -1.421875 
Q 19.53125 -1.421875 13.0625 8.265625 
Q 6.59375 17.96875 6.59375 36.375 
Q 6.59375 54.828125 13.0625 64.515625 
Q 19.53125 74.21875 31.78125 74.21875 
z
" id="DejaVuSans-48"/>
       </defs>
       <use xlink:href="#DejaVuSans-50"/>
       <use x="63.623047" xlink:href="#DejaVuSans-46"/>
       <use x="95.410156" xlink:href="#DejaVuSans-48"/>
      </g>
     </g>
    </g>
    <g id="text_10">
     <!-- Current $I$ -->
     <g transform="translate(26.306875 148.482188)rotate(-90)scale(0.12 -0.12)">
      <defs>
       <path d="M 64.40625 67.28125 
L 64.40625 56.890625 
Q 59.421875 61.53125 53.78125 63.8125 
Q 48.140625 66.109375 41.796875 66.109375 
Q 29.296875 66.109375 22.65625 58.46875 
Q 16.015625 50.828125 16.015625 36.375 
Q 16.015625 21.96875 22.65625 14.328125 
Q 29.296875 6.6875 41.796875 6.6875 
Q 48.140625 6.6875 53.78125 8.984375 
Q 59.421875 11.28125 64.40625 15.921875 
L 64.40625 5.609375 
Q 59.234375 2.09375 53.4375 0.328125 
Q 47.65625 -1.421875 41.21875 -1.421875 
Q 24.65625 -1.421875 15.125 8.703125 
Q 5.609375 18.84375 5.609375 36.375 
Q 5.609375 53.953125 15.125 64.078125 
Q 24.65625 74.21875 41.21875 74.21875 
Q 47.75 74.21875 53.53125 72.484375 
Q 59.328125 70.75 64.40625 67.28125 
z
" id="DejaVuSans-67"/>
       <path d="M 8.5 21.578125 
L 8.5 54.6875 
L 17.484375 54.6875 
L 17.484375 21.921875 
Q 17.484375 14.15625 20.5 10.265625 
Q 23.53125 6.390625 29.59375 6.390625 
Q 36.859375 6.390625 41.078125 11.03125 
Q 45.3125 15.671875 45.3125 23.6875 
L 45.3125 54.6875 
L 54.296875 54.6875 
L 54.296875 0 
L 45.3125 0 
L 45.3125 8.40625 
Q 42.046875 3.421875 37.71875 1 
Q 33.40625 -1.421875 27.6875 -1.421875 
Q 18.265625 -1.421875 13.375 4.4375 
Q 8.5 10.296875 8.5 21.578125 
z
M 31.109375 56 
z
" id="DejaVuSans-117"/>
       <path d="M 41.109375 46.296875 
Q 39.59375 47.171875 37.8125 47.578125 
Q 36.03125 48 33.890625 48 
Q 26.265625 48 22.1875 43.046875 
Q 18.109375 38.09375 18.109375 28.8125 
L 18.109375 0 
L 9.078125 0 
L 9.078125 54.6875 
L 18.109375 54.6875 
L 18.109375 46.1875 
Q 20.953125 51.171875 25.484375 53.578125 
Q 30.03125 56 36.53125 56 
Q 37.453125 56 38.578125 55.875 
Q 39.703125 55.765625 41.0625 55.515625 
z
" id="DejaVuSans-114"/>
       <path d="M 56.203125 29.59375 
L 56.203125 25.203125 
L 14.890625 25.203125 
Q 15.484375 15.921875 20.484375 11.0625 
Q 25.484375 6.203125 34.421875 6.203125 
Q 39.59375 6.203125 44.453125 7.46875 
Q 49.3125 8.734375 54.109375 11.28125 
L 54.109375 2.78125 
Q 49.265625 0.734375 44.1875 -0.34375 
Q 39.109375 -1.421875 33.890625 -1.421875 
Q 20.796875 -1.421875 13.15625 6.1875 
Q 5.515625 13.8125 5.515625 26.8125 
Q 5.515625 40.234375 12.765625 48.109375 
Q 20.015625 56 32.328125 56 
Q 43.359375 56 49.78125 48.890625 
Q 56.203125 41.796875 56.203125 29.59375 
z
M 47.21875 32.234375 
Q 47.125 39.59375 43.09375 43.984375 
Q 39.0625 48.390625 32.421875 48.390625 
Q 24.90625 48.390625 20.390625 44.140625 
Q 15.875 39.890625 15.1875 32.171875 
z
" id="DejaVuSans-101"/>
       <path d="M 54.890625 33.015625 
L 54.890625 0 
L 45.90625 0 
L 45.90625 32.71875 
Q 45.90625 40.484375 42.875 44.328125 
Q 39.84375 48.1875 33.796875 48.1875 
Q 26.515625 48.1875 22.3125 43.546875 
Q 18.109375 38.921875 18.109375 30.90625 
L 18.109375 0 
L 9.078125 0 
L 9.078125 54.6875 
L 18.109375 54.6875 
L 18.109375 46.1875 
Q 21.34375 51.125 25.703125 53.5625 
Q 30.078125 56 35.796875 56 
Q 45.21875 56 50.046875 50.171875 
Q 54.890625 44.34375 54.890625 33.015625 
z
" id="DejaVuSans-110"/>
       <path d="M 18.3125 70.21875 
L 18.3125 54.6875 
L 36.8125 54.6875 
L 36.8125 47.703125 
L 18.3125 47.703125 
L 18.3125 18.015625 
Q 18.3125 11.328125 20.140625 9.421875 
Q 21.96875 7.515625 27.59375 7.515625 
L 36.8125 7.515625 
L 36.8125 0 
L 27.59375 0 
Q 17.1875 0 13.234375 3.875 
Q 9.28125 7.765625 9.28125 18.015625 
L 9.28125 47.703125 
L 2.6875 47.703125 
L 2.6875 54.6875 
L 9.28125 54.6875 
L 9.28125 70.21875 
z
" id="DejaVuSans-116"/>
       <path id="DejaVuSans-32"/>
       <path d="M 16.890625 72.90625 
L 26.8125 72.90625 
L 12.59375 0 
L 2.6875 0 
z
" id="DejaVuSans-Oblique-73"/>
      </defs>
      <use transform="translate(0 0.78125)" xlink:href="#DejaVuSans-67"/>
      <use transform="translate(69.824219 0.78125)" xlink:href="#DejaVuSans-117"/>
      <use transform="translate(133.203125 0.78125)" xlink:href="#DejaVuSans-114"/>
      <use transform="translate(174.316406 0.78125)" xlink:href="#DejaVuSans-114"/>
      <use transform="translate(215.429688 0.78125)" xlink:href="#DejaVuSans-101"/>
      <use transform="translate(276.953125 0.78125)" xlink:href="#DejaVuSans-110"/>
      <use transform="translate(340.332031 0.78125)" xlink:href="#DejaVuSans-116"/>
      <use transform="translate(379.541016 0.78125)" xlink:href="#DejaVuSans-32"/>
      <use transform="translate(411.328125 0.78125)" xlink:href="#DejaVuSans-Oblique-73"/>
     </g>
    </g>
   </g>
   <g id="line2d_18">
    <path clip-path="url(#p2f56d6236f)" d="M 55.634636 142.790586 
L 265.76146 142.790586 
L 265.903437 80.485391 
L 588.121562 80.485391 
L 588.121562 80.485391 
" style="fill:none;stroke:#aa3863;stroke-linecap:square;stroke-width:1.5;"/>
   </g>
   <g id="line2d_19">
    <path clip-path="url(#p2f56d6236f)" d="M 55.634636 142.790586 
L 274.635058 142.790586 
L 274.777036 80.485391 
L 588.121562 80.485391 
L 588.121562 80.485391 
" style="fill:none;stroke:#3b7d86;stroke-linecap:square;stroke-width:1.5;"/>
   </g>
   <g id="patch_3">
    <path d="M 55.705625 205.095781 
L 55.705625 38.948594 
" style="fill:none;stroke:#000000;stroke-linecap:square;stroke-linejoin:miter;stroke-width:0.8;"/>
   </g>
   <g id="patch_4">
    <path d="M 588.121562 205.095781 
L 588.121562 38.948594 
" style="fill:none;stroke:#000000;stroke-linecap:square;stroke-linejoin:miter;stroke-width:0.8;"/>
   </g>
   <g id="patch_5">
    <path d="M 55.705625 205.095781 
L 588.121562 205.095781 
" style="fill:none;stroke:#000000;stroke-linecap:square;stroke-linejoin:miter;stroke-width:0.8;"/>
   </g>
   <g id="patch_6">
    <path d="M 55.705625 38.948594 
L 588.121562 38.948594 
" style="fill:none;stroke:#000000;stroke-linecap:square;stroke-linejoin:miter;stroke-width:0.8;"/>
   </g>
  </g>
  <g id="axes_2">
   <g id="patch_7">
    <path d="M 608.784063 205.095781 
L 1141.2 205.095781 
L 1141.2 38.948594 
L 608.784063 38.948594 
z
" style="fill:#ffffff;"/>
   </g>
   <g id="matplotlib.axis_3">
    <g id="xtick_9">
     <g id="line2d_20">
      <g>
       <use style="stroke:#000000;stroke-width:0.8;" x="632.982367" xlink:href="#m583b8b59eb" y="205.095781"/>
      </g>
     </g>
    </g>
    <g id="xtick_10">
     <g id="line2d_21">
      <g>
       <use style="stroke:#000000;stroke-width:0.8;" x="693.490228" xlink:href="#m583b8b59eb" y="205.095781"/>
      </g>
     </g>
    </g>
    <g id="xtick_11">
     <g id="line2d_22">
      <g>
       <use style="stroke:#000000;stroke-width:0.8;" x="753.99809" xlink:href="#m583b8b59eb" y="205.095781"/>
      </g>
     </g>
    </g>
    <g id="xtick_12">
     <g id="line2d_23">
      <g>
       <use style="stroke:#000000;stroke-width:0.8;" x="814.505952" xlink:href="#m583b8b59eb" y="205.095781"/>
      </g>
     </g>
    </g>
    <g id="xtick_13">
     <g id="line2d_24">
      <g>
       <use style="stroke:#000000;stroke-width:0.8;" x="875.013814" xlink:href="#m583b8b59eb" y="205.095781"/>
      </g>
     </g>
    </g>
    <g id="xtick_14">
     <g id="line2d_25">
      <g>
       <use style="stroke:#000000;stroke-width:0.8;" x="935.521676" xlink:href="#m583b8b59eb" y="205.095781"/>
      </g>
     </g>
    </g>
    <g id="xtick_15">
     <g id="line2d_26">
      <g>
       <use style="stroke:#000000;stroke-width:0.8;" x="996.029538" xlink:href="#m583b8b59eb" y="205.095781"/>
      </g>
     </g>
    </g>
    <g id="xtick_16">
     <g id="line2d_27">
      <g>
       <use style="stroke:#000000;stroke-width:0.8;" x="1056.5374" xlink:href="#m583b8b59eb" y="205.095781"/>
      </g>
     </g>
    </g>
    <g id="xtick_17">
     <g id="line2d_28">
      <g>
       <use style="stroke:#000000;stroke-width:0.8;" x="1117.045262" xlink:href="#m583b8b59eb" y="205.095781"/>
      </g>
     </g>
    </g>
   </g>
   <g id="matplotlib.axis_4">
    <g id="ytick_10">
     <g id="line2d_29">
      <g>
       <use style="stroke:#000000;stroke-width:0.8;" x="608.784063" xlink:href="#mf86fa53987" y="205.095781"/>
      </g>
     </g>
    </g>
    <g id="ytick_11">
     <g id="line2d_30">
      <g>
       <use style="stroke:#000000;stroke-width:0.8;" x="608.784063" xlink:href="#mf86fa53987" y="184.327383"/>
      </g>
     </g>
    </g>
    <g id="ytick_12">
     <g id="line2d_31">
      <g>
       <use style="stroke:#000000;stroke-width:0.8;" x="608.784063" xlink:href="#mf86fa53987" y="163.558984"/>
      </g>
     </g>
    </g>
    <g id="ytick_13">
     <g id="line2d_32">
      <g>
       <use style="stroke:#000000;stroke-width:0.8;" x="608.784063" xlink:href="#mf86fa53987" y="142.790586"/>
      </g>
     </g>
    </g>
    <g id="ytick_14">
     <g id="line2d_33">
      <g>
       <use style="stroke:#000000;stroke-width:0.8;" x="608.784063" xlink:href="#mf86fa53987" y="122.022188"/>
      </g>
     </g>
    </g>
    <g id="ytick_15">
     <g id="line2d_34">
      <g>
       <use style="stroke:#000000;stroke-width:0.8;" x="608.784063" xlink:href="#mf86fa53987" y="101.253789"/>
      </g>
     </g>
    </g>
    <g id="ytick_16">
     <g id="line2d_35">
      <g>
       <use style="stroke:#000000;stroke-width:0.8;" x="608.784063" xlink:href="#mf86fa53987" y="80.485391"/>
      </g>
     </g>
    </g>
    <g id="ytick_17">
     <g id="line2d_36">
      <g>
       <use style="stroke:#000000;stroke-width:0.8;" x="608.784063" xlink:href="#mf86fa53987" y="59.716992"/>
      </g>
     </g>
    </g>
    <g id="ytick_18">
     <g id="line2d_37">
      <g>
       <use style="stroke:#000000;stroke-width:0.8;" x="608.784063" xlink:href="#mf86fa53987" y="38.948594"/>
      </g>
     </g>
    </g>
   </g>
   <g id="line2d_38">
    <path clip-path="url(#p251d261e20)" d="M 632.984787 80.485391 
L 1116.999276 80.485391 
L 1116.999276 80.485391 
" style="fill:none;stroke:#aa3863;stroke-linecap:square;stroke-width:1.5;"/>
   </g>
   <g id="line2d_39">
    <path clip-path="url(#p251d261e20)" d="M 632.984787 80.485391 
L 1116.999276 80.485391 
L 1116.999276 80.485391 
" style="fill:none;stroke:#3b7d86;stroke-linecap:square;stroke-width:1.5;"/>
   </g>
   <g id="patch_8">
    <path d="M 608.784063 205.095781 
L 608.784063 38.948594 
" style="fill:none;stroke:#000000;stroke-linecap:square;stroke-linejoin:miter;stroke-width:0.8;"/>
   </g>
   <g id="patch_9">
    <path d="M 1141.2 205.095781 
L 1141.2 38.948594 
" style="fill:none;stroke:#000000;stroke-linecap:square;stroke-linejoin:miter;stroke-width:0.8;"/>
   </g>
   <g id="patch_10">
    <path d="M 608.784063 205.095781 
L 1141.2 205.095781 
" style="fill:none;stroke:#000000;stroke-linecap:square;stroke-linejoin:miter;stroke-width:0.8;"/>
   </g>
   <g id="patch_11">
    <path d="M 608.784063 38.948594 
L 1141.2 38.948594 
" style="fill:none;stroke:#000000;stroke-linecap:square;stroke-linejoin:miter;stroke-width:0.8;"/>
   </g>
   <g id="legend_1">
    <g id="patch_12">
     <path d="M 1085.16 92.083453 
L 1132.8 92.083453 
Q 1135.2 92.083453 1135.2 89.683453 
L 1135.2 55.655953 
Q 1135.2 53.255953 1132.8 53.255953 
L 1085.16 53.255953 
Q 1082.76 53.255953 1082.76 55.655953 
L 1082.76 89.683453 
Q 1082.76 92.083453 1085.16 92.083453 
z
" style="fill:#ffffff;opacity:0.8;stroke:#cccccc;stroke-linejoin:miter;"/>
    </g>
    <g id="line2d_40">
     <path d="M 1087.56 62.974078 
L 1111.56 62.974078 
" style="fill:none;stroke:#aa3863;stroke-linecap:square;stroke-width:1.5;"/>
    </g>
    <g id="line2d_41"/>
    <g id="text_11">
     <!-- $I_1$ -->
     <g transform="translate(1121.16 67.174078)scale(0.12 -0.12)">
      <use transform="translate(0 0.09375)" xlink:href="#DejaVuSans-Oblique-73"/>
      <use transform="translate(29.492188 -16.3125)scale(0.7)" xlink:href="#DejaVuSans-49"/>
     </g>
    </g>
    <g id="line2d_42">
     <path d="M 1087.56 80.587828 
L 1111.56 80.587828 
" style="fill:none;stroke:#3b7d86;stroke-linecap:square;stroke-width:1.5;"/>
    </g>
    <g id="line2d_43"/>
    <g id="text_12">
     <!-- $I_2$ -->
     <g transform="translate(1121.16 84.787828)scale(0.12 -0.12)">
      <use transform="translate(0 0.09375)" xlink:href="#DejaVuSans-Oblique-73"/>
      <use transform="translate(29.492188 -16.3125)scale(0.7)" xlink:href="#DejaVuSans-50"/>
     </g>
    </g>
   </g>
  </g>
  <g id="axes_3">
   <g id="patch_13">
    <path d="M 55.705625 387.921875 
L 588.121562 387.921875 
L 588.121562 221.774688 
L 55.705625 221.774688 
z
" style="fill:#ffffff;"/>
   </g>
   <g id="matplotlib.axis_5">
    <g id="xtick_18">
     <g id="line2d_44">
      <g>
       <use style="stroke:#000000;stroke-width:0.8;" x="91.200021" xlink:href="#m583b8b59eb" y="387.921875"/>
      </g>
     </g>
     <g id="text_13">
      <!-- 6 -->
      <g transform="translate(88.018771 402.520312)scale(0.1 -0.1)">
       <use xlink:href="#DejaVuSans-54"/>
      </g>
     </g>
    </g>
    <g id="xtick_19">
     <g id="line2d_45">
      <g>
       <use style="stroke:#000000;stroke-width:0.8;" x="162.188812" xlink:href="#m583b8b59eb" y="387.921875"/>
      </g>
     </g>
     <g id="text_14">
      <!-- 8 -->
      <g transform="translate(159.007562 402.520312)scale(0.1 -0.1)">
       <use xlink:href="#DejaVuSans-56"/>
      </g>
     </g>
    </g>
    <g id="xtick_20">
     <g id="line2d_46">
      <g>
       <use style="stroke:#000000;stroke-width:0.8;" x="233.177604" xlink:href="#m583b8b59eb" y="387.921875"/>
      </g>
     </g>
     <g id="text_15">
      <!-- 10 -->
      <g transform="translate(226.815104 402.520312)scale(0.1 -0.1)">
       <use xlink:href="#DejaVuSans-49"/>
       <use x="63.623047" xlink:href="#DejaVuSans-48"/>
      </g>
     </g>
    </g>
    <g id="xtick_21">
     <g id="line2d_47">
      <g>
       <use style="stroke:#000000;stroke-width:0.8;" x="304.166396" xlink:href="#m583b8b59eb" y="387.921875"/>
      </g>
     </g>
     <g id="text_16">
      <!-- 12 -->
      <g transform="translate(297.803896 402.520312)scale(0.1 -0.1)">
       <use xlink:href="#DejaVuSans-49"/>
       <use x="63.623047" xlink:href="#DejaVuSans-50"/>
      </g>
     </g>
    </g>
    <g id="xtick_22">
     <g id="line2d_48">
      <g>
       <use style="stroke:#000000;stroke-width:0.8;" x="375.155187" xlink:href="#m583b8b59eb" y="387.921875"/>
      </g>
     </g>
     <g id="text_17">
      <!-- 14 -->
      <g transform="translate(368.792687 402.520312)scale(0.1 -0.1)">
       <use xlink:href="#DejaVuSans-49"/>
       <use x="63.623047" xlink:href="#DejaVuSans-52"/>
      </g>
     </g>
    </g>
    <g id="xtick_23">
     <g id="line2d_49">
      <g>
       <use style="stroke:#000000;stroke-width:0.8;" x="446.143979" xlink:href="#m583b8b59eb" y="387.921875"/>
      </g>
     </g>
     <g id="text_18">
      <!-- 16 -->
      <g transform="translate(439.781479 402.520312)scale(0.1 -0.1)">
       <use xlink:href="#DejaVuSans-49"/>
       <use x="63.623047" xlink:href="#DejaVuSans-54"/>
      </g>
     </g>
    </g>
    <g id="xtick_24">
     <g id="line2d_50">
      <g>
       <use style="stroke:#000000;stroke-width:0.8;" x="517.132771" xlink:href="#m583b8b59eb" y="387.921875"/>
      </g>
     </g>
     <g id="text_19">
      <!-- 18 -->
      <g transform="translate(510.770271 402.520312)scale(0.1 -0.1)">
       <use xlink:href="#DejaVuSans-49"/>
       <use x="63.623047" xlink:href="#DejaVuSans-56"/>
      </g>
     </g>
    </g>
    <g id="xtick_25">
     <g id="line2d_51">
      <g>
       <use style="stroke:#000000;stroke-width:0.8;" x="588.121562" xlink:href="#m583b8b59eb" y="387.921875"/>
      </g>
     </g>
     <g id="text_20">
      <!-- 20 -->
      <g transform="translate(581.759063 402.520312)scale(0.1 -0.1)">
       <use xlink:href="#DejaVuSans-50"/>
       <use x="63.623047" xlink:href="#DejaVuSans-48"/>
      </g>
     </g>
    </g>
    <g id="text_21">
     <!-- Time ($10^{-2}$ seconds) -->
     <g transform="translate(259.933594 418.704375)scale(0.12 -0.12)">
      <defs>
       <path d="M -0.296875 72.90625 
L 61.375 72.90625 
L 61.375 64.59375 
L 35.5 64.59375 
L 35.5 0 
L 25.59375 0 
L 25.59375 64.59375 
L -0.296875 64.59375 
z
" id="DejaVuSans-84"/>
       <path d="M 9.421875 54.6875 
L 18.40625 54.6875 
L 18.40625 0 
L 9.421875 0 
z
M 9.421875 75.984375 
L 18.40625 75.984375 
L 18.40625 64.59375 
L 9.421875 64.59375 
z
" id="DejaVuSans-105"/>
       <path d="M 52 44.1875 
Q 55.375 50.25 60.0625 53.125 
Q 64.75 56 71.09375 56 
Q 79.640625 56 84.28125 50.015625 
Q 88.921875 44.046875 88.921875 33.015625 
L 88.921875 0 
L 79.890625 0 
L 79.890625 32.71875 
Q 79.890625 40.578125 77.09375 44.375 
Q 74.3125 48.1875 68.609375 48.1875 
Q 61.625 48.1875 57.5625 43.546875 
Q 53.515625 38.921875 53.515625 30.90625 
L 53.515625 0 
L 44.484375 0 
L 44.484375 32.71875 
Q 44.484375 40.625 41.703125 44.40625 
Q 38.921875 48.1875 33.109375 48.1875 
Q 26.21875 48.1875 22.15625 43.53125 
Q 18.109375 38.875 18.109375 30.90625 
L 18.109375 0 
L 9.078125 0 
L 9.078125 54.6875 
L 18.109375 54.6875 
L 18.109375 46.1875 
Q 21.1875 51.21875 25.484375 53.609375 
Q 29.78125 56 35.6875 56 
Q 41.65625 56 45.828125 52.96875 
Q 50 49.953125 52 44.1875 
z
" id="DejaVuSans-109"/>
       <path d="M 31 75.875 
Q 24.46875 64.65625 21.28125 53.65625 
Q 18.109375 42.671875 18.109375 31.390625 
Q 18.109375 20.125 21.3125 9.0625 
Q 24.515625 -2 31 -13.1875 
L 23.1875 -13.1875 
Q 15.875 -1.703125 12.234375 9.375 
Q 8.59375 20.453125 8.59375 31.390625 
Q 8.59375 42.28125 12.203125 53.3125 
Q 15.828125 64.359375 23.1875 75.875 
z
" id="DejaVuSans-40"/>
       <path d="M 10.59375 35.5 
L 73.1875 35.5 
L 73.1875 27.203125 
L 10.59375 27.203125 
z
" id="DejaVuSans-8722"/>
       <path d="M 44.28125 53.078125 
L 44.28125 44.578125 
Q 40.484375 46.53125 36.375 47.5 
Q 32.28125 48.484375 27.875 48.484375 
Q 21.1875 48.484375 17.84375 46.4375 
Q 14.5 44.390625 14.5 40.28125 
Q 14.5 37.15625 16.890625 35.375 
Q 19.28125 33.59375 26.515625 31.984375 
L 29.59375 31.296875 
Q 39.15625 29.25 43.1875 25.515625 
Q 47.21875 21.78125 47.21875 15.09375 
Q 47.21875 7.46875 41.1875 3.015625 
Q 35.15625 -1.421875 24.609375 -1.421875 
Q 20.21875 -1.421875 15.453125 -0.5625 
Q 10.6875 0.296875 5.421875 2 
L 5.421875 11.28125 
Q 10.40625 8.6875 15.234375 7.390625 
Q 20.0625 6.109375 24.8125 6.109375 
Q 31.15625 6.109375 34.5625 8.28125 
Q 37.984375 10.453125 37.984375 14.40625 
Q 37.984375 18.0625 35.515625 20.015625 
Q 33.0625 21.96875 24.703125 23.78125 
L 21.578125 24.515625 
Q 13.234375 26.265625 9.515625 29.90625 
Q 5.8125 33.546875 5.8125 39.890625 
Q 5.8125 47.609375 11.28125 51.796875 
Q 16.75 56 26.8125 56 
Q 31.78125 56 36.171875 55.265625 
Q 40.578125 54.546875 44.28125 53.078125 
z
" id="DejaVuSans-115"/>
       <path d="M 48.78125 52.59375 
L 48.78125 44.1875 
Q 44.96875 46.296875 41.140625 47.34375 
Q 37.3125 48.390625 33.40625 48.390625 
Q 24.65625 48.390625 19.8125 42.84375 
Q 14.984375 37.3125 14.984375 27.296875 
Q 14.984375 17.28125 19.8125 11.734375 
Q 24.65625 6.203125 33.40625 6.203125 
Q 37.3125 6.203125 41.140625 7.25 
Q 44.96875 8.296875 48.78125 10.40625 
L 48.78125 2.09375 
Q 45.015625 0.34375 40.984375 -0.53125 
Q 36.96875 -1.421875 32.421875 -1.421875 
Q 20.0625 -1.421875 12.78125 6.34375 
Q 5.515625 14.109375 5.515625 27.296875 
Q 5.515625 40.671875 12.859375 48.328125 
Q 20.21875 56 33.015625 56 
Q 37.15625 56 41.109375 55.140625 
Q 45.0625 54.296875 48.78125 52.59375 
z
" id="DejaVuSans-99"/>
       <path d="M 30.609375 48.390625 
Q 23.390625 48.390625 19.1875 42.75 
Q 14.984375 37.109375 14.984375 27.296875 
Q 14.984375 17.484375 19.15625 11.84375 
Q 23.34375 6.203125 30.609375 6.203125 
Q 37.796875 6.203125 41.984375 11.859375 
Q 46.1875 17.53125 46.1875 27.296875 
Q 46.1875 37.015625 41.984375 42.703125 
Q 37.796875 48.390625 30.609375 48.390625 
z
M 30.609375 56 
Q 42.328125 56 49.015625 48.375 
Q 55.71875 40.765625 55.71875 27.296875 
Q 55.71875 13.875 49.015625 6.21875 
Q 42.328125 -1.421875 30.609375 -1.421875 
Q 18.84375 -1.421875 12.171875 6.21875 
Q 5.515625 13.875 5.515625 27.296875 
Q 5.515625 40.765625 12.171875 48.375 
Q 18.84375 56 30.609375 56 
z
" id="DejaVuSans-111"/>
       <path d="M 45.40625 46.390625 
L 45.40625 75.984375 
L 54.390625 75.984375 
L 54.390625 0 
L 45.40625 0 
L 45.40625 8.203125 
Q 42.578125 3.328125 38.25 0.953125 
Q 33.9375 -1.421875 27.875 -1.421875 
Q 17.96875 -1.421875 11.734375 6.484375 
Q 5.515625 14.40625 5.515625 27.296875 
Q 5.515625 40.1875 11.734375 48.09375 
Q 17.96875 56 27.875 56 
Q 33.9375 56 38.25 53.625 
Q 42.578125 51.265625 45.40625 46.390625 
z
M 14.796875 27.296875 
Q 14.796875 17.390625 18.875 11.75 
Q 22.953125 6.109375 30.078125 6.109375 
Q 37.203125 6.109375 41.296875 11.75 
Q 45.40625 17.390625 45.40625 27.296875 
Q 45.40625 37.203125 41.296875 42.84375 
Q 37.203125 48.484375 30.078125 48.484375 
Q 22.953125 48.484375 18.875 42.84375 
Q 14.796875 37.203125 14.796875 27.296875 
z
" id="DejaVuSans-100"/>
       <path d="M 8.015625 75.875 
L 15.828125 75.875 
Q 23.140625 64.359375 26.78125 53.3125 
Q 30.421875 42.28125 30.421875 31.390625 
Q 30.421875 20.453125 26.78125 9.375 
Q 23.140625 -1.703125 15.828125 -13.1875 
L 8.015625 -13.1875 
Q 14.5 -2 17.703125 9.0625 
Q 20.90625 20.125 20.90625 31.390625 
Q 20.90625 42.671875 17.703125 53.65625 
Q 14.5 64.65625 8.015625 75.875 
z
" id="DejaVuSans-41"/>
      </defs>
      <use transform="translate(0 0.765625)" xlink:href="#DejaVuSans-84"/>
      <use transform="translate(61.083984 0.765625)" xlink:href="#DejaVuSans-105"/>
      <use transform="translate(88.867188 0.765625)" xlink:href="#DejaVuSans-109"/>
      <use transform="translate(186.279297 0.765625)" xlink:href="#DejaVuSans-101"/>
      <use transform="translate(247.802734 0.765625)" xlink:href="#DejaVuSans-32"/>
      <use transform="translate(279.589844 0.765625)" xlink:href="#DejaVuSans-40"/>
      <use transform="translate(318.603516 0.765625)" xlink:href="#DejaVuSans-49"/>
      <use transform="translate(382.226562 0.765625)" xlink:href="#DejaVuSans-48"/>
      <use transform="translate(446.806641 39.046875)scale(0.7)" xlink:href="#DejaVuSans-8722"/>
      <use transform="translate(505.458984 39.046875)scale(0.7)" xlink:href="#DejaVuSans-50"/>
      <use transform="translate(552.729492 0.765625)" xlink:href="#DejaVuSans-32"/>
      <use transform="translate(584.516602 0.765625)" xlink:href="#DejaVuSans-115"/>
      <use transform="translate(636.616211 0.765625)" xlink:href="#DejaVuSans-101"/>
      <use transform="translate(698.139648 0.765625)" xlink:href="#DejaVuSans-99"/>
      <use transform="translate(753.120117 0.765625)" xlink:href="#DejaVuSans-111"/>
      <use transform="translate(814.301758 0.765625)" xlink:href="#DejaVuSans-110"/>
      <use transform="translate(877.680664 0.765625)" xlink:href="#DejaVuSans-100"/>
      <use transform="translate(941.157227 0.765625)" xlink:href="#DejaVuSans-115"/>
      <use transform="translate(993.256836 0.765625)" xlink:href="#DejaVuSans-41"/>
     </g>
    </g>
   </g>
   <g id="matplotlib.axis_6">
    <g id="ytick_19">
     <g id="line2d_52">
      <g>
       <use style="stroke:#000000;stroke-width:0.8;" x="55.705625" xlink:href="#mf86fa53987" y="380.371677"/>
      </g>
     </g>
     <g id="text_22">
      <!-- 0.00 -->
      <g transform="translate(26.44 384.170896)scale(0.1 -0.1)">
       <use xlink:href="#DejaVuSans-48"/>
       <use x="63.623047" xlink:href="#DejaVuSans-46"/>
       <use x="95.410156" xlink:href="#DejaVuSans-48"/>
       <use x="159.033203" xlink:href="#DejaVuSans-48"/>
      </g>
     </g>
    </g>
    <g id="ytick_20">
     <g id="line2d_53">
      <g>
       <use style="stroke:#000000;stroke-width:0.8;" x="55.705625" xlink:href="#mf86fa53987" y="355.197537"/>
      </g>
     </g>
     <g id="text_23">
      <!-- 0.25 -->
      <g transform="translate(26.44 358.996755)scale(0.1 -0.1)">
       <use xlink:href="#DejaVuSans-48"/>
       <use x="63.623047" xlink:href="#DejaVuSans-46"/>
       <use x="95.410156" xlink:href="#DejaVuSans-50"/>
       <use x="159.033203" xlink:href="#DejaVuSans-53"/>
      </g>
     </g>
    </g>
    <g id="ytick_21">
     <g id="line2d_54">
      <g>
       <use style="stroke:#000000;stroke-width:0.8;" x="55.705625" xlink:href="#mf86fa53987" y="330.023396"/>
      </g>
     </g>
     <g id="text_24">
      <!-- 0.50 -->
      <g transform="translate(26.44 333.822615)scale(0.1 -0.1)">
       <use xlink:href="#DejaVuSans-48"/>
       <use x="63.623047" xlink:href="#DejaVuSans-46"/>
       <use x="95.410156" xlink:href="#DejaVuSans-53"/>
       <use x="159.033203" xlink:href="#DejaVuSans-48"/>
      </g>
     </g>
    </g>
    <g id="ytick_22">
     <g id="line2d_55">
      <g>
       <use style="stroke:#000000;stroke-width:0.8;" x="55.705625" xlink:href="#mf86fa53987" y="304.849255"/>
      </g>
     </g>
     <g id="text_25">
      <!-- 0.75 -->
      <g transform="translate(26.44 308.648474)scale(0.1 -0.1)">
       <use xlink:href="#DejaVuSans-48"/>
       <use x="63.623047" xlink:href="#DejaVuSans-46"/>
       <use x="95.410156" xlink:href="#DejaVuSans-55"/>
       <use x="159.033203" xlink:href="#DejaVuSans-53"/>
      </g>
     </g>
    </g>
    <g id="ytick_23">
     <g id="line2d_56">
      <g>
       <use style="stroke:#000000;stroke-width:0.8;" x="55.705625" xlink:href="#mf86fa53987" y="279.675114"/>
      </g>
     </g>
     <g id="text_26">
      <!-- 1.00 -->
      <g transform="translate(26.44 283.474333)scale(0.1 -0.1)">
       <use xlink:href="#DejaVuSans-49"/>
       <use x="63.623047" xlink:href="#DejaVuSans-46"/>
       <use x="95.410156" xlink:href="#DejaVuSans-48"/>
       <use x="159.033203" xlink:href="#DejaVuSans-48"/>
      </g>
     </g>
    </g>
    <g id="ytick_24">
     <g id="line2d_57">
      <g>
       <use style="stroke:#000000;stroke-width:0.8;" x="55.705625" xlink:href="#mf86fa53987" y="254.500973"/>
      </g>
     </g>
     <g id="text_27">
      <!-- 1.25 -->
      <g transform="translate(26.44 258.300192)scale(0.1 -0.1)">
       <use xlink:href="#DejaVuSans-49"/>
       <use x="63.623047" xlink:href="#DejaVuSans-46"/>
       <use x="95.410156" xlink:href="#DejaVuSans-50"/>
       <use x="159.033203" xlink:href="#DejaVuSans-53"/>
      </g>
     </g>
    </g>
    <g id="ytick_25">
     <g id="line2d_58">
      <g>
       <use style="stroke:#000000;stroke-width:0.8;" x="55.705625" xlink:href="#mf86fa53987" y="229.326832"/>
      </g>
     </g>
     <g id="text_28">
      <!-- 1.50 -->
      <g transform="translate(26.44 233.126051)scale(0.1 -0.1)">
       <use xlink:href="#DejaVuSans-49"/>
       <use x="63.623047" xlink:href="#DejaVuSans-46"/>
       <use x="95.410156" xlink:href="#DejaVuSans-53"/>
       <use x="159.033203" xlink:href="#DejaVuSans-48"/>
      </g>
     </g>
    </g>
    <g id="text_29">
     <!-- Voltage $V_k, k \in \{1,2\}$ -->
     <g transform="translate(19.92 368.928281)rotate(-90)scale(0.12 -0.12)">
      <defs>
       <path d="M 28.609375 0 
L 0.78125 72.90625 
L 11.078125 72.90625 
L 34.1875 11.53125 
L 57.328125 72.90625 
L 67.578125 72.90625 
L 39.796875 0 
z
" id="DejaVuSans-86"/>
       <path d="M 9.421875 75.984375 
L 18.40625 75.984375 
L 18.40625 0 
L 9.421875 0 
z
" id="DejaVuSans-108"/>
       <path d="M 34.28125 27.484375 
Q 23.390625 27.484375 19.1875 25 
Q 14.984375 22.515625 14.984375 16.5 
Q 14.984375 11.71875 18.140625 8.90625 
Q 21.296875 6.109375 26.703125 6.109375 
Q 34.1875 6.109375 38.703125 11.40625 
Q 43.21875 16.703125 43.21875 25.484375 
L 43.21875 27.484375 
z
M 52.203125 31.203125 
L 52.203125 0 
L 43.21875 0 
L 43.21875 8.296875 
Q 40.140625 3.328125 35.546875 0.953125 
Q 30.953125 -1.421875 24.3125 -1.421875 
Q 15.921875 -1.421875 10.953125 3.296875 
Q 6 8.015625 6 15.921875 
Q 6 25.140625 12.171875 29.828125 
Q 18.359375 34.515625 30.609375 34.515625 
L 43.21875 34.515625 
L 43.21875 35.40625 
Q 43.21875 41.609375 39.140625 45 
Q 35.0625 48.390625 27.6875 48.390625 
Q 23 48.390625 18.546875 47.265625 
Q 14.109375 46.140625 10.015625 43.890625 
L 10.015625 52.203125 
Q 14.9375 54.109375 19.578125 55.046875 
Q 24.21875 56 28.609375 56 
Q 40.484375 56 46.34375 49.84375 
Q 52.203125 43.703125 52.203125 31.203125 
z
" id="DejaVuSans-97"/>
       <path d="M 45.40625 27.984375 
Q 45.40625 37.75 41.375 43.109375 
Q 37.359375 48.484375 30.078125 48.484375 
Q 22.859375 48.484375 18.828125 43.109375 
Q 14.796875 37.75 14.796875 27.984375 
Q 14.796875 18.265625 18.828125 12.890625 
Q 22.859375 7.515625 30.078125 7.515625 
Q 37.359375 7.515625 41.375 12.890625 
Q 45.40625 18.265625 45.40625 27.984375 
z
M 54.390625 6.78125 
Q 54.390625 -7.171875 48.1875 -13.984375 
Q 42 -20.796875 29.203125 -20.796875 
Q 24.46875 -20.796875 20.265625 -20.09375 
Q 16.0625 -19.390625 12.109375 -17.921875 
L 12.109375 -9.1875 
Q 16.0625 -11.328125 19.921875 -12.34375 
Q 23.78125 -13.375 27.78125 -13.375 
Q 36.625 -13.375 41.015625 -8.765625 
Q 45.40625 -4.15625 45.40625 5.171875 
L 45.40625 9.625 
Q 42.625 4.78125 38.28125 2.390625 
Q 33.9375 0 27.875 0 
Q 17.828125 0 11.671875 7.65625 
Q 5.515625 15.328125 5.515625 27.984375 
Q 5.515625 40.671875 11.671875 48.328125 
Q 17.828125 56 27.875 56 
Q 33.9375 56 38.28125 53.609375 
Q 42.625 51.21875 45.40625 46.390625 
L 45.40625 54.6875 
L 54.390625 54.6875 
z
" id="DejaVuSans-103"/>
       <path d="M 20.609375 0 
L 7.8125 72.90625 
L 17.484375 72.90625 
L 28.078125 10.203125 
L 63.484375 72.90625 
L 74.21875 72.90625 
L 32.078125 0 
z
" id="DejaVuSans-Oblique-86"/>
       <path d="M 18.3125 75.984375 
L 27.296875 75.984375 
L 18.703125 31.6875 
L 49.515625 54.6875 
L 61.1875 54.6875 
L 26.8125 28.515625 
L 51.90625 0 
L 41.015625 0 
L 17.671875 26.703125 
L 12.5 0 
L 3.515625 0 
z
" id="DejaVuSans-Oblique-107"/>
       <path d="M 11.71875 12.40625 
L 22.015625 12.40625 
L 22.015625 4 
L 14.015625 -11.625 
L 7.71875 -11.625 
L 11.71875 4 
z
" id="DejaVuSans-44"/>
       <path d="M 16.75 30.609375 
Q 17.09375 27 20.171875 21.140625 
Q 23.78125 14.359375 30.609375 10.546875 
Q 37.3125 6.84375 44.53125 6.78125 
L 78.5625 6.78125 
L 78.5625 -0.984375 
L 44.53125 -0.984375 
Q 35.15625 -0.984375 26.484375 3.84375 
Q 17.828125 8.6875 13.1875 17.28125 
Q 8.546875 25.875 8.546875 35.015625 
Q 8.546875 44.046875 13.1875 52.640625 
Q 17.828125 61.234375 26.484375 66.109375 
Q 35.15625 71 44.53125 71 
L 78.5625 71 
L 78.5625 63.234375 
L 44.53125 63.234375 
Q 37.3125 63.1875 30.609375 59.421875 
Q 23.828125 55.5625 20.171875 48.828125 
Q 17.046875 42.96875 16.609375 38.421875 
L 78.5625 38.421875 
L 78.5625 30.609375 
z
" id="DejaVuSans-8712"/>
       <path d="M 51.125 -9.28125 
L 51.125 -16.3125 
L 48.09375 -16.3125 
Q 35.9375 -16.3125 31.8125 -12.6875 
Q 27.6875 -9.078125 27.6875 1.703125 
L 27.6875 13.375 
Q 27.6875 20.75 25.046875 23.578125 
Q 22.40625 26.421875 15.484375 26.421875 
L 12.5 26.421875 
L 12.5 33.40625 
L 15.484375 33.40625 
Q 22.46875 33.40625 25.078125 36.203125 
Q 27.6875 39.015625 27.6875 46.296875 
L 27.6875 58.015625 
Q 27.6875 68.796875 31.8125 72.390625 
Q 35.9375 75.984375 48.09375 75.984375 
L 51.125 75.984375 
L 51.125 69 
L 47.796875 69 
Q 40.921875 69 38.8125 66.84375 
Q 36.71875 64.703125 36.71875 57.8125 
L 36.71875 45.703125 
Q 36.71875 38.03125 34.5 34.5625 
Q 32.28125 31.109375 26.90625 29.890625 
Q 32.328125 28.5625 34.515625 25.09375 
Q 36.71875 21.625 36.71875 14.015625 
L 36.71875 1.90625 
Q 36.71875 -4.984375 38.8125 -7.125 
Q 40.921875 -9.28125 47.796875 -9.28125 
z
" id="DejaVuSans-123"/>
       <path d="M 12.5 -9.28125 
L 15.921875 -9.28125 
Q 22.75 -9.28125 24.828125 -7.171875 
Q 26.90625 -5.078125 26.90625 1.90625 
L 26.90625 14.015625 
Q 26.90625 21.625 29.09375 25.09375 
Q 31.296875 28.5625 36.71875 29.890625 
Q 31.296875 31.109375 29.09375 34.5625 
Q 26.90625 38.03125 26.90625 45.703125 
L 26.90625 57.8125 
Q 26.90625 64.75 24.828125 66.875 
Q 22.75 69 15.921875 69 
L 12.5 69 
L 12.5 75.984375 
L 15.578125 75.984375 
Q 27.734375 75.984375 31.8125 72.390625 
Q 35.890625 68.796875 35.890625 58.015625 
L 35.890625 46.296875 
Q 35.890625 39.015625 38.515625 36.203125 
Q 41.15625 33.40625 48.09375 33.40625 
L 51.125 33.40625 
L 51.125 26.421875 
L 48.09375 26.421875 
Q 41.15625 26.421875 38.515625 23.578125 
Q 35.890625 20.75 35.890625 13.375 
L 35.890625 1.703125 
Q 35.890625 -9.078125 31.8125 -12.6875 
Q 27.734375 -16.3125 15.578125 -16.3125 
L 12.5 -16.3125 
z
" id="DejaVuSans-125"/>
      </defs>
      <use transform="translate(0 0.015625)" xlink:href="#DejaVuSans-86"/>
      <use transform="translate(68.408203 0.015625)" xlink:href="#DejaVuSans-111"/>
      <use transform="translate(129.589844 0.015625)" xlink:href="#DejaVuSans-108"/>
      <use transform="translate(157.373047 0.015625)" xlink:href="#DejaVuSans-116"/>
      <use transform="translate(196.582031 0.015625)" xlink:href="#DejaVuSans-97"/>
      <use transform="translate(257.861328 0.015625)" xlink:href="#DejaVuSans-103"/>
      <use transform="translate(321.337891 0.015625)" xlink:href="#DejaVuSans-101"/>
      <use transform="translate(382.861328 0.015625)" xlink:href="#DejaVuSans-32"/>
      <use transform="translate(414.648438 0.015625)" xlink:href="#DejaVuSans-Oblique-86"/>
      <use transform="translate(483.056641 -16.390625)scale(0.7)" xlink:href="#DejaVuSans-Oblique-107"/>
      <use transform="translate(526.328125 0.015625)" xlink:href="#DejaVuSans-44"/>
      <use transform="translate(577.597656 0.015625)" xlink:href="#DejaVuSans-Oblique-107"/>
      <use transform="translate(654.990234 0.015625)" xlink:href="#DejaVuSans-8712"/>
      <use transform="translate(761.582031 0.015625)" xlink:href="#DejaVuSans-123"/>
      <use transform="translate(825.205078 0.015625)" xlink:href="#DejaVuSans-49"/>
      <use transform="translate(888.828125 0.015625)" xlink:href="#DejaVuSans-44"/>
      <use transform="translate(940.097656 0.015625)" xlink:href="#DejaVuSans-50"/>
      <use transform="translate(1003.720703 0.015625)" xlink:href="#DejaVuSans-125"/>
     </g>
    </g>
   </g>
   <g id="line2d_59">
    <path clip-path="url(#pd847424a82)" d="M 55.634636 292.995356 
L 61.952639 285.374036 
L 66.921854 279.713379 
L 66.992843 229.326832 
L 66.992843 380.186073 
L 67.063832 379.823552 
L 69.619428 367.381217 
L 72.175025 356.044798 
L 74.730621 345.708094 
L 77.286218 336.275947 
L 79.841814 327.662766 
L 82.468399 319.583075 
L 85.094985 312.21259 
L 86.798716 307.778921 
L 86.940693 303.517744 
L 103.623059 283.174823 
L 106.675577 279.737042 
L 106.746566 229.326832 
L 106.746566 380.295396 
L 106.817555 379.93259 
L 109.373151 367.480503 
L 111.928748 356.135223 
L 114.484344 345.790665 
L 117.039941 336.351269 
L 119.666526 327.503061 
L 122.293112 319.437468 
L 124.919697 312.079772 
L 126.552439 307.832894 
L 126.694417 303.544026 
L 143.376783 283.199393 
L 146.50029 279.682264 
L 146.571278 229.326832 
L 146.571278 380.041714 
L 146.642267 379.679569 
L 149.197864 367.250009 
L 151.75346 355.925271 
L 154.309057 345.59904 
L 156.864653 336.176359 
L 159.491238 327.34376 
L 162.117824 319.292163 
L 164.744409 311.947054 
L 166.377151 307.707628 
L 166.519129 303.483004 
L 183.201495 283.142399 
L 186.254013 279.705827 
L 186.325002 229.326832 
L 186.325002 380.150923 
L 186.39599 379.788494 
L 188.951587 367.349296 
L 191.507183 356.015596 
L 194.06278 345.68151 
L 196.618376 336.25168 
L 199.173973 327.640613 
L 201.800558 319.562835 
L 204.427144 312.194163 
L 206.130875 307.761601 
L 206.272852 303.509286 
L 222.955218 283.166969 
L 226.007736 279.72939 
L 226.078725 229.326832 
L 226.078725 380.260219 
L 226.149714 379.897505 
L 228.70531 367.448482 
L 231.260907 356.106122 
L 233.816503 345.764081 
L 236.3721 336.327001 
L 238.998685 327.481009 
L 241.62527 319.417329 
L 244.251856 312.061344 
L 245.884598 307.815574 
L 246.026575 303.535568 
L 262.708941 283.191438 
L 265.76146 279.753053 
L 265.832448 229.326832 
L 265.832448 380.369255 
L 265.903437 379.945923 
L 268.388045 365.80884 
L 270.872653 352.907697 
L 273.428249 340.804272 
L 275.983846 329.763498 
L 278.610431 319.372922 
L 280.882072 311.094859 
L 281.02405 306.689485 
L 285.922276 296.152798 
L 290.252593 287.355946 
L 294.227965 279.76131 
L 294.298954 229.326832 
L 294.298954 380.228653 
L 294.369943 379.813111 
L 296.925539 365.514302 
L 299.552124 352.073426 
L 302.17871 339.787337 
L 304.805295 328.549198 
L 307.43188 318.262843 
L 309.419566 311.058004 
L 309.561544 306.631886 
L 314.459771 296.109699 
L 318.790087 287.322716 
L 322.765459 279.73523 
L 322.836448 229.326832 
L 322.836448 380.146408 
L 322.907437 379.731152 
L 325.463033 365.442002 
L 328.089619 352.009886 
L 330.716204 339.731451 
L 333.342789 328.500058 
L 335.969375 318.219644 
L 338.028049 310.770314 
L 338.170027 306.415489 
L 343.068254 295.916362 
L 347.39857 287.148209 
L 351.302953 279.70774 
L 351.373942 229.326832 
L 351.373942 380.059324 
L 351.444931 379.644369 
L 354.000528 365.365372 
L 356.627113 351.94242 
L 359.253698 339.67214 
L 361.880283 328.447797 
L 364.506869 318.173626 
L 366.565544 310.728625 
L 366.707521 306.352655 
L 371.605748 295.868934 
L 376.007053 286.972292 
L 379.840448 279.678638 
L 379.911437 229.326832 
L 379.911437 379.967174 
L 379.982425 379.552536 
L 382.609011 364.905592 
L 385.235596 351.524932 
L 387.862181 339.292716 
L 390.488766 328.10271 
L 393.115352 317.859452 
L 395.103038 310.684319 
L 395.245016 306.286799 
L 400.143242 295.81919 
L 404.473558 287.072686 
L 408.306953 279.778731 
L 408.377942 229.326832 
L 408.377942 380.285046 
L 408.448931 379.86972 
L 411.075516 365.198317 
L 413.702101 351.795302 
L 416.328687 339.542343 
L 418.955272 328.333405 
L 421.581857 318.072627 
L 423.640532 310.637092 
L 423.78251 306.218023 
L 428.680736 295.766928 
L 433.082041 286.893144 
L 436.844447 279.746105 
L 436.915436 229.326832 
L 436.915436 380.181684 
L 436.986425 379.766709 
L 439.61301 365.107488 
L 442.239596 351.715147 
L 444.866181 339.471654 
L 447.492766 328.270873 
L 450.119351 318.017445 
L 452.249015 310.339836 
L 452.390993 305.991053 
L 457.289219 295.565132 
L 461.619536 286.850348 
L 465.381942 279.711667 
L 465.45293 229.326832 
L 465.45293 380.07248 
L 465.523919 379.657873 
L 468.150505 365.011424 
L 470.77709 351.63026 
L 473.403675 339.396735 
L 476.03026 328.204715 
L 478.656846 317.958941 
L 480.786509 310.286769 
L 480.928487 305.916034 
L 485.897702 295.361222 
L 490.228019 286.667081 
L 493.919436 279.675315 
L 493.990425 229.326832 
L 493.990425 379.95715 
L 494.061414 379.542931 
L 496.687999 364.909922 
L 499.314584 351.54064 
L 501.941169 339.317386 
L 504.567755 328.13453 
L 507.19434 317.896811 
L 509.324004 310.23058 
L 509.465981 305.837491 
L 514.506186 295.154995 
L 518.907491 286.344046 
L 522.385941 279.767453 
L 522.45693 229.326832 
L 522.45693 380.250228 
L 522.527919 379.835397 
L 525.154504 365.180594 
L 527.78109 351.791173 
L 530.407675 339.549391 
L 533.03426 328.349416 
L 535.660845 318.095888 
L 537.861498 310.170867 
L 538.003476 305.755423 
L 542.972691 295.238574 
L 547.373996 286.432558 
L 550.923436 279.726872 
L 550.994424 229.326832 
L 550.994424 380.121307 
L 551.065413 379.706902 
L 553.691999 365.067008 
L 556.318584 351.690678 
L 558.945169 339.460376 
L 561.571754 328.270571 
L 564.19834 318.026004 
L 566.469981 309.861829 
L 566.611959 305.515967 
L 571.652163 294.881302 
L 576.053468 286.105899 
L 579.46093 279.684076 
L 579.531919 229.326832 
L 579.531919 379.985287 
L 579.602907 379.571332 
L 582.229493 364.946978 
L 584.856078 351.584443 
L 587.482663 339.366325 
L 588.121562 336.555179 
L 588.121562 336.555179 
" style="fill:none;stroke:#aa3863;stroke-linecap:square;stroke-width:1.5;"/>
   </g>
   <g id="line2d_60">
    <path clip-path="url(#pd847424a82)" d="M 55.634636 342.694044 
L 58.190233 333.524313 
L 60.745829 325.148877 
L 63.372414 317.290416 
L 65.999 310.120116 
L 66.921854 307.751934 
L 67.063832 303.504553 
L 83.746198 283.162538 
L 86.798716 279.725261 
L 86.869705 229.326832 
L 86.869705 380.240724 
L 86.940693 379.87806 
L 89.49629 367.43086 
L 92.051886 356.09001 
L 94.607483 345.749379 
L 97.163079 336.313608 
L 99.789665 327.468724 
L 102.41625 319.406152 
L 105.042835 312.051174 
L 106.675577 307.805907 
L 106.817555 303.530835 
L 123.499921 283.187108 
L 126.552439 279.748824 
L 126.623428 229.326832 
L 126.623428 380.35009 
L 126.694417 379.987141 
L 129.250013 367.530147 
L 131.80561 356.180536 
L 134.361206 345.831951 
L 136.916803 336.388929 
L 139.543388 327.5375 
L 142.169973 319.468785 
L 144.796559 312.108269 
L 146.50029 307.680641 
L 146.642267 303.469813 
L 163.253644 283.211678 
L 166.377151 279.694045 
L 166.44814 229.326832 
L 166.44814 380.096309 
L 166.519129 379.734021 
L 169.074725 367.299652 
L 171.630322 355.970383 
L 174.185918 345.640325 
L 176.741515 336.214019 
L 179.297111 327.606175 
L 181.923697 319.531519 
L 184.550282 312.165565 
L 186.254013 307.734614 
L 186.39599 303.496095 
L 203.078356 283.154684 
L 206.130875 279.717608 
L 206.201863 229.326832 
L 206.201863 380.20556 
L 206.272852 379.842989 
L 208.828449 367.398839 
L 211.384045 356.060909 
L 213.939642 345.722796 
L 216.495238 336.28934 
L 219.121823 327.446671 
L 221.748409 319.386012 
L 224.374994 312.032746 
L 226.007736 307.788588 
L 226.149714 303.522376 
L 242.83208 283.179254 
L 245.884598 279.741171 
L 245.955587 229.326832 
L 245.955587 380.314899 
L 246.026575 379.952043 
L 248.582172 367.498226 
L 251.137768 356.151435 
L 253.693365 345.805367 
L 256.248961 336.364762 
L 258.804558 327.743827 
L 261.431143 319.657087 
L 264.057729 312.280057 
L 265.76146 307.842561 
L 265.903437 303.548658 
L 270.943641 297.175371 
L 274.848025 292.010443 
L 278.68142 284.081092 
L 280.882072 279.76987 
L 280.953061 229.326832 
L 280.953061 380.243495 
L 281.02405 379.823051 
L 283.579646 365.36507 
L 286.135243 352.143007 
L 288.761828 339.721683 
L 291.388413 328.374187 
L 294.014999 318.000528 
L 294.227965 317.199286 
L 294.369943 312.763501 
L 298.62927 302.634132 
L 302.675631 293.581914 
L 306.509026 285.546127 
L 309.419566 279.801388 
L 309.490555 229.326832 
L 309.490555 380.340648 
L 309.561544 379.919887 
L 312.11714 365.451166 
L 314.672737 352.219536 
L 317.299322 339.789553 
L 319.925908 328.434505 
L 322.552493 318.054099 
L 322.765459 317.252353 
L 322.907437 312.83419 
L 327.166764 302.690723 
L 331.142137 293.781595 
L 334.975531 285.727481 
L 338.028049 279.696865 
L 338.099038 229.326832 
L 338.099038 380.017934 
L 338.170027 379.597903 
L 340.725624 365.154312 
L 343.28122 351.945743 
L 345.907805 339.537509 
L 348.534391 328.202298 
L 351.160976 317.840119 
L 351.302953 317.305923 
L 351.444931 312.90649 
L 355.704259 302.748423 
L 359.679631 293.828217 
L 363.513026 285.765444 
L 366.565544 279.729087 
L 366.636532 229.326832 
L 366.636532 380.117183 
L 366.707521 379.696823 
L 369.263118 365.24212 
L 371.818714 352.023782 
L 374.4453 339.606587 
L 377.071885 328.263522 
L 379.69847 317.894495 
L 379.840448 317.359897 
L 379.982425 312.980301 
L 384.241753 302.807129 
L 388.217125 293.875646 
L 392.05052 285.80391 
L 395.103038 279.761713 
L 395.174027 229.326832 
L 395.174027 380.217615 
L 395.245016 379.796922 
L 397.800612 365.330934 
L 400.356209 352.102628 
L 402.982794 339.67647 
L 405.609379 328.32535 
L 408.235964 317.949274 
L 408.306953 317.681521 
L 408.448931 313.230633 
L 412.708258 303.031883 
L 416.683631 294.07865 
L 420.446037 286.132684 
L 423.640532 279.794742 
L 423.711521 229.326832 
L 423.711521 380.31921 
L 423.78251 379.898178 
L 426.338106 365.420755 
L 428.893703 352.182279 
L 431.520288 339.746857 
L 434.146873 328.387781 
L 436.773459 318.004556 
L 436.844447 317.736603 
L 436.986425 313.308068 
L 441.174764 303.25835 
L 445.150136 294.282963 
L 448.983531 286.172661 
L 452.249015 279.691427 
L 452.320004 229.326832 
L 452.320004 380.000565 
L 452.390993 379.580243 
L 454.946589 365.127225 
L 457.502186 351.911304 
L 460.128771 339.49713 
L 462.755356 328.157388 
L 465.381942 317.792086 
L 465.523919 313.387115 
L 469.783247 303.155639 
L 473.758619 294.177937 
L 477.592014 286.067936 
L 480.786509 279.72506 
L 480.857498 229.326832 
L 480.857498 380.104054 
L 480.928487 379.683382 
L 483.484084 365.218557 
L 486.03968 351.992164 
L 488.666265 339.568524 
L 491.292851 328.220625 
L 493.919436 317.847872 
L 494.061414 313.467874 
L 498.249752 303.385127 
L 502.225125 294.384365 
L 506.058519 286.254225 
L 509.324004 279.759095 
L 509.394993 229.326832 
L 509.394993 380.208608 
L 509.465981 379.787582 
L 512.021578 365.310795 
L 514.577174 352.073829 
L 517.20376 339.640622 
L 519.830345 328.284165 
L 522.385941 318.172619 
L 522.527919 313.726664 
L 526.716258 303.616326 
L 530.69163 294.592202 
L 534.525025 286.441621 
L 537.861498 279.793433 
L 537.932487 229.326832 
L 537.932487 380.314186 
L 538.003476 379.892798 
L 540.559072 365.403838 
L 543.114669 352.156098 
L 545.741254 339.713124 
L 548.367839 328.348208 
L 550.923436 318.22921 
L 551.065413 313.811249 
L 555.253752 303.682987 
L 559.229124 294.645169 
L 563.062519 286.484014 
L 566.469981 279.691024 
L 566.54097 229.326832 
L 566.54097 379.998983 
L 566.611959 379.578285 
L 569.167555 365.113127 
L 571.723152 351.887338 
L 574.349737 339.465108 
L 576.976322 328.119123 
L 579.46093 318.286204 
L 579.602907 313.897647 
L 583.791246 303.750958 
L 587.69563 294.855524 
L 588.121562 293.919247 
L 588.121562 293.919247 
" style="fill:none;stroke:#3b7d86;stroke-linecap:square;stroke-width:1.5;"/>
   </g>
   <g id="patch_14">
    <path d="M 55.705625 387.921875 
L 55.705625 221.774687 
" style="fill:none;stroke:#000000;stroke-linecap:square;stroke-linejoin:miter;stroke-width:0.8;"/>
   </g>
   <g id="patch_15">
    <path d="M 588.121562 387.921875 
L 588.121562 221.774687 
" style="fill:none;stroke:#000000;stroke-linecap:square;stroke-linejoin:miter;stroke-width:0.8;"/>
   </g>
   <g id="patch_16">
    <path d="M 55.705625 387.921875 
L 588.121562 387.921875 
" style="fill:none;stroke:#000000;stroke-linecap:square;stroke-linejoin:miter;stroke-width:0.8;"/>
   </g>
   <g id="patch_17">
    <path d="M 55.705625 221.774688 
L 588.121562 221.774688 
" style="fill:none;stroke:#000000;stroke-linecap:square;stroke-linejoin:miter;stroke-width:0.8;"/>
   </g>
  </g>
  <g id="axes_4">
   <g id="patch_18">
    <path d="M 608.784063 387.921875 
L 1141.2 387.921875 
L 1141.2 221.774688 
L 608.784063 221.774688 
z
" style="fill:#ffffff;"/>
   </g>
   <g id="matplotlib.axis_7">
    <g id="xtick_26">
     <g id="line2d_61">
      <g>
       <use style="stroke:#000000;stroke-width:0.8;" x="632.982367" xlink:href="#m583b8b59eb" y="387.921875"/>
      </g>
     </g>
     <g id="text_30">
      <!-- 50.0 -->
      <g transform="translate(621.849554 402.520312)scale(0.1 -0.1)">
       <use xlink:href="#DejaVuSans-53"/>
       <use x="63.623047" xlink:href="#DejaVuSans-48"/>
       <use x="127.246094" xlink:href="#DejaVuSans-46"/>
       <use x="159.033203" xlink:href="#DejaVuSans-48"/>
      </g>
     </g>
    </g>
    <g id="xtick_27">
     <g id="line2d_62">
      <g>
       <use style="stroke:#000000;stroke-width:0.8;" x="693.490228" xlink:href="#m583b8b59eb" y="387.921875"/>
      </g>
     </g>
     <g id="text_31">
      <!-- 52.5 -->
      <g transform="translate(682.357416 402.520312)scale(0.1 -0.1)">
       <use xlink:href="#DejaVuSans-53"/>
       <use x="63.623047" xlink:href="#DejaVuSans-50"/>
       <use x="127.246094" xlink:href="#DejaVuSans-46"/>
       <use x="159.033203" xlink:href="#DejaVuSans-53"/>
      </g>
     </g>
    </g>
    <g id="xtick_28">
     <g id="line2d_63">
      <g>
       <use style="stroke:#000000;stroke-width:0.8;" x="753.99809" xlink:href="#m583b8b59eb" y="387.921875"/>
      </g>
     </g>
     <g id="text_32">
      <!-- 55.0 -->
      <g transform="translate(742.865278 402.520312)scale(0.1 -0.1)">
       <use xlink:href="#DejaVuSans-53"/>
       <use x="63.623047" xlink:href="#DejaVuSans-53"/>
       <use x="127.246094" xlink:href="#DejaVuSans-46"/>
       <use x="159.033203" xlink:href="#DejaVuSans-48"/>
      </g>
     </g>
    </g>
    <g id="xtick_29">
     <g id="line2d_64">
      <g>
       <use style="stroke:#000000;stroke-width:0.8;" x="814.505952" xlink:href="#m583b8b59eb" y="387.921875"/>
      </g>
     </g>
     <g id="text_33">
      <!-- 57.5 -->
      <g transform="translate(803.37314 402.520312)scale(0.1 -0.1)">
       <use xlink:href="#DejaVuSans-53"/>
       <use x="63.623047" xlink:href="#DejaVuSans-55"/>
       <use x="127.246094" xlink:href="#DejaVuSans-46"/>
       <use x="159.033203" xlink:href="#DejaVuSans-53"/>
      </g>
     </g>
    </g>
    <g id="xtick_30">
     <g id="line2d_65">
      <g>
       <use style="stroke:#000000;stroke-width:0.8;" x="875.013814" xlink:href="#m583b8b59eb" y="387.921875"/>
      </g>
     </g>
     <g id="text_34">
      <!-- 60.0 -->
      <g transform="translate(863.881002 402.520312)scale(0.1 -0.1)">
       <use xlink:href="#DejaVuSans-54"/>
       <use x="63.623047" xlink:href="#DejaVuSans-48"/>
       <use x="127.246094" xlink:href="#DejaVuSans-46"/>
       <use x="159.033203" xlink:href="#DejaVuSans-48"/>
      </g>
     </g>
    </g>
    <g id="xtick_31">
     <g id="line2d_66">
      <g>
       <use style="stroke:#000000;stroke-width:0.8;" x="935.521676" xlink:href="#m583b8b59eb" y="387.921875"/>
      </g>
     </g>
     <g id="text_35">
      <!-- 62.5 -->
      <g transform="translate(924.388863 402.520312)scale(0.1 -0.1)">
       <use xlink:href="#DejaVuSans-54"/>
       <use x="63.623047" xlink:href="#DejaVuSans-50"/>
       <use x="127.246094" xlink:href="#DejaVuSans-46"/>
       <use x="159.033203" xlink:href="#DejaVuSans-53"/>
      </g>
     </g>
    </g>
    <g id="xtick_32">
     <g id="line2d_67">
      <g>
       <use style="stroke:#000000;stroke-width:0.8;" x="996.029538" xlink:href="#m583b8b59eb" y="387.921875"/>
      </g>
     </g>
     <g id="text_36">
      <!-- 65.0 -->
      <g transform="translate(984.896725 402.520312)scale(0.1 -0.1)">
       <use xlink:href="#DejaVuSans-54"/>
       <use x="63.623047" xlink:href="#DejaVuSans-53"/>
       <use x="127.246094" xlink:href="#DejaVuSans-46"/>
       <use x="159.033203" xlink:href="#DejaVuSans-48"/>
      </g>
     </g>
    </g>
    <g id="xtick_33">
     <g id="line2d_68">
      <g>
       <use style="stroke:#000000;stroke-width:0.8;" x="1056.5374" xlink:href="#m583b8b59eb" y="387.921875"/>
      </g>
     </g>
     <g id="text_37">
      <!-- 67.5 -->
      <g transform="translate(1045.404587 402.520312)scale(0.1 -0.1)">
       <use xlink:href="#DejaVuSans-54"/>
       <use x="63.623047" xlink:href="#DejaVuSans-55"/>
       <use x="127.246094" xlink:href="#DejaVuSans-46"/>
       <use x="159.033203" xlink:href="#DejaVuSans-53"/>
      </g>
     </g>
    </g>
    <g id="xtick_34">
     <g id="line2d_69">
      <g>
       <use style="stroke:#000000;stroke-width:0.8;" x="1117.045262" xlink:href="#m583b8b59eb" y="387.921875"/>
      </g>
     </g>
     <g id="text_38">
      <!-- 70.0 -->
      <g transform="translate(1105.912449 402.520312)scale(0.1 -0.1)">
       <use xlink:href="#DejaVuSans-55"/>
       <use x="63.623047" xlink:href="#DejaVuSans-48"/>
       <use x="127.246094" xlink:href="#DejaVuSans-46"/>
       <use x="159.033203" xlink:href="#DejaVuSans-48"/>
      </g>
     </g>
    </g>
    <g id="text_39">
     <!-- Time ($10^{-2}$ seconds) -->
     <g transform="translate(813.012031 418.704375)scale(0.12 -0.12)">
      <use transform="translate(0 0.765625)" xlink:href="#DejaVuSans-84"/>
      <use transform="translate(61.083984 0.765625)" xlink:href="#DejaVuSans-105"/>
      <use transform="translate(88.867188 0.765625)" xlink:href="#DejaVuSans-109"/>
      <use transform="translate(186.279297 0.765625)" xlink:href="#DejaVuSans-101"/>
      <use transform="translate(247.802734 0.765625)" xlink:href="#DejaVuSans-32"/>
      <use transform="translate(279.589844 0.765625)" xlink:href="#DejaVuSans-40"/>
      <use transform="translate(318.603516 0.765625)" xlink:href="#DejaVuSans-49"/>
      <use transform="translate(382.226562 0.765625)" xlink:href="#DejaVuSans-48"/>
      <use transform="translate(446.806641 39.046875)scale(0.7)" xlink:href="#DejaVuSans-8722"/>
      <use transform="translate(505.458984 39.046875)scale(0.7)" xlink:href="#DejaVuSans-50"/>
      <use transform="translate(552.729492 0.765625)" xlink:href="#DejaVuSans-32"/>
      <use transform="translate(584.516602 0.765625)" xlink:href="#DejaVuSans-115"/>
      <use transform="translate(636.616211 0.765625)" xlink:href="#DejaVuSans-101"/>
      <use transform="translate(698.139648 0.765625)" xlink:href="#DejaVuSans-99"/>
      <use transform="translate(753.120117 0.765625)" xlink:href="#DejaVuSans-111"/>
      <use transform="translate(814.301758 0.765625)" xlink:href="#DejaVuSans-110"/>
      <use transform="translate(877.680664 0.765625)" xlink:href="#DejaVuSans-100"/>
      <use transform="translate(941.157227 0.765625)" xlink:href="#DejaVuSans-115"/>
      <use transform="translate(993.256836 0.765625)" xlink:href="#DejaVuSans-41"/>
     </g>
    </g>
   </g>
   <g id="matplotlib.axis_8">
    <g id="ytick_26">
     <g id="line2d_70">
      <g>
       <use style="stroke:#000000;stroke-width:0.8;" x="608.784063" xlink:href="#mf86fa53987" y="380.371677"/>
      </g>
     </g>
    </g>
    <g id="ytick_27">
     <g id="line2d_71">
      <g>
       <use style="stroke:#000000;stroke-width:0.8;" x="608.784063" xlink:href="#mf86fa53987" y="355.197537"/>
      </g>
     </g>
    </g>
    <g id="ytick_28">
     <g id="line2d_72">
      <g>
       <use style="stroke:#000000;stroke-width:0.8;" x="608.784063" xlink:href="#mf86fa53987" y="330.023396"/>
      </g>
     </g>
    </g>
    <g id="ytick_29">
     <g id="line2d_73">
      <g>
       <use style="stroke:#000000;stroke-width:0.8;" x="608.784063" xlink:href="#mf86fa53987" y="304.849255"/>
      </g>
     </g>
    </g>
    <g id="ytick_30">
     <g id="line2d_74">
      <g>
       <use style="stroke:#000000;stroke-width:0.8;" x="608.784063" xlink:href="#mf86fa53987" y="279.675114"/>
      </g>
     </g>
    </g>
    <g id="ytick_31">
     <g id="line2d_75">
      <g>
       <use style="stroke:#000000;stroke-width:0.8;" x="608.784063" xlink:href="#mf86fa53987" y="254.500973"/>
      </g>
     </g>
    </g>
    <g id="ytick_32">
     <g id="line2d_76">
      <g>
       <use style="stroke:#000000;stroke-width:0.8;" x="608.784063" xlink:href="#mf86fa53987" y="229.326832"/>
      </g>
     </g>
    </g>
   </g>
   <g id="line2d_77">
    <path clip-path="url(#p680b3de35c)" d="M 632.984787 292.684002 
L 638.115854 279.733921 
L 638.16426 229.326832 
L 638.16426 380.168416 
L 638.261072 379.363816 
L 640.439356 362.228976 
L 642.617639 346.811426 
L 644.844328 332.634659 
L 647.071017 319.886373 
L 649.297706 308.413108 
L 651.282364 299.151138 
L 651.427583 294.699343 
L 657.381557 279.766244 
L 657.429963 229.326832 
L 657.429963 380.280669 
L 657.526776 379.477149 
L 659.705059 362.362903 
L 661.883342 346.959551 
L 664.110031 332.792048 
L 666.33672 320.048797 
L 668.56341 308.577344 
L 670.741693 298.456131 
L 670.886912 294.047937 
L 676.64726 279.75688 
L 676.695666 229.326832 
L 676.695666 380.250832 
L 676.792479 379.449211 
L 678.970762 362.37257 
L 681.149045 346.99842 
L 683.375734 332.853573 
L 685.602424 320.126938 
L 687.829113 308.667266 
L 690.055802 298.340531 
L 690.152615 297.91539 
L 690.297834 293.467321 
L 695.912963 279.70059 
L 695.96137 229.326832 
L 695.96137 380.059167 
L 696.058182 379.26038 
L 698.236465 362.240959 
L 700.414748 346.912928 
L 702.641438 332.805743 
L 704.868127 320.108913 
L 707.094816 308.672502 
L 709.321505 298.363691 
L 709.611943 297.095821 
L 709.757162 292.70968 
L 715.13026 279.706431 
L 715.178666 229.326832 
L 715.178666 380.08104 
L 715.275479 379.284285 
L 717.453762 362.304901 
L 719.632045 347.00708 
L 721.858734 332.922651 
L 724.085424 320.241832 
L 726.312113 308.815995 
L 728.587209 298.301058 
L 729.022865 296.410682 
L 729.168084 292.00571 
L 734.299151 279.763526 
L 734.347557 229.326832 
L 734.347557 380.283235 
L 734.44437 379.487927 
L 736.622653 362.535597 
L 738.849342 346.933974 
L 741.076031 332.892644 
L 743.302721 320.245558 
L 745.52941 308.8457 
L 747.804506 298.350802 
L 748.433787 295.636929 
L 748.579006 291.226017 
L 753.468041 279.746508 
L 753.516448 229.326832 
L 753.516448 380.227069 
L 753.61326 379.434708 
L 755.83995 362.184972 
L 758.066639 346.665215 
L 760.293328 332.690747 
L 762.520018 320.098038 
L 764.746707 308.742184 
L 767.021803 298.283436 
L 767.844709 294.761373 
L 767.989928 290.359523 
L 772.588526 279.754463 
L 772.636932 229.326832 
L 772.636932 380.259541 
L 772.733745 379.470085 
L 774.960434 362.278519 
L 777.187123 346.802464 
L 779.413813 332.859917 
L 781.640502 320.289663 
L 783.867191 308.948612 
L 786.142287 298.498524 
L 787.255632 293.767095 
L 787.40085 289.39193 
L 791.660604 279.767554 
L 791.70901 229.326832 
L 791.70901 380.312015 
L 791.805823 379.525839 
L 794.032512 362.399858 
L 796.259201 346.972843 
L 798.485891 333.065942 
L 800.71258 320.520359 
L 802.987676 308.961803 
L 805.262771 298.543938 
L 806.618147 292.830516 
L 806.763366 288.410944 
L 810.684276 279.760404 
L 810.732682 229.326832 
L 810.732682 380.292439 
L 810.829495 379.510474 
L 813.056184 362.469238 
L 815.282873 347.10687 
L 817.509562 333.248103 
L 819.784658 320.479275 
L 822.059754 308.970362 
L 824.334849 298.590762 
L 826.029069 291.525086 
L 826.174288 287.178015 
L 829.659541 279.699483 
L 829.707947 229.326832 
L 829.707947 380.073322 
L 829.80476 379.297265 
L 832.031449 362.376396 
L 834.258139 347.10828 
L 836.533234 333.037848 
L 838.80833 320.353303 
L 841.083425 308.910952 
L 843.358521 298.58321 
L 845.391585 290.204148 
L 845.536804 285.868356 
L 848.489588 279.74248 
L 848.537994 229.326832 
L 848.537994 380.24223 
L 848.634807 379.471443 
L 850.861496 362.655326 
L 853.136592 347.150975 
L 855.411687 333.167142 
L 857.686783 320.547346 
L 859.961878 309.152019 
L 862.236974 298.857105 
L 864.560476 289.363634 
L 864.705695 288.80215 
L 864.850914 284.423763 
L 867.222822 279.706129 
L 867.271228 229.326832 
L 867.271228 380.110998 
L 867.368041 379.348449 
L 869.643136 362.355149 
L 871.918232 347.014632 
L 874.193327 333.158684 
L 876.468423 320.637268 
L 878.743519 309.316356 
L 881.067021 298.869289 
L 883.390522 289.435632 
L 884.019804 287.041571 
L 884.165023 282.669729 
L 885.714024 279.754564 
L 885.762431 229.326832 
L 885.762431 380.318928 
L 885.859243 379.565716 
L 888.134339 362.762165 
L 890.457841 347.254592 
L 892.781343 333.250419 
L 895.104845 320.5986 
L 897.428346 309.164203 
L 899.751848 298.826392 
L 902.07535 289.476817 
L 903.333914 284.790399 
L 903.479133 280.490555 
L 903.914789 279.731605 
L 903.963196 229.326832 
L 903.963196 380.248131 
L 904.060008 379.510058 
L 906.38351 362.68342 
L 908.707012 347.446821 
L 911.030514 333.646962 
L 913.354016 321.145584 
L 915.725924 309.593876 
L 918.097832 299.146506 
L 920.46974 289.696033 
L 922.551211 282.147617 
L 922.599617 229.326832 
L 922.599617 229.326832 
L 922.599617 380.251758 
L 922.69643 379.52867 
L 925.068338 362.687146 
L 927.440246 347.41772 
L 929.812154 333.573755 
L 932.184062 321.022231 
L 934.55597 309.642311 
L 936.927879 299.324739 
L 939.299787 289.970331 
L 941.671695 281.489163 
L 942.204164 279.696764 
L 942.25257 229.326832 
L 942.25257 229.326832 
L 942.25257 380.058088 
L 942.349383 379.335772 
L 944.721291 362.512236 
L 947.093199 347.259224 
L 949.465108 333.430061 
L 951.837016 320.891829 
L 954.208924 309.524093 
L 956.580832 299.217598 
L 958.95274 289.873159 
L 961.324649 281.401053 
L 961.808711 279.771682 
L 961.857118 229.326832 
L 961.857118 229.326832 
L 961.857118 380.22648 
L 961.95393 379.503492 
L 964.325839 362.664287 
L 966.697747 347.397077 
L 969.069655 333.555026 
L 971.441563 321.005213 
L 973.813471 309.626904 
L 976.185379 299.310743 
L 978.557288 289.957643 
L 980.929196 281.477583 
L 981.461665 279.685486 
L 981.510071 229.326832 
L 981.510071 229.326832 
L 981.510071 380.032837 
L 981.606884 379.310618 
L 983.978792 362.489478 
L 986.3507 347.23848 
L 988.722608 333.411332 
L 991.094517 320.874811 
L 993.466425 309.508686 
L 995.838333 299.203601 
L 998.210241 289.860471 
L 1000.630556 281.225136 
L 1001.066212 279.760505 
L 1001.114619 229.326832 
L 1001.114619 229.326832 
L 1001.114619 380.201205 
L 1001.211431 379.478319 
L 1003.583339 362.641429 
L 1005.955247 347.376334 
L 1008.327156 333.536296 
L 1010.699064 320.988195 
L 1013.070972 309.611397 
L 1015.44288 299.296746 
L 1017.814788 289.944955 
L 1020.235103 281.301565 
L 1020.670759 279.835524 
L 1020.719166 229.326832 
L 1020.719166 229.326832 
L 1020.719166 380.36973 
L 1020.815978 379.646171 
L 1023.187887 362.793683 
L 1025.559795 347.514389 
L 1027.931703 333.661361 
L 1030.303611 321.10158 
L 1032.675519 309.714309 
L 1035.047427 299.389991 
L 1037.419336 290.02944 
L 1039.83965 281.378094 
L 1040.323713 279.749227 
L 1040.372119 229.326832 
L 1040.372119 229.326832 
L 1040.372119 380.175933 
L 1040.468932 379.453148 
L 1042.84084 362.618672 
L 1045.212748 347.355691 
L 1047.584656 333.517466 
L 1049.956565 320.971178 
L 1052.328473 309.59599 
L 1054.700381 299.282749 
L 1057.120695 289.750812 
L 1059.54101 281.12595 
L 1059.92826 279.824246 
L 1059.976667 229.326832 
L 1059.976667 229.326832 
L 1059.976667 380.344435 
L 1060.073479 379.620977 
L 1062.445387 362.770824 
L 1064.817295 347.493645 
L 1067.189204 333.642632 
L 1069.561112 321.084562 
L 1071.93302 309.698801 
L 1074.304928 299.375994 
L 1076.676836 290.016752 
L 1079.097151 281.366615 
L 1079.581214 279.737949 
L 1079.62962 229.326832 
L 1079.62962 229.326832 
L 1079.62962 380.150666 
L 1079.726433 379.427982 
L 1082.098341 362.595814 
L 1084.470249 347.334948 
L 1086.842157 333.498736 
L 1089.214065 320.95416 
L 1091.585974 309.580584 
L 1093.957882 299.268752 
L 1096.32979 289.91958 
L 1098.701698 281.443144 
L 1099.185761 279.812968 
L 1099.234167 229.326832 
L 1099.234167 229.326832 
L 1099.234167 380.319144 
L 1099.33098 379.595786 
L 1101.702888 362.747966 
L 1104.074796 347.472902 
L 1106.446704 333.623801 
L 1108.818613 321.067544 
L 1111.190521 309.683395 
L 1113.562429 299.361997 
L 1115.934337 290.004064 
L 1116.999276 286.091801 
L 1116.999276 286.091801 
" style="fill:none;stroke:#aa3863;stroke-linecap:square;stroke-width:1.5;"/>
   </g>
   <g id="line2d_78">
    <path clip-path="url(#p680b3de35c)" d="M 632.984787 370.727786 
L 635.066257 354.205474 
L 637.196134 339.060207 
L 638.115854 333.019823 
L 638.261072 328.292523 
L 641.16545 315.75862 
L 643.973015 304.607281 
L 646.732173 294.540344 
L 649.442925 285.471812 
L 651.282364 279.759901 
L 651.330771 229.326832 
L 651.330771 380.191637 
L 651.427583 379.333154 
L 653.509054 361.900705 
L 655.63893 345.93154 
L 657.381557 334.121142 
L 657.526776 329.359503 
L 660.382747 316.869202 
L 663.190312 305.571652 
L 665.94947 295.381059 
L 668.660222 286.207703 
L 670.741693 279.698979 
L 670.790099 229.326832 
L 670.790099 380.011273 
L 670.886912 379.152756 
L 672.968382 361.720861 
L 675.049853 346.097689 
L 676.64726 335.206953 
L 676.792479 330.443099 
L 679.64845 317.787656 
L 682.407609 306.542971 
L 685.118361 296.397188 
L 687.829113 287.10068 
L 690.152615 279.771279 
L 690.201021 229.326832 
L 690.201021 380.222958 
L 690.297834 379.362335 
L 692.379304 361.889025 
L 694.460775 346.231414 
L 695.912963 336.273329 
L 696.058182 331.543712 
L 698.865747 318.922707 
L 701.624905 307.520533 
L 704.335658 297.243039 
L 706.998004 287.994563 
L 709.611943 279.68176 
L 709.660349 229.326832 
L 709.660349 379.959361 
L 709.757162 379.098994 
L 711.838633 361.632349 
L 713.920103 345.982895 
L 715.13026 337.63807 
L 715.275479 332.892342 
L 718.083044 320.071353 
L 720.842202 308.503634 
L 723.552955 298.088387 
L 726.2153 288.724815 
L 728.877646 280.166815 
L 729.022865 279.722039 
L 729.071272 229.326832 
L 729.071272 380.076547 
L 729.168084 379.214402 
L 731.249555 361.713208 
L 733.331025 346.035761 
L 734.299151 339.306914 
L 734.44437 334.501573 
L 737.203528 321.664373 
L 739.91428 310.083664 
L 742.576626 299.654923 
L 745.238972 290.109493 
L 747.852912 281.543337 
L 748.433787 279.742681 
L 748.482194 229.326832 
L 748.482194 380.135588 
L 748.579006 379.27186 
L 750.660477 361.740397 
L 752.741947 346.038781 
L 753.468041 340.953303 
L 753.61326 336.147056 
L 756.372419 323.066572 
L 759.083171 311.284168 
L 761.745517 300.687768 
L 764.407863 290.999752 
L 767.021803 282.314069 
L 767.844709 279.740063 
L 767.893116 229.326832 
L 767.893116 380.126707 
L 767.989928 379.261649 
L 770.071399 361.704851 
L 772.152869 345.983801 
L 772.588526 342.90591 
L 772.733745 338.0761 
L 775.444497 324.938521 
L 778.106843 313.108991 
L 780.769189 302.282399 
L 783.383128 292.567194 
L 785.997068 283.697036 
L 787.255632 279.709854 
L 787.304038 229.326832 
L 787.304038 380.037872 
L 787.40085 379.171757 
L 789.482321 361.595696 
L 791.563791 345.860649 
L 791.660604 345.170072 
L 791.805823 340.309348 
L 794.468169 327.081747 
L 797.130515 314.966138 
L 799.744454 304.086982 
L 802.358394 294.148332 
L 804.923927 285.244742 
L 806.618147 279.79736 
L 806.666554 229.326832 
L 806.666554 380.289126 
L 806.763366 379.420041 
L 808.844837 361.786012 
L 810.684276 347.750321 
L 810.829495 342.872579 
L 813.49184 329.280658 
L 816.10578 317.072207 
L 818.71972 305.916236 
L 821.285253 295.919886 
L 823.850786 286.799597 
L 826.029069 279.694549 
L 826.077476 229.326832 
L 826.077476 379.991125 
L 826.174288 379.121731 
L 828.255759 361.483721 
L 829.659541 350.649576 
L 829.80476 345.79862 
L 832.4187 332.027056 
L 834.984233 319.668063 
L 837.549766 308.376958 
L 840.1153 298.076706 
L 842.680833 288.692793 
L 845.246366 280.153926 
L 845.391585 279.694448 
L 845.439992 229.326832 
L 845.439992 379.989538 
L 845.536804 379.118056 
L 847.618275 361.440522 
L 848.489588 354.607153 
L 848.634807 349.684098 
L 851.20034 335.629979 
L 853.765873 322.800129 
L 856.283 311.315082 
L 858.800127 300.839518 
L 861.317254 291.295195 
L 863.834382 282.607599 
L 864.705695 279.787189 
L 864.754101 229.326832 
L 864.754101 380.25205 
L 864.850914 379.376791 
L 866.932384 361.626005 
L 867.222822 359.30364 
L 867.368041 354.37263 
L 869.885168 339.935865 
L 872.402295 326.771702 
L 874.919422 314.780554 
L 877.436549 303.86847 
L 879.953676 293.946637 
L 882.422397 285.097624 
L 884.019804 279.802395 
L 884.068211 229.326832 
L 884.068211 380.291934 
L 884.165023 379.413647 
L 885.714024 365.971565 
L 885.859243 360.935831 
L 888.327964 345.903345 
L 890.796685 332.218077 
L 893.265406 319.767854 
L 895.734126 308.448351 
L 898.202847 298.162802 
L 900.671568 288.821584 
L 903.140289 280.342027 
L 903.333914 279.711163 
L 903.38232 229.326832 
L 903.38232 380.031141 
L 903.479133 379.150822 
L 903.914789 375.246535 
L 904.060008 370.150775 
L 906.480323 354.200439 
L 908.900637 339.714232 
L 911.320952 326.561851 
L 913.741266 314.623669 
L 916.16158 303.79033 
L 918.581895 293.961741 
L 921.002209 285.046772 
L 922.551211 279.781752 
L 922.599617 229.326832 
L 922.599617 380.251758 
L 922.69643 379.52867 
L 925.068338 362.687146 
L 927.440246 347.41772 
L 929.812154 333.573755 
L 932.184062 321.022231 
L 934.55597 309.642311 
L 936.927879 299.324739 
L 939.299787 289.970331 
L 941.671695 281.489163 
L 942.204164 279.696764 
L 942.25257 229.326832 
L 942.25257 380.058088 
L 942.349383 379.335772 
L 944.721291 362.512236 
L 947.093199 347.259224 
L 949.465108 333.430061 
L 951.837016 320.891829 
L 954.208924 309.524093 
L 956.580832 299.217598 
L 958.95274 289.873159 
L 961.324649 281.401053 
L 961.808711 279.771682 
L 961.857118 229.326832 
L 961.857118 380.22648 
L 961.95393 379.503492 
L 964.325839 362.664287 
L 966.697747 347.397077 
L 969.069655 333.555026 
L 971.441563 321.005213 
L 973.813471 309.626904 
L 976.185379 299.310743 
L 978.557288 289.957643 
L 980.929196 281.477583 
L 981.461665 279.685486 
L 981.510071 229.326832 
L 981.510071 380.032837 
L 981.606884 379.310618 
L 983.978792 362.489478 
L 986.3507 347.23848 
L 988.722608 333.411332 
L 991.094517 320.874811 
L 993.466425 309.508686 
L 995.838333 299.203601 
L 998.210241 289.860471 
L 1000.630556 281.225136 
L 1001.066212 279.760505 
L 1001.114619 229.326832 
L 1001.114619 380.201205 
L 1001.211431 379.478319 
L 1003.583339 362.641429 
L 1005.955247 347.376334 
L 1008.327156 333.536296 
L 1010.699064 320.988195 
L 1013.070972 309.611397 
L 1015.44288 299.296746 
L 1017.814788 289.944955 
L 1020.235103 281.301565 
L 1020.670759 279.835524 
L 1020.719166 229.326832 
L 1020.719166 380.36973 
L 1020.815978 379.646171 
L 1023.187887 362.793683 
L 1025.559795 347.514389 
L 1027.931703 333.661361 
L 1030.303611 321.10158 
L 1032.675519 309.714309 
L 1035.047427 299.389991 
L 1037.419336 290.02944 
L 1039.83965 281.378094 
L 1040.323713 279.749227 
L 1040.372119 229.326832 
L 1040.372119 380.175933 
L 1040.468932 379.453148 
L 1042.84084 362.618672 
L 1045.212748 347.355691 
L 1047.584656 333.517466 
L 1049.956565 320.971178 
L 1052.328473 309.59599 
L 1054.700381 299.282749 
L 1057.120695 289.750812 
L 1059.54101 281.12595 
L 1059.92826 279.824246 
L 1059.976667 229.326832 
L 1059.976667 380.344435 
L 1060.073479 379.620977 
L 1062.445387 362.770824 
L 1064.817295 347.493645 
L 1067.189204 333.642632 
L 1069.561112 321.084562 
L 1071.93302 309.698801 
L 1074.304928 299.375994 
L 1076.676836 290.016752 
L 1079.097151 281.366615 
L 1079.581214 279.737949 
L 1079.62962 229.326832 
L 1079.62962 380.150666 
L 1079.726433 379.427982 
L 1082.098341 362.595814 
L 1084.470249 347.334948 
L 1086.842157 333.498736 
L 1089.214065 320.95416 
L 1091.585974 309.580584 
L 1093.957882 299.268752 
L 1096.32979 289.91958 
L 1098.701698 281.443144 
L 1099.185761 279.812968 
L 1099.234167 229.326832 
L 1099.234167 380.319144 
L 1099.33098 379.595786 
L 1101.702888 362.747966 
L 1104.074796 347.472902 
L 1106.446704 333.623801 
L 1108.818613 321.067544 
L 1111.190521 309.683395 
L 1113.562429 299.361997 
L 1115.934337 290.004064 
L 1116.999276 286.091801 
L 1116.999276 286.091801 
" style="fill:none;stroke:#3b7d86;stroke-linecap:square;stroke-width:1.5;"/>
   </g>
   <g id="patch_19">
    <path d="M 608.784063 387.921875 
L 608.784063 221.774687 
" style="fill:none;stroke:#000000;stroke-linecap:square;stroke-linejoin:miter;stroke-width:0.8;"/>
   </g>
   <g id="patch_20">
    <path d="M 1141.2 387.921875 
L 1141.2 221.774687 
" style="fill:none;stroke:#000000;stroke-linecap:square;stroke-linejoin:miter;stroke-width:0.8;"/>
   </g>
   <g id="patch_21">
    <path d="M 608.784063 387.921875 
L 1141.2 387.921875 
" style="fill:none;stroke:#000000;stroke-linecap:square;stroke-linejoin:miter;stroke-width:0.8;"/>
   </g>
   <g id="patch_22">
    <path d="M 608.784063 221.774688 
L 1141.2 221.774688 
" style="fill:none;stroke:#000000;stroke-linecap:square;stroke-linejoin:miter;stroke-width:0.8;"/>
   </g>
   <g id="legend_2">
    <g id="patch_23">
     <path d="M 1080.48 274.909547 
L 1132.8 274.909547 
Q 1135.2 274.909547 1135.2 272.509547 
L 1135.2 238.482047 
Q 1135.2 236.082047 1132.8 236.082047 
L 1080.48 236.082047 
Q 1078.08 236.082047 1078.08 238.482047 
L 1078.08 272.509547 
Q 1078.08 274.909547 1080.48 274.909547 
z
" style="fill:#ffffff;opacity:0.8;stroke:#cccccc;stroke-linejoin:miter;"/>
    </g>
    <g id="line2d_79">
     <path d="M 1082.88 245.800172 
L 1106.88 245.800172 
" style="fill:none;stroke:#aa3863;stroke-linecap:square;stroke-width:1.5;"/>
    </g>
    <g id="line2d_80"/>
    <g id="text_40">
     <!-- $V_1$ -->
     <g transform="translate(1116.48 250.000172)scale(0.12 -0.12)">
      <use transform="translate(0 0.09375)" xlink:href="#DejaVuSans-Oblique-86"/>
      <use transform="translate(68.408203 -16.3125)scale(0.7)" xlink:href="#DejaVuSans-49"/>
     </g>
    </g>
    <g id="line2d_81">
     <path d="M 1082.88 263.413922 
L 1106.88 263.413922 
" style="fill:none;stroke:#3b7d86;stroke-linecap:square;stroke-width:1.5;"/>
    </g>
    <g id="line2d_82"/>
    <g id="text_41">
     <!-- $V_2$ -->
     <g transform="translate(1116.48 267.613922)scale(0.12 -0.12)">
      <use transform="translate(0 0.09375)" xlink:href="#DejaVuSans-Oblique-86"/>
      <use transform="translate(68.408203 -16.3125)scale(0.7)" xlink:href="#DejaVuSans-50"/>
     </g>
    </g>
   </g>
  </g>
  <g id="text_42">
   <!-- From A/S regime to S regime -->
   <g transform="translate(475.391406 19.277812)scale(0.14 -0.14)">
    <defs>
     <path d="M 9.8125 72.90625 
L 51.703125 72.90625 
L 51.703125 64.59375 
L 19.671875 64.59375 
L 19.671875 43.109375 
L 48.578125 43.109375 
L 48.578125 34.8125 
L 19.671875 34.8125 
L 19.671875 0 
L 9.8125 0 
z
" id="DejaVuSans-70"/>
     <path d="M 34.1875 63.1875 
L 20.796875 26.90625 
L 47.609375 26.90625 
z
M 28.609375 72.90625 
L 39.796875 72.90625 
L 67.578125 0 
L 57.328125 0 
L 50.6875 18.703125 
L 17.828125 18.703125 
L 11.1875 0 
L 0.78125 0 
z
" id="DejaVuSans-65"/>
     <path d="M 25.390625 72.90625 
L 33.6875 72.90625 
L 8.296875 -9.28125 
L 0 -9.28125 
z
" id="DejaVuSans-47"/>
     <path d="M 53.515625 70.515625 
L 53.515625 60.890625 
Q 47.90625 63.578125 42.921875 64.890625 
Q 37.9375 66.21875 33.296875 66.21875 
Q 25.25 66.21875 20.875 63.09375 
Q 16.5 59.96875 16.5 54.203125 
Q 16.5 49.359375 19.40625 46.890625 
Q 22.3125 44.4375 30.421875 42.921875 
L 36.375 41.703125 
Q 47.40625 39.59375 52.65625 34.296875 
Q 57.90625 29 57.90625 20.125 
Q 57.90625 9.515625 50.796875 4.046875 
Q 43.703125 -1.421875 29.984375 -1.421875 
Q 24.8125 -1.421875 18.96875 -0.25 
Q 13.140625 0.921875 6.890625 3.21875 
L 6.890625 13.375 
Q 12.890625 10.015625 18.65625 8.296875 
Q 24.421875 6.59375 29.984375 6.59375 
Q 38.421875 6.59375 43.015625 9.90625 
Q 47.609375 13.234375 47.609375 19.390625 
Q 47.609375 24.75 44.3125 27.78125 
Q 41.015625 30.8125 33.5 32.328125 
L 27.484375 33.5 
Q 16.453125 35.6875 11.515625 40.375 
Q 6.59375 45.0625 6.59375 53.421875 
Q 6.59375 63.09375 13.40625 68.65625 
Q 20.21875 74.21875 32.171875 74.21875 
Q 37.3125 74.21875 42.625 73.28125 
Q 47.953125 72.359375 53.515625 70.515625 
z
" id="DejaVuSans-83"/>
    </defs>
    <use xlink:href="#DejaVuSans-70"/>
    <use x="50.269531" xlink:href="#DejaVuSans-114"/>
    <use x="89.132812" xlink:href="#DejaVuSans-111"/>
    <use x="150.314453" xlink:href="#DejaVuSans-109"/>
    <use x="247.726562" xlink:href="#DejaVuSans-32"/>
    <use x="279.513672" xlink:href="#DejaVuSans-65"/>
    <use x="347.921875" xlink:href="#DejaVuSans-47"/>
    <use x="381.613281" xlink:href="#DejaVuSans-83"/>
    <use x="445.089844" xlink:href="#DejaVuSans-32"/>
    <use x="476.876953" xlink:href="#DejaVuSans-114"/>
    <use x="515.740234" xlink:href="#DejaVuSans-101"/>
    <use x="577.263672" xlink:href="#DejaVuSans-103"/>
    <use x="640.740234" xlink:href="#DejaVuSans-105"/>
    <use x="668.523438" xlink:href="#DejaVuSans-109"/>
    <use x="765.935547" xlink:href="#DejaVuSans-101"/>
    <use x="827.458984" xlink:href="#DejaVuSans-32"/>
    <use x="859.246094" xlink:href="#DejaVuSans-116"/>
    <use x="898.455078" xlink:href="#DejaVuSans-111"/>
    <use x="959.636719" xlink:href="#DejaVuSans-32"/>
    <use x="991.423828" xlink:href="#DejaVuSans-83"/>
    <use x="1054.900391" xlink:href="#DejaVuSans-32"/>
    <use x="1086.6875" xlink:href="#DejaVuSans-114"/>
    <use x="1125.550781" xlink:href="#DejaVuSans-101"/>
    <use x="1187.074219" xlink:href="#DejaVuSans-103"/>
    <use x="1250.550781" xlink:href="#DejaVuSans-105"/>
    <use x="1278.333984" xlink:href="#DejaVuSans-109"/>
    <use x="1375.746094" xlink:href="#DejaVuSans-101"/>
   </g>
  </g>
 </g>
 <defs>
  <clipPath id="p2f56d6236f">
   <rect height="166.147188" width="532.415937" x="55.705625" y="38.948594"/>
  </clipPath>
  <clipPath id="p251d261e20">
   <rect height="166.147188" width="532.415937" x="608.784063" y="38.948594"/>
  </clipPath>
  <clipPath id="pd847424a82">
   <rect height="166.147187" width="532.415937" x="55.705625" y="221.774688"/>
  </clipPath>
  <clipPath id="p680b3de35c">
   <rect height="166.147187" width="532.415937" x="608.784063" y="221.774688"/>
  </clipPath>
 </defs>
</svg>
