<?xml version="1.0" encoding="utf-8" standalone="no"?>
<!DOCTYPE svg PUBLIC "-//W3C//DTD SVG 1.1//EN"
  "http://www.w3.org/Graphics/SVG/1.1/DTD/svg11.dtd">
<!-- Created with matplotlib (https://matplotlib.org/) -->
<svg height="360pt" version="1.1" viewBox="0 0 576 360" width="576pt" xmlns="http://www.w3.org/2000/svg" xmlns:xlink="http://www.w3.org/1999/xlink">
 <metadata>
  <rdf:RDF xmlns:cc="http://creativecommons.org/ns#" xmlns:dc="http://purl.org/dc/elements/1.1/" xmlns:rdf="http://www.w3.org/1999/02/22-rdf-syntax-ns#">
   <cc:Work>
    <dc:type rdf:resource="http://purl.org/dc/dcmitype/StillImage"/>
    <dc:date>2021-08-22T00:31:54.359451</dc:date>
    <dc:format>image/svg+xml</dc:format>
    <dc:creator>
     <cc:Agent>
      <dc:title>Matplotlib v3.3.3, https://matplotlib.org/</dc:title>
     </cc:Agent>
    </dc:creator>
   </cc:Work>
  </rdf:RDF>
 </metadata>
 <defs>
  <style type="text/css">*{stroke-linecap:butt;stroke-linejoin:round;}</style>
 </defs>
 <g id="figure_1">
  <g id="patch_1">
   <path d="M 0 360 
L 576 360 
L 576 0 
L 0 0 
z
" style="fill:#ffffff;"/>
  </g>
  <g id="axes_1">
   <g id="patch_2">
    <path d="M 59.69 312.28 
L 565.2 312.28 
L 565.2 29.76 
L 59.69 29.76 
z
" style="fill:#ffffff;"/>
   </g>
   <g id="matplotlib.axis_1">
    <g id="xtick_1">
     <g id="line2d_1">
      <defs>
       <path d="M 0 0 
L 0 3.5 
" id="m9e7c668509" style="stroke:#000000;stroke-width:0.8;"/>
      </defs>
      <g>
       <use style="stroke:#000000;stroke-width:0.8;" x="82.667727" xlink:href="#m9e7c668509" y="312.28"/>
      </g>
     </g>
     <g id="text_1">
      <!-- 0.0 -->
      <g transform="translate(74.716165 326.878438)scale(0.1 -0.1)">
       <defs>
        <path d="M 31.78125 66.40625 
Q 24.171875 66.40625 20.328125 58.90625 
Q 16.5 51.421875 16.5 36.375 
Q 16.5 21.390625 20.328125 13.890625 
Q 24.171875 6.390625 31.78125 6.390625 
Q 39.453125 6.390625 43.28125 13.890625 
Q 47.125 21.390625 47.125 36.375 
Q 47.125 51.421875 43.28125 58.90625 
Q 39.453125 66.40625 31.78125 66.40625 
z
M 31.78125 74.21875 
Q 44.046875 74.21875 50.515625 64.515625 
Q 56.984375 54.828125 56.984375 36.375 
Q 56.984375 17.96875 50.515625 8.265625 
Q 44.046875 -1.421875 31.78125 -1.421875 
Q 19.53125 -1.421875 13.0625 8.265625 
Q 6.59375 17.96875 6.59375 36.375 
Q 6.59375 54.828125 13.0625 64.515625 
Q 19.53125 74.21875 31.78125 74.21875 
z
" id="DejaVuSans-48"/>
        <path d="M 10.6875 12.40625 
L 21 12.40625 
L 21 0 
L 10.6875 0 
z
" id="DejaVuSans-46"/>
       </defs>
       <use xlink:href="#DejaVuSans-48"/>
       <use x="63.623047" xlink:href="#DejaVuSans-46"/>
       <use x="95.410156" xlink:href="#DejaVuSans-48"/>
      </g>
     </g>
    </g>
    <g id="xtick_2">
     <g id="line2d_2">
      <g>
       <use style="stroke:#000000;stroke-width:0.8;" x="174.578636" xlink:href="#m9e7c668509" y="312.28"/>
      </g>
     </g>
     <g id="text_2">
      <!-- 0.1 -->
      <g transform="translate(166.627074 326.878438)scale(0.1 -0.1)">
       <defs>
        <path d="M 12.40625 8.296875 
L 28.515625 8.296875 
L 28.515625 63.921875 
L 10.984375 60.40625 
L 10.984375 69.390625 
L 28.421875 72.90625 
L 38.28125 72.90625 
L 38.28125 8.296875 
L 54.390625 8.296875 
L 54.390625 0 
L 12.40625 0 
z
" id="DejaVuSans-49"/>
       </defs>
       <use xlink:href="#DejaVuSans-48"/>
       <use x="63.623047" xlink:href="#DejaVuSans-46"/>
       <use x="95.410156" xlink:href="#DejaVuSans-49"/>
      </g>
     </g>
    </g>
    <g id="xtick_3">
     <g id="line2d_3">
      <g>
       <use style="stroke:#000000;stroke-width:0.8;" x="266.489545" xlink:href="#m9e7c668509" y="312.28"/>
      </g>
     </g>
     <g id="text_3">
      <!-- 0.2 -->
      <g transform="translate(258.537983 326.878438)scale(0.1 -0.1)">
       <defs>
        <path d="M 19.1875 8.296875 
L 53.609375 8.296875 
L 53.609375 0 
L 7.328125 0 
L 7.328125 8.296875 
Q 12.9375 14.109375 22.625 23.890625 
Q 32.328125 33.6875 34.8125 36.53125 
Q 39.546875 41.84375 41.421875 45.53125 
Q 43.3125 49.21875 43.3125 52.78125 
Q 43.3125 58.59375 39.234375 62.25 
Q 35.15625 65.921875 28.609375 65.921875 
Q 23.96875 65.921875 18.8125 64.3125 
Q 13.671875 62.703125 7.8125 59.421875 
L 7.8125 69.390625 
Q 13.765625 71.78125 18.9375 73 
Q 24.125 74.21875 28.421875 74.21875 
Q 39.75 74.21875 46.484375 68.546875 
Q 53.21875 62.890625 53.21875 53.421875 
Q 53.21875 48.921875 51.53125 44.890625 
Q 49.859375 40.875 45.40625 35.40625 
Q 44.1875 33.984375 37.640625 27.21875 
Q 31.109375 20.453125 19.1875 8.296875 
z
" id="DejaVuSans-50"/>
       </defs>
       <use xlink:href="#DejaVuSans-48"/>
       <use x="63.623047" xlink:href="#DejaVuSans-46"/>
       <use x="95.410156" xlink:href="#DejaVuSans-50"/>
      </g>
     </g>
    </g>
    <g id="xtick_4">
     <g id="line2d_4">
      <g>
       <use style="stroke:#000000;stroke-width:0.8;" x="358.400455" xlink:href="#m9e7c668509" y="312.28"/>
      </g>
     </g>
     <g id="text_4">
      <!-- 0.3 -->
      <g transform="translate(350.448892 326.878438)scale(0.1 -0.1)">
       <defs>
        <path d="M 40.578125 39.3125 
Q 47.65625 37.796875 51.625 33 
Q 55.609375 28.21875 55.609375 21.1875 
Q 55.609375 10.40625 48.1875 4.484375 
Q 40.765625 -1.421875 27.09375 -1.421875 
Q 22.515625 -1.421875 17.65625 -0.515625 
Q 12.796875 0.390625 7.625 2.203125 
L 7.625 11.71875 
Q 11.71875 9.328125 16.59375 8.109375 
Q 21.484375 6.890625 26.8125 6.890625 
Q 36.078125 6.890625 40.9375 10.546875 
Q 45.796875 14.203125 45.796875 21.1875 
Q 45.796875 27.640625 41.28125 31.265625 
Q 36.765625 34.90625 28.71875 34.90625 
L 20.21875 34.90625 
L 20.21875 43.015625 
L 29.109375 43.015625 
Q 36.375 43.015625 40.234375 45.921875 
Q 44.09375 48.828125 44.09375 54.296875 
Q 44.09375 59.90625 40.109375 62.90625 
Q 36.140625 65.921875 28.71875 65.921875 
Q 24.65625 65.921875 20.015625 65.03125 
Q 15.375 64.15625 9.8125 62.3125 
L 9.8125 71.09375 
Q 15.4375 72.65625 20.34375 73.4375 
Q 25.25 74.21875 29.59375 74.21875 
Q 40.828125 74.21875 47.359375 69.109375 
Q 53.90625 64.015625 53.90625 55.328125 
Q 53.90625 49.265625 50.4375 45.09375 
Q 46.96875 40.921875 40.578125 39.3125 
z
" id="DejaVuSans-51"/>
       </defs>
       <use xlink:href="#DejaVuSans-48"/>
       <use x="63.623047" xlink:href="#DejaVuSans-46"/>
       <use x="95.410156" xlink:href="#DejaVuSans-51"/>
      </g>
     </g>
    </g>
    <g id="xtick_5">
     <g id="line2d_5">
      <g>
       <use style="stroke:#000000;stroke-width:0.8;" x="450.311364" xlink:href="#m9e7c668509" y="312.28"/>
      </g>
     </g>
     <g id="text_5">
      <!-- 0.4 -->
      <g transform="translate(442.359801 326.878438)scale(0.1 -0.1)">
       <defs>
        <path d="M 37.796875 64.3125 
L 12.890625 25.390625 
L 37.796875 25.390625 
z
M 35.203125 72.90625 
L 47.609375 72.90625 
L 47.609375 25.390625 
L 58.015625 25.390625 
L 58.015625 17.1875 
L 47.609375 17.1875 
L 47.609375 0 
L 37.796875 0 
L 37.796875 17.1875 
L 4.890625 17.1875 
L 4.890625 26.703125 
z
" id="DejaVuSans-52"/>
       </defs>
       <use xlink:href="#DejaVuSans-48"/>
       <use x="63.623047" xlink:href="#DejaVuSans-46"/>
       <use x="95.410156" xlink:href="#DejaVuSans-52"/>
      </g>
     </g>
    </g>
    <g id="xtick_6">
     <g id="line2d_6">
      <g>
       <use style="stroke:#000000;stroke-width:0.8;" x="542.222273" xlink:href="#m9e7c668509" y="312.28"/>
      </g>
     </g>
     <g id="text_6">
      <!-- 0.5 -->
      <g transform="translate(534.27071 326.878438)scale(0.1 -0.1)">
       <defs>
        <path d="M 10.796875 72.90625 
L 49.515625 72.90625 
L 49.515625 64.59375 
L 19.828125 64.59375 
L 19.828125 46.734375 
Q 21.96875 47.46875 24.109375 47.828125 
Q 26.265625 48.1875 28.421875 48.1875 
Q 40.625 48.1875 47.75 41.5 
Q 54.890625 34.8125 54.890625 23.390625 
Q 54.890625 11.625 47.5625 5.09375 
Q 40.234375 -1.421875 26.90625 -1.421875 
Q 22.3125 -1.421875 17.546875 -0.640625 
Q 12.796875 0.140625 7.71875 1.703125 
L 7.71875 11.625 
Q 12.109375 9.234375 16.796875 8.0625 
Q 21.484375 6.890625 26.703125 6.890625 
Q 35.15625 6.890625 40.078125 11.328125 
Q 45.015625 15.765625 45.015625 23.390625 
Q 45.015625 31 40.078125 35.4375 
Q 35.15625 39.890625 26.703125 39.890625 
Q 22.75 39.890625 18.8125 39.015625 
Q 14.890625 38.140625 10.796875 36.28125 
z
" id="DejaVuSans-53"/>
       </defs>
       <use xlink:href="#DejaVuSans-48"/>
       <use x="63.623047" xlink:href="#DejaVuSans-46"/>
       <use x="95.410156" xlink:href="#DejaVuSans-53"/>
      </g>
     </g>
    </g>
    <g id="text_7">
     <!-- Sqrt of the variance $\sigma$ -->
     <g transform="translate(247.105 342.078125)scale(0.12 -0.12)">
      <defs>
       <path d="M 53.515625 70.515625 
L 53.515625 60.890625 
Q 47.90625 63.578125 42.921875 64.890625 
Q 37.9375 66.21875 33.296875 66.21875 
Q 25.25 66.21875 20.875 63.09375 
Q 16.5 59.96875 16.5 54.203125 
Q 16.5 49.359375 19.40625 46.890625 
Q 22.3125 44.4375 30.421875 42.921875 
L 36.375 41.703125 
Q 47.40625 39.59375 52.65625 34.296875 
Q 57.90625 29 57.90625 20.125 
Q 57.90625 9.515625 50.796875 4.046875 
Q 43.703125 -1.421875 29.984375 -1.421875 
Q 24.8125 -1.421875 18.96875 -0.25 
Q 13.140625 0.921875 6.890625 3.21875 
L 6.890625 13.375 
Q 12.890625 10.015625 18.65625 8.296875 
Q 24.421875 6.59375 29.984375 6.59375 
Q 38.421875 6.59375 43.015625 9.90625 
Q 47.609375 13.234375 47.609375 19.390625 
Q 47.609375 24.75 44.3125 27.78125 
Q 41.015625 30.8125 33.5 32.328125 
L 27.484375 33.5 
Q 16.453125 35.6875 11.515625 40.375 
Q 6.59375 45.0625 6.59375 53.421875 
Q 6.59375 63.09375 13.40625 68.65625 
Q 20.21875 74.21875 32.171875 74.21875 
Q 37.3125 74.21875 42.625 73.28125 
Q 47.953125 72.359375 53.515625 70.515625 
z
" id="DejaVuSans-83"/>
       <path d="M 14.796875 27.296875 
Q 14.796875 17.390625 18.875 11.75 
Q 22.953125 6.109375 30.078125 6.109375 
Q 37.203125 6.109375 41.296875 11.75 
Q 45.40625 17.390625 45.40625 27.296875 
Q 45.40625 37.203125 41.296875 42.84375 
Q 37.203125 48.484375 30.078125 48.484375 
Q 22.953125 48.484375 18.875 42.84375 
Q 14.796875 37.203125 14.796875 27.296875 
z
M 45.40625 8.203125 
Q 42.578125 3.328125 38.25 0.953125 
Q 33.9375 -1.421875 27.875 -1.421875 
Q 17.96875 -1.421875 11.734375 6.484375 
Q 5.515625 14.40625 5.515625 27.296875 
Q 5.515625 40.1875 11.734375 48.09375 
Q 17.96875 56 27.875 56 
Q 33.9375 56 38.25 53.625 
Q 42.578125 51.265625 45.40625 46.390625 
L 45.40625 54.6875 
L 54.390625 54.6875 
L 54.390625 -20.796875 
L 45.40625 -20.796875 
z
" id="DejaVuSans-113"/>
       <path d="M 41.109375 46.296875 
Q 39.59375 47.171875 37.8125 47.578125 
Q 36.03125 48 33.890625 48 
Q 26.265625 48 22.1875 43.046875 
Q 18.109375 38.09375 18.109375 28.8125 
L 18.109375 0 
L 9.078125 0 
L 9.078125 54.6875 
L 18.109375 54.6875 
L 18.109375 46.1875 
Q 20.953125 51.171875 25.484375 53.578125 
Q 30.03125 56 36.53125 56 
Q 37.453125 56 38.578125 55.875 
Q 39.703125 55.765625 41.0625 55.515625 
z
" id="DejaVuSans-114"/>
       <path d="M 18.3125 70.21875 
L 18.3125 54.6875 
L 36.8125 54.6875 
L 36.8125 47.703125 
L 18.3125 47.703125 
L 18.3125 18.015625 
Q 18.3125 11.328125 20.140625 9.421875 
Q 21.96875 7.515625 27.59375 7.515625 
L 36.8125 7.515625 
L 36.8125 0 
L 27.59375 0 
Q 17.1875 0 13.234375 3.875 
Q 9.28125 7.765625 9.28125 18.015625 
L 9.28125 47.703125 
L 2.6875 47.703125 
L 2.6875 54.6875 
L 9.28125 54.6875 
L 9.28125 70.21875 
z
" id="DejaVuSans-116"/>
       <path id="DejaVuSans-32"/>
       <path d="M 30.609375 48.390625 
Q 23.390625 48.390625 19.1875 42.75 
Q 14.984375 37.109375 14.984375 27.296875 
Q 14.984375 17.484375 19.15625 11.84375 
Q 23.34375 6.203125 30.609375 6.203125 
Q 37.796875 6.203125 41.984375 11.859375 
Q 46.1875 17.53125 46.1875 27.296875 
Q 46.1875 37.015625 41.984375 42.703125 
Q 37.796875 48.390625 30.609375 48.390625 
z
M 30.609375 56 
Q 42.328125 56 49.015625 48.375 
Q 55.71875 40.765625 55.71875 27.296875 
Q 55.71875 13.875 49.015625 6.21875 
Q 42.328125 -1.421875 30.609375 -1.421875 
Q 18.84375 -1.421875 12.171875 6.21875 
Q 5.515625 13.875 5.515625 27.296875 
Q 5.515625 40.765625 12.171875 48.375 
Q 18.84375 56 30.609375 56 
z
" id="DejaVuSans-111"/>
       <path d="M 37.109375 75.984375 
L 37.109375 68.5 
L 28.515625 68.5 
Q 23.6875 68.5 21.796875 66.546875 
Q 19.921875 64.59375 19.921875 59.515625 
L 19.921875 54.6875 
L 34.71875 54.6875 
L 34.71875 47.703125 
L 19.921875 47.703125 
L 19.921875 0 
L 10.890625 0 
L 10.890625 47.703125 
L 2.296875 47.703125 
L 2.296875 54.6875 
L 10.890625 54.6875 
L 10.890625 58.5 
Q 10.890625 67.625 15.140625 71.796875 
Q 19.390625 75.984375 28.609375 75.984375 
z
" id="DejaVuSans-102"/>
       <path d="M 54.890625 33.015625 
L 54.890625 0 
L 45.90625 0 
L 45.90625 32.71875 
Q 45.90625 40.484375 42.875 44.328125 
Q 39.84375 48.1875 33.796875 48.1875 
Q 26.515625 48.1875 22.3125 43.546875 
Q 18.109375 38.921875 18.109375 30.90625 
L 18.109375 0 
L 9.078125 0 
L 9.078125 75.984375 
L 18.109375 75.984375 
L 18.109375 46.1875 
Q 21.34375 51.125 25.703125 53.5625 
Q 30.078125 56 35.796875 56 
Q 45.21875 56 50.046875 50.171875 
Q 54.890625 44.34375 54.890625 33.015625 
z
" id="DejaVuSans-104"/>
       <path d="M 56.203125 29.59375 
L 56.203125 25.203125 
L 14.890625 25.203125 
Q 15.484375 15.921875 20.484375 11.0625 
Q 25.484375 6.203125 34.421875 6.203125 
Q 39.59375 6.203125 44.453125 7.46875 
Q 49.3125 8.734375 54.109375 11.28125 
L 54.109375 2.78125 
Q 49.265625 0.734375 44.1875 -0.34375 
Q 39.109375 -1.421875 33.890625 -1.421875 
Q 20.796875 -1.421875 13.15625 6.1875 
Q 5.515625 13.8125 5.515625 26.8125 
Q 5.515625 40.234375 12.765625 48.109375 
Q 20.015625 56 32.328125 56 
Q 43.359375 56 49.78125 48.890625 
Q 56.203125 41.796875 56.203125 29.59375 
z
M 47.21875 32.234375 
Q 47.125 39.59375 43.09375 43.984375 
Q 39.0625 48.390625 32.421875 48.390625 
Q 24.90625 48.390625 20.390625 44.140625 
Q 15.875 39.890625 15.1875 32.171875 
z
" id="DejaVuSans-101"/>
       <path d="M 2.984375 54.6875 
L 12.5 54.6875 
L 29.59375 8.796875 
L 46.6875 54.6875 
L 56.203125 54.6875 
L 35.6875 0 
L 23.484375 0 
z
" id="DejaVuSans-118"/>
       <path d="M 34.28125 27.484375 
Q 23.390625 27.484375 19.1875 25 
Q 14.984375 22.515625 14.984375 16.5 
Q 14.984375 11.71875 18.140625 8.90625 
Q 21.296875 6.109375 26.703125 6.109375 
Q 34.1875 6.109375 38.703125 11.40625 
Q 43.21875 16.703125 43.21875 25.484375 
L 43.21875 27.484375 
z
M 52.203125 31.203125 
L 52.203125 0 
L 43.21875 0 
L 43.21875 8.296875 
Q 40.140625 3.328125 35.546875 0.953125 
Q 30.953125 -1.421875 24.3125 -1.421875 
Q 15.921875 -1.421875 10.953125 3.296875 
Q 6 8.015625 6 15.921875 
Q 6 25.140625 12.171875 29.828125 
Q 18.359375 34.515625 30.609375 34.515625 
L 43.21875 34.515625 
L 43.21875 35.40625 
Q 43.21875 41.609375 39.140625 45 
Q 35.0625 48.390625 27.6875 48.390625 
Q 23 48.390625 18.546875 47.265625 
Q 14.109375 46.140625 10.015625 43.890625 
L 10.015625 52.203125 
Q 14.9375 54.109375 19.578125 55.046875 
Q 24.21875 56 28.609375 56 
Q 40.484375 56 46.34375 49.84375 
Q 52.203125 43.703125 52.203125 31.203125 
z
" id="DejaVuSans-97"/>
       <path d="M 9.421875 54.6875 
L 18.40625 54.6875 
L 18.40625 0 
L 9.421875 0 
z
M 9.421875 75.984375 
L 18.40625 75.984375 
L 18.40625 64.59375 
L 9.421875 64.59375 
z
" id="DejaVuSans-105"/>
       <path d="M 54.890625 33.015625 
L 54.890625 0 
L 45.90625 0 
L 45.90625 32.71875 
Q 45.90625 40.484375 42.875 44.328125 
Q 39.84375 48.1875 33.796875 48.1875 
Q 26.515625 48.1875 22.3125 43.546875 
Q 18.109375 38.921875 18.109375 30.90625 
L 18.109375 0 
L 9.078125 0 
L 9.078125 54.6875 
L 18.109375 54.6875 
L 18.109375 46.1875 
Q 21.34375 51.125 25.703125 53.5625 
Q 30.078125 56 35.796875 56 
Q 45.21875 56 50.046875 50.171875 
Q 54.890625 44.34375 54.890625 33.015625 
z
" id="DejaVuSans-110"/>
       <path d="M 48.78125 52.59375 
L 48.78125 44.1875 
Q 44.96875 46.296875 41.140625 47.34375 
Q 37.3125 48.390625 33.40625 48.390625 
Q 24.65625 48.390625 19.8125 42.84375 
Q 14.984375 37.3125 14.984375 27.296875 
Q 14.984375 17.28125 19.8125 11.734375 
Q 24.65625 6.203125 33.40625 6.203125 
Q 37.3125 6.203125 41.140625 7.25 
Q 44.96875 8.296875 48.78125 10.40625 
L 48.78125 2.09375 
Q 45.015625 0.34375 40.984375 -0.53125 
Q 36.96875 -1.421875 32.421875 -1.421875 
Q 20.0625 -1.421875 12.78125 6.34375 
Q 5.515625 14.109375 5.515625 27.296875 
Q 5.515625 40.671875 12.859375 48.328125 
Q 20.21875 56 33.015625 56 
Q 37.15625 56 41.109375 55.140625 
Q 45.0625 54.296875 48.78125 52.59375 
z
" id="DejaVuSans-99"/>
       <path d="M 34.671875 47.5625 
Q 27.25 47.5625 22.21875 42.1875 
Q 16.890625 36.578125 15.140625 27.296875 
Q 13.1875 17.484375 16.3125 11.8125 
Q 19.390625 6.203125 26.65625 6.203125 
Q 33.84375 6.203125 39.109375 11.859375 
Q 44.4375 17.53125 46.34375 27.296875 
Q 48.046875 36.234375 45.015625 42.1875 
Q 42.1875 47.5625 34.671875 47.5625 
z
M 36.078125 54.734375 
L 65.921875 54.6875 
L 64.15625 45.703125 
L 54.109375 45.703125 
Q 57.90625 38.09375 55.859375 27.296875 
Q 53.21875 13.875 45.0625 6.25 
Q 36.859375 -1.421875 25.140625 -1.421875 
Q 13.375 -1.421875 8.203125 6.25 
Q 3.03125 13.875 5.671875 27.296875 
Q 8.25 40.765625 16.40625 48.390625 
Q 23.1875 54.734375 36.078125 54.734375 
z
" id="DejaVuSans-Oblique-963"/>
      </defs>
      <use transform="translate(0 0.015625)" xlink:href="#DejaVuSans-83"/>
      <use transform="translate(63.476562 0.015625)" xlink:href="#DejaVuSans-113"/>
      <use transform="translate(126.953125 0.015625)" xlink:href="#DejaVuSans-114"/>
      <use transform="translate(168.066406 0.015625)" xlink:href="#DejaVuSans-116"/>
      <use transform="translate(207.275391 0.015625)" xlink:href="#DejaVuSans-32"/>
      <use transform="translate(239.0625 0.015625)" xlink:href="#DejaVuSans-111"/>
      <use transform="translate(300.244141 0.015625)" xlink:href="#DejaVuSans-102"/>
      <use transform="translate(335.449219 0.015625)" xlink:href="#DejaVuSans-32"/>
      <use transform="translate(367.236328 0.015625)" xlink:href="#DejaVuSans-116"/>
      <use transform="translate(406.445312 0.015625)" xlink:href="#DejaVuSans-104"/>
      <use transform="translate(469.824219 0.015625)" xlink:href="#DejaVuSans-101"/>
      <use transform="translate(531.347656 0.015625)" xlink:href="#DejaVuSans-32"/>
      <use transform="translate(563.134766 0.015625)" xlink:href="#DejaVuSans-118"/>
      <use transform="translate(622.314453 0.015625)" xlink:href="#DejaVuSans-97"/>
      <use transform="translate(683.59375 0.015625)" xlink:href="#DejaVuSans-114"/>
      <use transform="translate(724.707031 0.015625)" xlink:href="#DejaVuSans-105"/>
      <use transform="translate(752.490234 0.015625)" xlink:href="#DejaVuSans-97"/>
      <use transform="translate(813.769531 0.015625)" xlink:href="#DejaVuSans-110"/>
      <use transform="translate(877.148438 0.015625)" xlink:href="#DejaVuSans-99"/>
      <use transform="translate(932.128906 0.015625)" xlink:href="#DejaVuSans-101"/>
      <use transform="translate(993.652344 0.015625)" xlink:href="#DejaVuSans-32"/>
      <use transform="translate(1025.439453 0.015625)" xlink:href="#DejaVuSans-Oblique-963"/>
     </g>
    </g>
   </g>
   <g id="matplotlib.axis_2">
    <g id="ytick_1">
     <g id="line2d_7">
      <defs>
       <path d="M 0 0 
L -3.5 0 
" id="m5921f922ee" style="stroke:#000000;stroke-width:0.8;"/>
      </defs>
      <g>
       <use style="stroke:#000000;stroke-width:0.8;" x="59.69" xlink:href="#m5921f922ee" y="290.02012"/>
      </g>
     </g>
     <g id="text_8">
      <!-- 0.20 -->
      <g transform="translate(30.424375 293.819339)scale(0.1 -0.1)">
       <use xlink:href="#DejaVuSans-48"/>
       <use x="63.623047" xlink:href="#DejaVuSans-46"/>
       <use x="95.410156" xlink:href="#DejaVuSans-50"/>
       <use x="159.033203" xlink:href="#DejaVuSans-48"/>
      </g>
     </g>
    </g>
    <g id="ytick_2">
     <g id="line2d_8">
      <g>
       <use style="stroke:#000000;stroke-width:0.8;" x="59.69" xlink:href="#m5921f922ee" y="248.917093"/>
      </g>
     </g>
     <g id="text_9">
      <!-- 0.25 -->
      <g transform="translate(30.424375 252.716311)scale(0.1 -0.1)">
       <use xlink:href="#DejaVuSans-48"/>
       <use x="63.623047" xlink:href="#DejaVuSans-46"/>
       <use x="95.410156" xlink:href="#DejaVuSans-50"/>
       <use x="159.033203" xlink:href="#DejaVuSans-53"/>
      </g>
     </g>
    </g>
    <g id="ytick_3">
     <g id="line2d_9">
      <g>
       <use style="stroke:#000000;stroke-width:0.8;" x="59.69" xlink:href="#m5921f922ee" y="207.814065"/>
      </g>
     </g>
     <g id="text_10">
      <!-- 0.30 -->
      <g transform="translate(30.424375 211.613284)scale(0.1 -0.1)">
       <use xlink:href="#DejaVuSans-48"/>
       <use x="63.623047" xlink:href="#DejaVuSans-46"/>
       <use x="95.410156" xlink:href="#DejaVuSans-51"/>
       <use x="159.033203" xlink:href="#DejaVuSans-48"/>
      </g>
     </g>
    </g>
    <g id="ytick_4">
     <g id="line2d_10">
      <g>
       <use style="stroke:#000000;stroke-width:0.8;" x="59.69" xlink:href="#m5921f922ee" y="166.711037"/>
      </g>
     </g>
     <g id="text_11">
      <!-- 0.35 -->
      <g transform="translate(30.424375 170.510256)scale(0.1 -0.1)">
       <use xlink:href="#DejaVuSans-48"/>
       <use x="63.623047" xlink:href="#DejaVuSans-46"/>
       <use x="95.410156" xlink:href="#DejaVuSans-51"/>
       <use x="159.033203" xlink:href="#DejaVuSans-53"/>
      </g>
     </g>
    </g>
    <g id="ytick_5">
     <g id="line2d_11">
      <g>
       <use style="stroke:#000000;stroke-width:0.8;" x="59.69" xlink:href="#m5921f922ee" y="125.60801"/>
      </g>
     </g>
     <g id="text_12">
      <!-- 0.40 -->
      <g transform="translate(30.424375 129.407229)scale(0.1 -0.1)">
       <use xlink:href="#DejaVuSans-48"/>
       <use x="63.623047" xlink:href="#DejaVuSans-46"/>
       <use x="95.410156" xlink:href="#DejaVuSans-52"/>
       <use x="159.033203" xlink:href="#DejaVuSans-48"/>
      </g>
     </g>
    </g>
    <g id="ytick_6">
     <g id="line2d_12">
      <g>
       <use style="stroke:#000000;stroke-width:0.8;" x="59.69" xlink:href="#m5921f922ee" y="84.504982"/>
      </g>
     </g>
     <g id="text_13">
      <!-- 0.45 -->
      <g transform="translate(30.424375 88.304201)scale(0.1 -0.1)">
       <use xlink:href="#DejaVuSans-48"/>
       <use x="63.623047" xlink:href="#DejaVuSans-46"/>
       <use x="95.410156" xlink:href="#DejaVuSans-52"/>
       <use x="159.033203" xlink:href="#DejaVuSans-53"/>
      </g>
     </g>
    </g>
    <g id="ytick_7">
     <g id="line2d_13">
      <g>
       <use style="stroke:#000000;stroke-width:0.8;" x="59.69" xlink:href="#m5921f922ee" y="43.401955"/>
      </g>
     </g>
     <g id="text_14">
      <!-- 0.50 -->
      <g transform="translate(30.424375 47.201173)scale(0.1 -0.1)">
       <use xlink:href="#DejaVuSans-48"/>
       <use x="63.623047" xlink:href="#DejaVuSans-46"/>
       <use x="95.410156" xlink:href="#DejaVuSans-53"/>
       <use x="159.033203" xlink:href="#DejaVuSans-48"/>
      </g>
     </g>
    </g>
    <g id="text_15">
     <!-- Expectancy $\mathbb{E}$$(\phi(t=40))$ -->
     <g transform="translate(23.904375 242.3)rotate(-90)scale(0.12 -0.12)">
      <defs>
       <path d="M 9.8125 72.90625 
L 55.90625 72.90625 
L 55.90625 64.59375 
L 19.671875 64.59375 
L 19.671875 43.015625 
L 54.390625 43.015625 
L 54.390625 34.71875 
L 19.671875 34.71875 
L 19.671875 8.296875 
L 56.78125 8.296875 
L 56.78125 0 
L 9.8125 0 
z
" id="DejaVuSans-69"/>
       <path d="M 54.890625 54.6875 
L 35.109375 28.078125 
L 55.90625 0 
L 45.3125 0 
L 29.390625 21.484375 
L 13.484375 0 
L 2.875 0 
L 24.125 28.609375 
L 4.6875 54.6875 
L 15.28125 54.6875 
L 29.78125 35.203125 
L 44.28125 54.6875 
z
" id="DejaVuSans-120"/>
       <path d="M 18.109375 8.203125 
L 18.109375 -20.796875 
L 9.078125 -20.796875 
L 9.078125 54.6875 
L 18.109375 54.6875 
L 18.109375 46.390625 
Q 20.953125 51.265625 25.265625 53.625 
Q 29.59375 56 35.59375 56 
Q 45.5625 56 51.78125 48.09375 
Q 58.015625 40.1875 58.015625 27.296875 
Q 58.015625 14.40625 51.78125 6.484375 
Q 45.5625 -1.421875 35.59375 -1.421875 
Q 29.59375 -1.421875 25.265625 0.953125 
Q 20.953125 3.328125 18.109375 8.203125 
z
M 48.6875 27.296875 
Q 48.6875 37.203125 44.609375 42.84375 
Q 40.53125 48.484375 33.40625 48.484375 
Q 26.265625 48.484375 22.1875 42.84375 
Q 18.109375 37.203125 18.109375 27.296875 
Q 18.109375 17.390625 22.1875 11.75 
Q 26.265625 6.109375 33.40625 6.109375 
Q 40.53125 6.109375 44.609375 11.75 
Q 48.6875 17.390625 48.6875 27.296875 
z
" id="DejaVuSans-112"/>
       <path d="M 32.171875 -5.078125 
Q 28.375 -14.84375 24.75 -17.8125 
Q 21.140625 -20.796875 15.09375 -20.796875 
L 7.90625 -20.796875 
L 7.90625 -13.28125 
L 13.1875 -13.28125 
Q 16.890625 -13.28125 18.9375 -11.515625 
Q 21 -9.765625 23.484375 -3.21875 
L 25.09375 0.875 
L 2.984375 54.6875 
L 12.5 54.6875 
L 29.59375 11.921875 
L 46.6875 54.6875 
L 56.203125 54.6875 
z
" id="DejaVuSans-121"/>
       <path d="M 66.40625 65.296875 
L 65.5 61.59375 
L 33.59375 61.59375 
L 26.703125 35.40625 
L 54.90625 35.40625 
L 53.796875 31.703125 
L 25.703125 31.703125 
L 18.203125 3.703125 
L 53.796875 3.703125 
L 53 0 
L 1.703125 0 
L 19.203125 65.296875 
z
M 29.90625 61.59375 
L 22.09375 61.59375 
L 6.5 3.703125 
L 14.5 3.703125 
z
" id="STIXNonUnicode-Italic-57686"/>
       <path d="M 31 75.875 
Q 24.46875 64.65625 21.28125 53.65625 
Q 18.109375 42.671875 18.109375 31.390625 
Q 18.109375 20.125 21.3125 9.0625 
Q 24.515625 -2 31 -13.1875 
L 23.1875 -13.1875 
Q 15.875 -1.703125 12.234375 9.375 
Q 8.59375 20.453125 8.59375 31.390625 
Q 8.59375 42.28125 12.203125 53.3125 
Q 15.828125 64.359375 23.1875 75.875 
z
" id="DejaVuSans-40"/>
       <path d="M 46.734375 75.984375 
L 42.78125 55.8125 
Q 52.546875 55.8125 57.5625 48.34375 
Q 62.75 40.71875 60.15625 27.296875 
Q 57.515625 13.875 49.359375 6.25 
Q 41.453125 -1.21875 31.6875 -1.21875 
L 27.875 -20.796875 
L 18.953125 -20.796875 
L 22.75 -1.21875 
Q 13.03125 -1.21875 7.953125 6.25 
Q 2.78125 13.875 5.421875 27.296875 
Q 8.015625 40.71875 16.15625 48.34375 
Q 24.125 55.8125 33.84375 55.8125 
L 37.796875 75.984375 
z
M 33.25 6.78125 
Q 38.765625 6.78125 43.5 11.8125 
Q 48.6875 17.4375 50.6875 27.296875 
Q 52.640625 37.0625 49.515625 42.78125 
Q 46.734375 47.796875 41.21875 47.796875 
z
M 24.3125 6.78125 
L 32.28125 47.796875 
Q 26.8125 47.796875 22.078125 42.78125 
Q 16.75 37.0625 14.890625 27.296875 
Q 13.03125 17.4375 16.0625 11.8125 
Q 18.796875 6.78125 24.3125 6.78125 
z
" id="DejaVuSans-Oblique-981"/>
       <path d="M 42.28125 54.6875 
L 40.921875 47.703125 
L 23 47.703125 
L 17.1875 18.015625 
Q 16.890625 16.359375 16.75 15.234375 
Q 16.609375 14.109375 16.609375 13.484375 
Q 16.609375 10.359375 18.484375 8.9375 
Q 20.359375 7.515625 24.515625 7.515625 
L 33.59375 7.515625 
L 32.078125 0 
L 23.484375 0 
Q 15.484375 0 11.546875 3.125 
Q 7.625 6.25 7.625 12.59375 
Q 7.625 13.71875 7.765625 15.0625 
Q 7.90625 16.40625 8.203125 18.015625 
L 14.015625 47.703125 
L 6.390625 47.703125 
L 7.8125 54.6875 
L 15.28125 54.6875 
L 18.3125 70.21875 
L 27.296875 70.21875 
L 24.3125 54.6875 
z
" id="DejaVuSans-Oblique-116"/>
       <path d="M 10.59375 45.40625 
L 73.1875 45.40625 
L 73.1875 37.203125 
L 10.59375 37.203125 
z
M 10.59375 25.484375 
L 73.1875 25.484375 
L 73.1875 17.1875 
L 10.59375 17.1875 
z
" id="DejaVuSans-61"/>
       <path d="M 8.015625 75.875 
L 15.828125 75.875 
Q 23.140625 64.359375 26.78125 53.3125 
Q 30.421875 42.28125 30.421875 31.390625 
Q 30.421875 20.453125 26.78125 9.375 
Q 23.140625 -1.703125 15.828125 -13.1875 
L 8.015625 -13.1875 
Q 14.5 -2 17.703125 9.0625 
Q 20.90625 20.125 20.90625 31.390625 
Q 20.90625 42.671875 17.703125 53.65625 
Q 14.5 64.65625 8.015625 75.875 
z
" id="DejaVuSans-41"/>
      </defs>
      <use transform="translate(0 0.015625)" xlink:href="#DejaVuSans-69"/>
      <use transform="translate(63.183594 0.015625)" xlink:href="#DejaVuSans-120"/>
      <use transform="translate(122.363281 0.015625)" xlink:href="#DejaVuSans-112"/>
      <use transform="translate(185.839844 0.015625)" xlink:href="#DejaVuSans-101"/>
      <use transform="translate(247.363281 0.015625)" xlink:href="#DejaVuSans-99"/>
      <use transform="translate(302.34375 0.015625)" xlink:href="#DejaVuSans-116"/>
      <use transform="translate(341.552734 0.015625)" xlink:href="#DejaVuSans-97"/>
      <use transform="translate(402.832031 0.015625)" xlink:href="#DejaVuSans-110"/>
      <use transform="translate(466.210938 0.015625)" xlink:href="#DejaVuSans-99"/>
      <use transform="translate(521.191406 0.015625)" xlink:href="#DejaVuSans-121"/>
      <use transform="translate(580.371094 0.015625)" xlink:href="#DejaVuSans-32"/>
      <use transform="translate(612.158203 0.015625)" xlink:href="#STIXNonUnicode-Italic-57686"/>
      <use transform="translate(676.058197 0.015625)" xlink:href="#DejaVuSans-40"/>
      <use transform="translate(715.071869 0.015625)" xlink:href="#DejaVuSans-Oblique-981"/>
      <use transform="translate(781.038666 0.015625)" xlink:href="#DejaVuSans-40"/>
      <use transform="translate(820.052338 0.015625)" xlink:href="#DejaVuSans-Oblique-116"/>
      <use transform="translate(878.743744 0.015625)" xlink:href="#DejaVuSans-61"/>
      <use transform="translate(982.015228 0.015625)" xlink:href="#DejaVuSans-52"/>
      <use transform="translate(1045.638275 0.015625)" xlink:href="#DejaVuSans-48"/>
      <use transform="translate(1109.261322 0.015625)" xlink:href="#DejaVuSans-41"/>
      <use transform="translate(1148.274994 0.015625)" xlink:href="#DejaVuSans-41"/>
     </g>
    </g>
   </g>
   <g id="LineCollection_1">
    <path clip-path="url(#pe5ae7346f3)" d="M 82.667727 44.135937 
L 82.667727 44.135937 
" style="fill:none;stroke:#ef9f07;stroke-width:1.5;"/>
    <path clip-path="url(#pe5ae7346f3)" d="M 128.623182 45.514501 
L 128.623182 45.09158 
" style="fill:none;stroke:#ef9f07;stroke-width:1.5;"/>
    <path clip-path="url(#pe5ae7346f3)" d="M 174.578636 44.95886 
L 174.578636 42.601818 
" style="fill:none;stroke:#ef9f07;stroke-width:1.5;"/>
    <path clip-path="url(#pe5ae7346f3)" d="M 220.534091 70.66541 
L 220.534091 63.523505 
" style="fill:none;stroke:#ef9f07;stroke-width:1.5;"/>
    <path clip-path="url(#pe5ae7346f3)" d="M 266.489545 90.434685 
L 266.489545 82.050286 
" style="fill:none;stroke:#ef9f07;stroke-width:1.5;"/>
    <path clip-path="url(#pe5ae7346f3)" d="M 312.445 131.97259 
L 312.445 121.08997 
" style="fill:none;stroke:#ef9f07;stroke-width:1.5;"/>
    <path clip-path="url(#pe5ae7346f3)" d="M 358.400455 170.843149 
L 358.400455 158.578232 
" style="fill:none;stroke:#ef9f07;stroke-width:1.5;"/>
    <path clip-path="url(#pe5ae7346f3)" d="M 404.355909 195.976283 
L 404.355909 183.234066 
" style="fill:none;stroke:#ef9f07;stroke-width:1.5;"/>
    <path clip-path="url(#pe5ae7346f3)" d="M 450.311364 222.566441 
L 450.311364 209.330192 
" style="fill:none;stroke:#ef9f07;stroke-width:1.5;"/>
    <path clip-path="url(#pe5ae7346f3)" d="M 496.266818 231.988286 
L 496.266818 218.782068 
" style="fill:none;stroke:#ef9f07;stroke-width:1.5;"/>
    <path clip-path="url(#pe5ae7346f3)" d="M 542.222273 251.253271 
L 542.222273 238.143581 
" style="fill:none;stroke:#ef9f07;stroke-width:1.5;"/>
   </g>
   <g id="LineCollection_2">
    <path clip-path="url(#pe5ae7346f3)" d="M 82.667727 44.135937 
L 82.667727 44.135937 
" style="fill:none;stroke:#449775;stroke-width:1.5;"/>
    <path clip-path="url(#pe5ae7346f3)" d="M 128.623182 45.685627 
L 128.623182 45.076422 
" style="fill:none;stroke:#449775;stroke-width:1.5;"/>
    <path clip-path="url(#pe5ae7346f3)" d="M 174.578636 69.516725 
L 174.578636 63.70991 
" style="fill:none;stroke:#449775;stroke-width:1.5;"/>
    <path clip-path="url(#pe5ae7346f3)" d="M 220.534091 128.01141 
L 220.534091 117.910674 
" style="fill:none;stroke:#449775;stroke-width:1.5;"/>
    <path clip-path="url(#pe5ae7346f3)" d="M 266.489545 202.02448 
L 266.489545 189.523085 
" style="fill:none;stroke:#449775;stroke-width:1.5;"/>
    <path clip-path="url(#pe5ae7346f3)" d="M 312.445 241.818612 
L 312.445 228.795545 
" style="fill:none;stroke:#449775;stroke-width:1.5;"/>
    <path clip-path="url(#pe5ae7346f3)" d="M 358.400455 284.088392 
L 358.400455 271.333444 
" style="fill:none;stroke:#449775;stroke-width:1.5;"/>
    <path clip-path="url(#pe5ae7346f3)" d="M 404.355909 297.982454 
L 404.355909 285.259689 
" style="fill:none;stroke:#449775;stroke-width:1.5;"/>
    <path clip-path="url(#pe5ae7346f3)" d="M 450.311364 291.738677 
L 450.311364 278.853305 
" style="fill:none;stroke:#449775;stroke-width:1.5;"/>
    <path clip-path="url(#pe5ae7346f3)" d="M 496.266818 299.438182 
L 496.266818 286.662523 
" style="fill:none;stroke:#449775;stroke-width:1.5;"/>
    <path clip-path="url(#pe5ae7346f3)" d="M 542.222273 297.333586 
L 542.222273 284.551303 
" style="fill:none;stroke:#449775;stroke-width:1.5;"/>
   </g>
   <g id="line2d_14">
    <path clip-path="url(#pe5ae7346f3)" d="M 82.667727 44.135937 
L 128.623182 45.30304 
L 174.578636 43.780339 
L 220.534091 67.094458 
L 266.489545 86.242486 
L 312.445 126.53128 
L 358.400455 164.710691 
L 404.355909 189.605175 
L 450.311364 215.948316 
L 496.266818 225.385177 
L 542.222273 244.698426 
" style="fill:none;stroke:#ef9f07;stroke-linecap:square;stroke-width:1.5;"/>
    <defs>
     <path d="M 0 3 
C 0.795609 3 1.55874 2.683901 2.12132 2.12132 
C 2.683901 1.55874 3 0.795609 3 0 
C 3 -0.795609 2.683901 -1.55874 2.12132 -2.12132 
C 1.55874 -2.683901 0.795609 -3 0 -3 
C -0.795609 -3 -1.55874 -2.683901 -2.12132 -2.12132 
C -2.683901 -1.55874 -3 -0.795609 -3 0 
C -3 0.795609 -2.683901 1.55874 -2.12132 2.12132 
C -1.55874 2.683901 -0.795609 3 0 3 
z
" id="mf0ce10ad68" style="stroke:#ef9f07;"/>
    </defs>
    <g clip-path="url(#pe5ae7346f3)">
     <use style="fill:#ef9f07;stroke:#ef9f07;" x="82.667727" xlink:href="#mf0ce10ad68" y="44.135937"/>
     <use style="fill:#ef9f07;stroke:#ef9f07;" x="128.623182" xlink:href="#mf0ce10ad68" y="45.30304"/>
     <use style="fill:#ef9f07;stroke:#ef9f07;" x="174.578636" xlink:href="#mf0ce10ad68" y="43.780339"/>
     <use style="fill:#ef9f07;stroke:#ef9f07;" x="220.534091" xlink:href="#mf0ce10ad68" y="67.094458"/>
     <use style="fill:#ef9f07;stroke:#ef9f07;" x="266.489545" xlink:href="#mf0ce10ad68" y="86.242486"/>
     <use style="fill:#ef9f07;stroke:#ef9f07;" x="312.445" xlink:href="#mf0ce10ad68" y="126.53128"/>
     <use style="fill:#ef9f07;stroke:#ef9f07;" x="358.400455" xlink:href="#mf0ce10ad68" y="164.710691"/>
     <use style="fill:#ef9f07;stroke:#ef9f07;" x="404.355909" xlink:href="#mf0ce10ad68" y="189.605175"/>
     <use style="fill:#ef9f07;stroke:#ef9f07;" x="450.311364" xlink:href="#mf0ce10ad68" y="215.948316"/>
     <use style="fill:#ef9f07;stroke:#ef9f07;" x="496.266818" xlink:href="#mf0ce10ad68" y="225.385177"/>
     <use style="fill:#ef9f07;stroke:#ef9f07;" x="542.222273" xlink:href="#mf0ce10ad68" y="244.698426"/>
    </g>
   </g>
   <g id="line2d_15">
    <path clip-path="url(#pe5ae7346f3)" d="M 82.667727 44.135937 
L 128.623182 45.381025 
L 174.578636 66.613317 
L 220.534091 122.961042 
L 266.489545 195.773782 
L 312.445 235.307079 
L 358.400455 277.710918 
L 404.355909 291.621072 
L 450.311364 285.295991 
L 496.266818 293.050353 
L 542.222273 290.942445 
" style="fill:none;stroke:#449775;stroke-linecap:square;stroke-width:1.5;"/>
    <defs>
     <path d="M 0 3 
C 0.795609 3 1.55874 2.683901 2.12132 2.12132 
C 2.683901 1.55874 3 0.795609 3 0 
C 3 -0.795609 2.683901 -1.55874 2.12132 -2.12132 
C 1.55874 -2.683901 0.795609 -3 0 -3 
C -0.795609 -3 -1.55874 -2.683901 -2.12132 -2.12132 
C -2.683901 -1.55874 -3 -0.795609 -3 0 
C -3 0.795609 -2.683901 1.55874 -2.12132 2.12132 
C -1.55874 2.683901 -0.795609 3 0 3 
z
" id="mce2e26f15b" style="stroke:#449775;"/>
    </defs>
    <g clip-path="url(#pe5ae7346f3)">
     <use style="fill:#449775;stroke:#449775;" x="82.667727" xlink:href="#mce2e26f15b" y="44.135937"/>
     <use style="fill:#449775;stroke:#449775;" x="128.623182" xlink:href="#mce2e26f15b" y="45.381025"/>
     <use style="fill:#449775;stroke:#449775;" x="174.578636" xlink:href="#mce2e26f15b" y="66.613317"/>
     <use style="fill:#449775;stroke:#449775;" x="220.534091" xlink:href="#mce2e26f15b" y="122.961042"/>
     <use style="fill:#449775;stroke:#449775;" x="266.489545" xlink:href="#mce2e26f15b" y="195.773782"/>
     <use style="fill:#449775;stroke:#449775;" x="312.445" xlink:href="#mce2e26f15b" y="235.307079"/>
     <use style="fill:#449775;stroke:#449775;" x="358.400455" xlink:href="#mce2e26f15b" y="277.710918"/>
     <use style="fill:#449775;stroke:#449775;" x="404.355909" xlink:href="#mce2e26f15b" y="291.621072"/>
     <use style="fill:#449775;stroke:#449775;" x="450.311364" xlink:href="#mce2e26f15b" y="285.295991"/>
     <use style="fill:#449775;stroke:#449775;" x="496.266818" xlink:href="#mce2e26f15b" y="293.050353"/>
     <use style="fill:#449775;stroke:#449775;" x="542.222273" xlink:href="#mce2e26f15b" y="290.942445"/>
    </g>
   </g>
   <g id="patch_3">
    <path d="M 59.69 312.28 
L 59.69 29.76 
" style="fill:none;stroke:#000000;stroke-linecap:square;stroke-linejoin:miter;stroke-width:0.8;"/>
   </g>
   <g id="patch_4">
    <path d="M 565.2 312.28 
L 565.2 29.76 
" style="fill:none;stroke:#000000;stroke-linecap:square;stroke-linejoin:miter;stroke-width:0.8;"/>
   </g>
   <g id="patch_5">
    <path d="M 59.69 312.28 
L 565.2 312.28 
" style="fill:none;stroke:#000000;stroke-linecap:square;stroke-linejoin:miter;stroke-width:0.8;"/>
   </g>
   <g id="patch_6">
    <path d="M 59.69 29.76 
L 565.2 29.76 
" style="fill:none;stroke:#000000;stroke-linecap:square;stroke-linejoin:miter;stroke-width:0.8;"/>
   </g>
   <g id="text_16">
    <!-- Expectancy of $\phi(t=40)$ as a function of $\sigma$ -->
    <g transform="translate(156.745 23.76)scale(0.15 -0.15)">
     <defs>
      <path d="M 44.28125 53.078125 
L 44.28125 44.578125 
Q 40.484375 46.53125 36.375 47.5 
Q 32.28125 48.484375 27.875 48.484375 
Q 21.1875 48.484375 17.84375 46.4375 
Q 14.5 44.390625 14.5 40.28125 
Q 14.5 37.15625 16.890625 35.375 
Q 19.28125 33.59375 26.515625 31.984375 
L 29.59375 31.296875 
Q 39.15625 29.25 43.1875 25.515625 
Q 47.21875 21.78125 47.21875 15.09375 
Q 47.21875 7.46875 41.1875 3.015625 
Q 35.15625 -1.421875 24.609375 -1.421875 
Q 20.21875 -1.421875 15.453125 -0.5625 
Q 10.6875 0.296875 5.421875 2 
L 5.421875 11.28125 
Q 10.40625 8.6875 15.234375 7.390625 
Q 20.0625 6.109375 24.8125 6.109375 
Q 31.15625 6.109375 34.5625 8.28125 
Q 37.984375 10.453125 37.984375 14.40625 
Q 37.984375 18.0625 35.515625 20.015625 
Q 33.0625 21.96875 24.703125 23.78125 
L 21.578125 24.515625 
Q 13.234375 26.265625 9.515625 29.90625 
Q 5.8125 33.546875 5.8125 39.890625 
Q 5.8125 47.609375 11.28125 51.796875 
Q 16.75 56 26.8125 56 
Q 31.78125 56 36.171875 55.265625 
Q 40.578125 54.546875 44.28125 53.078125 
z
" id="DejaVuSans-115"/>
      <path d="M 8.5 21.578125 
L 8.5 54.6875 
L 17.484375 54.6875 
L 17.484375 21.921875 
Q 17.484375 14.15625 20.5 10.265625 
Q 23.53125 6.390625 29.59375 6.390625 
Q 36.859375 6.390625 41.078125 11.03125 
Q 45.3125 15.671875 45.3125 23.6875 
L 45.3125 54.6875 
L 54.296875 54.6875 
L 54.296875 0 
L 45.3125 0 
L 45.3125 8.40625 
Q 42.046875 3.421875 37.71875 1 
Q 33.40625 -1.421875 27.6875 -1.421875 
Q 18.265625 -1.421875 13.375 4.4375 
Q 8.5 10.296875 8.5 21.578125 
z
M 31.109375 56 
z
" id="DejaVuSans-117"/>
     </defs>
     <use transform="translate(0 0.015625)" xlink:href="#DejaVuSans-69"/>
     <use transform="translate(63.183594 0.015625)" xlink:href="#DejaVuSans-120"/>
     <use transform="translate(122.363281 0.015625)" xlink:href="#DejaVuSans-112"/>
     <use transform="translate(185.839844 0.015625)" xlink:href="#DejaVuSans-101"/>
     <use transform="translate(247.363281 0.015625)" xlink:href="#DejaVuSans-99"/>
     <use transform="translate(302.34375 0.015625)" xlink:href="#DejaVuSans-116"/>
     <use transform="translate(341.552734 0.015625)" xlink:href="#DejaVuSans-97"/>
     <use transform="translate(402.832031 0.015625)" xlink:href="#DejaVuSans-110"/>
     <use transform="translate(466.210938 0.015625)" xlink:href="#DejaVuSans-99"/>
     <use transform="translate(521.191406 0.015625)" xlink:href="#DejaVuSans-121"/>
     <use transform="translate(580.371094 0.015625)" xlink:href="#DejaVuSans-32"/>
     <use transform="translate(612.158203 0.015625)" xlink:href="#DejaVuSans-111"/>
     <use transform="translate(673.339844 0.015625)" xlink:href="#DejaVuSans-102"/>
     <use transform="translate(708.544922 0.015625)" xlink:href="#DejaVuSans-32"/>
     <use transform="translate(740.332031 0.015625)" xlink:href="#DejaVuSans-Oblique-981"/>
     <use transform="translate(806.298828 0.015625)" xlink:href="#DejaVuSans-40"/>
     <use transform="translate(845.3125 0.015625)" xlink:href="#DejaVuSans-Oblique-116"/>
     <use transform="translate(904.003906 0.015625)" xlink:href="#DejaVuSans-61"/>
     <use transform="translate(1007.275391 0.015625)" xlink:href="#DejaVuSans-52"/>
     <use transform="translate(1070.898438 0.015625)" xlink:href="#DejaVuSans-48"/>
     <use transform="translate(1134.521484 0.015625)" xlink:href="#DejaVuSans-41"/>
     <use transform="translate(1173.535156 0.015625)" xlink:href="#DejaVuSans-32"/>
     <use transform="translate(1205.322266 0.015625)" xlink:href="#DejaVuSans-97"/>
     <use transform="translate(1266.601562 0.015625)" xlink:href="#DejaVuSans-115"/>
     <use transform="translate(1318.701172 0.015625)" xlink:href="#DejaVuSans-32"/>
     <use transform="translate(1350.488281 0.015625)" xlink:href="#DejaVuSans-97"/>
     <use transform="translate(1411.767578 0.015625)" xlink:href="#DejaVuSans-32"/>
     <use transform="translate(1443.554688 0.015625)" xlink:href="#DejaVuSans-102"/>
     <use transform="translate(1478.759766 0.015625)" xlink:href="#DejaVuSans-117"/>
     <use transform="translate(1542.138672 0.015625)" xlink:href="#DejaVuSans-110"/>
     <use transform="translate(1605.517578 0.015625)" xlink:href="#DejaVuSans-99"/>
     <use transform="translate(1660.498047 0.015625)" xlink:href="#DejaVuSans-116"/>
     <use transform="translate(1699.707031 0.015625)" xlink:href="#DejaVuSans-105"/>
     <use transform="translate(1727.490234 0.015625)" xlink:href="#DejaVuSans-111"/>
     <use transform="translate(1788.671875 0.015625)" xlink:href="#DejaVuSans-110"/>
     <use transform="translate(1852.050781 0.015625)" xlink:href="#DejaVuSans-32"/>
     <use transform="translate(1883.837891 0.015625)" xlink:href="#DejaVuSans-111"/>
     <use transform="translate(1945.019531 0.015625)" xlink:href="#DejaVuSans-102"/>
     <use transform="translate(1980.224609 0.015625)" xlink:href="#DejaVuSans-32"/>
     <use transform="translate(2012.011719 0.015625)" xlink:href="#DejaVuSans-Oblique-963"/>
    </g>
   </g>
   <g id="legend_1">
    <g id="patch_7">
     <path d="M 452.345156 70.851875 
L 557.5 70.851875 
Q 559.7 70.851875 559.7 68.651875 
L 559.7 37.46 
Q 559.7 35.26 557.5 35.26 
L 452.345156 35.26 
Q 450.145156 35.26 450.145156 37.46 
L 450.145156 68.651875 
Q 450.145156 70.851875 452.345156 70.851875 
z
" style="fill:#ffffff;opacity:0.8;stroke:#cccccc;stroke-linejoin:miter;"/>
    </g>
    <g id="LineCollection_3">
     <path d="M 465.545156 49.668281 
L 465.545156 38.668281 
" style="fill:none;stroke:#ef9f07;stroke-width:1.5;"/>
    </g>
    <g id="line2d_16">
     <path d="M 454.545156 44.168281 
L 476.545156 44.168281 
" style="fill:none;stroke:#ef9f07;stroke-linecap:square;stroke-width:1.5;"/>
    </g>
    <g id="line2d_17">
     <g>
      <use style="fill:#ef9f07;stroke:#ef9f07;" x="465.545156" xlink:href="#mf0ce10ad68" y="44.168281"/>
     </g>
    </g>
    <g id="text_17">
     <!-- correlated -->
     <g transform="translate(485.345156 48.018281)scale(0.11 -0.11)">
      <defs>
       <path d="M 9.421875 75.984375 
L 18.40625 75.984375 
L 18.40625 0 
L 9.421875 0 
z
" id="DejaVuSans-108"/>
       <path d="M 45.40625 46.390625 
L 45.40625 75.984375 
L 54.390625 75.984375 
L 54.390625 0 
L 45.40625 0 
L 45.40625 8.203125 
Q 42.578125 3.328125 38.25 0.953125 
Q 33.9375 -1.421875 27.875 -1.421875 
Q 17.96875 -1.421875 11.734375 6.484375 
Q 5.515625 14.40625 5.515625 27.296875 
Q 5.515625 40.1875 11.734375 48.09375 
Q 17.96875 56 27.875 56 
Q 33.9375 56 38.25 53.625 
Q 42.578125 51.265625 45.40625 46.390625 
z
M 14.796875 27.296875 
Q 14.796875 17.390625 18.875 11.75 
Q 22.953125 6.109375 30.078125 6.109375 
Q 37.203125 6.109375 41.296875 11.75 
Q 45.40625 17.390625 45.40625 27.296875 
Q 45.40625 37.203125 41.296875 42.84375 
Q 37.203125 48.484375 30.078125 48.484375 
Q 22.953125 48.484375 18.875 42.84375 
Q 14.796875 37.203125 14.796875 27.296875 
z
" id="DejaVuSans-100"/>
      </defs>
      <use xlink:href="#DejaVuSans-99"/>
      <use x="54.980469" xlink:href="#DejaVuSans-111"/>
      <use x="116.162109" xlink:href="#DejaVuSans-114"/>
      <use x="155.525391" xlink:href="#DejaVuSans-114"/>
      <use x="194.388672" xlink:href="#DejaVuSans-101"/>
      <use x="255.912109" xlink:href="#DejaVuSans-108"/>
      <use x="283.695312" xlink:href="#DejaVuSans-97"/>
      <use x="344.974609" xlink:href="#DejaVuSans-116"/>
      <use x="384.183594" xlink:href="#DejaVuSans-101"/>
      <use x="445.707031" xlink:href="#DejaVuSans-100"/>
     </g>
    </g>
    <g id="LineCollection_4">
     <path d="M 465.545156 65.814219 
L 465.545156 54.814219 
" style="fill:none;stroke:#449775;stroke-width:1.5;"/>
    </g>
    <g id="line2d_18">
     <path d="M 454.545156 60.314219 
L 476.545156 60.314219 
" style="fill:none;stroke:#449775;stroke-linecap:square;stroke-width:1.5;"/>
    </g>
    <g id="line2d_19">
     <g>
      <use style="fill:#449775;stroke:#449775;" x="465.545156" xlink:href="#mce2e26f15b" y="60.314219"/>
     </g>
    </g>
    <g id="text_18">
     <!-- uncorrelated -->
     <g transform="translate(485.345156 64.164219)scale(0.11 -0.11)">
      <use xlink:href="#DejaVuSans-117"/>
      <use x="63.378906" xlink:href="#DejaVuSans-110"/>
      <use x="126.757812" xlink:href="#DejaVuSans-99"/>
      <use x="181.738281" xlink:href="#DejaVuSans-111"/>
      <use x="242.919922" xlink:href="#DejaVuSans-114"/>
      <use x="282.283203" xlink:href="#DejaVuSans-114"/>
      <use x="321.146484" xlink:href="#DejaVuSans-101"/>
      <use x="382.669922" xlink:href="#DejaVuSans-108"/>
      <use x="410.453125" xlink:href="#DejaVuSans-97"/>
      <use x="471.732422" xlink:href="#DejaVuSans-116"/>
      <use x="510.941406" xlink:href="#DejaVuSans-101"/>
      <use x="572.464844" xlink:href="#DejaVuSans-100"/>
     </g>
    </g>
   </g>
  </g>
 </g>
 <defs>
  <clipPath id="pe5ae7346f3">
   <rect height="282.52" width="505.51" x="59.69" y="29.76"/>
  </clipPath>
 </defs>
</svg>
