<?xml version="1.0" encoding="utf-8" standalone="no"?>
<!DOCTYPE svg PUBLIC "-//W3C//DTD SVG 1.1//EN"
  "http://www.w3.org/Graphics/SVG/1.1/DTD/svg11.dtd">
<!-- Created with matplotlib (https://matplotlib.org/) -->
<svg height="360pt" version="1.1" viewBox="0 0 864 360" width="864pt" xmlns="http://www.w3.org/2000/svg" xmlns:xlink="http://www.w3.org/1999/xlink">
 <metadata>
  <rdf:RDF xmlns:cc="http://creativecommons.org/ns#" xmlns:dc="http://purl.org/dc/elements/1.1/" xmlns:rdf="http://www.w3.org/1999/02/22-rdf-syntax-ns#">
   <cc:Work>
    <dc:type rdf:resource="http://purl.org/dc/dcmitype/StillImage"/>
    <dc:date>2021-08-17T14:06:02.936785</dc:date>
    <dc:format>image/svg+xml</dc:format>
    <dc:creator>
     <cc:Agent>
      <dc:title>Matplotlib v3.3.3, https://matplotlib.org/</dc:title>
     </cc:Agent>
    </dc:creator>
   </cc:Work>
  </rdf:RDF>
 </metadata>
 <defs>
  <style type="text/css">*{stroke-linecap:butt;stroke-linejoin:round;}</style>
 </defs>
 <g id="figure_1">
  <g id="patch_1">
   <path d="M 0 360 
L 864 360 
L 864 0 
L 0 0 
z
" style="fill:#ffffff;"/>
  </g>
  <g id="axes_1">
   <g id="patch_2">
    <path d="M 108 169.2 
L 777.6 169.2 
L 777.6 43.2 
L 108 43.2 
z
" style="fill:#ffffff;"/>
   </g>
   <g id="matplotlib.axis_1">
    <g id="xtick_1">
     <g id="line2d_1">
      <defs>
       <path d="M 0 0 
L 0 3.5 
" id="mf91814c317" style="stroke:#000000;stroke-width:0.8;"/>
      </defs>
      <g>
       <use style="stroke:#000000;stroke-width:0.8;" x="138.436364" xlink:href="#mf91814c317" y="169.2"/>
      </g>
     </g>
     <g id="text_1">
      <!-- 0 -->
      <g transform="translate(135.255114 183.798437)scale(0.1 -0.1)">
       <defs>
        <path d="M 31.78125 66.40625 
Q 24.171875 66.40625 20.328125 58.90625 
Q 16.5 51.421875 16.5 36.375 
Q 16.5 21.390625 20.328125 13.890625 
Q 24.171875 6.390625 31.78125 6.390625 
Q 39.453125 6.390625 43.28125 13.890625 
Q 47.125 21.390625 47.125 36.375 
Q 47.125 51.421875 43.28125 58.90625 
Q 39.453125 66.40625 31.78125 66.40625 
z
M 31.78125 74.21875 
Q 44.046875 74.21875 50.515625 64.515625 
Q 56.984375 54.828125 56.984375 36.375 
Q 56.984375 17.96875 50.515625 8.265625 
Q 44.046875 -1.421875 31.78125 -1.421875 
Q 19.53125 -1.421875 13.0625 8.265625 
Q 6.59375 17.96875 6.59375 36.375 
Q 6.59375 54.828125 13.0625 64.515625 
Q 19.53125 74.21875 31.78125 74.21875 
z
" id="DejaVuSans-48"/>
       </defs>
       <use xlink:href="#DejaVuSans-48"/>
      </g>
     </g>
    </g>
    <g id="xtick_2">
     <g id="line2d_2">
      <g>
       <use style="stroke:#000000;stroke-width:0.8;" x="273.706085" xlink:href="#mf91814c317" y="169.2"/>
      </g>
     </g>
     <g id="text_2">
      <!-- 10 -->
      <g transform="translate(267.343585 183.798437)scale(0.1 -0.1)">
       <defs>
        <path d="M 12.40625 8.296875 
L 28.515625 8.296875 
L 28.515625 63.921875 
L 10.984375 60.40625 
L 10.984375 69.390625 
L 28.421875 72.90625 
L 38.28125 72.90625 
L 38.28125 8.296875 
L 54.390625 8.296875 
L 54.390625 0 
L 12.40625 0 
z
" id="DejaVuSans-49"/>
       </defs>
       <use xlink:href="#DejaVuSans-49"/>
       <use x="63.623047" xlink:href="#DejaVuSans-48"/>
      </g>
     </g>
    </g>
    <g id="xtick_3">
     <g id="line2d_3">
      <g>
       <use style="stroke:#000000;stroke-width:0.8;" x="408.975806" xlink:href="#mf91814c317" y="169.2"/>
      </g>
     </g>
     <g id="text_3">
      <!-- 20 -->
      <g transform="translate(402.613306 183.798437)scale(0.1 -0.1)">
       <defs>
        <path d="M 19.1875 8.296875 
L 53.609375 8.296875 
L 53.609375 0 
L 7.328125 0 
L 7.328125 8.296875 
Q 12.9375 14.109375 22.625 23.890625 
Q 32.328125 33.6875 34.8125 36.53125 
Q 39.546875 41.84375 41.421875 45.53125 
Q 43.3125 49.21875 43.3125 52.78125 
Q 43.3125 58.59375 39.234375 62.25 
Q 35.15625 65.921875 28.609375 65.921875 
Q 23.96875 65.921875 18.8125 64.3125 
Q 13.671875 62.703125 7.8125 59.421875 
L 7.8125 69.390625 
Q 13.765625 71.78125 18.9375 73 
Q 24.125 74.21875 28.421875 74.21875 
Q 39.75 74.21875 46.484375 68.546875 
Q 53.21875 62.890625 53.21875 53.421875 
Q 53.21875 48.921875 51.53125 44.890625 
Q 49.859375 40.875 45.40625 35.40625 
Q 44.1875 33.984375 37.640625 27.21875 
Q 31.109375 20.453125 19.1875 8.296875 
z
" id="DejaVuSans-50"/>
       </defs>
       <use xlink:href="#DejaVuSans-50"/>
       <use x="63.623047" xlink:href="#DejaVuSans-48"/>
      </g>
     </g>
    </g>
    <g id="xtick_4">
     <g id="line2d_4">
      <g>
       <use style="stroke:#000000;stroke-width:0.8;" x="544.245527" xlink:href="#mf91814c317" y="169.2"/>
      </g>
     </g>
     <g id="text_4">
      <!-- 30 -->
      <g transform="translate(537.883027 183.798437)scale(0.1 -0.1)">
       <defs>
        <path d="M 40.578125 39.3125 
Q 47.65625 37.796875 51.625 33 
Q 55.609375 28.21875 55.609375 21.1875 
Q 55.609375 10.40625 48.1875 4.484375 
Q 40.765625 -1.421875 27.09375 -1.421875 
Q 22.515625 -1.421875 17.65625 -0.515625 
Q 12.796875 0.390625 7.625 2.203125 
L 7.625 11.71875 
Q 11.71875 9.328125 16.59375 8.109375 
Q 21.484375 6.890625 26.8125 6.890625 
Q 36.078125 6.890625 40.9375 10.546875 
Q 45.796875 14.203125 45.796875 21.1875 
Q 45.796875 27.640625 41.28125 31.265625 
Q 36.765625 34.90625 28.71875 34.90625 
L 20.21875 34.90625 
L 20.21875 43.015625 
L 29.109375 43.015625 
Q 36.375 43.015625 40.234375 45.921875 
Q 44.09375 48.828125 44.09375 54.296875 
Q 44.09375 59.90625 40.109375 62.90625 
Q 36.140625 65.921875 28.71875 65.921875 
Q 24.65625 65.921875 20.015625 65.03125 
Q 15.375 64.15625 9.8125 62.3125 
L 9.8125 71.09375 
Q 15.4375 72.65625 20.34375 73.4375 
Q 25.25 74.21875 29.59375 74.21875 
Q 40.828125 74.21875 47.359375 69.109375 
Q 53.90625 64.015625 53.90625 55.328125 
Q 53.90625 49.265625 50.4375 45.09375 
Q 46.96875 40.921875 40.578125 39.3125 
z
" id="DejaVuSans-51"/>
       </defs>
       <use xlink:href="#DejaVuSans-51"/>
       <use x="63.623047" xlink:href="#DejaVuSans-48"/>
      </g>
     </g>
    </g>
    <g id="xtick_5">
     <g id="line2d_5">
      <g>
       <use style="stroke:#000000;stroke-width:0.8;" x="679.515249" xlink:href="#mf91814c317" y="169.2"/>
      </g>
     </g>
     <g id="text_5">
      <!-- 40 -->
      <g transform="translate(673.152749 183.798437)scale(0.1 -0.1)">
       <defs>
        <path d="M 37.796875 64.3125 
L 12.890625 25.390625 
L 37.796875 25.390625 
z
M 35.203125 72.90625 
L 47.609375 72.90625 
L 47.609375 25.390625 
L 58.015625 25.390625 
L 58.015625 17.1875 
L 47.609375 17.1875 
L 47.609375 0 
L 37.796875 0 
L 37.796875 17.1875 
L 4.890625 17.1875 
L 4.890625 26.703125 
z
" id="DejaVuSans-52"/>
       </defs>
       <use xlink:href="#DejaVuSans-52"/>
       <use x="63.623047" xlink:href="#DejaVuSans-48"/>
      </g>
     </g>
    </g>
   </g>
   <g id="matplotlib.axis_2">
    <g id="ytick_1">
     <g id="line2d_6">
      <defs>
       <path d="M 0 0 
L -3.5 0 
" id="mb8082d97c0" style="stroke:#000000;stroke-width:0.8;"/>
      </defs>
      <g>
       <use style="stroke:#000000;stroke-width:0.8;" x="108" xlink:href="#mb8082d97c0" y="168.015634"/>
      </g>
     </g>
     <g id="text_6">
      <!-- −20 -->
      <g transform="translate(79.895313 171.814853)scale(0.1 -0.1)">
       <defs>
        <path d="M 10.59375 35.5 
L 73.1875 35.5 
L 73.1875 27.203125 
L 10.59375 27.203125 
z
" id="DejaVuSans-8722"/>
       </defs>
       <use xlink:href="#DejaVuSans-8722"/>
       <use x="83.789062" xlink:href="#DejaVuSans-50"/>
       <use x="147.412109" xlink:href="#DejaVuSans-48"/>
      </g>
     </g>
    </g>
    <g id="ytick_2">
     <g id="line2d_7">
      <g>
       <use style="stroke:#000000;stroke-width:0.8;" x="108" xlink:href="#mb8082d97c0" y="141.570149"/>
      </g>
     </g>
     <g id="text_7">
      <!-- −10 -->
      <g transform="translate(79.895313 145.369368)scale(0.1 -0.1)">
       <use xlink:href="#DejaVuSans-8722"/>
       <use x="83.789062" xlink:href="#DejaVuSans-49"/>
       <use x="147.412109" xlink:href="#DejaVuSans-48"/>
      </g>
     </g>
    </g>
    <g id="ytick_3">
     <g id="line2d_8">
      <g>
       <use style="stroke:#000000;stroke-width:0.8;" x="108" xlink:href="#mb8082d97c0" y="115.124664"/>
      </g>
     </g>
     <g id="text_8">
      <!-- 0 -->
      <g transform="translate(94.6375 118.923883)scale(0.1 -0.1)">
       <use xlink:href="#DejaVuSans-48"/>
      </g>
     </g>
    </g>
    <g id="ytick_4">
     <g id="line2d_9">
      <g>
       <use style="stroke:#000000;stroke-width:0.8;" x="108" xlink:href="#mb8082d97c0" y="88.679179"/>
      </g>
     </g>
     <g id="text_9">
      <!-- 10 -->
      <g transform="translate(88.275 92.478398)scale(0.1 -0.1)">
       <use xlink:href="#DejaVuSans-49"/>
       <use x="63.623047" xlink:href="#DejaVuSans-48"/>
      </g>
     </g>
    </g>
    <g id="ytick_5">
     <g id="line2d_10">
      <g>
       <use style="stroke:#000000;stroke-width:0.8;" x="108" xlink:href="#mb8082d97c0" y="62.233694"/>
      </g>
     </g>
     <g id="text_10">
      <!-- 20 -->
      <g transform="translate(88.275 66.032913)scale(0.1 -0.1)">
       <use xlink:href="#DejaVuSans-50"/>
       <use x="63.623047" xlink:href="#DejaVuSans-48"/>
      </g>
     </g>
    </g>
   </g>
   <g id="line2d_11">
    <path clip-path="url(#p760f3ba5bd)" d="M 138.436364 111.157841 
L 286.77314 111.157841 
L 286.840775 83.991248 
L 286.854302 156.512363 
L 286.881356 84.475709 
L 286.921937 143.16818 
L 287.003099 123.626468 
L 287.016625 78.160387 
L 287.08426 153.996503 
L 287.111314 130.931532 
L 287.124841 157.268692 
L 287.165422 89.45043 
L 287.206003 118.896108 
L 287.246584 87.131873 
L 287.233057 155.756495 
L 287.327746 93.625931 
L 287.341273 90.921742 
L 287.3548 107.398331 
L 287.381854 96.41194 
L 287.408908 80.951454 
L 287.49007 142.124811 
L 287.517123 85.680442 
L 287.571231 158.594399 
L 287.611812 110.574466 
L 287.679447 91.716787 
L 287.66592 135.810033 
L 287.720028 108.089967 
L 287.787663 128.043275 
L 287.80119 108.741944 
L 287.841771 79.35749 
L 287.828244 118.971647 
L 287.922933 92.396245 
L 287.990567 142.85314 
L 287.977041 64.931891 
L 288.031148 122.299491 
L 288.071729 60.000883 
L 288.058202 139.677906 
L 288.125837 103.158749 
L 288.139364 130.320423 
L 288.220526 91.214727 
L 288.24758 128.802955 
L 288.261107 142.223309 
L 288.274634 94.307425 
L 288.301688 135.297583 
L 288.315215 83.595056 
L 288.409904 122.59094 
L 288.436958 149.822171 
L 288.477538 98.038055 
L 288.491065 123.090329 
L 288.504592 99.108735 
L 288.518119 132.403203 
L 288.599281 122.113109 
L 288.612808 123.319102 
L 288.626335 72.622558 
L 288.666916 150.565485 
L 288.721024 124.261296 
L 288.815713 143.712638 
L 288.842767 69.458899 
L 288.896875 130.599275 
L 288.923929 65.913967 
L 288.978036 121.934914 
L 289.00509 145.435959 
L 289.072725 83.211615 
L 289.086252 152.992706 
L 289.113306 69.46343 
L 289.180941 139.104025 
L 289.248576 91.168846 
L 289.27563 145.560816 
L 289.302684 103.696293 
L 289.343265 122.271245 
L 289.383846 101.651864 
L 289.397373 116.871059 
L 289.4109 67.703186 
L 289.492061 143.086893 
L 289.505588 111.157841 
L 747.163636 111.157841 
L 747.163636 111.157841 
" style="fill:none;stroke:#aa3863;stroke-linecap:square;stroke-width:1.5;"/>
   </g>
   <g id="line2d_12">
    <path clip-path="url(#p760f3ba5bd)" d="M 138.436364 111.157841 
L 286.77314 111.157841 
L 286.786667 107.549231 
L 286.800194 140.989391 
L 286.867829 87.506501 
L 286.894883 107.286259 
L 286.90841 107.391598 
L 286.921937 95.768938 
L 286.935464 149.425007 
L 287.016625 108.370864 
L 287.097787 153.239566 
L 287.043679 74.256157 
L 287.138368 126.59314 
L 287.246584 80.273165 
L 287.165422 136.812835 
L 287.260111 96.756779 
L 287.300692 137.523339 
L 287.3548 92.259936 
L 287.368327 102.943218 
L 287.395381 123.746777 
L 287.422435 79.612564 
L 287.476543 116.112633 
L 287.53065 87.440781 
L 287.571231 127.191897 
L 287.584758 97.91186 
L 287.652393 140.196965 
L 287.706501 128.939373 
L 287.787663 83.325247 
L 287.774136 135.175416 
L 287.814717 128.944169 
L 287.895879 140.231096 
L 287.93646 48.927273 
L 288.044675 123.938978 
L 288.098783 127.36572 
L 288.152891 52.439928 
L 288.179945 151.781737 
L 288.261107 93.69459 
L 288.274634 84.816351 
L 288.288161 108.547336 
L 288.301688 105.639111 
L 288.342269 65.321711 
L 288.409904 163.472727 
L 288.504592 72.689664 
L 288.531646 102.014038 
L 288.612808 145.302998 
L 288.5587 66.884172 
L 288.653389 136.948017 
L 288.680443 70.771074 
L 288.69397 146.357721 
L 288.802186 77.446105 
L 288.82924 146.012391 
L 288.923929 122.846195 
L 288.937456 130.495552 
L 288.950983 107.375485 
L 288.978036 109.759118 
L 288.991563 79.552685 
L 289.018617 141.814329 
L 289.086252 112.56672 
L 289.14036 147.848095 
L 289.113306 93.396517 
L 289.194468 137.608339 
L 289.235049 84.336477 
L 289.329738 85.14732 
L 289.383846 146.228289 
L 289.45148 112.86372 
L 289.465007 111.49304 
L 289.478534 98.298113 
L 289.492061 132.906868 
L 289.573223 111.157841 
L 747.163636 111.157841 
L 747.163636 111.157841 
" style="fill:none;stroke:#3b7d86;stroke-linecap:square;stroke-width:1.5;"/>
   </g>
   <g id="patch_3">
    <path d="M 108 169.2 
L 108 43.2 
" style="fill:none;stroke:#000000;stroke-linecap:square;stroke-linejoin:miter;stroke-width:0.8;"/>
   </g>
   <g id="patch_4">
    <path d="M 777.6 169.2 
L 777.6 43.2 
" style="fill:none;stroke:#000000;stroke-linecap:square;stroke-linejoin:miter;stroke-width:0.8;"/>
   </g>
   <g id="patch_5">
    <path d="M 108 169.2 
L 777.6 169.2 
" style="fill:none;stroke:#000000;stroke-linecap:square;stroke-linejoin:miter;stroke-width:0.8;"/>
   </g>
   <g id="patch_6">
    <path d="M 108 43.2 
L 777.6 43.2 
" style="fill:none;stroke:#000000;stroke-linecap:square;stroke-linejoin:miter;stroke-width:0.8;"/>
   </g>
   <g id="text_11">
    <!-- Noisy input current trial, $\sigma=0.25, I_{base}=1.5, \gamma=0.4, \beta=0.1$ -->
    <g transform="translate(234.34 37.2)scale(0.14 -0.14)">
     <defs>
      <path d="M 9.8125 72.90625 
L 23.09375 72.90625 
L 55.421875 11.921875 
L 55.421875 72.90625 
L 64.984375 72.90625 
L 64.984375 0 
L 51.703125 0 
L 19.390625 60.984375 
L 19.390625 0 
L 9.8125 0 
z
" id="DejaVuSans-78"/>
      <path d="M 30.609375 48.390625 
Q 23.390625 48.390625 19.1875 42.75 
Q 14.984375 37.109375 14.984375 27.296875 
Q 14.984375 17.484375 19.15625 11.84375 
Q 23.34375 6.203125 30.609375 6.203125 
Q 37.796875 6.203125 41.984375 11.859375 
Q 46.1875 17.53125 46.1875 27.296875 
Q 46.1875 37.015625 41.984375 42.703125 
Q 37.796875 48.390625 30.609375 48.390625 
z
M 30.609375 56 
Q 42.328125 56 49.015625 48.375 
Q 55.71875 40.765625 55.71875 27.296875 
Q 55.71875 13.875 49.015625 6.21875 
Q 42.328125 -1.421875 30.609375 -1.421875 
Q 18.84375 -1.421875 12.171875 6.21875 
Q 5.515625 13.875 5.515625 27.296875 
Q 5.515625 40.765625 12.171875 48.375 
Q 18.84375 56 30.609375 56 
z
" id="DejaVuSans-111"/>
      <path d="M 9.421875 54.6875 
L 18.40625 54.6875 
L 18.40625 0 
L 9.421875 0 
z
M 9.421875 75.984375 
L 18.40625 75.984375 
L 18.40625 64.59375 
L 9.421875 64.59375 
z
" id="DejaVuSans-105"/>
      <path d="M 44.28125 53.078125 
L 44.28125 44.578125 
Q 40.484375 46.53125 36.375 47.5 
Q 32.28125 48.484375 27.875 48.484375 
Q 21.1875 48.484375 17.84375 46.4375 
Q 14.5 44.390625 14.5 40.28125 
Q 14.5 37.15625 16.890625 35.375 
Q 19.28125 33.59375 26.515625 31.984375 
L 29.59375 31.296875 
Q 39.15625 29.25 43.1875 25.515625 
Q 47.21875 21.78125 47.21875 15.09375 
Q 47.21875 7.46875 41.1875 3.015625 
Q 35.15625 -1.421875 24.609375 -1.421875 
Q 20.21875 -1.421875 15.453125 -0.5625 
Q 10.6875 0.296875 5.421875 2 
L 5.421875 11.28125 
Q 10.40625 8.6875 15.234375 7.390625 
Q 20.0625 6.109375 24.8125 6.109375 
Q 31.15625 6.109375 34.5625 8.28125 
Q 37.984375 10.453125 37.984375 14.40625 
Q 37.984375 18.0625 35.515625 20.015625 
Q 33.0625 21.96875 24.703125 23.78125 
L 21.578125 24.515625 
Q 13.234375 26.265625 9.515625 29.90625 
Q 5.8125 33.546875 5.8125 39.890625 
Q 5.8125 47.609375 11.28125 51.796875 
Q 16.75 56 26.8125 56 
Q 31.78125 56 36.171875 55.265625 
Q 40.578125 54.546875 44.28125 53.078125 
z
" id="DejaVuSans-115"/>
      <path d="M 32.171875 -5.078125 
Q 28.375 -14.84375 24.75 -17.8125 
Q 21.140625 -20.796875 15.09375 -20.796875 
L 7.90625 -20.796875 
L 7.90625 -13.28125 
L 13.1875 -13.28125 
Q 16.890625 -13.28125 18.9375 -11.515625 
Q 21 -9.765625 23.484375 -3.21875 
L 25.09375 0.875 
L 2.984375 54.6875 
L 12.5 54.6875 
L 29.59375 11.921875 
L 46.6875 54.6875 
L 56.203125 54.6875 
z
" id="DejaVuSans-121"/>
      <path id="DejaVuSans-32"/>
      <path d="M 54.890625 33.015625 
L 54.890625 0 
L 45.90625 0 
L 45.90625 32.71875 
Q 45.90625 40.484375 42.875 44.328125 
Q 39.84375 48.1875 33.796875 48.1875 
Q 26.515625 48.1875 22.3125 43.546875 
Q 18.109375 38.921875 18.109375 30.90625 
L 18.109375 0 
L 9.078125 0 
L 9.078125 54.6875 
L 18.109375 54.6875 
L 18.109375 46.1875 
Q 21.34375 51.125 25.703125 53.5625 
Q 30.078125 56 35.796875 56 
Q 45.21875 56 50.046875 50.171875 
Q 54.890625 44.34375 54.890625 33.015625 
z
" id="DejaVuSans-110"/>
      <path d="M 18.109375 8.203125 
L 18.109375 -20.796875 
L 9.078125 -20.796875 
L 9.078125 54.6875 
L 18.109375 54.6875 
L 18.109375 46.390625 
Q 20.953125 51.265625 25.265625 53.625 
Q 29.59375 56 35.59375 56 
Q 45.5625 56 51.78125 48.09375 
Q 58.015625 40.1875 58.015625 27.296875 
Q 58.015625 14.40625 51.78125 6.484375 
Q 45.5625 -1.421875 35.59375 -1.421875 
Q 29.59375 -1.421875 25.265625 0.953125 
Q 20.953125 3.328125 18.109375 8.203125 
z
M 48.6875 27.296875 
Q 48.6875 37.203125 44.609375 42.84375 
Q 40.53125 48.484375 33.40625 48.484375 
Q 26.265625 48.484375 22.1875 42.84375 
Q 18.109375 37.203125 18.109375 27.296875 
Q 18.109375 17.390625 22.1875 11.75 
Q 26.265625 6.109375 33.40625 6.109375 
Q 40.53125 6.109375 44.609375 11.75 
Q 48.6875 17.390625 48.6875 27.296875 
z
" id="DejaVuSans-112"/>
      <path d="M 8.5 21.578125 
L 8.5 54.6875 
L 17.484375 54.6875 
L 17.484375 21.921875 
Q 17.484375 14.15625 20.5 10.265625 
Q 23.53125 6.390625 29.59375 6.390625 
Q 36.859375 6.390625 41.078125 11.03125 
Q 45.3125 15.671875 45.3125 23.6875 
L 45.3125 54.6875 
L 54.296875 54.6875 
L 54.296875 0 
L 45.3125 0 
L 45.3125 8.40625 
Q 42.046875 3.421875 37.71875 1 
Q 33.40625 -1.421875 27.6875 -1.421875 
Q 18.265625 -1.421875 13.375 4.4375 
Q 8.5 10.296875 8.5 21.578125 
z
M 31.109375 56 
z
" id="DejaVuSans-117"/>
      <path d="M 18.3125 70.21875 
L 18.3125 54.6875 
L 36.8125 54.6875 
L 36.8125 47.703125 
L 18.3125 47.703125 
L 18.3125 18.015625 
Q 18.3125 11.328125 20.140625 9.421875 
Q 21.96875 7.515625 27.59375 7.515625 
L 36.8125 7.515625 
L 36.8125 0 
L 27.59375 0 
Q 17.1875 0 13.234375 3.875 
Q 9.28125 7.765625 9.28125 18.015625 
L 9.28125 47.703125 
L 2.6875 47.703125 
L 2.6875 54.6875 
L 9.28125 54.6875 
L 9.28125 70.21875 
z
" id="DejaVuSans-116"/>
      <path d="M 48.78125 52.59375 
L 48.78125 44.1875 
Q 44.96875 46.296875 41.140625 47.34375 
Q 37.3125 48.390625 33.40625 48.390625 
Q 24.65625 48.390625 19.8125 42.84375 
Q 14.984375 37.3125 14.984375 27.296875 
Q 14.984375 17.28125 19.8125 11.734375 
Q 24.65625 6.203125 33.40625 6.203125 
Q 37.3125 6.203125 41.140625 7.25 
Q 44.96875 8.296875 48.78125 10.40625 
L 48.78125 2.09375 
Q 45.015625 0.34375 40.984375 -0.53125 
Q 36.96875 -1.421875 32.421875 -1.421875 
Q 20.0625 -1.421875 12.78125 6.34375 
Q 5.515625 14.109375 5.515625 27.296875 
Q 5.515625 40.671875 12.859375 48.328125 
Q 20.21875 56 33.015625 56 
Q 37.15625 56 41.109375 55.140625 
Q 45.0625 54.296875 48.78125 52.59375 
z
" id="DejaVuSans-99"/>
      <path d="M 41.109375 46.296875 
Q 39.59375 47.171875 37.8125 47.578125 
Q 36.03125 48 33.890625 48 
Q 26.265625 48 22.1875 43.046875 
Q 18.109375 38.09375 18.109375 28.8125 
L 18.109375 0 
L 9.078125 0 
L 9.078125 54.6875 
L 18.109375 54.6875 
L 18.109375 46.1875 
Q 20.953125 51.171875 25.484375 53.578125 
Q 30.03125 56 36.53125 56 
Q 37.453125 56 38.578125 55.875 
Q 39.703125 55.765625 41.0625 55.515625 
z
" id="DejaVuSans-114"/>
      <path d="M 56.203125 29.59375 
L 56.203125 25.203125 
L 14.890625 25.203125 
Q 15.484375 15.921875 20.484375 11.0625 
Q 25.484375 6.203125 34.421875 6.203125 
Q 39.59375 6.203125 44.453125 7.46875 
Q 49.3125 8.734375 54.109375 11.28125 
L 54.109375 2.78125 
Q 49.265625 0.734375 44.1875 -0.34375 
Q 39.109375 -1.421875 33.890625 -1.421875 
Q 20.796875 -1.421875 13.15625 6.1875 
Q 5.515625 13.8125 5.515625 26.8125 
Q 5.515625 40.234375 12.765625 48.109375 
Q 20.015625 56 32.328125 56 
Q 43.359375 56 49.78125 48.890625 
Q 56.203125 41.796875 56.203125 29.59375 
z
M 47.21875 32.234375 
Q 47.125 39.59375 43.09375 43.984375 
Q 39.0625 48.390625 32.421875 48.390625 
Q 24.90625 48.390625 20.390625 44.140625 
Q 15.875 39.890625 15.1875 32.171875 
z
" id="DejaVuSans-101"/>
      <path d="M 34.28125 27.484375 
Q 23.390625 27.484375 19.1875 25 
Q 14.984375 22.515625 14.984375 16.5 
Q 14.984375 11.71875 18.140625 8.90625 
Q 21.296875 6.109375 26.703125 6.109375 
Q 34.1875 6.109375 38.703125 11.40625 
Q 43.21875 16.703125 43.21875 25.484375 
L 43.21875 27.484375 
z
M 52.203125 31.203125 
L 52.203125 0 
L 43.21875 0 
L 43.21875 8.296875 
Q 40.140625 3.328125 35.546875 0.953125 
Q 30.953125 -1.421875 24.3125 -1.421875 
Q 15.921875 -1.421875 10.953125 3.296875 
Q 6 8.015625 6 15.921875 
Q 6 25.140625 12.171875 29.828125 
Q 18.359375 34.515625 30.609375 34.515625 
L 43.21875 34.515625 
L 43.21875 35.40625 
Q 43.21875 41.609375 39.140625 45 
Q 35.0625 48.390625 27.6875 48.390625 
Q 23 48.390625 18.546875 47.265625 
Q 14.109375 46.140625 10.015625 43.890625 
L 10.015625 52.203125 
Q 14.9375 54.109375 19.578125 55.046875 
Q 24.21875 56 28.609375 56 
Q 40.484375 56 46.34375 49.84375 
Q 52.203125 43.703125 52.203125 31.203125 
z
" id="DejaVuSans-97"/>
      <path d="M 9.421875 75.984375 
L 18.40625 75.984375 
L 18.40625 0 
L 9.421875 0 
z
" id="DejaVuSans-108"/>
      <path d="M 11.71875 12.40625 
L 22.015625 12.40625 
L 22.015625 4 
L 14.015625 -11.625 
L 7.71875 -11.625 
L 11.71875 4 
z
" id="DejaVuSans-44"/>
      <path d="M 34.671875 47.5625 
Q 27.25 47.5625 22.21875 42.1875 
Q 16.890625 36.578125 15.140625 27.296875 
Q 13.1875 17.484375 16.3125 11.8125 
Q 19.390625 6.203125 26.65625 6.203125 
Q 33.84375 6.203125 39.109375 11.859375 
Q 44.4375 17.53125 46.34375 27.296875 
Q 48.046875 36.234375 45.015625 42.1875 
Q 42.1875 47.5625 34.671875 47.5625 
z
M 36.078125 54.734375 
L 65.921875 54.6875 
L 64.15625 45.703125 
L 54.109375 45.703125 
Q 57.90625 38.09375 55.859375 27.296875 
Q 53.21875 13.875 45.0625 6.25 
Q 36.859375 -1.421875 25.140625 -1.421875 
Q 13.375 -1.421875 8.203125 6.25 
Q 3.03125 13.875 5.671875 27.296875 
Q 8.25 40.765625 16.40625 48.390625 
Q 23.1875 54.734375 36.078125 54.734375 
z
" id="DejaVuSans-Oblique-963"/>
      <path d="M 10.59375 45.40625 
L 73.1875 45.40625 
L 73.1875 37.203125 
L 10.59375 37.203125 
z
M 10.59375 25.484375 
L 73.1875 25.484375 
L 73.1875 17.1875 
L 10.59375 17.1875 
z
" id="DejaVuSans-61"/>
      <path d="M 10.6875 12.40625 
L 21 12.40625 
L 21 0 
L 10.6875 0 
z
" id="DejaVuSans-46"/>
      <path d="M 10.796875 72.90625 
L 49.515625 72.90625 
L 49.515625 64.59375 
L 19.828125 64.59375 
L 19.828125 46.734375 
Q 21.96875 47.46875 24.109375 47.828125 
Q 26.265625 48.1875 28.421875 48.1875 
Q 40.625 48.1875 47.75 41.5 
Q 54.890625 34.8125 54.890625 23.390625 
Q 54.890625 11.625 47.5625 5.09375 
Q 40.234375 -1.421875 26.90625 -1.421875 
Q 22.3125 -1.421875 17.546875 -0.640625 
Q 12.796875 0.140625 7.71875 1.703125 
L 7.71875 11.625 
Q 12.109375 9.234375 16.796875 8.0625 
Q 21.484375 6.890625 26.703125 6.890625 
Q 35.15625 6.890625 40.078125 11.328125 
Q 45.015625 15.765625 45.015625 23.390625 
Q 45.015625 31 40.078125 35.4375 
Q 35.15625 39.890625 26.703125 39.890625 
Q 22.75 39.890625 18.8125 39.015625 
Q 14.890625 38.140625 10.796875 36.28125 
z
" id="DejaVuSans-53"/>
      <path d="M 16.890625 72.90625 
L 26.8125 72.90625 
L 12.59375 0 
L 2.6875 0 
z
" id="DejaVuSans-Oblique-73"/>
      <path d="M 49.515625 33.40625 
Q 49.515625 40.484375 46.265625 44.484375 
Q 43.015625 48.484375 37.3125 48.484375 
Q 33.15625 48.484375 29.515625 46.453125 
Q 25.875 44.4375 23.1875 40.578125 
Q 20.359375 36.53125 18.71875 31.171875 
Q 17.09375 25.828125 17.09375 20.515625 
Q 17.09375 13.765625 20.28125 9.9375 
Q 23.484375 6.109375 29.109375 6.109375 
Q 33.34375 6.109375 36.953125 8.078125 
Q 40.578125 10.0625 43.3125 13.921875 
Q 46.09375 17.921875 47.796875 23.234375 
Q 49.515625 28.5625 49.515625 33.40625 
z
M 21.578125 46.390625 
Q 24.90625 50.875 29.90625 53.4375 
Q 34.90625 56 40.375 56 
Q 48.78125 56 53.734375 50.328125 
Q 58.6875 44.671875 58.6875 35.015625 
Q 58.6875 27.09375 55.78125 19.671875 
Q 52.875 12.25 47.515625 6.5 
Q 44 2.6875 39.40625 0.625 
Q 34.8125 -1.421875 29.78125 -1.421875 
Q 24.46875 -1.421875 20.5625 1.015625 
Q 16.65625 3.46875 14.203125 8.296875 
L 12.59375 0 
L 3.609375 0 
L 18.40625 75.984375 
L 27.390625 75.984375 
z
" id="DejaVuSans-Oblique-98"/>
      <path d="M 53.71875 31.203125 
L 47.609375 0 
L 38.625 0 
L 40.28125 8.296875 
Q 36.328125 3.421875 31.265625 1 
Q 26.21875 -1.421875 20.015625 -1.421875 
Q 13.03125 -1.421875 8.5625 2.84375 
Q 4.109375 7.125 4.109375 13.8125 
Q 4.109375 23.390625 11.75 28.953125 
Q 19.390625 34.515625 32.8125 34.515625 
L 45.3125 34.515625 
L 45.796875 36.921875 
Q 45.90625 37.3125 45.953125 37.765625 
Q 46 38.234375 46 39.203125 
Q 46 43.5625 42.453125 45.96875 
Q 38.921875 48.390625 32.515625 48.390625 
Q 28.125 48.390625 23.5 47.265625 
Q 18.890625 46.140625 14.015625 43.890625 
L 15.578125 52.203125 
Q 20.65625 54.109375 25.515625 55.046875 
Q 30.375 56 34.90625 56 
Q 44.578125 56 49.625 51.796875 
Q 54.6875 47.609375 54.6875 39.59375 
Q 54.6875 37.984375 54.4375 35.8125 
Q 54.203125 33.640625 53.71875 31.203125 
z
M 44 27.484375 
L 35.015625 27.484375 
Q 23.96875 27.484375 18.671875 24.53125 
Q 13.375 21.578125 13.375 15.375 
Q 13.375 11.078125 16.078125 8.640625 
Q 18.796875 6.203125 23.578125 6.203125 
Q 30.90625 6.203125 36.375 11.453125 
Q 41.84375 16.703125 43.609375 25.484375 
z
" id="DejaVuSans-Oblique-97"/>
      <path d="M 50 53.078125 
L 48.296875 44.578125 
Q 44.734375 46.53125 40.765625 47.5 
Q 36.8125 48.484375 32.625 48.484375 
Q 25.53125 48.484375 21.453125 46.0625 
Q 17.390625 43.65625 17.390625 39.5 
Q 17.390625 34.671875 26.859375 32.078125 
Q 27.59375 31.890625 27.9375 31.78125 
L 30.8125 30.90625 
Q 39.796875 28.421875 42.796875 25.6875 
Q 45.796875 22.953125 45.796875 18.21875 
Q 45.796875 9.515625 38.890625 4.046875 
Q 31.984375 -1.421875 20.796875 -1.421875 
Q 16.453125 -1.421875 11.671875 -0.578125 
Q 6.890625 0.25 1.125 2 
L 2.875 11.28125 
Q 7.8125 8.734375 12.59375 7.421875 
Q 17.390625 6.109375 21.78125 6.109375 
Q 28.375 6.109375 32.5 8.9375 
Q 36.625 11.765625 36.625 16.109375 
Q 36.625 20.796875 25.78125 23.6875 
L 24.859375 23.921875 
L 21.78125 24.703125 
Q 14.9375 26.515625 11.765625 29.46875 
Q 8.59375 32.421875 8.59375 37.015625 
Q 8.59375 45.75 15.15625 50.875 
Q 21.734375 56 33.015625 56 
Q 37.453125 56 41.671875 55.265625 
Q 45.90625 54.546875 50 53.078125 
z
" id="DejaVuSans-Oblique-115"/>
      <path d="M 48.09375 32.234375 
Q 48.25 33.015625 48.3125 33.84375 
Q 48.390625 34.671875 48.390625 35.5 
Q 48.390625 41.453125 44.890625 44.921875 
Q 41.40625 48.390625 35.40625 48.390625 
Q 28.71875 48.390625 23.578125 44.15625 
Q 18.453125 39.9375 15.828125 32.171875 
z
M 55.90625 25.203125 
L 14.109375 25.203125 
Q 13.8125 23.34375 13.71875 22.265625 
Q 13.625 21.1875 13.625 20.40625 
Q 13.625 13.625 17.796875 9.90625 
Q 21.96875 6.203125 29.59375 6.203125 
Q 35.453125 6.203125 40.671875 7.515625 
Q 45.90625 8.84375 50.390625 11.375 
L 48.6875 2.484375 
Q 43.84375 0.53125 38.6875 -0.4375 
Q 33.546875 -1.421875 28.21875 -1.421875 
Q 16.84375 -1.421875 10.71875 4.015625 
Q 4.59375 9.46875 4.59375 19.484375 
Q 4.59375 28.03125 7.640625 35.375 
Q 10.6875 42.71875 16.609375 48.484375 
Q 20.40625 52.09375 25.65625 54.046875 
Q 30.90625 56 36.8125 56 
Q 46.09375 56 51.578125 50.4375 
Q 57.078125 44.875 57.078125 35.5 
Q 57.078125 33.25 56.78125 30.6875 
Q 56.5 28.125 55.90625 25.203125 
z
" id="DejaVuSans-Oblique-101"/>
      <path d="M 23.296875 46.09375 
L 28.71875 12.3125 
L 54 54.6875 
L 63.53125 54.6875 
L 30.8125 0 
L 26.765625 -20.796875 
L 17.78125 -20.796875 
L 21.828125 0 
L 15.4375 40.828125 
Q 14.453125 46.96875 9.8125 46.96875 
L 7.421875 46.96875 
L 8.890625 54.6875 
L 12.3125 54.6875 
Q 21.921875 54.6875 23.296875 46.09375 
z
" id="DejaVuSans-Oblique-947"/>
      <path d="M 13.625 3.375 
L 8.9375 -20.796875 
L -0.09375 -20.796875 
L 14.5 54.34375 
Q 18.84375 76.609375 39.65625 76.609375 
Q 60.75 76.609375 57.171875 57.8125 
Q 54.734375 44.4375 45.21875 39.546875 
Q 58.015625 35.15625 55.515625 22.125 
Q 51.125 -1.078125 27.484375 -1.03125 
Q 17.140625 -0.984375 13.625 3.375 
z
M 15.921875 15.09375 
Q 19.671875 6.59375 29.296875 6.640625 
Q 43.359375 6.640625 46.34375 21.96875 
Q 49.03125 35.75 26.171875 34.671875 
L 27.78125 42.96875 
Q 45.453125 42.671875 48.53125 58.59375 
Q 50.640625 69.34375 39.203125 69.28125 
Q 26.421875 69.28125 23.484375 54.046875 
z
" id="DejaVuSans-Oblique-946"/>
     </defs>
     <use transform="translate(0 0.390625)" xlink:href="#DejaVuSans-78"/>
     <use transform="translate(74.804688 0.390625)" xlink:href="#DejaVuSans-111"/>
     <use transform="translate(135.986328 0.390625)" xlink:href="#DejaVuSans-105"/>
     <use transform="translate(163.769531 0.390625)" xlink:href="#DejaVuSans-115"/>
     <use transform="translate(215.869141 0.390625)" xlink:href="#DejaVuSans-121"/>
     <use transform="translate(275.048828 0.390625)" xlink:href="#DejaVuSans-32"/>
     <use transform="translate(306.835938 0.390625)" xlink:href="#DejaVuSans-105"/>
     <use transform="translate(334.619141 0.390625)" xlink:href="#DejaVuSans-110"/>
     <use transform="translate(397.998047 0.390625)" xlink:href="#DejaVuSans-112"/>
     <use transform="translate(461.474609 0.390625)" xlink:href="#DejaVuSans-117"/>
     <use transform="translate(524.853516 0.390625)" xlink:href="#DejaVuSans-116"/>
     <use transform="translate(564.0625 0.390625)" xlink:href="#DejaVuSans-32"/>
     <use transform="translate(595.849609 0.390625)" xlink:href="#DejaVuSans-99"/>
     <use transform="translate(650.830078 0.390625)" xlink:href="#DejaVuSans-117"/>
     <use transform="translate(714.208984 0.390625)" xlink:href="#DejaVuSans-114"/>
     <use transform="translate(755.322266 0.390625)" xlink:href="#DejaVuSans-114"/>
     <use transform="translate(796.435547 0.390625)" xlink:href="#DejaVuSans-101"/>
     <use transform="translate(857.958984 0.390625)" xlink:href="#DejaVuSans-110"/>
     <use transform="translate(921.337891 0.390625)" xlink:href="#DejaVuSans-116"/>
     <use transform="translate(960.546875 0.390625)" xlink:href="#DejaVuSans-32"/>
     <use transform="translate(992.333984 0.390625)" xlink:href="#DejaVuSans-116"/>
     <use transform="translate(1031.542969 0.390625)" xlink:href="#DejaVuSans-114"/>
     <use transform="translate(1072.65625 0.390625)" xlink:href="#DejaVuSans-105"/>
     <use transform="translate(1100.439453 0.390625)" xlink:href="#DejaVuSans-97"/>
     <use transform="translate(1161.71875 0.390625)" xlink:href="#DejaVuSans-108"/>
     <use transform="translate(1189.501953 0.390625)" xlink:href="#DejaVuSans-44"/>
     <use transform="translate(1221.289062 0.390625)" xlink:href="#DejaVuSans-32"/>
     <use transform="translate(1253.076172 0.390625)" xlink:href="#DejaVuSans-Oblique-963"/>
     <use transform="translate(1335.9375 0.390625)" xlink:href="#DejaVuSans-61"/>
     <use transform="translate(1439.208984 0.390625)" xlink:href="#DejaVuSans-48"/>
     <use transform="translate(1502.832031 0.390625)" xlink:href="#DejaVuSans-46"/>
     <use transform="translate(1529.119141 0.390625)" xlink:href="#DejaVuSans-50"/>
     <use transform="translate(1592.742188 0.390625)" xlink:href="#DejaVuSans-53"/>
     <use transform="translate(1656.365234 0.390625)" xlink:href="#DejaVuSans-44"/>
     <use transform="translate(1707.634766 0.390625)" xlink:href="#DejaVuSans-Oblique-73"/>
     <use transform="translate(1737.126953 -16.015625)scale(0.7)" xlink:href="#DejaVuSans-Oblique-98"/>
     <use transform="translate(1781.560547 -16.015625)scale(0.7)" xlink:href="#DejaVuSans-Oblique-97"/>
     <use transform="translate(1824.456055 -16.015625)scale(0.7)" xlink:href="#DejaVuSans-Oblique-115"/>
     <use transform="translate(1860.925781 -16.015625)scale(0.7)" xlink:href="#DejaVuSans-Oblique-101"/>
     <use transform="translate(1926.208984 0.390625)" xlink:href="#DejaVuSans-61"/>
     <use transform="translate(2029.480469 0.390625)" xlink:href="#DejaVuSans-49"/>
     <use transform="translate(2093.103516 0.390625)" xlink:href="#DejaVuSans-46"/>
     <use transform="translate(2124.890625 0.390625)" xlink:href="#DejaVuSans-53"/>
     <use transform="translate(2188.513672 0.390625)" xlink:href="#DejaVuSans-44"/>
     <use transform="translate(2239.783203 0.390625)" xlink:href="#DejaVuSans-Oblique-947"/>
     <use transform="translate(2318.445312 0.390625)" xlink:href="#DejaVuSans-61"/>
     <use transform="translate(2421.716797 0.390625)" xlink:href="#DejaVuSans-48"/>
     <use transform="translate(2485.339844 0.390625)" xlink:href="#DejaVuSans-46"/>
     <use transform="translate(2517.126953 0.390625)" xlink:href="#DejaVuSans-52"/>
     <use transform="translate(2580.75 0.390625)" xlink:href="#DejaVuSans-44"/>
     <use transform="translate(2632.019531 0.390625)" xlink:href="#DejaVuSans-Oblique-946"/>
     <use transform="translate(2715.320312 0.390625)" xlink:href="#DejaVuSans-61"/>
     <use transform="translate(2818.591797 0.390625)" xlink:href="#DejaVuSans-48"/>
     <use transform="translate(2882.214844 0.390625)" xlink:href="#DejaVuSans-46"/>
     <use transform="translate(2914.001953 0.390625)" xlink:href="#DejaVuSans-49"/>
    </g>
   </g>
   <g id="legend_1">
    <g id="patch_7">
     <path d="M 730.9 80.55625 
L 770.6 80.55625 
Q 772.6 80.55625 772.6 78.55625 
L 772.6 50.2 
Q 772.6 48.2 770.6 48.2 
L 730.9 48.2 
Q 728.9 48.2 728.9 50.2 
L 728.9 78.55625 
Q 728.9 80.55625 730.9 80.55625 
z
" style="fill:#ffffff;opacity:0.8;stroke:#cccccc;stroke-linejoin:miter;"/>
    </g>
    <g id="line2d_13">
     <path d="M 732.9 56.298437 
L 752.9 56.298437 
" style="fill:none;stroke:#aa3863;stroke-linecap:square;stroke-width:1.5;"/>
    </g>
    <g id="line2d_14"/>
    <g id="text_12">
     <!-- $I_1$ -->
     <g transform="translate(760.9 59.798437)scale(0.1 -0.1)">
      <use transform="translate(0 0.09375)" xlink:href="#DejaVuSans-Oblique-73"/>
      <use transform="translate(29.492188 -16.3125)scale(0.7)" xlink:href="#DejaVuSans-49"/>
     </g>
    </g>
    <g id="line2d_15">
     <path d="M 732.9 70.976562 
L 752.9 70.976562 
" style="fill:none;stroke:#3b7d86;stroke-linecap:square;stroke-width:1.5;"/>
    </g>
    <g id="line2d_16"/>
    <g id="text_13">
     <!-- $I_2$ -->
     <g transform="translate(760.9 74.476562)scale(0.1 -0.1)">
      <use transform="translate(0 0.09375)" xlink:href="#DejaVuSans-Oblique-73"/>
      <use transform="translate(29.492188 -16.3125)scale(0.7)" xlink:href="#DejaVuSans-50"/>
     </g>
    </g>
   </g>
  </g>
  <g id="axes_2">
   <g id="patch_8">
    <path d="M 108 320.4 
L 777.6 320.4 
L 777.6 194.4 
L 108 194.4 
z
" style="fill:#ffffff;"/>
   </g>
   <g id="matplotlib.axis_3">
    <g id="xtick_6">
     <g id="line2d_17">
      <g>
       <use style="stroke:#000000;stroke-width:0.8;" x="138.436364" xlink:href="#mf91814c317" y="320.4"/>
      </g>
     </g>
     <g id="text_14">
      <!-- 0 -->
      <g transform="translate(135.255114 334.998438)scale(0.1 -0.1)">
       <use xlink:href="#DejaVuSans-48"/>
      </g>
     </g>
    </g>
    <g id="xtick_7">
     <g id="line2d_18">
      <g>
       <use style="stroke:#000000;stroke-width:0.8;" x="273.706085" xlink:href="#mf91814c317" y="320.4"/>
      </g>
     </g>
     <g id="text_15">
      <!-- 10 -->
      <g transform="translate(267.343585 334.998438)scale(0.1 -0.1)">
       <use xlink:href="#DejaVuSans-49"/>
       <use x="63.623047" xlink:href="#DejaVuSans-48"/>
      </g>
     </g>
    </g>
    <g id="xtick_8">
     <g id="line2d_19">
      <g>
       <use style="stroke:#000000;stroke-width:0.8;" x="408.975806" xlink:href="#mf91814c317" y="320.4"/>
      </g>
     </g>
     <g id="text_16">
      <!-- 20 -->
      <g transform="translate(402.613306 334.998438)scale(0.1 -0.1)">
       <use xlink:href="#DejaVuSans-50"/>
       <use x="63.623047" xlink:href="#DejaVuSans-48"/>
      </g>
     </g>
    </g>
    <g id="xtick_9">
     <g id="line2d_20">
      <g>
       <use style="stroke:#000000;stroke-width:0.8;" x="544.245527" xlink:href="#mf91814c317" y="320.4"/>
      </g>
     </g>
     <g id="text_17">
      <!-- 30 -->
      <g transform="translate(537.883027 334.998438)scale(0.1 -0.1)">
       <use xlink:href="#DejaVuSans-51"/>
       <use x="63.623047" xlink:href="#DejaVuSans-48"/>
      </g>
     </g>
    </g>
    <g id="xtick_10">
     <g id="line2d_21">
      <g>
       <use style="stroke:#000000;stroke-width:0.8;" x="679.515249" xlink:href="#mf91814c317" y="320.4"/>
      </g>
     </g>
     <g id="text_18">
      <!-- 40 -->
      <g transform="translate(673.152749 334.998438)scale(0.1 -0.1)">
       <use xlink:href="#DejaVuSans-52"/>
       <use x="63.623047" xlink:href="#DejaVuSans-48"/>
      </g>
     </g>
    </g>
   </g>
   <g id="matplotlib.axis_4">
    <g id="ytick_6">
     <g id="line2d_22">
      <g>
       <use style="stroke:#000000;stroke-width:0.8;" x="108" xlink:href="#mb8082d97c0" y="302.980647"/>
      </g>
     </g>
     <g id="text_19">
      <!-- 0.00 -->
      <g transform="translate(78.734375 306.779866)scale(0.1 -0.1)">
       <use xlink:href="#DejaVuSans-48"/>
       <use x="63.623047" xlink:href="#DejaVuSans-46"/>
       <use x="95.410156" xlink:href="#DejaVuSans-48"/>
       <use x="159.033203" xlink:href="#DejaVuSans-48"/>
      </g>
     </g>
    </g>
    <g id="ytick_7">
     <g id="line2d_23">
      <g>
       <use style="stroke:#000000;stroke-width:0.8;" x="108" xlink:href="#mb8082d97c0" y="277.266494"/>
      </g>
     </g>
     <g id="text_20">
      <!-- 0.25 -->
      <g transform="translate(78.734375 281.065713)scale(0.1 -0.1)">
       <use xlink:href="#DejaVuSans-48"/>
       <use x="63.623047" xlink:href="#DejaVuSans-46"/>
       <use x="95.410156" xlink:href="#DejaVuSans-50"/>
       <use x="159.033203" xlink:href="#DejaVuSans-53"/>
      </g>
     </g>
    </g>
    <g id="ytick_8">
     <g id="line2d_24">
      <g>
       <use style="stroke:#000000;stroke-width:0.8;" x="108" xlink:href="#mb8082d97c0" y="251.552342"/>
      </g>
     </g>
     <g id="text_21">
      <!-- 0.50 -->
      <g transform="translate(78.734375 255.351561)scale(0.1 -0.1)">
       <use xlink:href="#DejaVuSans-48"/>
       <use x="63.623047" xlink:href="#DejaVuSans-46"/>
       <use x="95.410156" xlink:href="#DejaVuSans-53"/>
       <use x="159.033203" xlink:href="#DejaVuSans-48"/>
      </g>
     </g>
    </g>
    <g id="ytick_9">
     <g id="line2d_25">
      <g>
       <use style="stroke:#000000;stroke-width:0.8;" x="108" xlink:href="#mb8082d97c0" y="225.838189"/>
      </g>
     </g>
     <g id="text_22">
      <!-- 0.75 -->
      <g transform="translate(78.734375 229.637408)scale(0.1 -0.1)">
       <defs>
        <path d="M 8.203125 72.90625 
L 55.078125 72.90625 
L 55.078125 68.703125 
L 28.609375 0 
L 18.3125 0 
L 43.21875 64.59375 
L 8.203125 64.59375 
z
" id="DejaVuSans-55"/>
       </defs>
       <use xlink:href="#DejaVuSans-48"/>
       <use x="63.623047" xlink:href="#DejaVuSans-46"/>
       <use x="95.410156" xlink:href="#DejaVuSans-55"/>
       <use x="159.033203" xlink:href="#DejaVuSans-53"/>
      </g>
     </g>
    </g>
    <g id="ytick_10">
     <g id="line2d_26">
      <g>
       <use style="stroke:#000000;stroke-width:0.8;" x="108" xlink:href="#mb8082d97c0" y="200.124037"/>
      </g>
     </g>
     <g id="text_23">
      <!-- 1.00 -->
      <g transform="translate(78.734375 203.923255)scale(0.1 -0.1)">
       <use xlink:href="#DejaVuSans-49"/>
       <use x="63.623047" xlink:href="#DejaVuSans-46"/>
       <use x="95.410156" xlink:href="#DejaVuSans-48"/>
       <use x="159.033203" xlink:href="#DejaVuSans-48"/>
      </g>
     </g>
    </g>
   </g>
   <g id="line2d_27">
    <path clip-path="url(#pddc48b7270)" d="M 138.436364 264.265391 
L 140.019019 249.541165 
L 141.615202 236.714505 
L 143.022007 226.856031 
L 143.14375 222.317872 
L 150.285991 200.156702 
L 150.299518 302.980647 
L 150.407734 301.508428 
L 151.976863 281.786508 
L 153.559518 264.651204 
L 155.142174 249.871224 
L 156.738357 236.997094 
L 158.172216 226.924691 
L 158.293959 222.385667 
L 165.449727 200.150533 
L 165.463254 302.980647 
L 165.57147 301.508152 
L 167.140598 281.782868 
L 168.723254 264.645192 
L 170.30591 249.863629 
L 171.902093 236.988513 
L 173.322425 227.004677 
L 173.444168 222.464651 
L 180.613463 200.149743 
L 180.62699 302.980647 
L 180.735205 301.50788 
L 182.304334 281.779281 
L 183.88699 264.639269 
L 185.469646 249.856146 
L 187.065828 236.980057 
L 188.472634 227.084911 
L 188.594376 222.543881 
L 195.777198 200.148988 
L 195.790725 302.980647 
L 195.898941 301.507608 
L 197.46807 281.775701 
L 199.050726 264.633355 
L 200.633381 249.848676 
L 202.229564 236.971617 
L 203.622842 227.165275 
L 203.744585 222.623239 
L 210.940934 200.148212 
L 210.954461 302.980647 
L 211.062677 301.507337 
L 212.631806 281.772126 
L 214.200935 264.763454 
L 215.78359 249.958627 
L 217.379773 237.064612 
L 218.773051 227.245769 
L 218.894794 222.702725 
L 226.10467 200.147415 
L 226.118197 302.980647 
L 226.226413 301.507066 
L 227.795542 281.768558 
L 229.36467 264.757576 
L 230.947326 249.951191 
L 232.543509 237.056204 
L 233.92326 227.326392 
L 234.045003 222.78234 
L 241.268406 200.146595 
L 241.281933 302.980647 
L 241.390149 301.506796 
L 242.959277 281.764994 
L 244.528406 264.751707 
L 246.111062 249.943768 
L 247.707244 237.04781 
L 249.073469 227.407146 
L 249.195211 222.862082 
L 256.432142 200.145754 
L 256.445668 302.980647 
L 256.553884 301.506526 
L 258.123013 281.761437 
L 259.692142 264.745848 
L 261.274798 249.936356 
L 262.87098 237.039429 
L 264.223677 227.488029 
L 264.34542 222.941953 
L 271.595877 200.144891 
L 271.609404 302.980647 
L 271.71762 301.506256 
L 273.286749 281.757885 
L 274.855878 264.739998 
L 276.438533 249.928956 
L 278.034716 237.031062 
L 279.373886 227.569042 
L 279.495629 223.021952 
L 286.759613 200.144006 
L 286.867829 304.075189 
L 286.881356 302.741094 
L 286.894883 302.174319 
L 286.90841 303.843189 
L 286.976045 308.639657 
L 287.016625 306.424625 
L 287.030152 305.233029 
L 287.097787 308.707451 
L 287.111314 308.919812 
L 287.246584 313.808822 
L 287.260111 313.853934 
L 287.273638 314.672727 
L 287.314219 311.088458 
L 287.422435 300.677917 
L 287.476543 305.139306 
L 287.557704 302.982372 
L 287.611812 308.273166 
L 287.638866 307.6931 
L 287.706501 308.618456 
L 287.720028 308.333656 
L 287.774136 308.056862 
L 287.787663 308.62582 
L 287.80119 308.990778 
L 287.828244 307.139329 
L 288.179945 286.686837 
L 288.206999 286.93331 
L 288.220526 285.834766 
L 288.261107 283.656355 
L 288.301688 286.215701 
L 288.342269 285.286951 
L 288.369323 284.250933 
L 288.409904 286.65098 
L 288.5587 291.863427 
L 288.653389 286.819198 
L 288.707497 287.777838 
L 288.82924 289.599048 
L 288.937456 276.196827 
L 289.00509 277.509456 
L 289.018617 278.166111 
L 289.059198 275.704963 
L 289.167414 272.815517 
L 289.099779 276.863414 
L 289.180941 273.415485 
L 289.356792 276.866219 
L 289.262103 272.385363 
L 289.370319 276.370888 
L 289.546169 271.700028 
L 291.439945 256.52422 
L 293.320195 243.220826 
L 295.186917 231.56959 
L 297.040112 221.372093 
L 298.893307 212.389413 
L 300.746502 204.485929 
L 301.869241 200.17032 
L 301.882768 302.980647 
L 301.990984 301.750679 
L 303.763017 282.949452 
L 305.53505 266.457763 
L 307.307084 251.991908 
L 309.092644 239.212427 
L 310.878204 228.013984 
L 312.663765 218.200977 
L 314.449325 209.602005 
L 316.248412 202.0135 
L 316.735383 200.127273 
L 316.74891 302.980647 
L 316.857126 301.750679 
L 318.629159 282.949452 
L 320.401193 266.457763 
L 322.173226 251.991908 
L 323.958786 239.212427 
L 325.744347 228.013984 
L 327.529907 218.200977 
L 329.315467 209.602005 
L 331.114555 202.0135 
L 331.601526 200.127273 
L 331.615053 302.980647 
L 331.723268 301.750679 
L 333.495302 282.949452 
L 335.267335 266.457763 
L 337.039368 251.991908 
L 338.824929 239.212427 
L 340.610489 228.013984 
L 342.396049 218.200977 
L 344.18161 209.602005 
L 345.980697 202.0135 
L 346.467668 200.127273 
L 346.481195 302.980647 
L 346.589411 301.750679 
L 348.361444 282.949452 
L 350.133477 266.457763 
L 351.905511 251.991908 
L 353.691071 239.212427 
L 355.476631 228.013984 
L 357.262192 218.200977 
L 359.047752 209.602005 
L 360.846839 202.0135 
L 361.33381 200.127273 
L 361.347337 302.980647 
L 361.455553 301.750679 
L 363.227586 282.949452 
L 364.99962 266.457763 
L 366.771653 251.991908 
L 368.557213 239.212427 
L 370.342774 228.013984 
L 372.128334 218.200977 
L 373.913894 209.602005 
L 375.712982 202.0135 
L 376.199953 200.127273 
L 376.21348 302.980647 
L 376.321695 301.750679 
L 378.093729 282.949452 
L 379.865762 266.457763 
L 381.637796 251.991908 
L 383.423356 239.212427 
L 385.208916 228.013984 
L 386.994476 218.200977 
L 388.780037 209.602005 
L 390.579124 202.0135 
L 391.066095 200.127273 
L 391.079622 302.980647 
L 391.187838 301.750679 
L 392.959871 282.949452 
L 394.731905 266.457763 
L 396.503938 251.991908 
L 398.289498 239.212427 
L 400.075059 228.013984 
L 401.860619 218.200977 
L 403.646179 209.602005 
L 405.445266 202.0135 
L 405.932237 200.127273 
L 405.945764 302.980647 
L 406.05398 301.750679 
L 407.826014 282.949452 
L 409.598047 266.457763 
L 411.37008 251.991908 
L 413.155641 239.212427 
L 414.941201 228.013984 
L 416.726761 218.200977 
L 418.512322 209.602005 
L 420.311409 202.0135 
L 420.79838 200.127273 
L 420.811907 302.980647 
L 420.920123 301.750679 
L 422.692156 282.949452 
L 424.464189 266.457763 
L 426.236223 251.991908 
L 428.021783 239.212427 
L 429.807343 228.013984 
L 431.592904 218.200977 
L 433.378464 209.602005 
L 435.177551 202.0135 
L 435.664522 200.127273 
L 435.678049 302.980647 
L 435.786265 301.750679 
L 437.558298 282.949452 
L 439.330332 266.457763 
L 441.102365 251.991908 
L 442.887925 239.212427 
L 444.673486 228.013984 
L 446.459046 218.200977 
L 448.244606 209.602005 
L 450.043694 202.0135 
L 450.530665 200.127273 
L 450.544192 302.980647 
L 450.652407 301.750679 
L 452.424441 282.949452 
L 454.196474 266.457763 
L 455.968507 251.991908 
L 457.754068 239.212427 
L 459.539628 228.013984 
L 461.325188 218.200977 
L 463.110749 209.602005 
L 464.909836 202.0135 
L 465.396807 200.127273 
L 465.410334 302.980647 
L 465.51855 301.750679 
L 467.290583 282.949452 
L 469.062616 266.457763 
L 470.83465 251.991908 
L 472.62021 239.212427 
L 474.40577 228.013984 
L 476.191331 218.200977 
L 477.976891 209.602005 
L 479.775978 202.0135 
L 480.262949 200.127273 
L 480.276476 302.980647 
L 480.384692 301.750679 
L 482.156725 282.949452 
L 483.928759 266.457763 
L 485.700792 251.991908 
L 487.486352 239.212427 
L 489.271913 228.013984 
L 491.057473 218.200977 
L 492.843033 209.602005 
L 494.642121 202.0135 
L 495.129092 200.127273 
L 495.142619 302.980647 
L 495.250834 301.750679 
L 497.022868 282.949452 
L 498.794901 266.457763 
L 500.566934 251.991908 
L 502.352495 239.212427 
L 504.138055 228.013984 
L 505.923615 218.200977 
L 507.709176 209.602005 
L 509.508263 202.0135 
L 509.995234 200.127273 
L 510.008761 302.980647 
L 510.116977 301.750679 
L 511.88901 282.949452 
L 513.661043 266.457763 
L 515.433077 251.991908 
L 517.218637 239.212427 
L 519.004197 228.013984 
L 520.789758 218.200977 
L 522.575318 209.602005 
L 524.374405 202.0135 
L 524.861376 200.127273 
L 524.874903 302.980647 
L 524.983119 301.750679 
L 526.755153 282.949452 
L 528.527186 266.457763 
L 530.299219 251.991908 
L 532.08478 239.212427 
L 533.87034 228.013984 
L 535.6559 218.200977 
L 537.44146 209.602005 
L 539.240548 202.0135 
L 539.727519 200.127273 
L 539.741046 302.980647 
L 539.849262 301.750679 
L 541.621295 282.949452 
L 543.393328 266.457763 
L 545.165362 251.991908 
L 546.950922 239.212427 
L 548.736482 228.013984 
L 550.522043 218.200977 
L 552.307603 209.602005 
L 554.10669 202.0135 
L 554.593661 200.127273 
L 554.607188 302.980647 
L 554.715404 301.750679 
L 556.487437 282.949452 
L 558.259471 266.457763 
L 560.031504 251.991908 
L 561.817064 239.212427 
L 563.602625 228.013984 
L 565.388185 218.200977 
L 567.173745 209.602005 
L 568.972833 202.0135 
L 569.459804 200.127273 
L 569.47333 302.980647 
L 569.581546 301.750679 
L 571.35358 282.949452 
L 573.125613 266.457763 
L 574.897646 251.991908 
L 576.683207 239.212427 
L 578.468767 228.013984 
L 580.254327 218.200977 
L 582.039888 209.602005 
L 583.838975 202.0135 
L 584.325946 200.127273 
L 584.339473 302.980647 
L 584.447689 301.750679 
L 586.219722 282.949452 
L 587.991755 266.457763 
L 589.763789 251.991908 
L 591.549349 239.212427 
L 593.334909 228.013984 
L 595.12047 218.200977 
L 596.90603 209.602005 
L 598.705117 202.0135 
L 599.192088 200.127273 
L 599.205615 302.980647 
L 599.313831 301.750679 
L 601.085864 282.949452 
L 602.857898 266.457763 
L 604.629931 251.991908 
L 606.415491 239.212427 
L 608.201052 228.013984 
L 609.986612 218.200977 
L 611.772172 209.602005 
L 613.57126 202.0135 
L 614.058231 200.127273 
L 614.071758 302.980647 
L 614.179973 301.750679 
L 615.952007 282.949452 
L 617.72404 266.457763 
L 619.496073 251.991908 
L 621.281634 239.212427 
L 623.067194 228.013984 
L 624.852754 218.200977 
L 626.638315 209.602005 
L 628.437402 202.0135 
L 628.924373 200.127273 
L 628.9379 302.980647 
L 629.046116 301.750679 
L 630.818149 282.949452 
L 632.590182 266.457763 
L 634.362216 251.991908 
L 636.147776 239.212427 
L 637.933336 228.013984 
L 639.718897 218.200977 
L 641.504457 209.602005 
L 643.303544 202.0135 
L 643.790515 200.127273 
L 643.804042 302.980647 
L 643.912258 301.750679 
L 645.684291 282.949452 
L 647.456325 266.457763 
L 649.228358 251.991908 
L 651.013918 239.212427 
L 652.799479 228.013984 
L 654.585039 218.200977 
L 656.370599 209.602005 
L 658.169687 202.0135 
L 658.656658 200.127273 
L 658.670185 302.980647 
L 658.7784 301.750679 
L 660.550434 282.949452 
L 662.322467 266.457763 
L 664.094501 251.991908 
L 665.880061 239.212427 
L 667.665621 228.013984 
L 669.451181 218.200977 
L 671.236742 209.602005 
L 673.035829 202.0135 
L 673.5228 200.127273 
L 673.536327 302.980647 
L 673.644543 301.750679 
L 675.416576 282.949452 
L 677.18861 266.457763 
L 678.960643 251.991908 
L 680.746203 239.212427 
L 682.531764 228.013984 
L 684.317324 218.200977 
L 686.102884 209.602005 
L 687.901971 202.0135 
L 688.388942 200.127273 
L 688.402469 302.980647 
L 688.510685 301.750679 
L 690.282719 282.949452 
L 692.054752 266.457763 
L 693.826785 251.991908 
L 695.612346 239.212427 
L 697.397906 228.013984 
L 699.183466 218.200977 
L 700.969027 209.602005 
L 702.768114 202.0135 
L 703.255085 200.127273 
L 703.268612 302.980647 
L 703.376828 301.750679 
L 705.148861 282.949452 
L 706.920894 266.457763 
L 708.692928 251.991908 
L 710.478488 239.212427 
L 712.264048 228.013984 
L 714.049609 218.200977 
L 715.835169 209.602005 
L 717.634256 202.0135 
L 718.121227 200.127273 
L 718.134754 302.980647 
L 718.24297 301.750679 
L 720.015003 282.949452 
L 721.787037 266.457763 
L 723.55907 251.991908 
L 725.34463 239.212427 
L 727.130191 228.013984 
L 728.915751 218.200977 
L 730.701311 209.602005 
L 732.500399 202.0135 
L 732.98737 200.127273 
L 733.000897 302.980647 
L 733.109112 301.750679 
L 734.881146 282.949452 
L 736.653179 266.457763 
L 738.425212 251.991908 
L 740.210773 239.212427 
L 741.996333 228.013984 
L 743.781893 218.200977 
L 745.567454 209.602005 
L 747.163636 202.819701 
L 747.163636 202.819701 
" style="fill:none;stroke:#aa3863;stroke-linecap:square;stroke-width:1.5;"/>
   </g>
   <g id="line2d_28">
    <path clip-path="url(#pddc48b7270)" d="M 138.436364 215.0724 
L 141.588148 204.587409 
L 143.022007 200.147011 
L 143.035534 302.980647 
L 143.14375 301.496139 
L 144.699352 281.783362 
L 146.26848 264.657211 
L 147.851136 249.769117 
L 149.447319 236.818707 
L 150.285991 230.739738 
L 150.407734 226.152938 
L 156.210805 206.256065 
L 158.172216 200.133162 
L 158.185743 302.980647 
L 158.293959 301.496356 
L 159.849561 281.786206 
L 161.418689 264.661914 
L 163.001345 249.775074 
L 164.597528 236.825448 
L 165.449727 230.652464 
L 165.57147 226.066755 
L 171.428649 206.03388 
L 173.322425 200.134238 
L 173.335952 302.980647 
L 173.444168 301.496609 
L 174.999769 281.78952 
L 176.568898 264.667393 
L 178.151554 249.782014 
L 179.747737 236.833301 
L 180.613463 230.566469 
L 180.735205 225.981838 
L 186.632965 205.856585 
L 188.472634 200.135814 
L 188.486161 302.980647 
L 188.594376 301.496863 
L 190.149978 281.792844 
L 191.719107 264.672889 
L 193.301763 249.788976 
L 194.897945 236.841179 
L 195.777198 230.480624 
L 195.898941 225.897067 
L 201.850809 205.636642 
L 203.622842 200.137378 
L 203.636369 302.980647 
L 203.744585 301.497117 
L 205.300187 281.796173 
L 206.869316 264.678394 
L 208.451971 249.795949 
L 210.048154 236.849069 
L 210.940934 230.394916 
L 211.062677 225.812433 
L 217.055126 205.4607 
L 218.773051 200.138922 
L 218.786578 302.980647 
L 218.894794 301.497372 
L 220.450396 281.799508 
L 222.019524 264.683908 
L 223.60218 249.802934 
L 225.198363 236.856972 
L 226.10467 230.309345 
L 226.226413 225.727933 
L 232.272969 205.24235 
L 233.92326 200.140448 
L 233.936787 302.980647 
L 234.045003 301.497627 
L 235.600604 281.802848 
L 237.169733 264.689431 
L 238.752389 249.809929 
L 240.348572 236.864888 
L 241.268406 230.223911 
L 241.390149 225.643569 
L 247.477286 205.06774 
L 249.073469 200.141955 
L 249.086996 302.980647 
L 249.195211 301.497882 
L 250.750813 281.806194 
L 252.319942 264.694963 
L 253.902598 249.816936 
L 255.49878 236.872816 
L 256.432142 230.138613 
L 256.553884 225.559339 
L 262.69513 204.850968 
L 264.223677 200.143443 
L 264.237204 302.980647 
L 264.34542 301.498138 
L 265.901022 281.809545 
L 267.470151 264.700503 
L 269.052807 249.823954 
L 270.648989 236.880757 
L 271.595877 230.053451 
L 271.71762 225.475243 
L 277.912973 204.635047 
L 279.373886 200.144912 
L 279.387413 302.980647 
L 279.495629 301.498395 
L 281.051231 281.812901 
L 282.62036 264.706053 
L 284.203015 249.830984 
L 285.799198 236.888712 
L 286.759613 229.968426 
L 286.881356 223.394137 
L 286.894883 223.527185 
L 286.90841 223.186748 
L 286.921937 222.399503 
L 286.989572 224.482479 
L 287.003099 224.107892 
L 287.030152 224.135296 
L 287.043679 223.090738 
L 287.08426 218.277855 
L 287.138368 223.798493 
L 287.165422 224.376183 
L 287.192476 227.594205 
L 287.260111 223.293705 
L 287.314219 224.188491 
L 287.53065 214.856423 
L 287.557704 213.148188 
L 287.625339 214.976805 
L 287.66592 218.148834 
L 287.733555 215.058135 
L 287.855298 211.426728 
L 287.922933 217.27456 
L 287.963514 211.53953 
L 288.071729 205.26832 
L 288.098783 206.805702 
L 288.125837 207.487268 
L 288.139364 206.824325 
L 288.166418 201.359348 
L 288.24758 201.444602 
L 288.261107 302.980647 
L 288.369323 295.702997 
L 288.396377 294.487792 
L 288.409904 296.052152 
L 288.477538 302.399771 
L 288.518119 296.513717 
L 288.599281 293.4071 
L 288.626335 295.859839 
L 288.666916 298.907403 
L 288.761605 297.710057 
L 288.775132 297.7201 
L 288.910402 294.50674 
L 288.923929 295.059242 
L 288.950983 296.562315 
L 288.991563 294.409088 
L 289.00509 292.6442 
L 289.059198 297.566882 
L 289.086252 296.507208 
L 289.207995 301.019793 
L 289.126833 296.277332 
L 289.221522 300.427421 
L 289.370319 291.564924 
L 289.397373 294.602322 
L 289.478534 291.650333 
L 289.492061 291.845361 
L 289.546169 291.242259 
L 291.250568 273.531898 
L 292.954966 258.087124 
L 294.672892 244.505623 
L 296.390817 232.65282 
L 298.12227 222.224226 
L 299.853722 213.118524 
L 301.598701 205.104377 
L 301.869241 203.956283 
L 301.882768 302.980647 
L 301.990984 301.750679 
L 303.763017 282.949452 
L 305.53505 266.457763 
L 307.307084 251.991908 
L 309.092644 239.212427 
L 310.878204 228.013984 
L 312.663765 218.200977 
L 314.449325 209.602005 
L 316.248412 202.0135 
L 316.735383 200.127273 
L 316.74891 302.980647 
L 316.857126 301.750679 
L 318.629159 282.949452 
L 320.401193 266.457763 
L 322.173226 251.991908 
L 323.958786 239.212427 
L 325.744347 228.013984 
L 327.529907 218.200977 
L 329.315467 209.602005 
L 331.114555 202.0135 
L 331.601526 200.127273 
L 331.615053 302.980647 
L 331.723268 301.750679 
L 333.495302 282.949452 
L 335.267335 266.457763 
L 337.039368 251.991908 
L 338.824929 239.212427 
L 340.610489 228.013984 
L 342.396049 218.200977 
L 344.18161 209.602005 
L 345.980697 202.0135 
L 346.467668 200.127273 
L 346.481195 302.980647 
L 346.589411 301.750679 
L 348.361444 282.949452 
L 350.133477 266.457763 
L 351.905511 251.991908 
L 353.691071 239.212427 
L 355.476631 228.013984 
L 357.262192 218.200977 
L 359.047752 209.602005 
L 360.846839 202.0135 
L 361.33381 200.127273 
L 361.347337 302.980647 
L 361.455553 301.750679 
L 363.227586 282.949452 
L 364.99962 266.457763 
L 366.771653 251.991908 
L 368.557213 239.212427 
L 370.342774 228.013984 
L 372.128334 218.200977 
L 373.913894 209.602005 
L 375.712982 202.0135 
L 376.199953 200.127273 
L 376.21348 302.980647 
L 376.321695 301.750679 
L 378.093729 282.949452 
L 379.865762 266.457763 
L 381.637796 251.991908 
L 383.423356 239.212427 
L 385.208916 228.013984 
L 386.994476 218.200977 
L 388.780037 209.602005 
L 390.579124 202.0135 
L 391.066095 200.127273 
L 391.079622 302.980647 
L 391.187838 301.750679 
L 392.959871 282.949452 
L 394.731905 266.457763 
L 396.503938 251.991908 
L 398.289498 239.212427 
L 400.075059 228.013984 
L 401.860619 218.200977 
L 403.646179 209.602005 
L 405.445266 202.0135 
L 405.932237 200.127273 
L 405.945764 302.980647 
L 406.05398 301.750679 
L 407.826014 282.949452 
L 409.598047 266.457763 
L 411.37008 251.991908 
L 413.155641 239.212427 
L 414.941201 228.013984 
L 416.726761 218.200977 
L 418.512322 209.602005 
L 420.311409 202.0135 
L 420.79838 200.127273 
L 420.811907 302.980647 
L 420.920123 301.750679 
L 422.692156 282.949452 
L 424.464189 266.457763 
L 426.236223 251.991908 
L 428.021783 239.212427 
L 429.807343 228.013984 
L 431.592904 218.200977 
L 433.378464 209.602005 
L 435.177551 202.0135 
L 435.664522 200.127273 
L 435.678049 302.980647 
L 435.786265 301.750679 
L 437.558298 282.949452 
L 439.330332 266.457763 
L 441.102365 251.991908 
L 442.887925 239.212427 
L 444.673486 228.013984 
L 446.459046 218.200977 
L 448.244606 209.602005 
L 450.043694 202.0135 
L 450.530665 200.127273 
L 450.544192 302.980647 
L 450.652407 301.750679 
L 452.424441 282.949452 
L 454.196474 266.457763 
L 455.968507 251.991908 
L 457.754068 239.212427 
L 459.539628 228.013984 
L 461.325188 218.200977 
L 463.110749 209.602005 
L 464.909836 202.0135 
L 465.396807 200.127273 
L 465.410334 302.980647 
L 465.51855 301.750679 
L 467.290583 282.949452 
L 469.062616 266.457763 
L 470.83465 251.991908 
L 472.62021 239.212427 
L 474.40577 228.013984 
L 476.191331 218.200977 
L 477.976891 209.602005 
L 479.775978 202.0135 
L 480.262949 200.127273 
L 480.276476 302.980647 
L 480.384692 301.750679 
L 482.156725 282.949452 
L 483.928759 266.457763 
L 485.700792 251.991908 
L 487.486352 239.212427 
L 489.271913 228.013984 
L 491.057473 218.200977 
L 492.843033 209.602005 
L 494.642121 202.0135 
L 495.129092 200.127273 
L 495.142619 302.980647 
L 495.250834 301.750679 
L 497.022868 282.949452 
L 498.794901 266.457763 
L 500.566934 251.991908 
L 502.352495 239.212427 
L 504.138055 228.013984 
L 505.923615 218.200977 
L 507.709176 209.602005 
L 509.508263 202.0135 
L 509.995234 200.127273 
L 510.008761 302.980647 
L 510.116977 301.750679 
L 511.88901 282.949452 
L 513.661043 266.457763 
L 515.433077 251.991908 
L 517.218637 239.212427 
L 519.004197 228.013984 
L 520.789758 218.200977 
L 522.575318 209.602005 
L 524.374405 202.0135 
L 524.861376 200.127273 
L 524.874903 302.980647 
L 524.983119 301.750679 
L 526.755153 282.949452 
L 528.527186 266.457763 
L 530.299219 251.991908 
L 532.08478 239.212427 
L 533.87034 228.013984 
L 535.6559 218.200977 
L 537.44146 209.602005 
L 539.240548 202.0135 
L 539.727519 200.127273 
L 539.741046 302.980647 
L 539.849262 301.750679 
L 541.621295 282.949452 
L 543.393328 266.457763 
L 545.165362 251.991908 
L 546.950922 239.212427 
L 548.736482 228.013984 
L 550.522043 218.200977 
L 552.307603 209.602005 
L 554.10669 202.0135 
L 554.593661 200.127273 
L 554.607188 302.980647 
L 554.715404 301.750679 
L 556.487437 282.949452 
L 558.259471 266.457763 
L 560.031504 251.991908 
L 561.817064 239.212427 
L 563.602625 228.013984 
L 565.388185 218.200977 
L 567.173745 209.602005 
L 568.972833 202.0135 
L 569.459804 200.127273 
L 569.47333 302.980647 
L 569.581546 301.750679 
L 571.35358 282.949452 
L 573.125613 266.457763 
L 574.897646 251.991908 
L 576.683207 239.212427 
L 578.468767 228.013984 
L 580.254327 218.200977 
L 582.039888 209.602005 
L 583.838975 202.0135 
L 584.325946 200.127273 
L 584.339473 302.980647 
L 584.447689 301.750679 
L 586.219722 282.949452 
L 587.991755 266.457763 
L 589.763789 251.991908 
L 591.549349 239.212427 
L 593.334909 228.013984 
L 595.12047 218.200977 
L 596.90603 209.602005 
L 598.705117 202.0135 
L 599.192088 200.127273 
L 599.205615 302.980647 
L 599.313831 301.750679 
L 601.085864 282.949452 
L 602.857898 266.457763 
L 604.629931 251.991908 
L 606.415491 239.212427 
L 608.201052 228.013984 
L 609.986612 218.200977 
L 611.772172 209.602005 
L 613.57126 202.0135 
L 614.058231 200.127273 
L 614.071758 302.980647 
L 614.179973 301.750679 
L 615.952007 282.949452 
L 617.72404 266.457763 
L 619.496073 251.991908 
L 621.281634 239.212427 
L 623.067194 228.013984 
L 624.852754 218.200977 
L 626.638315 209.602005 
L 628.437402 202.0135 
L 628.924373 200.127273 
L 628.9379 302.980647 
L 629.046116 301.750679 
L 630.818149 282.949452 
L 632.590182 266.457763 
L 634.362216 251.991908 
L 636.147776 239.212427 
L 637.933336 228.013984 
L 639.718897 218.200977 
L 641.504457 209.602005 
L 643.303544 202.0135 
L 643.790515 200.127273 
L 643.804042 302.980647 
L 643.912258 301.750679 
L 645.684291 282.949452 
L 647.456325 266.457763 
L 649.228358 251.991908 
L 651.013918 239.212427 
L 652.799479 228.013984 
L 654.585039 218.200977 
L 656.370599 209.602005 
L 658.169687 202.0135 
L 658.656658 200.127273 
L 658.670185 302.980647 
L 658.7784 301.750679 
L 660.550434 282.949452 
L 662.322467 266.457763 
L 664.094501 251.991908 
L 665.880061 239.212427 
L 667.665621 228.013984 
L 669.451181 218.200977 
L 671.236742 209.602005 
L 673.035829 202.0135 
L 673.5228 200.127273 
L 673.536327 302.980647 
L 673.644543 301.750679 
L 675.416576 282.949452 
L 677.18861 266.457763 
L 678.960643 251.991908 
L 680.746203 239.212427 
L 682.531764 228.013984 
L 684.317324 218.200977 
L 686.102884 209.602005 
L 687.901971 202.0135 
L 688.388942 200.127273 
L 688.402469 302.980647 
L 688.510685 301.750679 
L 690.282719 282.949452 
L 692.054752 266.457763 
L 693.826785 251.991908 
L 695.612346 239.212427 
L 697.397906 228.013984 
L 699.183466 218.200977 
L 700.969027 209.602005 
L 702.768114 202.0135 
L 703.255085 200.127273 
L 703.268612 302.980647 
L 703.376828 301.750679 
L 705.148861 282.949452 
L 706.920894 266.457763 
L 708.692928 251.991908 
L 710.478488 239.212427 
L 712.264048 228.013984 
L 714.049609 218.200977 
L 715.835169 209.602005 
L 717.634256 202.0135 
L 718.121227 200.127273 
L 718.134754 302.980647 
L 718.24297 301.750679 
L 720.015003 282.949452 
L 721.787037 266.457763 
L 723.55907 251.991908 
L 725.34463 239.212427 
L 727.130191 228.013984 
L 728.915751 218.200977 
L 730.701311 209.602005 
L 732.500399 202.0135 
L 732.98737 200.127273 
L 733.000897 302.980647 
L 733.109112 301.750679 
L 734.881146 282.949452 
L 736.653179 266.457763 
L 738.425212 251.991908 
L 740.210773 239.212427 
L 741.996333 228.013984 
L 743.781893 218.200977 
L 745.567454 209.602005 
L 747.163636 202.819701 
L 747.163636 202.819701 
" style="fill:none;stroke:#3b7d86;stroke-linecap:square;stroke-width:1.5;"/>
   </g>
   <g id="patch_9">
    <path d="M 108 320.4 
L 108 194.4 
" style="fill:none;stroke:#000000;stroke-linecap:square;stroke-linejoin:miter;stroke-width:0.8;"/>
   </g>
   <g id="patch_10">
    <path d="M 777.6 320.4 
L 777.6 194.4 
" style="fill:none;stroke:#000000;stroke-linecap:square;stroke-linejoin:miter;stroke-width:0.8;"/>
   </g>
   <g id="patch_11">
    <path d="M 108 320.4 
L 777.6 320.4 
" style="fill:none;stroke:#000000;stroke-linecap:square;stroke-linejoin:miter;stroke-width:0.8;"/>
   </g>
   <g id="patch_12">
    <path d="M 108 194.4 
L 777.6 194.4 
" style="fill:none;stroke:#000000;stroke-linecap:square;stroke-linejoin:miter;stroke-width:0.8;"/>
   </g>
   <g id="legend_2">
    <g id="patch_13">
     <path d="M 727 231.75625 
L 770.6 231.75625 
Q 772.6 231.75625 772.6 229.75625 
L 772.6 201.4 
Q 772.6 199.4 770.6 199.4 
L 727 199.4 
Q 725 199.4 725 201.4 
L 725 229.75625 
Q 725 231.75625 727 231.75625 
z
" style="fill:#ffffff;opacity:0.8;stroke:#cccccc;stroke-linejoin:miter;"/>
    </g>
    <g id="line2d_29">
     <path d="M 729 207.498438 
L 749 207.498438 
" style="fill:none;stroke:#aa3863;stroke-linecap:square;stroke-width:1.5;"/>
    </g>
    <g id="line2d_30"/>
    <g id="text_24">
     <!-- $V_{1}$ -->
     <g transform="translate(757 210.998438)scale(0.1 -0.1)">
      <defs>
       <path d="M 20.609375 0 
L 7.8125 72.90625 
L 17.484375 72.90625 
L 28.078125 10.203125 
L 63.484375 72.90625 
L 74.21875 72.90625 
L 32.078125 0 
z
" id="DejaVuSans-Oblique-86"/>
      </defs>
      <use transform="translate(0 0.09375)" xlink:href="#DejaVuSans-Oblique-86"/>
      <use transform="translate(68.408203 -16.3125)scale(0.7)" xlink:href="#DejaVuSans-49"/>
     </g>
    </g>
    <g id="line2d_31">
     <path d="M 729 222.176563 
L 749 222.176563 
" style="fill:none;stroke:#3b7d86;stroke-linecap:square;stroke-width:1.5;"/>
    </g>
    <g id="line2d_32"/>
    <g id="text_25">
     <!-- $V_{2}$ -->
     <g transform="translate(757 225.676563)scale(0.1 -0.1)">
      <use transform="translate(0 0.09375)" xlink:href="#DejaVuSans-Oblique-86"/>
      <use transform="translate(68.408203 -16.3125)scale(0.7)" xlink:href="#DejaVuSans-50"/>
     </g>
    </g>
   </g>
  </g>
 </g>
 <defs>
  <clipPath id="p760f3ba5bd">
   <rect height="126" width="669.6" x="108" y="43.2"/>
  </clipPath>
  <clipPath id="pddc48b7270">
   <rect height="126" width="669.6" x="108" y="194.4"/>
  </clipPath>
 </defs>
</svg>
