<?xml version="1.0" encoding="utf-8" standalone="no"?>
<!DOCTYPE svg PUBLIC "-//W3C//DTD SVG 1.1//EN"
  "http://www.w3.org/Graphics/SVG/1.1/DTD/svg11.dtd">
<!-- Created with matplotlib (https://matplotlib.org/) -->
<svg height="432pt" version="1.1" viewBox="0 0 576 432" width="576pt" xmlns="http://www.w3.org/2000/svg" xmlns:xlink="http://www.w3.org/1999/xlink">
 <metadata>
  <rdf:RDF xmlns:cc="http://creativecommons.org/ns#" xmlns:dc="http://purl.org/dc/elements/1.1/" xmlns:rdf="http://www.w3.org/1999/02/22-rdf-syntax-ns#">
   <cc:Work>
    <dc:type rdf:resource="http://purl.org/dc/dcmitype/StillImage"/>
    <dc:date>2021-08-23T19:11:58.900956</dc:date>
    <dc:format>image/svg+xml</dc:format>
    <dc:creator>
     <cc:Agent>
      <dc:title>Matplotlib v3.3.3, https://matplotlib.org/</dc:title>
     </cc:Agent>
    </dc:creator>
   </cc:Work>
  </rdf:RDF>
 </metadata>
 <defs>
  <style type="text/css">*{stroke-linecap:butt;stroke-linejoin:round;}</style>
 </defs>
 <g id="figure_1">
  <g id="patch_1">
   <path d="M 0 432 
L 576 432 
L 576 0 
L 0 0 
z
" style="fill:#ffffff;"/>
  </g>
  <g id="axes_1">
   <g id="patch_2">
    <path d="M 55.82 379.72 
L 556.515 379.72 
L 556.515 38.76 
L 55.82 38.76 
z
" style="fill:#ffffff;"/>
   </g>
   <g id="matplotlib.axis_1">
    <g id="xtick_1">
     <g id="line2d_1">
      <defs>
       <path d="M 0 0 
L 0 3.5 
" id="m375730cfbc" style="stroke:#000000;stroke-width:0.8;"/>
      </defs>
      <g>
       <use style="stroke:#000000;stroke-width:0.8;" x="55.82" xlink:href="#m375730cfbc" y="379.72"/>
      </g>
     </g>
     <g id="text_1">
      <!-- 1.0 -->
      <g transform="translate(47.073281 395.078281)scale(0.11 -0.11)">
       <defs>
        <path d="M 12.40625 8.296875 
L 28.515625 8.296875 
L 28.515625 63.921875 
L 10.984375 60.40625 
L 10.984375 69.390625 
L 28.421875 72.90625 
L 38.28125 72.90625 
L 38.28125 8.296875 
L 54.390625 8.296875 
L 54.390625 0 
L 12.40625 0 
z
" id="DejaVuSans-49"/>
        <path d="M 10.6875 12.40625 
L 21 12.40625 
L 21 0 
L 10.6875 0 
z
" id="DejaVuSans-46"/>
        <path d="M 31.78125 66.40625 
Q 24.171875 66.40625 20.328125 58.90625 
Q 16.5 51.421875 16.5 36.375 
Q 16.5 21.390625 20.328125 13.890625 
Q 24.171875 6.390625 31.78125 6.390625 
Q 39.453125 6.390625 43.28125 13.890625 
Q 47.125 21.390625 47.125 36.375 
Q 47.125 51.421875 43.28125 58.90625 
Q 39.453125 66.40625 31.78125 66.40625 
z
M 31.78125 74.21875 
Q 44.046875 74.21875 50.515625 64.515625 
Q 56.984375 54.828125 56.984375 36.375 
Q 56.984375 17.96875 50.515625 8.265625 
Q 44.046875 -1.421875 31.78125 -1.421875 
Q 19.53125 -1.421875 13.0625 8.265625 
Q 6.59375 17.96875 6.59375 36.375 
Q 6.59375 54.828125 13.0625 64.515625 
Q 19.53125 74.21875 31.78125 74.21875 
z
" id="DejaVuSans-48"/>
       </defs>
       <use xlink:href="#DejaVuSans-49"/>
       <use x="63.623047" xlink:href="#DejaVuSans-46"/>
       <use x="95.410156" xlink:href="#DejaVuSans-48"/>
      </g>
     </g>
    </g>
    <g id="xtick_2">
     <g id="line2d_2">
      <g>
       <use style="stroke:#000000;stroke-width:0.8;" x="155.959" xlink:href="#m375730cfbc" y="379.72"/>
      </g>
     </g>
     <g id="text_2">
      <!-- 1.2 -->
      <g transform="translate(147.212281 395.078281)scale(0.11 -0.11)">
       <defs>
        <path d="M 19.1875 8.296875 
L 53.609375 8.296875 
L 53.609375 0 
L 7.328125 0 
L 7.328125 8.296875 
Q 12.9375 14.109375 22.625 23.890625 
Q 32.328125 33.6875 34.8125 36.53125 
Q 39.546875 41.84375 41.421875 45.53125 
Q 43.3125 49.21875 43.3125 52.78125 
Q 43.3125 58.59375 39.234375 62.25 
Q 35.15625 65.921875 28.609375 65.921875 
Q 23.96875 65.921875 18.8125 64.3125 
Q 13.671875 62.703125 7.8125 59.421875 
L 7.8125 69.390625 
Q 13.765625 71.78125 18.9375 73 
Q 24.125 74.21875 28.421875 74.21875 
Q 39.75 74.21875 46.484375 68.546875 
Q 53.21875 62.890625 53.21875 53.421875 
Q 53.21875 48.921875 51.53125 44.890625 
Q 49.859375 40.875 45.40625 35.40625 
Q 44.1875 33.984375 37.640625 27.21875 
Q 31.109375 20.453125 19.1875 8.296875 
z
" id="DejaVuSans-50"/>
       </defs>
       <use xlink:href="#DejaVuSans-49"/>
       <use x="63.623047" xlink:href="#DejaVuSans-46"/>
       <use x="95.410156" xlink:href="#DejaVuSans-50"/>
      </g>
     </g>
    </g>
    <g id="xtick_3">
     <g id="line2d_3">
      <g>
       <use style="stroke:#000000;stroke-width:0.8;" x="256.098" xlink:href="#m375730cfbc" y="379.72"/>
      </g>
     </g>
     <g id="text_3">
      <!-- 1.4 -->
      <g transform="translate(247.351281 395.078281)scale(0.11 -0.11)">
       <defs>
        <path d="M 37.796875 64.3125 
L 12.890625 25.390625 
L 37.796875 25.390625 
z
M 35.203125 72.90625 
L 47.609375 72.90625 
L 47.609375 25.390625 
L 58.015625 25.390625 
L 58.015625 17.1875 
L 47.609375 17.1875 
L 47.609375 0 
L 37.796875 0 
L 37.796875 17.1875 
L 4.890625 17.1875 
L 4.890625 26.703125 
z
" id="DejaVuSans-52"/>
       </defs>
       <use xlink:href="#DejaVuSans-49"/>
       <use x="63.623047" xlink:href="#DejaVuSans-46"/>
       <use x="95.410156" xlink:href="#DejaVuSans-52"/>
      </g>
     </g>
    </g>
    <g id="xtick_4">
     <g id="line2d_4">
      <g>
       <use style="stroke:#000000;stroke-width:0.8;" x="356.237" xlink:href="#m375730cfbc" y="379.72"/>
      </g>
     </g>
     <g id="text_4">
      <!-- 1.6 -->
      <g transform="translate(347.490281 395.078281)scale(0.11 -0.11)">
       <defs>
        <path d="M 33.015625 40.375 
Q 26.375 40.375 22.484375 35.828125 
Q 18.609375 31.296875 18.609375 23.390625 
Q 18.609375 15.53125 22.484375 10.953125 
Q 26.375 6.390625 33.015625 6.390625 
Q 39.65625 6.390625 43.53125 10.953125 
Q 47.40625 15.53125 47.40625 23.390625 
Q 47.40625 31.296875 43.53125 35.828125 
Q 39.65625 40.375 33.015625 40.375 
z
M 52.59375 71.296875 
L 52.59375 62.3125 
Q 48.875 64.0625 45.09375 64.984375 
Q 41.3125 65.921875 37.59375 65.921875 
Q 27.828125 65.921875 22.671875 59.328125 
Q 17.53125 52.734375 16.796875 39.40625 
Q 19.671875 43.65625 24.015625 45.921875 
Q 28.375 48.1875 33.59375 48.1875 
Q 44.578125 48.1875 50.953125 41.515625 
Q 57.328125 34.859375 57.328125 23.390625 
Q 57.328125 12.15625 50.6875 5.359375 
Q 44.046875 -1.421875 33.015625 -1.421875 
Q 20.359375 -1.421875 13.671875 8.265625 
Q 6.984375 17.96875 6.984375 36.375 
Q 6.984375 53.65625 15.1875 63.9375 
Q 23.390625 74.21875 37.203125 74.21875 
Q 40.921875 74.21875 44.703125 73.484375 
Q 48.484375 72.75 52.59375 71.296875 
z
" id="DejaVuSans-54"/>
       </defs>
       <use xlink:href="#DejaVuSans-49"/>
       <use x="63.623047" xlink:href="#DejaVuSans-46"/>
       <use x="95.410156" xlink:href="#DejaVuSans-54"/>
      </g>
     </g>
    </g>
    <g id="xtick_5">
     <g id="line2d_5">
      <g>
       <use style="stroke:#000000;stroke-width:0.8;" x="456.376" xlink:href="#m375730cfbc" y="379.72"/>
      </g>
     </g>
     <g id="text_5">
      <!-- 1.8 -->
      <g transform="translate(447.629281 395.078281)scale(0.11 -0.11)">
       <defs>
        <path d="M 31.78125 34.625 
Q 24.75 34.625 20.71875 30.859375 
Q 16.703125 27.09375 16.703125 20.515625 
Q 16.703125 13.921875 20.71875 10.15625 
Q 24.75 6.390625 31.78125 6.390625 
Q 38.8125 6.390625 42.859375 10.171875 
Q 46.921875 13.96875 46.921875 20.515625 
Q 46.921875 27.09375 42.890625 30.859375 
Q 38.875 34.625 31.78125 34.625 
z
M 21.921875 38.8125 
Q 15.578125 40.375 12.03125 44.71875 
Q 8.5 49.078125 8.5 55.328125 
Q 8.5 64.0625 14.71875 69.140625 
Q 20.953125 74.21875 31.78125 74.21875 
Q 42.671875 74.21875 48.875 69.140625 
Q 55.078125 64.0625 55.078125 55.328125 
Q 55.078125 49.078125 51.53125 44.71875 
Q 48 40.375 41.703125 38.8125 
Q 48.828125 37.15625 52.796875 32.3125 
Q 56.78125 27.484375 56.78125 20.515625 
Q 56.78125 9.90625 50.3125 4.234375 
Q 43.84375 -1.421875 31.78125 -1.421875 
Q 19.734375 -1.421875 13.25 4.234375 
Q 6.78125 9.90625 6.78125 20.515625 
Q 6.78125 27.484375 10.78125 32.3125 
Q 14.796875 37.15625 21.921875 38.8125 
z
M 18.3125 54.390625 
Q 18.3125 48.734375 21.84375 45.5625 
Q 25.390625 42.390625 31.78125 42.390625 
Q 38.140625 42.390625 41.71875 45.5625 
Q 45.3125 48.734375 45.3125 54.390625 
Q 45.3125 60.0625 41.71875 63.234375 
Q 38.140625 66.40625 31.78125 66.40625 
Q 25.390625 66.40625 21.84375 63.234375 
Q 18.3125 60.0625 18.3125 54.390625 
z
" id="DejaVuSans-56"/>
       </defs>
       <use xlink:href="#DejaVuSans-49"/>
       <use x="63.623047" xlink:href="#DejaVuSans-46"/>
       <use x="95.410156" xlink:href="#DejaVuSans-56"/>
      </g>
     </g>
    </g>
    <g id="xtick_6">
     <g id="line2d_6">
      <g>
       <use style="stroke:#000000;stroke-width:0.8;" x="556.515" xlink:href="#m375730cfbc" y="379.72"/>
      </g>
     </g>
     <g id="text_6">
      <!-- 2.0 -->
      <g transform="translate(547.768281 395.078281)scale(0.11 -0.11)">
       <use xlink:href="#DejaVuSans-50"/>
       <use x="63.623047" xlink:href="#DejaVuSans-46"/>
       <use x="95.410156" xlink:href="#DejaVuSans-48"/>
      </g>
     </g>
    </g>
    <g id="text_7">
     <!-- Current $I$ -->
     <g transform="translate(275.2975 418.00375)scale(0.14 -0.14)">
      <defs>
       <path d="M 64.40625 67.28125 
L 64.40625 56.890625 
Q 59.421875 61.53125 53.78125 63.8125 
Q 48.140625 66.109375 41.796875 66.109375 
Q 29.296875 66.109375 22.65625 58.46875 
Q 16.015625 50.828125 16.015625 36.375 
Q 16.015625 21.96875 22.65625 14.328125 
Q 29.296875 6.6875 41.796875 6.6875 
Q 48.140625 6.6875 53.78125 8.984375 
Q 59.421875 11.28125 64.40625 15.921875 
L 64.40625 5.609375 
Q 59.234375 2.09375 53.4375 0.328125 
Q 47.65625 -1.421875 41.21875 -1.421875 
Q 24.65625 -1.421875 15.125 8.703125 
Q 5.609375 18.84375 5.609375 36.375 
Q 5.609375 53.953125 15.125 64.078125 
Q 24.65625 74.21875 41.21875 74.21875 
Q 47.75 74.21875 53.53125 72.484375 
Q 59.328125 70.75 64.40625 67.28125 
z
" id="DejaVuSans-67"/>
       <path d="M 8.5 21.578125 
L 8.5 54.6875 
L 17.484375 54.6875 
L 17.484375 21.921875 
Q 17.484375 14.15625 20.5 10.265625 
Q 23.53125 6.390625 29.59375 6.390625 
Q 36.859375 6.390625 41.078125 11.03125 
Q 45.3125 15.671875 45.3125 23.6875 
L 45.3125 54.6875 
L 54.296875 54.6875 
L 54.296875 0 
L 45.3125 0 
L 45.3125 8.40625 
Q 42.046875 3.421875 37.71875 1 
Q 33.40625 -1.421875 27.6875 -1.421875 
Q 18.265625 -1.421875 13.375 4.4375 
Q 8.5 10.296875 8.5 21.578125 
z
M 31.109375 56 
z
" id="DejaVuSans-117"/>
       <path d="M 41.109375 46.296875 
Q 39.59375 47.171875 37.8125 47.578125 
Q 36.03125 48 33.890625 48 
Q 26.265625 48 22.1875 43.046875 
Q 18.109375 38.09375 18.109375 28.8125 
L 18.109375 0 
L 9.078125 0 
L 9.078125 54.6875 
L 18.109375 54.6875 
L 18.109375 46.1875 
Q 20.953125 51.171875 25.484375 53.578125 
Q 30.03125 56 36.53125 56 
Q 37.453125 56 38.578125 55.875 
Q 39.703125 55.765625 41.0625 55.515625 
z
" id="DejaVuSans-114"/>
       <path d="M 56.203125 29.59375 
L 56.203125 25.203125 
L 14.890625 25.203125 
Q 15.484375 15.921875 20.484375 11.0625 
Q 25.484375 6.203125 34.421875 6.203125 
Q 39.59375 6.203125 44.453125 7.46875 
Q 49.3125 8.734375 54.109375 11.28125 
L 54.109375 2.78125 
Q 49.265625 0.734375 44.1875 -0.34375 
Q 39.109375 -1.421875 33.890625 -1.421875 
Q 20.796875 -1.421875 13.15625 6.1875 
Q 5.515625 13.8125 5.515625 26.8125 
Q 5.515625 40.234375 12.765625 48.109375 
Q 20.015625 56 32.328125 56 
Q 43.359375 56 49.78125 48.890625 
Q 56.203125 41.796875 56.203125 29.59375 
z
M 47.21875 32.234375 
Q 47.125 39.59375 43.09375 43.984375 
Q 39.0625 48.390625 32.421875 48.390625 
Q 24.90625 48.390625 20.390625 44.140625 
Q 15.875 39.890625 15.1875 32.171875 
z
" id="DejaVuSans-101"/>
       <path d="M 54.890625 33.015625 
L 54.890625 0 
L 45.90625 0 
L 45.90625 32.71875 
Q 45.90625 40.484375 42.875 44.328125 
Q 39.84375 48.1875 33.796875 48.1875 
Q 26.515625 48.1875 22.3125 43.546875 
Q 18.109375 38.921875 18.109375 30.90625 
L 18.109375 0 
L 9.078125 0 
L 9.078125 54.6875 
L 18.109375 54.6875 
L 18.109375 46.1875 
Q 21.34375 51.125 25.703125 53.5625 
Q 30.078125 56 35.796875 56 
Q 45.21875 56 50.046875 50.171875 
Q 54.890625 44.34375 54.890625 33.015625 
z
" id="DejaVuSans-110"/>
       <path d="M 18.3125 70.21875 
L 18.3125 54.6875 
L 36.8125 54.6875 
L 36.8125 47.703125 
L 18.3125 47.703125 
L 18.3125 18.015625 
Q 18.3125 11.328125 20.140625 9.421875 
Q 21.96875 7.515625 27.59375 7.515625 
L 36.8125 7.515625 
L 36.8125 0 
L 27.59375 0 
Q 17.1875 0 13.234375 3.875 
Q 9.28125 7.765625 9.28125 18.015625 
L 9.28125 47.703125 
L 2.6875 47.703125 
L 2.6875 54.6875 
L 9.28125 54.6875 
L 9.28125 70.21875 
z
" id="DejaVuSans-116"/>
       <path id="DejaVuSans-32"/>
       <path d="M 16.890625 72.90625 
L 26.8125 72.90625 
L 12.59375 0 
L 2.6875 0 
z
" id="DejaVuSans-Oblique-73"/>
      </defs>
      <use transform="translate(0 0.78125)" xlink:href="#DejaVuSans-67"/>
      <use transform="translate(69.824219 0.78125)" xlink:href="#DejaVuSans-117"/>
      <use transform="translate(133.203125 0.78125)" xlink:href="#DejaVuSans-114"/>
      <use transform="translate(174.316406 0.78125)" xlink:href="#DejaVuSans-114"/>
      <use transform="translate(215.429688 0.78125)" xlink:href="#DejaVuSans-101"/>
      <use transform="translate(276.953125 0.78125)" xlink:href="#DejaVuSans-110"/>
      <use transform="translate(340.332031 0.78125)" xlink:href="#DejaVuSans-116"/>
      <use transform="translate(379.541016 0.78125)" xlink:href="#DejaVuSans-32"/>
      <use transform="translate(411.328125 0.78125)" xlink:href="#DejaVuSans-Oblique-73"/>
     </g>
    </g>
   </g>
   <g id="matplotlib.axis_2">
    <g id="ytick_1">
     <g id="line2d_7">
      <defs>
       <path d="M 0 0 
L -3.5 0 
" id="m228b093e95" style="stroke:#000000;stroke-width:0.8;"/>
      </defs>
      <g>
       <use style="stroke:#000000;stroke-width:0.8;" x="55.82" xlink:href="#m228b093e95" y="364.221818"/>
      </g>
     </g>
     <g id="text_8">
      <!-- 0.0 -->
      <g transform="translate(31.326563 368.400959)scale(0.11 -0.11)">
       <use xlink:href="#DejaVuSans-48"/>
       <use x="63.623047" xlink:href="#DejaVuSans-46"/>
       <use x="95.410156" xlink:href="#DejaVuSans-48"/>
      </g>
     </g>
    </g>
    <g id="ytick_2">
     <g id="line2d_8">
      <g>
       <use style="stroke:#000000;stroke-width:0.8;" x="55.82" xlink:href="#m228b093e95" y="302.229091"/>
      </g>
     </g>
     <g id="text_9">
      <!-- 0.2 -->
      <g transform="translate(31.326563 306.408232)scale(0.11 -0.11)">
       <use xlink:href="#DejaVuSans-48"/>
       <use x="63.623047" xlink:href="#DejaVuSans-46"/>
       <use x="95.410156" xlink:href="#DejaVuSans-50"/>
      </g>
     </g>
    </g>
    <g id="ytick_3">
     <g id="line2d_9">
      <g>
       <use style="stroke:#000000;stroke-width:0.8;" x="55.82" xlink:href="#m228b093e95" y="240.236364"/>
      </g>
     </g>
     <g id="text_10">
      <!-- 0.4 -->
      <g transform="translate(31.326563 244.415504)scale(0.11 -0.11)">
       <use xlink:href="#DejaVuSans-48"/>
       <use x="63.623047" xlink:href="#DejaVuSans-46"/>
       <use x="95.410156" xlink:href="#DejaVuSans-52"/>
      </g>
     </g>
    </g>
    <g id="ytick_4">
     <g id="line2d_10">
      <g>
       <use style="stroke:#000000;stroke-width:0.8;" x="55.82" xlink:href="#m228b093e95" y="178.243636"/>
      </g>
     </g>
     <g id="text_11">
      <!-- 0.6 -->
      <g transform="translate(31.326563 182.422777)scale(0.11 -0.11)">
       <use xlink:href="#DejaVuSans-48"/>
       <use x="63.623047" xlink:href="#DejaVuSans-46"/>
       <use x="95.410156" xlink:href="#DejaVuSans-54"/>
      </g>
     </g>
    </g>
    <g id="ytick_5">
     <g id="line2d_11">
      <g>
       <use style="stroke:#000000;stroke-width:0.8;" x="55.82" xlink:href="#m228b093e95" y="116.250909"/>
      </g>
     </g>
     <g id="text_12">
      <!-- 0.8 -->
      <g transform="translate(31.326563 120.43005)scale(0.11 -0.11)">
       <use xlink:href="#DejaVuSans-48"/>
       <use x="63.623047" xlink:href="#DejaVuSans-46"/>
       <use x="95.410156" xlink:href="#DejaVuSans-56"/>
      </g>
     </g>
    </g>
    <g id="ytick_6">
     <g id="line2d_12">
      <g>
       <use style="stroke:#000000;stroke-width:0.8;" x="55.82" xlink:href="#m228b093e95" y="54.258182"/>
      </g>
     </g>
     <g id="text_13">
      <!-- 1.0 -->
      <g transform="translate(31.326563 58.437322)scale(0.11 -0.11)">
       <use xlink:href="#DejaVuSans-49"/>
       <use x="63.623047" xlink:href="#DejaVuSans-46"/>
       <use x="95.410156" xlink:href="#DejaVuSans-48"/>
      </g>
     </g>
    </g>
    <g id="text_14">
     <!-- Phase Difference $\phi$ -->
     <g transform="translate(24.386563 275.6)rotate(-90)scale(0.14 -0.14)">
      <defs>
       <path d="M 19.671875 64.796875 
L 19.671875 37.40625 
L 32.078125 37.40625 
Q 38.96875 37.40625 42.71875 40.96875 
Q 46.484375 44.53125 46.484375 51.125 
Q 46.484375 57.671875 42.71875 61.234375 
Q 38.96875 64.796875 32.078125 64.796875 
z
M 9.8125 72.90625 
L 32.078125 72.90625 
Q 44.34375 72.90625 50.609375 67.359375 
Q 56.890625 61.8125 56.890625 51.125 
Q 56.890625 40.328125 50.609375 34.8125 
Q 44.34375 29.296875 32.078125 29.296875 
L 19.671875 29.296875 
L 19.671875 0 
L 9.8125 0 
z
" id="DejaVuSans-80"/>
       <path d="M 54.890625 33.015625 
L 54.890625 0 
L 45.90625 0 
L 45.90625 32.71875 
Q 45.90625 40.484375 42.875 44.328125 
Q 39.84375 48.1875 33.796875 48.1875 
Q 26.515625 48.1875 22.3125 43.546875 
Q 18.109375 38.921875 18.109375 30.90625 
L 18.109375 0 
L 9.078125 0 
L 9.078125 75.984375 
L 18.109375 75.984375 
L 18.109375 46.1875 
Q 21.34375 51.125 25.703125 53.5625 
Q 30.078125 56 35.796875 56 
Q 45.21875 56 50.046875 50.171875 
Q 54.890625 44.34375 54.890625 33.015625 
z
" id="DejaVuSans-104"/>
       <path d="M 34.28125 27.484375 
Q 23.390625 27.484375 19.1875 25 
Q 14.984375 22.515625 14.984375 16.5 
Q 14.984375 11.71875 18.140625 8.90625 
Q 21.296875 6.109375 26.703125 6.109375 
Q 34.1875 6.109375 38.703125 11.40625 
Q 43.21875 16.703125 43.21875 25.484375 
L 43.21875 27.484375 
z
M 52.203125 31.203125 
L 52.203125 0 
L 43.21875 0 
L 43.21875 8.296875 
Q 40.140625 3.328125 35.546875 0.953125 
Q 30.953125 -1.421875 24.3125 -1.421875 
Q 15.921875 -1.421875 10.953125 3.296875 
Q 6 8.015625 6 15.921875 
Q 6 25.140625 12.171875 29.828125 
Q 18.359375 34.515625 30.609375 34.515625 
L 43.21875 34.515625 
L 43.21875 35.40625 
Q 43.21875 41.609375 39.140625 45 
Q 35.0625 48.390625 27.6875 48.390625 
Q 23 48.390625 18.546875 47.265625 
Q 14.109375 46.140625 10.015625 43.890625 
L 10.015625 52.203125 
Q 14.9375 54.109375 19.578125 55.046875 
Q 24.21875 56 28.609375 56 
Q 40.484375 56 46.34375 49.84375 
Q 52.203125 43.703125 52.203125 31.203125 
z
" id="DejaVuSans-97"/>
       <path d="M 44.28125 53.078125 
L 44.28125 44.578125 
Q 40.484375 46.53125 36.375 47.5 
Q 32.28125 48.484375 27.875 48.484375 
Q 21.1875 48.484375 17.84375 46.4375 
Q 14.5 44.390625 14.5 40.28125 
Q 14.5 37.15625 16.890625 35.375 
Q 19.28125 33.59375 26.515625 31.984375 
L 29.59375 31.296875 
Q 39.15625 29.25 43.1875 25.515625 
Q 47.21875 21.78125 47.21875 15.09375 
Q 47.21875 7.46875 41.1875 3.015625 
Q 35.15625 -1.421875 24.609375 -1.421875 
Q 20.21875 -1.421875 15.453125 -0.5625 
Q 10.6875 0.296875 5.421875 2 
L 5.421875 11.28125 
Q 10.40625 8.6875 15.234375 7.390625 
Q 20.0625 6.109375 24.8125 6.109375 
Q 31.15625 6.109375 34.5625 8.28125 
Q 37.984375 10.453125 37.984375 14.40625 
Q 37.984375 18.0625 35.515625 20.015625 
Q 33.0625 21.96875 24.703125 23.78125 
L 21.578125 24.515625 
Q 13.234375 26.265625 9.515625 29.90625 
Q 5.8125 33.546875 5.8125 39.890625 
Q 5.8125 47.609375 11.28125 51.796875 
Q 16.75 56 26.8125 56 
Q 31.78125 56 36.171875 55.265625 
Q 40.578125 54.546875 44.28125 53.078125 
z
" id="DejaVuSans-115"/>
       <path d="M 19.671875 64.796875 
L 19.671875 8.109375 
L 31.59375 8.109375 
Q 46.6875 8.109375 53.6875 14.9375 
Q 60.6875 21.78125 60.6875 36.53125 
Q 60.6875 51.171875 53.6875 57.984375 
Q 46.6875 64.796875 31.59375 64.796875 
z
M 9.8125 72.90625 
L 30.078125 72.90625 
Q 51.265625 72.90625 61.171875 64.09375 
Q 71.09375 55.28125 71.09375 36.53125 
Q 71.09375 17.671875 61.125 8.828125 
Q 51.171875 0 30.078125 0 
L 9.8125 0 
z
" id="DejaVuSans-68"/>
       <path d="M 9.421875 54.6875 
L 18.40625 54.6875 
L 18.40625 0 
L 9.421875 0 
z
M 9.421875 75.984375 
L 18.40625 75.984375 
L 18.40625 64.59375 
L 9.421875 64.59375 
z
" id="DejaVuSans-105"/>
       <path d="M 37.109375 75.984375 
L 37.109375 68.5 
L 28.515625 68.5 
Q 23.6875 68.5 21.796875 66.546875 
Q 19.921875 64.59375 19.921875 59.515625 
L 19.921875 54.6875 
L 34.71875 54.6875 
L 34.71875 47.703125 
L 19.921875 47.703125 
L 19.921875 0 
L 10.890625 0 
L 10.890625 47.703125 
L 2.296875 47.703125 
L 2.296875 54.6875 
L 10.890625 54.6875 
L 10.890625 58.5 
Q 10.890625 67.625 15.140625 71.796875 
Q 19.390625 75.984375 28.609375 75.984375 
z
" id="DejaVuSans-102"/>
       <path d="M 48.78125 52.59375 
L 48.78125 44.1875 
Q 44.96875 46.296875 41.140625 47.34375 
Q 37.3125 48.390625 33.40625 48.390625 
Q 24.65625 48.390625 19.8125 42.84375 
Q 14.984375 37.3125 14.984375 27.296875 
Q 14.984375 17.28125 19.8125 11.734375 
Q 24.65625 6.203125 33.40625 6.203125 
Q 37.3125 6.203125 41.140625 7.25 
Q 44.96875 8.296875 48.78125 10.40625 
L 48.78125 2.09375 
Q 45.015625 0.34375 40.984375 -0.53125 
Q 36.96875 -1.421875 32.421875 -1.421875 
Q 20.0625 -1.421875 12.78125 6.34375 
Q 5.515625 14.109375 5.515625 27.296875 
Q 5.515625 40.671875 12.859375 48.328125 
Q 20.21875 56 33.015625 56 
Q 37.15625 56 41.109375 55.140625 
Q 45.0625 54.296875 48.78125 52.59375 
z
" id="DejaVuSans-99"/>
       <path d="M 46.734375 75.984375 
L 42.78125 55.8125 
Q 52.546875 55.8125 57.5625 48.34375 
Q 62.75 40.71875 60.15625 27.296875 
Q 57.515625 13.875 49.359375 6.25 
Q 41.453125 -1.21875 31.6875 -1.21875 
L 27.875 -20.796875 
L 18.953125 -20.796875 
L 22.75 -1.21875 
Q 13.03125 -1.21875 7.953125 6.25 
Q 2.78125 13.875 5.421875 27.296875 
Q 8.015625 40.71875 16.15625 48.34375 
Q 24.125 55.8125 33.84375 55.8125 
L 37.796875 75.984375 
z
M 33.25 6.78125 
Q 38.765625 6.78125 43.5 11.8125 
Q 48.6875 17.4375 50.6875 27.296875 
Q 52.640625 37.0625 49.515625 42.78125 
Q 46.734375 47.796875 41.21875 47.796875 
z
M 24.3125 6.78125 
L 32.28125 47.796875 
Q 26.8125 47.796875 22.078125 42.78125 
Q 16.75 37.0625 14.890625 27.296875 
Q 13.03125 17.4375 16.0625 11.8125 
Q 18.796875 6.78125 24.3125 6.78125 
z
" id="DejaVuSans-Oblique-981"/>
      </defs>
      <use transform="translate(0 0.015625)" xlink:href="#DejaVuSans-80"/>
      <use transform="translate(60.302734 0.015625)" xlink:href="#DejaVuSans-104"/>
      <use transform="translate(123.681641 0.015625)" xlink:href="#DejaVuSans-97"/>
      <use transform="translate(184.960938 0.015625)" xlink:href="#DejaVuSans-115"/>
      <use transform="translate(237.060547 0.015625)" xlink:href="#DejaVuSans-101"/>
      <use transform="translate(298.583984 0.015625)" xlink:href="#DejaVuSans-32"/>
      <use transform="translate(330.371094 0.015625)" xlink:href="#DejaVuSans-68"/>
      <use transform="translate(407.373047 0.015625)" xlink:href="#DejaVuSans-105"/>
      <use transform="translate(435.15625 0.015625)" xlink:href="#DejaVuSans-102"/>
      <use transform="translate(470.361328 0.015625)" xlink:href="#DejaVuSans-102"/>
      <use transform="translate(505.566406 0.015625)" xlink:href="#DejaVuSans-101"/>
      <use transform="translate(567.089844 0.015625)" xlink:href="#DejaVuSans-114"/>
      <use transform="translate(608.203125 0.015625)" xlink:href="#DejaVuSans-101"/>
      <use transform="translate(669.726562 0.015625)" xlink:href="#DejaVuSans-110"/>
      <use transform="translate(733.105469 0.015625)" xlink:href="#DejaVuSans-99"/>
      <use transform="translate(788.085938 0.015625)" xlink:href="#DejaVuSans-101"/>
      <use transform="translate(849.609375 0.015625)" xlink:href="#DejaVuSans-32"/>
      <use transform="translate(881.396484 0.015625)" xlink:href="#DejaVuSans-Oblique-981"/>
     </g>
    </g>
   </g>
   <g id="line2d_13">
    <path clip-path="url(#pfce9853cd1)" d="M 556.515 209.24 
L 255.94704 209.24 
L 255.94704 209.24 
" style="fill:none;stroke:#000000;stroke-dasharray:5.55,2.4;stroke-dashoffset:0;stroke-width:1.5;"/>
   </g>
   <g id="line2d_14">
    <path clip-path="url(#pfce9853cd1)" d="M 254.429033 209.24 
L 59.157983 209.24 
L 59.157983 209.24 
" style="fill:none;stroke:#000000;stroke-linecap:square;stroke-width:1.5;"/>
   </g>
   <g id="line2d_15">
    <path clip-path="url(#pfce9853cd1)" d="M 254.429033 209.24 
L 254.429033 202.988994 
L 253.594525 195.218795 
L 252.760017 190.694163 
L 251.925558 187.311561 
L 251.09105 184.600092 
L 249.422083 178.575669 
L 247.753067 174.012664 
L 243.580625 164.716017 
L 241.911658 161.77034 
L 241.07715 160.400022 
L 239.408183 157.189201 
L 237.739167 154.560369 
L 236.904708 153.442981 
L 234.401233 149.45784 
L 232.732217 147.287258 
L 231.897758 146.237535 
L 230.228742 143.80274 
L 228.559775 141.793865 
L 227.725267 140.917443 
L 226.0563 138.663915 
L 224.387333 136.801746 
L 223.552825 136.013323 
L 221.883858 133.930398 
L 220.214842 132.209697 
L 219.380383 131.459275 
L 217.711367 129.530991 
L 216.0424 127.951075 
L 215.207892 127.188875 
L 213.538925 125.417743 
L 205.193992 117.938103 
L 204.359533 117.335131 
L 201.856058 115.141487 
L 200.187042 113.871907 
L 198.518075 112.466904 
L 196.849108 111.265392 
L 195.180092 109.900343 
L 193.511125 108.745109 
L 191.842158 107.432165 
L 190.173142 106.305199 
L 188.504175 105.056696 
L 186.835208 103.943028 
L 185.166192 102.771737 
L 184.331733 102.304219 
L 182.662717 101.079305 
L 180.159242 99.456025 
L 173.483325 95.321048 
L 172.648817 94.883163 
L 170.97985 93.819244 
L 170.145342 93.410402 
L 168.476375 92.359997 
L 166.807408 91.42961 
L 163.469425 89.55123 
L 161.800458 88.664889 
L 158.462475 86.877701 
L 157.627967 86.517244 
L 155.959 85.593646 
L 152.621017 83.922136 
L 149.283083 82.288844 
L 137.600167 76.953967 
L 125.082792 71.852059 
L 112.565417 67.323335 
L 95.8756 62.199605 
L 86.696208 59.76171 
L 73.344325 56.820837 
L 64.999392 55.350959 
L 59.157983 54.575306 
L 59.157983 54.575306 
" style="fill:none;stroke:#aa3863;stroke-dasharray:5.55,2.4;stroke-dashoffset:0;stroke-width:1.5;"/>
   </g>
   <g id="line2d_16">
    <path clip-path="url(#pfce9853cd1)" d="M 254.429033 209.24 
L 254.429033 215.491006 
L 253.594525 223.261205 
L 252.760017 227.785837 
L 251.925558 231.168439 
L 251.09105 233.879908 
L 249.422083 239.904331 
L 247.753067 244.467336 
L 243.580625 253.763983 
L 241.911658 256.70966 
L 241.07715 258.079978 
L 239.408183 261.290799 
L 237.739167 263.919631 
L 236.904708 265.037019 
L 234.401233 269.02216 
L 232.732217 271.192742 
L 231.897758 272.242465 
L 230.228742 274.67726 
L 228.559775 276.686135 
L 227.725267 277.562557 
L 226.0563 279.816085 
L 224.387333 281.678254 
L 223.552825 282.466677 
L 221.883858 284.549602 
L 220.214842 286.270303 
L 219.380383 287.020725 
L 217.711367 288.949009 
L 216.0424 290.528925 
L 215.207892 291.291125 
L 213.538925 293.062257 
L 205.193992 300.541897 
L 204.359533 301.144869 
L 201.856058 303.338513 
L 200.187042 304.608093 
L 198.518075 306.013096 
L 196.849108 307.214608 
L 195.180092 308.579657 
L 193.511125 309.734891 
L 191.842158 311.047835 
L 190.173142 312.174801 
L 188.504175 313.423304 
L 186.835208 314.536972 
L 185.166192 315.708263 
L 184.331733 316.175781 
L 182.662717 317.400695 
L 180.159242 319.023975 
L 173.483325 323.158952 
L 172.648817 323.596837 
L 170.97985 324.660756 
L 170.145342 325.069598 
L 168.476375 326.120003 
L 166.807408 327.05039 
L 163.469425 328.92877 
L 161.800458 329.815111 
L 158.462475 331.602299 
L 157.627967 331.962756 
L 155.959 332.886354 
L 152.621017 334.557864 
L 149.283083 336.191156 
L 137.600167 341.526033 
L 125.082792 346.627941 
L 112.565417 351.156665 
L 95.8756 356.280395 
L 86.696208 358.71829 
L 73.344325 361.659163 
L 64.999392 363.129041 
L 59.157983 363.904694 
L 59.157983 363.904694 
" style="fill:none;stroke:#aa3863;stroke-dasharray:5.55,2.4;stroke-dashoffset:0;stroke-width:1.5;"/>
   </g>
   <g id="line2d_17">
    <path clip-path="url(#pfce9853cd1)" d="M 556.515 209.24 
L 245.98346 209.24 
L 245.98346 209.24 
" style="fill:none;stroke:#000000;stroke-dasharray:5.55,2.4;stroke-dashoffset:0;stroke-width:1.5;"/>
   </g>
   <g id="line2d_18">
    <path clip-path="url(#pfce9853cd1)" d="M 244.415133 209.24 
L 56.654508 209.24 
L 56.654508 209.24 
" style="fill:none;stroke:#000000;stroke-linecap:square;stroke-width:1.5;"/>
   </g>
   <g id="line2d_19">
    <path clip-path="url(#pfce9853cd1)" d="M 244.415133 209.24 
L 244.415133 203.142085 
L 243.580625 196.170104 
L 242.746117 190.737682 
L 241.911658 186.813294 
L 241.07715 183.697075 
L 240.242642 181.122734 
L 238.573675 176.603092 
L 236.904708 172.033763 
L 235.235692 168.525997 
L 234.401233 167.059218 
L 232.732217 163.372356 
L 231.06325 160.431514 
L 230.228742 159.203748 
L 227.725267 154.841661 
L 222.718317 147.6625 
L 221.04935 145.590393 
L 219.380383 143.299018 
L 214.373433 137.460729 
L 213.538925 136.681573 
L 211.869958 134.660052 
L 207.697467 130.351186 
L 199.352583 122.644777 
L 190.173142 115.009474 
L 188.504175 113.799221 
L 186.835208 112.481007 
L 185.166192 111.286748 
L 183.497225 110.062051 
L 182.662717 109.548999 
L 180.99375 108.273623 
L 179.324783 107.177282 
L 177.655767 106.017894 
L 176.821308 105.536582 
L 175.152292 104.350723 
L 173.483325 103.302612 
L 170.145342 101.178679 
L 157.627967 93.956434 
L 153.455525 91.75814 
L 146.779608 88.407465 
L 141.772658 86.091881 
L 139.269183 84.913399 
L 130.089742 80.972553 
L 123.413825 78.352678 
L 120.075842 77.086663 
L 110.89645 73.844598 
L 96.710108 69.414257 
L 87.530667 66.872834 
L 82.523717 65.570584 
L 82.523717 65.570584 
" style="fill:none;stroke:#d97020;stroke-dasharray:5.55,2.4;stroke-dashoffset:0;stroke-width:1.5;"/>
   </g>
   <g id="line2d_20">
    <path clip-path="url(#pfce9853cd1)" d="M 244.415133 209.24 
L 244.415133 215.337915 
L 243.580625 222.309896 
L 242.746117 227.742318 
L 241.911658 231.666706 
L 241.07715 234.782925 
L 240.242642 237.357266 
L 238.573675 241.876908 
L 236.904708 246.446237 
L 235.235692 249.954003 
L 234.401233 251.420782 
L 232.732217 255.107644 
L 231.06325 258.048486 
L 230.228742 259.276252 
L 227.725267 263.638339 
L 222.718317 270.8175 
L 221.04935 272.889607 
L 219.380383 275.180982 
L 214.373433 281.019271 
L 213.538925 281.798427 
L 211.869958 283.819948 
L 207.697467 288.128814 
L 199.352583 295.835223 
L 190.173142 303.470526 
L 188.504175 304.680779 
L 186.835208 305.998993 
L 185.166192 307.193252 
L 183.497225 308.417949 
L 182.662717 308.931001 
L 180.99375 310.206377 
L 179.324783 311.302718 
L 177.655767 312.462106 
L 176.821308 312.943418 
L 175.152292 314.129277 
L 173.483325 315.177388 
L 170.145342 317.301321 
L 157.627967 324.523566 
L 153.455525 326.72186 
L 146.779608 330.072535 
L 141.772658 332.388119 
L 139.269183 333.566601 
L 130.089742 337.507447 
L 123.413825 340.127322 
L 120.075842 341.393337 
L 110.89645 344.635402 
L 96.710108 349.065743 
L 87.530667 351.607166 
L 82.523717 352.909416 
L 82.523717 352.909416 
" style="fill:none;stroke:#d97020;stroke-dasharray:5.55,2.4;stroke-dashoffset:0;stroke-width:1.5;"/>
   </g>
   <g id="line2d_21">
    <path clip-path="url(#pfce9853cd1)" d="M 556.515 209.24 
L 230.207813 209.24 
L 230.207813 209.24 
" style="fill:none;stroke:#000000;stroke-dasharray:5.55,2.4;stroke-dashoffset:0;stroke-width:1.5;"/>
   </g>
   <g id="line2d_22">
    <path clip-path="url(#pfce9853cd1)" d="M 228.559775 209.24 
L 58.323475 209.24 
L 58.323475 209.24 
" style="fill:none;stroke:#000000;stroke-linecap:square;stroke-width:1.5;"/>
   </g>
   <g id="line2d_23">
    <path clip-path="url(#pfce9853cd1)" d="M 228.559775 209.24 
L 228.559775 199.554411 
L 227.725267 193.324762 
L 226.890808 188.905239 
L 226.0563 185.559026 
L 225.221792 182.876787 
L 223.552825 178.183131 
L 222.718317 175.715356 
L 221.04935 171.778973 
L 220.214842 170.21409 
L 217.711367 164.864211 
L 213.538925 157.691249 
L 211.03545 153.956808 
L 209.366483 151.506607 
L 207.697467 149.365564 
L 206.0285 147.015823 
L 203.525025 143.963952 
L 201.856058 141.956689 
L 201.02155 141.12983 
L 198.518075 138.177117 
L 196.849108 136.471046 
L 195.180092 134.6435 
L 193.511125 133.0457 
L 191.842158 131.318768 
L 190.173142 129.79601 
L 188.504175 128.177318 
L 187.669667 127.513438 
L 185.166192 125.201574 
L 184.331733 124.586947 
L 182.662717 123.024513 
L 180.159242 120.955723 
L 174.317833 116.371702 
L 165.9729 110.376354 
L 164.303933 109.275456 
L 160.96595 107.049143 
L 159.296983 105.997839 
L 155.959 103.907692 
L 153.455525 102.407871 
L 145.110592 97.624233 
L 134.262233 91.965506 
L 131.758758 90.780701 
L 129.255283 89.547387 
L 125.082792 87.627286 
L 118.406875 84.681175 
L 113.399925 82.570942 
L 105.8895 79.575578 
L 94.206633 75.249384 
L 94.206633 75.249384 
" style="fill:none;stroke:#ef9f07;stroke-dasharray:5.55,2.4;stroke-dashoffset:0;stroke-width:1.5;"/>
   </g>
   <g id="line2d_24">
    <path clip-path="url(#pfce9853cd1)" d="M 228.559775 209.24 
L 228.559775 218.925589 
L 227.725267 225.155238 
L 226.890808 229.574761 
L 226.0563 232.920974 
L 225.221792 235.603213 
L 223.552825 240.296869 
L 222.718317 242.764644 
L 221.04935 246.701027 
L 220.214842 248.26591 
L 217.711367 253.615789 
L 213.538925 260.788751 
L 211.03545 264.523192 
L 209.366483 266.973393 
L 207.697467 269.114436 
L 206.0285 271.464177 
L 203.525025 274.516048 
L 201.856058 276.523311 
L 201.02155 277.35017 
L 198.518075 280.302883 
L 196.849108 282.008954 
L 195.180092 283.8365 
L 193.511125 285.4343 
L 191.842158 287.161232 
L 190.173142 288.68399 
L 188.504175 290.302682 
L 187.669667 290.966562 
L 185.166192 293.278426 
L 184.331733 293.893053 
L 182.662717 295.455487 
L 180.159242 297.524277 
L 174.317833 302.108298 
L 165.9729 308.103646 
L 164.303933 309.204544 
L 160.96595 311.430857 
L 159.296983 312.482161 
L 155.959 314.572308 
L 153.455525 316.072129 
L 145.110592 320.855767 
L 134.262233 326.514494 
L 131.758758 327.699299 
L 129.255283 328.932613 
L 125.082792 330.852714 
L 118.406875 333.798825 
L 113.399925 335.909058 
L 105.8895 338.904422 
L 94.206633 343.230616 
L 94.206633 343.230616 
" style="fill:none;stroke:#ef9f07;stroke-dasharray:5.55,2.4;stroke-dashoffset:0;stroke-width:1.5;"/>
   </g>
   <g id="line2d_25">
    <path clip-path="url(#pfce9853cd1)" d="M 556.515 209.24 
L 213.601862 209.24 
L 213.601862 209.24 
" style="fill:none;stroke:#000000;stroke-dasharray:5.55,2.4;stroke-dashoffset:0;stroke-width:1.5;"/>
   </g>
   <g id="line2d_26">
    <path clip-path="url(#pfce9853cd1)" d="M 211.869958 209.24 
L 59.992442 209.24 
L 59.992442 209.24 
" style="fill:none;stroke:#000000;stroke-linecap:square;stroke-width:1.5;"/>
   </g>
   <g id="line2d_27">
    <path clip-path="url(#pfce9853cd1)" d="M 211.869958 209.24 
L 211.869958 198.065842 
L 211.03545 193.134413 
L 208.531975 183.426011 
L 207.697467 180.79845 
L 206.863008 178.650433 
L 206.0285 176.888227 
L 204.359533 172.52239 
L 203.525025 170.756682 
L 201.856058 167.674775 
L 200.187042 164.33095 
L 197.683567 160.181745 
L 196.0146 157.587443 
L 195.180092 156.56605 
L 193.511125 153.851172 
L 189.338683 148.365281 
L 188.504175 147.486317 
L 186.835208 145.236787 
L 184.331733 142.35583 
L 180.99375 138.685271 
L 174.317833 132.03029 
L 173.483325 131.347564 
L 171.814358 129.683121 
L 170.97985 129.02138 
L 169.310883 127.434397 
L 167.641867 126.033578 
L 165.9729 124.614472 
L 159.296983 119.192743 
L 155.959 116.730547 
L 154.290033 115.446987 
L 153.455525 114.909851 
L 151.786558 113.664727 
L 142.607117 107.464401 
L 138.434675 104.808725 
L 125.082792 97.018812 
L 110.89645 89.632472 
L 105.8895 87.183356 
L 98.379075 83.677543 
L 98.379075 83.677543 
" style="fill:none;stroke:#449775;stroke-dasharray:5.55,2.4;stroke-dashoffset:0;stroke-width:1.5;"/>
   </g>
   <g id="line2d_28">
    <path clip-path="url(#pfce9853cd1)" d="M 211.869958 209.24 
L 211.869958 220.414158 
L 211.03545 225.345587 
L 208.531975 235.053989 
L 207.697467 237.68155 
L 206.863008 239.829567 
L 206.0285 241.591773 
L 204.359533 245.95761 
L 203.525025 247.723318 
L 201.856058 250.805225 
L 200.187042 254.14905 
L 197.683567 258.298255 
L 196.0146 260.892557 
L 195.180092 261.91395 
L 193.511125 264.628828 
L 189.338683 270.114719 
L 188.504175 270.993683 
L 186.835208 273.243213 
L 184.331733 276.12417 
L 180.99375 279.794729 
L 174.317833 286.44971 
L 173.483325 287.132436 
L 171.814358 288.796879 
L 170.97985 289.45862 
L 169.310883 291.045603 
L 167.641867 292.446422 
L 165.9729 293.865528 
L 159.296983 299.287257 
L 155.959 301.749453 
L 154.290033 303.033013 
L 153.455525 303.570149 
L 151.786558 304.815273 
L 142.607117 311.015599 
L 138.434675 313.671275 
L 125.082792 321.461188 
L 110.89645 328.847528 
L 105.8895 331.296644 
L 98.379075 334.802457 
L 98.379075 334.802457 
" style="fill:none;stroke:#449775;stroke-dasharray:5.55,2.4;stroke-dashoffset:0;stroke-width:1.5;"/>
   </g>
   <g id="line2d_29">
    <path clip-path="url(#pfce9853cd1)" d="M 556.515 209.24 
L 201.147375 209.24 
L 201.147375 209.24 
" style="fill:none;stroke:#000000;stroke-dasharray:5.55,2.4;stroke-dashoffset:0;stroke-width:1.5;"/>
   </g>
   <g id="line2d_30">
    <path clip-path="url(#pfce9853cd1)" d="M 199.352583 209.24 
L 60.82695 209.24 
L 60.82695 209.24 
" style="fill:none;stroke:#000000;stroke-linecap:square;stroke-width:1.5;"/>
   </g>
   <g id="line2d_31">
    <path clip-path="url(#pfce9853cd1)" d="M 199.352583 209.24 
L 199.352583 200.095174 
L 198.518075 194.023358 
L 197.683567 189.794772 
L 196.849108 186.737911 
L 196.0146 184.417895 
L 195.180092 181.84808 
L 194.345633 179.261805 
L 193.511125 177.168125 
L 192.676617 175.476002 
L 191.842158 173.625891 
L 191.00765 171.606943 
L 190.173142 169.924987 
L 189.338683 168.541496 
L 188.504175 166.983215 
L 187.669667 165.297044 
L 186.835208 163.878558 
L 186.0007 162.704105 
L 185.166192 161.264727 
L 184.331733 159.820948 
L 183.497225 158.603008 
L 182.662717 157.59668 
L 181.828258 156.183679 
L 180.99375 154.936882 
L 180.159242 153.888988 
L 179.324783 152.850485 
L 178.490275 151.587818 
L 177.655767 150.514072 
L 176.821308 149.618959 
L 175.9868 148.476867 
L 175.152292 147.390259 
L 174.317833 146.47413 
L 173.483325 145.548703 
L 172.648817 144.46008 
L 171.814358 143.535799 
L 170.97985 142.763308 
L 170.145342 141.684355 
L 169.310883 140.763174 
L 168.476375 139.994589 
L 167.641867 139.03398 
L 166.807408 138.12588 
L 165.9729 137.364423 
L 165.138392 136.487753 
L 164.303933 135.601846 
L 163.469425 134.85753 
L 162.634917 134.032283 
L 161.800458 133.176566 
L 160.96595 132.458443 
L 160.131442 131.658117 
L 159.296983 130.839751 
L 158.462475 130.155475 
L 157.627967 129.360015 
L 156.793508 128.586222 
L 155.959 127.942768 
L 155.124492 127.135282 
L 154.290033 126.412354 
L 153.455525 125.776681 
L 152.621017 124.98429 
L 151.786558 124.317558 
L 150.95205 123.636072 
L 150.117542 122.908897 
L 149.283083 122.304406 
L 148.448575 121.569668 
L 147.614067 120.911956 
L 146.779608 120.284652 
L 145.9451 119.582646 
L 145.110592 118.999543 
L 144.276133 118.302155 
L 143.441625 117.681143 
L 142.607117 117.059542 
L 141.772658 116.407937 
L 140.93815 115.846035 
L 140.103642 115.170748 
L 139.269183 114.610644 
L 138.434675 113.962169 
L 137.600167 113.383931 
L 136.765708 112.776372 
L 135.9312 112.186201 
L 135.096692 111.60908 
L 134.262233 111.01302 
L 133.427725 110.457751 
L 132.593217 109.861164 
L 131.758758 109.319688 
L 130.92425 108.727875 
L 130.089742 108.193714 
L 129.255283 107.612037 
L 128.420775 107.080728 
L 127.586267 106.513649 
L 126.751808 105.979985 
L 125.9173 105.432372 
L 125.082792 104.893655 
L 124.248333 104.370065 
L 123.413825 103.822762 
L 122.579317 103.327812 
L 121.744858 102.770467 
L 120.91035 102.272603 
L 120.075842 101.738815 
L 119.241383 101.224554 
L 118.406875 100.731495 
L 117.572367 100.200186 
L 116.737908 99.710908 
L 115.9034 99.20387 
L 115.068892 98.694786 
L 114.234433 98.217597 
L 113.399925 97.712201 
L 112.565417 97.214089 
L 111.730958 96.740372 
L 110.89645 96.251094 
L 110.061942 95.756702 
L 109.227483 95.281745 
L 108.392975 94.821542 
L 107.558467 94.327646 
L 106.724008 93.848504 
L 105.8895 93.381172 
L 105.054992 92.923046 
L 104.220533 92.452986 
L 103.386025 91.979548 
L 102.551517 91.513579 
L 101.717058 91.053562 
L 100.88255 90.59773 
L 100.048042 90.144935 
L 99.213583 89.694217 
L 98.379075 89.242166 
" style="fill:none;stroke:#3b7d86;stroke-dasharray:5.55,2.4;stroke-dashoffset:0;stroke-width:1.5;"/>
   </g>
   <g id="line2d_32">
    <path clip-path="url(#pfce9853cd1)" d="M 199.352583 209.24 
L 199.352583 218.384826 
L 198.518075 224.456642 
L 197.683567 228.685228 
L 196.849108 231.742089 
L 196.0146 234.062105 
L 195.180092 236.63192 
L 194.345633 239.218195 
L 193.511125 241.311875 
L 192.676617 243.003998 
L 191.842158 244.854109 
L 191.00765 246.873057 
L 190.173142 248.555013 
L 189.338683 249.938504 
L 188.504175 251.496785 
L 187.669667 253.182956 
L 186.835208 254.601442 
L 186.0007 255.775895 
L 185.166192 257.215273 
L 184.331733 258.659052 
L 183.497225 259.876992 
L 182.662717 260.88332 
L 181.828258 262.296321 
L 180.99375 263.543118 
L 180.159242 264.591012 
L 179.324783 265.629515 
L 178.490275 266.892182 
L 177.655767 267.965928 
L 176.821308 268.861041 
L 175.9868 270.003133 
L 175.152292 271.089741 
L 174.317833 272.00587 
L 173.483325 272.931297 
L 172.648817 274.01992 
L 171.814358 274.944201 
L 170.97985 275.716692 
L 170.145342 276.795645 
L 169.310883 277.716826 
L 168.476375 278.485411 
L 167.641867 279.44602 
L 166.807408 280.35412 
L 165.9729 281.115577 
L 165.138392 281.992247 
L 164.303933 282.878154 
L 163.469425 283.62247 
L 162.634917 284.447717 
L 161.800458 285.303434 
L 160.96595 286.021557 
L 160.131442 286.821883 
L 159.296983 287.640249 
L 158.462475 288.324525 
L 157.627967 289.119985 
L 156.793508 289.893778 
L 155.959 290.537232 
L 155.124492 291.344718 
L 154.290033 292.067646 
L 153.455525 292.703319 
L 152.621017 293.49571 
L 151.786558 294.162442 
L 150.95205 294.843928 
L 150.117542 295.571103 
L 149.283083 296.175594 
L 148.448575 296.910332 
L 147.614067 297.568044 
L 146.779608 298.195348 
L 145.9451 298.897354 
L 145.110592 299.480457 
L 144.276133 300.177845 
L 143.441625 300.798857 
L 142.607117 301.420458 
L 141.772658 302.072063 
L 140.93815 302.633965 
L 140.103642 303.309252 
L 139.269183 303.869356 
L 138.434675 304.517831 
L 137.600167 305.096069 
L 136.765708 305.703628 
L 135.9312 306.293799 
L 135.096692 306.87092 
L 134.262233 307.46698 
L 133.427725 308.022249 
L 132.593217 308.618836 
L 131.758758 309.160312 
L 130.92425 309.752125 
L 130.089742 310.286286 
L 129.255283 310.867963 
L 128.420775 311.399272 
L 127.586267 311.966351 
L 126.751808 312.500015 
L 125.9173 313.047628 
L 125.082792 313.586345 
L 124.248333 314.109935 
L 123.413825 314.657238 
L 122.579317 315.152188 
L 121.744858 315.709533 
L 120.91035 316.207397 
L 120.075842 316.741185 
L 119.241383 317.255446 
L 118.406875 317.748505 
L 117.572367 318.279814 
L 116.737908 318.769092 
L 115.9034 319.27613 
L 115.068892 319.785214 
L 114.234433 320.262403 
L 113.399925 320.767799 
L 112.565417 321.265911 
L 111.730958 321.739628 
L 110.89645 322.228906 
L 110.061942 322.723298 
L 109.227483 323.198255 
L 108.392975 323.658458 
L 107.558467 324.152354 
L 106.724008 324.631496 
L 105.8895 325.098828 
L 105.054992 325.556954 
L 104.220533 326.027014 
L 103.386025 326.500452 
L 102.551517 326.966421 
L 101.717058 327.426438 
L 100.88255 327.88227 
L 100.048042 328.335065 
L 99.213583 328.785783 
L 98.379075 329.237834 
" style="fill:none;stroke:#3b7d86;stroke-dasharray:5.55,2.4;stroke-dashoffset:0;stroke-width:1.5;"/>
   </g>
   <g id="line2d_33">
    <path clip-path="url(#pfce9853cd1)" d="M 556.515 364.221818 
L 546.5011 364.221818 
L 541.49415 364.221818 
L 536.4872 364.221818 
L 531.48025 364.221818 
L 526.4733 364.221818 
L 521.46635 364.221818 
L 516.4594 364.221818 
L 511.45245 364.221818 
L 506.4455 364.221818 
L 501.43855 364.221818 
L 496.4316 364.221818 
L 491.42465 364.221818 
L 486.4177 364.221818 
L 481.41075 364.221818 
L 476.4038 364.221818 
L 471.39685 364.221818 
L 466.3899 364.221818 
L 461.38295 364.221818 
L 456.376 364.221818 
L 451.36905 364.221818 
L 446.3621 364.221818 
L 441.35515 364.221818 
L 436.3482 364.221818 
L 431.34125 364.221818 
L 426.3343 364.221818 
L 421.32735 364.221818 
L 416.3204 364.221818 
L 411.31345 364.221818 
L 406.3065 364.221818 
L 401.29955 364.221818 
L 396.2926 364.221818 
L 391.28565 364.221818 
L 386.2787 364.221818 
L 381.27175 364.221818 
L 376.2648 364.221818 
L 371.25785 364.221818 
L 366.2509 364.221818 
L 361.24395 364.221818 
L 356.237 364.221818 
L 351.23005 364.221818 
L 346.2231 364.221818 
L 341.21615 364.221818 
L 336.2092 364.221818 
L 331.20225 364.221818 
L 326.1953 364.221818 
L 321.18835 364.221818 
L 316.1814 364.221818 
L 311.17445 364.221818 
L 306.1675 364.221818 
L 301.16055 364.221818 
L 296.1536 364.221818 
L 291.14665 364.221818 
L 286.1397 364.221818 
L 281.13275 364.221818 
L 276.1258 364.221818 
L 271.11885 364.221818 
L 266.1119 364.221818 
L 261.10495 364.221818 
L 256.098 364.221818 
L 251.09105 364.221818 
L 246.0841 364.221818 
L 241.07715 364.221818 
L 236.0702 364.221818 
L 231.06325 364.221818 
L 226.0563 364.221818 
L 221.04935 364.221818 
L 216.0424 364.221818 
L 211.03545 364.221818 
L 206.0285 364.221818 
L 201.02155 364.221818 
L 196.0146 364.221818 
L 191.00765 364.221818 
L 186.0007 364.221818 
L 180.99375 364.221818 
L 175.9868 364.221818 
L 170.97985 364.221818 
L 165.9729 364.221818 
L 160.96595 364.221818 
L 155.959 364.221818 
L 150.95205 364.221818 
L 145.9451 364.221818 
L 140.93815 364.221818 
L 135.9312 364.221818 
L 130.92425 364.221818 
L 125.9173 364.221818 
L 120.91035 364.221818 
L 115.9034 364.221818 
L 110.89645 364.221818 
L 105.8895 364.221818 
L 100.88255 364.221818 
L 95.8756 364.221818 
L 90.86865 364.221818 
L 85.8617 364.221818 
L 80.85475 364.221818 
L 75.8478 364.221818 
L 70.84085 364.221818 
L 65.8339 364.221818 
L 60.82695 364.221818 
L 55.82 364.221818 
" style="fill:none;stroke:#000000;stroke-linecap:square;stroke-width:1.5;"/>
   </g>
   <g id="line2d_34">
    <path clip-path="url(#pfce9853cd1)" d="M 556.515 54.258182 
L 546.5011 54.258182 
L 541.49415 54.258182 
L 536.4872 54.258182 
L 531.48025 54.258182 
L 526.4733 54.258182 
L 521.46635 54.258182 
L 516.4594 54.258182 
L 511.45245 54.258182 
L 506.4455 54.258182 
L 501.43855 54.258182 
L 496.4316 54.258182 
L 491.42465 54.258182 
L 486.4177 54.258182 
L 481.41075 54.258182 
L 476.4038 54.258182 
L 471.39685 54.258182 
L 466.3899 54.258182 
L 461.38295 54.258182 
L 456.376 54.258182 
L 451.36905 54.258182 
L 446.3621 54.258182 
L 441.35515 54.258182 
L 436.3482 54.258182 
L 431.34125 54.258182 
L 426.3343 54.258182 
L 421.32735 54.258182 
L 416.3204 54.258182 
L 411.31345 54.258182 
L 406.3065 54.258182 
L 401.29955 54.258182 
L 396.2926 54.258182 
L 391.28565 54.258182 
L 386.2787 54.258182 
L 381.27175 54.258182 
L 376.2648 54.258182 
L 371.25785 54.258182 
L 366.2509 54.258182 
L 361.24395 54.258182 
L 356.237 54.258182 
L 351.23005 54.258182 
L 346.2231 54.258182 
L 341.21615 54.258182 
L 336.2092 54.258182 
L 331.20225 54.258182 
L 326.1953 54.258182 
L 321.18835 54.258182 
L 316.1814 54.258182 
L 311.17445 54.258182 
L 306.1675 54.258182 
L 301.16055 54.258182 
L 296.1536 54.258182 
L 291.14665 54.258182 
L 286.1397 54.258182 
L 281.13275 54.258182 
L 276.1258 54.258182 
L 271.11885 54.258182 
L 266.1119 54.258182 
L 261.10495 54.258182 
L 256.098 54.258182 
L 251.09105 54.258182 
L 246.0841 54.258182 
L 241.07715 54.258182 
L 236.0702 54.258182 
L 231.06325 54.258182 
L 226.0563 54.258182 
L 221.04935 54.258182 
L 216.0424 54.258182 
L 211.03545 54.258182 
L 206.0285 54.258182 
L 201.02155 54.258182 
L 196.0146 54.258182 
L 191.00765 54.258182 
L 186.0007 54.258182 
L 180.99375 54.258182 
L 175.9868 54.258182 
L 170.97985 54.258182 
L 165.9729 54.258182 
L 160.96595 54.258182 
L 155.959 54.258182 
L 150.95205 54.258182 
L 145.9451 54.258182 
L 140.93815 54.258182 
L 135.9312 54.258182 
L 130.92425 54.258182 
L 125.9173 54.258182 
L 120.91035 54.258182 
L 115.9034 54.258182 
L 110.89645 54.258182 
L 105.8895 54.258182 
L 100.88255 54.258182 
L 95.8756 54.258182 
L 90.86865 54.258182 
L 85.8617 54.258182 
L 80.85475 54.258182 
L 75.8478 54.258182 
L 70.84085 54.258182 
L 65.8339 54.258182 
L 60.82695 54.258182 
L 55.82 54.258182 
" style="fill:none;stroke:#000000;stroke-linecap:square;stroke-width:1.5;"/>
   </g>
   <g id="patch_3">
    <path d="M 55.82 379.72 
L 55.82 38.76 
" style="fill:none;stroke:#000000;stroke-linecap:square;stroke-linejoin:miter;stroke-width:0.8;"/>
   </g>
   <g id="patch_4">
    <path d="M 556.515 379.72 
L 556.515 38.76 
" style="fill:none;stroke:#000000;stroke-linecap:square;stroke-linejoin:miter;stroke-width:0.8;"/>
   </g>
   <g id="patch_5">
    <path d="M 55.82 379.72 
L 556.515 379.72 
" style="fill:none;stroke:#000000;stroke-linecap:square;stroke-linejoin:miter;stroke-width:0.8;"/>
   </g>
   <g id="patch_6">
    <path d="M 55.82 38.76 
L 556.515 38.76 
" style="fill:none;stroke:#000000;stroke-linecap:square;stroke-linejoin:miter;stroke-width:0.8;"/>
   </g>
   <g id="text_15">
    <!-- Bifurcation diagram for two coupled neurons, $\gamma=0.4, \beta=0.1, \alpha=2$ -->
    <g transform="translate(38.4875 23.76)scale(0.16 -0.16)">
     <defs>
      <path d="M 19.671875 34.8125 
L 19.671875 8.109375 
L 35.5 8.109375 
Q 43.453125 8.109375 47.28125 11.40625 
Q 51.125 14.703125 51.125 21.484375 
Q 51.125 28.328125 47.28125 31.5625 
Q 43.453125 34.8125 35.5 34.8125 
z
M 19.671875 64.796875 
L 19.671875 42.828125 
L 34.28125 42.828125 
Q 41.5 42.828125 45.03125 45.53125 
Q 48.578125 48.25 48.578125 53.8125 
Q 48.578125 59.328125 45.03125 62.0625 
Q 41.5 64.796875 34.28125 64.796875 
z
M 9.8125 72.90625 
L 35.015625 72.90625 
Q 46.296875 72.90625 52.390625 68.21875 
Q 58.5 63.53125 58.5 54.890625 
Q 58.5 48.1875 55.375 44.234375 
Q 52.25 40.28125 46.1875 39.3125 
Q 53.46875 37.75 57.5 32.78125 
Q 61.53125 27.828125 61.53125 20.40625 
Q 61.53125 10.640625 54.890625 5.3125 
Q 48.25 0 35.984375 0 
L 9.8125 0 
z
" id="DejaVuSans-66"/>
      <path d="M 30.609375 48.390625 
Q 23.390625 48.390625 19.1875 42.75 
Q 14.984375 37.109375 14.984375 27.296875 
Q 14.984375 17.484375 19.15625 11.84375 
Q 23.34375 6.203125 30.609375 6.203125 
Q 37.796875 6.203125 41.984375 11.859375 
Q 46.1875 17.53125 46.1875 27.296875 
Q 46.1875 37.015625 41.984375 42.703125 
Q 37.796875 48.390625 30.609375 48.390625 
z
M 30.609375 56 
Q 42.328125 56 49.015625 48.375 
Q 55.71875 40.765625 55.71875 27.296875 
Q 55.71875 13.875 49.015625 6.21875 
Q 42.328125 -1.421875 30.609375 -1.421875 
Q 18.84375 -1.421875 12.171875 6.21875 
Q 5.515625 13.875 5.515625 27.296875 
Q 5.515625 40.765625 12.171875 48.375 
Q 18.84375 56 30.609375 56 
z
" id="DejaVuSans-111"/>
      <path d="M 45.40625 46.390625 
L 45.40625 75.984375 
L 54.390625 75.984375 
L 54.390625 0 
L 45.40625 0 
L 45.40625 8.203125 
Q 42.578125 3.328125 38.25 0.953125 
Q 33.9375 -1.421875 27.875 -1.421875 
Q 17.96875 -1.421875 11.734375 6.484375 
Q 5.515625 14.40625 5.515625 27.296875 
Q 5.515625 40.1875 11.734375 48.09375 
Q 17.96875 56 27.875 56 
Q 33.9375 56 38.25 53.625 
Q 42.578125 51.265625 45.40625 46.390625 
z
M 14.796875 27.296875 
Q 14.796875 17.390625 18.875 11.75 
Q 22.953125 6.109375 30.078125 6.109375 
Q 37.203125 6.109375 41.296875 11.75 
Q 45.40625 17.390625 45.40625 27.296875 
Q 45.40625 37.203125 41.296875 42.84375 
Q 37.203125 48.484375 30.078125 48.484375 
Q 22.953125 48.484375 18.875 42.84375 
Q 14.796875 37.203125 14.796875 27.296875 
z
" id="DejaVuSans-100"/>
      <path d="M 45.40625 27.984375 
Q 45.40625 37.75 41.375 43.109375 
Q 37.359375 48.484375 30.078125 48.484375 
Q 22.859375 48.484375 18.828125 43.109375 
Q 14.796875 37.75 14.796875 27.984375 
Q 14.796875 18.265625 18.828125 12.890625 
Q 22.859375 7.515625 30.078125 7.515625 
Q 37.359375 7.515625 41.375 12.890625 
Q 45.40625 18.265625 45.40625 27.984375 
z
M 54.390625 6.78125 
Q 54.390625 -7.171875 48.1875 -13.984375 
Q 42 -20.796875 29.203125 -20.796875 
Q 24.46875 -20.796875 20.265625 -20.09375 
Q 16.0625 -19.390625 12.109375 -17.921875 
L 12.109375 -9.1875 
Q 16.0625 -11.328125 19.921875 -12.34375 
Q 23.78125 -13.375 27.78125 -13.375 
Q 36.625 -13.375 41.015625 -8.765625 
Q 45.40625 -4.15625 45.40625 5.171875 
L 45.40625 9.625 
Q 42.625 4.78125 38.28125 2.390625 
Q 33.9375 0 27.875 0 
Q 17.828125 0 11.671875 7.65625 
Q 5.515625 15.328125 5.515625 27.984375 
Q 5.515625 40.671875 11.671875 48.328125 
Q 17.828125 56 27.875 56 
Q 33.9375 56 38.28125 53.609375 
Q 42.625 51.21875 45.40625 46.390625 
L 45.40625 54.6875 
L 54.390625 54.6875 
z
" id="DejaVuSans-103"/>
      <path d="M 52 44.1875 
Q 55.375 50.25 60.0625 53.125 
Q 64.75 56 71.09375 56 
Q 79.640625 56 84.28125 50.015625 
Q 88.921875 44.046875 88.921875 33.015625 
L 88.921875 0 
L 79.890625 0 
L 79.890625 32.71875 
Q 79.890625 40.578125 77.09375 44.375 
Q 74.3125 48.1875 68.609375 48.1875 
Q 61.625 48.1875 57.5625 43.546875 
Q 53.515625 38.921875 53.515625 30.90625 
L 53.515625 0 
L 44.484375 0 
L 44.484375 32.71875 
Q 44.484375 40.625 41.703125 44.40625 
Q 38.921875 48.1875 33.109375 48.1875 
Q 26.21875 48.1875 22.15625 43.53125 
Q 18.109375 38.875 18.109375 30.90625 
L 18.109375 0 
L 9.078125 0 
L 9.078125 54.6875 
L 18.109375 54.6875 
L 18.109375 46.1875 
Q 21.1875 51.21875 25.484375 53.609375 
Q 29.78125 56 35.6875 56 
Q 41.65625 56 45.828125 52.96875 
Q 50 49.953125 52 44.1875 
z
" id="DejaVuSans-109"/>
      <path d="M 4.203125 54.6875 
L 13.1875 54.6875 
L 24.421875 12.015625 
L 35.59375 54.6875 
L 46.1875 54.6875 
L 57.421875 12.015625 
L 68.609375 54.6875 
L 77.59375 54.6875 
L 63.28125 0 
L 52.6875 0 
L 40.921875 44.828125 
L 29.109375 0 
L 18.5 0 
z
" id="DejaVuSans-119"/>
      <path d="M 18.109375 8.203125 
L 18.109375 -20.796875 
L 9.078125 -20.796875 
L 9.078125 54.6875 
L 18.109375 54.6875 
L 18.109375 46.390625 
Q 20.953125 51.265625 25.265625 53.625 
Q 29.59375 56 35.59375 56 
Q 45.5625 56 51.78125 48.09375 
Q 58.015625 40.1875 58.015625 27.296875 
Q 58.015625 14.40625 51.78125 6.484375 
Q 45.5625 -1.421875 35.59375 -1.421875 
Q 29.59375 -1.421875 25.265625 0.953125 
Q 20.953125 3.328125 18.109375 8.203125 
z
M 48.6875 27.296875 
Q 48.6875 37.203125 44.609375 42.84375 
Q 40.53125 48.484375 33.40625 48.484375 
Q 26.265625 48.484375 22.1875 42.84375 
Q 18.109375 37.203125 18.109375 27.296875 
Q 18.109375 17.390625 22.1875 11.75 
Q 26.265625 6.109375 33.40625 6.109375 
Q 40.53125 6.109375 44.609375 11.75 
Q 48.6875 17.390625 48.6875 27.296875 
z
" id="DejaVuSans-112"/>
      <path d="M 9.421875 75.984375 
L 18.40625 75.984375 
L 18.40625 0 
L 9.421875 0 
z
" id="DejaVuSans-108"/>
      <path d="M 11.71875 12.40625 
L 22.015625 12.40625 
L 22.015625 4 
L 14.015625 -11.625 
L 7.71875 -11.625 
L 11.71875 4 
z
" id="DejaVuSans-44"/>
      <path d="M 23.296875 46.09375 
L 28.71875 12.3125 
L 54 54.6875 
L 63.53125 54.6875 
L 30.8125 0 
L 26.765625 -20.796875 
L 17.78125 -20.796875 
L 21.828125 0 
L 15.4375 40.828125 
Q 14.453125 46.96875 9.8125 46.96875 
L 7.421875 46.96875 
L 8.890625 54.6875 
L 12.3125 54.6875 
Q 21.921875 54.6875 23.296875 46.09375 
z
" id="DejaVuSans-Oblique-947"/>
      <path d="M 10.59375 45.40625 
L 73.1875 45.40625 
L 73.1875 37.203125 
L 10.59375 37.203125 
z
M 10.59375 25.484375 
L 73.1875 25.484375 
L 73.1875 17.1875 
L 10.59375 17.1875 
z
" id="DejaVuSans-61"/>
      <path d="M 13.625 3.375 
L 8.9375 -20.796875 
L -0.09375 -20.796875 
L 14.5 54.34375 
Q 18.84375 76.609375 39.65625 76.609375 
Q 60.75 76.609375 57.171875 57.8125 
Q 54.734375 44.4375 45.21875 39.546875 
Q 58.015625 35.15625 55.515625 22.125 
Q 51.125 -1.078125 27.484375 -1.03125 
Q 17.140625 -0.984375 13.625 3.375 
z
M 15.921875 15.09375 
Q 19.671875 6.59375 29.296875 6.640625 
Q 43.359375 6.640625 46.34375 21.96875 
Q 49.03125 35.75 26.171875 34.671875 
L 27.78125 42.96875 
Q 45.453125 42.671875 48.53125 58.59375 
Q 50.640625 69.34375 39.203125 69.28125 
Q 26.421875 69.28125 23.484375 54.046875 
z
" id="DejaVuSans-Oblique-946"/>
      <path d="M 40.921875 25.4375 
L 40.96875 36.71875 
Q 41.015625 48.25 32.328125 48.296875 
Q 25.828125 48.34375 21.78125 42.921875 
Q 16.703125 36.234375 14.984375 27.296875 
Q 12.890625 16.546875 15.53125 11.421875 
Q 18.265625 6.203125 24.171875 6.203125 
Q 30.71875 6.203125 36.234375 16.609375 
z
M 33.84375 55.90625 
Q 49.078125 56.15625 48.875 40.375 
Q 48.875 40.375 56.5 54.6875 
L 64.5 54.6875 
L 48.734375 25.046875 
L 48.578125 14.359375 
Q 48.578125 11.96875 49.90625 9.96875 
Q 51.421875 7.625 52.984375 7.625 
L 57.328125 7.625 
L 55.859375 0 
L 50.4375 0 
Q 45.84375 0 42.53125 4.109375 
Q 40.96875 6.15625 40.921875 10.453125 
Q 37.75 5.21875 32.28125 0.78125 
Q 29.6875 -1.265625 22.703125 -1.21875 
Q 11.28125 -1.125 7.125 6.203125 
Q 2.875 13.8125 5.515625 27.296875 
Q 8.34375 41.796875 15.765625 48.390625 
Q 24.125 55.765625 33.84375 55.90625 
z
" id="DejaVuSans-Oblique-945"/>
     </defs>
     <use transform="translate(0 0.390625)" xlink:href="#DejaVuSans-66"/>
     <use transform="translate(68.603516 0.390625)" xlink:href="#DejaVuSans-105"/>
     <use transform="translate(96.386719 0.390625)" xlink:href="#DejaVuSans-102"/>
     <use transform="translate(131.591797 0.390625)" xlink:href="#DejaVuSans-117"/>
     <use transform="translate(194.970703 0.390625)" xlink:href="#DejaVuSans-114"/>
     <use transform="translate(236.083984 0.390625)" xlink:href="#DejaVuSans-99"/>
     <use transform="translate(291.064453 0.390625)" xlink:href="#DejaVuSans-97"/>
     <use transform="translate(352.34375 0.390625)" xlink:href="#DejaVuSans-116"/>
     <use transform="translate(391.552734 0.390625)" xlink:href="#DejaVuSans-105"/>
     <use transform="translate(419.335938 0.390625)" xlink:href="#DejaVuSans-111"/>
     <use transform="translate(480.517578 0.390625)" xlink:href="#DejaVuSans-110"/>
     <use transform="translate(543.896484 0.390625)" xlink:href="#DejaVuSans-32"/>
     <use transform="translate(575.683594 0.390625)" xlink:href="#DejaVuSans-100"/>
     <use transform="translate(639.160156 0.390625)" xlink:href="#DejaVuSans-105"/>
     <use transform="translate(666.943359 0.390625)" xlink:href="#DejaVuSans-97"/>
     <use transform="translate(728.222656 0.390625)" xlink:href="#DejaVuSans-103"/>
     <use transform="translate(791.699219 0.390625)" xlink:href="#DejaVuSans-114"/>
     <use transform="translate(832.8125 0.390625)" xlink:href="#DejaVuSans-97"/>
     <use transform="translate(894.091797 0.390625)" xlink:href="#DejaVuSans-109"/>
     <use transform="translate(991.503906 0.390625)" xlink:href="#DejaVuSans-32"/>
     <use transform="translate(1023.291016 0.390625)" xlink:href="#DejaVuSans-102"/>
     <use transform="translate(1058.496094 0.390625)" xlink:href="#DejaVuSans-111"/>
     <use transform="translate(1119.677734 0.390625)" xlink:href="#DejaVuSans-114"/>
     <use transform="translate(1160.791016 0.390625)" xlink:href="#DejaVuSans-32"/>
     <use transform="translate(1192.578125 0.390625)" xlink:href="#DejaVuSans-116"/>
     <use transform="translate(1231.787109 0.390625)" xlink:href="#DejaVuSans-119"/>
     <use transform="translate(1313.574219 0.390625)" xlink:href="#DejaVuSans-111"/>
     <use transform="translate(1374.755859 0.390625)" xlink:href="#DejaVuSans-32"/>
     <use transform="translate(1406.542969 0.390625)" xlink:href="#DejaVuSans-99"/>
     <use transform="translate(1461.523438 0.390625)" xlink:href="#DejaVuSans-111"/>
     <use transform="translate(1522.705078 0.390625)" xlink:href="#DejaVuSans-117"/>
     <use transform="translate(1586.083984 0.390625)" xlink:href="#DejaVuSans-112"/>
     <use transform="translate(1649.560547 0.390625)" xlink:href="#DejaVuSans-108"/>
     <use transform="translate(1677.34375 0.390625)" xlink:href="#DejaVuSans-101"/>
     <use transform="translate(1738.867188 0.390625)" xlink:href="#DejaVuSans-100"/>
     <use transform="translate(1802.34375 0.390625)" xlink:href="#DejaVuSans-32"/>
     <use transform="translate(1834.130859 0.390625)" xlink:href="#DejaVuSans-110"/>
     <use transform="translate(1897.509766 0.390625)" xlink:href="#DejaVuSans-101"/>
     <use transform="translate(1959.033203 0.390625)" xlink:href="#DejaVuSans-117"/>
     <use transform="translate(2022.412109 0.390625)" xlink:href="#DejaVuSans-114"/>
     <use transform="translate(2063.525391 0.390625)" xlink:href="#DejaVuSans-111"/>
     <use transform="translate(2124.707031 0.390625)" xlink:href="#DejaVuSans-110"/>
     <use transform="translate(2188.085938 0.390625)" xlink:href="#DejaVuSans-115"/>
     <use transform="translate(2240.185547 0.390625)" xlink:href="#DejaVuSans-44"/>
     <use transform="translate(2271.972656 0.390625)" xlink:href="#DejaVuSans-32"/>
     <use transform="translate(2303.759766 0.390625)" xlink:href="#DejaVuSans-Oblique-947"/>
     <use transform="translate(2382.421875 0.390625)" xlink:href="#DejaVuSans-61"/>
     <use transform="translate(2485.693359 0.390625)" xlink:href="#DejaVuSans-48"/>
     <use transform="translate(2549.316406 0.390625)" xlink:href="#DejaVuSans-46"/>
     <use transform="translate(2581.103516 0.390625)" xlink:href="#DejaVuSans-52"/>
     <use transform="translate(2644.726562 0.390625)" xlink:href="#DejaVuSans-44"/>
     <use transform="translate(2695.996094 0.390625)" xlink:href="#DejaVuSans-Oblique-946"/>
     <use transform="translate(2779.296875 0.390625)" xlink:href="#DejaVuSans-61"/>
     <use transform="translate(2882.568359 0.390625)" xlink:href="#DejaVuSans-48"/>
     <use transform="translate(2946.191406 0.390625)" xlink:href="#DejaVuSans-46"/>
     <use transform="translate(2977.978516 0.390625)" xlink:href="#DejaVuSans-49"/>
     <use transform="translate(3041.601562 0.390625)" xlink:href="#DejaVuSans-44"/>
     <use transform="translate(3092.871094 0.390625)" xlink:href="#DejaVuSans-Oblique-945"/>
     <use transform="translate(3178.271484 0.390625)" xlink:href="#DejaVuSans-61"/>
     <use transform="translate(3281.542969 0.390625)" xlink:href="#DejaVuSans-50"/>
    </g>
   </g>
   <g id="legend_1">
    <g id="patch_7">
     <path d="M 469.175 145.449406 
L 548.815 145.449406 
Q 551.015 145.449406 551.015 143.249406 
L 551.015 63.508 
Q 551.015 61.308 548.815 61.308 
L 469.175 61.308 
Q 466.975 61.308 466.975 63.508 
L 466.975 143.249406 
Q 466.975 145.449406 469.175 145.449406 
z
" style="fill:#ffffff;opacity:0.8;stroke:#cccccc;stroke-linejoin:miter;"/>
    </g>
    <g id="line2d_35">
     <path d="M 471.375 70.216281 
L 493.375 70.216281 
" style="fill:none;stroke:#aa3863;stroke-dasharray:5.55,2.4;stroke-dashoffset:0;stroke-width:1.5;"/>
    </g>
    <g id="line2d_36"/>
    <g id="text_16">
     <!-- $\rho = 0$ -->
     <g transform="translate(502.175 74.066281)scale(0.11 -0.11)">
      <defs>
       <path d="M 18.796875 44.921875 
Q 22.703125 49.90625 30.953125 54.296875 
Q 34.1875 56 43.0625 56 
Q 53.03125 56 57.71875 48.09375 
Q 62.40625 40.1875 59.90625 27.296875 
Q 57.375 14.40625 49.609375 6.484375 
Q 41.84375 -1.421875 31.890625 -1.421875 
Q 25.875 -1.421875 22.015625 0.984375 
Q 18.171875 3.328125 16.3125 8.203125 
L 10.640625 -20.796875 
L 1.609375 -20.796875 
L 10.890625 26.8125 
Q 13.09375 38.09375 18.796875 44.921875 
z
M 50.59375 27.296875 
Q 52.484375 37.203125 49.515625 42.875 
Q 46.53125 48.484375 39.40625 48.484375 
Q 32.28125 48.484375 27.09375 42.875 
Q 21.921875 37.203125 20.015625 27.296875 
Q 18.0625 17.390625 21.046875 11.71875 
Q 24.03125 6.109375 31.15625 6.109375 
Q 38.28125 6.109375 43.453125 11.71875 
Q 48.640625 17.390625 50.59375 27.296875 
z
" id="DejaVuSans-Oblique-961"/>
      </defs>
      <use transform="translate(0 0.78125)" xlink:href="#DejaVuSans-Oblique-961"/>
      <use transform="translate(82.958984 0.78125)" xlink:href="#DejaVuSans-61"/>
      <use transform="translate(186.230469 0.78125)" xlink:href="#DejaVuSans-48"/>
     </g>
    </g>
    <g id="line2d_37">
     <path d="M 471.375 86.384562 
L 493.375 86.384562 
" style="fill:none;stroke:#d97020;stroke-dasharray:5.55,2.4;stroke-dashoffset:0;stroke-width:1.5;"/>
    </g>
    <g id="line2d_38"/>
    <g id="text_17">
     <!-- $\rho = 0.25$ -->
     <g transform="translate(502.175 90.234562)scale(0.11 -0.11)">
      <defs>
       <path d="M 10.796875 72.90625 
L 49.515625 72.90625 
L 49.515625 64.59375 
L 19.828125 64.59375 
L 19.828125 46.734375 
Q 21.96875 47.46875 24.109375 47.828125 
Q 26.265625 48.1875 28.421875 48.1875 
Q 40.625 48.1875 47.75 41.5 
Q 54.890625 34.8125 54.890625 23.390625 
Q 54.890625 11.625 47.5625 5.09375 
Q 40.234375 -1.421875 26.90625 -1.421875 
Q 22.3125 -1.421875 17.546875 -0.640625 
Q 12.796875 0.140625 7.71875 1.703125 
L 7.71875 11.625 
Q 12.109375 9.234375 16.796875 8.0625 
Q 21.484375 6.890625 26.703125 6.890625 
Q 35.15625 6.890625 40.078125 11.328125 
Q 45.015625 15.765625 45.015625 23.390625 
Q 45.015625 31 40.078125 35.4375 
Q 35.15625 39.890625 26.703125 39.890625 
Q 22.75 39.890625 18.8125 39.015625 
Q 14.890625 38.140625 10.796875 36.28125 
z
" id="DejaVuSans-53"/>
      </defs>
      <use transform="translate(0 0.78125)" xlink:href="#DejaVuSans-Oblique-961"/>
      <use transform="translate(82.958984 0.78125)" xlink:href="#DejaVuSans-61"/>
      <use transform="translate(186.230469 0.78125)" xlink:href="#DejaVuSans-48"/>
      <use transform="translate(249.853516 0.78125)" xlink:href="#DejaVuSans-46"/>
      <use transform="translate(276.140625 0.78125)" xlink:href="#DejaVuSans-50"/>
      <use transform="translate(339.763672 0.78125)" xlink:href="#DejaVuSans-53"/>
     </g>
    </g>
    <g id="line2d_39">
     <path d="M 471.375 102.552844 
L 493.375 102.552844 
" style="fill:none;stroke:#ef9f07;stroke-dasharray:5.55,2.4;stroke-dashoffset:0;stroke-width:1.5;"/>
    </g>
    <g id="line2d_40"/>
    <g id="text_18">
     <!-- $\rho = 0.5$ -->
     <g transform="translate(502.175 106.402844)scale(0.11 -0.11)">
      <use transform="translate(0 0.78125)" xlink:href="#DejaVuSans-Oblique-961"/>
      <use transform="translate(82.958984 0.78125)" xlink:href="#DejaVuSans-61"/>
      <use transform="translate(186.230469 0.78125)" xlink:href="#DejaVuSans-48"/>
      <use transform="translate(249.853516 0.78125)" xlink:href="#DejaVuSans-46"/>
      <use transform="translate(281.640625 0.78125)" xlink:href="#DejaVuSans-53"/>
     </g>
    </g>
    <g id="line2d_41">
     <path d="M 471.375 118.721125 
L 493.375 118.721125 
" style="fill:none;stroke:#449775;stroke-dasharray:5.55,2.4;stroke-dashoffset:0;stroke-width:1.5;"/>
    </g>
    <g id="line2d_42"/>
    <g id="text_19">
     <!-- $\rho = 0.75$ -->
     <g transform="translate(502.175 122.571125)scale(0.11 -0.11)">
      <defs>
       <path d="M 8.203125 72.90625 
L 55.078125 72.90625 
L 55.078125 68.703125 
L 28.609375 0 
L 18.3125 0 
L 43.21875 64.59375 
L 8.203125 64.59375 
z
" id="DejaVuSans-55"/>
      </defs>
      <use transform="translate(0 0.78125)" xlink:href="#DejaVuSans-Oblique-961"/>
      <use transform="translate(82.958984 0.78125)" xlink:href="#DejaVuSans-61"/>
      <use transform="translate(186.230469 0.78125)" xlink:href="#DejaVuSans-48"/>
      <use transform="translate(249.853516 0.78125)" xlink:href="#DejaVuSans-46"/>
      <use transform="translate(273.890625 0.78125)" xlink:href="#DejaVuSans-55"/>
      <use transform="translate(337.513672 0.78125)" xlink:href="#DejaVuSans-53"/>
     </g>
    </g>
    <g id="line2d_43">
     <path d="M 471.375 134.889406 
L 493.375 134.889406 
" style="fill:none;stroke:#3b7d86;stroke-dasharray:5.55,2.4;stroke-dashoffset:0;stroke-width:1.5;"/>
    </g>
    <g id="line2d_44"/>
    <g id="text_20">
     <!-- $\rho = 1$ -->
     <g transform="translate(502.175 138.739406)scale(0.11 -0.11)">
      <use transform="translate(0 0.09375)" xlink:href="#DejaVuSans-Oblique-961"/>
      <use transform="translate(82.958984 0.09375)" xlink:href="#DejaVuSans-61"/>
      <use transform="translate(186.230469 0.09375)" xlink:href="#DejaVuSans-49"/>
     </g>
    </g>
   </g>
  </g>
 </g>
 <defs>
  <clipPath id="pfce9853cd1">
   <rect height="340.96" width="500.695" x="55.82" y="38.76"/>
  </clipPath>
 </defs>
</svg>
