<?xml version="1.0" encoding="utf-8" standalone="no"?>
<!DOCTYPE svg PUBLIC "-//W3C//DTD SVG 1.1//EN"
  "http://www.w3.org/Graphics/SVG/1.1/DTD/svg11.dtd">
<!-- Created with matplotlib (https://matplotlib.org/) -->
<svg height="432pt" version="1.1" viewBox="0 0 576 432" width="576pt" xmlns="http://www.w3.org/2000/svg" xmlns:xlink="http://www.w3.org/1999/xlink">
 <metadata>
  <rdf:RDF xmlns:cc="http://creativecommons.org/ns#" xmlns:dc="http://purl.org/dc/elements/1.1/" xmlns:rdf="http://www.w3.org/1999/02/22-rdf-syntax-ns#">
   <cc:Work>
    <dc:type rdf:resource="http://purl.org/dc/dcmitype/StillImage"/>
    <dc:date>2021-05-17T17:18:19.901056</dc:date>
    <dc:format>image/svg+xml</dc:format>
    <dc:creator>
     <cc:Agent>
      <dc:title>Matplotlib v3.3.3, https://matplotlib.org/</dc:title>
     </cc:Agent>
    </dc:creator>
   </cc:Work>
  </rdf:RDF>
 </metadata>
 <defs>
  <style type="text/css">*{stroke-linecap:butt;stroke-linejoin:round;}</style>
 </defs>
 <g id="figure_1">
  <g id="patch_1">
   <path d="M 0 432 
L 576 432 
L 576 0 
L 0 0 
z
" style="fill:#ffffff;"/>
  </g>
  <g id="axes_1">
   <g id="patch_2">
    <path d="M 72 384.48 
L 518.4 384.48 
L 518.4 51.84 
L 72 51.84 
z
" style="fill:#ffffff;"/>
   </g>
   <g id="matplotlib.axis_1">
    <g id="xtick_1">
     <g id="line2d_1">
      <defs>
       <path d="M 0 0 
L 0 3.5 
" id="mbe4007306b" style="stroke:#000000;stroke-width:0.8;"/>
      </defs>
      <g>
       <use style="stroke:#000000;stroke-width:0.8;" x="72" xlink:href="#mbe4007306b" y="384.48"/>
      </g>
     </g>
     <g id="text_1">
      <!-- 1.0 -->
      <g transform="translate(64.048438 399.078438)scale(0.1 -0.1)">
       <defs>
        <path d="M 12.40625 8.296875 
L 28.515625 8.296875 
L 28.515625 63.921875 
L 10.984375 60.40625 
L 10.984375 69.390625 
L 28.421875 72.90625 
L 38.28125 72.90625 
L 38.28125 8.296875 
L 54.390625 8.296875 
L 54.390625 0 
L 12.40625 0 
z
" id="DejaVuSans-49"/>
        <path d="M 10.6875 12.40625 
L 21 12.40625 
L 21 0 
L 10.6875 0 
z
" id="DejaVuSans-46"/>
        <path d="M 31.78125 66.40625 
Q 24.171875 66.40625 20.328125 58.90625 
Q 16.5 51.421875 16.5 36.375 
Q 16.5 21.390625 20.328125 13.890625 
Q 24.171875 6.390625 31.78125 6.390625 
Q 39.453125 6.390625 43.28125 13.890625 
Q 47.125 21.390625 47.125 36.375 
Q 47.125 51.421875 43.28125 58.90625 
Q 39.453125 66.40625 31.78125 66.40625 
z
M 31.78125 74.21875 
Q 44.046875 74.21875 50.515625 64.515625 
Q 56.984375 54.828125 56.984375 36.375 
Q 56.984375 17.96875 50.515625 8.265625 
Q 44.046875 -1.421875 31.78125 -1.421875 
Q 19.53125 -1.421875 13.0625 8.265625 
Q 6.59375 17.96875 6.59375 36.375 
Q 6.59375 54.828125 13.0625 64.515625 
Q 19.53125 74.21875 31.78125 74.21875 
z
" id="DejaVuSans-48"/>
       </defs>
       <use xlink:href="#DejaVuSans-49"/>
       <use x="63.623047" xlink:href="#DejaVuSans-46"/>
       <use x="95.410156" xlink:href="#DejaVuSans-48"/>
      </g>
     </g>
    </g>
    <g id="xtick_2">
     <g id="line2d_2">
      <g>
       <use style="stroke:#000000;stroke-width:0.8;" x="161.28" xlink:href="#mbe4007306b" y="384.48"/>
      </g>
     </g>
     <g id="text_2">
      <!-- 1.2 -->
      <g transform="translate(153.328438 399.078438)scale(0.1 -0.1)">
       <defs>
        <path d="M 19.1875 8.296875 
L 53.609375 8.296875 
L 53.609375 0 
L 7.328125 0 
L 7.328125 8.296875 
Q 12.9375 14.109375 22.625 23.890625 
Q 32.328125 33.6875 34.8125 36.53125 
Q 39.546875 41.84375 41.421875 45.53125 
Q 43.3125 49.21875 43.3125 52.78125 
Q 43.3125 58.59375 39.234375 62.25 
Q 35.15625 65.921875 28.609375 65.921875 
Q 23.96875 65.921875 18.8125 64.3125 
Q 13.671875 62.703125 7.8125 59.421875 
L 7.8125 69.390625 
Q 13.765625 71.78125 18.9375 73 
Q 24.125 74.21875 28.421875 74.21875 
Q 39.75 74.21875 46.484375 68.546875 
Q 53.21875 62.890625 53.21875 53.421875 
Q 53.21875 48.921875 51.53125 44.890625 
Q 49.859375 40.875 45.40625 35.40625 
Q 44.1875 33.984375 37.640625 27.21875 
Q 31.109375 20.453125 19.1875 8.296875 
z
" id="DejaVuSans-50"/>
       </defs>
       <use xlink:href="#DejaVuSans-49"/>
       <use x="63.623047" xlink:href="#DejaVuSans-46"/>
       <use x="95.410156" xlink:href="#DejaVuSans-50"/>
      </g>
     </g>
    </g>
    <g id="xtick_3">
     <g id="line2d_3">
      <g>
       <use style="stroke:#000000;stroke-width:0.8;" x="250.56" xlink:href="#mbe4007306b" y="384.48"/>
      </g>
     </g>
     <g id="text_3">
      <!-- 1.4 -->
      <g transform="translate(242.608438 399.078438)scale(0.1 -0.1)">
       <defs>
        <path d="M 37.796875 64.3125 
L 12.890625 25.390625 
L 37.796875 25.390625 
z
M 35.203125 72.90625 
L 47.609375 72.90625 
L 47.609375 25.390625 
L 58.015625 25.390625 
L 58.015625 17.1875 
L 47.609375 17.1875 
L 47.609375 0 
L 37.796875 0 
L 37.796875 17.1875 
L 4.890625 17.1875 
L 4.890625 26.703125 
z
" id="DejaVuSans-52"/>
       </defs>
       <use xlink:href="#DejaVuSans-49"/>
       <use x="63.623047" xlink:href="#DejaVuSans-46"/>
       <use x="95.410156" xlink:href="#DejaVuSans-52"/>
      </g>
     </g>
    </g>
    <g id="xtick_4">
     <g id="line2d_4">
      <g>
       <use style="stroke:#000000;stroke-width:0.8;" x="339.84" xlink:href="#mbe4007306b" y="384.48"/>
      </g>
     </g>
     <g id="text_4">
      <!-- 1.6 -->
      <g transform="translate(331.888438 399.078438)scale(0.1 -0.1)">
       <defs>
        <path d="M 33.015625 40.375 
Q 26.375 40.375 22.484375 35.828125 
Q 18.609375 31.296875 18.609375 23.390625 
Q 18.609375 15.53125 22.484375 10.953125 
Q 26.375 6.390625 33.015625 6.390625 
Q 39.65625 6.390625 43.53125 10.953125 
Q 47.40625 15.53125 47.40625 23.390625 
Q 47.40625 31.296875 43.53125 35.828125 
Q 39.65625 40.375 33.015625 40.375 
z
M 52.59375 71.296875 
L 52.59375 62.3125 
Q 48.875 64.0625 45.09375 64.984375 
Q 41.3125 65.921875 37.59375 65.921875 
Q 27.828125 65.921875 22.671875 59.328125 
Q 17.53125 52.734375 16.796875 39.40625 
Q 19.671875 43.65625 24.015625 45.921875 
Q 28.375 48.1875 33.59375 48.1875 
Q 44.578125 48.1875 50.953125 41.515625 
Q 57.328125 34.859375 57.328125 23.390625 
Q 57.328125 12.15625 50.6875 5.359375 
Q 44.046875 -1.421875 33.015625 -1.421875 
Q 20.359375 -1.421875 13.671875 8.265625 
Q 6.984375 17.96875 6.984375 36.375 
Q 6.984375 53.65625 15.1875 63.9375 
Q 23.390625 74.21875 37.203125 74.21875 
Q 40.921875 74.21875 44.703125 73.484375 
Q 48.484375 72.75 52.59375 71.296875 
z
" id="DejaVuSans-54"/>
       </defs>
       <use xlink:href="#DejaVuSans-49"/>
       <use x="63.623047" xlink:href="#DejaVuSans-46"/>
       <use x="95.410156" xlink:href="#DejaVuSans-54"/>
      </g>
     </g>
    </g>
    <g id="xtick_5">
     <g id="line2d_5">
      <g>
       <use style="stroke:#000000;stroke-width:0.8;" x="429.12" xlink:href="#mbe4007306b" y="384.48"/>
      </g>
     </g>
     <g id="text_5">
      <!-- 1.8 -->
      <g transform="translate(421.168437 399.078438)scale(0.1 -0.1)">
       <defs>
        <path d="M 31.78125 34.625 
Q 24.75 34.625 20.71875 30.859375 
Q 16.703125 27.09375 16.703125 20.515625 
Q 16.703125 13.921875 20.71875 10.15625 
Q 24.75 6.390625 31.78125 6.390625 
Q 38.8125 6.390625 42.859375 10.171875 
Q 46.921875 13.96875 46.921875 20.515625 
Q 46.921875 27.09375 42.890625 30.859375 
Q 38.875 34.625 31.78125 34.625 
z
M 21.921875 38.8125 
Q 15.578125 40.375 12.03125 44.71875 
Q 8.5 49.078125 8.5 55.328125 
Q 8.5 64.0625 14.71875 69.140625 
Q 20.953125 74.21875 31.78125 74.21875 
Q 42.671875 74.21875 48.875 69.140625 
Q 55.078125 64.0625 55.078125 55.328125 
Q 55.078125 49.078125 51.53125 44.71875 
Q 48 40.375 41.703125 38.8125 
Q 48.828125 37.15625 52.796875 32.3125 
Q 56.78125 27.484375 56.78125 20.515625 
Q 56.78125 9.90625 50.3125 4.234375 
Q 43.84375 -1.421875 31.78125 -1.421875 
Q 19.734375 -1.421875 13.25 4.234375 
Q 6.78125 9.90625 6.78125 20.515625 
Q 6.78125 27.484375 10.78125 32.3125 
Q 14.796875 37.15625 21.921875 38.8125 
z
M 18.3125 54.390625 
Q 18.3125 48.734375 21.84375 45.5625 
Q 25.390625 42.390625 31.78125 42.390625 
Q 38.140625 42.390625 41.71875 45.5625 
Q 45.3125 48.734375 45.3125 54.390625 
Q 45.3125 60.0625 41.71875 63.234375 
Q 38.140625 66.40625 31.78125 66.40625 
Q 25.390625 66.40625 21.84375 63.234375 
Q 18.3125 60.0625 18.3125 54.390625 
z
" id="DejaVuSans-56"/>
       </defs>
       <use xlink:href="#DejaVuSans-49"/>
       <use x="63.623047" xlink:href="#DejaVuSans-46"/>
       <use x="95.410156" xlink:href="#DejaVuSans-56"/>
      </g>
     </g>
    </g>
    <g id="xtick_6">
     <g id="line2d_6">
      <g>
       <use style="stroke:#000000;stroke-width:0.8;" x="518.4" xlink:href="#mbe4007306b" y="384.48"/>
      </g>
     </g>
     <g id="text_6">
      <!-- 2.0 -->
      <g transform="translate(510.448437 399.078438)scale(0.1 -0.1)">
       <use xlink:href="#DejaVuSans-50"/>
       <use x="63.623047" xlink:href="#DejaVuSans-46"/>
       <use x="95.410156" xlink:href="#DejaVuSans-48"/>
      </g>
     </g>
    </g>
    <g id="text_7">
     <!-- Current $I$ -->
     <g transform="translate(272.0475 413.136484)scale(0.105 -0.105)">
      <defs>
       <path d="M 64.40625 67.28125 
L 64.40625 56.890625 
Q 59.421875 61.53125 53.78125 63.8125 
Q 48.140625 66.109375 41.796875 66.109375 
Q 29.296875 66.109375 22.65625 58.46875 
Q 16.015625 50.828125 16.015625 36.375 
Q 16.015625 21.96875 22.65625 14.328125 
Q 29.296875 6.6875 41.796875 6.6875 
Q 48.140625 6.6875 53.78125 8.984375 
Q 59.421875 11.28125 64.40625 15.921875 
L 64.40625 5.609375 
Q 59.234375 2.09375 53.4375 0.328125 
Q 47.65625 -1.421875 41.21875 -1.421875 
Q 24.65625 -1.421875 15.125 8.703125 
Q 5.609375 18.84375 5.609375 36.375 
Q 5.609375 53.953125 15.125 64.078125 
Q 24.65625 74.21875 41.21875 74.21875 
Q 47.75 74.21875 53.53125 72.484375 
Q 59.328125 70.75 64.40625 67.28125 
z
" id="DejaVuSans-67"/>
       <path d="M 8.5 21.578125 
L 8.5 54.6875 
L 17.484375 54.6875 
L 17.484375 21.921875 
Q 17.484375 14.15625 20.5 10.265625 
Q 23.53125 6.390625 29.59375 6.390625 
Q 36.859375 6.390625 41.078125 11.03125 
Q 45.3125 15.671875 45.3125 23.6875 
L 45.3125 54.6875 
L 54.296875 54.6875 
L 54.296875 0 
L 45.3125 0 
L 45.3125 8.40625 
Q 42.046875 3.421875 37.71875 1 
Q 33.40625 -1.421875 27.6875 -1.421875 
Q 18.265625 -1.421875 13.375 4.4375 
Q 8.5 10.296875 8.5 21.578125 
z
M 31.109375 56 
z
" id="DejaVuSans-117"/>
       <path d="M 41.109375 46.296875 
Q 39.59375 47.171875 37.8125 47.578125 
Q 36.03125 48 33.890625 48 
Q 26.265625 48 22.1875 43.046875 
Q 18.109375 38.09375 18.109375 28.8125 
L 18.109375 0 
L 9.078125 0 
L 9.078125 54.6875 
L 18.109375 54.6875 
L 18.109375 46.1875 
Q 20.953125 51.171875 25.484375 53.578125 
Q 30.03125 56 36.53125 56 
Q 37.453125 56 38.578125 55.875 
Q 39.703125 55.765625 41.0625 55.515625 
z
" id="DejaVuSans-114"/>
       <path d="M 56.203125 29.59375 
L 56.203125 25.203125 
L 14.890625 25.203125 
Q 15.484375 15.921875 20.484375 11.0625 
Q 25.484375 6.203125 34.421875 6.203125 
Q 39.59375 6.203125 44.453125 7.46875 
Q 49.3125 8.734375 54.109375 11.28125 
L 54.109375 2.78125 
Q 49.265625 0.734375 44.1875 -0.34375 
Q 39.109375 -1.421875 33.890625 -1.421875 
Q 20.796875 -1.421875 13.15625 6.1875 
Q 5.515625 13.8125 5.515625 26.8125 
Q 5.515625 40.234375 12.765625 48.109375 
Q 20.015625 56 32.328125 56 
Q 43.359375 56 49.78125 48.890625 
Q 56.203125 41.796875 56.203125 29.59375 
z
M 47.21875 32.234375 
Q 47.125 39.59375 43.09375 43.984375 
Q 39.0625 48.390625 32.421875 48.390625 
Q 24.90625 48.390625 20.390625 44.140625 
Q 15.875 39.890625 15.1875 32.171875 
z
" id="DejaVuSans-101"/>
       <path d="M 54.890625 33.015625 
L 54.890625 0 
L 45.90625 0 
L 45.90625 32.71875 
Q 45.90625 40.484375 42.875 44.328125 
Q 39.84375 48.1875 33.796875 48.1875 
Q 26.515625 48.1875 22.3125 43.546875 
Q 18.109375 38.921875 18.109375 30.90625 
L 18.109375 0 
L 9.078125 0 
L 9.078125 54.6875 
L 18.109375 54.6875 
L 18.109375 46.1875 
Q 21.34375 51.125 25.703125 53.5625 
Q 30.078125 56 35.796875 56 
Q 45.21875 56 50.046875 50.171875 
Q 54.890625 44.34375 54.890625 33.015625 
z
" id="DejaVuSans-110"/>
       <path d="M 18.3125 70.21875 
L 18.3125 54.6875 
L 36.8125 54.6875 
L 36.8125 47.703125 
L 18.3125 47.703125 
L 18.3125 18.015625 
Q 18.3125 11.328125 20.140625 9.421875 
Q 21.96875 7.515625 27.59375 7.515625 
L 36.8125 7.515625 
L 36.8125 0 
L 27.59375 0 
Q 17.1875 0 13.234375 3.875 
Q 9.28125 7.765625 9.28125 18.015625 
L 9.28125 47.703125 
L 2.6875 47.703125 
L 2.6875 54.6875 
L 9.28125 54.6875 
L 9.28125 70.21875 
z
" id="DejaVuSans-116"/>
       <path id="DejaVuSans-32"/>
       <path d="M 16.890625 72.90625 
L 26.8125 72.90625 
L 12.59375 0 
L 2.6875 0 
z
" id="DejaVuSans-Oblique-73"/>
      </defs>
      <use transform="translate(0 0.78125)" xlink:href="#DejaVuSans-67"/>
      <use transform="translate(69.824219 0.78125)" xlink:href="#DejaVuSans-117"/>
      <use transform="translate(133.203125 0.78125)" xlink:href="#DejaVuSans-114"/>
      <use transform="translate(174.316406 0.78125)" xlink:href="#DejaVuSans-114"/>
      <use transform="translate(215.429688 0.78125)" xlink:href="#DejaVuSans-101"/>
      <use transform="translate(276.953125 0.78125)" xlink:href="#DejaVuSans-110"/>
      <use transform="translate(340.332031 0.78125)" xlink:href="#DejaVuSans-116"/>
      <use transform="translate(379.541016 0.78125)" xlink:href="#DejaVuSans-32"/>
      <use transform="translate(411.328125 0.78125)" xlink:href="#DejaVuSans-Oblique-73"/>
     </g>
    </g>
   </g>
   <g id="matplotlib.axis_2">
    <g id="ytick_1">
     <g id="line2d_7">
      <defs>
       <path d="M 0 0 
L -3.5 0 
" id="m3dbca6482a" style="stroke:#000000;stroke-width:0.8;"/>
      </defs>
      <g>
       <use style="stroke:#000000;stroke-width:0.8;" x="72" xlink:href="#m3dbca6482a" y="369.36"/>
      </g>
     </g>
     <g id="text_8">
      <!-- 0.0 -->
      <g transform="translate(49.096875 373.159219)scale(0.1 -0.1)">
       <use xlink:href="#DejaVuSans-48"/>
       <use x="63.623047" xlink:href="#DejaVuSans-46"/>
       <use x="95.410156" xlink:href="#DejaVuSans-48"/>
      </g>
     </g>
    </g>
    <g id="ytick_2">
     <g id="line2d_8">
      <g>
       <use style="stroke:#000000;stroke-width:0.8;" x="72" xlink:href="#m3dbca6482a" y="308.88"/>
      </g>
     </g>
     <g id="text_9">
      <!-- 0.2 -->
      <g transform="translate(49.096875 312.679219)scale(0.1 -0.1)">
       <use xlink:href="#DejaVuSans-48"/>
       <use x="63.623047" xlink:href="#DejaVuSans-46"/>
       <use x="95.410156" xlink:href="#DejaVuSans-50"/>
      </g>
     </g>
    </g>
    <g id="ytick_3">
     <g id="line2d_9">
      <g>
       <use style="stroke:#000000;stroke-width:0.8;" x="72" xlink:href="#m3dbca6482a" y="248.4"/>
      </g>
     </g>
     <g id="text_10">
      <!-- 0.4 -->
      <g transform="translate(49.096875 252.199219)scale(0.1 -0.1)">
       <use xlink:href="#DejaVuSans-48"/>
       <use x="63.623047" xlink:href="#DejaVuSans-46"/>
       <use x="95.410156" xlink:href="#DejaVuSans-52"/>
      </g>
     </g>
    </g>
    <g id="ytick_4">
     <g id="line2d_10">
      <g>
       <use style="stroke:#000000;stroke-width:0.8;" x="72" xlink:href="#m3dbca6482a" y="187.92"/>
      </g>
     </g>
     <g id="text_11">
      <!-- 0.6 -->
      <g transform="translate(49.096875 191.719219)scale(0.1 -0.1)">
       <use xlink:href="#DejaVuSans-48"/>
       <use x="63.623047" xlink:href="#DejaVuSans-46"/>
       <use x="95.410156" xlink:href="#DejaVuSans-54"/>
      </g>
     </g>
    </g>
    <g id="ytick_5">
     <g id="line2d_11">
      <g>
       <use style="stroke:#000000;stroke-width:0.8;" x="72" xlink:href="#m3dbca6482a" y="127.44"/>
      </g>
     </g>
     <g id="text_12">
      <!-- 0.8 -->
      <g transform="translate(49.096875 131.239219)scale(0.1 -0.1)">
       <use xlink:href="#DejaVuSans-48"/>
       <use x="63.623047" xlink:href="#DejaVuSans-46"/>
       <use x="95.410156" xlink:href="#DejaVuSans-56"/>
      </g>
     </g>
    </g>
    <g id="ytick_6">
     <g id="line2d_12">
      <g>
       <use style="stroke:#000000;stroke-width:0.8;" x="72" xlink:href="#m3dbca6482a" y="66.96"/>
      </g>
     </g>
     <g id="text_13">
      <!-- 1.0 -->
      <g transform="translate(49.096875 70.759219)scale(0.1 -0.1)">
       <use xlink:href="#DejaVuSans-49"/>
       <use x="63.623047" xlink:href="#DejaVuSans-46"/>
       <use x="95.410156" xlink:href="#DejaVuSans-48"/>
      </g>
     </g>
    </g>
    <g id="text_14">
     <!-- Phase Difference $\phi$ -->
     <g transform="translate(42.891875 267.93)rotate(-90)scale(0.105 -0.105)">
      <defs>
       <path d="M 19.671875 64.796875 
L 19.671875 37.40625 
L 32.078125 37.40625 
Q 38.96875 37.40625 42.71875 40.96875 
Q 46.484375 44.53125 46.484375 51.125 
Q 46.484375 57.671875 42.71875 61.234375 
Q 38.96875 64.796875 32.078125 64.796875 
z
M 9.8125 72.90625 
L 32.078125 72.90625 
Q 44.34375 72.90625 50.609375 67.359375 
Q 56.890625 61.8125 56.890625 51.125 
Q 56.890625 40.328125 50.609375 34.8125 
Q 44.34375 29.296875 32.078125 29.296875 
L 19.671875 29.296875 
L 19.671875 0 
L 9.8125 0 
z
" id="DejaVuSans-80"/>
       <path d="M 54.890625 33.015625 
L 54.890625 0 
L 45.90625 0 
L 45.90625 32.71875 
Q 45.90625 40.484375 42.875 44.328125 
Q 39.84375 48.1875 33.796875 48.1875 
Q 26.515625 48.1875 22.3125 43.546875 
Q 18.109375 38.921875 18.109375 30.90625 
L 18.109375 0 
L 9.078125 0 
L 9.078125 75.984375 
L 18.109375 75.984375 
L 18.109375 46.1875 
Q 21.34375 51.125 25.703125 53.5625 
Q 30.078125 56 35.796875 56 
Q 45.21875 56 50.046875 50.171875 
Q 54.890625 44.34375 54.890625 33.015625 
z
" id="DejaVuSans-104"/>
       <path d="M 34.28125 27.484375 
Q 23.390625 27.484375 19.1875 25 
Q 14.984375 22.515625 14.984375 16.5 
Q 14.984375 11.71875 18.140625 8.90625 
Q 21.296875 6.109375 26.703125 6.109375 
Q 34.1875 6.109375 38.703125 11.40625 
Q 43.21875 16.703125 43.21875 25.484375 
L 43.21875 27.484375 
z
M 52.203125 31.203125 
L 52.203125 0 
L 43.21875 0 
L 43.21875 8.296875 
Q 40.140625 3.328125 35.546875 0.953125 
Q 30.953125 -1.421875 24.3125 -1.421875 
Q 15.921875 -1.421875 10.953125 3.296875 
Q 6 8.015625 6 15.921875 
Q 6 25.140625 12.171875 29.828125 
Q 18.359375 34.515625 30.609375 34.515625 
L 43.21875 34.515625 
L 43.21875 35.40625 
Q 43.21875 41.609375 39.140625 45 
Q 35.0625 48.390625 27.6875 48.390625 
Q 23 48.390625 18.546875 47.265625 
Q 14.109375 46.140625 10.015625 43.890625 
L 10.015625 52.203125 
Q 14.9375 54.109375 19.578125 55.046875 
Q 24.21875 56 28.609375 56 
Q 40.484375 56 46.34375 49.84375 
Q 52.203125 43.703125 52.203125 31.203125 
z
" id="DejaVuSans-97"/>
       <path d="M 44.28125 53.078125 
L 44.28125 44.578125 
Q 40.484375 46.53125 36.375 47.5 
Q 32.28125 48.484375 27.875 48.484375 
Q 21.1875 48.484375 17.84375 46.4375 
Q 14.5 44.390625 14.5 40.28125 
Q 14.5 37.15625 16.890625 35.375 
Q 19.28125 33.59375 26.515625 31.984375 
L 29.59375 31.296875 
Q 39.15625 29.25 43.1875 25.515625 
Q 47.21875 21.78125 47.21875 15.09375 
Q 47.21875 7.46875 41.1875 3.015625 
Q 35.15625 -1.421875 24.609375 -1.421875 
Q 20.21875 -1.421875 15.453125 -0.5625 
Q 10.6875 0.296875 5.421875 2 
L 5.421875 11.28125 
Q 10.40625 8.6875 15.234375 7.390625 
Q 20.0625 6.109375 24.8125 6.109375 
Q 31.15625 6.109375 34.5625 8.28125 
Q 37.984375 10.453125 37.984375 14.40625 
Q 37.984375 18.0625 35.515625 20.015625 
Q 33.0625 21.96875 24.703125 23.78125 
L 21.578125 24.515625 
Q 13.234375 26.265625 9.515625 29.90625 
Q 5.8125 33.546875 5.8125 39.890625 
Q 5.8125 47.609375 11.28125 51.796875 
Q 16.75 56 26.8125 56 
Q 31.78125 56 36.171875 55.265625 
Q 40.578125 54.546875 44.28125 53.078125 
z
" id="DejaVuSans-115"/>
       <path d="M 19.671875 64.796875 
L 19.671875 8.109375 
L 31.59375 8.109375 
Q 46.6875 8.109375 53.6875 14.9375 
Q 60.6875 21.78125 60.6875 36.53125 
Q 60.6875 51.171875 53.6875 57.984375 
Q 46.6875 64.796875 31.59375 64.796875 
z
M 9.8125 72.90625 
L 30.078125 72.90625 
Q 51.265625 72.90625 61.171875 64.09375 
Q 71.09375 55.28125 71.09375 36.53125 
Q 71.09375 17.671875 61.125 8.828125 
Q 51.171875 0 30.078125 0 
L 9.8125 0 
z
" id="DejaVuSans-68"/>
       <path d="M 9.421875 54.6875 
L 18.40625 54.6875 
L 18.40625 0 
L 9.421875 0 
z
M 9.421875 75.984375 
L 18.40625 75.984375 
L 18.40625 64.59375 
L 9.421875 64.59375 
z
" id="DejaVuSans-105"/>
       <path d="M 37.109375 75.984375 
L 37.109375 68.5 
L 28.515625 68.5 
Q 23.6875 68.5 21.796875 66.546875 
Q 19.921875 64.59375 19.921875 59.515625 
L 19.921875 54.6875 
L 34.71875 54.6875 
L 34.71875 47.703125 
L 19.921875 47.703125 
L 19.921875 0 
L 10.890625 0 
L 10.890625 47.703125 
L 2.296875 47.703125 
L 2.296875 54.6875 
L 10.890625 54.6875 
L 10.890625 58.5 
Q 10.890625 67.625 15.140625 71.796875 
Q 19.390625 75.984375 28.609375 75.984375 
z
" id="DejaVuSans-102"/>
       <path d="M 48.78125 52.59375 
L 48.78125 44.1875 
Q 44.96875 46.296875 41.140625 47.34375 
Q 37.3125 48.390625 33.40625 48.390625 
Q 24.65625 48.390625 19.8125 42.84375 
Q 14.984375 37.3125 14.984375 27.296875 
Q 14.984375 17.28125 19.8125 11.734375 
Q 24.65625 6.203125 33.40625 6.203125 
Q 37.3125 6.203125 41.140625 7.25 
Q 44.96875 8.296875 48.78125 10.40625 
L 48.78125 2.09375 
Q 45.015625 0.34375 40.984375 -0.53125 
Q 36.96875 -1.421875 32.421875 -1.421875 
Q 20.0625 -1.421875 12.78125 6.34375 
Q 5.515625 14.109375 5.515625 27.296875 
Q 5.515625 40.671875 12.859375 48.328125 
Q 20.21875 56 33.015625 56 
Q 37.15625 56 41.109375 55.140625 
Q 45.0625 54.296875 48.78125 52.59375 
z
" id="DejaVuSans-99"/>
       <path d="M 46.734375 75.984375 
L 42.78125 55.8125 
Q 52.546875 55.8125 57.5625 48.34375 
Q 62.75 40.71875 60.15625 27.296875 
Q 57.515625 13.875 49.359375 6.25 
Q 41.453125 -1.21875 31.6875 -1.21875 
L 27.875 -20.796875 
L 18.953125 -20.796875 
L 22.75 -1.21875 
Q 13.03125 -1.21875 7.953125 6.25 
Q 2.78125 13.875 5.421875 27.296875 
Q 8.015625 40.71875 16.15625 48.34375 
Q 24.125 55.8125 33.84375 55.8125 
L 37.796875 75.984375 
z
M 33.25 6.78125 
Q 38.765625 6.78125 43.5 11.8125 
Q 48.6875 17.4375 50.6875 27.296875 
Q 52.640625 37.0625 49.515625 42.78125 
Q 46.734375 47.796875 41.21875 47.796875 
z
M 24.3125 6.78125 
L 32.28125 47.796875 
Q 26.8125 47.796875 22.078125 42.78125 
Q 16.75 37.0625 14.890625 27.296875 
Q 13.03125 17.4375 16.0625 11.8125 
Q 18.796875 6.78125 24.3125 6.78125 
z
" id="DejaVuSans-Oblique-981"/>
      </defs>
      <use transform="translate(0 0.015625)" xlink:href="#DejaVuSans-80"/>
      <use transform="translate(60.302734 0.015625)" xlink:href="#DejaVuSans-104"/>
      <use transform="translate(123.681641 0.015625)" xlink:href="#DejaVuSans-97"/>
      <use transform="translate(184.960938 0.015625)" xlink:href="#DejaVuSans-115"/>
      <use transform="translate(237.060547 0.015625)" xlink:href="#DejaVuSans-101"/>
      <use transform="translate(298.583984 0.015625)" xlink:href="#DejaVuSans-32"/>
      <use transform="translate(330.371094 0.015625)" xlink:href="#DejaVuSans-68"/>
      <use transform="translate(407.373047 0.015625)" xlink:href="#DejaVuSans-105"/>
      <use transform="translate(435.15625 0.015625)" xlink:href="#DejaVuSans-102"/>
      <use transform="translate(470.361328 0.015625)" xlink:href="#DejaVuSans-102"/>
      <use transform="translate(505.566406 0.015625)" xlink:href="#DejaVuSans-101"/>
      <use transform="translate(567.089844 0.015625)" xlink:href="#DejaVuSans-114"/>
      <use transform="translate(608.203125 0.015625)" xlink:href="#DejaVuSans-101"/>
      <use transform="translate(669.726562 0.015625)" xlink:href="#DejaVuSans-110"/>
      <use transform="translate(733.105469 0.015625)" xlink:href="#DejaVuSans-99"/>
      <use transform="translate(788.085938 0.015625)" xlink:href="#DejaVuSans-101"/>
      <use transform="translate(849.609375 0.015625)" xlink:href="#DejaVuSans-32"/>
      <use transform="translate(881.396484 0.015625)" xlink:href="#DejaVuSans-Oblique-981"/>
     </g>
    </g>
   </g>
   <g id="line2d_13">
    <path clip-path="url(#pb83ce147a9)" d="M 518.4 218.16 
L 229.736958 218.16 
L 229.736958 218.16 
" style="fill:none;stroke:#000000;stroke-dasharray:5.55,2.4;stroke-dashoffset:0;stroke-width:1.5;"/>
   </g>
   <g id="line2d_14">
    <path clip-path="url(#pb83ce147a9)" d="M 229.736958 218.16 
L 121.153149 218.16 
L 121.153149 218.16 
" style="fill:none;stroke:#000000;stroke-linecap:square;stroke-width:1.5;"/>
   </g>
   <g id="line2d_15">
    <path clip-path="url(#pb83ce147a9)" d="M 229.736958 218.16 
L 229.736958 216.244417 
L 229.290111 210.030883 
L 228.843265 206.874976 
L 228.396419 204.464123 
L 227.949528 202.451227 
L 227.502681 200.54021 
L 227.055835 198.746041 
L 226.608988 197.13065 
L 226.162142 195.654182 
L 225.715296 194.290328 
L 225.268449 193.02294 
L 224.821603 191.836322 
L 224.374756 190.721615 
L 223.92791 189.668477 
L 223.481064 188.609532 
L 223.034217 187.51557 
L 222.587371 186.47598 
L 222.140524 185.485589 
L 221.693678 184.541224 
L 221.246832 183.637835 
L 220.799985 182.772215 
L 220.353139 181.943124 
L 219.906292 181.146724 
L 219.459446 180.322049 
L 219.0126 179.472668 
L 218.565753 178.655885 
L 218.118907 177.868224 
L 217.67206 177.108867 
L 217.225214 176.376001 
L 216.778368 175.668839 
L 216.331521 174.985052 
L 215.884675 174.323915 
L 215.437828 173.600302 
L 214.990982 172.889662 
L 214.544136 172.201097 
L 214.097289 171.535121 
L 213.650443 170.889648 
L 213.203596 170.263892 
L 212.75675 169.657127 
L 212.309904 169.068717 
L 211.863057 168.451488 
L 211.416211 167.817023 
L 210.969364 167.200883 
L 210.522518 166.602433 
L 210.075672 166.021069 
L 209.628825 165.456125 
L 209.181979 164.906967 
L 208.735132 164.373654 
L 208.288286 163.819234 
L 207.84144 163.243827 
L 207.394593 162.683904 
L 206.947747 162.138918 
L 206.5009 161.608236 
L 206.054054 161.092765 
L 205.607208 160.590691 
L 205.160361 160.101468 
L 204.713515 159.581552 
L 204.266668 159.05462 
L 203.819822 158.540842 
L 203.372976 158.040612 
L 202.926129 157.553415 
L 202.479283 157.077952 
L 202.032436 156.615945 
L 201.58559 156.157597 
L 201.138744 155.660089 
L 200.691897 155.174435 
L 200.245051 154.700634 
L 199.798204 154.239081 
L 199.351358 153.788475 
L 198.904512 153.349692 
L 198.457665 152.921645 
L 198.010819 152.461634 
L 197.563972 152.001321 
L 197.117126 151.552197 
L 196.67028 151.113898 
L 196.223433 150.686002 
L 195.776587 150.269083 
L 195.32974 149.861841 
L 194.882894 149.430951 
L 194.436048 148.994225 
" style="fill:none;stroke:#aa3863;stroke-dasharray:5.55,2.4;stroke-dashoffset:0;stroke-width:1.5;"/>
   </g>
   <g id="line2d_16">
    <path clip-path="url(#pb83ce147a9)" d="M 229.736958 218.16 
L 229.736958 220.075583 
L 229.290111 226.289117 
L 228.843265 229.445024 
L 228.396419 231.855877 
L 227.949528 233.868773 
L 227.502681 235.77979 
L 227.055835 237.573959 
L 226.608988 239.18935 
L 226.162142 240.665818 
L 225.715296 242.029672 
L 225.268449 243.29706 
L 224.821603 244.483678 
L 224.374756 245.598385 
L 223.92791 246.651523 
L 223.481064 247.710468 
L 223.034217 248.80443 
L 222.587371 249.84402 
L 222.140524 250.834411 
L 221.693678 251.778776 
L 221.246832 252.682165 
L 220.799985 253.547785 
L 220.353139 254.376876 
L 219.906292 255.173276 
L 219.459446 255.997951 
L 219.0126 256.847332 
L 218.565753 257.664115 
L 218.118907 258.451776 
L 217.67206 259.211133 
L 217.225214 259.943999 
L 216.778368 260.651161 
L 216.331521 261.334948 
L 215.884675 261.996085 
L 215.437828 262.719698 
L 214.990982 263.430338 
L 214.544136 264.118903 
L 214.097289 264.784879 
L 213.650443 265.430352 
L 213.203596 266.056108 
L 212.75675 266.662873 
L 212.309904 267.251283 
L 211.863057 267.868512 
L 211.416211 268.502977 
L 210.969364 269.119117 
L 210.522518 269.717567 
L 210.075672 270.298931 
L 209.628825 270.863875 
L 209.181979 271.413033 
L 208.735132 271.946346 
L 208.288286 272.500766 
L 207.84144 273.076173 
L 207.394593 273.636096 
L 206.947747 274.181082 
L 206.5009 274.711764 
L 206.054054 275.227235 
L 205.607208 275.729309 
L 205.160361 276.218532 
L 204.713515 276.738448 
L 204.266668 277.26538 
L 203.819822 277.779158 
L 203.372976 278.279388 
L 202.926129 278.766585 
L 202.479283 279.242048 
L 202.032436 279.704055 
L 201.58559 280.162403 
L 201.138744 280.659911 
L 200.691897 281.145565 
L 200.245051 281.619366 
L 199.798204 282.080919 
L 199.351358 282.531525 
L 198.904512 282.970308 
L 198.457665 283.398355 
L 198.010819 283.858366 
L 197.563972 284.318679 
L 197.117126 284.767803 
L 196.67028 285.206102 
L 196.223433 285.633998 
L 195.776587 286.050917 
L 195.32974 286.458159 
L 194.882894 286.889049 
L 194.436048 287.325775 
" style="fill:none;stroke:#aa3863;stroke-dasharray:5.55,2.4;stroke-dashoffset:0;stroke-width:1.5;"/>
   </g>
   <g id="line2d_17">
    <path clip-path="url(#pb83ce147a9)" d="M 518.4 218.16 
L 221.246832 218.16 
L 221.246832 218.16 
" style="fill:none;stroke:#000000;stroke-dasharray:5.55,2.4;stroke-dashoffset:0;stroke-width:1.5;"/>
   </g>
   <g id="line2d_18">
    <path clip-path="url(#pb83ce147a9)" d="M 221.246832 218.16 
L 102.3856 218.16 
L 102.3856 218.16 
" style="fill:none;stroke:#000000;stroke-linecap:square;stroke-width:1.5;"/>
   </g>
   <g id="line2d_19">
    <path clip-path="url(#pb83ce147a9)" d="M 221.246832 218.16 
L 221.246832 216.227483 
L 220.799985 210.127016 
L 220.353139 206.593593 
L 219.906292 203.848164 
L 219.459446 201.598187 
L 219.0126 199.662646 
L 218.565753 197.951183 
L 218.118907 196.410182 
L 217.67206 195.00753 
L 217.225214 193.716403 
L 216.778368 192.497368 
L 216.331521 191.145308 
L 215.884675 189.885751 
L 215.437828 188.706966 
L 214.990982 187.599063 
L 214.544136 186.556992 
L 214.097289 185.571743 
L 213.650443 184.639474 
L 213.203596 183.756224 
L 212.75675 182.787304 
L 212.309904 181.819594 
L 211.863057 180.898181 
L 211.416211 180.01974 
L 210.969364 179.181819 
L 210.522518 178.382364 
L 210.075672 177.617323 
L 209.628825 176.887238 
L 209.181979 176.09737 
L 208.735132 175.287482 
L 208.288286 174.510828 
L 207.84144 173.765472 
L 207.394593 173.050417 
L 206.947747 172.364453 
L 206.5009 171.705584 
L 206.054054 171.072963 
L 205.607208 170.369369 
L 205.160361 169.665564 
L 204.713515 168.987643 
L 204.266668 168.334852 
L 203.819822 167.706465 
L 203.372976 167.101726 
L 202.926129 166.519787 
L 202.479283 165.941387 
L 202.032436 165.293495 
L 201.58559 164.668524 
L 201.138744 164.06572 
L 200.691897 163.484417 
L 200.245051 162.923858 
L 199.798204 162.383227 
L 199.351358 161.861799 
L 198.904512 161.281191 
L 198.457665 160.700674 
L 198.010819 160.140266 
L 197.563972 159.59897 
L 197.117126 159.075999 
L 196.67028 158.570659 
L 196.223433 158.083855 
L 195.776587 157.555532 
L 195.32974 157.013994 
L 194.882894 156.490177 
L 194.436048 155.984352 
L 193.989201 155.494918 
L 193.542355 155.022176 
L 193.095508 154.565734 
L 192.648662 154.06511 
L 192.201816 153.559346 
L 191.754969 153.069337 
L 191.308123 152.595265 
L 190.861276 152.137068 
L 190.41443 151.693841 
L 189.967584 151.264947 
L 189.520737 150.776057 
L 189.073891 150.302529 
L 188.627044 149.843516 
L 188.180198 149.399955 
L 187.733352 148.970396 
L 187.286505 148.555231 
L 186.839659 148.119654 
L 186.392812 147.661881 
L 185.945966 147.218895 
L 185.49912 146.789245 
L 185.052273 146.374292 
L 184.605427 145.972372 
L 184.15858 145.57269 
L 183.711734 145.131942 
L 183.264843 144.704016 
L 182.817996 144.290061 
L 182.37115 143.889078 
L 181.924304 143.500736 
L 181.477457 143.123764 
L 181.030611 142.699527 
L 180.583764 142.287538 
L 180.136918 141.888823 
L 179.690072 141.502658 
L 179.243225 141.12865 
L 178.796379 140.763018 
L 178.349532 140.355413 
L 177.902686 139.959995 
L 177.45584 139.576491 
L 177.008993 139.205235 
L 176.562147 138.846195 
L 176.1153 138.483588 
L 175.668454 138.092524 
L 175.221608 137.713193 
L 174.774761 137.346201 
L 174.327915 136.990608 
L 173.881068 136.646387 
L 173.434222 136.279273 
L 172.987376 135.905204 
L 172.540529 135.543171 
L 172.093683 135.192296 
L 171.646836 134.852489 
L 171.19999 134.514315 
L 170.753144 134.146657 
L 170.306297 133.790067 
" style="fill:none;stroke:#d97020;stroke-dasharray:5.55,2.4;stroke-dashoffset:0;stroke-width:1.5;"/>
   </g>
   <g id="line2d_20">
    <path clip-path="url(#pb83ce147a9)" d="M 221.246832 218.16 
L 221.246832 220.092517 
L 220.799985 226.192984 
L 220.353139 229.726407 
L 219.906292 232.471836 
L 219.459446 234.721813 
L 219.0126 236.657354 
L 218.565753 238.368817 
L 218.118907 239.909818 
L 217.67206 241.31247 
L 217.225214 242.603597 
L 216.778368 243.822632 
L 216.331521 245.174692 
L 215.884675 246.434249 
L 215.437828 247.613034 
L 214.990982 248.720937 
L 214.544136 249.763008 
L 214.097289 250.748257 
L 213.650443 251.680526 
L 213.203596 252.563776 
L 212.75675 253.532696 
L 212.309904 254.500406 
L 211.863057 255.421819 
L 211.416211 256.30026 
L 210.969364 257.138181 
L 210.522518 257.937636 
L 210.075672 258.702677 
L 209.628825 259.432762 
L 209.181979 260.22263 
L 208.735132 261.032518 
L 208.288286 261.809172 
L 207.84144 262.554528 
L 207.394593 263.269583 
L 206.947747 263.955547 
L 206.5009 264.614416 
L 206.054054 265.247037 
L 205.607208 265.950631 
L 205.160361 266.654436 
L 204.713515 267.332357 
L 204.266668 267.985148 
L 203.819822 268.613535 
L 203.372976 269.218274 
L 202.926129 269.800213 
L 202.479283 270.378613 
L 202.032436 271.026505 
L 201.58559 271.651476 
L 201.138744 272.25428 
L 200.691897 272.835583 
L 200.245051 273.396142 
L 199.798204 273.936773 
L 199.351358 274.458201 
L 198.904512 275.038809 
L 198.457665 275.619326 
L 198.010819 276.179734 
L 197.563972 276.72103 
L 197.117126 277.244001 
L 196.67028 277.749341 
L 196.223433 278.236145 
L 195.776587 278.764468 
L 195.32974 279.306006 
L 194.882894 279.829823 
L 194.436048 280.335648 
L 193.989201 280.825082 
L 193.542355 281.297824 
L 193.095508 281.754266 
L 192.648662 282.25489 
L 192.201816 282.760654 
L 191.754969 283.250663 
L 191.308123 283.724735 
L 190.861276 284.182932 
L 190.41443 284.626159 
L 189.967584 285.055053 
L 189.520737 285.543943 
L 189.073891 286.017471 
L 188.627044 286.476484 
L 188.180198 286.920045 
L 187.733352 287.349604 
L 187.286505 287.764769 
L 186.839659 288.200346 
L 186.392812 288.658119 
L 185.945966 289.101105 
L 185.49912 289.530755 
L 185.052273 289.945708 
L 184.605427 290.347628 
L 184.15858 290.74731 
L 183.711734 291.188058 
L 183.264843 291.615984 
L 182.817996 292.029939 
L 182.37115 292.430922 
L 181.924304 292.819264 
L 181.477457 293.196236 
L 181.030611 293.620473 
L 180.583764 294.032462 
L 180.136918 294.431177 
L 179.690072 294.817342 
L 179.243225 295.19135 
L 178.796379 295.556982 
L 178.349532 295.964587 
L 177.902686 296.360005 
L 177.45584 296.743509 
L 177.008993 297.114765 
L 176.562147 297.473805 
L 176.1153 297.836412 
L 175.668454 298.227476 
L 175.221608 298.606807 
L 174.774761 298.973799 
L 174.327915 299.329392 
L 173.881068 299.673613 
L 173.434222 300.040727 
L 172.987376 300.414796 
L 172.540529 300.776829 
L 172.093683 301.127704 
L 171.646836 301.467511 
L 171.19999 301.805685 
L 170.753144 302.173343 
L 170.306297 302.529933 
" style="fill:none;stroke:#d97020;stroke-dasharray:5.55,2.4;stroke-dashoffset:0;stroke-width:1.5;"/>
   </g>
   <g id="line2d_21">
    <path clip-path="url(#pb83ce147a9)" d="M 518.4 218.16 
L 211.416211 218.16 
L 211.416211 218.16 
" style="fill:none;stroke:#000000;stroke-dasharray:5.55,2.4;stroke-dashoffset:0;stroke-width:1.5;"/>
   </g>
   <g id="line2d_22">
    <path clip-path="url(#pb83ce147a9)" d="M 211.416211 218.16 
L 87.192778 218.16 
L 87.192778 218.16 
" style="fill:none;stroke:#000000;stroke-linecap:square;stroke-width:1.5;"/>
   </g>
   <g id="line2d_23">
    <path clip-path="url(#pb83ce147a9)" d="M 211.416211 218.16 
L 211.416211 212.177439 
L 210.969364 207.943658 
L 210.075672 202.885534 
L 208.288286 195.240046 
L 207.394593 192.394552 
L 204.713515 185.272337 
L 203.372976 182.365759 
L 202.479283 180.551933 
L 201.138744 177.752193 
L 198.457665 172.990421 
L 197.117126 170.802981 
L 195.32974 168.012433 
L 193.989201 166.046198 
L 192.648662 164.172982 
L 190.861276 161.730769 
L 189.520737 159.985679 
L 187.733352 157.763856 
L 186.839659 156.680205 
L 185.052273 154.551732 
L 183.711734 153.011549 
L 181.924304 151.076824 
L 177.45584 146.345957 
L 169.412604 138.775524 
L 160.922523 131.589956 
L 156.007212 127.787488 
L 153.326134 125.76165 
L 145.729745 120.384766 
L 142.154974 117.99121 
L 142.154974 117.99121 
" style="fill:none;stroke:#ef9f07;stroke-dasharray:5.55,2.4;stroke-dashoffset:0;stroke-width:1.5;"/>
   </g>
   <g id="line2d_24">
    <path clip-path="url(#pb83ce147a9)" d="M 211.416211 218.16 
L 211.416211 224.142561 
L 210.969364 228.376342 
L 210.075672 233.434466 
L 208.288286 241.079954 
L 207.394593 243.925448 
L 204.713515 251.047663 
L 203.372976 253.954241 
L 202.479283 255.768067 
L 201.138744 258.567807 
L 198.457665 263.329579 
L 197.117126 265.517019 
L 195.32974 268.307567 
L 193.989201 270.273802 
L 192.648662 272.147018 
L 190.861276 274.589231 
L 189.520737 276.334321 
L 187.733352 278.556144 
L 186.839659 279.639795 
L 185.052273 281.768268 
L 183.711734 283.308451 
L 181.924304 285.243176 
L 177.45584 289.974043 
L 169.412604 297.544476 
L 160.922523 304.730044 
L 156.007212 308.532512 
L 153.326134 310.55835 
L 145.729745 315.935234 
L 142.154974 318.32879 
L 142.154974 318.32879 
" style="fill:none;stroke:#ef9f07;stroke-dasharray:5.55,2.4;stroke-dashoffset:0;stroke-width:1.5;"/>
   </g>
   <g id="line2d_25">
    <path clip-path="url(#pb83ce147a9)" d="M 518.4 218.16 
L 200.245051 218.16 
L 200.245051 218.16 
" style="fill:none;stroke:#000000;stroke-dasharray:5.55,2.4;stroke-dashoffset:0;stroke-width:1.5;"/>
   </g>
   <g id="line2d_26">
    <path clip-path="url(#pb83ce147a9)" d="M 200.245051 218.16 
L 76.468464 218.16 
L 76.468464 218.16 
" style="fill:none;stroke:#000000;stroke-linecap:square;stroke-width:1.5;"/>
   </g>
   <g id="line2d_27">
    <path clip-path="url(#pb83ce147a9)" d="M 200.245051 218.16 
L 200.245051 210.025319 
L 199.798204 206.525553 
L 198.457665 199.650096 
L 197.563972 195.480665 
L 196.67028 192.453944 
L 194.882894 187.2963 
L 193.989201 184.833645 
L 193.095508 182.900311 
L 192.648662 182.105332 
L 191.308123 178.764265 
L 190.41443 177.005235 
L 189.520737 175.566264 
L 188.180198 172.714179 
L 187.286505 171.2489 
L 186.392812 169.837962 
L 185.052273 167.434003 
L 178.796379 158.471683 
L 178.349532 157.945054 
L 177.008993 156.017616 
L 172.540529 150.604233 
L 171.19999 149.156372 
L 164.497294 141.954535 
L 164.050448 141.592169 
L 162.709908 140.138502 
L 161.369369 138.866849 
L 160.02883 137.620871 
L 150.645056 129.25437 
L 149.304516 128.139784 
L 143.495513 123.532055 
L 141.708128 122.181385 
L 136.345926 118.195178 
L 128.302691 112.615959 
L 122.046841 108.518167 
L 119.365763 106.832922 
L 115.790992 104.605141 
L 109.535142 100.839868 
L 109.535142 100.839868 
" style="fill:none;stroke:#449775;stroke-dasharray:5.55,2.4;stroke-dashoffset:0;stroke-width:1.5;"/>
   </g>
   <g id="line2d_28">
    <path clip-path="url(#pb83ce147a9)" d="M 200.245051 218.16 
L 200.245051 226.294681 
L 199.798204 229.794447 
L 198.457665 236.669904 
L 197.563972 240.839335 
L 196.67028 243.866056 
L 194.882894 249.0237 
L 193.989201 251.486355 
L 193.095508 253.419689 
L 192.648662 254.214668 
L 191.308123 257.555735 
L 190.41443 259.314765 
L 189.520737 260.753736 
L 188.180198 263.605821 
L 187.286505 265.0711 
L 186.392812 266.482038 
L 185.052273 268.885997 
L 178.796379 277.848317 
L 178.349532 278.374946 
L 177.008993 280.302384 
L 172.540529 285.715767 
L 171.19999 287.163628 
L 164.497294 294.365465 
L 164.050448 294.727831 
L 162.709908 296.181498 
L 161.369369 297.453151 
L 160.02883 298.699129 
L 150.645056 307.06563 
L 149.304516 308.180216 
L 143.495513 312.787945 
L 141.708128 314.138615 
L 136.345926 318.124822 
L 128.302691 323.704041 
L 122.046841 327.801833 
L 119.365763 329.487078 
L 115.790992 331.714859 
L 109.535142 335.480132 
L 109.535142 335.480132 
" style="fill:none;stroke:#449775;stroke-dasharray:5.55,2.4;stroke-dashoffset:0;stroke-width:1.5;"/>
   </g>
   <g id="line2d_29">
    <path clip-path="url(#pb83ce147a9)" d="M 187.715808 218.16 
L 187.6176 222.392995 
L 187.32744 226.621757 
L 186.662304 232.045906 
L 185.98824 235.950192 
L 184.702608 241.628962 
L 183.068784 247.266907 
L 181.095696 252.854352 
L 178.787808 258.383434 
L 176.743296 262.701706 
L 173.703312 268.38864 
L 171.03384 272.875349 
L 168.150096 277.302485 
L 164.668176 282.207413 
L 161.155008 286.763371 
L 157.204368 291.503491 
L 152.55288 296.665157 
L 147.638016 301.714632 
L 143.531136 305.671838 
L 137.91096 310.754578 
L 132.902352 315.011462 
L 127.73304 319.177325 
L 120.30048 324.818597 
L 114.796368 328.781851 
L 105.372864 335.22781 
L 96.065424 341.322016 
L 85.780368 348.03959 
L 80.807472 351.512533 
L 77.593392 354.025538 
L 75.468528 355.969244 
L 74.084688 357.522794 
L 73.151712 358.89566 
L 72.60264 360.045717 
L 72.24552 361.231034 
L 72.04464 362.736654 
L 72.004464 363.643461 
L 72.004464 363.643461 
" style="fill:none;stroke:#3b7d86;stroke-dasharray:5.55,2.4;stroke-dashoffset:0;stroke-width:1.5;"/>
   </g>
   <g id="line2d_30">
    <path clip-path="url(#pb83ce147a9)" d="M 187.715808 218.16 
L 187.6176 213.927005 
L 187.32744 209.698243 
L 186.662304 204.274094 
L 185.98824 200.369808 
L 184.702608 194.691038 
L 183.068784 189.053093 
L 181.095696 183.465648 
L 178.787808 177.936566 
L 176.743296 173.618294 
L 173.703312 167.93136 
L 171.03384 163.444651 
L 168.150096 159.017515 
L 164.668176 154.112587 
L 161.155008 149.556629 
L 157.204368 144.816509 
L 152.55288 139.654843 
L 147.638016 134.605368 
L 143.531136 130.648162 
L 137.91096 125.565422 
L 132.902352 121.308538 
L 127.73304 117.142675 
L 120.30048 111.501403 
L 114.796368 107.538149 
L 105.372864 101.09219 
L 96.065424 94.997923 
L 85.780368 88.28041 
L 80.807472 84.807346 
L 77.593392 82.294402 
L 75.468528 80.350877 
L 74.084688 78.797146 
L 73.151712 77.42425 
L 72.60264 76.274222 
L 72.24552 75.089117 
L 72.04464 73.583467 
L 72.004464 72.67657 
L 72.004464 72.67657 
" style="fill:none;stroke:#3b7d86;stroke-dasharray:5.55,2.4;stroke-dashoffset:0;stroke-width:1.5;"/>
   </g>
   <g id="line2d_31">
    <path clip-path="url(#pb83ce147a9)" d="M 518.4 218.16 
L 229.623438 218.16 
L 229.623438 218.16 
" style="fill:none;stroke:#000000;stroke-dasharray:5.55,2.4;stroke-dashoffset:0;stroke-width:1.5;"/>
   </g>
   <g id="line2d_32">
    <path clip-path="url(#pb83ce147a9)" d="M 229.623438 218.16 
L 72 218.16 
L 72 218.16 
" style="fill:none;stroke:#000000;stroke-linecap:square;stroke-width:1.5;"/>
   </g>
   <g id="line2d_33">
    <path clip-path="url(#pb83ce147a9)" d="M 518.4 369.36 
L 509.472 369.36 
L 505.008 369.36 
L 500.544 369.36 
L 496.08 369.36 
L 491.616 369.36 
L 487.152 369.36 
L 482.688 369.36 
L 478.224 369.36 
L 473.76 369.36 
L 469.296 369.36 
L 464.832 369.36 
L 460.368 369.36 
L 455.904 369.36 
L 451.44 369.36 
L 446.976 369.36 
L 442.512 369.36 
L 438.048 369.36 
L 433.584 369.36 
L 429.12 369.36 
L 424.656 369.36 
L 420.192 369.36 
L 415.728 369.36 
L 411.264 369.36 
L 406.8 369.36 
L 402.336 369.36 
L 397.872 369.36 
L 393.408 369.36 
L 388.944 369.36 
L 384.48 369.36 
L 380.016 369.36 
L 375.552 369.36 
L 371.088 369.36 
L 366.624 369.36 
L 362.16 369.36 
L 357.696 369.36 
L 353.232 369.36 
L 348.768 369.36 
L 344.304 369.36 
L 339.84 369.36 
L 335.376 369.36 
L 330.912 369.36 
L 326.448 369.36 
L 321.984 369.36 
L 317.52 369.36 
L 313.056 369.36 
L 308.592 369.36 
L 304.128 369.36 
L 299.664 369.36 
L 295.2 369.36 
L 290.736 369.36 
L 286.272 369.36 
L 281.808 369.36 
L 277.344 369.36 
L 272.88 369.36 
L 268.416 369.36 
L 263.952 369.36 
L 259.488 369.36 
L 255.024 369.36 
L 250.56 369.36 
L 246.096 369.36 
L 241.632 369.36 
L 237.168 369.36 
L 232.704 369.36 
L 228.24 369.36 
L 223.776 369.36 
L 219.312 369.36 
L 214.848 369.36 
L 210.384 369.36 
L 205.92 369.36 
L 201.456 369.36 
L 196.992 369.36 
L 192.528 369.36 
L 188.064 369.36 
L 183.6 369.36 
L 179.136 369.36 
L 174.672 369.36 
L 170.208 369.36 
L 165.744 369.36 
L 161.28 369.36 
L 156.816 369.36 
L 152.352 369.36 
L 147.888 369.36 
L 143.424 369.36 
L 138.96 369.36 
L 134.496 369.36 
L 130.032 369.36 
L 125.568 369.36 
L 121.104 369.36 
L 116.64 369.36 
L 112.176 369.36 
L 107.712 369.36 
L 103.248 369.36 
L 98.784 369.36 
L 94.32 369.36 
L 89.856 369.36 
L 85.392 369.36 
L 80.928 369.36 
L 76.464 369.36 
L 72 369.36 
" style="fill:none;stroke:#000000;stroke-linecap:square;stroke-width:1.5;"/>
   </g>
   <g id="line2d_34">
    <path clip-path="url(#pb83ce147a9)" d="M 518.4 66.96 
L 509.472 66.96 
L 505.008 66.96 
L 500.544 66.96 
L 496.08 66.96 
L 491.616 66.96 
L 487.152 66.96 
L 482.688 66.96 
L 478.224 66.96 
L 473.76 66.96 
L 469.296 66.96 
L 464.832 66.96 
L 460.368 66.96 
L 455.904 66.96 
L 451.44 66.96 
L 446.976 66.96 
L 442.512 66.96 
L 438.048 66.96 
L 433.584 66.96 
L 429.12 66.96 
L 424.656 66.96 
L 420.192 66.96 
L 415.728 66.96 
L 411.264 66.96 
L 406.8 66.96 
L 402.336 66.96 
L 397.872 66.96 
L 393.408 66.96 
L 388.944 66.96 
L 384.48 66.96 
L 380.016 66.96 
L 375.552 66.96 
L 371.088 66.96 
L 366.624 66.96 
L 362.16 66.96 
L 357.696 66.96 
L 353.232 66.96 
L 348.768 66.96 
L 344.304 66.96 
L 339.84 66.96 
L 335.376 66.96 
L 330.912 66.96 
L 326.448 66.96 
L 321.984 66.96 
L 317.52 66.96 
L 313.056 66.96 
L 308.592 66.96 
L 304.128 66.96 
L 299.664 66.96 
L 295.2 66.96 
L 290.736 66.96 
L 286.272 66.96 
L 281.808 66.96 
L 277.344 66.96 
L 272.88 66.96 
L 268.416 66.96 
L 263.952 66.96 
L 259.488 66.96 
L 255.024 66.96 
L 250.56 66.96 
L 246.096 66.96 
L 241.632 66.96 
L 237.168 66.96 
L 232.704 66.96 
L 228.24 66.96 
L 223.776 66.96 
L 219.312 66.96 
L 214.848 66.96 
L 210.384 66.96 
L 205.92 66.96 
L 201.456 66.96 
L 196.992 66.96 
L 192.528 66.96 
L 188.064 66.96 
L 183.6 66.96 
L 179.136 66.96 
L 174.672 66.96 
L 170.208 66.96 
L 165.744 66.96 
L 161.28 66.96 
L 156.816 66.96 
L 152.352 66.96 
L 147.888 66.96 
L 143.424 66.96 
L 138.96 66.96 
L 134.496 66.96 
L 130.032 66.96 
L 125.568 66.96 
L 121.104 66.96 
L 116.64 66.96 
L 112.176 66.96 
L 107.712 66.96 
L 103.248 66.96 
L 98.784 66.96 
L 94.32 66.96 
L 89.856 66.96 
L 85.392 66.96 
L 80.928 66.96 
L 76.464 66.96 
L 72 66.96 
" style="fill:none;stroke:#000000;stroke-linecap:square;stroke-width:1.5;"/>
   </g>
   <g id="patch_3">
    <path d="M 72 384.48 
L 72 51.84 
" style="fill:none;stroke:#000000;stroke-linecap:square;stroke-linejoin:miter;stroke-width:0.8;"/>
   </g>
   <g id="patch_4">
    <path d="M 518.4 384.48 
L 518.4 51.84 
" style="fill:none;stroke:#000000;stroke-linecap:square;stroke-linejoin:miter;stroke-width:0.8;"/>
   </g>
   <g id="patch_5">
    <path d="M 72 384.48 
L 518.4 384.48 
" style="fill:none;stroke:#000000;stroke-linecap:square;stroke-linejoin:miter;stroke-width:0.8;"/>
   </g>
   <g id="patch_6">
    <path d="M 72 51.84 
L 518.4 51.84 
" style="fill:none;stroke:#000000;stroke-linecap:square;stroke-linejoin:miter;stroke-width:0.8;"/>
   </g>
   <g id="text_15">
    <!-- Bifurcation diagram for two coupled neurons, $\beta=0.2$ -->
    <g transform="translate(149.78 45.84)scale(0.11 -0.11)">
     <defs>
      <path d="M 19.671875 34.8125 
L 19.671875 8.109375 
L 35.5 8.109375 
Q 43.453125 8.109375 47.28125 11.40625 
Q 51.125 14.703125 51.125 21.484375 
Q 51.125 28.328125 47.28125 31.5625 
Q 43.453125 34.8125 35.5 34.8125 
z
M 19.671875 64.796875 
L 19.671875 42.828125 
L 34.28125 42.828125 
Q 41.5 42.828125 45.03125 45.53125 
Q 48.578125 48.25 48.578125 53.8125 
Q 48.578125 59.328125 45.03125 62.0625 
Q 41.5 64.796875 34.28125 64.796875 
z
M 9.8125 72.90625 
L 35.015625 72.90625 
Q 46.296875 72.90625 52.390625 68.21875 
Q 58.5 63.53125 58.5 54.890625 
Q 58.5 48.1875 55.375 44.234375 
Q 52.25 40.28125 46.1875 39.3125 
Q 53.46875 37.75 57.5 32.78125 
Q 61.53125 27.828125 61.53125 20.40625 
Q 61.53125 10.640625 54.890625 5.3125 
Q 48.25 0 35.984375 0 
L 9.8125 0 
z
" id="DejaVuSans-66"/>
      <path d="M 30.609375 48.390625 
Q 23.390625 48.390625 19.1875 42.75 
Q 14.984375 37.109375 14.984375 27.296875 
Q 14.984375 17.484375 19.15625 11.84375 
Q 23.34375 6.203125 30.609375 6.203125 
Q 37.796875 6.203125 41.984375 11.859375 
Q 46.1875 17.53125 46.1875 27.296875 
Q 46.1875 37.015625 41.984375 42.703125 
Q 37.796875 48.390625 30.609375 48.390625 
z
M 30.609375 56 
Q 42.328125 56 49.015625 48.375 
Q 55.71875 40.765625 55.71875 27.296875 
Q 55.71875 13.875 49.015625 6.21875 
Q 42.328125 -1.421875 30.609375 -1.421875 
Q 18.84375 -1.421875 12.171875 6.21875 
Q 5.515625 13.875 5.515625 27.296875 
Q 5.515625 40.765625 12.171875 48.375 
Q 18.84375 56 30.609375 56 
z
" id="DejaVuSans-111"/>
      <path d="M 45.40625 46.390625 
L 45.40625 75.984375 
L 54.390625 75.984375 
L 54.390625 0 
L 45.40625 0 
L 45.40625 8.203125 
Q 42.578125 3.328125 38.25 0.953125 
Q 33.9375 -1.421875 27.875 -1.421875 
Q 17.96875 -1.421875 11.734375 6.484375 
Q 5.515625 14.40625 5.515625 27.296875 
Q 5.515625 40.1875 11.734375 48.09375 
Q 17.96875 56 27.875 56 
Q 33.9375 56 38.25 53.625 
Q 42.578125 51.265625 45.40625 46.390625 
z
M 14.796875 27.296875 
Q 14.796875 17.390625 18.875 11.75 
Q 22.953125 6.109375 30.078125 6.109375 
Q 37.203125 6.109375 41.296875 11.75 
Q 45.40625 17.390625 45.40625 27.296875 
Q 45.40625 37.203125 41.296875 42.84375 
Q 37.203125 48.484375 30.078125 48.484375 
Q 22.953125 48.484375 18.875 42.84375 
Q 14.796875 37.203125 14.796875 27.296875 
z
" id="DejaVuSans-100"/>
      <path d="M 45.40625 27.984375 
Q 45.40625 37.75 41.375 43.109375 
Q 37.359375 48.484375 30.078125 48.484375 
Q 22.859375 48.484375 18.828125 43.109375 
Q 14.796875 37.75 14.796875 27.984375 
Q 14.796875 18.265625 18.828125 12.890625 
Q 22.859375 7.515625 30.078125 7.515625 
Q 37.359375 7.515625 41.375 12.890625 
Q 45.40625 18.265625 45.40625 27.984375 
z
M 54.390625 6.78125 
Q 54.390625 -7.171875 48.1875 -13.984375 
Q 42 -20.796875 29.203125 -20.796875 
Q 24.46875 -20.796875 20.265625 -20.09375 
Q 16.0625 -19.390625 12.109375 -17.921875 
L 12.109375 -9.1875 
Q 16.0625 -11.328125 19.921875 -12.34375 
Q 23.78125 -13.375 27.78125 -13.375 
Q 36.625 -13.375 41.015625 -8.765625 
Q 45.40625 -4.15625 45.40625 5.171875 
L 45.40625 9.625 
Q 42.625 4.78125 38.28125 2.390625 
Q 33.9375 0 27.875 0 
Q 17.828125 0 11.671875 7.65625 
Q 5.515625 15.328125 5.515625 27.984375 
Q 5.515625 40.671875 11.671875 48.328125 
Q 17.828125 56 27.875 56 
Q 33.9375 56 38.28125 53.609375 
Q 42.625 51.21875 45.40625 46.390625 
L 45.40625 54.6875 
L 54.390625 54.6875 
z
" id="DejaVuSans-103"/>
      <path d="M 52 44.1875 
Q 55.375 50.25 60.0625 53.125 
Q 64.75 56 71.09375 56 
Q 79.640625 56 84.28125 50.015625 
Q 88.921875 44.046875 88.921875 33.015625 
L 88.921875 0 
L 79.890625 0 
L 79.890625 32.71875 
Q 79.890625 40.578125 77.09375 44.375 
Q 74.3125 48.1875 68.609375 48.1875 
Q 61.625 48.1875 57.5625 43.546875 
Q 53.515625 38.921875 53.515625 30.90625 
L 53.515625 0 
L 44.484375 0 
L 44.484375 32.71875 
Q 44.484375 40.625 41.703125 44.40625 
Q 38.921875 48.1875 33.109375 48.1875 
Q 26.21875 48.1875 22.15625 43.53125 
Q 18.109375 38.875 18.109375 30.90625 
L 18.109375 0 
L 9.078125 0 
L 9.078125 54.6875 
L 18.109375 54.6875 
L 18.109375 46.1875 
Q 21.1875 51.21875 25.484375 53.609375 
Q 29.78125 56 35.6875 56 
Q 41.65625 56 45.828125 52.96875 
Q 50 49.953125 52 44.1875 
z
" id="DejaVuSans-109"/>
      <path d="M 4.203125 54.6875 
L 13.1875 54.6875 
L 24.421875 12.015625 
L 35.59375 54.6875 
L 46.1875 54.6875 
L 57.421875 12.015625 
L 68.609375 54.6875 
L 77.59375 54.6875 
L 63.28125 0 
L 52.6875 0 
L 40.921875 44.828125 
L 29.109375 0 
L 18.5 0 
z
" id="DejaVuSans-119"/>
      <path d="M 18.109375 8.203125 
L 18.109375 -20.796875 
L 9.078125 -20.796875 
L 9.078125 54.6875 
L 18.109375 54.6875 
L 18.109375 46.390625 
Q 20.953125 51.265625 25.265625 53.625 
Q 29.59375 56 35.59375 56 
Q 45.5625 56 51.78125 48.09375 
Q 58.015625 40.1875 58.015625 27.296875 
Q 58.015625 14.40625 51.78125 6.484375 
Q 45.5625 -1.421875 35.59375 -1.421875 
Q 29.59375 -1.421875 25.265625 0.953125 
Q 20.953125 3.328125 18.109375 8.203125 
z
M 48.6875 27.296875 
Q 48.6875 37.203125 44.609375 42.84375 
Q 40.53125 48.484375 33.40625 48.484375 
Q 26.265625 48.484375 22.1875 42.84375 
Q 18.109375 37.203125 18.109375 27.296875 
Q 18.109375 17.390625 22.1875 11.75 
Q 26.265625 6.109375 33.40625 6.109375 
Q 40.53125 6.109375 44.609375 11.75 
Q 48.6875 17.390625 48.6875 27.296875 
z
" id="DejaVuSans-112"/>
      <path d="M 9.421875 75.984375 
L 18.40625 75.984375 
L 18.40625 0 
L 9.421875 0 
z
" id="DejaVuSans-108"/>
      <path d="M 11.71875 12.40625 
L 22.015625 12.40625 
L 22.015625 4 
L 14.015625 -11.625 
L 7.71875 -11.625 
L 11.71875 4 
z
" id="DejaVuSans-44"/>
      <path d="M 13.625 3.375 
L 8.9375 -20.796875 
L -0.09375 -20.796875 
L 14.5 54.34375 
Q 18.84375 76.609375 39.65625 76.609375 
Q 60.75 76.609375 57.171875 57.8125 
Q 54.734375 44.4375 45.21875 39.546875 
Q 58.015625 35.15625 55.515625 22.125 
Q 51.125 -1.078125 27.484375 -1.03125 
Q 17.140625 -0.984375 13.625 3.375 
z
M 15.921875 15.09375 
Q 19.671875 6.59375 29.296875 6.640625 
Q 43.359375 6.640625 46.34375 21.96875 
Q 49.03125 35.75 26.171875 34.671875 
L 27.78125 42.96875 
Q 45.453125 42.671875 48.53125 58.59375 
Q 50.640625 69.34375 39.203125 69.28125 
Q 26.421875 69.28125 23.484375 54.046875 
z
" id="DejaVuSans-Oblique-946"/>
      <path d="M 10.59375 45.40625 
L 73.1875 45.40625 
L 73.1875 37.203125 
L 10.59375 37.203125 
z
M 10.59375 25.484375 
L 73.1875 25.484375 
L 73.1875 17.1875 
L 10.59375 17.1875 
z
" id="DejaVuSans-61"/>
     </defs>
     <use transform="translate(0 0.390625)" xlink:href="#DejaVuSans-66"/>
     <use transform="translate(68.603516 0.390625)" xlink:href="#DejaVuSans-105"/>
     <use transform="translate(96.386719 0.390625)" xlink:href="#DejaVuSans-102"/>
     <use transform="translate(131.591797 0.390625)" xlink:href="#DejaVuSans-117"/>
     <use transform="translate(194.970703 0.390625)" xlink:href="#DejaVuSans-114"/>
     <use transform="translate(236.083984 0.390625)" xlink:href="#DejaVuSans-99"/>
     <use transform="translate(291.064453 0.390625)" xlink:href="#DejaVuSans-97"/>
     <use transform="translate(352.34375 0.390625)" xlink:href="#DejaVuSans-116"/>
     <use transform="translate(391.552734 0.390625)" xlink:href="#DejaVuSans-105"/>
     <use transform="translate(419.335938 0.390625)" xlink:href="#DejaVuSans-111"/>
     <use transform="translate(480.517578 0.390625)" xlink:href="#DejaVuSans-110"/>
     <use transform="translate(543.896484 0.390625)" xlink:href="#DejaVuSans-32"/>
     <use transform="translate(575.683594 0.390625)" xlink:href="#DejaVuSans-100"/>
     <use transform="translate(639.160156 0.390625)" xlink:href="#DejaVuSans-105"/>
     <use transform="translate(666.943359 0.390625)" xlink:href="#DejaVuSans-97"/>
     <use transform="translate(728.222656 0.390625)" xlink:href="#DejaVuSans-103"/>
     <use transform="translate(791.699219 0.390625)" xlink:href="#DejaVuSans-114"/>
     <use transform="translate(832.8125 0.390625)" xlink:href="#DejaVuSans-97"/>
     <use transform="translate(894.091797 0.390625)" xlink:href="#DejaVuSans-109"/>
     <use transform="translate(991.503906 0.390625)" xlink:href="#DejaVuSans-32"/>
     <use transform="translate(1023.291016 0.390625)" xlink:href="#DejaVuSans-102"/>
     <use transform="translate(1058.496094 0.390625)" xlink:href="#DejaVuSans-111"/>
     <use transform="translate(1119.677734 0.390625)" xlink:href="#DejaVuSans-114"/>
     <use transform="translate(1160.791016 0.390625)" xlink:href="#DejaVuSans-32"/>
     <use transform="translate(1192.578125 0.390625)" xlink:href="#DejaVuSans-116"/>
     <use transform="translate(1231.787109 0.390625)" xlink:href="#DejaVuSans-119"/>
     <use transform="translate(1313.574219 0.390625)" xlink:href="#DejaVuSans-111"/>
     <use transform="translate(1374.755859 0.390625)" xlink:href="#DejaVuSans-32"/>
     <use transform="translate(1406.542969 0.390625)" xlink:href="#DejaVuSans-99"/>
     <use transform="translate(1461.523438 0.390625)" xlink:href="#DejaVuSans-111"/>
     <use transform="translate(1522.705078 0.390625)" xlink:href="#DejaVuSans-117"/>
     <use transform="translate(1586.083984 0.390625)" xlink:href="#DejaVuSans-112"/>
     <use transform="translate(1649.560547 0.390625)" xlink:href="#DejaVuSans-108"/>
     <use transform="translate(1677.34375 0.390625)" xlink:href="#DejaVuSans-101"/>
     <use transform="translate(1738.867188 0.390625)" xlink:href="#DejaVuSans-100"/>
     <use transform="translate(1802.34375 0.390625)" xlink:href="#DejaVuSans-32"/>
     <use transform="translate(1834.130859 0.390625)" xlink:href="#DejaVuSans-110"/>
     <use transform="translate(1897.509766 0.390625)" xlink:href="#DejaVuSans-101"/>
     <use transform="translate(1959.033203 0.390625)" xlink:href="#DejaVuSans-117"/>
     <use transform="translate(2022.412109 0.390625)" xlink:href="#DejaVuSans-114"/>
     <use transform="translate(2063.525391 0.390625)" xlink:href="#DejaVuSans-111"/>
     <use transform="translate(2124.707031 0.390625)" xlink:href="#DejaVuSans-110"/>
     <use transform="translate(2188.085938 0.390625)" xlink:href="#DejaVuSans-115"/>
     <use transform="translate(2240.185547 0.390625)" xlink:href="#DejaVuSans-44"/>
     <use transform="translate(2271.972656 0.390625)" xlink:href="#DejaVuSans-32"/>
     <use transform="translate(2303.759766 0.390625)" xlink:href="#DejaVuSans-Oblique-946"/>
     <use transform="translate(2387.060547 0.390625)" xlink:href="#DejaVuSans-61"/>
     <use transform="translate(2490.332031 0.390625)" xlink:href="#DejaVuSans-48"/>
     <use transform="translate(2553.955078 0.390625)" xlink:href="#DejaVuSans-46"/>
     <use transform="translate(2580.242188 0.390625)" xlink:href="#DejaVuSans-50"/>
    </g>
   </g>
   <g id="legend_1">
    <g id="patch_7">
     <path d="M 444 149.96575 
L 511.4 149.96575 
Q 513.4 149.96575 513.4 147.96575 
L 513.4 75.472 
Q 513.4 73.472 511.4 73.472 
L 444 73.472 
Q 442 73.472 442 75.472 
L 442 147.96575 
Q 442 149.96575 444 149.96575 
z
" style="fill:#ffffff;opacity:0.8;stroke:#cccccc;stroke-linejoin:miter;"/>
    </g>
    <g id="line2d_35">
     <path d="M 446 81.570437 
L 466 81.570437 
" style="fill:none;stroke:#aa3863;stroke-dasharray:5.55,2.4;stroke-dashoffset:0;stroke-width:1.5;"/>
    </g>
    <g id="line2d_36"/>
    <g id="text_16">
     <!-- $\gamma = 0.4$ -->
     <g transform="translate(474 85.070437)scale(0.1 -0.1)">
      <defs>
       <path d="M 23.296875 46.09375 
L 28.71875 12.3125 
L 54 54.6875 
L 63.53125 54.6875 
L 30.8125 0 
L 26.765625 -20.796875 
L 17.78125 -20.796875 
L 21.828125 0 
L 15.4375 40.828125 
Q 14.453125 46.96875 9.8125 46.96875 
L 7.421875 46.96875 
L 8.890625 54.6875 
L 12.3125 54.6875 
Q 21.921875 54.6875 23.296875 46.09375 
z
" id="DejaVuSans-Oblique-947"/>
      </defs>
      <use transform="translate(0 0.78125)" xlink:href="#DejaVuSans-Oblique-947"/>
      <use transform="translate(78.662109 0.78125)" xlink:href="#DejaVuSans-61"/>
      <use transform="translate(181.933594 0.78125)" xlink:href="#DejaVuSans-48"/>
      <use transform="translate(245.556641 0.78125)" xlink:href="#DejaVuSans-46"/>
      <use transform="translate(277.34375 0.78125)" xlink:href="#DejaVuSans-52"/>
     </g>
    </g>
    <g id="line2d_37">
     <path d="M 446 96.268875 
L 466 96.268875 
" style="fill:none;stroke:#d97020;stroke-dasharray:5.55,2.4;stroke-dashoffset:0;stroke-width:1.5;"/>
    </g>
    <g id="line2d_38"/>
    <g id="text_17">
     <!-- $\gamma = 0.3$ -->
     <g transform="translate(474 99.768875)scale(0.1 -0.1)">
      <defs>
       <path d="M 40.578125 39.3125 
Q 47.65625 37.796875 51.625 33 
Q 55.609375 28.21875 55.609375 21.1875 
Q 55.609375 10.40625 48.1875 4.484375 
Q 40.765625 -1.421875 27.09375 -1.421875 
Q 22.515625 -1.421875 17.65625 -0.515625 
Q 12.796875 0.390625 7.625 2.203125 
L 7.625 11.71875 
Q 11.71875 9.328125 16.59375 8.109375 
Q 21.484375 6.890625 26.8125 6.890625 
Q 36.078125 6.890625 40.9375 10.546875 
Q 45.796875 14.203125 45.796875 21.1875 
Q 45.796875 27.640625 41.28125 31.265625 
Q 36.765625 34.90625 28.71875 34.90625 
L 20.21875 34.90625 
L 20.21875 43.015625 
L 29.109375 43.015625 
Q 36.375 43.015625 40.234375 45.921875 
Q 44.09375 48.828125 44.09375 54.296875 
Q 44.09375 59.90625 40.109375 62.90625 
Q 36.140625 65.921875 28.71875 65.921875 
Q 24.65625 65.921875 20.015625 65.03125 
Q 15.375 64.15625 9.8125 62.3125 
L 9.8125 71.09375 
Q 15.4375 72.65625 20.34375 73.4375 
Q 25.25 74.21875 29.59375 74.21875 
Q 40.828125 74.21875 47.359375 69.109375 
Q 53.90625 64.015625 53.90625 55.328125 
Q 53.90625 49.265625 50.4375 45.09375 
Q 46.96875 40.921875 40.578125 39.3125 
z
" id="DejaVuSans-51"/>
      </defs>
      <use transform="translate(0 0.78125)" xlink:href="#DejaVuSans-Oblique-947"/>
      <use transform="translate(78.662109 0.78125)" xlink:href="#DejaVuSans-61"/>
      <use transform="translate(181.933594 0.78125)" xlink:href="#DejaVuSans-48"/>
      <use transform="translate(245.556641 0.78125)" xlink:href="#DejaVuSans-46"/>
      <use transform="translate(277.34375 0.78125)" xlink:href="#DejaVuSans-51"/>
     </g>
    </g>
    <g id="line2d_39">
     <path d="M 446 110.967312 
L 466 110.967312 
" style="fill:none;stroke:#ef9f07;stroke-dasharray:5.55,2.4;stroke-dashoffset:0;stroke-width:1.5;"/>
    </g>
    <g id="line2d_40"/>
    <g id="text_18">
     <!-- $\gamma = 0.2$ -->
     <g transform="translate(474 114.467312)scale(0.1 -0.1)">
      <use transform="translate(0 0.78125)" xlink:href="#DejaVuSans-Oblique-947"/>
      <use transform="translate(78.662109 0.78125)" xlink:href="#DejaVuSans-61"/>
      <use transform="translate(181.933594 0.78125)" xlink:href="#DejaVuSans-48"/>
      <use transform="translate(245.556641 0.78125)" xlink:href="#DejaVuSans-46"/>
      <use transform="translate(271.84375 0.78125)" xlink:href="#DejaVuSans-50"/>
     </g>
    </g>
    <g id="line2d_41">
     <path d="M 446 125.66575 
L 466 125.66575 
" style="fill:none;stroke:#449775;stroke-dasharray:5.55,2.4;stroke-dashoffset:0;stroke-width:1.5;"/>
    </g>
    <g id="line2d_42"/>
    <g id="text_19">
     <!-- $\gamma = 0.1$ -->
     <g transform="translate(474 129.16575)scale(0.1 -0.1)">
      <use transform="translate(0 0.78125)" xlink:href="#DejaVuSans-Oblique-947"/>
      <use transform="translate(78.662109 0.78125)" xlink:href="#DejaVuSans-61"/>
      <use transform="translate(181.933594 0.78125)" xlink:href="#DejaVuSans-48"/>
      <use transform="translate(245.556641 0.78125)" xlink:href="#DejaVuSans-46"/>
      <use transform="translate(277.34375 0.78125)" xlink:href="#DejaVuSans-49"/>
     </g>
    </g>
    <g id="line2d_43">
     <path d="M 446 140.36575 
L 466 140.36575 
" style="fill:none;stroke:#3b7d86;stroke-dasharray:5.55,2.4;stroke-dashoffset:0;stroke-width:1.5;"/>
    </g>
    <g id="line2d_44"/>
    <g id="text_20">
     <!-- $\gamma$ weak -->
     <g transform="translate(474 143.86575)scale(0.1 -0.1)">
      <defs>
       <path d="M 9.078125 75.984375 
L 18.109375 75.984375 
L 18.109375 31.109375 
L 44.921875 54.6875 
L 56.390625 54.6875 
L 27.390625 29.109375 
L 57.625 0 
L 45.90625 0 
L 18.109375 26.703125 
L 18.109375 0 
L 9.078125 0 
z
" id="DejaVuSans-107"/>
      </defs>
      <use transform="translate(0 0.015625)" xlink:href="#DejaVuSans-Oblique-947"/>
      <use transform="translate(59.179688 0.015625)" xlink:href="#DejaVuSans-32"/>
      <use transform="translate(90.966797 0.015625)" xlink:href="#DejaVuSans-119"/>
      <use transform="translate(172.753906 0.015625)" xlink:href="#DejaVuSans-101"/>
      <use transform="translate(234.277344 0.015625)" xlink:href="#DejaVuSans-97"/>
      <use transform="translate(295.556641 0.015625)" xlink:href="#DejaVuSans-107"/>
     </g>
    </g>
   </g>
  </g>
 </g>
 <defs>
  <clipPath id="pb83ce147a9">
   <rect height="332.64" width="446.4" x="72" y="51.84"/>
  </clipPath>
 </defs>
</svg>
