<?xml version="1.0" encoding="utf-8" standalone="no"?>
<!DOCTYPE svg PUBLIC "-//W3C//DTD SVG 1.1//EN"
  "http://www.w3.org/Graphics/SVG/1.1/DTD/svg11.dtd">
<!-- Created with matplotlib (https://matplotlib.org/) -->
<svg height="432pt" version="1.1" viewBox="0 0 576 432" width="576pt" xmlns="http://www.w3.org/2000/svg" xmlns:xlink="http://www.w3.org/1999/xlink">
 <metadata>
  <rdf:RDF xmlns:cc="http://creativecommons.org/ns#" xmlns:dc="http://purl.org/dc/elements/1.1/" xmlns:rdf="http://www.w3.org/1999/02/22-rdf-syntax-ns#">
   <cc:Work>
    <dc:type rdf:resource="http://purl.org/dc/dcmitype/StillImage"/>
    <dc:date>2021-07-11T14:31:44.697805</dc:date>
    <dc:format>image/svg+xml</dc:format>
    <dc:creator>
     <cc:Agent>
      <dc:title>Matplotlib v3.3.3, https://matplotlib.org/</dc:title>
     </cc:Agent>
    </dc:creator>
   </cc:Work>
  </rdf:RDF>
 </metadata>
 <defs>
  <style type="text/css">*{stroke-linecap:butt;stroke-linejoin:round;}</style>
 </defs>
 <g id="figure_1">
  <g id="patch_1">
   <path d="M 0 432 
L 576 432 
L 576 0 
L 0 0 
z
" style="fill:#ffffff;"/>
  </g>
  <g id="axes_1">
   <g id="patch_2">
    <path d="M 55.82 379.72 
L 556.515 379.72 
L 556.515 38.76 
L 55.82 38.76 
z
" style="fill:#ffffff;"/>
   </g>
   <g id="matplotlib.axis_1">
    <g id="xtick_1">
     <g id="line2d_1">
      <defs>
       <path d="M 0 0 
L 0 3.5 
" id="m7e6679e656" style="stroke:#000000;stroke-width:0.8;"/>
      </defs>
      <g>
       <use style="stroke:#000000;stroke-width:0.8;" x="55.82" xlink:href="#m7e6679e656" y="379.72"/>
      </g>
     </g>
     <g id="text_1">
      <!-- 1.0 -->
      <g transform="translate(47.073281 395.078281)scale(0.11 -0.11)">
       <defs>
        <path d="M 12.40625 8.296875 
L 28.515625 8.296875 
L 28.515625 63.921875 
L 10.984375 60.40625 
L 10.984375 69.390625 
L 28.421875 72.90625 
L 38.28125 72.90625 
L 38.28125 8.296875 
L 54.390625 8.296875 
L 54.390625 0 
L 12.40625 0 
z
" id="DejaVuSans-49"/>
        <path d="M 10.6875 12.40625 
L 21 12.40625 
L 21 0 
L 10.6875 0 
z
" id="DejaVuSans-46"/>
        <path d="M 31.78125 66.40625 
Q 24.171875 66.40625 20.328125 58.90625 
Q 16.5 51.421875 16.5 36.375 
Q 16.5 21.390625 20.328125 13.890625 
Q 24.171875 6.390625 31.78125 6.390625 
Q 39.453125 6.390625 43.28125 13.890625 
Q 47.125 21.390625 47.125 36.375 
Q 47.125 51.421875 43.28125 58.90625 
Q 39.453125 66.40625 31.78125 66.40625 
z
M 31.78125 74.21875 
Q 44.046875 74.21875 50.515625 64.515625 
Q 56.984375 54.828125 56.984375 36.375 
Q 56.984375 17.96875 50.515625 8.265625 
Q 44.046875 -1.421875 31.78125 -1.421875 
Q 19.53125 -1.421875 13.0625 8.265625 
Q 6.59375 17.96875 6.59375 36.375 
Q 6.59375 54.828125 13.0625 64.515625 
Q 19.53125 74.21875 31.78125 74.21875 
z
" id="DejaVuSans-48"/>
       </defs>
       <use xlink:href="#DejaVuSans-49"/>
       <use x="63.623047" xlink:href="#DejaVuSans-46"/>
       <use x="95.410156" xlink:href="#DejaVuSans-48"/>
      </g>
     </g>
    </g>
    <g id="xtick_2">
     <g id="line2d_2">
      <g>
       <use style="stroke:#000000;stroke-width:0.8;" x="155.959" xlink:href="#m7e6679e656" y="379.72"/>
      </g>
     </g>
     <g id="text_2">
      <!-- 1.2 -->
      <g transform="translate(147.212281 395.078281)scale(0.11 -0.11)">
       <defs>
        <path d="M 19.1875 8.296875 
L 53.609375 8.296875 
L 53.609375 0 
L 7.328125 0 
L 7.328125 8.296875 
Q 12.9375 14.109375 22.625 23.890625 
Q 32.328125 33.6875 34.8125 36.53125 
Q 39.546875 41.84375 41.421875 45.53125 
Q 43.3125 49.21875 43.3125 52.78125 
Q 43.3125 58.59375 39.234375 62.25 
Q 35.15625 65.921875 28.609375 65.921875 
Q 23.96875 65.921875 18.8125 64.3125 
Q 13.671875 62.703125 7.8125 59.421875 
L 7.8125 69.390625 
Q 13.765625 71.78125 18.9375 73 
Q 24.125 74.21875 28.421875 74.21875 
Q 39.75 74.21875 46.484375 68.546875 
Q 53.21875 62.890625 53.21875 53.421875 
Q 53.21875 48.921875 51.53125 44.890625 
Q 49.859375 40.875 45.40625 35.40625 
Q 44.1875 33.984375 37.640625 27.21875 
Q 31.109375 20.453125 19.1875 8.296875 
z
" id="DejaVuSans-50"/>
       </defs>
       <use xlink:href="#DejaVuSans-49"/>
       <use x="63.623047" xlink:href="#DejaVuSans-46"/>
       <use x="95.410156" xlink:href="#DejaVuSans-50"/>
      </g>
     </g>
    </g>
    <g id="xtick_3">
     <g id="line2d_3">
      <g>
       <use style="stroke:#000000;stroke-width:0.8;" x="256.098" xlink:href="#m7e6679e656" y="379.72"/>
      </g>
     </g>
     <g id="text_3">
      <!-- 1.4 -->
      <g transform="translate(247.351281 395.078281)scale(0.11 -0.11)">
       <defs>
        <path d="M 37.796875 64.3125 
L 12.890625 25.390625 
L 37.796875 25.390625 
z
M 35.203125 72.90625 
L 47.609375 72.90625 
L 47.609375 25.390625 
L 58.015625 25.390625 
L 58.015625 17.1875 
L 47.609375 17.1875 
L 47.609375 0 
L 37.796875 0 
L 37.796875 17.1875 
L 4.890625 17.1875 
L 4.890625 26.703125 
z
" id="DejaVuSans-52"/>
       </defs>
       <use xlink:href="#DejaVuSans-49"/>
       <use x="63.623047" xlink:href="#DejaVuSans-46"/>
       <use x="95.410156" xlink:href="#DejaVuSans-52"/>
      </g>
     </g>
    </g>
    <g id="xtick_4">
     <g id="line2d_4">
      <g>
       <use style="stroke:#000000;stroke-width:0.8;" x="356.237" xlink:href="#m7e6679e656" y="379.72"/>
      </g>
     </g>
     <g id="text_4">
      <!-- 1.6 -->
      <g transform="translate(347.490281 395.078281)scale(0.11 -0.11)">
       <defs>
        <path d="M 33.015625 40.375 
Q 26.375 40.375 22.484375 35.828125 
Q 18.609375 31.296875 18.609375 23.390625 
Q 18.609375 15.53125 22.484375 10.953125 
Q 26.375 6.390625 33.015625 6.390625 
Q 39.65625 6.390625 43.53125 10.953125 
Q 47.40625 15.53125 47.40625 23.390625 
Q 47.40625 31.296875 43.53125 35.828125 
Q 39.65625 40.375 33.015625 40.375 
z
M 52.59375 71.296875 
L 52.59375 62.3125 
Q 48.875 64.0625 45.09375 64.984375 
Q 41.3125 65.921875 37.59375 65.921875 
Q 27.828125 65.921875 22.671875 59.328125 
Q 17.53125 52.734375 16.796875 39.40625 
Q 19.671875 43.65625 24.015625 45.921875 
Q 28.375 48.1875 33.59375 48.1875 
Q 44.578125 48.1875 50.953125 41.515625 
Q 57.328125 34.859375 57.328125 23.390625 
Q 57.328125 12.15625 50.6875 5.359375 
Q 44.046875 -1.421875 33.015625 -1.421875 
Q 20.359375 -1.421875 13.671875 8.265625 
Q 6.984375 17.96875 6.984375 36.375 
Q 6.984375 53.65625 15.1875 63.9375 
Q 23.390625 74.21875 37.203125 74.21875 
Q 40.921875 74.21875 44.703125 73.484375 
Q 48.484375 72.75 52.59375 71.296875 
z
" id="DejaVuSans-54"/>
       </defs>
       <use xlink:href="#DejaVuSans-49"/>
       <use x="63.623047" xlink:href="#DejaVuSans-46"/>
       <use x="95.410156" xlink:href="#DejaVuSans-54"/>
      </g>
     </g>
    </g>
    <g id="xtick_5">
     <g id="line2d_5">
      <g>
       <use style="stroke:#000000;stroke-width:0.8;" x="456.376" xlink:href="#m7e6679e656" y="379.72"/>
      </g>
     </g>
     <g id="text_5">
      <!-- 1.8 -->
      <g transform="translate(447.629281 395.078281)scale(0.11 -0.11)">
       <defs>
        <path d="M 31.78125 34.625 
Q 24.75 34.625 20.71875 30.859375 
Q 16.703125 27.09375 16.703125 20.515625 
Q 16.703125 13.921875 20.71875 10.15625 
Q 24.75 6.390625 31.78125 6.390625 
Q 38.8125 6.390625 42.859375 10.171875 
Q 46.921875 13.96875 46.921875 20.515625 
Q 46.921875 27.09375 42.890625 30.859375 
Q 38.875 34.625 31.78125 34.625 
z
M 21.921875 38.8125 
Q 15.578125 40.375 12.03125 44.71875 
Q 8.5 49.078125 8.5 55.328125 
Q 8.5 64.0625 14.71875 69.140625 
Q 20.953125 74.21875 31.78125 74.21875 
Q 42.671875 74.21875 48.875 69.140625 
Q 55.078125 64.0625 55.078125 55.328125 
Q 55.078125 49.078125 51.53125 44.71875 
Q 48 40.375 41.703125 38.8125 
Q 48.828125 37.15625 52.796875 32.3125 
Q 56.78125 27.484375 56.78125 20.515625 
Q 56.78125 9.90625 50.3125 4.234375 
Q 43.84375 -1.421875 31.78125 -1.421875 
Q 19.734375 -1.421875 13.25 4.234375 
Q 6.78125 9.90625 6.78125 20.515625 
Q 6.78125 27.484375 10.78125 32.3125 
Q 14.796875 37.15625 21.921875 38.8125 
z
M 18.3125 54.390625 
Q 18.3125 48.734375 21.84375 45.5625 
Q 25.390625 42.390625 31.78125 42.390625 
Q 38.140625 42.390625 41.71875 45.5625 
Q 45.3125 48.734375 45.3125 54.390625 
Q 45.3125 60.0625 41.71875 63.234375 
Q 38.140625 66.40625 31.78125 66.40625 
Q 25.390625 66.40625 21.84375 63.234375 
Q 18.3125 60.0625 18.3125 54.390625 
z
" id="DejaVuSans-56"/>
       </defs>
       <use xlink:href="#DejaVuSans-49"/>
       <use x="63.623047" xlink:href="#DejaVuSans-46"/>
       <use x="95.410156" xlink:href="#DejaVuSans-56"/>
      </g>
     </g>
    </g>
    <g id="xtick_6">
     <g id="line2d_6">
      <g>
       <use style="stroke:#000000;stroke-width:0.8;" x="556.515" xlink:href="#m7e6679e656" y="379.72"/>
      </g>
     </g>
     <g id="text_6">
      <!-- 2.0 -->
      <g transform="translate(547.768281 395.078281)scale(0.11 -0.11)">
       <use xlink:href="#DejaVuSans-50"/>
       <use x="63.623047" xlink:href="#DejaVuSans-46"/>
       <use x="95.410156" xlink:href="#DejaVuSans-48"/>
      </g>
     </g>
    </g>
    <g id="text_7">
     <!-- Current $I$ -->
     <g transform="translate(275.2975 418.00375)scale(0.14 -0.14)">
      <defs>
       <path d="M 64.40625 67.28125 
L 64.40625 56.890625 
Q 59.421875 61.53125 53.78125 63.8125 
Q 48.140625 66.109375 41.796875 66.109375 
Q 29.296875 66.109375 22.65625 58.46875 
Q 16.015625 50.828125 16.015625 36.375 
Q 16.015625 21.96875 22.65625 14.328125 
Q 29.296875 6.6875 41.796875 6.6875 
Q 48.140625 6.6875 53.78125 8.984375 
Q 59.421875 11.28125 64.40625 15.921875 
L 64.40625 5.609375 
Q 59.234375 2.09375 53.4375 0.328125 
Q 47.65625 -1.421875 41.21875 -1.421875 
Q 24.65625 -1.421875 15.125 8.703125 
Q 5.609375 18.84375 5.609375 36.375 
Q 5.609375 53.953125 15.125 64.078125 
Q 24.65625 74.21875 41.21875 74.21875 
Q 47.75 74.21875 53.53125 72.484375 
Q 59.328125 70.75 64.40625 67.28125 
z
" id="DejaVuSans-67"/>
       <path d="M 8.5 21.578125 
L 8.5 54.6875 
L 17.484375 54.6875 
L 17.484375 21.921875 
Q 17.484375 14.15625 20.5 10.265625 
Q 23.53125 6.390625 29.59375 6.390625 
Q 36.859375 6.390625 41.078125 11.03125 
Q 45.3125 15.671875 45.3125 23.6875 
L 45.3125 54.6875 
L 54.296875 54.6875 
L 54.296875 0 
L 45.3125 0 
L 45.3125 8.40625 
Q 42.046875 3.421875 37.71875 1 
Q 33.40625 -1.421875 27.6875 -1.421875 
Q 18.265625 -1.421875 13.375 4.4375 
Q 8.5 10.296875 8.5 21.578125 
z
M 31.109375 56 
z
" id="DejaVuSans-117"/>
       <path d="M 41.109375 46.296875 
Q 39.59375 47.171875 37.8125 47.578125 
Q 36.03125 48 33.890625 48 
Q 26.265625 48 22.1875 43.046875 
Q 18.109375 38.09375 18.109375 28.8125 
L 18.109375 0 
L 9.078125 0 
L 9.078125 54.6875 
L 18.109375 54.6875 
L 18.109375 46.1875 
Q 20.953125 51.171875 25.484375 53.578125 
Q 30.03125 56 36.53125 56 
Q 37.453125 56 38.578125 55.875 
Q 39.703125 55.765625 41.0625 55.515625 
z
" id="DejaVuSans-114"/>
       <path d="M 56.203125 29.59375 
L 56.203125 25.203125 
L 14.890625 25.203125 
Q 15.484375 15.921875 20.484375 11.0625 
Q 25.484375 6.203125 34.421875 6.203125 
Q 39.59375 6.203125 44.453125 7.46875 
Q 49.3125 8.734375 54.109375 11.28125 
L 54.109375 2.78125 
Q 49.265625 0.734375 44.1875 -0.34375 
Q 39.109375 -1.421875 33.890625 -1.421875 
Q 20.796875 -1.421875 13.15625 6.1875 
Q 5.515625 13.8125 5.515625 26.8125 
Q 5.515625 40.234375 12.765625 48.109375 
Q 20.015625 56 32.328125 56 
Q 43.359375 56 49.78125 48.890625 
Q 56.203125 41.796875 56.203125 29.59375 
z
M 47.21875 32.234375 
Q 47.125 39.59375 43.09375 43.984375 
Q 39.0625 48.390625 32.421875 48.390625 
Q 24.90625 48.390625 20.390625 44.140625 
Q 15.875 39.890625 15.1875 32.171875 
z
" id="DejaVuSans-101"/>
       <path d="M 54.890625 33.015625 
L 54.890625 0 
L 45.90625 0 
L 45.90625 32.71875 
Q 45.90625 40.484375 42.875 44.328125 
Q 39.84375 48.1875 33.796875 48.1875 
Q 26.515625 48.1875 22.3125 43.546875 
Q 18.109375 38.921875 18.109375 30.90625 
L 18.109375 0 
L 9.078125 0 
L 9.078125 54.6875 
L 18.109375 54.6875 
L 18.109375 46.1875 
Q 21.34375 51.125 25.703125 53.5625 
Q 30.078125 56 35.796875 56 
Q 45.21875 56 50.046875 50.171875 
Q 54.890625 44.34375 54.890625 33.015625 
z
" id="DejaVuSans-110"/>
       <path d="M 18.3125 70.21875 
L 18.3125 54.6875 
L 36.8125 54.6875 
L 36.8125 47.703125 
L 18.3125 47.703125 
L 18.3125 18.015625 
Q 18.3125 11.328125 20.140625 9.421875 
Q 21.96875 7.515625 27.59375 7.515625 
L 36.8125 7.515625 
L 36.8125 0 
L 27.59375 0 
Q 17.1875 0 13.234375 3.875 
Q 9.28125 7.765625 9.28125 18.015625 
L 9.28125 47.703125 
L 2.6875 47.703125 
L 2.6875 54.6875 
L 9.28125 54.6875 
L 9.28125 70.21875 
z
" id="DejaVuSans-116"/>
       <path id="DejaVuSans-32"/>
       <path d="M 16.890625 72.90625 
L 26.8125 72.90625 
L 12.59375 0 
L 2.6875 0 
z
" id="DejaVuSans-Oblique-73"/>
      </defs>
      <use transform="translate(0 0.78125)" xlink:href="#DejaVuSans-67"/>
      <use transform="translate(69.824219 0.78125)" xlink:href="#DejaVuSans-117"/>
      <use transform="translate(133.203125 0.78125)" xlink:href="#DejaVuSans-114"/>
      <use transform="translate(174.316406 0.78125)" xlink:href="#DejaVuSans-114"/>
      <use transform="translate(215.429688 0.78125)" xlink:href="#DejaVuSans-101"/>
      <use transform="translate(276.953125 0.78125)" xlink:href="#DejaVuSans-110"/>
      <use transform="translate(340.332031 0.78125)" xlink:href="#DejaVuSans-116"/>
      <use transform="translate(379.541016 0.78125)" xlink:href="#DejaVuSans-32"/>
      <use transform="translate(411.328125 0.78125)" xlink:href="#DejaVuSans-Oblique-73"/>
     </g>
    </g>
   </g>
   <g id="matplotlib.axis_2">
    <g id="ytick_1">
     <g id="line2d_7">
      <defs>
       <path d="M 0 0 
L -3.5 0 
" id="m64a69cb7e3" style="stroke:#000000;stroke-width:0.8;"/>
      </defs>
      <g>
       <use style="stroke:#000000;stroke-width:0.8;" x="55.82" xlink:href="#m64a69cb7e3" y="364.221818"/>
      </g>
     </g>
     <g id="text_8">
      <!-- 0.0 -->
      <g transform="translate(31.326563 368.400959)scale(0.11 -0.11)">
       <use xlink:href="#DejaVuSans-48"/>
       <use x="63.623047" xlink:href="#DejaVuSans-46"/>
       <use x="95.410156" xlink:href="#DejaVuSans-48"/>
      </g>
     </g>
    </g>
    <g id="ytick_2">
     <g id="line2d_8">
      <g>
       <use style="stroke:#000000;stroke-width:0.8;" x="55.82" xlink:href="#m64a69cb7e3" y="302.229091"/>
      </g>
     </g>
     <g id="text_9">
      <!-- 0.2 -->
      <g transform="translate(31.326563 306.408232)scale(0.11 -0.11)">
       <use xlink:href="#DejaVuSans-48"/>
       <use x="63.623047" xlink:href="#DejaVuSans-46"/>
       <use x="95.410156" xlink:href="#DejaVuSans-50"/>
      </g>
     </g>
    </g>
    <g id="ytick_3">
     <g id="line2d_9">
      <g>
       <use style="stroke:#000000;stroke-width:0.8;" x="55.82" xlink:href="#m64a69cb7e3" y="240.236364"/>
      </g>
     </g>
     <g id="text_10">
      <!-- 0.4 -->
      <g transform="translate(31.326563 244.415504)scale(0.11 -0.11)">
       <use xlink:href="#DejaVuSans-48"/>
       <use x="63.623047" xlink:href="#DejaVuSans-46"/>
       <use x="95.410156" xlink:href="#DejaVuSans-52"/>
      </g>
     </g>
    </g>
    <g id="ytick_4">
     <g id="line2d_10">
      <g>
       <use style="stroke:#000000;stroke-width:0.8;" x="55.82" xlink:href="#m64a69cb7e3" y="178.243636"/>
      </g>
     </g>
     <g id="text_11">
      <!-- 0.6 -->
      <g transform="translate(31.326563 182.422777)scale(0.11 -0.11)">
       <use xlink:href="#DejaVuSans-48"/>
       <use x="63.623047" xlink:href="#DejaVuSans-46"/>
       <use x="95.410156" xlink:href="#DejaVuSans-54"/>
      </g>
     </g>
    </g>
    <g id="ytick_5">
     <g id="line2d_11">
      <g>
       <use style="stroke:#000000;stroke-width:0.8;" x="55.82" xlink:href="#m64a69cb7e3" y="116.250909"/>
      </g>
     </g>
     <g id="text_12">
      <!-- 0.8 -->
      <g transform="translate(31.326563 120.43005)scale(0.11 -0.11)">
       <use xlink:href="#DejaVuSans-48"/>
       <use x="63.623047" xlink:href="#DejaVuSans-46"/>
       <use x="95.410156" xlink:href="#DejaVuSans-56"/>
      </g>
     </g>
    </g>
    <g id="ytick_6">
     <g id="line2d_12">
      <g>
       <use style="stroke:#000000;stroke-width:0.8;" x="55.82" xlink:href="#m64a69cb7e3" y="54.258182"/>
      </g>
     </g>
     <g id="text_13">
      <!-- 1.0 -->
      <g transform="translate(31.326563 58.437322)scale(0.11 -0.11)">
       <use xlink:href="#DejaVuSans-49"/>
       <use x="63.623047" xlink:href="#DejaVuSans-46"/>
       <use x="95.410156" xlink:href="#DejaVuSans-48"/>
      </g>
     </g>
    </g>
    <g id="text_14">
     <!-- Phase Difference $\phi$ -->
     <g transform="translate(24.386563 275.6)rotate(-90)scale(0.14 -0.14)">
      <defs>
       <path d="M 19.671875 64.796875 
L 19.671875 37.40625 
L 32.078125 37.40625 
Q 38.96875 37.40625 42.71875 40.96875 
Q 46.484375 44.53125 46.484375 51.125 
Q 46.484375 57.671875 42.71875 61.234375 
Q 38.96875 64.796875 32.078125 64.796875 
z
M 9.8125 72.90625 
L 32.078125 72.90625 
Q 44.34375 72.90625 50.609375 67.359375 
Q 56.890625 61.8125 56.890625 51.125 
Q 56.890625 40.328125 50.609375 34.8125 
Q 44.34375 29.296875 32.078125 29.296875 
L 19.671875 29.296875 
L 19.671875 0 
L 9.8125 0 
z
" id="DejaVuSans-80"/>
       <path d="M 54.890625 33.015625 
L 54.890625 0 
L 45.90625 0 
L 45.90625 32.71875 
Q 45.90625 40.484375 42.875 44.328125 
Q 39.84375 48.1875 33.796875 48.1875 
Q 26.515625 48.1875 22.3125 43.546875 
Q 18.109375 38.921875 18.109375 30.90625 
L 18.109375 0 
L 9.078125 0 
L 9.078125 75.984375 
L 18.109375 75.984375 
L 18.109375 46.1875 
Q 21.34375 51.125 25.703125 53.5625 
Q 30.078125 56 35.796875 56 
Q 45.21875 56 50.046875 50.171875 
Q 54.890625 44.34375 54.890625 33.015625 
z
" id="DejaVuSans-104"/>
       <path d="M 34.28125 27.484375 
Q 23.390625 27.484375 19.1875 25 
Q 14.984375 22.515625 14.984375 16.5 
Q 14.984375 11.71875 18.140625 8.90625 
Q 21.296875 6.109375 26.703125 6.109375 
Q 34.1875 6.109375 38.703125 11.40625 
Q 43.21875 16.703125 43.21875 25.484375 
L 43.21875 27.484375 
z
M 52.203125 31.203125 
L 52.203125 0 
L 43.21875 0 
L 43.21875 8.296875 
Q 40.140625 3.328125 35.546875 0.953125 
Q 30.953125 -1.421875 24.3125 -1.421875 
Q 15.921875 -1.421875 10.953125 3.296875 
Q 6 8.015625 6 15.921875 
Q 6 25.140625 12.171875 29.828125 
Q 18.359375 34.515625 30.609375 34.515625 
L 43.21875 34.515625 
L 43.21875 35.40625 
Q 43.21875 41.609375 39.140625 45 
Q 35.0625 48.390625 27.6875 48.390625 
Q 23 48.390625 18.546875 47.265625 
Q 14.109375 46.140625 10.015625 43.890625 
L 10.015625 52.203125 
Q 14.9375 54.109375 19.578125 55.046875 
Q 24.21875 56 28.609375 56 
Q 40.484375 56 46.34375 49.84375 
Q 52.203125 43.703125 52.203125 31.203125 
z
" id="DejaVuSans-97"/>
       <path d="M 44.28125 53.078125 
L 44.28125 44.578125 
Q 40.484375 46.53125 36.375 47.5 
Q 32.28125 48.484375 27.875 48.484375 
Q 21.1875 48.484375 17.84375 46.4375 
Q 14.5 44.390625 14.5 40.28125 
Q 14.5 37.15625 16.890625 35.375 
Q 19.28125 33.59375 26.515625 31.984375 
L 29.59375 31.296875 
Q 39.15625 29.25 43.1875 25.515625 
Q 47.21875 21.78125 47.21875 15.09375 
Q 47.21875 7.46875 41.1875 3.015625 
Q 35.15625 -1.421875 24.609375 -1.421875 
Q 20.21875 -1.421875 15.453125 -0.5625 
Q 10.6875 0.296875 5.421875 2 
L 5.421875 11.28125 
Q 10.40625 8.6875 15.234375 7.390625 
Q 20.0625 6.109375 24.8125 6.109375 
Q 31.15625 6.109375 34.5625 8.28125 
Q 37.984375 10.453125 37.984375 14.40625 
Q 37.984375 18.0625 35.515625 20.015625 
Q 33.0625 21.96875 24.703125 23.78125 
L 21.578125 24.515625 
Q 13.234375 26.265625 9.515625 29.90625 
Q 5.8125 33.546875 5.8125 39.890625 
Q 5.8125 47.609375 11.28125 51.796875 
Q 16.75 56 26.8125 56 
Q 31.78125 56 36.171875 55.265625 
Q 40.578125 54.546875 44.28125 53.078125 
z
" id="DejaVuSans-115"/>
       <path d="M 19.671875 64.796875 
L 19.671875 8.109375 
L 31.59375 8.109375 
Q 46.6875 8.109375 53.6875 14.9375 
Q 60.6875 21.78125 60.6875 36.53125 
Q 60.6875 51.171875 53.6875 57.984375 
Q 46.6875 64.796875 31.59375 64.796875 
z
M 9.8125 72.90625 
L 30.078125 72.90625 
Q 51.265625 72.90625 61.171875 64.09375 
Q 71.09375 55.28125 71.09375 36.53125 
Q 71.09375 17.671875 61.125 8.828125 
Q 51.171875 0 30.078125 0 
L 9.8125 0 
z
" id="DejaVuSans-68"/>
       <path d="M 9.421875 54.6875 
L 18.40625 54.6875 
L 18.40625 0 
L 9.421875 0 
z
M 9.421875 75.984375 
L 18.40625 75.984375 
L 18.40625 64.59375 
L 9.421875 64.59375 
z
" id="DejaVuSans-105"/>
       <path d="M 37.109375 75.984375 
L 37.109375 68.5 
L 28.515625 68.5 
Q 23.6875 68.5 21.796875 66.546875 
Q 19.921875 64.59375 19.921875 59.515625 
L 19.921875 54.6875 
L 34.71875 54.6875 
L 34.71875 47.703125 
L 19.921875 47.703125 
L 19.921875 0 
L 10.890625 0 
L 10.890625 47.703125 
L 2.296875 47.703125 
L 2.296875 54.6875 
L 10.890625 54.6875 
L 10.890625 58.5 
Q 10.890625 67.625 15.140625 71.796875 
Q 19.390625 75.984375 28.609375 75.984375 
z
" id="DejaVuSans-102"/>
       <path d="M 48.78125 52.59375 
L 48.78125 44.1875 
Q 44.96875 46.296875 41.140625 47.34375 
Q 37.3125 48.390625 33.40625 48.390625 
Q 24.65625 48.390625 19.8125 42.84375 
Q 14.984375 37.3125 14.984375 27.296875 
Q 14.984375 17.28125 19.8125 11.734375 
Q 24.65625 6.203125 33.40625 6.203125 
Q 37.3125 6.203125 41.140625 7.25 
Q 44.96875 8.296875 48.78125 10.40625 
L 48.78125 2.09375 
Q 45.015625 0.34375 40.984375 -0.53125 
Q 36.96875 -1.421875 32.421875 -1.421875 
Q 20.0625 -1.421875 12.78125 6.34375 
Q 5.515625 14.109375 5.515625 27.296875 
Q 5.515625 40.671875 12.859375 48.328125 
Q 20.21875 56 33.015625 56 
Q 37.15625 56 41.109375 55.140625 
Q 45.0625 54.296875 48.78125 52.59375 
z
" id="DejaVuSans-99"/>
       <path d="M 46.734375 75.984375 
L 42.78125 55.8125 
Q 52.546875 55.8125 57.5625 48.34375 
Q 62.75 40.71875 60.15625 27.296875 
Q 57.515625 13.875 49.359375 6.25 
Q 41.453125 -1.21875 31.6875 -1.21875 
L 27.875 -20.796875 
L 18.953125 -20.796875 
L 22.75 -1.21875 
Q 13.03125 -1.21875 7.953125 6.25 
Q 2.78125 13.875 5.421875 27.296875 
Q 8.015625 40.71875 16.15625 48.34375 
Q 24.125 55.8125 33.84375 55.8125 
L 37.796875 75.984375 
z
M 33.25 6.78125 
Q 38.765625 6.78125 43.5 11.8125 
Q 48.6875 17.4375 50.6875 27.296875 
Q 52.640625 37.0625 49.515625 42.78125 
Q 46.734375 47.796875 41.21875 47.796875 
z
M 24.3125 6.78125 
L 32.28125 47.796875 
Q 26.8125 47.796875 22.078125 42.78125 
Q 16.75 37.0625 14.890625 27.296875 
Q 13.03125 17.4375 16.0625 11.8125 
Q 18.796875 6.78125 24.3125 6.78125 
z
" id="DejaVuSans-Oblique-981"/>
      </defs>
      <use transform="translate(0 0.015625)" xlink:href="#DejaVuSans-80"/>
      <use transform="translate(60.302734 0.015625)" xlink:href="#DejaVuSans-104"/>
      <use transform="translate(123.681641 0.015625)" xlink:href="#DejaVuSans-97"/>
      <use transform="translate(184.960938 0.015625)" xlink:href="#DejaVuSans-115"/>
      <use transform="translate(237.060547 0.015625)" xlink:href="#DejaVuSans-101"/>
      <use transform="translate(298.583984 0.015625)" xlink:href="#DejaVuSans-32"/>
      <use transform="translate(330.371094 0.015625)" xlink:href="#DejaVuSans-68"/>
      <use transform="translate(407.373047 0.015625)" xlink:href="#DejaVuSans-105"/>
      <use transform="translate(435.15625 0.015625)" xlink:href="#DejaVuSans-102"/>
      <use transform="translate(470.361328 0.015625)" xlink:href="#DejaVuSans-102"/>
      <use transform="translate(505.566406 0.015625)" xlink:href="#DejaVuSans-101"/>
      <use transform="translate(567.089844 0.015625)" xlink:href="#DejaVuSans-114"/>
      <use transform="translate(608.203125 0.015625)" xlink:href="#DejaVuSans-101"/>
      <use transform="translate(669.726562 0.015625)" xlink:href="#DejaVuSans-110"/>
      <use transform="translate(733.105469 0.015625)" xlink:href="#DejaVuSans-99"/>
      <use transform="translate(788.085938 0.015625)" xlink:href="#DejaVuSans-101"/>
      <use transform="translate(849.609375 0.015625)" xlink:href="#DejaVuSans-32"/>
      <use transform="translate(881.396484 0.015625)" xlink:href="#DejaVuSans-Oblique-981"/>
     </g>
    </g>
   </g>
   <g id="line2d_13">
    <path clip-path="url(#p742a5a2fea)" d="M 185.610158 209.24 
L 185.500005 213.578871 
L 185.204595 217.604059 
L 184.673858 221.930841 
L 183.672468 227.475161 
L 182.315585 232.990654 
L 181.018785 237.255133 
L 179.511693 241.493266 
L 177.799316 245.701333 
L 175.741459 250.172868 
L 173.45829 254.601938 
L 171.645774 257.821221 
L 168.982077 262.168461 
L 165.912817 266.748793 
L 162.60823 271.266823 
L 158.853017 275.995319 
L 154.61213 280.917851 
L 149.855528 286.017063 
L 144.548161 291.273736 
L 138.950391 296.414483 
L 133.978489 300.691671 
L 129.131762 304.639988 
L 123.814381 308.753515 
L 116.359032 314.187178 
L 109.319261 319.021681 
L 101.383245 324.187535 
L 91.819971 330.103811 
L 82.08646 335.910763 
L 68.457542 344.128859 
L 64.35685 346.847953 
L 61.472847 348.990329 
L 59.435018 350.754921 
L 57.927926 352.363849 
L 56.93655 353.786303 
L 56.370765 354.975572 
L 56.030292 356.19686 
L 55.850042 357.742586 
L 55.825007 358.362297 
L 55.825007 358.362297 
" style="fill:none;stroke:#aa3863;stroke-dasharray:5.55,2.4;stroke-dashoffset:0;stroke-width:1.5;"/>
   </g>
   <g id="line2d_14">
    <path clip-path="url(#p742a5a2fea)" d="M 185.610158 209.24 
L 185.500005 204.901129 
L 185.204595 200.875941 
L 184.673858 196.549159 
L 183.672468 191.004839 
L 182.315585 185.489346 
L 181.018785 181.224867 
L 179.511693 176.986734 
L 177.799316 172.778667 
L 175.741459 168.307132 
L 173.45829 163.878062 
L 171.645774 160.658779 
L 168.982077 156.311539 
L 165.912817 151.731207 
L 162.60823 147.213177 
L 158.853017 142.484681 
L 154.61213 137.562149 
L 149.855528 132.462937 
L 144.548161 127.206264 
L 138.950391 122.065517 
L 133.978489 117.788329 
L 129.131762 113.840012 
L 123.814381 109.726485 
L 116.359032 104.292822 
L 109.319261 99.458319 
L 101.383245 94.292465 
L 91.819971 88.376189 
L 82.08646 82.56933 
L 68.457542 74.351265 
L 64.35685 71.631954 
L 61.472847 69.489795 
L 59.435018 67.725172 
L 57.927926 66.116151 
L 56.93655 64.693728 
L 56.370765 63.504397 
L 56.030292 62.28314 
L 55.850042 60.737352 
L 55.825007 60.117734 
L 55.825007 60.117734 
" style="fill:none;stroke:#aa3863;stroke-dasharray:5.55,2.4;stroke-dashoffset:0;stroke-width:1.5;"/>
   </g>
   <g id="line2d_15">
    <path clip-path="url(#p742a5a2fea)" d="M 228.244337 209.24 
L 228.134184 213.268597 
L 227.723614 217.910923 
L 227.012627 222.5393 
L 226.001224 227.146289 
L 224.98982 230.812229 
L 223.457693 235.364045 
L 222.035719 238.977291 
L 219.857696 243.750421 
L 217.869937 247.586531 
L 215.6819 251.381726 
L 213.118341 255.419932 
L 209.503323 260.531543 
L 206.238792 264.718531 
L 202.753955 268.836088 
L 198.798464 273.149232 
L 194.617661 277.378376 
L 189.650767 282.03372 
L 184.423511 286.578407 
L 178.330053 291.49753 
L 171.630753 296.513981 
L 165.657462 300.692911 
L 159.839386 304.53832 
L 153.500588 308.503995 
L 146.626045 312.573507 
L 137.313118 317.75176 
L 128.120358 322.541938 
L 117.911187 327.543201 
L 108.698399 331.81884 
L 96.471427 337.21977 
L 77.895643 345.116652 
L 68.517625 349.251597 
L 63.806085 351.557882 
L 60.841971 353.227036 
L 58.82417 354.602469 
L 57.652544 355.608425 
L 56.721251 356.705076 
L 56.235577 357.585931 
L 55.955188 358.499982 
L 55.860056 359.117213 
L 55.860056 359.117213 
" style="fill:none;stroke:#d97020;stroke-dasharray:5.55,2.4;stroke-dashoffset:0;stroke-width:1.5;"/>
   </g>
   <g id="line2d_16">
    <path clip-path="url(#p742a5a2fea)" d="M 228.244337 209.24 
L 228.134184 205.211403 
L 227.723614 200.569077 
L 227.012627 195.9407 
L 226.001224 191.333711 
L 224.98982 187.667771 
L 223.457693 183.115955 
L 222.035719 179.502709 
L 219.857696 174.729579 
L 217.869937 170.893469 
L 215.6819 167.098274 
L 213.118341 163.060068 
L 209.503323 157.948457 
L 206.238792 153.761469 
L 202.753955 149.643912 
L 198.798464 145.330768 
L 194.617661 141.101624 
L 189.650767 136.44628 
L 184.423511 131.901593 
L 178.330053 126.98247 
L 171.630753 121.966019 
L 165.657462 117.787089 
L 159.839386 113.94168 
L 153.500588 109.976005 
L 146.626045 105.906493 
L 137.313118 100.72824 
L 128.120358 95.938062 
L 117.911187 90.936799 
L 108.698399 86.66116 
L 96.881997 81.437653 
L 78.721789 73.715219 
L 68.517625 69.228496 
L 63.806085 66.922056 
L 60.841971 65.252902 
L 58.82417 63.877593 
L 57.652544 62.871451 
L 56.721251 61.7748 
L 56.235577 60.894193 
L 55.955188 59.980111 
L 55.860056 59.362663 
L 55.860056 59.362663 
" style="fill:none;stroke:#d97020;stroke-dasharray:5.55,2.4;stroke-dashoffset:0;stroke-width:1.5;"/>
   </g>
   <g id="line2d_17">
    <path clip-path="url(#p742a5a2fea)" d="M 303.243441 209.24 
L 303.243441 209.549964 
L 303.238434 209.859927 
L 303.22842 210.479855 
L 303.183358 211.719399 
L 303.023135 214.197558 
L 302.667642 217.289446 
L 302.141912 220.372034 
L 301.450953 223.441914 
L 300.594765 226.495986 
L 299.578354 229.53115 
L 298.406727 232.544306 
L 297.074879 235.532975 
L 295.597829 238.494678 
L 293.975577 241.426934 
L 292.21313 244.327884 
L 290.310489 247.195357 
L 288.277668 250.028425 
L 286.119672 252.825227 
L 283.84151 255.585763 
L 281.443181 258.307864 
L 278.929692 260.991219 
L 276.316064 263.634899 
L 273.592283 266.238283 
L 270.778377 268.801373 
L 267.864332 271.323547 
L 264.865169 273.805735 
L 261.780888 276.247009 
L 258.611489 278.647677 
L 255.366985 281.00836 
L 252.047377 283.329368 
L 248.657672 285.610701 
L 245.202877 287.853287 
L 241.682991 290.057129 
L 238.098015 292.222845 
L 234.457962 294.350745 
L 230.762833 296.44176 
L 227.012627 298.495889 
L 223.207345 300.514062 
L 219.362008 302.49659 
L 215.461594 304.444091 
L 211.526131 306.357497 
L 207.540599 308.236806 
L 203.520018 310.08295 
L 199.459382 311.896237 
L 195.35869 313.677598 
L 191.227956 315.427653 
L 187.062173 317.146711 
L 182.861342 318.835393 
L 178.63047 320.494628 
L 174.369555 322.124417 
L 170.083606 323.725999 
L 165.772622 325.299684 
L 161.431596 326.846093 
L 157.065536 328.365535 
L 152.679448 329.859249 
L 148.268325 331.327857 
L 143.837174 332.771668 
L 139.385996 334.191394 
L 134.919796 335.588121 
L 130.428562 336.962562 
L 125.927314 338.315615 
L 121.406038 339.648273 
L 116.869741 340.961651 
L 112.318424 342.257082 
L 107.757092 343.536023 
L 103.185747 344.800303 
L 98.609395 346.052091 
L 94.018022 347.294208 
L 89.426648 348.530219 
L 84.835275 349.765052 
L 80.248909 351.005651 
L 75.672557 352.26246 
L 71.116232 353.552343 
L 66.614984 354.905985 
L 62.213875 356.389006 
L 58.143225 358.190143 
L 56.551015 359.388121 
L 56.275632 359.736334 
L 55.890097 360.266093 
" style="fill:none;stroke:#ef9f07;stroke-dasharray:5.55,2.4;stroke-dashoffset:0;stroke-width:1.5;"/>
   </g>
   <g id="line2d_18">
    <path clip-path="url(#p742a5a2fea)" d="M 303.243441 209.24 
L 303.243441 208.930036 
L 303.238434 208.620073 
L 303.22842 208.000145 
L 303.183358 206.760601 
L 303.023135 204.282442 
L 302.667642 201.190554 
L 302.141912 198.107966 
L 301.450953 195.038086 
L 300.594765 191.984014 
L 299.578354 188.94885 
L 298.406727 185.935694 
L 297.074879 182.947025 
L 295.597829 179.985322 
L 293.975577 177.053066 
L 292.21313 174.152116 
L 290.310489 171.284643 
L 288.277668 168.451575 
L 286.119672 165.654773 
L 283.84151 162.894237 
L 281.443181 160.172136 
L 278.929692 157.488781 
L 276.316064 154.845101 
L 273.592283 152.241717 
L 270.778377 149.678627 
L 267.864332 147.155833 
L 264.865169 144.673645 
L 261.775881 142.232061 
L 258.611489 139.830773 
L 255.366985 137.46947 
L 252.047377 135.148152 
L 248.657672 132.8662 
L 245.19787 130.623613 
L 241.677984 128.419462 
L 238.093008 126.253746 
L 234.452955 124.125845 
L 230.752819 122.034831 
L 227.002614 119.980702 
L 223.202338 117.962838 
L 219.351994 115.980311 
L 215.456587 114.032809 
L 211.516117 112.119404 
L 207.535592 110.240404 
L 203.510004 108.394261 
L 199.449368 106.580664 
L 195.353683 104.799303 
L 191.217942 103.049558 
L 187.05216 101.330499 
L 182.856335 99.641818 
L 178.625463 97.982892 
L 174.364548 96.352793 
L 170.078599 94.751521 
L 165.762608 93.177836 
L 161.426589 91.631427 
L 157.060529 90.111986 
L 152.674441 88.618271 
L 148.263318 87.149973 
L 143.832167 85.706162 
L 139.380989 84.286219 
L 134.909782 82.889523 
L 130.423555 81.515144 
L 125.9173 80.162153 
L 121.396024 78.829619 
L 116.859727 77.516303 
L 112.313417 76.220965 
L 107.752085 74.942055 
L 103.18074 73.677714 
L 98.599381 72.42577 
L 94.013015 71.183746 
L 89.421641 69.947921 
L 84.830268 68.713026 
L 80.238895 67.472242 
L 75.662543 66.215649 
L 71.111225 64.92558 
L 66.60497 63.571659 
L 62.208868 62.088173 
L 58.133211 60.286355 
L 56.52598 59.095784 
L 56.1805 58.719488 
L 55.845035 58.346912 
" style="fill:none;stroke:#ef9f07;stroke-dasharray:5.55,2.4;stroke-dashoffset:0;stroke-width:1.5;"/>
   </g>
   <g id="line2d_19">
    <path clip-path="url(#p742a5a2fea)" d="M 480.799902 209.24 
L 480.699763 212.028743 
L 480.349277 215.12063 
L 479.758456 218.198259 
L 478.827164 221.558265 
L 477.735649 224.5832 
L 476.128418 228.16731 
L 474.726472 230.817499 
L 472.593511 234.295601 
L 470.400467 237.422824 
L 467.766811 240.764852 
L 464.892822 244.030629 
L 461.533159 247.481454 
L 457.647765 251.09501 
L 453.827462 254.355207 
L 448.855561 258.244631 
L 443.623298 262.00046 
L 439.202161 264.957203 
L 433.569343 268.48304 
L 428.116774 271.680005 
L 420.996891 275.584927 
L 414.052252 279.142689 
L 406.146278 282.943153 
L 397.63947 286.770584 
L 388.121258 290.782754 
L 377.5616 294.944326 
L 367.242276 298.756568 
L 357.64896 302.104176 
L 345.712391 306.032345 
L 333.169981 309.90937 
L 320.021731 313.727812 
L 306.743299 317.359036 
L 292.408401 321.046673 
L 276.546384 324.875344 
L 262.446813 328.077888 
L 246.830136 331.422086 
L 231.123333 334.589419 
L 211.486075 338.294228 
L 192.699999 341.596549 
L 174.314479 344.62071 
L 153.415469 347.830259 
L 132.441356 350.836472 
L 106.014674 354.374831 
L 66.845304 359.558105 
L 61.052263 360.541682 
L 58.23335 361.185709 
L 56.916522 361.630848 
L 56.185507 362.054335 
L 55.875076 362.297514 
L 55.875076 362.297514 
" style="fill:none;stroke:#449775;stroke-dasharray:5.55,2.4;stroke-dashoffset:0;stroke-width:1.5;"/>
   </g>
   <g id="line2d_20">
    <path clip-path="url(#p742a5a2fea)" d="M 480.799902 209.24 
L 480.699763 206.451257 
L 480.349277 203.35937 
L 479.758456 200.281741 
L 478.827164 196.921735 
L 477.735649 193.8968 
L 476.128418 190.31269 
L 474.726472 187.662501 
L 472.593511 184.184399 
L 470.400467 181.057176 
L 467.766811 177.715148 
L 464.892822 174.449371 
L 461.533159 170.998546 
L 457.647765 167.38499 
L 453.827462 164.124793 
L 448.855561 160.235369 
L 443.623298 156.47954 
L 439.202161 153.522797 
L 433.569343 149.99696 
L 428.116774 146.799995 
L 420.996891 142.895073 
L 414.052252 139.337311 
L 406.146278 135.536847 
L 397.63947 131.709416 
L 388.121258 127.697246 
L 377.5616 123.535674 
L 367.242276 119.723432 
L 357.64896 116.375824 
L 345.712391 112.447655 
L 333.169981 108.57063 
L 320.021731 104.752188 
L 306.743299 101.120964 
L 292.408401 97.433327 
L 276.546384 93.604656 
L 262.446813 90.402112 
L 246.830136 87.057914 
L 231.123333 83.890705 
L 211.966743 80.27312 
L 193.185673 76.965498 
L 171.886108 73.474997 
L 150.982092 70.290121 
L 129.997964 67.305791 
L 103.075594 63.724161 
L 67.816652 59.068817 
L 61.052263 57.93838 
L 58.23335 57.294276 
L 56.916522 56.849168 
L 55.830014 56.202584 
L 55.830014 56.202584 
" style="fill:none;stroke:#449775;stroke-dasharray:5.55,2.4;stroke-dashoffset:0;stroke-width:1.5;"/>
   </g>
   <g id="line2d_21">
    <path clip-path="url(#p742a5a2fea)" d="M 556.515 209.24 
L 480.799902 209.24 
L 480.799902 209.24 
" style="fill:none;stroke:#000000;stroke-dasharray:5.55,2.4;stroke-dashoffset:0;stroke-width:1.5;"/>
   </g>
   <g id="line2d_22">
    <path clip-path="url(#p742a5a2fea)" d="M 480.299207 209.24 
L 55.82 209.24 
L 55.82 209.24 
" style="fill:none;stroke:#000000;stroke-linecap:square;stroke-width:1.5;"/>
   </g>
   <g id="line2d_23">
    <path clip-path="url(#p742a5a2fea)" d="M 556.515 364.221818 
L 546.5011 364.221818 
L 541.49415 364.221818 
L 536.4872 364.221818 
L 531.48025 364.221818 
L 526.4733 364.221818 
L 521.46635 364.221818 
L 516.4594 364.221818 
L 511.45245 364.221818 
L 506.4455 364.221818 
L 501.43855 364.221818 
L 496.4316 364.221818 
L 491.42465 364.221818 
L 486.4177 364.221818 
L 481.41075 364.221818 
L 476.4038 364.221818 
L 471.39685 364.221818 
L 466.3899 364.221818 
L 461.38295 364.221818 
L 456.376 364.221818 
L 451.36905 364.221818 
L 446.3621 364.221818 
L 441.35515 364.221818 
L 436.3482 364.221818 
L 431.34125 364.221818 
L 426.3343 364.221818 
L 421.32735 364.221818 
L 416.3204 364.221818 
L 411.31345 364.221818 
L 406.3065 364.221818 
L 401.29955 364.221818 
L 396.2926 364.221818 
L 391.28565 364.221818 
L 386.2787 364.221818 
L 381.27175 364.221818 
L 376.2648 364.221818 
L 371.25785 364.221818 
L 366.2509 364.221818 
L 361.24395 364.221818 
L 356.237 364.221818 
L 351.23005 364.221818 
L 346.2231 364.221818 
L 341.21615 364.221818 
L 336.2092 364.221818 
L 331.20225 364.221818 
L 326.1953 364.221818 
L 321.18835 364.221818 
L 316.1814 364.221818 
L 311.17445 364.221818 
L 306.1675 364.221818 
L 301.16055 364.221818 
L 296.1536 364.221818 
L 291.14665 364.221818 
L 286.1397 364.221818 
L 281.13275 364.221818 
L 276.1258 364.221818 
L 271.11885 364.221818 
L 266.1119 364.221818 
L 261.10495 364.221818 
L 256.098 364.221818 
L 251.09105 364.221818 
L 246.0841 364.221818 
L 241.07715 364.221818 
L 236.0702 364.221818 
L 231.06325 364.221818 
L 226.0563 364.221818 
L 221.04935 364.221818 
L 216.0424 364.221818 
L 211.03545 364.221818 
L 206.0285 364.221818 
L 201.02155 364.221818 
L 196.0146 364.221818 
L 191.00765 364.221818 
L 186.0007 364.221818 
L 180.99375 364.221818 
L 175.9868 364.221818 
L 170.97985 364.221818 
L 165.9729 364.221818 
L 160.96595 364.221818 
L 155.959 364.221818 
L 150.95205 364.221818 
L 145.9451 364.221818 
L 140.93815 364.221818 
L 135.9312 364.221818 
L 130.92425 364.221818 
L 125.9173 364.221818 
L 120.91035 364.221818 
L 115.9034 364.221818 
L 110.89645 364.221818 
L 105.8895 364.221818 
L 100.88255 364.221818 
L 95.8756 364.221818 
L 90.86865 364.221818 
L 85.8617 364.221818 
L 80.85475 364.221818 
L 75.8478 364.221818 
L 70.84085 364.221818 
L 65.8339 364.221818 
L 60.82695 364.221818 
L 55.82 364.221818 
" style="fill:none;stroke:#000000;stroke-linecap:square;stroke-width:1.5;"/>
   </g>
   <g id="line2d_24">
    <path clip-path="url(#p742a5a2fea)" d="M 556.515 54.258182 
L 546.5011 54.258182 
L 541.49415 54.258182 
L 536.4872 54.258182 
L 531.48025 54.258182 
L 526.4733 54.258182 
L 521.46635 54.258182 
L 516.4594 54.258182 
L 511.45245 54.258182 
L 506.4455 54.258182 
L 501.43855 54.258182 
L 496.4316 54.258182 
L 491.42465 54.258182 
L 486.4177 54.258182 
L 481.41075 54.258182 
L 476.4038 54.258182 
L 471.39685 54.258182 
L 466.3899 54.258182 
L 461.38295 54.258182 
L 456.376 54.258182 
L 451.36905 54.258182 
L 446.3621 54.258182 
L 441.35515 54.258182 
L 436.3482 54.258182 
L 431.34125 54.258182 
L 426.3343 54.258182 
L 421.32735 54.258182 
L 416.3204 54.258182 
L 411.31345 54.258182 
L 406.3065 54.258182 
L 401.29955 54.258182 
L 396.2926 54.258182 
L 391.28565 54.258182 
L 386.2787 54.258182 
L 381.27175 54.258182 
L 376.2648 54.258182 
L 371.25785 54.258182 
L 366.2509 54.258182 
L 361.24395 54.258182 
L 356.237 54.258182 
L 351.23005 54.258182 
L 346.2231 54.258182 
L 341.21615 54.258182 
L 336.2092 54.258182 
L 331.20225 54.258182 
L 326.1953 54.258182 
L 321.18835 54.258182 
L 316.1814 54.258182 
L 311.17445 54.258182 
L 306.1675 54.258182 
L 301.16055 54.258182 
L 296.1536 54.258182 
L 291.14665 54.258182 
L 286.1397 54.258182 
L 281.13275 54.258182 
L 276.1258 54.258182 
L 271.11885 54.258182 
L 266.1119 54.258182 
L 261.10495 54.258182 
L 256.098 54.258182 
L 251.09105 54.258182 
L 246.0841 54.258182 
L 241.07715 54.258182 
L 236.0702 54.258182 
L 231.06325 54.258182 
L 226.0563 54.258182 
L 221.04935 54.258182 
L 216.0424 54.258182 
L 211.03545 54.258182 
L 206.0285 54.258182 
L 201.02155 54.258182 
L 196.0146 54.258182 
L 191.00765 54.258182 
L 186.0007 54.258182 
L 180.99375 54.258182 
L 175.9868 54.258182 
L 170.97985 54.258182 
L 165.9729 54.258182 
L 160.96595 54.258182 
L 155.959 54.258182 
L 150.95205 54.258182 
L 145.9451 54.258182 
L 140.93815 54.258182 
L 135.9312 54.258182 
L 130.92425 54.258182 
L 125.9173 54.258182 
L 120.91035 54.258182 
L 115.9034 54.258182 
L 110.89645 54.258182 
L 105.8895 54.258182 
L 100.88255 54.258182 
L 95.8756 54.258182 
L 90.86865 54.258182 
L 85.8617 54.258182 
L 80.85475 54.258182 
L 75.8478 54.258182 
L 70.84085 54.258182 
L 65.8339 54.258182 
L 60.82695 54.258182 
L 55.82 54.258182 
" style="fill:none;stroke:#000000;stroke-linecap:square;stroke-width:1.5;"/>
   </g>
   <g id="patch_3">
    <path d="M 55.82 379.72 
L 55.82 38.76 
" style="fill:none;stroke:#000000;stroke-linecap:square;stroke-linejoin:miter;stroke-width:0.8;"/>
   </g>
   <g id="patch_4">
    <path d="M 556.515 379.72 
L 556.515 38.76 
" style="fill:none;stroke:#000000;stroke-linecap:square;stroke-linejoin:miter;stroke-width:0.8;"/>
   </g>
   <g id="patch_5">
    <path d="M 55.82 379.72 
L 556.515 379.72 
" style="fill:none;stroke:#000000;stroke-linecap:square;stroke-linejoin:miter;stroke-width:0.8;"/>
   </g>
   <g id="patch_6">
    <path d="M 55.82 38.76 
L 556.515 38.76 
" style="fill:none;stroke:#000000;stroke-linecap:square;stroke-linejoin:miter;stroke-width:0.8;"/>
   </g>
   <g id="text_15">
    <!-- Bif. diagram for two weakly coupled neurons for different values $\beta$ -->
    <g transform="translate(40.2475 23.76)scale(0.16 -0.16)">
     <defs>
      <path d="M 19.671875 34.8125 
L 19.671875 8.109375 
L 35.5 8.109375 
Q 43.453125 8.109375 47.28125 11.40625 
Q 51.125 14.703125 51.125 21.484375 
Q 51.125 28.328125 47.28125 31.5625 
Q 43.453125 34.8125 35.5 34.8125 
z
M 19.671875 64.796875 
L 19.671875 42.828125 
L 34.28125 42.828125 
Q 41.5 42.828125 45.03125 45.53125 
Q 48.578125 48.25 48.578125 53.8125 
Q 48.578125 59.328125 45.03125 62.0625 
Q 41.5 64.796875 34.28125 64.796875 
z
M 9.8125 72.90625 
L 35.015625 72.90625 
Q 46.296875 72.90625 52.390625 68.21875 
Q 58.5 63.53125 58.5 54.890625 
Q 58.5 48.1875 55.375 44.234375 
Q 52.25 40.28125 46.1875 39.3125 
Q 53.46875 37.75 57.5 32.78125 
Q 61.53125 27.828125 61.53125 20.40625 
Q 61.53125 10.640625 54.890625 5.3125 
Q 48.25 0 35.984375 0 
L 9.8125 0 
z
" id="DejaVuSans-66"/>
      <path d="M 45.40625 46.390625 
L 45.40625 75.984375 
L 54.390625 75.984375 
L 54.390625 0 
L 45.40625 0 
L 45.40625 8.203125 
Q 42.578125 3.328125 38.25 0.953125 
Q 33.9375 -1.421875 27.875 -1.421875 
Q 17.96875 -1.421875 11.734375 6.484375 
Q 5.515625 14.40625 5.515625 27.296875 
Q 5.515625 40.1875 11.734375 48.09375 
Q 17.96875 56 27.875 56 
Q 33.9375 56 38.25 53.625 
Q 42.578125 51.265625 45.40625 46.390625 
z
M 14.796875 27.296875 
Q 14.796875 17.390625 18.875 11.75 
Q 22.953125 6.109375 30.078125 6.109375 
Q 37.203125 6.109375 41.296875 11.75 
Q 45.40625 17.390625 45.40625 27.296875 
Q 45.40625 37.203125 41.296875 42.84375 
Q 37.203125 48.484375 30.078125 48.484375 
Q 22.953125 48.484375 18.875 42.84375 
Q 14.796875 37.203125 14.796875 27.296875 
z
" id="DejaVuSans-100"/>
      <path d="M 45.40625 27.984375 
Q 45.40625 37.75 41.375 43.109375 
Q 37.359375 48.484375 30.078125 48.484375 
Q 22.859375 48.484375 18.828125 43.109375 
Q 14.796875 37.75 14.796875 27.984375 
Q 14.796875 18.265625 18.828125 12.890625 
Q 22.859375 7.515625 30.078125 7.515625 
Q 37.359375 7.515625 41.375 12.890625 
Q 45.40625 18.265625 45.40625 27.984375 
z
M 54.390625 6.78125 
Q 54.390625 -7.171875 48.1875 -13.984375 
Q 42 -20.796875 29.203125 -20.796875 
Q 24.46875 -20.796875 20.265625 -20.09375 
Q 16.0625 -19.390625 12.109375 -17.921875 
L 12.109375 -9.1875 
Q 16.0625 -11.328125 19.921875 -12.34375 
Q 23.78125 -13.375 27.78125 -13.375 
Q 36.625 -13.375 41.015625 -8.765625 
Q 45.40625 -4.15625 45.40625 5.171875 
L 45.40625 9.625 
Q 42.625 4.78125 38.28125 2.390625 
Q 33.9375 0 27.875 0 
Q 17.828125 0 11.671875 7.65625 
Q 5.515625 15.328125 5.515625 27.984375 
Q 5.515625 40.671875 11.671875 48.328125 
Q 17.828125 56 27.875 56 
Q 33.9375 56 38.28125 53.609375 
Q 42.625 51.21875 45.40625 46.390625 
L 45.40625 54.6875 
L 54.390625 54.6875 
z
" id="DejaVuSans-103"/>
      <path d="M 52 44.1875 
Q 55.375 50.25 60.0625 53.125 
Q 64.75 56 71.09375 56 
Q 79.640625 56 84.28125 50.015625 
Q 88.921875 44.046875 88.921875 33.015625 
L 88.921875 0 
L 79.890625 0 
L 79.890625 32.71875 
Q 79.890625 40.578125 77.09375 44.375 
Q 74.3125 48.1875 68.609375 48.1875 
Q 61.625 48.1875 57.5625 43.546875 
Q 53.515625 38.921875 53.515625 30.90625 
L 53.515625 0 
L 44.484375 0 
L 44.484375 32.71875 
Q 44.484375 40.625 41.703125 44.40625 
Q 38.921875 48.1875 33.109375 48.1875 
Q 26.21875 48.1875 22.15625 43.53125 
Q 18.109375 38.875 18.109375 30.90625 
L 18.109375 0 
L 9.078125 0 
L 9.078125 54.6875 
L 18.109375 54.6875 
L 18.109375 46.1875 
Q 21.1875 51.21875 25.484375 53.609375 
Q 29.78125 56 35.6875 56 
Q 41.65625 56 45.828125 52.96875 
Q 50 49.953125 52 44.1875 
z
" id="DejaVuSans-109"/>
      <path d="M 30.609375 48.390625 
Q 23.390625 48.390625 19.1875 42.75 
Q 14.984375 37.109375 14.984375 27.296875 
Q 14.984375 17.484375 19.15625 11.84375 
Q 23.34375 6.203125 30.609375 6.203125 
Q 37.796875 6.203125 41.984375 11.859375 
Q 46.1875 17.53125 46.1875 27.296875 
Q 46.1875 37.015625 41.984375 42.703125 
Q 37.796875 48.390625 30.609375 48.390625 
z
M 30.609375 56 
Q 42.328125 56 49.015625 48.375 
Q 55.71875 40.765625 55.71875 27.296875 
Q 55.71875 13.875 49.015625 6.21875 
Q 42.328125 -1.421875 30.609375 -1.421875 
Q 18.84375 -1.421875 12.171875 6.21875 
Q 5.515625 13.875 5.515625 27.296875 
Q 5.515625 40.765625 12.171875 48.375 
Q 18.84375 56 30.609375 56 
z
" id="DejaVuSans-111"/>
      <path d="M 4.203125 54.6875 
L 13.1875 54.6875 
L 24.421875 12.015625 
L 35.59375 54.6875 
L 46.1875 54.6875 
L 57.421875 12.015625 
L 68.609375 54.6875 
L 77.59375 54.6875 
L 63.28125 0 
L 52.6875 0 
L 40.921875 44.828125 
L 29.109375 0 
L 18.5 0 
z
" id="DejaVuSans-119"/>
      <path d="M 9.078125 75.984375 
L 18.109375 75.984375 
L 18.109375 31.109375 
L 44.921875 54.6875 
L 56.390625 54.6875 
L 27.390625 29.109375 
L 57.625 0 
L 45.90625 0 
L 18.109375 26.703125 
L 18.109375 0 
L 9.078125 0 
z
" id="DejaVuSans-107"/>
      <path d="M 9.421875 75.984375 
L 18.40625 75.984375 
L 18.40625 0 
L 9.421875 0 
z
" id="DejaVuSans-108"/>
      <path d="M 32.171875 -5.078125 
Q 28.375 -14.84375 24.75 -17.8125 
Q 21.140625 -20.796875 15.09375 -20.796875 
L 7.90625 -20.796875 
L 7.90625 -13.28125 
L 13.1875 -13.28125 
Q 16.890625 -13.28125 18.9375 -11.515625 
Q 21 -9.765625 23.484375 -3.21875 
L 25.09375 0.875 
L 2.984375 54.6875 
L 12.5 54.6875 
L 29.59375 11.921875 
L 46.6875 54.6875 
L 56.203125 54.6875 
z
" id="DejaVuSans-121"/>
      <path d="M 18.109375 8.203125 
L 18.109375 -20.796875 
L 9.078125 -20.796875 
L 9.078125 54.6875 
L 18.109375 54.6875 
L 18.109375 46.390625 
Q 20.953125 51.265625 25.265625 53.625 
Q 29.59375 56 35.59375 56 
Q 45.5625 56 51.78125 48.09375 
Q 58.015625 40.1875 58.015625 27.296875 
Q 58.015625 14.40625 51.78125 6.484375 
Q 45.5625 -1.421875 35.59375 -1.421875 
Q 29.59375 -1.421875 25.265625 0.953125 
Q 20.953125 3.328125 18.109375 8.203125 
z
M 48.6875 27.296875 
Q 48.6875 37.203125 44.609375 42.84375 
Q 40.53125 48.484375 33.40625 48.484375 
Q 26.265625 48.484375 22.1875 42.84375 
Q 18.109375 37.203125 18.109375 27.296875 
Q 18.109375 17.390625 22.1875 11.75 
Q 26.265625 6.109375 33.40625 6.109375 
Q 40.53125 6.109375 44.609375 11.75 
Q 48.6875 17.390625 48.6875 27.296875 
z
" id="DejaVuSans-112"/>
      <path d="M 2.984375 54.6875 
L 12.5 54.6875 
L 29.59375 8.796875 
L 46.6875 54.6875 
L 56.203125 54.6875 
L 35.6875 0 
L 23.484375 0 
z
" id="DejaVuSans-118"/>
      <path d="M 13.625 3.375 
L 8.9375 -20.796875 
L -0.09375 -20.796875 
L 14.5 54.34375 
Q 18.84375 76.609375 39.65625 76.609375 
Q 60.75 76.609375 57.171875 57.8125 
Q 54.734375 44.4375 45.21875 39.546875 
Q 58.015625 35.15625 55.515625 22.125 
Q 51.125 -1.078125 27.484375 -1.03125 
Q 17.140625 -0.984375 13.625 3.375 
z
M 15.921875 15.09375 
Q 19.671875 6.59375 29.296875 6.640625 
Q 43.359375 6.640625 46.34375 21.96875 
Q 49.03125 35.75 26.171875 34.671875 
L 27.78125 42.96875 
Q 45.453125 42.671875 48.53125 58.59375 
Q 50.640625 69.34375 39.203125 69.28125 
Q 26.421875 69.28125 23.484375 54.046875 
z
" id="DejaVuSans-Oblique-946"/>
     </defs>
     <use transform="translate(0 0.390625)" xlink:href="#DejaVuSans-66"/>
     <use transform="translate(68.603516 0.390625)" xlink:href="#DejaVuSans-105"/>
     <use transform="translate(96.386719 0.390625)" xlink:href="#DejaVuSans-102"/>
     <use transform="translate(131.591797 0.390625)" xlink:href="#DejaVuSans-46"/>
     <use transform="translate(163.378906 0.390625)" xlink:href="#DejaVuSans-32"/>
     <use transform="translate(195.166016 0.390625)" xlink:href="#DejaVuSans-100"/>
     <use transform="translate(258.642578 0.390625)" xlink:href="#DejaVuSans-105"/>
     <use transform="translate(286.425781 0.390625)" xlink:href="#DejaVuSans-97"/>
     <use transform="translate(347.705078 0.390625)" xlink:href="#DejaVuSans-103"/>
     <use transform="translate(411.181641 0.390625)" xlink:href="#DejaVuSans-114"/>
     <use transform="translate(452.294922 0.390625)" xlink:href="#DejaVuSans-97"/>
     <use transform="translate(513.574219 0.390625)" xlink:href="#DejaVuSans-109"/>
     <use transform="translate(610.986328 0.390625)" xlink:href="#DejaVuSans-32"/>
     <use transform="translate(642.773438 0.390625)" xlink:href="#DejaVuSans-102"/>
     <use transform="translate(677.978516 0.390625)" xlink:href="#DejaVuSans-111"/>
     <use transform="translate(739.160156 0.390625)" xlink:href="#DejaVuSans-114"/>
     <use transform="translate(780.273438 0.390625)" xlink:href="#DejaVuSans-32"/>
     <use transform="translate(812.060547 0.390625)" xlink:href="#DejaVuSans-116"/>
     <use transform="translate(851.269531 0.390625)" xlink:href="#DejaVuSans-119"/>
     <use transform="translate(933.056641 0.390625)" xlink:href="#DejaVuSans-111"/>
     <use transform="translate(994.238281 0.390625)" xlink:href="#DejaVuSans-32"/>
     <use transform="translate(1026.025391 0.390625)" xlink:href="#DejaVuSans-119"/>
     <use transform="translate(1107.8125 0.390625)" xlink:href="#DejaVuSans-101"/>
     <use transform="translate(1169.335938 0.390625)" xlink:href="#DejaVuSans-97"/>
     <use transform="translate(1230.615234 0.390625)" xlink:href="#DejaVuSans-107"/>
     <use transform="translate(1288.525391 0.390625)" xlink:href="#DejaVuSans-108"/>
     <use transform="translate(1316.308594 0.390625)" xlink:href="#DejaVuSans-121"/>
     <use transform="translate(1375.488281 0.390625)" xlink:href="#DejaVuSans-32"/>
     <use transform="translate(1407.275391 0.390625)" xlink:href="#DejaVuSans-99"/>
     <use transform="translate(1462.255859 0.390625)" xlink:href="#DejaVuSans-111"/>
     <use transform="translate(1523.4375 0.390625)" xlink:href="#DejaVuSans-117"/>
     <use transform="translate(1586.816406 0.390625)" xlink:href="#DejaVuSans-112"/>
     <use transform="translate(1650.292969 0.390625)" xlink:href="#DejaVuSans-108"/>
     <use transform="translate(1678.076172 0.390625)" xlink:href="#DejaVuSans-101"/>
     <use transform="translate(1739.599609 0.390625)" xlink:href="#DejaVuSans-100"/>
     <use transform="translate(1803.076172 0.390625)" xlink:href="#DejaVuSans-32"/>
     <use transform="translate(1834.863281 0.390625)" xlink:href="#DejaVuSans-110"/>
     <use transform="translate(1898.242188 0.390625)" xlink:href="#DejaVuSans-101"/>
     <use transform="translate(1959.765625 0.390625)" xlink:href="#DejaVuSans-117"/>
     <use transform="translate(2023.144531 0.390625)" xlink:href="#DejaVuSans-114"/>
     <use transform="translate(2064.257812 0.390625)" xlink:href="#DejaVuSans-111"/>
     <use transform="translate(2125.439453 0.390625)" xlink:href="#DejaVuSans-110"/>
     <use transform="translate(2188.818359 0.390625)" xlink:href="#DejaVuSans-115"/>
     <use transform="translate(2240.917969 0.390625)" xlink:href="#DejaVuSans-32"/>
     <use transform="translate(2272.705078 0.390625)" xlink:href="#DejaVuSans-102"/>
     <use transform="translate(2307.910156 0.390625)" xlink:href="#DejaVuSans-111"/>
     <use transform="translate(2369.091797 0.390625)" xlink:href="#DejaVuSans-114"/>
     <use transform="translate(2410.205078 0.390625)" xlink:href="#DejaVuSans-32"/>
     <use transform="translate(2441.992188 0.390625)" xlink:href="#DejaVuSans-100"/>
     <use transform="translate(2505.46875 0.390625)" xlink:href="#DejaVuSans-105"/>
     <use transform="translate(2533.251953 0.390625)" xlink:href="#DejaVuSans-102"/>
     <use transform="translate(2568.457031 0.390625)" xlink:href="#DejaVuSans-102"/>
     <use transform="translate(2603.662109 0.390625)" xlink:href="#DejaVuSans-101"/>
     <use transform="translate(2665.185547 0.390625)" xlink:href="#DejaVuSans-114"/>
     <use transform="translate(2706.298828 0.390625)" xlink:href="#DejaVuSans-101"/>
     <use transform="translate(2767.822266 0.390625)" xlink:href="#DejaVuSans-110"/>
     <use transform="translate(2831.201172 0.390625)" xlink:href="#DejaVuSans-116"/>
     <use transform="translate(2870.410156 0.390625)" xlink:href="#DejaVuSans-32"/>
     <use transform="translate(2902.197266 0.390625)" xlink:href="#DejaVuSans-118"/>
     <use transform="translate(2961.376953 0.390625)" xlink:href="#DejaVuSans-97"/>
     <use transform="translate(3022.65625 0.390625)" xlink:href="#DejaVuSans-108"/>
     <use transform="translate(3050.439453 0.390625)" xlink:href="#DejaVuSans-117"/>
     <use transform="translate(3113.818359 0.390625)" xlink:href="#DejaVuSans-101"/>
     <use transform="translate(3175.341797 0.390625)" xlink:href="#DejaVuSans-115"/>
     <use transform="translate(3227.441406 0.390625)" xlink:href="#DejaVuSans-32"/>
     <use transform="translate(3259.228516 0.390625)" xlink:href="#DejaVuSans-Oblique-946"/>
    </g>
   </g>
   <g id="legend_1">
    <g id="patch_7">
     <path d="M 468.515 129.728 
L 548.815 129.728 
Q 551.015 129.728 551.015 127.528 
L 551.015 63.508 
Q 551.015 61.308 548.815 61.308 
L 468.515 61.308 
Q 466.315 61.308 466.315 63.508 
L 466.315 127.528 
Q 466.315 129.728 468.515 129.728 
z
" style="fill:#ffffff;opacity:0.8;stroke:#cccccc;stroke-linejoin:miter;"/>
    </g>
    <g id="line2d_25">
     <path d="M 470.715 70.328 
L 492.715 70.328 
" style="fill:none;stroke:#aa3863;stroke-dasharray:5.55,2.4;stroke-dashoffset:0;stroke-width:1.5;"/>
    </g>
    <g id="line2d_26"/>
    <g id="text_16">
     <!-- $\beta=0.2$ -->
     <g transform="translate(501.515 74.178)scale(0.11 -0.11)">
      <defs>
       <path d="M 10.59375 45.40625 
L 73.1875 45.40625 
L 73.1875 37.203125 
L 10.59375 37.203125 
z
M 10.59375 25.484375 
L 73.1875 25.484375 
L 73.1875 17.1875 
L 10.59375 17.1875 
z
" id="DejaVuSans-61"/>
      </defs>
      <use transform="translate(0 0.390625)" xlink:href="#DejaVuSans-Oblique-946"/>
      <use transform="translate(83.300781 0.390625)" xlink:href="#DejaVuSans-61"/>
      <use transform="translate(186.572266 0.390625)" xlink:href="#DejaVuSans-48"/>
      <use transform="translate(250.195312 0.390625)" xlink:href="#DejaVuSans-46"/>
      <use transform="translate(276.482422 0.390625)" xlink:href="#DejaVuSans-50"/>
     </g>
    </g>
    <g id="line2d_27">
     <path d="M 470.715 86.608 
L 492.715 86.608 
" style="fill:none;stroke:#d97020;stroke-dasharray:5.55,2.4;stroke-dashoffset:0;stroke-width:1.5;"/>
    </g>
    <g id="line2d_28"/>
    <g id="text_17">
     <!-- $\beta=0.15$ -->
     <g transform="translate(501.515 90.458)scale(0.11 -0.11)">
      <defs>
       <path d="M 10.796875 72.90625 
L 49.515625 72.90625 
L 49.515625 64.59375 
L 19.828125 64.59375 
L 19.828125 46.734375 
Q 21.96875 47.46875 24.109375 47.828125 
Q 26.265625 48.1875 28.421875 48.1875 
Q 40.625 48.1875 47.75 41.5 
Q 54.890625 34.8125 54.890625 23.390625 
Q 54.890625 11.625 47.5625 5.09375 
Q 40.234375 -1.421875 26.90625 -1.421875 
Q 22.3125 -1.421875 17.546875 -0.640625 
Q 12.796875 0.140625 7.71875 1.703125 
L 7.71875 11.625 
Q 12.109375 9.234375 16.796875 8.0625 
Q 21.484375 6.890625 26.703125 6.890625 
Q 35.15625 6.890625 40.078125 11.328125 
Q 45.015625 15.765625 45.015625 23.390625 
Q 45.015625 31 40.078125 35.4375 
Q 35.15625 39.890625 26.703125 39.890625 
Q 22.75 39.890625 18.8125 39.015625 
Q 14.890625 38.140625 10.796875 36.28125 
z
" id="DejaVuSans-53"/>
      </defs>
      <use transform="translate(0 0.390625)" xlink:href="#DejaVuSans-Oblique-946"/>
      <use transform="translate(83.300781 0.390625)" xlink:href="#DejaVuSans-61"/>
      <use transform="translate(186.572266 0.390625)" xlink:href="#DejaVuSans-48"/>
      <use transform="translate(250.195312 0.390625)" xlink:href="#DejaVuSans-46"/>
      <use transform="translate(281.982422 0.390625)" xlink:href="#DejaVuSans-49"/>
      <use transform="translate(345.605469 0.390625)" xlink:href="#DejaVuSans-53"/>
     </g>
    </g>
    <g id="line2d_29">
     <path d="M 470.715 102.888 
L 492.715 102.888 
" style="fill:none;stroke:#ef9f07;stroke-dasharray:5.55,2.4;stroke-dashoffset:0;stroke-width:1.5;"/>
    </g>
    <g id="line2d_30"/>
    <g id="text_18">
     <!-- $\beta=0.1$ -->
     <g transform="translate(501.515 106.738)scale(0.11 -0.11)">
      <use transform="translate(0 0.390625)" xlink:href="#DejaVuSans-Oblique-946"/>
      <use transform="translate(83.300781 0.390625)" xlink:href="#DejaVuSans-61"/>
      <use transform="translate(186.572266 0.390625)" xlink:href="#DejaVuSans-48"/>
      <use transform="translate(250.195312 0.390625)" xlink:href="#DejaVuSans-46"/>
      <use transform="translate(281.982422 0.390625)" xlink:href="#DejaVuSans-49"/>
     </g>
    </g>
    <g id="line2d_31">
     <path d="M 470.715 119.168 
L 492.715 119.168 
" style="fill:none;stroke:#449775;stroke-dasharray:5.55,2.4;stroke-dashoffset:0;stroke-width:1.5;"/>
    </g>
    <g id="line2d_32"/>
    <g id="text_19">
     <!-- $\beta=0.05$ -->
     <g transform="translate(501.515 123.018)scale(0.11 -0.11)">
      <use transform="translate(0 0.390625)" xlink:href="#DejaVuSans-Oblique-946"/>
      <use transform="translate(83.300781 0.390625)" xlink:href="#DejaVuSans-61"/>
      <use transform="translate(186.572266 0.390625)" xlink:href="#DejaVuSans-48"/>
      <use transform="translate(250.195312 0.390625)" xlink:href="#DejaVuSans-46"/>
      <use transform="translate(281.982422 0.390625)" xlink:href="#DejaVuSans-48"/>
      <use transform="translate(345.605469 0.390625)" xlink:href="#DejaVuSans-53"/>
     </g>
    </g>
   </g>
  </g>
 </g>
 <defs>
  <clipPath id="p742a5a2fea">
   <rect height="340.96" width="500.695" x="55.82" y="38.76"/>
  </clipPath>
 </defs>
</svg>
