<?xml version="1.0" encoding="utf-8" standalone="no"?>
<!DOCTYPE svg PUBLIC "-//W3C//DTD SVG 1.1//EN"
  "http://www.w3.org/Graphics/SVG/1.1/DTD/svg11.dtd">
<!-- Created with matplotlib (https://matplotlib.org/) -->
<svg height="252pt" version="1.1" viewBox="0 0 864 252" width="864pt" xmlns="http://www.w3.org/2000/svg" xmlns:xlink="http://www.w3.org/1999/xlink">
 <metadata>
  <rdf:RDF xmlns:cc="http://creativecommons.org/ns#" xmlns:dc="http://purl.org/dc/elements/1.1/" xmlns:rdf="http://www.w3.org/1999/02/22-rdf-syntax-ns#">
   <cc:Work>
    <dc:type rdf:resource="http://purl.org/dc/dcmitype/StillImage"/>
    <dc:date>2021-08-15T13:40:37.711792</dc:date>
    <dc:format>image/svg+xml</dc:format>
    <dc:creator>
     <cc:Agent>
      <dc:title>Matplotlib v3.3.3, https://matplotlib.org/</dc:title>
     </cc:Agent>
    </dc:creator>
   </cc:Work>
  </rdf:RDF>
 </metadata>
 <defs>
  <style type="text/css">*{stroke-linecap:butt;stroke-linejoin:round;}</style>
 </defs>
 <g id="figure_1">
  <g id="patch_1">
   <path d="M 0 252 
L 864 252 
L 864 0 
L 0 0 
z
" style="fill:#ffffff;"/>
  </g>
  <g id="axes_1">
   <g id="patch_2">
    <path d="M 50.8925 205.216 
L 853.2 205.216 
L 853.2 38.04 
L 50.8925 38.04 
z
" style="fill:#ffffff;"/>
   </g>
   <g id="matplotlib.axis_1">
    <g id="xtick_1">
     <g id="line2d_1">
      <defs>
       <path d="M 0 0 
L 0 3.5 
" id="mb4ab2dd7d9" style="stroke:#000000;stroke-width:0.8;"/>
      </defs>
      <g>
       <use style="stroke:#000000;stroke-width:0.8;" x="87.361023" xlink:href="#mb4ab2dd7d9" y="205.216"/>
      </g>
     </g>
     <g id="text_1">
      <!-- 0.0 -->
      <g transform="translate(79.40946 219.814437)scale(0.1 -0.1)">
       <defs>
        <path d="M 31.78125 66.40625 
Q 24.171875 66.40625 20.328125 58.90625 
Q 16.5 51.421875 16.5 36.375 
Q 16.5 21.390625 20.328125 13.890625 
Q 24.171875 6.390625 31.78125 6.390625 
Q 39.453125 6.390625 43.28125 13.890625 
Q 47.125 21.390625 47.125 36.375 
Q 47.125 51.421875 43.28125 58.90625 
Q 39.453125 66.40625 31.78125 66.40625 
z
M 31.78125 74.21875 
Q 44.046875 74.21875 50.515625 64.515625 
Q 56.984375 54.828125 56.984375 36.375 
Q 56.984375 17.96875 50.515625 8.265625 
Q 44.046875 -1.421875 31.78125 -1.421875 
Q 19.53125 -1.421875 13.0625 8.265625 
Q 6.59375 17.96875 6.59375 36.375 
Q 6.59375 54.828125 13.0625 64.515625 
Q 19.53125 74.21875 31.78125 74.21875 
z
" id="DejaVuSans-48"/>
        <path d="M 10.6875 12.40625 
L 21 12.40625 
L 21 0 
L 10.6875 0 
z
" id="DejaVuSans-46"/>
       </defs>
       <use xlink:href="#DejaVuSans-48"/>
       <use x="63.623047" xlink:href="#DejaVuSans-46"/>
       <use x="95.410156" xlink:href="#DejaVuSans-48"/>
      </g>
     </g>
    </g>
    <g id="xtick_2">
     <g id="line2d_2">
      <g>
       <use style="stroke:#000000;stroke-width:0.8;" x="178.53233" xlink:href="#mb4ab2dd7d9" y="205.216"/>
      </g>
     </g>
     <g id="text_2">
      <!-- 2.5 -->
      <g transform="translate(170.580767 219.814437)scale(0.1 -0.1)">
       <defs>
        <path d="M 19.1875 8.296875 
L 53.609375 8.296875 
L 53.609375 0 
L 7.328125 0 
L 7.328125 8.296875 
Q 12.9375 14.109375 22.625 23.890625 
Q 32.328125 33.6875 34.8125 36.53125 
Q 39.546875 41.84375 41.421875 45.53125 
Q 43.3125 49.21875 43.3125 52.78125 
Q 43.3125 58.59375 39.234375 62.25 
Q 35.15625 65.921875 28.609375 65.921875 
Q 23.96875 65.921875 18.8125 64.3125 
Q 13.671875 62.703125 7.8125 59.421875 
L 7.8125 69.390625 
Q 13.765625 71.78125 18.9375 73 
Q 24.125 74.21875 28.421875 74.21875 
Q 39.75 74.21875 46.484375 68.546875 
Q 53.21875 62.890625 53.21875 53.421875 
Q 53.21875 48.921875 51.53125 44.890625 
Q 49.859375 40.875 45.40625 35.40625 
Q 44.1875 33.984375 37.640625 27.21875 
Q 31.109375 20.453125 19.1875 8.296875 
z
" id="DejaVuSans-50"/>
        <path d="M 10.796875 72.90625 
L 49.515625 72.90625 
L 49.515625 64.59375 
L 19.828125 64.59375 
L 19.828125 46.734375 
Q 21.96875 47.46875 24.109375 47.828125 
Q 26.265625 48.1875 28.421875 48.1875 
Q 40.625 48.1875 47.75 41.5 
Q 54.890625 34.8125 54.890625 23.390625 
Q 54.890625 11.625 47.5625 5.09375 
Q 40.234375 -1.421875 26.90625 -1.421875 
Q 22.3125 -1.421875 17.546875 -0.640625 
Q 12.796875 0.140625 7.71875 1.703125 
L 7.71875 11.625 
Q 12.109375 9.234375 16.796875 8.0625 
Q 21.484375 6.890625 26.703125 6.890625 
Q 35.15625 6.890625 40.078125 11.328125 
Q 45.015625 15.765625 45.015625 23.390625 
Q 45.015625 31 40.078125 35.4375 
Q 35.15625 39.890625 26.703125 39.890625 
Q 22.75 39.890625 18.8125 39.015625 
Q 14.890625 38.140625 10.796875 36.28125 
z
" id="DejaVuSans-53"/>
       </defs>
       <use xlink:href="#DejaVuSans-50"/>
       <use x="63.623047" xlink:href="#DejaVuSans-46"/>
       <use x="95.410156" xlink:href="#DejaVuSans-53"/>
      </g>
     </g>
    </g>
    <g id="xtick_3">
     <g id="line2d_3">
      <g>
       <use style="stroke:#000000;stroke-width:0.8;" x="269.703636" xlink:href="#mb4ab2dd7d9" y="205.216"/>
      </g>
     </g>
     <g id="text_3">
      <!-- 5.0 -->
      <g transform="translate(261.752074 219.814437)scale(0.1 -0.1)">
       <use xlink:href="#DejaVuSans-53"/>
       <use x="63.623047" xlink:href="#DejaVuSans-46"/>
       <use x="95.410156" xlink:href="#DejaVuSans-48"/>
      </g>
     </g>
    </g>
    <g id="xtick_4">
     <g id="line2d_4">
      <g>
       <use style="stroke:#000000;stroke-width:0.8;" x="360.874943" xlink:href="#mb4ab2dd7d9" y="205.216"/>
      </g>
     </g>
     <g id="text_4">
      <!-- 7.5 -->
      <g transform="translate(352.923381 219.814437)scale(0.1 -0.1)">
       <defs>
        <path d="M 8.203125 72.90625 
L 55.078125 72.90625 
L 55.078125 68.703125 
L 28.609375 0 
L 18.3125 0 
L 43.21875 64.59375 
L 8.203125 64.59375 
z
" id="DejaVuSans-55"/>
       </defs>
       <use xlink:href="#DejaVuSans-55"/>
       <use x="63.623047" xlink:href="#DejaVuSans-46"/>
       <use x="95.410156" xlink:href="#DejaVuSans-53"/>
      </g>
     </g>
    </g>
    <g id="xtick_5">
     <g id="line2d_5">
      <g>
       <use style="stroke:#000000;stroke-width:0.8;" x="452.04625" xlink:href="#mb4ab2dd7d9" y="205.216"/>
      </g>
     </g>
     <g id="text_5">
      <!-- 10.0 -->
      <g transform="translate(440.913437 219.814437)scale(0.1 -0.1)">
       <defs>
        <path d="M 12.40625 8.296875 
L 28.515625 8.296875 
L 28.515625 63.921875 
L 10.984375 60.40625 
L 10.984375 69.390625 
L 28.421875 72.90625 
L 38.28125 72.90625 
L 38.28125 8.296875 
L 54.390625 8.296875 
L 54.390625 0 
L 12.40625 0 
z
" id="DejaVuSans-49"/>
       </defs>
       <use xlink:href="#DejaVuSans-49"/>
       <use x="63.623047" xlink:href="#DejaVuSans-48"/>
       <use x="127.246094" xlink:href="#DejaVuSans-46"/>
       <use x="159.033203" xlink:href="#DejaVuSans-48"/>
      </g>
     </g>
    </g>
    <g id="xtick_6">
     <g id="line2d_6">
      <g>
       <use style="stroke:#000000;stroke-width:0.8;" x="543.217557" xlink:href="#mb4ab2dd7d9" y="205.216"/>
      </g>
     </g>
     <g id="text_6">
      <!-- 12.5 -->
      <g transform="translate(532.084744 219.814437)scale(0.1 -0.1)">
       <use xlink:href="#DejaVuSans-49"/>
       <use x="63.623047" xlink:href="#DejaVuSans-50"/>
       <use x="127.246094" xlink:href="#DejaVuSans-46"/>
       <use x="159.033203" xlink:href="#DejaVuSans-53"/>
      </g>
     </g>
    </g>
    <g id="xtick_7">
     <g id="line2d_7">
      <g>
       <use style="stroke:#000000;stroke-width:0.8;" x="634.388864" xlink:href="#mb4ab2dd7d9" y="205.216"/>
      </g>
     </g>
     <g id="text_7">
      <!-- 15.0 -->
      <g transform="translate(623.256051 219.814437)scale(0.1 -0.1)">
       <use xlink:href="#DejaVuSans-49"/>
       <use x="63.623047" xlink:href="#DejaVuSans-53"/>
       <use x="127.246094" xlink:href="#DejaVuSans-46"/>
       <use x="159.033203" xlink:href="#DejaVuSans-48"/>
      </g>
     </g>
    </g>
    <g id="xtick_8">
     <g id="line2d_8">
      <g>
       <use style="stroke:#000000;stroke-width:0.8;" x="725.56017" xlink:href="#mb4ab2dd7d9" y="205.216"/>
      </g>
     </g>
     <g id="text_8">
      <!-- 17.5 -->
      <g transform="translate(714.427358 219.814437)scale(0.1 -0.1)">
       <use xlink:href="#DejaVuSans-49"/>
       <use x="63.623047" xlink:href="#DejaVuSans-55"/>
       <use x="127.246094" xlink:href="#DejaVuSans-46"/>
       <use x="159.033203" xlink:href="#DejaVuSans-53"/>
      </g>
     </g>
    </g>
    <g id="xtick_9">
     <g id="line2d_9">
      <g>
       <use style="stroke:#000000;stroke-width:0.8;" x="816.731477" xlink:href="#mb4ab2dd7d9" y="205.216"/>
      </g>
     </g>
     <g id="text_9">
      <!-- 20.0 -->
      <g transform="translate(805.598665 219.814437)scale(0.1 -0.1)">
       <use xlink:href="#DejaVuSans-50"/>
       <use x="63.623047" xlink:href="#DejaVuSans-48"/>
       <use x="127.246094" xlink:href="#DejaVuSans-46"/>
       <use x="159.033203" xlink:href="#DejaVuSans-48"/>
      </g>
     </g>
    </g>
    <g id="text_10">
     <!-- Time ($10^{-2}$ s) -->
     <g transform="translate(414.86625 235.156469)scale(0.11 -0.11)">
      <defs>
       <path d="M -0.296875 72.90625 
L 61.375 72.90625 
L 61.375 64.59375 
L 35.5 64.59375 
L 35.5 0 
L 25.59375 0 
L 25.59375 64.59375 
L -0.296875 64.59375 
z
" id="DejaVuSans-84"/>
       <path d="M 9.421875 54.6875 
L 18.40625 54.6875 
L 18.40625 0 
L 9.421875 0 
z
M 9.421875 75.984375 
L 18.40625 75.984375 
L 18.40625 64.59375 
L 9.421875 64.59375 
z
" id="DejaVuSans-105"/>
       <path d="M 52 44.1875 
Q 55.375 50.25 60.0625 53.125 
Q 64.75 56 71.09375 56 
Q 79.640625 56 84.28125 50.015625 
Q 88.921875 44.046875 88.921875 33.015625 
L 88.921875 0 
L 79.890625 0 
L 79.890625 32.71875 
Q 79.890625 40.578125 77.09375 44.375 
Q 74.3125 48.1875 68.609375 48.1875 
Q 61.625 48.1875 57.5625 43.546875 
Q 53.515625 38.921875 53.515625 30.90625 
L 53.515625 0 
L 44.484375 0 
L 44.484375 32.71875 
Q 44.484375 40.625 41.703125 44.40625 
Q 38.921875 48.1875 33.109375 48.1875 
Q 26.21875 48.1875 22.15625 43.53125 
Q 18.109375 38.875 18.109375 30.90625 
L 18.109375 0 
L 9.078125 0 
L 9.078125 54.6875 
L 18.109375 54.6875 
L 18.109375 46.1875 
Q 21.1875 51.21875 25.484375 53.609375 
Q 29.78125 56 35.6875 56 
Q 41.65625 56 45.828125 52.96875 
Q 50 49.953125 52 44.1875 
z
" id="DejaVuSans-109"/>
       <path d="M 56.203125 29.59375 
L 56.203125 25.203125 
L 14.890625 25.203125 
Q 15.484375 15.921875 20.484375 11.0625 
Q 25.484375 6.203125 34.421875 6.203125 
Q 39.59375 6.203125 44.453125 7.46875 
Q 49.3125 8.734375 54.109375 11.28125 
L 54.109375 2.78125 
Q 49.265625 0.734375 44.1875 -0.34375 
Q 39.109375 -1.421875 33.890625 -1.421875 
Q 20.796875 -1.421875 13.15625 6.1875 
Q 5.515625 13.8125 5.515625 26.8125 
Q 5.515625 40.234375 12.765625 48.109375 
Q 20.015625 56 32.328125 56 
Q 43.359375 56 49.78125 48.890625 
Q 56.203125 41.796875 56.203125 29.59375 
z
M 47.21875 32.234375 
Q 47.125 39.59375 43.09375 43.984375 
Q 39.0625 48.390625 32.421875 48.390625 
Q 24.90625 48.390625 20.390625 44.140625 
Q 15.875 39.890625 15.1875 32.171875 
z
" id="DejaVuSans-101"/>
       <path id="DejaVuSans-32"/>
       <path d="M 31 75.875 
Q 24.46875 64.65625 21.28125 53.65625 
Q 18.109375 42.671875 18.109375 31.390625 
Q 18.109375 20.125 21.3125 9.0625 
Q 24.515625 -2 31 -13.1875 
L 23.1875 -13.1875 
Q 15.875 -1.703125 12.234375 9.375 
Q 8.59375 20.453125 8.59375 31.390625 
Q 8.59375 42.28125 12.203125 53.3125 
Q 15.828125 64.359375 23.1875 75.875 
z
" id="DejaVuSans-40"/>
       <path d="M 10.59375 35.5 
L 73.1875 35.5 
L 73.1875 27.203125 
L 10.59375 27.203125 
z
" id="DejaVuSans-8722"/>
       <path d="M 44.28125 53.078125 
L 44.28125 44.578125 
Q 40.484375 46.53125 36.375 47.5 
Q 32.28125 48.484375 27.875 48.484375 
Q 21.1875 48.484375 17.84375 46.4375 
Q 14.5 44.390625 14.5 40.28125 
Q 14.5 37.15625 16.890625 35.375 
Q 19.28125 33.59375 26.515625 31.984375 
L 29.59375 31.296875 
Q 39.15625 29.25 43.1875 25.515625 
Q 47.21875 21.78125 47.21875 15.09375 
Q 47.21875 7.46875 41.1875 3.015625 
Q 35.15625 -1.421875 24.609375 -1.421875 
Q 20.21875 -1.421875 15.453125 -0.5625 
Q 10.6875 0.296875 5.421875 2 
L 5.421875 11.28125 
Q 10.40625 8.6875 15.234375 7.390625 
Q 20.0625 6.109375 24.8125 6.109375 
Q 31.15625 6.109375 34.5625 8.28125 
Q 37.984375 10.453125 37.984375 14.40625 
Q 37.984375 18.0625 35.515625 20.015625 
Q 33.0625 21.96875 24.703125 23.78125 
L 21.578125 24.515625 
Q 13.234375 26.265625 9.515625 29.90625 
Q 5.8125 33.546875 5.8125 39.890625 
Q 5.8125 47.609375 11.28125 51.796875 
Q 16.75 56 26.8125 56 
Q 31.78125 56 36.171875 55.265625 
Q 40.578125 54.546875 44.28125 53.078125 
z
" id="DejaVuSans-115"/>
       <path d="M 8.015625 75.875 
L 15.828125 75.875 
Q 23.140625 64.359375 26.78125 53.3125 
Q 30.421875 42.28125 30.421875 31.390625 
Q 30.421875 20.453125 26.78125 9.375 
Q 23.140625 -1.703125 15.828125 -13.1875 
L 8.015625 -13.1875 
Q 14.5 -2 17.703125 9.0625 
Q 20.90625 20.125 20.90625 31.390625 
Q 20.90625 42.671875 17.703125 53.65625 
Q 14.5 64.65625 8.015625 75.875 
z
" id="DejaVuSans-41"/>
      </defs>
      <use transform="translate(0 0.765625)" xlink:href="#DejaVuSans-84"/>
      <use transform="translate(61.083984 0.765625)" xlink:href="#DejaVuSans-105"/>
      <use transform="translate(88.867188 0.765625)" xlink:href="#DejaVuSans-109"/>
      <use transform="translate(186.279297 0.765625)" xlink:href="#DejaVuSans-101"/>
      <use transform="translate(247.802734 0.765625)" xlink:href="#DejaVuSans-32"/>
      <use transform="translate(279.589844 0.765625)" xlink:href="#DejaVuSans-40"/>
      <use transform="translate(318.603516 0.765625)" xlink:href="#DejaVuSans-49"/>
      <use transform="translate(382.226562 0.765625)" xlink:href="#DejaVuSans-48"/>
      <use transform="translate(446.806641 39.046875)scale(0.7)" xlink:href="#DejaVuSans-8722"/>
      <use transform="translate(505.458984 39.046875)scale(0.7)" xlink:href="#DejaVuSans-50"/>
      <use transform="translate(552.729492 0.765625)" xlink:href="#DejaVuSans-32"/>
      <use transform="translate(584.516602 0.765625)" xlink:href="#DejaVuSans-115"/>
      <use transform="translate(636.616211 0.765625)" xlink:href="#DejaVuSans-41"/>
     </g>
    </g>
   </g>
   <g id="matplotlib.axis_2">
    <g id="ytick_1">
     <g id="line2d_10">
      <defs>
       <path d="M 0 0 
L -3.5 0 
" id="mccfb38e55b" style="stroke:#000000;stroke-width:0.8;"/>
      </defs>
      <g>
       <use style="stroke:#000000;stroke-width:0.8;" x="50.8925" xlink:href="#mccfb38e55b" y="197.617091"/>
      </g>
     </g>
     <g id="text_11">
      <!-- 0.00 -->
      <g transform="translate(21.626875 201.41631)scale(0.1 -0.1)">
       <use xlink:href="#DejaVuSans-48"/>
       <use x="63.623047" xlink:href="#DejaVuSans-46"/>
       <use x="95.410156" xlink:href="#DejaVuSans-48"/>
       <use x="159.033203" xlink:href="#DejaVuSans-48"/>
      </g>
     </g>
    </g>
    <g id="ytick_2">
     <g id="line2d_11">
      <g>
       <use style="stroke:#000000;stroke-width:0.8;" x="50.8925" xlink:href="#mccfb38e55b" y="172.287394"/>
      </g>
     </g>
     <g id="text_12">
      <!-- 0.25 -->
      <g transform="translate(21.626875 176.086613)scale(0.1 -0.1)">
       <use xlink:href="#DejaVuSans-48"/>
       <use x="63.623047" xlink:href="#DejaVuSans-46"/>
       <use x="95.410156" xlink:href="#DejaVuSans-50"/>
       <use x="159.033203" xlink:href="#DejaVuSans-53"/>
      </g>
     </g>
    </g>
    <g id="ytick_3">
     <g id="line2d_12">
      <g>
       <use style="stroke:#000000;stroke-width:0.8;" x="50.8925" xlink:href="#mccfb38e55b" y="146.957697"/>
      </g>
     </g>
     <g id="text_13">
      <!-- 0.50 -->
      <g transform="translate(21.626875 150.756916)scale(0.1 -0.1)">
       <use xlink:href="#DejaVuSans-48"/>
       <use x="63.623047" xlink:href="#DejaVuSans-46"/>
       <use x="95.410156" xlink:href="#DejaVuSans-53"/>
       <use x="159.033203" xlink:href="#DejaVuSans-48"/>
      </g>
     </g>
    </g>
    <g id="ytick_4">
     <g id="line2d_13">
      <g>
       <use style="stroke:#000000;stroke-width:0.8;" x="50.8925" xlink:href="#mccfb38e55b" y="121.628"/>
      </g>
     </g>
     <g id="text_14">
      <!-- 0.75 -->
      <g transform="translate(21.626875 125.427219)scale(0.1 -0.1)">
       <use xlink:href="#DejaVuSans-48"/>
       <use x="63.623047" xlink:href="#DejaVuSans-46"/>
       <use x="95.410156" xlink:href="#DejaVuSans-55"/>
       <use x="159.033203" xlink:href="#DejaVuSans-53"/>
      </g>
     </g>
    </g>
    <g id="ytick_5">
     <g id="line2d_14">
      <g>
       <use style="stroke:#000000;stroke-width:0.8;" x="50.8925" xlink:href="#mccfb38e55b" y="96.298303"/>
      </g>
     </g>
     <g id="text_15">
      <!-- 1.00 -->
      <g transform="translate(21.626875 100.097522)scale(0.1 -0.1)">
       <use xlink:href="#DejaVuSans-49"/>
       <use x="63.623047" xlink:href="#DejaVuSans-46"/>
       <use x="95.410156" xlink:href="#DejaVuSans-48"/>
       <use x="159.033203" xlink:href="#DejaVuSans-48"/>
      </g>
     </g>
    </g>
    <g id="ytick_6">
     <g id="line2d_15">
      <g>
       <use style="stroke:#000000;stroke-width:0.8;" x="50.8925" xlink:href="#mccfb38e55b" y="70.968606"/>
      </g>
     </g>
     <g id="text_16">
      <!-- 1.25 -->
      <g transform="translate(21.626875 74.767825)scale(0.1 -0.1)">
       <use xlink:href="#DejaVuSans-49"/>
       <use x="63.623047" xlink:href="#DejaVuSans-46"/>
       <use x="95.410156" xlink:href="#DejaVuSans-50"/>
       <use x="159.033203" xlink:href="#DejaVuSans-53"/>
      </g>
     </g>
    </g>
    <g id="ytick_7">
     <g id="line2d_16">
      <g>
       <use style="stroke:#000000;stroke-width:0.8;" x="50.8925" xlink:href="#mccfb38e55b" y="45.638909"/>
      </g>
     </g>
     <g id="text_17">
      <!-- 1.50 -->
      <g transform="translate(21.626875 49.438128)scale(0.1 -0.1)">
       <use xlink:href="#DejaVuSans-49"/>
       <use x="63.623047" xlink:href="#DejaVuSans-46"/>
       <use x="95.410156" xlink:href="#DejaVuSans-53"/>
       <use x="159.033203" xlink:href="#DejaVuSans-48"/>
      </g>
     </g>
    </g>
    <g id="text_18">
     <!-- Voltage $V_k, k \in \{1,2}$ -->
     <g transform="translate(15.316875 176.848)rotate(-90)scale(0.11 -0.11)">
      <defs>
       <path d="M 28.609375 0 
L 0.78125 72.90625 
L 11.078125 72.90625 
L 34.1875 11.53125 
L 57.328125 72.90625 
L 67.578125 72.90625 
L 39.796875 0 
z
" id="DejaVuSans-86"/>
       <path d="M 30.609375 48.390625 
Q 23.390625 48.390625 19.1875 42.75 
Q 14.984375 37.109375 14.984375 27.296875 
Q 14.984375 17.484375 19.15625 11.84375 
Q 23.34375 6.203125 30.609375 6.203125 
Q 37.796875 6.203125 41.984375 11.859375 
Q 46.1875 17.53125 46.1875 27.296875 
Q 46.1875 37.015625 41.984375 42.703125 
Q 37.796875 48.390625 30.609375 48.390625 
z
M 30.609375 56 
Q 42.328125 56 49.015625 48.375 
Q 55.71875 40.765625 55.71875 27.296875 
Q 55.71875 13.875 49.015625 6.21875 
Q 42.328125 -1.421875 30.609375 -1.421875 
Q 18.84375 -1.421875 12.171875 6.21875 
Q 5.515625 13.875 5.515625 27.296875 
Q 5.515625 40.765625 12.171875 48.375 
Q 18.84375 56 30.609375 56 
z
" id="DejaVuSans-111"/>
       <path d="M 9.421875 75.984375 
L 18.40625 75.984375 
L 18.40625 0 
L 9.421875 0 
z
" id="DejaVuSans-108"/>
       <path d="M 18.3125 70.21875 
L 18.3125 54.6875 
L 36.8125 54.6875 
L 36.8125 47.703125 
L 18.3125 47.703125 
L 18.3125 18.015625 
Q 18.3125 11.328125 20.140625 9.421875 
Q 21.96875 7.515625 27.59375 7.515625 
L 36.8125 7.515625 
L 36.8125 0 
L 27.59375 0 
Q 17.1875 0 13.234375 3.875 
Q 9.28125 7.765625 9.28125 18.015625 
L 9.28125 47.703125 
L 2.6875 47.703125 
L 2.6875 54.6875 
L 9.28125 54.6875 
L 9.28125 70.21875 
z
" id="DejaVuSans-116"/>
       <path d="M 34.28125 27.484375 
Q 23.390625 27.484375 19.1875 25 
Q 14.984375 22.515625 14.984375 16.5 
Q 14.984375 11.71875 18.140625 8.90625 
Q 21.296875 6.109375 26.703125 6.109375 
Q 34.1875 6.109375 38.703125 11.40625 
Q 43.21875 16.703125 43.21875 25.484375 
L 43.21875 27.484375 
z
M 52.203125 31.203125 
L 52.203125 0 
L 43.21875 0 
L 43.21875 8.296875 
Q 40.140625 3.328125 35.546875 0.953125 
Q 30.953125 -1.421875 24.3125 -1.421875 
Q 15.921875 -1.421875 10.953125 3.296875 
Q 6 8.015625 6 15.921875 
Q 6 25.140625 12.171875 29.828125 
Q 18.359375 34.515625 30.609375 34.515625 
L 43.21875 34.515625 
L 43.21875 35.40625 
Q 43.21875 41.609375 39.140625 45 
Q 35.0625 48.390625 27.6875 48.390625 
Q 23 48.390625 18.546875 47.265625 
Q 14.109375 46.140625 10.015625 43.890625 
L 10.015625 52.203125 
Q 14.9375 54.109375 19.578125 55.046875 
Q 24.21875 56 28.609375 56 
Q 40.484375 56 46.34375 49.84375 
Q 52.203125 43.703125 52.203125 31.203125 
z
" id="DejaVuSans-97"/>
       <path d="M 45.40625 27.984375 
Q 45.40625 37.75 41.375 43.109375 
Q 37.359375 48.484375 30.078125 48.484375 
Q 22.859375 48.484375 18.828125 43.109375 
Q 14.796875 37.75 14.796875 27.984375 
Q 14.796875 18.265625 18.828125 12.890625 
Q 22.859375 7.515625 30.078125 7.515625 
Q 37.359375 7.515625 41.375 12.890625 
Q 45.40625 18.265625 45.40625 27.984375 
z
M 54.390625 6.78125 
Q 54.390625 -7.171875 48.1875 -13.984375 
Q 42 -20.796875 29.203125 -20.796875 
Q 24.46875 -20.796875 20.265625 -20.09375 
Q 16.0625 -19.390625 12.109375 -17.921875 
L 12.109375 -9.1875 
Q 16.0625 -11.328125 19.921875 -12.34375 
Q 23.78125 -13.375 27.78125 -13.375 
Q 36.625 -13.375 41.015625 -8.765625 
Q 45.40625 -4.15625 45.40625 5.171875 
L 45.40625 9.625 
Q 42.625 4.78125 38.28125 2.390625 
Q 33.9375 0 27.875 0 
Q 17.828125 0 11.671875 7.65625 
Q 5.515625 15.328125 5.515625 27.984375 
Q 5.515625 40.671875 11.671875 48.328125 
Q 17.828125 56 27.875 56 
Q 33.9375 56 38.28125 53.609375 
Q 42.625 51.21875 45.40625 46.390625 
L 45.40625 54.6875 
L 54.390625 54.6875 
z
" id="DejaVuSans-103"/>
       <path d="M 20.609375 0 
L 7.8125 72.90625 
L 17.484375 72.90625 
L 28.078125 10.203125 
L 63.484375 72.90625 
L 74.21875 72.90625 
L 32.078125 0 
z
" id="DejaVuSans-Oblique-86"/>
       <path d="M 18.3125 75.984375 
L 27.296875 75.984375 
L 18.703125 31.6875 
L 49.515625 54.6875 
L 61.1875 54.6875 
L 26.8125 28.515625 
L 51.90625 0 
L 41.015625 0 
L 17.671875 26.703125 
L 12.5 0 
L 3.515625 0 
z
" id="DejaVuSans-Oblique-107"/>
       <path d="M 11.71875 12.40625 
L 22.015625 12.40625 
L 22.015625 4 
L 14.015625 -11.625 
L 7.71875 -11.625 
L 11.71875 4 
z
" id="DejaVuSans-44"/>
       <path d="M 16.75 30.609375 
Q 17.09375 27 20.171875 21.140625 
Q 23.78125 14.359375 30.609375 10.546875 
Q 37.3125 6.84375 44.53125 6.78125 
L 78.5625 6.78125 
L 78.5625 -0.984375 
L 44.53125 -0.984375 
Q 35.15625 -0.984375 26.484375 3.84375 
Q 17.828125 8.6875 13.1875 17.28125 
Q 8.546875 25.875 8.546875 35.015625 
Q 8.546875 44.046875 13.1875 52.640625 
Q 17.828125 61.234375 26.484375 66.109375 
Q 35.15625 71 44.53125 71 
L 78.5625 71 
L 78.5625 63.234375 
L 44.53125 63.234375 
Q 37.3125 63.1875 30.609375 59.421875 
Q 23.828125 55.5625 20.171875 48.828125 
Q 17.046875 42.96875 16.609375 38.421875 
L 78.5625 38.421875 
L 78.5625 30.609375 
z
" id="DejaVuSans-8712"/>
       <path d="M 51.125 -9.28125 
L 51.125 -16.3125 
L 48.09375 -16.3125 
Q 35.9375 -16.3125 31.8125 -12.6875 
Q 27.6875 -9.078125 27.6875 1.703125 
L 27.6875 13.375 
Q 27.6875 20.75 25.046875 23.578125 
Q 22.40625 26.421875 15.484375 26.421875 
L 12.5 26.421875 
L 12.5 33.40625 
L 15.484375 33.40625 
Q 22.46875 33.40625 25.078125 36.203125 
Q 27.6875 39.015625 27.6875 46.296875 
L 27.6875 58.015625 
Q 27.6875 68.796875 31.8125 72.390625 
Q 35.9375 75.984375 48.09375 75.984375 
L 51.125 75.984375 
L 51.125 69 
L 47.796875 69 
Q 40.921875 69 38.8125 66.84375 
Q 36.71875 64.703125 36.71875 57.8125 
L 36.71875 45.703125 
Q 36.71875 38.03125 34.5 34.5625 
Q 32.28125 31.109375 26.90625 29.890625 
Q 32.328125 28.5625 34.515625 25.09375 
Q 36.71875 21.625 36.71875 14.015625 
L 36.71875 1.90625 
Q 36.71875 -4.984375 38.8125 -7.125 
Q 40.921875 -9.28125 47.796875 -9.28125 
z
" id="DejaVuSans-123"/>
      </defs>
      <use transform="translate(0 0.015625)" xlink:href="#DejaVuSans-86"/>
      <use transform="translate(68.408203 0.015625)" xlink:href="#DejaVuSans-111"/>
      <use transform="translate(129.589844 0.015625)" xlink:href="#DejaVuSans-108"/>
      <use transform="translate(157.373047 0.015625)" xlink:href="#DejaVuSans-116"/>
      <use transform="translate(196.582031 0.015625)" xlink:href="#DejaVuSans-97"/>
      <use transform="translate(257.861328 0.015625)" xlink:href="#DejaVuSans-103"/>
      <use transform="translate(321.337891 0.015625)" xlink:href="#DejaVuSans-101"/>
      <use transform="translate(382.861328 0.015625)" xlink:href="#DejaVuSans-32"/>
      <use transform="translate(414.648438 0.015625)" xlink:href="#DejaVuSans-Oblique-86"/>
      <use transform="translate(483.056641 -16.390625)scale(0.7)" xlink:href="#DejaVuSans-Oblique-107"/>
      <use transform="translate(526.328125 0.015625)" xlink:href="#DejaVuSans-44"/>
      <use transform="translate(577.597656 0.015625)" xlink:href="#DejaVuSans-Oblique-107"/>
      <use transform="translate(654.990234 0.015625)" xlink:href="#DejaVuSans-8712"/>
      <use transform="translate(761.582031 0.015625)" xlink:href="#DejaVuSans-123"/>
      <use transform="translate(825.205078 0.015625)" xlink:href="#DejaVuSans-49"/>
      <use transform="translate(888.828125 0.015625)" xlink:href="#DejaVuSans-44"/>
      <use transform="translate(940.097656 0.015625)" xlink:href="#DejaVuSans-50"/>
     </g>
    </g>
   </g>
   <g id="line2d_17">
    <path clip-path="url(#p0605f518d0)" d="M 87.361023 146.957697 
L 90.460847 139.916107 
L 93.59714 133.336994 
L 96.769902 127.197376 
L 99.942663 121.537185 
L 103.151893 116.262135 
L 106.397592 111.351896 
L 109.679759 106.786691 
L 112.998394 102.547331 
L 116.389967 98.574342 
L 118.468673 96.306014 
L 118.505141 45.638909 
L 118.505141 197.617091 
L 121.349686 186.366231 
L 124.194231 176.019811 
L 127.038775 166.508898 
L 129.88332 157.768456 
L 132.727865 149.737472 
L 135.57241 142.358979 
L 138.453423 135.496763 
L 141.334436 129.19854 
L 144.251918 123.347162 
L 147.205869 117.91665 
L 150.196287 112.881743 
L 151.873839 110.245793 
L 152.019714 109.044126 
L 153.624329 107.289907 
L 155.301881 105.78911 
L 157.088838 104.492619 
L 159.02167 103.365596 
L 161.209781 102.348971 
L 163.835515 101.381794 
L 167.336493 100.345291 
L 181.814497 96.308622 
L 181.850965 45.638909 
L 181.850965 197.617091 
L 184.987258 187.37829 
L 188.16002 177.780431 
L 191.332781 168.880985 
L 194.542011 160.53081 
L 197.78771 152.69886 
L 201.069877 145.356999 
L 204.352044 138.552191 
L 207.670679 132.177019 
L 211.025783 126.210185 
L 214.417356 120.631555 
L 217.808929 115.475215 
L 221.23697 110.661286 
L 224.737948 106.127514 
L 226.269626 104.258191 
L 226.4155 103.105102 
L 227.983646 101.887204 
L 229.62473 100.891631 
L 231.448156 100.050087 
L 233.490393 99.358027 
L 235.933784 98.77367 
L 239.179483 98.241453 
L 251.651718 96.40874 
L 252.162277 96.303143 
L 252.198745 45.638909 
L 252.198745 197.617091 
L 255.335038 187.735468 
L 258.544268 178.354445 
L 261.789967 169.546406 
L 265.072134 161.271836 
L 268.39077 153.497146 
L 271.745874 146.193408 
L 275.137446 139.335312 
L 278.565487 132.90032 
L 282.029997 126.867991 
L 285.494507 121.276083 
L 288.995485 116.041794 
L 292.532932 111.14901 
L 296.106847 106.582193 
L 298.076147 104.217864 
L 298.222021 103.068313 
L 299.790168 101.886161 
L 301.46772 100.90516 
L 303.291146 100.100719 
L 305.369852 99.433695 
L 307.849711 98.879352 
L 311.241284 98.365802 
L 322.254778 96.849421 
L 324.91698 96.304947 
L 324.953448 45.638909 
L 324.953448 197.617091 
L 328.12621 187.582698 
L 331.33544 178.165314 
L 334.581138 169.321021 
L 337.863305 161.012466 
L 341.181941 153.207516 
L 344.537045 145.878132 
L 347.928618 138.99946 
L 351.356659 132.549088 
L 354.7847 126.567691 
L 358.24921 120.965787 
L 361.750188 115.726073 
L 365.287634 110.831965 
L 368.86155 106.267417 
L 369.59092 105.380356 
L 369.736794 104.226147 
L 371.304941 102.995113 
L 372.982493 101.964146 
L 374.805919 101.107992 
L 376.884625 100.385149 
L 379.364484 99.768323 
L 382.719588 99.181505 
L 394.425984 97.313739 
L 398.546927 96.329245 
L 398.656333 96.299953 
L 398.692801 45.638909 
L 398.692801 197.617091 
L 401.865563 187.440345 
L 405.074793 177.888541 
L 408.320491 168.92202 
L 411.602658 160.506082 
L 414.884825 152.693574 
L 418.203461 145.361182 
L 421.558565 138.484909 
L 424.913669 132.10925 
L 428.305242 126.136843 
L 431.733283 120.548911 
L 435.161324 115.380305 
L 438.625834 110.552712 
L 441.397441 106.958304 
L 441.543315 105.796871 
L 443.111462 104.490367 
L 444.789014 103.382942 
L 446.61244 102.448415 
L 448.654677 101.654097 
L 451.098068 100.950412 
L 454.307298 100.272134 
L 467.83712 97.662563 
L 472.031 96.485505 
L 472.614497 96.303635 
L 472.650965 45.638909 
L 472.650965 197.617091 
L 475.823727 187.297238 
L 479.032957 177.614241 
L 482.242187 168.629529 
L 485.487885 160.197338 
L 488.733584 152.373501 
L 492.015751 145.034467 
L 495.334386 138.156667 
L 498.653022 131.785225 
L 502.008126 125.821566 
L 505.399699 120.246402 
L 508.791271 115.094333 
L 512.219312 110.285851 
L 513.605116 108.449192 
L 513.75099 107.280773 
L 515.319137 105.901351 
L 516.996689 104.720157 
L 518.820115 103.710124 
L 520.862352 102.836664 
L 523.269275 102.055558 
L 526.405568 101.286045 
L 533.079307 99.952982 
L 538.257838 98.786085 
L 542.63406 97.569153 
L 546.463255 96.310334 
L 546.499724 45.638909 
L 546.499724 197.617091 
L 549.672485 187.187625 
L 552.845247 177.513009 
L 556.054477 168.435133 
L 559.263707 160.015092 
L 562.509405 152.118473 
L 565.755104 144.798726 
L 569.037271 137.940667 
L 572.319438 131.590112 
L 575.638074 125.647817 
L 578.993178 120.094351 
L 582.38475 114.910881 
L 585.776323 110.128458 
L 586.141008 109.636847 
L 586.286882 108.46285 
L 587.891497 106.995213 
L 589.569049 105.761119 
L 591.392475 104.695908 
L 593.434713 103.763525 
L 595.841635 102.916846 
L 598.94146 102.076843 
L 604.776423 100.7818 
L 610.53845 99.403743 
L 615.024078 98.097573 
L 619.473238 96.566495 
L 620.16614 96.307538 
L 620.202608 45.638909 
L 620.202608 197.617091 
L 623.338901 187.226537 
L 626.511663 177.475295 
L 629.684424 168.430396 
L 632.893654 159.946275 
L 636.102884 152.081384 
L 639.348583 144.71086 
L 642.594281 137.884773 
L 645.876448 131.49552 
L 649.158615 125.585339 
L 652.477251 120.061245 
L 655.832355 114.904538 
L 658.895711 110.545304 
L 659.041585 109.367077 
L 660.6462 107.854267 
L 662.323752 106.575518 
L 664.147178 105.464581 
L 666.189415 104.484246 
L 668.596338 103.585162 
L 671.659694 102.693176 
L 677.057035 101.399911 
L 683.293153 99.829702 
L 687.851718 98.446176 
L 692.373815 96.837876 
L 693.759619 96.299604 
L 693.796087 45.638909 
L 693.796087 197.617091 
L 696.93238 187.172098 
L 700.105142 177.372605 
L 703.277903 168.286469 
L 706.487133 159.767616 
L 709.696363 151.874641 
L 712.905593 144.561888 
L 716.151292 137.713369 
L 719.39699 131.375453 
L 722.679157 125.447887 
L 725.997793 119.910912 
L 729.352897 114.745302 
L 731.796288 111.238328 
L 731.942162 110.056899 
L 733.546777 108.509878 
L 735.224329 107.197296 
L 737.047755 106.051695 
L 739.089992 105.034986 
L 741.460446 104.108744 
L 744.487334 103.17807 
L 749.556458 101.892263 
L 756.266667 100.135234 
L 760.898169 98.681996 
L 765.456734 97.016738 
L 767.243692 96.302929 
L 767.28016 45.638909 
L 767.28016 197.617091 
L 770.416453 187.134622 
L 773.589215 177.302056 
L 776.761976 168.187763 
L 779.934738 159.738719 
L 783.143968 151.819804 
L 786.353198 144.485834 
L 789.598896 137.620197 
L 792.844595 131.269048 
L 796.126762 125.331566 
L 799.445397 119.787632 
L 802.764033 114.671624 
L 804.80627 111.722149 
L 804.952144 110.538476 
L 806.556759 108.967503 
L 808.234311 107.631234 
L 810.057738 106.461369 
L 812.099975 105.419205 
L 814.470429 104.465537 
L 816.731477 103.727306 
L 816.731477 103.727306 
" style="fill:none;stroke:#aa3863;stroke-linecap:square;stroke-width:1.5;"/>
   </g>
   <g id="line2d_18">
    <path clip-path="url(#p0605f518d0)" d="M 87.361023 197.617091 
L 90.242036 186.469965 
L 93.123049 176.203221 
L 96.004063 166.746945 
L 98.885076 158.036809 
L 101.802558 149.916225 
L 104.72004 142.443565 
L 107.67399 135.484463 
L 110.62794 129.086746 
L 113.618359 123.135323 
L 116.645246 117.605398 
L 118.468673 114.496706 
L 118.614547 113.27636 
L 120.25563 111.279132 
L 121.969651 109.545787 
L 123.793077 108.020797 
L 125.762377 106.663845 
L 127.986957 105.403889 
L 130.612691 104.178463 
L 134.040732 102.838549 
L 140.75094 100.517004 
L 147.315274 98.137331 
L 151.873839 96.299748 
L 151.910308 45.638909 
L 151.910308 197.617091 
L 155.010132 187.221845 
L 158.146425 177.473524 
L 161.282718 168.438071 
L 164.45548 159.966891 
L 167.628241 152.117871 
L 170.837471 144.764086 
L 174.08317 137.881033 
L 177.328868 131.514091 
L 180.611035 125.561615 
L 181.814497 123.494278 
L 181.960371 122.269192 
L 183.637923 120.167688 
L 185.42488 118.289041 
L 187.321244 116.618487 
L 189.436418 115.056949 
L 191.84334 113.56246 
L 194.797291 112.000636 
L 199.027639 110.03985 
L 210.697567 104.734945 
L 216.350188 101.851704 
L 222.695711 98.355977 
L 226.269626 96.301548 
L 226.306094 45.638909 
L 226.306094 197.617091 
L 229.36945 186.875783 
L 232.432806 176.927018 
L 235.532631 167.610889 
L 238.632455 158.997086 
L 241.732279 151.035286 
L 244.832104 143.67823 
L 247.968397 136.804862 
L 251.10469 130.462417 
L 252.162277 128.436294 
L 252.308151 127.182576 
L 254.022172 124.714941 
L 255.809129 122.52767 
L 257.741961 120.516851 
L 259.820667 118.675329 
L 262.191121 116.878416 
L 264.999197 115.040293 
L 268.646049 112.936818 
L 275.392726 109.359642 
L 283.488738 104.97778 
L 290.527163 100.89945 
L 298.076147 96.319713 
L 298.112616 45.638909 
L 298.112616 197.617091 
L 301.175971 186.784936 
L 304.239327 176.76136 
L 307.302683 167.490196 
L 310.366039 158.918233 
L 313.429395 150.995278 
L 316.52922 143.590448 
L 319.629044 136.756097 
L 322.765337 130.378256 
L 324.91698 126.293725 
L 325.062854 125.046439 
L 326.740406 122.700324 
L 328.527364 120.581779 
L 330.423727 118.678371 
L 332.502433 116.910084 
L 334.836418 115.220999 
L 337.608026 113.498417 
L 341.218409 111.532744 
L 348.074492 108.11325 
L 355.659944 104.230985 
L 362.260747 100.590997 
L 369.59092 96.317035 
L 369.627389 45.638909 
L 369.627389 197.617091 
L 372.690745 186.842601 
L 375.7541 176.868051 
L 378.817456 167.637805 
L 381.880812 159.099288 
L 384.980637 151.112673 
L 388.080461 143.735553 
L 391.180286 136.922911 
L 394.316579 130.561676 
L 397.452871 124.694744 
L 398.656333 122.566672 
L 398.802207 121.334644 
L 400.479759 119.159502 
L 402.230248 117.250649 
L 404.126611 115.515807 
L 406.205317 113.923241 
L 408.539302 112.420563 
L 411.347379 110.886506 
L 415.103636 109.104852 
L 431.441535 101.632262 
L 437.604715 98.405155 
L 441.397441 96.317411 
L 441.43391 45.638909 
L 441.43391 197.617091 
L 444.533734 186.820394 
L 447.633559 176.826473 
L 450.733383 167.578783 
L 453.833208 159.024161 
L 456.933032 151.112755 
L 460.069325 143.715227 
L 463.205618 136.883268 
L 466.341911 130.57483 
L 469.514672 124.685764 
L 472.614497 119.374751 
L 472.760371 118.156486 
L 474.401454 116.175412 
L 476.151944 114.412147 
L 478.011838 112.855323 
L 480.054075 111.437086 
L 482.388061 110.091661 
L 485.232606 108.720181 
L 489.171206 107.090111 
L 502.044595 101.92117 
L 507.478405 99.40352 
L 513.495711 96.362155 
L 513.605116 96.304854 
L 513.641585 45.638909 
L 513.641585 197.617091 
L 516.741409 186.917337 
L 519.841234 177.005758 
L 522.941058 167.826653 
L 526.040883 159.327915 
L 529.177176 151.37188 
L 532.313469 144.015434 
L 535.48623 137.13877 
L 538.658991 130.788629 
L 541.868221 124.861053 
L 545.077451 119.394292 
L 546.463255 117.167242 
L 546.609129 115.958772 
L 548.250213 114.084786 
L 549.964234 112.46106 
L 551.824128 111.007177 
L 553.866365 109.696251 
L 556.200351 108.466372 
L 559.081364 107.211317 
L 563.202307 105.683478 
L 573.960521 101.78307 
L 579.102583 99.622015 
L 584.499925 97.107238 
L 586.141008 96.299425 
L 586.177477 45.638909 
L 586.177477 197.617091 
L 589.277301 186.993136 
L 592.377125 177.146261 
L 595.513418 167.918032 
L 598.649711 159.375617 
L 601.786004 151.46953 
L 604.958766 144.071965 
L 608.131527 137.234187 
L 611.340757 130.845248 
L 614.549987 124.947337 
L 617.795686 119.444347 
L 620.16614 115.698565 
L 620.312014 114.496693 
L 621.953097 112.694822 
L 623.667118 111.142411 
L 625.527013 109.761539 
L 627.56925 108.525854 
L 629.939704 107.359831 
L 632.857186 106.184948 
L 637.19694 104.70538 
L 646.532882 101.561441 
L 651.529069 99.605665 
L 656.634662 97.364801 
L 658.895711 96.302503 
L 658.932179 45.638909 
L 658.932179 197.617091 
L 662.068472 186.929705 
L 665.204765 177.028909 
L 668.341058 167.85796 
L 671.477351 159.364257 
L 674.650113 151.411063 
L 677.822874 144.054148 
L 680.995636 137.25001 
L 684.204866 130.888774 
L 687.414096 125.01299 
L 690.659794 119.527451 
L 693.759619 114.685867 
L 693.905493 113.488556 
L 695.510108 111.7719 
L 697.224128 110.262393 
L 699.047554 108.950163 
L 701.089792 107.757448 
L 703.423777 106.655752 
L 706.341259 105.536088 
L 710.681013 104.135795 
L 719.688738 101.257881 
L 724.611989 99.414734 
L 729.608176 97.301025 
L 731.796288 96.305143 
L 731.832756 45.638909 
L 731.832756 197.617091 
L 734.969049 186.97187 
L 738.105342 177.10729 
L 741.241635 167.966792 
L 744.377928 159.49811 
L 747.55069 151.565133 
L 750.723451 144.223796 
L 753.932681 137.35606 
L 757.141911 131.008405 
L 760.38761 125.078547 
L 763.633308 119.604828 
L 766.915475 114.49873 
L 767.243692 114.010583 
L 767.389566 112.816352 
L 768.994181 111.132603 
L 770.708202 109.656363 
L 772.531628 108.377506 
L 774.573865 107.219851 
L 776.944319 106.14049 
L 779.898269 105.054042 
L 784.420366 103.659517 
L 792.735189 101.099681 
L 797.585503 99.347729 
L 802.472285 97.342069 
L 804.80627 96.30557 
L 804.842739 45.638909 
L 804.842739 197.617091 
L 807.979032 187.001113 
L 811.115325 177.161707 
L 814.251618 168.042421 
L 816.731477 161.307212 
L 816.731477 161.307212 
" style="fill:none;stroke:#3b7d86;stroke-linecap:square;stroke-width:1.5;"/>
   </g>
   <g id="patch_3">
    <path d="M 50.8925 205.216 
L 50.8925 38.04 
" style="fill:none;stroke:#000000;stroke-linecap:square;stroke-linejoin:miter;stroke-width:0.8;"/>
   </g>
   <g id="patch_4">
    <path d="M 853.2 205.216 
L 853.2 38.04 
" style="fill:none;stroke:#000000;stroke-linecap:square;stroke-linejoin:miter;stroke-width:0.8;"/>
   </g>
   <g id="patch_5">
    <path d="M 50.8925 205.216 
L 853.2 205.216 
" style="fill:none;stroke:#000000;stroke-linecap:square;stroke-linejoin:miter;stroke-width:0.8;"/>
   </g>
   <g id="patch_6">
    <path d="M 50.8925 38.04 
L 853.2 38.04 
" style="fill:none;stroke:#000000;stroke-linecap:square;stroke-linejoin:miter;stroke-width:0.8;"/>
   </g>
   <g id="text_19">
    <!-- Example of electrically &amp; chemically coupled neurons, $I=1.4, \gamma=0.1, \beta=0.1, \kappa=0.4, \alpha=2$ -->
    <g transform="translate(134.10625 23.04)scale(0.14 -0.14)">
     <defs>
      <path d="M 9.8125 72.90625 
L 55.90625 72.90625 
L 55.90625 64.59375 
L 19.671875 64.59375 
L 19.671875 43.015625 
L 54.390625 43.015625 
L 54.390625 34.71875 
L 19.671875 34.71875 
L 19.671875 8.296875 
L 56.78125 8.296875 
L 56.78125 0 
L 9.8125 0 
z
" id="DejaVuSans-69"/>
      <path d="M 54.890625 54.6875 
L 35.109375 28.078125 
L 55.90625 0 
L 45.3125 0 
L 29.390625 21.484375 
L 13.484375 0 
L 2.875 0 
L 24.125 28.609375 
L 4.6875 54.6875 
L 15.28125 54.6875 
L 29.78125 35.203125 
L 44.28125 54.6875 
z
" id="DejaVuSans-120"/>
      <path d="M 18.109375 8.203125 
L 18.109375 -20.796875 
L 9.078125 -20.796875 
L 9.078125 54.6875 
L 18.109375 54.6875 
L 18.109375 46.390625 
Q 20.953125 51.265625 25.265625 53.625 
Q 29.59375 56 35.59375 56 
Q 45.5625 56 51.78125 48.09375 
Q 58.015625 40.1875 58.015625 27.296875 
Q 58.015625 14.40625 51.78125 6.484375 
Q 45.5625 -1.421875 35.59375 -1.421875 
Q 29.59375 -1.421875 25.265625 0.953125 
Q 20.953125 3.328125 18.109375 8.203125 
z
M 48.6875 27.296875 
Q 48.6875 37.203125 44.609375 42.84375 
Q 40.53125 48.484375 33.40625 48.484375 
Q 26.265625 48.484375 22.1875 42.84375 
Q 18.109375 37.203125 18.109375 27.296875 
Q 18.109375 17.390625 22.1875 11.75 
Q 26.265625 6.109375 33.40625 6.109375 
Q 40.53125 6.109375 44.609375 11.75 
Q 48.6875 17.390625 48.6875 27.296875 
z
" id="DejaVuSans-112"/>
      <path d="M 37.109375 75.984375 
L 37.109375 68.5 
L 28.515625 68.5 
Q 23.6875 68.5 21.796875 66.546875 
Q 19.921875 64.59375 19.921875 59.515625 
L 19.921875 54.6875 
L 34.71875 54.6875 
L 34.71875 47.703125 
L 19.921875 47.703125 
L 19.921875 0 
L 10.890625 0 
L 10.890625 47.703125 
L 2.296875 47.703125 
L 2.296875 54.6875 
L 10.890625 54.6875 
L 10.890625 58.5 
Q 10.890625 67.625 15.140625 71.796875 
Q 19.390625 75.984375 28.609375 75.984375 
z
" id="DejaVuSans-102"/>
      <path d="M 48.78125 52.59375 
L 48.78125 44.1875 
Q 44.96875 46.296875 41.140625 47.34375 
Q 37.3125 48.390625 33.40625 48.390625 
Q 24.65625 48.390625 19.8125 42.84375 
Q 14.984375 37.3125 14.984375 27.296875 
Q 14.984375 17.28125 19.8125 11.734375 
Q 24.65625 6.203125 33.40625 6.203125 
Q 37.3125 6.203125 41.140625 7.25 
Q 44.96875 8.296875 48.78125 10.40625 
L 48.78125 2.09375 
Q 45.015625 0.34375 40.984375 -0.53125 
Q 36.96875 -1.421875 32.421875 -1.421875 
Q 20.0625 -1.421875 12.78125 6.34375 
Q 5.515625 14.109375 5.515625 27.296875 
Q 5.515625 40.671875 12.859375 48.328125 
Q 20.21875 56 33.015625 56 
Q 37.15625 56 41.109375 55.140625 
Q 45.0625 54.296875 48.78125 52.59375 
z
" id="DejaVuSans-99"/>
      <path d="M 41.109375 46.296875 
Q 39.59375 47.171875 37.8125 47.578125 
Q 36.03125 48 33.890625 48 
Q 26.265625 48 22.1875 43.046875 
Q 18.109375 38.09375 18.109375 28.8125 
L 18.109375 0 
L 9.078125 0 
L 9.078125 54.6875 
L 18.109375 54.6875 
L 18.109375 46.1875 
Q 20.953125 51.171875 25.484375 53.578125 
Q 30.03125 56 36.53125 56 
Q 37.453125 56 38.578125 55.875 
Q 39.703125 55.765625 41.0625 55.515625 
z
" id="DejaVuSans-114"/>
      <path d="M 32.171875 -5.078125 
Q 28.375 -14.84375 24.75 -17.8125 
Q 21.140625 -20.796875 15.09375 -20.796875 
L 7.90625 -20.796875 
L 7.90625 -13.28125 
L 13.1875 -13.28125 
Q 16.890625 -13.28125 18.9375 -11.515625 
Q 21 -9.765625 23.484375 -3.21875 
L 25.09375 0.875 
L 2.984375 54.6875 
L 12.5 54.6875 
L 29.59375 11.921875 
L 46.6875 54.6875 
L 56.203125 54.6875 
z
" id="DejaVuSans-121"/>
      <path d="M 24.3125 39.203125 
Q 19.875 35.25 17.796875 31.3125 
Q 15.71875 27.390625 15.71875 23.09375 
Q 15.71875 15.96875 20.890625 11.234375 
Q 26.078125 6.5 33.890625 6.5 
Q 38.53125 6.5 42.578125 8.03125 
Q 46.625 9.578125 50.203125 12.703125 
z
M 31.203125 44.671875 
L 56 19.28125 
Q 58.890625 23.640625 60.5 28.59375 
Q 62.109375 33.546875 62.40625 39.109375 
L 71.484375 39.109375 
Q 70.90625 32.671875 68.359375 26.359375 
Q 65.828125 20.0625 61.28125 13.921875 
L 74.90625 0 
L 62.59375 0 
L 55.609375 7.171875 
Q 50.53125 2.828125 44.96875 0.703125 
Q 39.40625 -1.421875 33.015625 -1.421875 
Q 21.234375 -1.421875 13.765625 5.296875 
Q 6.296875 12.015625 6.296875 22.515625 
Q 6.296875 28.765625 9.5625 34.25 
Q 12.84375 39.75 19.390625 44.578125 
Q 17.046875 47.65625 15.8125 50.703125 
Q 14.59375 53.765625 14.59375 56.6875 
Q 14.59375 64.59375 20.015625 69.40625 
Q 25.4375 74.21875 34.421875 74.21875 
Q 38.484375 74.21875 42.5 73.34375 
Q 46.53125 72.46875 50.6875 70.703125 
L 50.6875 61.8125 
Q 46.4375 64.109375 42.578125 65.296875 
Q 38.71875 66.5 35.40625 66.5 
Q 30.28125 66.5 27.078125 63.78125 
Q 23.875 61.078125 23.875 56.78125 
Q 23.875 54.296875 25.3125 51.78125 
Q 26.765625 49.265625 31.203125 44.671875 
z
" id="DejaVuSans-38"/>
      <path d="M 54.890625 33.015625 
L 54.890625 0 
L 45.90625 0 
L 45.90625 32.71875 
Q 45.90625 40.484375 42.875 44.328125 
Q 39.84375 48.1875 33.796875 48.1875 
Q 26.515625 48.1875 22.3125 43.546875 
Q 18.109375 38.921875 18.109375 30.90625 
L 18.109375 0 
L 9.078125 0 
L 9.078125 75.984375 
L 18.109375 75.984375 
L 18.109375 46.1875 
Q 21.34375 51.125 25.703125 53.5625 
Q 30.078125 56 35.796875 56 
Q 45.21875 56 50.046875 50.171875 
Q 54.890625 44.34375 54.890625 33.015625 
z
" id="DejaVuSans-104"/>
      <path d="M 8.5 21.578125 
L 8.5 54.6875 
L 17.484375 54.6875 
L 17.484375 21.921875 
Q 17.484375 14.15625 20.5 10.265625 
Q 23.53125 6.390625 29.59375 6.390625 
Q 36.859375 6.390625 41.078125 11.03125 
Q 45.3125 15.671875 45.3125 23.6875 
L 45.3125 54.6875 
L 54.296875 54.6875 
L 54.296875 0 
L 45.3125 0 
L 45.3125 8.40625 
Q 42.046875 3.421875 37.71875 1 
Q 33.40625 -1.421875 27.6875 -1.421875 
Q 18.265625 -1.421875 13.375 4.4375 
Q 8.5 10.296875 8.5 21.578125 
z
M 31.109375 56 
z
" id="DejaVuSans-117"/>
      <path d="M 45.40625 46.390625 
L 45.40625 75.984375 
L 54.390625 75.984375 
L 54.390625 0 
L 45.40625 0 
L 45.40625 8.203125 
Q 42.578125 3.328125 38.25 0.953125 
Q 33.9375 -1.421875 27.875 -1.421875 
Q 17.96875 -1.421875 11.734375 6.484375 
Q 5.515625 14.40625 5.515625 27.296875 
Q 5.515625 40.1875 11.734375 48.09375 
Q 17.96875 56 27.875 56 
Q 33.9375 56 38.25 53.625 
Q 42.578125 51.265625 45.40625 46.390625 
z
M 14.796875 27.296875 
Q 14.796875 17.390625 18.875 11.75 
Q 22.953125 6.109375 30.078125 6.109375 
Q 37.203125 6.109375 41.296875 11.75 
Q 45.40625 17.390625 45.40625 27.296875 
Q 45.40625 37.203125 41.296875 42.84375 
Q 37.203125 48.484375 30.078125 48.484375 
Q 22.953125 48.484375 18.875 42.84375 
Q 14.796875 37.203125 14.796875 27.296875 
z
" id="DejaVuSans-100"/>
      <path d="M 54.890625 33.015625 
L 54.890625 0 
L 45.90625 0 
L 45.90625 32.71875 
Q 45.90625 40.484375 42.875 44.328125 
Q 39.84375 48.1875 33.796875 48.1875 
Q 26.515625 48.1875 22.3125 43.546875 
Q 18.109375 38.921875 18.109375 30.90625 
L 18.109375 0 
L 9.078125 0 
L 9.078125 54.6875 
L 18.109375 54.6875 
L 18.109375 46.1875 
Q 21.34375 51.125 25.703125 53.5625 
Q 30.078125 56 35.796875 56 
Q 45.21875 56 50.046875 50.171875 
Q 54.890625 44.34375 54.890625 33.015625 
z
" id="DejaVuSans-110"/>
      <path d="M 16.890625 72.90625 
L 26.8125 72.90625 
L 12.59375 0 
L 2.6875 0 
z
" id="DejaVuSans-Oblique-73"/>
      <path d="M 10.59375 45.40625 
L 73.1875 45.40625 
L 73.1875 37.203125 
L 10.59375 37.203125 
z
M 10.59375 25.484375 
L 73.1875 25.484375 
L 73.1875 17.1875 
L 10.59375 17.1875 
z
" id="DejaVuSans-61"/>
      <path d="M 37.796875 64.3125 
L 12.890625 25.390625 
L 37.796875 25.390625 
z
M 35.203125 72.90625 
L 47.609375 72.90625 
L 47.609375 25.390625 
L 58.015625 25.390625 
L 58.015625 17.1875 
L 47.609375 17.1875 
L 47.609375 0 
L 37.796875 0 
L 37.796875 17.1875 
L 4.890625 17.1875 
L 4.890625 26.703125 
z
" id="DejaVuSans-52"/>
      <path d="M 23.296875 46.09375 
L 28.71875 12.3125 
L 54 54.6875 
L 63.53125 54.6875 
L 30.8125 0 
L 26.765625 -20.796875 
L 17.78125 -20.796875 
L 21.828125 0 
L 15.4375 40.828125 
Q 14.453125 46.96875 9.8125 46.96875 
L 7.421875 46.96875 
L 8.890625 54.6875 
L 12.3125 54.6875 
Q 21.921875 54.6875 23.296875 46.09375 
z
" id="DejaVuSans-Oblique-947"/>
      <path d="M 13.625 3.375 
L 8.9375 -20.796875 
L -0.09375 -20.796875 
L 14.5 54.34375 
Q 18.84375 76.609375 39.65625 76.609375 
Q 60.75 76.609375 57.171875 57.8125 
Q 54.734375 44.4375 45.21875 39.546875 
Q 58.015625 35.15625 55.515625 22.125 
Q 51.125 -1.078125 27.484375 -1.03125 
Q 17.140625 -0.984375 13.625 3.375 
z
M 15.921875 15.09375 
Q 19.671875 6.59375 29.296875 6.640625 
Q 43.359375 6.640625 46.34375 21.96875 
Q 49.03125 35.75 26.171875 34.671875 
L 27.78125 42.96875 
Q 45.453125 42.671875 48.53125 58.59375 
Q 50.640625 69.34375 39.203125 69.28125 
Q 26.421875 69.28125 23.484375 54.046875 
z
" id="DejaVuSans-Oblique-946"/>
      <path d="M 14.65625 54.6875 
L 23.921875 54.6875 
L 19.484375 31.984375 
L 47.515625 54.6875 
L 58.453125 54.6875 
L 32.90625 34.078125 
L 51.171875 0 
L 40.1875 0 
L 25.4375 28.21875 
L 17.53125 21.921875 
L 13.28125 0 
L 4 0 
z
" id="DejaVuSans-Oblique-954"/>
      <path d="M 40.921875 25.4375 
L 40.96875 36.71875 
Q 41.015625 48.25 32.328125 48.296875 
Q 25.828125 48.34375 21.78125 42.921875 
Q 16.703125 36.234375 14.984375 27.296875 
Q 12.890625 16.546875 15.53125 11.421875 
Q 18.265625 6.203125 24.171875 6.203125 
Q 30.71875 6.203125 36.234375 16.609375 
z
M 33.84375 55.90625 
Q 49.078125 56.15625 48.875 40.375 
Q 48.875 40.375 56.5 54.6875 
L 64.5 54.6875 
L 48.734375 25.046875 
L 48.578125 14.359375 
Q 48.578125 11.96875 49.90625 9.96875 
Q 51.421875 7.625 52.984375 7.625 
L 57.328125 7.625 
L 55.859375 0 
L 50.4375 0 
Q 45.84375 0 42.53125 4.109375 
Q 40.96875 6.15625 40.921875 10.453125 
Q 37.75 5.21875 32.28125 0.78125 
Q 29.6875 -1.265625 22.703125 -1.21875 
Q 11.28125 -1.125 7.125 6.203125 
Q 2.875 13.8125 5.515625 27.296875 
Q 8.34375 41.796875 15.765625 48.390625 
Q 24.125 55.765625 33.84375 55.90625 
z
" id="DejaVuSans-Oblique-945"/>
     </defs>
     <use transform="translate(0 0.390625)" xlink:href="#DejaVuSans-69"/>
     <use transform="translate(63.183594 0.390625)" xlink:href="#DejaVuSans-120"/>
     <use transform="translate(122.363281 0.390625)" xlink:href="#DejaVuSans-97"/>
     <use transform="translate(183.642578 0.390625)" xlink:href="#DejaVuSans-109"/>
     <use transform="translate(281.054688 0.390625)" xlink:href="#DejaVuSans-112"/>
     <use transform="translate(344.53125 0.390625)" xlink:href="#DejaVuSans-108"/>
     <use transform="translate(372.314453 0.390625)" xlink:href="#DejaVuSans-101"/>
     <use transform="translate(433.837891 0.390625)" xlink:href="#DejaVuSans-32"/>
     <use transform="translate(465.625 0.390625)" xlink:href="#DejaVuSans-111"/>
     <use transform="translate(526.806641 0.390625)" xlink:href="#DejaVuSans-102"/>
     <use transform="translate(562.011719 0.390625)" xlink:href="#DejaVuSans-32"/>
     <use transform="translate(593.798828 0.390625)" xlink:href="#DejaVuSans-101"/>
     <use transform="translate(655.322266 0.390625)" xlink:href="#DejaVuSans-108"/>
     <use transform="translate(683.105469 0.390625)" xlink:href="#DejaVuSans-101"/>
     <use transform="translate(744.628906 0.390625)" xlink:href="#DejaVuSans-99"/>
     <use transform="translate(799.609375 0.390625)" xlink:href="#DejaVuSans-116"/>
     <use transform="translate(838.818359 0.390625)" xlink:href="#DejaVuSans-114"/>
     <use transform="translate(879.931641 0.390625)" xlink:href="#DejaVuSans-105"/>
     <use transform="translate(907.714844 0.390625)" xlink:href="#DejaVuSans-99"/>
     <use transform="translate(962.695312 0.390625)" xlink:href="#DejaVuSans-97"/>
     <use transform="translate(1023.974609 0.390625)" xlink:href="#DejaVuSans-108"/>
     <use transform="translate(1051.757812 0.390625)" xlink:href="#DejaVuSans-108"/>
     <use transform="translate(1079.541016 0.390625)" xlink:href="#DejaVuSans-121"/>
     <use transform="translate(1138.720703 0.390625)" xlink:href="#DejaVuSans-32"/>
     <use transform="translate(1170.507812 0.390625)" xlink:href="#DejaVuSans-38"/>
     <use transform="translate(1248.486328 0.390625)" xlink:href="#DejaVuSans-32"/>
     <use transform="translate(1280.273438 0.390625)" xlink:href="#DejaVuSans-99"/>
     <use transform="translate(1335.253906 0.390625)" xlink:href="#DejaVuSans-104"/>
     <use transform="translate(1398.632812 0.390625)" xlink:href="#DejaVuSans-101"/>
     <use transform="translate(1460.15625 0.390625)" xlink:href="#DejaVuSans-109"/>
     <use transform="translate(1557.568359 0.390625)" xlink:href="#DejaVuSans-105"/>
     <use transform="translate(1585.351562 0.390625)" xlink:href="#DejaVuSans-99"/>
     <use transform="translate(1640.332031 0.390625)" xlink:href="#DejaVuSans-97"/>
     <use transform="translate(1701.611328 0.390625)" xlink:href="#DejaVuSans-108"/>
     <use transform="translate(1729.394531 0.390625)" xlink:href="#DejaVuSans-108"/>
     <use transform="translate(1757.177734 0.390625)" xlink:href="#DejaVuSans-121"/>
     <use transform="translate(1816.357422 0.390625)" xlink:href="#DejaVuSans-32"/>
     <use transform="translate(1848.144531 0.390625)" xlink:href="#DejaVuSans-99"/>
     <use transform="translate(1903.125 0.390625)" xlink:href="#DejaVuSans-111"/>
     <use transform="translate(1964.306641 0.390625)" xlink:href="#DejaVuSans-117"/>
     <use transform="translate(2027.685547 0.390625)" xlink:href="#DejaVuSans-112"/>
     <use transform="translate(2091.162109 0.390625)" xlink:href="#DejaVuSans-108"/>
     <use transform="translate(2118.945312 0.390625)" xlink:href="#DejaVuSans-101"/>
     <use transform="translate(2180.46875 0.390625)" xlink:href="#DejaVuSans-100"/>
     <use transform="translate(2243.945312 0.390625)" xlink:href="#DejaVuSans-32"/>
     <use transform="translate(2275.732422 0.390625)" xlink:href="#DejaVuSans-110"/>
     <use transform="translate(2339.111328 0.390625)" xlink:href="#DejaVuSans-101"/>
     <use transform="translate(2400.634766 0.390625)" xlink:href="#DejaVuSans-117"/>
     <use transform="translate(2464.013672 0.390625)" xlink:href="#DejaVuSans-114"/>
     <use transform="translate(2505.126953 0.390625)" xlink:href="#DejaVuSans-111"/>
     <use transform="translate(2566.308594 0.390625)" xlink:href="#DejaVuSans-110"/>
     <use transform="translate(2629.6875 0.390625)" xlink:href="#DejaVuSans-115"/>
     <use transform="translate(2681.787109 0.390625)" xlink:href="#DejaVuSans-44"/>
     <use transform="translate(2713.574219 0.390625)" xlink:href="#DejaVuSans-32"/>
     <use transform="translate(2745.361328 0.390625)" xlink:href="#DejaVuSans-Oblique-73"/>
     <use transform="translate(2794.335938 0.390625)" xlink:href="#DejaVuSans-61"/>
     <use transform="translate(2897.607422 0.390625)" xlink:href="#DejaVuSans-49"/>
     <use transform="translate(2961.230469 0.390625)" xlink:href="#DejaVuSans-46"/>
     <use transform="translate(2993.017578 0.390625)" xlink:href="#DejaVuSans-52"/>
     <use transform="translate(3056.640625 0.390625)" xlink:href="#DejaVuSans-44"/>
     <use transform="translate(3107.910156 0.390625)" xlink:href="#DejaVuSans-Oblique-947"/>
     <use transform="translate(3186.572266 0.390625)" xlink:href="#DejaVuSans-61"/>
     <use transform="translate(3289.84375 0.390625)" xlink:href="#DejaVuSans-48"/>
     <use transform="translate(3353.466797 0.390625)" xlink:href="#DejaVuSans-46"/>
     <use transform="translate(3385.253906 0.390625)" xlink:href="#DejaVuSans-49"/>
     <use transform="translate(3448.876953 0.390625)" xlink:href="#DejaVuSans-44"/>
     <use transform="translate(3500.146484 0.390625)" xlink:href="#DejaVuSans-Oblique-946"/>
     <use transform="translate(3583.447266 0.390625)" xlink:href="#DejaVuSans-61"/>
     <use transform="translate(3686.71875 0.390625)" xlink:href="#DejaVuSans-48"/>
     <use transform="translate(3750.341797 0.390625)" xlink:href="#DejaVuSans-46"/>
     <use transform="translate(3782.128906 0.390625)" xlink:href="#DejaVuSans-49"/>
     <use transform="translate(3845.751953 0.390625)" xlink:href="#DejaVuSans-44"/>
     <use transform="translate(3897.021484 0.390625)" xlink:href="#DejaVuSans-Oblique-954"/>
     <use transform="translate(3975.439453 0.390625)" xlink:href="#DejaVuSans-61"/>
     <use transform="translate(4078.710938 0.390625)" xlink:href="#DejaVuSans-48"/>
     <use transform="translate(4142.333984 0.390625)" xlink:href="#DejaVuSans-46"/>
     <use transform="translate(4174.121094 0.390625)" xlink:href="#DejaVuSans-52"/>
     <use transform="translate(4237.744141 0.390625)" xlink:href="#DejaVuSans-44"/>
     <use transform="translate(4289.013672 0.390625)" xlink:href="#DejaVuSans-Oblique-945"/>
     <use transform="translate(4374.414062 0.390625)" xlink:href="#DejaVuSans-61"/>
     <use transform="translate(4477.685547 0.390625)" xlink:href="#DejaVuSans-50"/>
    </g>
   </g>
   <g id="legend_1">
    <g id="patch_7">
     <path d="M 800.07 77.264062 
L 845.85 77.264062 
Q 847.95 77.264062 847.95 75.164062 
L 847.95 45.39 
Q 847.95 43.29 845.85 43.29 
L 800.07 43.29 
Q 797.97 43.29 797.97 45.39 
L 797.97 75.164062 
Q 797.97 77.264062 800.07 77.264062 
z
" style="fill:#ffffff;opacity:0.8;stroke:#cccccc;stroke-linejoin:miter;"/>
    </g>
    <g id="line2d_19">
     <path d="M 802.17 51.793359 
L 823.17 51.793359 
" style="fill:none;stroke:#aa3863;stroke-linecap:square;stroke-width:1.5;"/>
    </g>
    <g id="line2d_20"/>
    <g id="text_20">
     <!-- $V_{1}$ -->
     <g transform="translate(831.57 55.468359)scale(0.105 -0.105)">
      <use transform="translate(0 0.09375)" xlink:href="#DejaVuSans-Oblique-86"/>
      <use transform="translate(68.408203 -16.3125)scale(0.7)" xlink:href="#DejaVuSans-49"/>
     </g>
    </g>
    <g id="line2d_21">
     <path d="M 802.17 67.205391 
L 823.17 67.205391 
" style="fill:none;stroke:#3b7d86;stroke-linecap:square;stroke-width:1.5;"/>
    </g>
    <g id="line2d_22"/>
    <g id="text_21">
     <!-- $V_{2}$ -->
     <g transform="translate(831.57 70.880391)scale(0.105 -0.105)">
      <use transform="translate(0 0.09375)" xlink:href="#DejaVuSans-Oblique-86"/>
      <use transform="translate(68.408203 -16.3125)scale(0.7)" xlink:href="#DejaVuSans-50"/>
     </g>
    </g>
   </g>
  </g>
 </g>
 <defs>
  <clipPath id="p0605f518d0">
   <rect height="167.176" width="802.3075" x="50.8925" y="38.04"/>
  </clipPath>
 </defs>
</svg>
