<?xml version="1.0" encoding="utf-8" standalone="no"?>
<!DOCTYPE svg PUBLIC "-//W3C//DTD SVG 1.1//EN"
  "http://www.w3.org/Graphics/SVG/1.1/DTD/svg11.dtd">
<!-- Created with matplotlib (https://matplotlib.org/) -->
<svg height="388.8pt" version="1.1" viewBox="0 0 1008 388.8" width="1008pt" xmlns="http://www.w3.org/2000/svg" xmlns:xlink="http://www.w3.org/1999/xlink">
 <metadata>
  <rdf:RDF xmlns:cc="http://creativecommons.org/ns#" xmlns:dc="http://purl.org/dc/elements/1.1/" xmlns:rdf="http://www.w3.org/1999/02/22-rdf-syntax-ns#">
   <cc:Work>
    <dc:type rdf:resource="http://purl.org/dc/dcmitype/StillImage"/>
    <dc:date>2021-08-23T04:16:17.181892</dc:date>
    <dc:format>image/svg+xml</dc:format>
    <dc:creator>
     <cc:Agent>
      <dc:title>Matplotlib v3.3.3, https://matplotlib.org/</dc:title>
     </cc:Agent>
    </dc:creator>
   </cc:Work>
  </rdf:RDF>
 </metadata>
 <defs>
  <style type="text/css">*{stroke-linecap:butt;stroke-linejoin:round;}</style>
 </defs>
 <g id="figure_1">
  <g id="patch_1">
   <path d="M 0 388.8 
L 1008 388.8 
L 1008 0 
L 0 0 
z
" style="fill:#ffffff;"/>
  </g>
  <g id="axes_1">
   <g id="patch_2">
    <path d="M 54.2 337.24 
L 501.005 337.24 
L 501.005 36 
L 54.2 36 
z
" style="fill:#ffffff;"/>
   </g>
   <g id="patch_3">
    <path clip-path="url(#p98fb9d592c)" d="M 54.2 337.24 
L 54.2 36 
L 275.011031 36 
L 275.011031 337.24 
z
" style="fill:#333333;opacity:0.1;"/>
   </g>
   <g id="matplotlib.axis_1">
    <g id="xtick_1">
     <g id="line2d_1">
      <defs>
       <path d="M 0 0 
L 0 3.5 
" id="mc42372ec72" style="stroke:#000000;stroke-width:0.8;"/>
      </defs>
      <g>
       <use style="stroke:#000000;stroke-width:0.8;" x="54.2" xlink:href="#mc42372ec72" y="337.24"/>
      </g>
     </g>
     <g id="text_1">
      <!-- 1.0 -->
      <g transform="translate(46.248437 351.838437)scale(0.1 -0.1)">
       <defs>
        <path d="M 12.40625 8.296875 
L 28.515625 8.296875 
L 28.515625 63.921875 
L 10.984375 60.40625 
L 10.984375 69.390625 
L 28.421875 72.90625 
L 38.28125 72.90625 
L 38.28125 8.296875 
L 54.390625 8.296875 
L 54.390625 0 
L 12.40625 0 
z
" id="DejaVuSans-49"/>
        <path d="M 10.6875 12.40625 
L 21 12.40625 
L 21 0 
L 10.6875 0 
z
" id="DejaVuSans-46"/>
        <path d="M 31.78125 66.40625 
Q 24.171875 66.40625 20.328125 58.90625 
Q 16.5 51.421875 16.5 36.375 
Q 16.5 21.390625 20.328125 13.890625 
Q 24.171875 6.390625 31.78125 6.390625 
Q 39.453125 6.390625 43.28125 13.890625 
Q 47.125 21.390625 47.125 36.375 
Q 47.125 51.421875 43.28125 58.90625 
Q 39.453125 66.40625 31.78125 66.40625 
z
M 31.78125 74.21875 
Q 44.046875 74.21875 50.515625 64.515625 
Q 56.984375 54.828125 56.984375 36.375 
Q 56.984375 17.96875 50.515625 8.265625 
Q 44.046875 -1.421875 31.78125 -1.421875 
Q 19.53125 -1.421875 13.0625 8.265625 
Q 6.59375 17.96875 6.59375 36.375 
Q 6.59375 54.828125 13.0625 64.515625 
Q 19.53125 74.21875 31.78125 74.21875 
z
" id="DejaVuSans-48"/>
       </defs>
       <use xlink:href="#DejaVuSans-49"/>
       <use x="63.623047" xlink:href="#DejaVuSans-46"/>
       <use x="95.410156" xlink:href="#DejaVuSans-48"/>
      </g>
     </g>
    </g>
    <g id="xtick_2">
     <g id="line2d_2">
      <g>
       <use style="stroke:#000000;stroke-width:0.8;" x="143.561" xlink:href="#mc42372ec72" y="337.24"/>
      </g>
     </g>
     <g id="text_2">
      <!-- 1.2 -->
      <g transform="translate(135.609438 351.838437)scale(0.1 -0.1)">
       <defs>
        <path d="M 19.1875 8.296875 
L 53.609375 8.296875 
L 53.609375 0 
L 7.328125 0 
L 7.328125 8.296875 
Q 12.9375 14.109375 22.625 23.890625 
Q 32.328125 33.6875 34.8125 36.53125 
Q 39.546875 41.84375 41.421875 45.53125 
Q 43.3125 49.21875 43.3125 52.78125 
Q 43.3125 58.59375 39.234375 62.25 
Q 35.15625 65.921875 28.609375 65.921875 
Q 23.96875 65.921875 18.8125 64.3125 
Q 13.671875 62.703125 7.8125 59.421875 
L 7.8125 69.390625 
Q 13.765625 71.78125 18.9375 73 
Q 24.125 74.21875 28.421875 74.21875 
Q 39.75 74.21875 46.484375 68.546875 
Q 53.21875 62.890625 53.21875 53.421875 
Q 53.21875 48.921875 51.53125 44.890625 
Q 49.859375 40.875 45.40625 35.40625 
Q 44.1875 33.984375 37.640625 27.21875 
Q 31.109375 20.453125 19.1875 8.296875 
z
" id="DejaVuSans-50"/>
       </defs>
       <use xlink:href="#DejaVuSans-49"/>
       <use x="63.623047" xlink:href="#DejaVuSans-46"/>
       <use x="95.410156" xlink:href="#DejaVuSans-50"/>
      </g>
     </g>
    </g>
    <g id="xtick_3">
     <g id="line2d_3">
      <g>
       <use style="stroke:#000000;stroke-width:0.8;" x="232.922" xlink:href="#mc42372ec72" y="337.24"/>
      </g>
     </g>
     <g id="text_3">
      <!-- 1.4 -->
      <g transform="translate(224.970438 351.838437)scale(0.1 -0.1)">
       <defs>
        <path d="M 37.796875 64.3125 
L 12.890625 25.390625 
L 37.796875 25.390625 
z
M 35.203125 72.90625 
L 47.609375 72.90625 
L 47.609375 25.390625 
L 58.015625 25.390625 
L 58.015625 17.1875 
L 47.609375 17.1875 
L 47.609375 0 
L 37.796875 0 
L 37.796875 17.1875 
L 4.890625 17.1875 
L 4.890625 26.703125 
z
" id="DejaVuSans-52"/>
       </defs>
       <use xlink:href="#DejaVuSans-49"/>
       <use x="63.623047" xlink:href="#DejaVuSans-46"/>
       <use x="95.410156" xlink:href="#DejaVuSans-52"/>
      </g>
     </g>
    </g>
    <g id="xtick_4">
     <g id="line2d_4">
      <g>
       <use style="stroke:#000000;stroke-width:0.8;" x="322.283" xlink:href="#mc42372ec72" y="337.24"/>
      </g>
     </g>
     <g id="text_4">
      <!-- 1.6 -->
      <g transform="translate(314.331438 351.838437)scale(0.1 -0.1)">
       <defs>
        <path d="M 33.015625 40.375 
Q 26.375 40.375 22.484375 35.828125 
Q 18.609375 31.296875 18.609375 23.390625 
Q 18.609375 15.53125 22.484375 10.953125 
Q 26.375 6.390625 33.015625 6.390625 
Q 39.65625 6.390625 43.53125 10.953125 
Q 47.40625 15.53125 47.40625 23.390625 
Q 47.40625 31.296875 43.53125 35.828125 
Q 39.65625 40.375 33.015625 40.375 
z
M 52.59375 71.296875 
L 52.59375 62.3125 
Q 48.875 64.0625 45.09375 64.984375 
Q 41.3125 65.921875 37.59375 65.921875 
Q 27.828125 65.921875 22.671875 59.328125 
Q 17.53125 52.734375 16.796875 39.40625 
Q 19.671875 43.65625 24.015625 45.921875 
Q 28.375 48.1875 33.59375 48.1875 
Q 44.578125 48.1875 50.953125 41.515625 
Q 57.328125 34.859375 57.328125 23.390625 
Q 57.328125 12.15625 50.6875 5.359375 
Q 44.046875 -1.421875 33.015625 -1.421875 
Q 20.359375 -1.421875 13.671875 8.265625 
Q 6.984375 17.96875 6.984375 36.375 
Q 6.984375 53.65625 15.1875 63.9375 
Q 23.390625 74.21875 37.203125 74.21875 
Q 40.921875 74.21875 44.703125 73.484375 
Q 48.484375 72.75 52.59375 71.296875 
z
" id="DejaVuSans-54"/>
       </defs>
       <use xlink:href="#DejaVuSans-49"/>
       <use x="63.623047" xlink:href="#DejaVuSans-46"/>
       <use x="95.410156" xlink:href="#DejaVuSans-54"/>
      </g>
     </g>
    </g>
    <g id="xtick_5">
     <g id="line2d_5">
      <g>
       <use style="stroke:#000000;stroke-width:0.8;" x="411.644" xlink:href="#mc42372ec72" y="337.24"/>
      </g>
     </g>
     <g id="text_5">
      <!-- 1.8 -->
      <g transform="translate(403.692438 351.838437)scale(0.1 -0.1)">
       <defs>
        <path d="M 31.78125 34.625 
Q 24.75 34.625 20.71875 30.859375 
Q 16.703125 27.09375 16.703125 20.515625 
Q 16.703125 13.921875 20.71875 10.15625 
Q 24.75 6.390625 31.78125 6.390625 
Q 38.8125 6.390625 42.859375 10.171875 
Q 46.921875 13.96875 46.921875 20.515625 
Q 46.921875 27.09375 42.890625 30.859375 
Q 38.875 34.625 31.78125 34.625 
z
M 21.921875 38.8125 
Q 15.578125 40.375 12.03125 44.71875 
Q 8.5 49.078125 8.5 55.328125 
Q 8.5 64.0625 14.71875 69.140625 
Q 20.953125 74.21875 31.78125 74.21875 
Q 42.671875 74.21875 48.875 69.140625 
Q 55.078125 64.0625 55.078125 55.328125 
Q 55.078125 49.078125 51.53125 44.71875 
Q 48 40.375 41.703125 38.8125 
Q 48.828125 37.15625 52.796875 32.3125 
Q 56.78125 27.484375 56.78125 20.515625 
Q 56.78125 9.90625 50.3125 4.234375 
Q 43.84375 -1.421875 31.78125 -1.421875 
Q 19.734375 -1.421875 13.25 4.234375 
Q 6.78125 9.90625 6.78125 20.515625 
Q 6.78125 27.484375 10.78125 32.3125 
Q 14.796875 37.15625 21.921875 38.8125 
z
M 18.3125 54.390625 
Q 18.3125 48.734375 21.84375 45.5625 
Q 25.390625 42.390625 31.78125 42.390625 
Q 38.140625 42.390625 41.71875 45.5625 
Q 45.3125 48.734375 45.3125 54.390625 
Q 45.3125 60.0625 41.71875 63.234375 
Q 38.140625 66.40625 31.78125 66.40625 
Q 25.390625 66.40625 21.84375 63.234375 
Q 18.3125 60.0625 18.3125 54.390625 
z
" id="DejaVuSans-56"/>
       </defs>
       <use xlink:href="#DejaVuSans-49"/>
       <use x="63.623047" xlink:href="#DejaVuSans-46"/>
       <use x="95.410156" xlink:href="#DejaVuSans-56"/>
      </g>
     </g>
    </g>
    <g id="xtick_6">
     <g id="line2d_6">
      <g>
       <use style="stroke:#000000;stroke-width:0.8;" x="501.005" xlink:href="#mc42372ec72" y="337.24"/>
      </g>
     </g>
     <g id="text_6">
      <!-- 2.0 -->
      <g transform="translate(493.053438 351.838437)scale(0.1 -0.1)">
       <use xlink:href="#DejaVuSans-50"/>
       <use x="63.623047" xlink:href="#DejaVuSans-46"/>
       <use x="95.410156" xlink:href="#DejaVuSans-48"/>
      </g>
     </g>
    </g>
    <g id="text_7">
     <!-- Current $I$ -->
     <g transform="translate(246.7325 374.555938)scale(0.14 -0.14)">
      <defs>
       <path d="M 64.40625 67.28125 
L 64.40625 56.890625 
Q 59.421875 61.53125 53.78125 63.8125 
Q 48.140625 66.109375 41.796875 66.109375 
Q 29.296875 66.109375 22.65625 58.46875 
Q 16.015625 50.828125 16.015625 36.375 
Q 16.015625 21.96875 22.65625 14.328125 
Q 29.296875 6.6875 41.796875 6.6875 
Q 48.140625 6.6875 53.78125 8.984375 
Q 59.421875 11.28125 64.40625 15.921875 
L 64.40625 5.609375 
Q 59.234375 2.09375 53.4375 0.328125 
Q 47.65625 -1.421875 41.21875 -1.421875 
Q 24.65625 -1.421875 15.125 8.703125 
Q 5.609375 18.84375 5.609375 36.375 
Q 5.609375 53.953125 15.125 64.078125 
Q 24.65625 74.21875 41.21875 74.21875 
Q 47.75 74.21875 53.53125 72.484375 
Q 59.328125 70.75 64.40625 67.28125 
z
" id="DejaVuSans-67"/>
       <path d="M 8.5 21.578125 
L 8.5 54.6875 
L 17.484375 54.6875 
L 17.484375 21.921875 
Q 17.484375 14.15625 20.5 10.265625 
Q 23.53125 6.390625 29.59375 6.390625 
Q 36.859375 6.390625 41.078125 11.03125 
Q 45.3125 15.671875 45.3125 23.6875 
L 45.3125 54.6875 
L 54.296875 54.6875 
L 54.296875 0 
L 45.3125 0 
L 45.3125 8.40625 
Q 42.046875 3.421875 37.71875 1 
Q 33.40625 -1.421875 27.6875 -1.421875 
Q 18.265625 -1.421875 13.375 4.4375 
Q 8.5 10.296875 8.5 21.578125 
z
M 31.109375 56 
z
" id="DejaVuSans-117"/>
       <path d="M 41.109375 46.296875 
Q 39.59375 47.171875 37.8125 47.578125 
Q 36.03125 48 33.890625 48 
Q 26.265625 48 22.1875 43.046875 
Q 18.109375 38.09375 18.109375 28.8125 
L 18.109375 0 
L 9.078125 0 
L 9.078125 54.6875 
L 18.109375 54.6875 
L 18.109375 46.1875 
Q 20.953125 51.171875 25.484375 53.578125 
Q 30.03125 56 36.53125 56 
Q 37.453125 56 38.578125 55.875 
Q 39.703125 55.765625 41.0625 55.515625 
z
" id="DejaVuSans-114"/>
       <path d="M 56.203125 29.59375 
L 56.203125 25.203125 
L 14.890625 25.203125 
Q 15.484375 15.921875 20.484375 11.0625 
Q 25.484375 6.203125 34.421875 6.203125 
Q 39.59375 6.203125 44.453125 7.46875 
Q 49.3125 8.734375 54.109375 11.28125 
L 54.109375 2.78125 
Q 49.265625 0.734375 44.1875 -0.34375 
Q 39.109375 -1.421875 33.890625 -1.421875 
Q 20.796875 -1.421875 13.15625 6.1875 
Q 5.515625 13.8125 5.515625 26.8125 
Q 5.515625 40.234375 12.765625 48.109375 
Q 20.015625 56 32.328125 56 
Q 43.359375 56 49.78125 48.890625 
Q 56.203125 41.796875 56.203125 29.59375 
z
M 47.21875 32.234375 
Q 47.125 39.59375 43.09375 43.984375 
Q 39.0625 48.390625 32.421875 48.390625 
Q 24.90625 48.390625 20.390625 44.140625 
Q 15.875 39.890625 15.1875 32.171875 
z
" id="DejaVuSans-101"/>
       <path d="M 54.890625 33.015625 
L 54.890625 0 
L 45.90625 0 
L 45.90625 32.71875 
Q 45.90625 40.484375 42.875 44.328125 
Q 39.84375 48.1875 33.796875 48.1875 
Q 26.515625 48.1875 22.3125 43.546875 
Q 18.109375 38.921875 18.109375 30.90625 
L 18.109375 0 
L 9.078125 0 
L 9.078125 54.6875 
L 18.109375 54.6875 
L 18.109375 46.1875 
Q 21.34375 51.125 25.703125 53.5625 
Q 30.078125 56 35.796875 56 
Q 45.21875 56 50.046875 50.171875 
Q 54.890625 44.34375 54.890625 33.015625 
z
" id="DejaVuSans-110"/>
       <path d="M 18.3125 70.21875 
L 18.3125 54.6875 
L 36.8125 54.6875 
L 36.8125 47.703125 
L 18.3125 47.703125 
L 18.3125 18.015625 
Q 18.3125 11.328125 20.140625 9.421875 
Q 21.96875 7.515625 27.59375 7.515625 
L 36.8125 7.515625 
L 36.8125 0 
L 27.59375 0 
Q 17.1875 0 13.234375 3.875 
Q 9.28125 7.765625 9.28125 18.015625 
L 9.28125 47.703125 
L 2.6875 47.703125 
L 2.6875 54.6875 
L 9.28125 54.6875 
L 9.28125 70.21875 
z
" id="DejaVuSans-116"/>
       <path id="DejaVuSans-32"/>
       <path d="M 16.890625 72.90625 
L 26.8125 72.90625 
L 12.59375 0 
L 2.6875 0 
z
" id="DejaVuSans-Oblique-73"/>
      </defs>
      <use transform="translate(0 0.78125)" xlink:href="#DejaVuSans-67"/>
      <use transform="translate(69.824219 0.78125)" xlink:href="#DejaVuSans-117"/>
      <use transform="translate(133.203125 0.78125)" xlink:href="#DejaVuSans-114"/>
      <use transform="translate(174.316406 0.78125)" xlink:href="#DejaVuSans-114"/>
      <use transform="translate(215.429688 0.78125)" xlink:href="#DejaVuSans-101"/>
      <use transform="translate(276.953125 0.78125)" xlink:href="#DejaVuSans-110"/>
      <use transform="translate(340.332031 0.78125)" xlink:href="#DejaVuSans-116"/>
      <use transform="translate(379.541016 0.78125)" xlink:href="#DejaVuSans-32"/>
      <use transform="translate(411.328125 0.78125)" xlink:href="#DejaVuSans-Oblique-73"/>
     </g>
    </g>
   </g>
   <g id="matplotlib.axis_2">
    <g id="ytick_1">
     <g id="line2d_7">
      <defs>
       <path d="M 0 0 
L -3.5 0 
" id="m7a6fd62494" style="stroke:#000000;stroke-width:0.8;"/>
      </defs>
      <g>
       <use style="stroke:#000000;stroke-width:0.8;" x="54.2" xlink:href="#m7a6fd62494" y="323.547273"/>
      </g>
     </g>
     <g id="text_8">
      <!-- 0.0 -->
      <g transform="translate(31.296875 327.346491)scale(0.1 -0.1)">
       <use xlink:href="#DejaVuSans-48"/>
       <use x="63.623047" xlink:href="#DejaVuSans-46"/>
       <use x="95.410156" xlink:href="#DejaVuSans-48"/>
      </g>
     </g>
    </g>
    <g id="ytick_2">
     <g id="line2d_8">
      <g>
       <use style="stroke:#000000;stroke-width:0.8;" x="54.2" xlink:href="#m7a6fd62494" y="268.776364"/>
      </g>
     </g>
     <g id="text_9">
      <!-- 0.2 -->
      <g transform="translate(31.296875 272.575582)scale(0.1 -0.1)">
       <use xlink:href="#DejaVuSans-48"/>
       <use x="63.623047" xlink:href="#DejaVuSans-46"/>
       <use x="95.410156" xlink:href="#DejaVuSans-50"/>
      </g>
     </g>
    </g>
    <g id="ytick_3">
     <g id="line2d_9">
      <g>
       <use style="stroke:#000000;stroke-width:0.8;" x="54.2" xlink:href="#m7a6fd62494" y="214.005455"/>
      </g>
     </g>
     <g id="text_10">
      <!-- 0.4 -->
      <g transform="translate(31.296875 217.804673)scale(0.1 -0.1)">
       <use xlink:href="#DejaVuSans-48"/>
       <use x="63.623047" xlink:href="#DejaVuSans-46"/>
       <use x="95.410156" xlink:href="#DejaVuSans-52"/>
      </g>
     </g>
    </g>
    <g id="ytick_4">
     <g id="line2d_10">
      <g>
       <use style="stroke:#000000;stroke-width:0.8;" x="54.2" xlink:href="#m7a6fd62494" y="159.234545"/>
      </g>
     </g>
     <g id="text_11">
      <!-- 0.6 -->
      <g transform="translate(31.296875 163.033764)scale(0.1 -0.1)">
       <use xlink:href="#DejaVuSans-48"/>
       <use x="63.623047" xlink:href="#DejaVuSans-46"/>
       <use x="95.410156" xlink:href="#DejaVuSans-54"/>
      </g>
     </g>
    </g>
    <g id="ytick_5">
     <g id="line2d_11">
      <g>
       <use style="stroke:#000000;stroke-width:0.8;" x="54.2" xlink:href="#m7a6fd62494" y="104.463636"/>
      </g>
     </g>
     <g id="text_12">
      <!-- 0.8 -->
      <g transform="translate(31.296875 108.262855)scale(0.1 -0.1)">
       <use xlink:href="#DejaVuSans-48"/>
       <use x="63.623047" xlink:href="#DejaVuSans-46"/>
       <use x="95.410156" xlink:href="#DejaVuSans-56"/>
      </g>
     </g>
    </g>
    <g id="ytick_6">
     <g id="line2d_12">
      <g>
       <use style="stroke:#000000;stroke-width:0.8;" x="54.2" xlink:href="#m7a6fd62494" y="49.692727"/>
      </g>
     </g>
     <g id="text_13">
      <!-- 1.0 -->
      <g transform="translate(31.296875 53.491946)scale(0.1 -0.1)">
       <use xlink:href="#DejaVuSans-49"/>
       <use x="63.623047" xlink:href="#DejaVuSans-46"/>
       <use x="95.410156" xlink:href="#DejaVuSans-48"/>
      </g>
     </g>
    </g>
    <g id="text_14">
     <!-- Phase Difference $\phi$ -->
     <g transform="translate(24.356875 252.98)rotate(-90)scale(0.14 -0.14)">
      <defs>
       <path d="M 19.671875 64.796875 
L 19.671875 37.40625 
L 32.078125 37.40625 
Q 38.96875 37.40625 42.71875 40.96875 
Q 46.484375 44.53125 46.484375 51.125 
Q 46.484375 57.671875 42.71875 61.234375 
Q 38.96875 64.796875 32.078125 64.796875 
z
M 9.8125 72.90625 
L 32.078125 72.90625 
Q 44.34375 72.90625 50.609375 67.359375 
Q 56.890625 61.8125 56.890625 51.125 
Q 56.890625 40.328125 50.609375 34.8125 
Q 44.34375 29.296875 32.078125 29.296875 
L 19.671875 29.296875 
L 19.671875 0 
L 9.8125 0 
z
" id="DejaVuSans-80"/>
       <path d="M 54.890625 33.015625 
L 54.890625 0 
L 45.90625 0 
L 45.90625 32.71875 
Q 45.90625 40.484375 42.875 44.328125 
Q 39.84375 48.1875 33.796875 48.1875 
Q 26.515625 48.1875 22.3125 43.546875 
Q 18.109375 38.921875 18.109375 30.90625 
L 18.109375 0 
L 9.078125 0 
L 9.078125 75.984375 
L 18.109375 75.984375 
L 18.109375 46.1875 
Q 21.34375 51.125 25.703125 53.5625 
Q 30.078125 56 35.796875 56 
Q 45.21875 56 50.046875 50.171875 
Q 54.890625 44.34375 54.890625 33.015625 
z
" id="DejaVuSans-104"/>
       <path d="M 34.28125 27.484375 
Q 23.390625 27.484375 19.1875 25 
Q 14.984375 22.515625 14.984375 16.5 
Q 14.984375 11.71875 18.140625 8.90625 
Q 21.296875 6.109375 26.703125 6.109375 
Q 34.1875 6.109375 38.703125 11.40625 
Q 43.21875 16.703125 43.21875 25.484375 
L 43.21875 27.484375 
z
M 52.203125 31.203125 
L 52.203125 0 
L 43.21875 0 
L 43.21875 8.296875 
Q 40.140625 3.328125 35.546875 0.953125 
Q 30.953125 -1.421875 24.3125 -1.421875 
Q 15.921875 -1.421875 10.953125 3.296875 
Q 6 8.015625 6 15.921875 
Q 6 25.140625 12.171875 29.828125 
Q 18.359375 34.515625 30.609375 34.515625 
L 43.21875 34.515625 
L 43.21875 35.40625 
Q 43.21875 41.609375 39.140625 45 
Q 35.0625 48.390625 27.6875 48.390625 
Q 23 48.390625 18.546875 47.265625 
Q 14.109375 46.140625 10.015625 43.890625 
L 10.015625 52.203125 
Q 14.9375 54.109375 19.578125 55.046875 
Q 24.21875 56 28.609375 56 
Q 40.484375 56 46.34375 49.84375 
Q 52.203125 43.703125 52.203125 31.203125 
z
" id="DejaVuSans-97"/>
       <path d="M 44.28125 53.078125 
L 44.28125 44.578125 
Q 40.484375 46.53125 36.375 47.5 
Q 32.28125 48.484375 27.875 48.484375 
Q 21.1875 48.484375 17.84375 46.4375 
Q 14.5 44.390625 14.5 40.28125 
Q 14.5 37.15625 16.890625 35.375 
Q 19.28125 33.59375 26.515625 31.984375 
L 29.59375 31.296875 
Q 39.15625 29.25 43.1875 25.515625 
Q 47.21875 21.78125 47.21875 15.09375 
Q 47.21875 7.46875 41.1875 3.015625 
Q 35.15625 -1.421875 24.609375 -1.421875 
Q 20.21875 -1.421875 15.453125 -0.5625 
Q 10.6875 0.296875 5.421875 2 
L 5.421875 11.28125 
Q 10.40625 8.6875 15.234375 7.390625 
Q 20.0625 6.109375 24.8125 6.109375 
Q 31.15625 6.109375 34.5625 8.28125 
Q 37.984375 10.453125 37.984375 14.40625 
Q 37.984375 18.0625 35.515625 20.015625 
Q 33.0625 21.96875 24.703125 23.78125 
L 21.578125 24.515625 
Q 13.234375 26.265625 9.515625 29.90625 
Q 5.8125 33.546875 5.8125 39.890625 
Q 5.8125 47.609375 11.28125 51.796875 
Q 16.75 56 26.8125 56 
Q 31.78125 56 36.171875 55.265625 
Q 40.578125 54.546875 44.28125 53.078125 
z
" id="DejaVuSans-115"/>
       <path d="M 19.671875 64.796875 
L 19.671875 8.109375 
L 31.59375 8.109375 
Q 46.6875 8.109375 53.6875 14.9375 
Q 60.6875 21.78125 60.6875 36.53125 
Q 60.6875 51.171875 53.6875 57.984375 
Q 46.6875 64.796875 31.59375 64.796875 
z
M 9.8125 72.90625 
L 30.078125 72.90625 
Q 51.265625 72.90625 61.171875 64.09375 
Q 71.09375 55.28125 71.09375 36.53125 
Q 71.09375 17.671875 61.125 8.828125 
Q 51.171875 0 30.078125 0 
L 9.8125 0 
z
" id="DejaVuSans-68"/>
       <path d="M 9.421875 54.6875 
L 18.40625 54.6875 
L 18.40625 0 
L 9.421875 0 
z
M 9.421875 75.984375 
L 18.40625 75.984375 
L 18.40625 64.59375 
L 9.421875 64.59375 
z
" id="DejaVuSans-105"/>
       <path d="M 37.109375 75.984375 
L 37.109375 68.5 
L 28.515625 68.5 
Q 23.6875 68.5 21.796875 66.546875 
Q 19.921875 64.59375 19.921875 59.515625 
L 19.921875 54.6875 
L 34.71875 54.6875 
L 34.71875 47.703125 
L 19.921875 47.703125 
L 19.921875 0 
L 10.890625 0 
L 10.890625 47.703125 
L 2.296875 47.703125 
L 2.296875 54.6875 
L 10.890625 54.6875 
L 10.890625 58.5 
Q 10.890625 67.625 15.140625 71.796875 
Q 19.390625 75.984375 28.609375 75.984375 
z
" id="DejaVuSans-102"/>
       <path d="M 48.78125 52.59375 
L 48.78125 44.1875 
Q 44.96875 46.296875 41.140625 47.34375 
Q 37.3125 48.390625 33.40625 48.390625 
Q 24.65625 48.390625 19.8125 42.84375 
Q 14.984375 37.3125 14.984375 27.296875 
Q 14.984375 17.28125 19.8125 11.734375 
Q 24.65625 6.203125 33.40625 6.203125 
Q 37.3125 6.203125 41.140625 7.25 
Q 44.96875 8.296875 48.78125 10.40625 
L 48.78125 2.09375 
Q 45.015625 0.34375 40.984375 -0.53125 
Q 36.96875 -1.421875 32.421875 -1.421875 
Q 20.0625 -1.421875 12.78125 6.34375 
Q 5.515625 14.109375 5.515625 27.296875 
Q 5.515625 40.671875 12.859375 48.328125 
Q 20.21875 56 33.015625 56 
Q 37.15625 56 41.109375 55.140625 
Q 45.0625 54.296875 48.78125 52.59375 
z
" id="DejaVuSans-99"/>
       <path d="M 46.734375 75.984375 
L 42.78125 55.8125 
Q 52.546875 55.8125 57.5625 48.34375 
Q 62.75 40.71875 60.15625 27.296875 
Q 57.515625 13.875 49.359375 6.25 
Q 41.453125 -1.21875 31.6875 -1.21875 
L 27.875 -20.796875 
L 18.953125 -20.796875 
L 22.75 -1.21875 
Q 13.03125 -1.21875 7.953125 6.25 
Q 2.78125 13.875 5.421875 27.296875 
Q 8.015625 40.71875 16.15625 48.34375 
Q 24.125 55.8125 33.84375 55.8125 
L 37.796875 75.984375 
z
M 33.25 6.78125 
Q 38.765625 6.78125 43.5 11.8125 
Q 48.6875 17.4375 50.6875 27.296875 
Q 52.640625 37.0625 49.515625 42.78125 
Q 46.734375 47.796875 41.21875 47.796875 
z
M 24.3125 6.78125 
L 32.28125 47.796875 
Q 26.8125 47.796875 22.078125 42.78125 
Q 16.75 37.0625 14.890625 27.296875 
Q 13.03125 17.4375 16.0625 11.8125 
Q 18.796875 6.78125 24.3125 6.78125 
z
" id="DejaVuSans-Oblique-981"/>
      </defs>
      <use transform="translate(0 0.015625)" xlink:href="#DejaVuSans-80"/>
      <use transform="translate(60.302734 0.015625)" xlink:href="#DejaVuSans-104"/>
      <use transform="translate(123.681641 0.015625)" xlink:href="#DejaVuSans-97"/>
      <use transform="translate(184.960938 0.015625)" xlink:href="#DejaVuSans-115"/>
      <use transform="translate(237.060547 0.015625)" xlink:href="#DejaVuSans-101"/>
      <use transform="translate(298.583984 0.015625)" xlink:href="#DejaVuSans-32"/>
      <use transform="translate(330.371094 0.015625)" xlink:href="#DejaVuSans-68"/>
      <use transform="translate(407.373047 0.015625)" xlink:href="#DejaVuSans-105"/>
      <use transform="translate(435.15625 0.015625)" xlink:href="#DejaVuSans-102"/>
      <use transform="translate(470.361328 0.015625)" xlink:href="#DejaVuSans-102"/>
      <use transform="translate(505.566406 0.015625)" xlink:href="#DejaVuSans-101"/>
      <use transform="translate(567.089844 0.015625)" xlink:href="#DejaVuSans-114"/>
      <use transform="translate(608.203125 0.015625)" xlink:href="#DejaVuSans-101"/>
      <use transform="translate(669.726562 0.015625)" xlink:href="#DejaVuSans-110"/>
      <use transform="translate(733.105469 0.015625)" xlink:href="#DejaVuSans-99"/>
      <use transform="translate(788.085938 0.015625)" xlink:href="#DejaVuSans-101"/>
      <use transform="translate(849.609375 0.015625)" xlink:href="#DejaVuSans-32"/>
      <use transform="translate(881.396484 0.015625)" xlink:href="#DejaVuSans-Oblique-981"/>
     </g>
    </g>
   </g>
   <g id="line2d_13">
    <path clip-path="url(#p98fb9d592c)" d="M 501.005 186.62 
L 500.11139 186.62 
L 499.21778 186.62 
L 497.43056 186.62 
L 493.85612 186.62 
L 489.38807 186.62 
L 484.92002 186.62 
L 480.45197 186.62 
L 475.98392 186.62 
L 471.51587 186.62 
L 467.04782 186.62 
L 462.57977 186.62 
L 458.11172 186.62 
L 453.64367 186.62 
L 449.17562 186.62 
L 444.70757 186.62 
L 440.23952 186.62 
L 435.77147 186.62 
L 431.30342 186.62 
L 426.83537 186.62 
L 422.36732 186.62 
L 417.89927 186.62 
L 413.43122 186.62 
L 408.96317 186.62 
L 404.49512 186.62 
L 400.02707 186.62 
L 395.55902 186.62 
L 391.09097 186.62 
L 386.62292 186.62 
L 382.15487 186.62 
L 377.68682 186.62 
L 373.21877 186.62 
L 368.75072 186.62 
L 364.28267 186.62 
L 359.81462 186.62 
L 355.34657 186.62 
L 350.87852 186.62 
L 346.41047 186.62 
L 341.94242 186.62 
L 337.47437 186.62 
L 333.00632 186.62 
L 328.53827 186.62 
L 324.07022 186.62 
L 319.60217 186.62 
L 315.13412 186.62 
L 310.66607 186.62 
L 306.19802 186.62 
L 301.72997 186.62 
L 297.26192 186.62 
L 292.79387 186.62 
L 288.32582 186.62 
L 283.85777 186.62 
L 279.38972 186.62 
L 274.993159 186.62 
" style="fill:none;stroke:#000000;stroke-dasharray:5.55,2.4;stroke-dashoffset:0;stroke-width:1.5;"/>
   </g>
   <g id="line2d_14">
    <path clip-path="url(#p98fb9d592c)" d="M 274.993159 186.62 
L 270.525109 186.62 
L 266.057059 186.62 
L 261.589009 186.62 
L 257.120959 186.62 
L 252.652909 186.62 
L 248.184859 186.62 
L 243.716809 186.62 
L 239.248759 186.62 
L 234.780709 186.62 
L 230.312659 186.62 
L 225.844609 186.62 
L 221.376559 186.62 
L 216.908509 186.62 
L 212.440459 186.62 
L 207.972409 186.62 
L 203.504359 186.62 
L 199.036309 186.62 
L 194.568259 186.62 
L 190.100209 186.62 
L 185.632159 186.62 
L 181.164109 186.62 
L 176.696059 186.62 
L 172.228009 186.62 
L 167.759959 186.62 
L 163.291909 186.62 
L 158.823859 186.62 
L 154.355809 186.62 
L 149.887759 186.62 
L 145.419709 186.62 
L 140.951659 186.62 
L 136.483609 186.62 
L 132.015559 186.62 
L 127.547509 186.62 
L 123.079459 186.62 
L 118.611409 186.62 
L 114.143359 186.62 
L 109.675309 186.62 
L 105.207259 186.62 
L 100.739209 186.62 
L 96.271159 186.62 
L 91.803109 186.62 
L 87.335059 186.62 
L 82.867009 186.62 
L 78.398959 186.62 
L 73.930909 186.62 
L 69.462859 186.62 
L 64.994809 186.62 
L 60.526759 186.62 
L 56.058709 186.62 
L 54.941696 186.62 
L 54.38319 186.62 
L 54.38319 186.62 
" style="fill:none;stroke:#000000;stroke-linecap:square;stroke-width:1.5;"/>
   </g>
   <g id="line2d_15">
    <path clip-path="url(#p98fb9d592c)" d="M 274.993159 186.62 
L 274.993159 186.893855 
L 274.988691 187.167709 
L 274.979755 187.715418 
L 274.939542 188.810563 
L 274.796565 191.00003 
L 274.479333 193.731729 
L 274.010188 196.455212 
L 273.393597 199.167468 
L 272.62956 201.865756 
L 271.722546 204.54734 
L 270.677023 207.20948 
L 269.488521 209.849986 
L 268.170446 212.466666 
L 266.722798 215.05733 
L 265.150045 217.620335 
L 263.452186 220.153763 
L 261.638157 222.656793 
L 259.712428 225.127783 
L 257.679465 227.566732 
L 255.539269 229.971722 
L 253.296308 232.342481 
L 250.963986 234.678186 
L 248.533367 236.978291 
L 246.022323 239.242794 
L 243.421918 241.471148 
L 240.745556 243.664176 
L 237.993237 245.821054 
L 235.164961 247.942058 
L 232.269665 250.027734 
L 229.307348 252.078357 
L 226.282478 254.093926 
L 223.199523 256.075264 
L 220.058484 258.022369 
L 216.85936 259.935791 
L 213.611088 261.815803 
L 210.313667 263.663225 
L 206.967098 265.478059 
L 203.57138 267.261126 
L 200.139917 269.0127 
L 196.659306 270.733328 
L 193.147419 272.423832 
L 189.590851 274.084212 
L 186.003007 275.71529 
L 182.379418 277.317339 
L 178.720085 278.891181 
L 175.033944 280.437364 
L 171.316527 281.956161 
L 167.567833 283.448121 
L 163.79233 284.914064 
L 159.99002 286.353991 
L 156.165369 287.768998 
L 152.318378 289.159357 
L 148.444579 290.525618 
L 144.548439 291.868053 
L 140.634427 293.187758 
L 136.698075 294.485281 
L 132.743851 295.760895 
L 128.771754 297.015231 
L 124.786254 298.249247 
L 120.778413 299.463573 
L 116.761636 300.659003 
L 112.726987 301.836413 
L 108.678934 302.996789 
L 104.617476 304.14131 
L 100.547083 305.271261 
L 96.467753 306.388259 
L 92.383955 307.494221 
L 88.286753 308.591638 
L 84.189552 309.68366 
L 80.09235 310.774642 
L 75.999616 311.870717 
L 71.915818 312.981115 
L 67.849893 314.120734 
L 63.833116 315.316684 
L 59.9057 316.626941 
L 56.273175 318.218255 
L 54.852335 319.276675 
L 54.606593 319.584324 
L 54.262553 320.052368 
" style="fill:none;stroke:#000000;stroke-dasharray:5.55,2.4;stroke-dashoffset:0;stroke-width:1.5;"/>
   </g>
   <g id="line2d_16">
    <path clip-path="url(#p98fb9d592c)" d="M 274.993159 186.62 
L 274.993159 186.346145 
L 274.988691 186.072291 
L 274.979755 185.524582 
L 274.939542 184.429437 
L 274.796565 182.23997 
L 274.479333 179.508271 
L 274.010188 176.784788 
L 273.393597 174.072532 
L 272.62956 171.374244 
L 271.722546 168.69266 
L 270.677023 166.03052 
L 269.488521 163.390014 
L 268.170446 160.773334 
L 266.722798 158.18267 
L 265.150045 155.619665 
L 263.452186 153.086237 
L 261.638157 150.583207 
L 259.712428 148.112217 
L 257.679465 145.673268 
L 255.539269 143.268278 
L 253.296308 140.897519 
L 250.963986 138.561814 
L 248.533367 136.261709 
L 246.022323 133.997206 
L 243.421918 131.768304 
L 240.745556 129.575277 
L 237.988769 127.418124 
L 235.164961 125.296573 
L 232.269665 123.210349 
L 229.307348 121.159453 
L 226.282478 119.143335 
L 223.195055 117.161998 
L 220.054016 115.214618 
L 216.854892 113.301196 
L 213.60662 111.421185 
L 210.304731 109.573762 
L 206.958161 107.758928 
L 203.566912 105.976135 
L 200.130981 104.224561 
L 196.654838 102.503933 
L 193.138483 100.813429 
L 189.586383 99.153323 
L 185.994071 97.522245 
L 182.370482 95.919922 
L 178.715617 94.34608 
L 175.025008 92.800171 
L 171.307591 91.281374 
L 167.563365 89.789414 
L 163.787862 88.323745 
L 159.985552 86.883544 
L 156.160901 85.468811 
L 152.309442 84.078452 
L 148.440111 82.712191 
L 144.543971 81.369756 
L 140.629959 80.050051 
L 136.693607 78.752802 
L 132.739383 77.477188 
L 128.767286 76.22266 
L 124.777318 74.988672 
L 120.773945 73.774401 
L 116.7527 72.579025 
L 112.718051 71.401725 
L 108.669998 70.241403 
L 104.613008 69.096965 
L 100.542615 67.967041 
L 96.463285 66.849988 
L 92.375019 65.74389 
L 88.282285 64.646555 
L 84.185084 63.554697 
L 80.087882 62.46366 
L 75.99068 61.36742 
L 71.906882 60.257214 
L 67.845425 59.117431 
L 63.82418 57.921235 
L 59.901232 56.610567 
L 56.264239 55.01865 
L 54.829995 53.966775 
L 54.5217 53.634316 
L 54.22234 53.305143 
" style="fill:none;stroke:#000000;stroke-dasharray:5.55,2.4;stroke-dashoffset:0;stroke-width:1.5;"/>
   </g>
   <g id="line2d_17">
    <path clip-path="url(#p98fb9d592c)" d="M 501.005 323.547273 
L 492.0689 323.547273 
L 487.60085 323.547273 
L 483.1328 323.547273 
L 478.66475 323.547273 
L 474.1967 323.547273 
L 469.72865 323.547273 
L 465.2606 323.547273 
L 460.79255 323.547273 
L 456.3245 323.547273 
L 451.85645 323.547273 
L 447.3884 323.547273 
L 442.92035 323.547273 
L 438.4523 323.547273 
L 433.98425 323.547273 
L 429.5162 323.547273 
L 425.04815 323.547273 
L 420.5801 323.547273 
L 416.11205 323.547273 
L 411.644 323.547273 
L 407.17595 323.547273 
L 402.7079 323.547273 
L 398.23985 323.547273 
L 393.7718 323.547273 
L 389.30375 323.547273 
L 384.8357 323.547273 
L 380.36765 323.547273 
L 375.8996 323.547273 
L 371.43155 323.547273 
L 366.9635 323.547273 
L 362.49545 323.547273 
L 358.0274 323.547273 
L 353.55935 323.547273 
L 349.0913 323.547273 
L 344.62325 323.547273 
L 340.1552 323.547273 
L 335.68715 323.547273 
L 331.2191 323.547273 
L 326.75105 323.547273 
L 322.283 323.547273 
L 317.81495 323.547273 
L 313.3469 323.547273 
L 308.87885 323.547273 
L 304.4108 323.547273 
L 299.94275 323.547273 
L 295.4747 323.547273 
L 291.00665 323.547273 
L 286.5386 323.547273 
L 282.07055 323.547273 
L 277.6025 323.547273 
L 273.13445 323.547273 
L 268.6664 323.547273 
L 264.19835 323.547273 
L 259.7303 323.547273 
L 255.26225 323.547273 
L 250.7942 323.547273 
L 246.32615 323.547273 
L 241.8581 323.547273 
L 237.39005 323.547273 
L 232.922 323.547273 
L 228.45395 323.547273 
L 223.9859 323.547273 
L 219.51785 323.547273 
L 215.0498 323.547273 
L 210.58175 323.547273 
L 206.1137 323.547273 
L 201.64565 323.547273 
L 197.1776 323.547273 
L 192.70955 323.547273 
L 188.2415 323.547273 
L 183.77345 323.547273 
L 179.3054 323.547273 
L 174.83735 323.547273 
L 170.3693 323.547273 
L 165.90125 323.547273 
L 161.4332 323.547273 
L 156.96515 323.547273 
L 152.4971 323.547273 
L 148.02905 323.547273 
L 143.561 323.547273 
L 139.09295 323.547273 
L 134.6249 323.547273 
L 130.15685 323.547273 
L 125.6888 323.547273 
L 121.22075 323.547273 
L 116.7527 323.547273 
L 112.28465 323.547273 
L 107.8166 323.547273 
L 103.34855 323.547273 
L 98.8805 323.547273 
L 94.41245 323.547273 
L 89.9444 323.547273 
L 85.47635 323.547273 
L 81.0083 323.547273 
L 76.54025 323.547273 
L 72.0722 323.547273 
L 67.60415 323.547273 
L 63.1361 323.547273 
L 58.66805 323.547273 
L 54.2 323.547273 
" style="fill:none;stroke:#000000;stroke-linecap:square;stroke-width:1.5;"/>
   </g>
   <g id="line2d_18">
    <path clip-path="url(#p98fb9d592c)" d="M 501.005 49.692727 
L 492.0689 49.692727 
L 487.60085 49.692727 
L 483.1328 49.692727 
L 478.66475 49.692727 
L 474.1967 49.692727 
L 469.72865 49.692727 
L 465.2606 49.692727 
L 460.79255 49.692727 
L 456.3245 49.692727 
L 451.85645 49.692727 
L 447.3884 49.692727 
L 442.92035 49.692727 
L 438.4523 49.692727 
L 433.98425 49.692727 
L 429.5162 49.692727 
L 425.04815 49.692727 
L 420.5801 49.692727 
L 416.11205 49.692727 
L 411.644 49.692727 
L 407.17595 49.692727 
L 402.7079 49.692727 
L 398.23985 49.692727 
L 393.7718 49.692727 
L 389.30375 49.692727 
L 384.8357 49.692727 
L 380.36765 49.692727 
L 375.8996 49.692727 
L 371.43155 49.692727 
L 366.9635 49.692727 
L 362.49545 49.692727 
L 358.0274 49.692727 
L 353.55935 49.692727 
L 349.0913 49.692727 
L 344.62325 49.692727 
L 340.1552 49.692727 
L 335.68715 49.692727 
L 331.2191 49.692727 
L 326.75105 49.692727 
L 322.283 49.692727 
L 317.81495 49.692727 
L 313.3469 49.692727 
L 308.87885 49.692727 
L 304.4108 49.692727 
L 299.94275 49.692727 
L 295.4747 49.692727 
L 291.00665 49.692727 
L 286.5386 49.692727 
L 282.07055 49.692727 
L 277.6025 49.692727 
L 273.13445 49.692727 
L 268.6664 49.692727 
L 264.19835 49.692727 
L 259.7303 49.692727 
L 255.26225 49.692727 
L 250.7942 49.692727 
L 246.32615 49.692727 
L 241.8581 49.692727 
L 237.39005 49.692727 
L 232.922 49.692727 
L 228.45395 49.692727 
L 223.9859 49.692727 
L 219.51785 49.692727 
L 215.0498 49.692727 
L 210.58175 49.692727 
L 206.1137 49.692727 
L 201.64565 49.692727 
L 197.1776 49.692727 
L 192.70955 49.692727 
L 188.2415 49.692727 
L 183.77345 49.692727 
L 179.3054 49.692727 
L 174.83735 49.692727 
L 170.3693 49.692727 
L 165.90125 49.692727 
L 161.4332 49.692727 
L 156.96515 49.692727 
L 152.4971 49.692727 
L 148.02905 49.692727 
L 143.561 49.692727 
L 139.09295 49.692727 
L 134.6249 49.692727 
L 130.15685 49.692727 
L 125.6888 49.692727 
L 121.22075 49.692727 
L 116.7527 49.692727 
L 112.28465 49.692727 
L 107.8166 49.692727 
L 103.34855 49.692727 
L 98.8805 49.692727 
L 94.41245 49.692727 
L 89.9444 49.692727 
L 85.47635 49.692727 
L 81.0083 49.692727 
L 76.54025 49.692727 
L 72.0722 49.692727 
L 67.60415 49.692727 
L 63.1361 49.692727 
L 58.66805 49.692727 
L 54.2 49.692727 
" style="fill:none;stroke:#000000;stroke-linecap:square;stroke-width:1.5;"/>
   </g>
   <g id="patch_4">
    <path d="M 54.2 337.24 
L 54.2 36 
" style="fill:none;stroke:#000000;stroke-linecap:square;stroke-linejoin:miter;stroke-width:0.8;"/>
   </g>
   <g id="patch_5">
    <path d="M 501.005 337.24 
L 501.005 36 
" style="fill:none;stroke:#000000;stroke-linecap:square;stroke-linejoin:miter;stroke-width:0.8;"/>
   </g>
   <g id="patch_6">
    <path d="M 54.2 337.24 
L 501.005 337.24 
" style="fill:none;stroke:#000000;stroke-linecap:square;stroke-linejoin:miter;stroke-width:0.8;"/>
   </g>
   <g id="patch_7">
    <path d="M 54.2 36 
L 501.005 36 
" style="fill:none;stroke:#000000;stroke-linecap:square;stroke-linejoin:miter;stroke-width:0.8;"/>
   </g>
   <g id="legend_1">
    <g id="patch_8">
     <path d="M 410.57125 92.153875 
L 493.305 92.153875 
Q 495.505 92.153875 495.505 89.953875 
L 495.505 58.762 
Q 495.505 56.562 493.305 56.562 
L 410.57125 56.562 
Q 408.37125 56.562 408.37125 58.762 
L 408.37125 89.953875 
Q 408.37125 92.153875 410.57125 92.153875 
z
" style="fill:#ffffff;opacity:0.8;stroke:#cccccc;stroke-linejoin:miter;"/>
    </g>
    <g id="line2d_19">
     <path d="M 412.77125 65.470281 
L 434.77125 65.470281 
" style="fill:none;stroke:#000000;stroke-dasharray:5.55,2.4;stroke-dashoffset:0;stroke-width:1.5;"/>
    </g>
    <g id="line2d_20"/>
    <g id="text_15">
     <!-- unstable -->
     <g transform="translate(443.57125 69.320281)scale(0.11 -0.11)">
      <defs>
       <path d="M 48.6875 27.296875 
Q 48.6875 37.203125 44.609375 42.84375 
Q 40.53125 48.484375 33.40625 48.484375 
Q 26.265625 48.484375 22.1875 42.84375 
Q 18.109375 37.203125 18.109375 27.296875 
Q 18.109375 17.390625 22.1875 11.75 
Q 26.265625 6.109375 33.40625 6.109375 
Q 40.53125 6.109375 44.609375 11.75 
Q 48.6875 17.390625 48.6875 27.296875 
z
M 18.109375 46.390625 
Q 20.953125 51.265625 25.265625 53.625 
Q 29.59375 56 35.59375 56 
Q 45.5625 56 51.78125 48.09375 
Q 58.015625 40.1875 58.015625 27.296875 
Q 58.015625 14.40625 51.78125 6.484375 
Q 45.5625 -1.421875 35.59375 -1.421875 
Q 29.59375 -1.421875 25.265625 0.953125 
Q 20.953125 3.328125 18.109375 8.203125 
L 18.109375 0 
L 9.078125 0 
L 9.078125 75.984375 
L 18.109375 75.984375 
z
" id="DejaVuSans-98"/>
       <path d="M 9.421875 75.984375 
L 18.40625 75.984375 
L 18.40625 0 
L 9.421875 0 
z
" id="DejaVuSans-108"/>
      </defs>
      <use xlink:href="#DejaVuSans-117"/>
      <use x="63.378906" xlink:href="#DejaVuSans-110"/>
      <use x="126.757812" xlink:href="#DejaVuSans-115"/>
      <use x="178.857422" xlink:href="#DejaVuSans-116"/>
      <use x="218.066406" xlink:href="#DejaVuSans-97"/>
      <use x="279.345703" xlink:href="#DejaVuSans-98"/>
      <use x="342.822266" xlink:href="#DejaVuSans-108"/>
      <use x="370.605469" xlink:href="#DejaVuSans-101"/>
     </g>
    </g>
    <g id="line2d_21">
     <path d="M 412.77125 81.616219 
L 434.77125 81.616219 
" style="fill:none;stroke:#000000;stroke-linecap:square;stroke-width:1.5;"/>
    </g>
    <g id="line2d_22"/>
    <g id="text_16">
     <!-- stable -->
     <g transform="translate(443.57125 85.466219)scale(0.11 -0.11)">
      <use xlink:href="#DejaVuSans-115"/>
      <use x="52.099609" xlink:href="#DejaVuSans-116"/>
      <use x="91.308594" xlink:href="#DejaVuSans-97"/>
      <use x="152.587891" xlink:href="#DejaVuSans-98"/>
      <use x="216.064453" xlink:href="#DejaVuSans-108"/>
      <use x="243.847656" xlink:href="#DejaVuSans-101"/>
     </g>
    </g>
   </g>
  </g>
  <g id="axes_2">
   <g id="patch_9">
    <path d="M 542.52 337.24 
L 989.325 337.24 
L 989.325 36 
L 542.52 36 
z
" style="fill:#ffffff;"/>
   </g>
   <g id="matplotlib.axis_3">
    <g id="xtick_7">
     <g id="line2d_23">
      <g>
       <use style="stroke:#000000;stroke-width:0.8;" x="542.52" xlink:href="#mc42372ec72" y="337.24"/>
      </g>
     </g>
     <g id="text_17">
      <!-- 1.0 -->
      <g transform="translate(534.568438 351.838437)scale(0.1 -0.1)">
       <use xlink:href="#DejaVuSans-49"/>
       <use x="63.623047" xlink:href="#DejaVuSans-46"/>
       <use x="95.410156" xlink:href="#DejaVuSans-48"/>
      </g>
     </g>
    </g>
    <g id="xtick_8">
     <g id="line2d_24">
      <g>
       <use style="stroke:#000000;stroke-width:0.8;" x="631.881" xlink:href="#mc42372ec72" y="337.24"/>
      </g>
     </g>
     <g id="text_18">
      <!-- 1.2 -->
      <g transform="translate(623.929438 351.838437)scale(0.1 -0.1)">
       <use xlink:href="#DejaVuSans-49"/>
       <use x="63.623047" xlink:href="#DejaVuSans-46"/>
       <use x="95.410156" xlink:href="#DejaVuSans-50"/>
      </g>
     </g>
    </g>
    <g id="xtick_9">
     <g id="line2d_25">
      <g>
       <use style="stroke:#000000;stroke-width:0.8;" x="721.242" xlink:href="#mc42372ec72" y="337.24"/>
      </g>
     </g>
     <g id="text_19">
      <!-- 1.4 -->
      <g transform="translate(713.290438 351.838437)scale(0.1 -0.1)">
       <use xlink:href="#DejaVuSans-49"/>
       <use x="63.623047" xlink:href="#DejaVuSans-46"/>
       <use x="95.410156" xlink:href="#DejaVuSans-52"/>
      </g>
     </g>
    </g>
    <g id="xtick_10">
     <g id="line2d_26">
      <g>
       <use style="stroke:#000000;stroke-width:0.8;" x="810.603" xlink:href="#mc42372ec72" y="337.24"/>
      </g>
     </g>
     <g id="text_20">
      <!-- 1.6 -->
      <g transform="translate(802.651438 351.838437)scale(0.1 -0.1)">
       <use xlink:href="#DejaVuSans-49"/>
       <use x="63.623047" xlink:href="#DejaVuSans-46"/>
       <use x="95.410156" xlink:href="#DejaVuSans-54"/>
      </g>
     </g>
    </g>
    <g id="xtick_11">
     <g id="line2d_27">
      <g>
       <use style="stroke:#000000;stroke-width:0.8;" x="899.964" xlink:href="#mc42372ec72" y="337.24"/>
      </g>
     </g>
     <g id="text_21">
      <!-- 1.8 -->
      <g transform="translate(892.012438 351.838437)scale(0.1 -0.1)">
       <use xlink:href="#DejaVuSans-49"/>
       <use x="63.623047" xlink:href="#DejaVuSans-46"/>
       <use x="95.410156" xlink:href="#DejaVuSans-56"/>
      </g>
     </g>
    </g>
    <g id="xtick_12">
     <g id="line2d_28">
      <g>
       <use style="stroke:#000000;stroke-width:0.8;" x="989.325" xlink:href="#mc42372ec72" y="337.24"/>
      </g>
     </g>
     <g id="text_22">
      <!-- 2.0 -->
      <g transform="translate(981.373438 351.838437)scale(0.1 -0.1)">
       <use xlink:href="#DejaVuSans-50"/>
       <use x="63.623047" xlink:href="#DejaVuSans-46"/>
       <use x="95.410156" xlink:href="#DejaVuSans-48"/>
      </g>
     </g>
    </g>
    <g id="text_23">
     <!-- Current $I$ -->
     <g transform="translate(735.0525 374.555938)scale(0.14 -0.14)">
      <use transform="translate(0 0.78125)" xlink:href="#DejaVuSans-67"/>
      <use transform="translate(69.824219 0.78125)" xlink:href="#DejaVuSans-117"/>
      <use transform="translate(133.203125 0.78125)" xlink:href="#DejaVuSans-114"/>
      <use transform="translate(174.316406 0.78125)" xlink:href="#DejaVuSans-114"/>
      <use transform="translate(215.429688 0.78125)" xlink:href="#DejaVuSans-101"/>
      <use transform="translate(276.953125 0.78125)" xlink:href="#DejaVuSans-110"/>
      <use transform="translate(340.332031 0.78125)" xlink:href="#DejaVuSans-116"/>
      <use transform="translate(379.541016 0.78125)" xlink:href="#DejaVuSans-32"/>
      <use transform="translate(411.328125 0.78125)" xlink:href="#DejaVuSans-Oblique-73"/>
     </g>
    </g>
   </g>
   <g id="matplotlib.axis_4">
    <g id="ytick_7">
     <g id="line2d_29">
      <g>
       <use style="stroke:#000000;stroke-width:0.8;" x="542.52" xlink:href="#m7a6fd62494" y="323.547273"/>
      </g>
     </g>
     <g id="text_24">
      <!-- 0.0 -->
      <g transform="translate(519.616875 327.346491)scale(0.1 -0.1)">
       <use xlink:href="#DejaVuSans-48"/>
       <use x="63.623047" xlink:href="#DejaVuSans-46"/>
       <use x="95.410156" xlink:href="#DejaVuSans-48"/>
      </g>
     </g>
    </g>
    <g id="ytick_8">
     <g id="line2d_30">
      <g>
       <use style="stroke:#000000;stroke-width:0.8;" x="542.52" xlink:href="#m7a6fd62494" y="268.776364"/>
      </g>
     </g>
     <g id="text_25">
      <!-- 0.2 -->
      <g transform="translate(519.616875 272.575582)scale(0.1 -0.1)">
       <use xlink:href="#DejaVuSans-48"/>
       <use x="63.623047" xlink:href="#DejaVuSans-46"/>
       <use x="95.410156" xlink:href="#DejaVuSans-50"/>
      </g>
     </g>
    </g>
    <g id="ytick_9">
     <g id="line2d_31">
      <g>
       <use style="stroke:#000000;stroke-width:0.8;" x="542.52" xlink:href="#m7a6fd62494" y="214.005455"/>
      </g>
     </g>
     <g id="text_26">
      <!-- 0.4 -->
      <g transform="translate(519.616875 217.804673)scale(0.1 -0.1)">
       <use xlink:href="#DejaVuSans-48"/>
       <use x="63.623047" xlink:href="#DejaVuSans-46"/>
       <use x="95.410156" xlink:href="#DejaVuSans-52"/>
      </g>
     </g>
    </g>
    <g id="ytick_10">
     <g id="line2d_32">
      <g>
       <use style="stroke:#000000;stroke-width:0.8;" x="542.52" xlink:href="#m7a6fd62494" y="159.234545"/>
      </g>
     </g>
     <g id="text_27">
      <!-- 0.6 -->
      <g transform="translate(519.616875 163.033764)scale(0.1 -0.1)">
       <use xlink:href="#DejaVuSans-48"/>
       <use x="63.623047" xlink:href="#DejaVuSans-46"/>
       <use x="95.410156" xlink:href="#DejaVuSans-54"/>
      </g>
     </g>
    </g>
    <g id="ytick_11">
     <g id="line2d_33">
      <g>
       <use style="stroke:#000000;stroke-width:0.8;" x="542.52" xlink:href="#m7a6fd62494" y="104.463636"/>
      </g>
     </g>
     <g id="text_28">
      <!-- 0.8 -->
      <g transform="translate(519.616875 108.262855)scale(0.1 -0.1)">
       <use xlink:href="#DejaVuSans-48"/>
       <use x="63.623047" xlink:href="#DejaVuSans-46"/>
       <use x="95.410156" xlink:href="#DejaVuSans-56"/>
      </g>
     </g>
    </g>
    <g id="ytick_12">
     <g id="line2d_34">
      <g>
       <use style="stroke:#000000;stroke-width:0.8;" x="542.52" xlink:href="#m7a6fd62494" y="49.692727"/>
      </g>
     </g>
     <g id="text_29">
      <!-- 1.0 -->
      <g transform="translate(519.616875 53.491946)scale(0.1 -0.1)">
       <use xlink:href="#DejaVuSans-49"/>
       <use x="63.623047" xlink:href="#DejaVuSans-46"/>
       <use x="95.410156" xlink:href="#DejaVuSans-48"/>
      </g>
     </g>
    </g>
   </g>
   <g id="line2d_35">
    <path clip-path="url(#pe8b1defeae)" d="M 658.340792 186.62 
L 658.242495 190.453416 
L 657.952072 194.282998 
L 657.286332 199.195127 
L 656.611657 202.730863 
L 655.324858 207.873577 
L 653.689552 212.979322 
L 651.714674 218.039332 
L 649.404692 223.046489 
L 647.358325 226.957131 
L 644.315583 232.10724 
L 641.469435 236.42264 
L 638.569671 240.42831 
L 635.27225 244.621571 
L 631.541428 248.988182 
L 627.5738 253.276196 
L 623.145962 257.714557 
L 617.976428 262.51331 
L 612.534344 267.197866 
L 606.283542 272.197628 
L 600.622522 276.43498 
L 593.277048 281.591661 
L 586.588377 286.008113 
L 578.465462 291.096057 
L 568.541923 297.02016 
L 553.176299 306.188646 
L 549.257819 308.817239 
L 546.760179 310.747065 
L 545.044448 312.348758 
L 544.016797 313.565302 
L 543.239356 314.848338 
L 542.765743 316.185652 
L 542.564681 317.549146 
L 542.524468 318.370354 
L 542.524468 318.370354 
" style="fill:none;stroke:#aa3863;stroke-dasharray:5.55,2.4;stroke-dashoffset:0;stroke-width:1.5;"/>
   </g>
   <g id="line2d_36">
    <path clip-path="url(#pe8b1defeae)" d="M 658.340792 186.62 
L 658.242495 182.786584 
L 657.952072 178.957002 
L 657.286332 174.044873 
L 656.611657 170.509137 
L 655.324858 165.366423 
L 653.689552 160.260678 
L 651.714674 155.200668 
L 649.404692 150.193511 
L 647.358325 146.282869 
L 644.315583 141.13276 
L 641.469435 136.81736 
L 638.569671 132.81169 
L 635.27225 128.618429 
L 631.541428 124.251818 
L 627.5738 119.963804 
L 623.145962 115.525443 
L 617.976428 110.72669 
L 612.534344 106.042134 
L 606.283542 101.042372 
L 600.622522 96.80502 
L 593.277048 91.648339 
L 586.588377 87.231887 
L 578.465462 82.143943 
L 568.541923 76.219922 
L 553.176299 67.051271 
L 549.257819 64.422816 
L 546.760179 62.492963 
L 545.044448 60.891187 
L 544.016797 59.674725 
L 543.239356 58.391717 
L 542.765743 57.054485 
L 542.564681 55.690963 
L 542.524468 54.869674 
L 542.524468 54.869674 
" style="fill:none;stroke:#aa3863;stroke-dasharray:5.55,2.4;stroke-dashoffset:0;stroke-width:1.5;"/>
   </g>
   <g id="line2d_37">
    <path clip-path="url(#pe8b1defeae)" d="M 696.386238 186.62 
L 696.287941 190.179288 
L 695.921561 194.280807 
L 695.287098 198.370003 
L 694.384551 202.440303 
L 693.482005 205.679181 
L 692.016485 209.967743 
L 690.269477 214.216049 
L 688.240983 218.417799 
L 686.395678 221.793604 
L 684.219738 225.387123 
L 681.315505 229.688557 
L 677.548939 234.654909 
L 673.639395 239.273466 
L 669.881765 243.319941 
L 665.896265 247.282342 
L 661.69183 251.159301 
L 656.750166 255.388984 
L 651.285741 259.722732 
L 645.280682 264.141923 
L 639.932426 267.82335 
L 634.414384 271.407284 
L 627.444226 275.656959 
L 620.259602 279.766694 
L 611.16712 284.625969 
L 601.806555 289.292177 
L 593.656832 293.126688 
L 583.907547 297.483331 
L 573.282524 302.027071 
L 552.783111 310.817117 
L 548.632292 312.896823 
L 546.076568 314.425945 
L 544.655728 315.483653 
L 543.708501 316.411253 
L 543.015954 317.420845 
L 542.707658 318.220774 
L 542.555744 319.037327 
L 542.555744 319.037327 
" style="fill:none;stroke:#d97020;stroke-dasharray:5.55,2.4;stroke-dashoffset:0;stroke-width:1.5;"/>
   </g>
   <g id="line2d_38">
    <path clip-path="url(#pe8b1defeae)" d="M 696.386238 186.62 
L 696.287941 183.060712 
L 695.921561 178.959193 
L 695.287098 174.869997 
L 694.384551 170.799697 
L 693.482005 167.560819 
L 692.016485 163.272257 
L 690.269477 159.023951 
L 688.240983 154.822201 
L 686.395678 151.446396 
L 684.219738 147.852877 
L 681.315505 143.551443 
L 677.548939 138.585091 
L 673.639395 133.966534 
L 669.881765 129.920059 
L 665.896265 125.957658 
L 661.69183 122.080699 
L 656.750166 117.851016 
L 651.285741 113.517268 
L 645.280682 109.098077 
L 639.932426 105.41665 
L 634.414384 101.832716 
L 627.444226 97.583041 
L 620.259602 93.473306 
L 611.16712 88.614031 
L 601.806555 83.947823 
L 593.656832 80.113312 
L 583.907547 75.75656 
L 572.916144 71.058037 
L 555.285219 63.57058 
L 549.986112 61.057691 
L 547.001454 59.406622 
L 545.20083 58.191529 
L 543.922968 57.068452 
L 543.158931 56.078741 
L 542.788083 55.288671 
L 542.555744 54.202564 
L 542.555744 54.202564 
" style="fill:none;stroke:#d97020;stroke-dasharray:5.55,2.4;stroke-dashoffset:0;stroke-width:1.5;"/>
   </g>
   <g id="line2d_39">
    <path clip-path="url(#pe8b1defeae)" d="M 763.313159 186.62 
L 763.313159 186.893855 
L 763.308691 187.167709 
L 763.299755 187.715418 
L 763.259542 188.810563 
L 763.116565 191.00003 
L 762.799333 193.731729 
L 762.330188 196.455212 
L 761.713597 199.167468 
L 760.94956 201.865756 
L 760.042546 204.54734 
L 758.997023 207.20948 
L 757.808521 209.849986 
L 756.490446 212.466666 
L 755.042798 215.05733 
L 753.470045 217.620335 
L 751.772186 220.153763 
L 749.958157 222.656793 
L 748.032428 225.127783 
L 745.999465 227.566732 
L 743.859269 229.971722 
L 741.616308 232.342481 
L 739.283986 234.678186 
L 736.853367 236.978291 
L 734.342323 239.242794 
L 731.741918 241.471148 
L 729.065556 243.664176 
L 726.313237 245.821054 
L 723.484961 247.942058 
L 720.589665 250.027734 
L 717.627348 252.078357 
L 714.602478 254.093926 
L 711.519523 256.075264 
L 708.378484 258.022369 
L 705.17936 259.935791 
L 701.931088 261.815803 
L 698.633667 263.663225 
L 695.287098 265.478059 
L 691.89138 267.261126 
L 688.459917 269.0127 
L 684.979306 270.733328 
L 681.467419 272.423832 
L 677.910851 274.084212 
L 674.323007 275.71529 
L 670.699418 277.317339 
L 667.040085 278.891181 
L 663.353944 280.437364 
L 659.636527 281.956161 
L 655.887833 283.448121 
L 652.11233 284.914064 
L 648.31002 286.353991 
L 644.485369 287.768998 
L 640.638378 289.159357 
L 636.764579 290.525618 
L 632.868439 291.868053 
L 628.954427 293.187758 
L 625.018075 294.485281 
L 621.063851 295.760895 
L 617.091755 297.015231 
L 613.106254 298.249247 
L 609.098413 299.463573 
L 605.081636 300.659003 
L 601.046987 301.836413 
L 596.998934 302.996789 
L 592.937476 304.14131 
L 588.867083 305.271261 
L 584.787753 306.388259 
L 580.703955 307.494221 
L 576.606753 308.591638 
L 572.509552 309.68366 
L 568.41235 310.774642 
L 564.319616 311.870717 
L 560.235818 312.981115 
L 556.169893 314.120734 
L 552.153116 315.316684 
L 548.2257 316.626941 
L 544.593175 318.218255 
L 543.172335 319.276675 
L 542.926593 319.584324 
L 542.582553 320.052368 
" style="fill:none;stroke:#ef9f07;stroke-dasharray:5.55,2.4;stroke-dashoffset:0;stroke-width:1.5;"/>
   </g>
   <g id="line2d_40">
    <path clip-path="url(#pe8b1defeae)" d="M 763.313159 186.62 
L 763.313159 186.346145 
L 763.308691 186.072291 
L 763.299755 185.524582 
L 763.259542 184.429437 
L 763.116565 182.23997 
L 762.799333 179.508271 
L 762.330188 176.784788 
L 761.713597 174.072532 
L 760.94956 171.374244 
L 760.042546 168.69266 
L 758.997023 166.03052 
L 757.808521 163.390014 
L 756.490446 160.773334 
L 755.042798 158.18267 
L 753.470045 155.619665 
L 751.772186 153.086237 
L 749.958157 150.583207 
L 748.032428 148.112217 
L 745.999465 145.673268 
L 743.859269 143.268278 
L 741.616308 140.897519 
L 739.283986 138.561814 
L 736.853367 136.261709 
L 734.342323 133.997206 
L 731.741918 131.768304 
L 729.065556 129.575277 
L 726.308769 127.418124 
L 723.484961 125.296573 
L 720.589665 123.210349 
L 717.627348 121.159453 
L 714.602478 119.143335 
L 711.515055 117.161998 
L 708.374016 115.214618 
L 705.174892 113.301196 
L 701.92662 111.421185 
L 698.624731 109.573762 
L 695.278161 107.758928 
L 691.886912 105.976135 
L 688.450981 104.224561 
L 684.974838 102.503933 
L 681.458483 100.813429 
L 677.906383 99.153323 
L 674.314071 97.522245 
L 670.690482 95.919922 
L 667.035617 94.34608 
L 663.345008 92.800171 
L 659.627591 91.281374 
L 655.883365 89.789414 
L 652.107862 88.323745 
L 648.305552 86.883544 
L 644.480901 85.468811 
L 640.629442 84.078452 
L 636.760111 82.712191 
L 632.863971 81.369756 
L 628.949959 80.050051 
L 625.013607 78.752802 
L 621.059383 77.477188 
L 617.087286 76.22266 
L 613.097318 74.988672 
L 609.093945 73.774401 
L 605.0727 72.579025 
L 601.038051 71.401725 
L 596.989998 70.241403 
L 592.933008 69.096965 
L 588.862615 67.967041 
L 584.783285 66.849988 
L 580.695019 65.74389 
L 576.602285 64.646555 
L 572.505084 63.554697 
L 568.407882 62.46366 
L 564.31068 61.36742 
L 560.226882 60.257214 
L 556.165425 59.117431 
L 552.14418 57.921235 
L 548.221232 56.610567 
L 544.584239 55.01865 
L 543.149995 53.966775 
L 542.8417 53.634316 
L 542.54234 53.305143 
" style="fill:none;stroke:#ef9f07;stroke-dasharray:5.55,2.4;stroke-dashoffset:0;stroke-width:1.5;"/>
   </g>
   <g id="line2d_41">
    <path clip-path="url(#pe8b1defeae)" d="M 921.759148 186.62 
L 921.669787 189.083869 
L 921.357023 191.815568 
L 920.762773 194.805512 
L 919.998736 197.503253 
L 918.913 200.441439 
L 917.849604 202.817949 
L 916.18749 205.942355 
L 914.6058 208.502895 
L 912.29135 211.768337 
L 909.923283 214.715286 
L 906.889478 218.068634 
L 903.596525 221.328325 
L 900.589527 224.047427 
L 896.604026 227.349839 
L 891.528322 231.17367 
L 886.778784 234.44897 
L 881.51989 237.806153 
L 875.403129 241.414734 
L 869.746578 244.52134 
L 862.195573 248.379403 
L 854.783078 251.901447 
L 845.351025 256.059106 
L 837.183429 259.413003 
L 829.632425 262.340234 
L 820.039522 265.845572 
L 808.721951 269.712125 
L 798.025439 273.132842 
L 786.792762 276.509742 
L 775.028386 279.836801 
L 762.732312 283.107446 
L 749.077952 286.517209 
L 734.887425 289.838243 
L 719.740735 293.155991 
L 702.360021 296.702298 
L 686.140999 299.783271 
L 670.69495 302.531483 
L 653.014877 305.472791 
L 635.692247 308.162809 
L 615.688787 311.057561 
L 594.742568 313.883904 
L 563.25622 317.922054 
L 551.491844 319.559704 
L 546.340183 320.467696 
L 543.878287 321.111912 
L 543.145527 321.428153 
L 542.569149 321.84714 
L 542.569149 321.84714 
" style="fill:none;stroke:#449775;stroke-dasharray:5.55,2.4;stroke-dashoffset:0;stroke-width:1.5;"/>
   </g>
   <g id="line2d_42">
    <path clip-path="url(#pe8b1defeae)" d="M 921.759148 186.62 
L 921.669787 184.156131 
L 921.357023 181.424432 
L 920.762773 178.434488 
L 919.998736 175.736747 
L 918.913 172.798561 
L 917.849604 170.422051 
L 916.18749 167.297645 
L 914.6058 164.737105 
L 912.29135 161.471663 
L 909.923283 158.524714 
L 906.889478 155.171366 
L 903.596525 151.911675 
L 900.589527 149.192573 
L 896.604026 145.890161 
L 891.528322 142.06633 
L 886.778784 138.79103 
L 881.51989 135.433847 
L 875.403129 131.825266 
L 869.746578 128.71866 
L 862.195573 124.860597 
L 854.783078 121.338553 
L 845.351025 117.180894 
L 837.183429 113.826997 
L 829.632425 110.899766 
L 820.039522 107.394428 
L 808.721951 103.527875 
L 798.025439 100.107158 
L 786.792762 96.730258 
L 775.028386 93.403199 
L 762.732312 90.132554 
L 749.077952 86.722791 
L 734.887425 83.401757 
L 719.740735 80.084009 
L 702.360021 76.537593 
L 686.140999 73.456729 
L 670.69495 70.708599 
L 653.448277 67.836686 
L 633.954175 64.81744 
L 614.817517 62.061094 
L 591.248553 58.900813 
L 550.19611 53.474111 
L 545.920186 52.681028 
L 543.878287 52.128116 
L 542.832764 51.610531 
L 542.528936 51.410617 
L 542.528936 51.410617 
" style="fill:none;stroke:#449775;stroke-dasharray:5.55,2.4;stroke-dashoffset:0;stroke-width:1.5;"/>
   </g>
   <g id="line2d_43">
    <path clip-path="url(#pe8b1defeae)" d="M 989.325 186.62 
L 921.759148 186.62 
L 921.759148 186.62 
" style="fill:none;stroke:#000000;stroke-dasharray:5.55,2.4;stroke-dashoffset:0;stroke-width:1.5;"/>
   </g>
   <g id="line2d_44">
    <path clip-path="url(#pe8b1defeae)" d="M 921.312343 186.62 
L 542.52 186.62 
L 542.52 186.62 
" style="fill:none;stroke:#000000;stroke-linecap:square;stroke-width:1.5;"/>
   </g>
   <g id="line2d_45">
    <path clip-path="url(#pe8b1defeae)" d="M 989.325 323.547273 
L 980.3889 323.547273 
L 975.92085 323.547273 
L 971.4528 323.547273 
L 966.98475 323.547273 
L 962.5167 323.547273 
L 958.04865 323.547273 
L 953.5806 323.547273 
L 949.11255 323.547273 
L 944.6445 323.547273 
L 940.17645 323.547273 
L 935.7084 323.547273 
L 931.24035 323.547273 
L 926.7723 323.547273 
L 922.30425 323.547273 
L 917.8362 323.547273 
L 913.36815 323.547273 
L 908.9001 323.547273 
L 904.43205 323.547273 
L 899.964 323.547273 
L 895.49595 323.547273 
L 891.0279 323.547273 
L 886.55985 323.547273 
L 882.0918 323.547273 
L 877.62375 323.547273 
L 873.1557 323.547273 
L 868.68765 323.547273 
L 864.2196 323.547273 
L 859.75155 323.547273 
L 855.2835 323.547273 
L 850.81545 323.547273 
L 846.3474 323.547273 
L 841.87935 323.547273 
L 837.4113 323.547273 
L 832.94325 323.547273 
L 828.4752 323.547273 
L 824.00715 323.547273 
L 819.5391 323.547273 
L 815.07105 323.547273 
L 810.603 323.547273 
L 806.13495 323.547273 
L 801.6669 323.547273 
L 797.19885 323.547273 
L 792.7308 323.547273 
L 788.26275 323.547273 
L 783.7947 323.547273 
L 779.32665 323.547273 
L 774.8586 323.547273 
L 770.39055 323.547273 
L 765.9225 323.547273 
L 761.45445 323.547273 
L 756.9864 323.547273 
L 752.51835 323.547273 
L 748.0503 323.547273 
L 743.58225 323.547273 
L 739.1142 323.547273 
L 734.64615 323.547273 
L 730.1781 323.547273 
L 725.71005 323.547273 
L 721.242 323.547273 
L 716.77395 323.547273 
L 712.3059 323.547273 
L 707.83785 323.547273 
L 703.3698 323.547273 
L 698.90175 323.547273 
L 694.4337 323.547273 
L 689.96565 323.547273 
L 685.4976 323.547273 
L 681.02955 323.547273 
L 676.5615 323.547273 
L 672.09345 323.547273 
L 667.6254 323.547273 
L 663.15735 323.547273 
L 658.6893 323.547273 
L 654.22125 323.547273 
L 649.7532 323.547273 
L 645.28515 323.547273 
L 640.8171 323.547273 
L 636.34905 323.547273 
L 631.881 323.547273 
L 627.41295 323.547273 
L 622.9449 323.547273 
L 618.47685 323.547273 
L 614.0088 323.547273 
L 609.54075 323.547273 
L 605.0727 323.547273 
L 600.60465 323.547273 
L 596.1366 323.547273 
L 591.66855 323.547273 
L 587.2005 323.547273 
L 582.73245 323.547273 
L 578.2644 323.547273 
L 573.79635 323.547273 
L 569.3283 323.547273 
L 564.86025 323.547273 
L 560.3922 323.547273 
L 555.92415 323.547273 
L 551.4561 323.547273 
L 546.98805 323.547273 
L 542.52 323.547273 
" style="fill:none;stroke:#000000;stroke-linecap:square;stroke-width:1.5;"/>
   </g>
   <g id="line2d_46">
    <path clip-path="url(#pe8b1defeae)" d="M 989.325 49.692727 
L 980.3889 49.692727 
L 975.92085 49.692727 
L 971.4528 49.692727 
L 966.98475 49.692727 
L 962.5167 49.692727 
L 958.04865 49.692727 
L 953.5806 49.692727 
L 949.11255 49.692727 
L 944.6445 49.692727 
L 940.17645 49.692727 
L 935.7084 49.692727 
L 931.24035 49.692727 
L 926.7723 49.692727 
L 922.30425 49.692727 
L 917.8362 49.692727 
L 913.36815 49.692727 
L 908.9001 49.692727 
L 904.43205 49.692727 
L 899.964 49.692727 
L 895.49595 49.692727 
L 891.0279 49.692727 
L 886.55985 49.692727 
L 882.0918 49.692727 
L 877.62375 49.692727 
L 873.1557 49.692727 
L 868.68765 49.692727 
L 864.2196 49.692727 
L 859.75155 49.692727 
L 855.2835 49.692727 
L 850.81545 49.692727 
L 846.3474 49.692727 
L 841.87935 49.692727 
L 837.4113 49.692727 
L 832.94325 49.692727 
L 828.4752 49.692727 
L 824.00715 49.692727 
L 819.5391 49.692727 
L 815.07105 49.692727 
L 810.603 49.692727 
L 806.13495 49.692727 
L 801.6669 49.692727 
L 797.19885 49.692727 
L 792.7308 49.692727 
L 788.26275 49.692727 
L 783.7947 49.692727 
L 779.32665 49.692727 
L 774.8586 49.692727 
L 770.39055 49.692727 
L 765.9225 49.692727 
L 761.45445 49.692727 
L 756.9864 49.692727 
L 752.51835 49.692727 
L 748.0503 49.692727 
L 743.58225 49.692727 
L 739.1142 49.692727 
L 734.64615 49.692727 
L 730.1781 49.692727 
L 725.71005 49.692727 
L 721.242 49.692727 
L 716.77395 49.692727 
L 712.3059 49.692727 
L 707.83785 49.692727 
L 703.3698 49.692727 
L 698.90175 49.692727 
L 694.4337 49.692727 
L 689.96565 49.692727 
L 685.4976 49.692727 
L 681.02955 49.692727 
L 676.5615 49.692727 
L 672.09345 49.692727 
L 667.6254 49.692727 
L 663.15735 49.692727 
L 658.6893 49.692727 
L 654.22125 49.692727 
L 649.7532 49.692727 
L 645.28515 49.692727 
L 640.8171 49.692727 
L 636.34905 49.692727 
L 631.881 49.692727 
L 627.41295 49.692727 
L 622.9449 49.692727 
L 618.47685 49.692727 
L 614.0088 49.692727 
L 609.54075 49.692727 
L 605.0727 49.692727 
L 600.60465 49.692727 
L 596.1366 49.692727 
L 591.66855 49.692727 
L 587.2005 49.692727 
L 582.73245 49.692727 
L 578.2644 49.692727 
L 573.79635 49.692727 
L 569.3283 49.692727 
L 564.86025 49.692727 
L 560.3922 49.692727 
L 555.92415 49.692727 
L 551.4561 49.692727 
L 546.98805 49.692727 
L 542.52 49.692727 
" style="fill:none;stroke:#000000;stroke-linecap:square;stroke-width:1.5;"/>
   </g>
   <g id="patch_10">
    <path d="M 542.52 337.24 
L 542.52 36 
" style="fill:none;stroke:#000000;stroke-linecap:square;stroke-linejoin:miter;stroke-width:0.8;"/>
   </g>
   <g id="patch_11">
    <path d="M 989.325 337.24 
L 989.325 36 
" style="fill:none;stroke:#000000;stroke-linecap:square;stroke-linejoin:miter;stroke-width:0.8;"/>
   </g>
   <g id="patch_12">
    <path d="M 542.52 337.24 
L 989.325 337.24 
" style="fill:none;stroke:#000000;stroke-linecap:square;stroke-linejoin:miter;stroke-width:0.8;"/>
   </g>
   <g id="patch_13">
    <path d="M 542.52 36 
L 989.325 36 
" style="fill:none;stroke:#000000;stroke-linecap:square;stroke-linejoin:miter;stroke-width:0.8;"/>
   </g>
   <g id="legend_2">
    <g id="patch_14">
     <path d="M 905.615 124.982 
L 981.625 124.982 
Q 983.825 124.982 983.825 122.782 
L 983.825 58.762 
Q 983.825 56.562 981.625 56.562 
L 905.615 56.562 
Q 903.415 56.562 903.415 58.762 
L 903.415 122.782 
Q 903.415 124.982 905.615 124.982 
z
" style="fill:#ffffff;opacity:0.8;stroke:#cccccc;stroke-linejoin:miter;"/>
    </g>
    <g id="line2d_47">
     <path d="M 907.815 65.582 
L 929.815 65.582 
" style="fill:none;stroke:#aa3863;stroke-dasharray:5.55,2.4;stroke-dashoffset:0;stroke-width:1.5;"/>
    </g>
    <g id="line2d_48"/>
    <g id="text_30">
     <!-- $\beta$=0.2 -->
     <g transform="translate(938.615 69.432)scale(0.11 -0.11)">
      <defs>
       <path d="M 13.625 3.375 
L 8.9375 -20.796875 
L -0.09375 -20.796875 
L 14.5 54.34375 
Q 18.84375 76.609375 39.65625 76.609375 
Q 60.75 76.609375 57.171875 57.8125 
Q 54.734375 44.4375 45.21875 39.546875 
Q 58.015625 35.15625 55.515625 22.125 
Q 51.125 -1.078125 27.484375 -1.03125 
Q 17.140625 -0.984375 13.625 3.375 
z
M 15.921875 15.09375 
Q 19.671875 6.59375 29.296875 6.640625 
Q 43.359375 6.640625 46.34375 21.96875 
Q 49.03125 35.75 26.171875 34.671875 
L 27.78125 42.96875 
Q 45.453125 42.671875 48.53125 58.59375 
Q 50.640625 69.34375 39.203125 69.28125 
Q 26.421875 69.28125 23.484375 54.046875 
z
" id="DejaVuSans-Oblique-946"/>
       <path d="M 10.59375 45.40625 
L 73.1875 45.40625 
L 73.1875 37.203125 
L 10.59375 37.203125 
z
M 10.59375 25.484375 
L 73.1875 25.484375 
L 73.1875 17.1875 
L 10.59375 17.1875 
z
" id="DejaVuSans-61"/>
      </defs>
      <use transform="translate(0 0.390625)" xlink:href="#DejaVuSans-Oblique-946"/>
      <use transform="translate(63.818359 0.390625)" xlink:href="#DejaVuSans-61"/>
      <use transform="translate(147.607422 0.390625)" xlink:href="#DejaVuSans-48"/>
      <use transform="translate(211.230469 0.390625)" xlink:href="#DejaVuSans-46"/>
      <use transform="translate(237.517578 0.390625)" xlink:href="#DejaVuSans-50"/>
     </g>
    </g>
    <g id="line2d_49">
     <path d="M 907.815 81.862 
L 929.815 81.862 
" style="fill:none;stroke:#d97020;stroke-dasharray:5.55,2.4;stroke-dashoffset:0;stroke-width:1.5;"/>
    </g>
    <g id="line2d_50"/>
    <g id="text_31">
     <!-- $\beta$=0.15 -->
     <g transform="translate(938.615 85.712)scale(0.11 -0.11)">
      <defs>
       <path d="M 10.796875 72.90625 
L 49.515625 72.90625 
L 49.515625 64.59375 
L 19.828125 64.59375 
L 19.828125 46.734375 
Q 21.96875 47.46875 24.109375 47.828125 
Q 26.265625 48.1875 28.421875 48.1875 
Q 40.625 48.1875 47.75 41.5 
Q 54.890625 34.8125 54.890625 23.390625 
Q 54.890625 11.625 47.5625 5.09375 
Q 40.234375 -1.421875 26.90625 -1.421875 
Q 22.3125 -1.421875 17.546875 -0.640625 
Q 12.796875 0.140625 7.71875 1.703125 
L 7.71875 11.625 
Q 12.109375 9.234375 16.796875 8.0625 
Q 21.484375 6.890625 26.703125 6.890625 
Q 35.15625 6.890625 40.078125 11.328125 
Q 45.015625 15.765625 45.015625 23.390625 
Q 45.015625 31 40.078125 35.4375 
Q 35.15625 39.890625 26.703125 39.890625 
Q 22.75 39.890625 18.8125 39.015625 
Q 14.890625 38.140625 10.796875 36.28125 
z
" id="DejaVuSans-53"/>
      </defs>
      <use transform="translate(0 0.390625)" xlink:href="#DejaVuSans-Oblique-946"/>
      <use transform="translate(63.818359 0.390625)" xlink:href="#DejaVuSans-61"/>
      <use transform="translate(147.607422 0.390625)" xlink:href="#DejaVuSans-48"/>
      <use transform="translate(211.230469 0.390625)" xlink:href="#DejaVuSans-46"/>
      <use transform="translate(243.017578 0.390625)" xlink:href="#DejaVuSans-49"/>
      <use transform="translate(306.640625 0.390625)" xlink:href="#DejaVuSans-53"/>
     </g>
    </g>
    <g id="line2d_51">
     <path d="M 907.815 98.142 
L 929.815 98.142 
" style="fill:none;stroke:#ef9f07;stroke-dasharray:5.55,2.4;stroke-dashoffset:0;stroke-width:1.5;"/>
    </g>
    <g id="line2d_52"/>
    <g id="text_32">
     <!-- $\beta$=0.1 -->
     <g transform="translate(938.615 101.992)scale(0.11 -0.11)">
      <use transform="translate(0 0.390625)" xlink:href="#DejaVuSans-Oblique-946"/>
      <use transform="translate(63.818359 0.390625)" xlink:href="#DejaVuSans-61"/>
      <use transform="translate(147.607422 0.390625)" xlink:href="#DejaVuSans-48"/>
      <use transform="translate(211.230469 0.390625)" xlink:href="#DejaVuSans-46"/>
      <use transform="translate(243.017578 0.390625)" xlink:href="#DejaVuSans-49"/>
     </g>
    </g>
    <g id="line2d_53">
     <path d="M 907.815 114.422 
L 929.815 114.422 
" style="fill:none;stroke:#449775;stroke-dasharray:5.55,2.4;stroke-dashoffset:0;stroke-width:1.5;"/>
    </g>
    <g id="line2d_54"/>
    <g id="text_33">
     <!-- $\beta$=0.05 -->
     <g transform="translate(938.615 118.272)scale(0.11 -0.11)">
      <use transform="translate(0 0.390625)" xlink:href="#DejaVuSans-Oblique-946"/>
      <use transform="translate(63.818359 0.390625)" xlink:href="#DejaVuSans-61"/>
      <use transform="translate(147.607422 0.390625)" xlink:href="#DejaVuSans-48"/>
      <use transform="translate(211.230469 0.390625)" xlink:href="#DejaVuSans-46"/>
      <use transform="translate(243.017578 0.390625)" xlink:href="#DejaVuSans-48"/>
      <use transform="translate(306.640625 0.390625)" xlink:href="#DejaVuSans-53"/>
     </g>
    </g>
   </g>
  </g>
  <g id="text_34">
   <!-- Bifurcation diagrams for two weakly coupled neurons -->
   <g transform="translate(290.47875 19.9335)scale(0.16 -0.16)">
    <defs>
     <path d="M 19.671875 34.8125 
L 19.671875 8.109375 
L 35.5 8.109375 
Q 43.453125 8.109375 47.28125 11.40625 
Q 51.125 14.703125 51.125 21.484375 
Q 51.125 28.328125 47.28125 31.5625 
Q 43.453125 34.8125 35.5 34.8125 
z
M 19.671875 64.796875 
L 19.671875 42.828125 
L 34.28125 42.828125 
Q 41.5 42.828125 45.03125 45.53125 
Q 48.578125 48.25 48.578125 53.8125 
Q 48.578125 59.328125 45.03125 62.0625 
Q 41.5 64.796875 34.28125 64.796875 
z
M 9.8125 72.90625 
L 35.015625 72.90625 
Q 46.296875 72.90625 52.390625 68.21875 
Q 58.5 63.53125 58.5 54.890625 
Q 58.5 48.1875 55.375 44.234375 
Q 52.25 40.28125 46.1875 39.3125 
Q 53.46875 37.75 57.5 32.78125 
Q 61.53125 27.828125 61.53125 20.40625 
Q 61.53125 10.640625 54.890625 5.3125 
Q 48.25 0 35.984375 0 
L 9.8125 0 
z
" id="DejaVuSans-66"/>
     <path d="M 30.609375 48.390625 
Q 23.390625 48.390625 19.1875 42.75 
Q 14.984375 37.109375 14.984375 27.296875 
Q 14.984375 17.484375 19.15625 11.84375 
Q 23.34375 6.203125 30.609375 6.203125 
Q 37.796875 6.203125 41.984375 11.859375 
Q 46.1875 17.53125 46.1875 27.296875 
Q 46.1875 37.015625 41.984375 42.703125 
Q 37.796875 48.390625 30.609375 48.390625 
z
M 30.609375 56 
Q 42.328125 56 49.015625 48.375 
Q 55.71875 40.765625 55.71875 27.296875 
Q 55.71875 13.875 49.015625 6.21875 
Q 42.328125 -1.421875 30.609375 -1.421875 
Q 18.84375 -1.421875 12.171875 6.21875 
Q 5.515625 13.875 5.515625 27.296875 
Q 5.515625 40.765625 12.171875 48.375 
Q 18.84375 56 30.609375 56 
z
" id="DejaVuSans-111"/>
     <path d="M 45.40625 46.390625 
L 45.40625 75.984375 
L 54.390625 75.984375 
L 54.390625 0 
L 45.40625 0 
L 45.40625 8.203125 
Q 42.578125 3.328125 38.25 0.953125 
Q 33.9375 -1.421875 27.875 -1.421875 
Q 17.96875 -1.421875 11.734375 6.484375 
Q 5.515625 14.40625 5.515625 27.296875 
Q 5.515625 40.1875 11.734375 48.09375 
Q 17.96875 56 27.875 56 
Q 33.9375 56 38.25 53.625 
Q 42.578125 51.265625 45.40625 46.390625 
z
M 14.796875 27.296875 
Q 14.796875 17.390625 18.875 11.75 
Q 22.953125 6.109375 30.078125 6.109375 
Q 37.203125 6.109375 41.296875 11.75 
Q 45.40625 17.390625 45.40625 27.296875 
Q 45.40625 37.203125 41.296875 42.84375 
Q 37.203125 48.484375 30.078125 48.484375 
Q 22.953125 48.484375 18.875 42.84375 
Q 14.796875 37.203125 14.796875 27.296875 
z
" id="DejaVuSans-100"/>
     <path d="M 45.40625 27.984375 
Q 45.40625 37.75 41.375 43.109375 
Q 37.359375 48.484375 30.078125 48.484375 
Q 22.859375 48.484375 18.828125 43.109375 
Q 14.796875 37.75 14.796875 27.984375 
Q 14.796875 18.265625 18.828125 12.890625 
Q 22.859375 7.515625 30.078125 7.515625 
Q 37.359375 7.515625 41.375 12.890625 
Q 45.40625 18.265625 45.40625 27.984375 
z
M 54.390625 6.78125 
Q 54.390625 -7.171875 48.1875 -13.984375 
Q 42 -20.796875 29.203125 -20.796875 
Q 24.46875 -20.796875 20.265625 -20.09375 
Q 16.0625 -19.390625 12.109375 -17.921875 
L 12.109375 -9.1875 
Q 16.0625 -11.328125 19.921875 -12.34375 
Q 23.78125 -13.375 27.78125 -13.375 
Q 36.625 -13.375 41.015625 -8.765625 
Q 45.40625 -4.15625 45.40625 5.171875 
L 45.40625 9.625 
Q 42.625 4.78125 38.28125 2.390625 
Q 33.9375 0 27.875 0 
Q 17.828125 0 11.671875 7.65625 
Q 5.515625 15.328125 5.515625 27.984375 
Q 5.515625 40.671875 11.671875 48.328125 
Q 17.828125 56 27.875 56 
Q 33.9375 56 38.28125 53.609375 
Q 42.625 51.21875 45.40625 46.390625 
L 45.40625 54.6875 
L 54.390625 54.6875 
z
" id="DejaVuSans-103"/>
     <path d="M 52 44.1875 
Q 55.375 50.25 60.0625 53.125 
Q 64.75 56 71.09375 56 
Q 79.640625 56 84.28125 50.015625 
Q 88.921875 44.046875 88.921875 33.015625 
L 88.921875 0 
L 79.890625 0 
L 79.890625 32.71875 
Q 79.890625 40.578125 77.09375 44.375 
Q 74.3125 48.1875 68.609375 48.1875 
Q 61.625 48.1875 57.5625 43.546875 
Q 53.515625 38.921875 53.515625 30.90625 
L 53.515625 0 
L 44.484375 0 
L 44.484375 32.71875 
Q 44.484375 40.625 41.703125 44.40625 
Q 38.921875 48.1875 33.109375 48.1875 
Q 26.21875 48.1875 22.15625 43.53125 
Q 18.109375 38.875 18.109375 30.90625 
L 18.109375 0 
L 9.078125 0 
L 9.078125 54.6875 
L 18.109375 54.6875 
L 18.109375 46.1875 
Q 21.1875 51.21875 25.484375 53.609375 
Q 29.78125 56 35.6875 56 
Q 41.65625 56 45.828125 52.96875 
Q 50 49.953125 52 44.1875 
z
" id="DejaVuSans-109"/>
     <path d="M 4.203125 54.6875 
L 13.1875 54.6875 
L 24.421875 12.015625 
L 35.59375 54.6875 
L 46.1875 54.6875 
L 57.421875 12.015625 
L 68.609375 54.6875 
L 77.59375 54.6875 
L 63.28125 0 
L 52.6875 0 
L 40.921875 44.828125 
L 29.109375 0 
L 18.5 0 
z
" id="DejaVuSans-119"/>
     <path d="M 9.078125 75.984375 
L 18.109375 75.984375 
L 18.109375 31.109375 
L 44.921875 54.6875 
L 56.390625 54.6875 
L 27.390625 29.109375 
L 57.625 0 
L 45.90625 0 
L 18.109375 26.703125 
L 18.109375 0 
L 9.078125 0 
z
" id="DejaVuSans-107"/>
     <path d="M 32.171875 -5.078125 
Q 28.375 -14.84375 24.75 -17.8125 
Q 21.140625 -20.796875 15.09375 -20.796875 
L 7.90625 -20.796875 
L 7.90625 -13.28125 
L 13.1875 -13.28125 
Q 16.890625 -13.28125 18.9375 -11.515625 
Q 21 -9.765625 23.484375 -3.21875 
L 25.09375 0.875 
L 2.984375 54.6875 
L 12.5 54.6875 
L 29.59375 11.921875 
L 46.6875 54.6875 
L 56.203125 54.6875 
z
" id="DejaVuSans-121"/>
     <path d="M 18.109375 8.203125 
L 18.109375 -20.796875 
L 9.078125 -20.796875 
L 9.078125 54.6875 
L 18.109375 54.6875 
L 18.109375 46.390625 
Q 20.953125 51.265625 25.265625 53.625 
Q 29.59375 56 35.59375 56 
Q 45.5625 56 51.78125 48.09375 
Q 58.015625 40.1875 58.015625 27.296875 
Q 58.015625 14.40625 51.78125 6.484375 
Q 45.5625 -1.421875 35.59375 -1.421875 
Q 29.59375 -1.421875 25.265625 0.953125 
Q 20.953125 3.328125 18.109375 8.203125 
z
M 48.6875 27.296875 
Q 48.6875 37.203125 44.609375 42.84375 
Q 40.53125 48.484375 33.40625 48.484375 
Q 26.265625 48.484375 22.1875 42.84375 
Q 18.109375 37.203125 18.109375 27.296875 
Q 18.109375 17.390625 22.1875 11.75 
Q 26.265625 6.109375 33.40625 6.109375 
Q 40.53125 6.109375 44.609375 11.75 
Q 48.6875 17.390625 48.6875 27.296875 
z
" id="DejaVuSans-112"/>
    </defs>
    <use xlink:href="#DejaVuSans-66"/>
    <use x="68.603516" xlink:href="#DejaVuSans-105"/>
    <use x="96.386719" xlink:href="#DejaVuSans-102"/>
    <use x="131.591797" xlink:href="#DejaVuSans-117"/>
    <use x="194.970703" xlink:href="#DejaVuSans-114"/>
    <use x="233.833984" xlink:href="#DejaVuSans-99"/>
    <use x="288.814453" xlink:href="#DejaVuSans-97"/>
    <use x="350.09375" xlink:href="#DejaVuSans-116"/>
    <use x="389.302734" xlink:href="#DejaVuSans-105"/>
    <use x="417.085938" xlink:href="#DejaVuSans-111"/>
    <use x="478.267578" xlink:href="#DejaVuSans-110"/>
    <use x="541.646484" xlink:href="#DejaVuSans-32"/>
    <use x="573.433594" xlink:href="#DejaVuSans-100"/>
    <use x="636.910156" xlink:href="#DejaVuSans-105"/>
    <use x="664.693359" xlink:href="#DejaVuSans-97"/>
    <use x="725.972656" xlink:href="#DejaVuSans-103"/>
    <use x="789.449219" xlink:href="#DejaVuSans-114"/>
    <use x="830.5625" xlink:href="#DejaVuSans-97"/>
    <use x="891.841797" xlink:href="#DejaVuSans-109"/>
    <use x="989.253906" xlink:href="#DejaVuSans-115"/>
    <use x="1041.353516" xlink:href="#DejaVuSans-32"/>
    <use x="1073.140625" xlink:href="#DejaVuSans-102"/>
    <use x="1108.345703" xlink:href="#DejaVuSans-111"/>
    <use x="1169.527344" xlink:href="#DejaVuSans-114"/>
    <use x="1210.640625" xlink:href="#DejaVuSans-32"/>
    <use x="1242.427734" xlink:href="#DejaVuSans-116"/>
    <use x="1281.636719" xlink:href="#DejaVuSans-119"/>
    <use x="1363.423828" xlink:href="#DejaVuSans-111"/>
    <use x="1424.605469" xlink:href="#DejaVuSans-32"/>
    <use x="1456.392578" xlink:href="#DejaVuSans-119"/>
    <use x="1538.179688" xlink:href="#DejaVuSans-101"/>
    <use x="1599.703125" xlink:href="#DejaVuSans-97"/>
    <use x="1660.982422" xlink:href="#DejaVuSans-107"/>
    <use x="1718.892578" xlink:href="#DejaVuSans-108"/>
    <use x="1746.675781" xlink:href="#DejaVuSans-121"/>
    <use x="1805.855469" xlink:href="#DejaVuSans-32"/>
    <use x="1837.642578" xlink:href="#DejaVuSans-99"/>
    <use x="1892.623047" xlink:href="#DejaVuSans-111"/>
    <use x="1953.804688" xlink:href="#DejaVuSans-117"/>
    <use x="2017.183594" xlink:href="#DejaVuSans-112"/>
    <use x="2080.660156" xlink:href="#DejaVuSans-108"/>
    <use x="2108.443359" xlink:href="#DejaVuSans-101"/>
    <use x="2169.966797" xlink:href="#DejaVuSans-100"/>
    <use x="2233.443359" xlink:href="#DejaVuSans-32"/>
    <use x="2265.230469" xlink:href="#DejaVuSans-110"/>
    <use x="2328.609375" xlink:href="#DejaVuSans-101"/>
    <use x="2390.132812" xlink:href="#DejaVuSans-117"/>
    <use x="2453.511719" xlink:href="#DejaVuSans-114"/>
    <use x="2492.375" xlink:href="#DejaVuSans-111"/>
    <use x="2553.556641" xlink:href="#DejaVuSans-110"/>
    <use x="2616.935547" xlink:href="#DejaVuSans-115"/>
   </g>
  </g>
 </g>
 <defs>
  <clipPath id="p98fb9d592c">
   <rect height="301.24" width="446.805" x="54.2" y="36"/>
  </clipPath>
  <clipPath id="pe8b1defeae">
   <rect height="301.24" width="446.805" x="542.52" y="36"/>
  </clipPath>
 </defs>
</svg>
