<?xml version="1.0" encoding="utf-8" standalone="no"?>
<!DOCTYPE svg PUBLIC "-//W3C//DTD SVG 1.1//EN"
  "http://www.w3.org/Graphics/SVG/1.1/DTD/svg11.dtd">
<!-- Created with matplotlib (https://matplotlib.org/) -->
<svg height="432pt" version="1.1" viewBox="0 0 576 432" width="576pt" xmlns="http://www.w3.org/2000/svg" xmlns:xlink="http://www.w3.org/1999/xlink">
 <metadata>
  <rdf:RDF xmlns:cc="http://creativecommons.org/ns#" xmlns:dc="http://purl.org/dc/elements/1.1/" xmlns:rdf="http://www.w3.org/1999/02/22-rdf-syntax-ns#">
   <cc:Work>
    <dc:type rdf:resource="http://purl.org/dc/dcmitype/StillImage"/>
    <dc:date>2021-08-14T12:04:55.236418</dc:date>
    <dc:format>image/svg+xml</dc:format>
    <dc:creator>
     <cc:Agent>
      <dc:title>Matplotlib v3.3.3, https://matplotlib.org/</dc:title>
     </cc:Agent>
    </dc:creator>
   </cc:Work>
  </rdf:RDF>
 </metadata>
 <defs>
  <style type="text/css">*{stroke-linecap:butt;stroke-linejoin:round;}</style>
 </defs>
 <g id="figure_1">
  <g id="patch_1">
   <path d="M 0 432 
L 576 432 
L 576 0 
L 0 0 
z
" style="fill:#ffffff;"/>
  </g>
  <g id="axes_1">
   <g id="patch_2">
    <path d="M 55.82 379.72 
L 556.515 379.72 
L 556.515 38.76 
L 55.82 38.76 
z
" style="fill:#ffffff;"/>
   </g>
   <g id="matplotlib.axis_1">
    <g id="xtick_1">
     <g id="line2d_1">
      <defs>
       <path d="M 0 0 
L 0 3.5 
" id="m8568bd1df6" style="stroke:#000000;stroke-width:0.8;"/>
      </defs>
      <g>
       <use style="stroke:#000000;stroke-width:0.8;" x="55.82" xlink:href="#m8568bd1df6" y="379.72"/>
      </g>
     </g>
     <g id="text_1">
      <!-- 1.0 -->
      <g transform="translate(47.073281 395.078281)scale(0.11 -0.11)">
       <defs>
        <path d="M 12.40625 8.296875 
L 28.515625 8.296875 
L 28.515625 63.921875 
L 10.984375 60.40625 
L 10.984375 69.390625 
L 28.421875 72.90625 
L 38.28125 72.90625 
L 38.28125 8.296875 
L 54.390625 8.296875 
L 54.390625 0 
L 12.40625 0 
z
" id="DejaVuSans-49"/>
        <path d="M 10.6875 12.40625 
L 21 12.40625 
L 21 0 
L 10.6875 0 
z
" id="DejaVuSans-46"/>
        <path d="M 31.78125 66.40625 
Q 24.171875 66.40625 20.328125 58.90625 
Q 16.5 51.421875 16.5 36.375 
Q 16.5 21.390625 20.328125 13.890625 
Q 24.171875 6.390625 31.78125 6.390625 
Q 39.453125 6.390625 43.28125 13.890625 
Q 47.125 21.390625 47.125 36.375 
Q 47.125 51.421875 43.28125 58.90625 
Q 39.453125 66.40625 31.78125 66.40625 
z
M 31.78125 74.21875 
Q 44.046875 74.21875 50.515625 64.515625 
Q 56.984375 54.828125 56.984375 36.375 
Q 56.984375 17.96875 50.515625 8.265625 
Q 44.046875 -1.421875 31.78125 -1.421875 
Q 19.53125 -1.421875 13.0625 8.265625 
Q 6.59375 17.96875 6.59375 36.375 
Q 6.59375 54.828125 13.0625 64.515625 
Q 19.53125 74.21875 31.78125 74.21875 
z
" id="DejaVuSans-48"/>
       </defs>
       <use xlink:href="#DejaVuSans-49"/>
       <use x="63.623047" xlink:href="#DejaVuSans-46"/>
       <use x="95.410156" xlink:href="#DejaVuSans-48"/>
      </g>
     </g>
    </g>
    <g id="xtick_2">
     <g id="line2d_2">
      <g>
       <use style="stroke:#000000;stroke-width:0.8;" x="155.959" xlink:href="#m8568bd1df6" y="379.72"/>
      </g>
     </g>
     <g id="text_2">
      <!-- 1.2 -->
      <g transform="translate(147.212281 395.078281)scale(0.11 -0.11)">
       <defs>
        <path d="M 19.1875 8.296875 
L 53.609375 8.296875 
L 53.609375 0 
L 7.328125 0 
L 7.328125 8.296875 
Q 12.9375 14.109375 22.625 23.890625 
Q 32.328125 33.6875 34.8125 36.53125 
Q 39.546875 41.84375 41.421875 45.53125 
Q 43.3125 49.21875 43.3125 52.78125 
Q 43.3125 58.59375 39.234375 62.25 
Q 35.15625 65.921875 28.609375 65.921875 
Q 23.96875 65.921875 18.8125 64.3125 
Q 13.671875 62.703125 7.8125 59.421875 
L 7.8125 69.390625 
Q 13.765625 71.78125 18.9375 73 
Q 24.125 74.21875 28.421875 74.21875 
Q 39.75 74.21875 46.484375 68.546875 
Q 53.21875 62.890625 53.21875 53.421875 
Q 53.21875 48.921875 51.53125 44.890625 
Q 49.859375 40.875 45.40625 35.40625 
Q 44.1875 33.984375 37.640625 27.21875 
Q 31.109375 20.453125 19.1875 8.296875 
z
" id="DejaVuSans-50"/>
       </defs>
       <use xlink:href="#DejaVuSans-49"/>
       <use x="63.623047" xlink:href="#DejaVuSans-46"/>
       <use x="95.410156" xlink:href="#DejaVuSans-50"/>
      </g>
     </g>
    </g>
    <g id="xtick_3">
     <g id="line2d_3">
      <g>
       <use style="stroke:#000000;stroke-width:0.8;" x="256.098" xlink:href="#m8568bd1df6" y="379.72"/>
      </g>
     </g>
     <g id="text_3">
      <!-- 1.4 -->
      <g transform="translate(247.351281 395.078281)scale(0.11 -0.11)">
       <defs>
        <path d="M 37.796875 64.3125 
L 12.890625 25.390625 
L 37.796875 25.390625 
z
M 35.203125 72.90625 
L 47.609375 72.90625 
L 47.609375 25.390625 
L 58.015625 25.390625 
L 58.015625 17.1875 
L 47.609375 17.1875 
L 47.609375 0 
L 37.796875 0 
L 37.796875 17.1875 
L 4.890625 17.1875 
L 4.890625 26.703125 
z
" id="DejaVuSans-52"/>
       </defs>
       <use xlink:href="#DejaVuSans-49"/>
       <use x="63.623047" xlink:href="#DejaVuSans-46"/>
       <use x="95.410156" xlink:href="#DejaVuSans-52"/>
      </g>
     </g>
    </g>
    <g id="xtick_4">
     <g id="line2d_4">
      <g>
       <use style="stroke:#000000;stroke-width:0.8;" x="356.237" xlink:href="#m8568bd1df6" y="379.72"/>
      </g>
     </g>
     <g id="text_4">
      <!-- 1.6 -->
      <g transform="translate(347.490281 395.078281)scale(0.11 -0.11)">
       <defs>
        <path d="M 33.015625 40.375 
Q 26.375 40.375 22.484375 35.828125 
Q 18.609375 31.296875 18.609375 23.390625 
Q 18.609375 15.53125 22.484375 10.953125 
Q 26.375 6.390625 33.015625 6.390625 
Q 39.65625 6.390625 43.53125 10.953125 
Q 47.40625 15.53125 47.40625 23.390625 
Q 47.40625 31.296875 43.53125 35.828125 
Q 39.65625 40.375 33.015625 40.375 
z
M 52.59375 71.296875 
L 52.59375 62.3125 
Q 48.875 64.0625 45.09375 64.984375 
Q 41.3125 65.921875 37.59375 65.921875 
Q 27.828125 65.921875 22.671875 59.328125 
Q 17.53125 52.734375 16.796875 39.40625 
Q 19.671875 43.65625 24.015625 45.921875 
Q 28.375 48.1875 33.59375 48.1875 
Q 44.578125 48.1875 50.953125 41.515625 
Q 57.328125 34.859375 57.328125 23.390625 
Q 57.328125 12.15625 50.6875 5.359375 
Q 44.046875 -1.421875 33.015625 -1.421875 
Q 20.359375 -1.421875 13.671875 8.265625 
Q 6.984375 17.96875 6.984375 36.375 
Q 6.984375 53.65625 15.1875 63.9375 
Q 23.390625 74.21875 37.203125 74.21875 
Q 40.921875 74.21875 44.703125 73.484375 
Q 48.484375 72.75 52.59375 71.296875 
z
" id="DejaVuSans-54"/>
       </defs>
       <use xlink:href="#DejaVuSans-49"/>
       <use x="63.623047" xlink:href="#DejaVuSans-46"/>
       <use x="95.410156" xlink:href="#DejaVuSans-54"/>
      </g>
     </g>
    </g>
    <g id="xtick_5">
     <g id="line2d_5">
      <g>
       <use style="stroke:#000000;stroke-width:0.8;" x="456.376" xlink:href="#m8568bd1df6" y="379.72"/>
      </g>
     </g>
     <g id="text_5">
      <!-- 1.8 -->
      <g transform="translate(447.629281 395.078281)scale(0.11 -0.11)">
       <defs>
        <path d="M 31.78125 34.625 
Q 24.75 34.625 20.71875 30.859375 
Q 16.703125 27.09375 16.703125 20.515625 
Q 16.703125 13.921875 20.71875 10.15625 
Q 24.75 6.390625 31.78125 6.390625 
Q 38.8125 6.390625 42.859375 10.171875 
Q 46.921875 13.96875 46.921875 20.515625 
Q 46.921875 27.09375 42.890625 30.859375 
Q 38.875 34.625 31.78125 34.625 
z
M 21.921875 38.8125 
Q 15.578125 40.375 12.03125 44.71875 
Q 8.5 49.078125 8.5 55.328125 
Q 8.5 64.0625 14.71875 69.140625 
Q 20.953125 74.21875 31.78125 74.21875 
Q 42.671875 74.21875 48.875 69.140625 
Q 55.078125 64.0625 55.078125 55.328125 
Q 55.078125 49.078125 51.53125 44.71875 
Q 48 40.375 41.703125 38.8125 
Q 48.828125 37.15625 52.796875 32.3125 
Q 56.78125 27.484375 56.78125 20.515625 
Q 56.78125 9.90625 50.3125 4.234375 
Q 43.84375 -1.421875 31.78125 -1.421875 
Q 19.734375 -1.421875 13.25 4.234375 
Q 6.78125 9.90625 6.78125 20.515625 
Q 6.78125 27.484375 10.78125 32.3125 
Q 14.796875 37.15625 21.921875 38.8125 
z
M 18.3125 54.390625 
Q 18.3125 48.734375 21.84375 45.5625 
Q 25.390625 42.390625 31.78125 42.390625 
Q 38.140625 42.390625 41.71875 45.5625 
Q 45.3125 48.734375 45.3125 54.390625 
Q 45.3125 60.0625 41.71875 63.234375 
Q 38.140625 66.40625 31.78125 66.40625 
Q 25.390625 66.40625 21.84375 63.234375 
Q 18.3125 60.0625 18.3125 54.390625 
z
" id="DejaVuSans-56"/>
       </defs>
       <use xlink:href="#DejaVuSans-49"/>
       <use x="63.623047" xlink:href="#DejaVuSans-46"/>
       <use x="95.410156" xlink:href="#DejaVuSans-56"/>
      </g>
     </g>
    </g>
    <g id="xtick_6">
     <g id="line2d_6">
      <g>
       <use style="stroke:#000000;stroke-width:0.8;" x="556.515" xlink:href="#m8568bd1df6" y="379.72"/>
      </g>
     </g>
     <g id="text_6">
      <!-- 2.0 -->
      <g transform="translate(547.768281 395.078281)scale(0.11 -0.11)">
       <use xlink:href="#DejaVuSans-50"/>
       <use x="63.623047" xlink:href="#DejaVuSans-46"/>
       <use x="95.410156" xlink:href="#DejaVuSans-48"/>
      </g>
     </g>
    </g>
    <g id="text_7">
     <!-- Current $I$ -->
     <g transform="translate(275.2975 418.00375)scale(0.14 -0.14)">
      <defs>
       <path d="M 64.40625 67.28125 
L 64.40625 56.890625 
Q 59.421875 61.53125 53.78125 63.8125 
Q 48.140625 66.109375 41.796875 66.109375 
Q 29.296875 66.109375 22.65625 58.46875 
Q 16.015625 50.828125 16.015625 36.375 
Q 16.015625 21.96875 22.65625 14.328125 
Q 29.296875 6.6875 41.796875 6.6875 
Q 48.140625 6.6875 53.78125 8.984375 
Q 59.421875 11.28125 64.40625 15.921875 
L 64.40625 5.609375 
Q 59.234375 2.09375 53.4375 0.328125 
Q 47.65625 -1.421875 41.21875 -1.421875 
Q 24.65625 -1.421875 15.125 8.703125 
Q 5.609375 18.84375 5.609375 36.375 
Q 5.609375 53.953125 15.125 64.078125 
Q 24.65625 74.21875 41.21875 74.21875 
Q 47.75 74.21875 53.53125 72.484375 
Q 59.328125 70.75 64.40625 67.28125 
z
" id="DejaVuSans-67"/>
       <path d="M 8.5 21.578125 
L 8.5 54.6875 
L 17.484375 54.6875 
L 17.484375 21.921875 
Q 17.484375 14.15625 20.5 10.265625 
Q 23.53125 6.390625 29.59375 6.390625 
Q 36.859375 6.390625 41.078125 11.03125 
Q 45.3125 15.671875 45.3125 23.6875 
L 45.3125 54.6875 
L 54.296875 54.6875 
L 54.296875 0 
L 45.3125 0 
L 45.3125 8.40625 
Q 42.046875 3.421875 37.71875 1 
Q 33.40625 -1.421875 27.6875 -1.421875 
Q 18.265625 -1.421875 13.375 4.4375 
Q 8.5 10.296875 8.5 21.578125 
z
M 31.109375 56 
z
" id="DejaVuSans-117"/>
       <path d="M 41.109375 46.296875 
Q 39.59375 47.171875 37.8125 47.578125 
Q 36.03125 48 33.890625 48 
Q 26.265625 48 22.1875 43.046875 
Q 18.109375 38.09375 18.109375 28.8125 
L 18.109375 0 
L 9.078125 0 
L 9.078125 54.6875 
L 18.109375 54.6875 
L 18.109375 46.1875 
Q 20.953125 51.171875 25.484375 53.578125 
Q 30.03125 56 36.53125 56 
Q 37.453125 56 38.578125 55.875 
Q 39.703125 55.765625 41.0625 55.515625 
z
" id="DejaVuSans-114"/>
       <path d="M 56.203125 29.59375 
L 56.203125 25.203125 
L 14.890625 25.203125 
Q 15.484375 15.921875 20.484375 11.0625 
Q 25.484375 6.203125 34.421875 6.203125 
Q 39.59375 6.203125 44.453125 7.46875 
Q 49.3125 8.734375 54.109375 11.28125 
L 54.109375 2.78125 
Q 49.265625 0.734375 44.1875 -0.34375 
Q 39.109375 -1.421875 33.890625 -1.421875 
Q 20.796875 -1.421875 13.15625 6.1875 
Q 5.515625 13.8125 5.515625 26.8125 
Q 5.515625 40.234375 12.765625 48.109375 
Q 20.015625 56 32.328125 56 
Q 43.359375 56 49.78125 48.890625 
Q 56.203125 41.796875 56.203125 29.59375 
z
M 47.21875 32.234375 
Q 47.125 39.59375 43.09375 43.984375 
Q 39.0625 48.390625 32.421875 48.390625 
Q 24.90625 48.390625 20.390625 44.140625 
Q 15.875 39.890625 15.1875 32.171875 
z
" id="DejaVuSans-101"/>
       <path d="M 54.890625 33.015625 
L 54.890625 0 
L 45.90625 0 
L 45.90625 32.71875 
Q 45.90625 40.484375 42.875 44.328125 
Q 39.84375 48.1875 33.796875 48.1875 
Q 26.515625 48.1875 22.3125 43.546875 
Q 18.109375 38.921875 18.109375 30.90625 
L 18.109375 0 
L 9.078125 0 
L 9.078125 54.6875 
L 18.109375 54.6875 
L 18.109375 46.1875 
Q 21.34375 51.125 25.703125 53.5625 
Q 30.078125 56 35.796875 56 
Q 45.21875 56 50.046875 50.171875 
Q 54.890625 44.34375 54.890625 33.015625 
z
" id="DejaVuSans-110"/>
       <path d="M 18.3125 70.21875 
L 18.3125 54.6875 
L 36.8125 54.6875 
L 36.8125 47.703125 
L 18.3125 47.703125 
L 18.3125 18.015625 
Q 18.3125 11.328125 20.140625 9.421875 
Q 21.96875 7.515625 27.59375 7.515625 
L 36.8125 7.515625 
L 36.8125 0 
L 27.59375 0 
Q 17.1875 0 13.234375 3.875 
Q 9.28125 7.765625 9.28125 18.015625 
L 9.28125 47.703125 
L 2.6875 47.703125 
L 2.6875 54.6875 
L 9.28125 54.6875 
L 9.28125 70.21875 
z
" id="DejaVuSans-116"/>
       <path id="DejaVuSans-32"/>
       <path d="M 16.890625 72.90625 
L 26.8125 72.90625 
L 12.59375 0 
L 2.6875 0 
z
" id="DejaVuSans-Oblique-73"/>
      </defs>
      <use transform="translate(0 0.78125)" xlink:href="#DejaVuSans-67"/>
      <use transform="translate(69.824219 0.78125)" xlink:href="#DejaVuSans-117"/>
      <use transform="translate(133.203125 0.78125)" xlink:href="#DejaVuSans-114"/>
      <use transform="translate(174.316406 0.78125)" xlink:href="#DejaVuSans-114"/>
      <use transform="translate(215.429688 0.78125)" xlink:href="#DejaVuSans-101"/>
      <use transform="translate(276.953125 0.78125)" xlink:href="#DejaVuSans-110"/>
      <use transform="translate(340.332031 0.78125)" xlink:href="#DejaVuSans-116"/>
      <use transform="translate(379.541016 0.78125)" xlink:href="#DejaVuSans-32"/>
      <use transform="translate(411.328125 0.78125)" xlink:href="#DejaVuSans-Oblique-73"/>
     </g>
    </g>
   </g>
   <g id="matplotlib.axis_2">
    <g id="ytick_1">
     <g id="line2d_7">
      <defs>
       <path d="M 0 0 
L -3.5 0 
" id="mf29d0ee225" style="stroke:#000000;stroke-width:0.8;"/>
      </defs>
      <g>
       <use style="stroke:#000000;stroke-width:0.8;" x="55.82" xlink:href="#mf29d0ee225" y="364.221818"/>
      </g>
     </g>
     <g id="text_8">
      <!-- 0.0 -->
      <g transform="translate(31.326563 368.400959)scale(0.11 -0.11)">
       <use xlink:href="#DejaVuSans-48"/>
       <use x="63.623047" xlink:href="#DejaVuSans-46"/>
       <use x="95.410156" xlink:href="#DejaVuSans-48"/>
      </g>
     </g>
    </g>
    <g id="ytick_2">
     <g id="line2d_8">
      <g>
       <use style="stroke:#000000;stroke-width:0.8;" x="55.82" xlink:href="#mf29d0ee225" y="302.229091"/>
      </g>
     </g>
     <g id="text_9">
      <!-- 0.2 -->
      <g transform="translate(31.326563 306.408232)scale(0.11 -0.11)">
       <use xlink:href="#DejaVuSans-48"/>
       <use x="63.623047" xlink:href="#DejaVuSans-46"/>
       <use x="95.410156" xlink:href="#DejaVuSans-50"/>
      </g>
     </g>
    </g>
    <g id="ytick_3">
     <g id="line2d_9">
      <g>
       <use style="stroke:#000000;stroke-width:0.8;" x="55.82" xlink:href="#mf29d0ee225" y="240.236364"/>
      </g>
     </g>
     <g id="text_10">
      <!-- 0.4 -->
      <g transform="translate(31.326563 244.415504)scale(0.11 -0.11)">
       <use xlink:href="#DejaVuSans-48"/>
       <use x="63.623047" xlink:href="#DejaVuSans-46"/>
       <use x="95.410156" xlink:href="#DejaVuSans-52"/>
      </g>
     </g>
    </g>
    <g id="ytick_4">
     <g id="line2d_10">
      <g>
       <use style="stroke:#000000;stroke-width:0.8;" x="55.82" xlink:href="#mf29d0ee225" y="178.243636"/>
      </g>
     </g>
     <g id="text_11">
      <!-- 0.6 -->
      <g transform="translate(31.326563 182.422777)scale(0.11 -0.11)">
       <use xlink:href="#DejaVuSans-48"/>
       <use x="63.623047" xlink:href="#DejaVuSans-46"/>
       <use x="95.410156" xlink:href="#DejaVuSans-54"/>
      </g>
     </g>
    </g>
    <g id="ytick_5">
     <g id="line2d_11">
      <g>
       <use style="stroke:#000000;stroke-width:0.8;" x="55.82" xlink:href="#mf29d0ee225" y="116.250909"/>
      </g>
     </g>
     <g id="text_12">
      <!-- 0.8 -->
      <g transform="translate(31.326563 120.43005)scale(0.11 -0.11)">
       <use xlink:href="#DejaVuSans-48"/>
       <use x="63.623047" xlink:href="#DejaVuSans-46"/>
       <use x="95.410156" xlink:href="#DejaVuSans-56"/>
      </g>
     </g>
    </g>
    <g id="ytick_6">
     <g id="line2d_12">
      <g>
       <use style="stroke:#000000;stroke-width:0.8;" x="55.82" xlink:href="#mf29d0ee225" y="54.258182"/>
      </g>
     </g>
     <g id="text_13">
      <!-- 1.0 -->
      <g transform="translate(31.326563 58.437322)scale(0.11 -0.11)">
       <use xlink:href="#DejaVuSans-49"/>
       <use x="63.623047" xlink:href="#DejaVuSans-46"/>
       <use x="95.410156" xlink:href="#DejaVuSans-48"/>
      </g>
     </g>
    </g>
    <g id="text_14">
     <!-- Phase Difference $\phi$ -->
     <g transform="translate(24.386563 275.6)rotate(-90)scale(0.14 -0.14)">
      <defs>
       <path d="M 19.671875 64.796875 
L 19.671875 37.40625 
L 32.078125 37.40625 
Q 38.96875 37.40625 42.71875 40.96875 
Q 46.484375 44.53125 46.484375 51.125 
Q 46.484375 57.671875 42.71875 61.234375 
Q 38.96875 64.796875 32.078125 64.796875 
z
M 9.8125 72.90625 
L 32.078125 72.90625 
Q 44.34375 72.90625 50.609375 67.359375 
Q 56.890625 61.8125 56.890625 51.125 
Q 56.890625 40.328125 50.609375 34.8125 
Q 44.34375 29.296875 32.078125 29.296875 
L 19.671875 29.296875 
L 19.671875 0 
L 9.8125 0 
z
" id="DejaVuSans-80"/>
       <path d="M 54.890625 33.015625 
L 54.890625 0 
L 45.90625 0 
L 45.90625 32.71875 
Q 45.90625 40.484375 42.875 44.328125 
Q 39.84375 48.1875 33.796875 48.1875 
Q 26.515625 48.1875 22.3125 43.546875 
Q 18.109375 38.921875 18.109375 30.90625 
L 18.109375 0 
L 9.078125 0 
L 9.078125 75.984375 
L 18.109375 75.984375 
L 18.109375 46.1875 
Q 21.34375 51.125 25.703125 53.5625 
Q 30.078125 56 35.796875 56 
Q 45.21875 56 50.046875 50.171875 
Q 54.890625 44.34375 54.890625 33.015625 
z
" id="DejaVuSans-104"/>
       <path d="M 34.28125 27.484375 
Q 23.390625 27.484375 19.1875 25 
Q 14.984375 22.515625 14.984375 16.5 
Q 14.984375 11.71875 18.140625 8.90625 
Q 21.296875 6.109375 26.703125 6.109375 
Q 34.1875 6.109375 38.703125 11.40625 
Q 43.21875 16.703125 43.21875 25.484375 
L 43.21875 27.484375 
z
M 52.203125 31.203125 
L 52.203125 0 
L 43.21875 0 
L 43.21875 8.296875 
Q 40.140625 3.328125 35.546875 0.953125 
Q 30.953125 -1.421875 24.3125 -1.421875 
Q 15.921875 -1.421875 10.953125 3.296875 
Q 6 8.015625 6 15.921875 
Q 6 25.140625 12.171875 29.828125 
Q 18.359375 34.515625 30.609375 34.515625 
L 43.21875 34.515625 
L 43.21875 35.40625 
Q 43.21875 41.609375 39.140625 45 
Q 35.0625 48.390625 27.6875 48.390625 
Q 23 48.390625 18.546875 47.265625 
Q 14.109375 46.140625 10.015625 43.890625 
L 10.015625 52.203125 
Q 14.9375 54.109375 19.578125 55.046875 
Q 24.21875 56 28.609375 56 
Q 40.484375 56 46.34375 49.84375 
Q 52.203125 43.703125 52.203125 31.203125 
z
" id="DejaVuSans-97"/>
       <path d="M 44.28125 53.078125 
L 44.28125 44.578125 
Q 40.484375 46.53125 36.375 47.5 
Q 32.28125 48.484375 27.875 48.484375 
Q 21.1875 48.484375 17.84375 46.4375 
Q 14.5 44.390625 14.5 40.28125 
Q 14.5 37.15625 16.890625 35.375 
Q 19.28125 33.59375 26.515625 31.984375 
L 29.59375 31.296875 
Q 39.15625 29.25 43.1875 25.515625 
Q 47.21875 21.78125 47.21875 15.09375 
Q 47.21875 7.46875 41.1875 3.015625 
Q 35.15625 -1.421875 24.609375 -1.421875 
Q 20.21875 -1.421875 15.453125 -0.5625 
Q 10.6875 0.296875 5.421875 2 
L 5.421875 11.28125 
Q 10.40625 8.6875 15.234375 7.390625 
Q 20.0625 6.109375 24.8125 6.109375 
Q 31.15625 6.109375 34.5625 8.28125 
Q 37.984375 10.453125 37.984375 14.40625 
Q 37.984375 18.0625 35.515625 20.015625 
Q 33.0625 21.96875 24.703125 23.78125 
L 21.578125 24.515625 
Q 13.234375 26.265625 9.515625 29.90625 
Q 5.8125 33.546875 5.8125 39.890625 
Q 5.8125 47.609375 11.28125 51.796875 
Q 16.75 56 26.8125 56 
Q 31.78125 56 36.171875 55.265625 
Q 40.578125 54.546875 44.28125 53.078125 
z
" id="DejaVuSans-115"/>
       <path d="M 19.671875 64.796875 
L 19.671875 8.109375 
L 31.59375 8.109375 
Q 46.6875 8.109375 53.6875 14.9375 
Q 60.6875 21.78125 60.6875 36.53125 
Q 60.6875 51.171875 53.6875 57.984375 
Q 46.6875 64.796875 31.59375 64.796875 
z
M 9.8125 72.90625 
L 30.078125 72.90625 
Q 51.265625 72.90625 61.171875 64.09375 
Q 71.09375 55.28125 71.09375 36.53125 
Q 71.09375 17.671875 61.125 8.828125 
Q 51.171875 0 30.078125 0 
L 9.8125 0 
z
" id="DejaVuSans-68"/>
       <path d="M 9.421875 54.6875 
L 18.40625 54.6875 
L 18.40625 0 
L 9.421875 0 
z
M 9.421875 75.984375 
L 18.40625 75.984375 
L 18.40625 64.59375 
L 9.421875 64.59375 
z
" id="DejaVuSans-105"/>
       <path d="M 37.109375 75.984375 
L 37.109375 68.5 
L 28.515625 68.5 
Q 23.6875 68.5 21.796875 66.546875 
Q 19.921875 64.59375 19.921875 59.515625 
L 19.921875 54.6875 
L 34.71875 54.6875 
L 34.71875 47.703125 
L 19.921875 47.703125 
L 19.921875 0 
L 10.890625 0 
L 10.890625 47.703125 
L 2.296875 47.703125 
L 2.296875 54.6875 
L 10.890625 54.6875 
L 10.890625 58.5 
Q 10.890625 67.625 15.140625 71.796875 
Q 19.390625 75.984375 28.609375 75.984375 
z
" id="DejaVuSans-102"/>
       <path d="M 48.78125 52.59375 
L 48.78125 44.1875 
Q 44.96875 46.296875 41.140625 47.34375 
Q 37.3125 48.390625 33.40625 48.390625 
Q 24.65625 48.390625 19.8125 42.84375 
Q 14.984375 37.3125 14.984375 27.296875 
Q 14.984375 17.28125 19.8125 11.734375 
Q 24.65625 6.203125 33.40625 6.203125 
Q 37.3125 6.203125 41.140625 7.25 
Q 44.96875 8.296875 48.78125 10.40625 
L 48.78125 2.09375 
Q 45.015625 0.34375 40.984375 -0.53125 
Q 36.96875 -1.421875 32.421875 -1.421875 
Q 20.0625 -1.421875 12.78125 6.34375 
Q 5.515625 14.109375 5.515625 27.296875 
Q 5.515625 40.671875 12.859375 48.328125 
Q 20.21875 56 33.015625 56 
Q 37.15625 56 41.109375 55.140625 
Q 45.0625 54.296875 48.78125 52.59375 
z
" id="DejaVuSans-99"/>
       <path d="M 46.734375 75.984375 
L 42.78125 55.8125 
Q 52.546875 55.8125 57.5625 48.34375 
Q 62.75 40.71875 60.15625 27.296875 
Q 57.515625 13.875 49.359375 6.25 
Q 41.453125 -1.21875 31.6875 -1.21875 
L 27.875 -20.796875 
L 18.953125 -20.796875 
L 22.75 -1.21875 
Q 13.03125 -1.21875 7.953125 6.25 
Q 2.78125 13.875 5.421875 27.296875 
Q 8.015625 40.71875 16.15625 48.34375 
Q 24.125 55.8125 33.84375 55.8125 
L 37.796875 75.984375 
z
M 33.25 6.78125 
Q 38.765625 6.78125 43.5 11.8125 
Q 48.6875 17.4375 50.6875 27.296875 
Q 52.640625 37.0625 49.515625 42.78125 
Q 46.734375 47.796875 41.21875 47.796875 
z
M 24.3125 6.78125 
L 32.28125 47.796875 
Q 26.8125 47.796875 22.078125 42.78125 
Q 16.75 37.0625 14.890625 27.296875 
Q 13.03125 17.4375 16.0625 11.8125 
Q 18.796875 6.78125 24.3125 6.78125 
z
" id="DejaVuSans-Oblique-981"/>
      </defs>
      <use transform="translate(0 0.015625)" xlink:href="#DejaVuSans-80"/>
      <use transform="translate(60.302734 0.015625)" xlink:href="#DejaVuSans-104"/>
      <use transform="translate(123.681641 0.015625)" xlink:href="#DejaVuSans-97"/>
      <use transform="translate(184.960938 0.015625)" xlink:href="#DejaVuSans-115"/>
      <use transform="translate(237.060547 0.015625)" xlink:href="#DejaVuSans-101"/>
      <use transform="translate(298.583984 0.015625)" xlink:href="#DejaVuSans-32"/>
      <use transform="translate(330.371094 0.015625)" xlink:href="#DejaVuSans-68"/>
      <use transform="translate(407.373047 0.015625)" xlink:href="#DejaVuSans-105"/>
      <use transform="translate(435.15625 0.015625)" xlink:href="#DejaVuSans-102"/>
      <use transform="translate(470.361328 0.015625)" xlink:href="#DejaVuSans-102"/>
      <use transform="translate(505.566406 0.015625)" xlink:href="#DejaVuSans-101"/>
      <use transform="translate(567.089844 0.015625)" xlink:href="#DejaVuSans-114"/>
      <use transform="translate(608.203125 0.015625)" xlink:href="#DejaVuSans-101"/>
      <use transform="translate(669.726562 0.015625)" xlink:href="#DejaVuSans-110"/>
      <use transform="translate(733.105469 0.015625)" xlink:href="#DejaVuSans-99"/>
      <use transform="translate(788.085938 0.015625)" xlink:href="#DejaVuSans-101"/>
      <use transform="translate(849.609375 0.015625)" xlink:href="#DejaVuSans-32"/>
      <use transform="translate(881.396484 0.015625)" xlink:href="#DejaVuSans-Oblique-981"/>
     </g>
    </g>
   </g>
   <g id="line2d_13">
    <path clip-path="url(#pdff5e54d1c)" d="M 378.089132 209.24 
L 378.089132 207.031912 
L 377.587937 201.457867 
L 377.086741 198.510981 
L 376.08435 194.371044 
L 375.081958 191.277886 
L 374.079567 188.750319 
L 372.57598 185.629605 
L 371.072393 183.062548 
L 369.568805 180.897576 
L 367.564023 178.279623 
L 366.060436 175.815753 
L 364.055653 172.997781 
L 362.05087 170.609015 
L 360.046087 168.572213 
L 357.540109 166.234219 
L 355.535326 163.933049 
L 353.530543 161.926996 
L 351.52576 160.179049 
L 349.019782 158.317779 
L 348.518586 157.978431 
L 346.012608 155.593447 
L 343.506629 153.553762 
L 341.000651 151.821468 
L 338.995868 150.486393 
L 336.48989 148.481238 
L 333.983911 146.757561 
L 331.477933 145.291216 
L 330.475491 144.683037 
L 327.969513 142.880009 
L 325.463534 141.323806 
L 322.957556 139.997998 
L 321.955164 139.401349 
L 319.449186 137.781696 
L 316.442012 136.128412 
L 313.434838 134.542266 
L 310.427663 132.830213 
L 307.420489 131.404287 
L 306.418098 130.909337 
L 303.410924 129.255774 
L 300.40375 127.874514 
L 298.900162 127.179886 
L 295.892988 125.642993 
L 292.885814 124.361759 
L 291.883423 123.907569 
L 288.876249 122.451856 
L 279.854676 118.638187 
L 278.351089 118.026009 
L 275.343915 116.724379 
L 257.30087 109.812344 
L 235.248259 102.293742 
L 232.742281 101.476802 
L 226.226687 99.442263 
L 223.720708 98.67501 
L 223.720708 98.67501 
" style="fill:none;stroke:#aa3863;stroke-dasharray:5.55,2.4;stroke-dashoffset:0;stroke-width:1.5;"/>
   </g>
   <g id="line2d_14">
    <path clip-path="url(#pdff5e54d1c)" d="M 378.089132 209.24 
L 378.089132 211.448088 
L 377.587937 217.022133 
L 377.086741 219.969019 
L 376.08435 224.108956 
L 375.081958 227.202114 
L 374.079567 229.729681 
L 372.57598 232.850395 
L 371.072393 235.417452 
L 369.568805 237.582424 
L 367.564023 240.200377 
L 366.060436 242.664247 
L 364.055653 245.482219 
L 362.05087 247.870985 
L 360.046087 249.907787 
L 357.540109 252.245781 
L 355.535326 254.546951 
L 353.530543 256.553004 
L 351.52576 258.300951 
L 349.019782 260.162221 
L 348.518586 260.501569 
L 346.012608 262.886553 
L 343.506629 264.926238 
L 341.000651 266.658532 
L 338.995868 267.993607 
L 336.48989 269.998762 
L 333.983911 271.722439 
L 331.477933 273.188784 
L 330.475491 273.796963 
L 327.969513 275.599991 
L 325.463534 277.156194 
L 322.957556 278.482002 
L 321.955164 279.078651 
L 319.449186 280.698304 
L 316.442012 282.351588 
L 313.434838 283.937734 
L 310.427663 285.649787 
L 307.420489 287.075713 
L 306.418098 287.570663 
L 303.410924 289.224226 
L 300.40375 290.605486 
L 298.900162 291.300114 
L 295.892988 292.837007 
L 292.885814 294.118241 
L 291.883423 294.572431 
L 288.876249 296.028144 
L 279.854676 299.841813 
L 278.351089 300.453991 
L 275.343915 301.755621 
L 257.30087 308.667656 
L 235.248259 316.186258 
L 232.742281 317.003198 
L 226.226687 319.037737 
L 223.720708 319.80499 
L 223.720708 319.80499 
" style="fill:none;stroke:#aa3863;stroke-dasharray:5.55,2.4;stroke-dashoffset:0;stroke-width:1.5;"/>
   </g>
   <g id="line2d_15">
    <path clip-path="url(#pdff5e54d1c)" d="M 362.05087 209.24 
L 362.05087 203.594477 
L 361.549674 200.669908 
L 360.547283 196.917024 
L 359.544892 194.278117 
L 359.043696 193.194267 
L 356.537717 186.016223 
L 355.03413 182.846596 
L 353.530543 180.264692 
L 352.026956 178.123432 
L 350.523369 176.337484 
L 349.520978 175.317394 
L 345.511412 169.482824 
L 343.506629 167.265964 
L 341.501847 165.450693 
L 339.998259 164.144258 
L 337.993477 161.756888 
L 335.988694 159.740419 
L 333.983911 158.0509 
L 330.976687 155.760176 
L 328.971904 153.815278 
L 326.967121 152.158988 
L 324.962339 150.767716 
L 322.957556 149.496276 
L 320.952773 147.75583 
L 318.94799 146.264843 
L 316.943207 145.007228 
L 314.938425 143.852644 
L 312.432446 141.940323 
L 309.926468 140.369645 
L 306.418098 138.324876 
L 303.912119 136.686843 
L 301.406141 135.35558 
L 299.902554 134.61269 
L 297.396575 132.998182 
L 294.890597 131.674824 
L 292.384618 130.436519 
L 289.87864 128.978636 
L 287.372661 127.792653 
L 285.869074 127.10909 
L 283.363096 125.708644 
L 280.857067 124.566954 
L 279.35348 123.926074 
L 276.847502 122.597941 
L 274.341523 121.517594 
L 272.837936 120.873676 
L 270.331958 119.631651 
L 267.825979 118.628237 
L 266.823588 118.204548 
L 264.317609 117.014009 
L 261.811631 116.054051 
L 260.80924 115.624876 
L 258.303261 114.499677 
L 241.763803 108.058508 
L 234.245868 105.370504 
L 231.739889 104.449044 
L 228.231469 103.225307 
L 221.715925 101.058289 
L 220.212338 100.549236 
L 217.205164 99.584443 
L 215.200381 98.899021 
L 209.186033 97.021602 
L 207.18125 96.377684 
L 201.166902 94.581847 
L 185.629835 90.066421 
L 185.629835 90.066421 
" style="fill:none;stroke:#d97020;stroke-dasharray:5.55,2.4;stroke-dashoffset:0;stroke-width:1.5;"/>
   </g>
   <g id="line2d_16">
    <path clip-path="url(#pdff5e54d1c)" d="M 362.05087 209.24 
L 362.05087 214.885523 
L 361.549674 217.810092 
L 360.547283 221.562976 
L 359.544892 224.201883 
L 359.043696 225.285733 
L 356.537717 232.463777 
L 355.03413 235.633404 
L 353.530543 238.215308 
L 352.026956 240.356568 
L 350.523369 242.142516 
L 349.520978 243.162606 
L 345.511412 248.997176 
L 343.506629 251.214036 
L 341.501847 253.029307 
L 339.998259 254.335742 
L 337.993477 256.723112 
L 335.988694 258.739581 
L 333.983911 260.4291 
L 330.976687 262.719824 
L 328.971904 264.664722 
L 326.967121 266.321012 
L 324.962339 267.712284 
L 322.957556 268.983724 
L 320.952773 270.72417 
L 318.94799 272.215157 
L 316.943207 273.472772 
L 314.938425 274.627356 
L 312.432446 276.539677 
L 309.926468 278.110355 
L 306.418098 280.155124 
L 303.912119 281.793157 
L 301.406141 283.12442 
L 299.902554 283.86731 
L 297.396575 285.481818 
L 294.890597 286.805176 
L 292.384618 288.043481 
L 289.87864 289.501364 
L 287.372661 290.687347 
L 285.869074 291.37091 
L 283.363096 292.771356 
L 280.857067 293.913046 
L 279.35348 294.553926 
L 276.847502 295.882059 
L 274.341523 296.962406 
L 272.837936 297.606324 
L 270.331958 298.848349 
L 267.825979 299.851763 
L 266.823588 300.275452 
L 264.317609 301.465991 
L 261.811631 302.425949 
L 260.80924 302.855124 
L 258.303261 303.980323 
L 241.763803 310.421492 
L 234.245868 313.109496 
L 231.739889 314.030956 
L 228.231469 315.254693 
L 221.715925 317.421711 
L 220.212338 317.930764 
L 217.205164 318.895557 
L 215.200381 319.580979 
L 209.186033 321.458398 
L 207.18125 322.102316 
L 201.166902 323.898153 
L 185.629835 328.413579 
L 185.629835 328.413579 
" style="fill:none;stroke:#d97020;stroke-dasharray:5.55,2.4;stroke-dashoffset:0;stroke-width:1.5;"/>
   </g>
   <g id="line2d_17">
    <path clip-path="url(#pdff5e54d1c)" d="M 344.007825 209.24 
L 344.007825 207.866768 
L 343.506629 201.66734 
L 343.005434 198.743918 
L 342.003042 194.820337 
L 341.000651 192.061691 
L 340.499455 190.944892 
L 339.497064 187.994844 
L 338.494672 185.615471 
L 337.492281 183.659693 
L 332.98152 176.131327 
L 331.477933 174.162624 
L 329.974296 171.908631 
L 328.470708 170.086261 
L 327.468317 169.027209 
L 325.96473 167.029648 
L 324.461143 165.393164 
L 322.957556 163.85311 
L 321.453969 162.157113 
L 319.950382 160.765903 
L 319.449186 160.365523 
L 317.444403 158.255507 
L 315.940816 156.979697 
L 315.43962 156.611987 
L 313.936033 155.104045 
L 312.432446 153.850831 
L 311.430055 153.106205 
L 309.926468 151.720079 
L 308.422881 150.570579 
L 307.420489 149.821304 
L 305.916902 148.550081 
L 300.904945 144.906985 
L 299.902554 144.20405 
L 297.897771 142.74939 
L 295.892988 141.400894 
L 293.888205 140.085222 
L 292.885814 139.455438 
L 290.881031 138.112923 
L 288.876249 136.861693 
L 286.871466 135.661328 
L 285.869074 135.045709 
L 283.864292 133.833224 
L 282.360704 132.9533 
L 280.355872 131.811766 
L 279.35348 131.243571 
L 277.348697 130.104207 
L 275.84511 129.269227 
L 273.840328 128.210174 
L 269.329566 125.785979 
L 264.818805 123.523772 
L 261.310435 121.804311 
L 259.305652 120.810133 
L 257.802065 120.085376 
L 253.7925 118.219426 
L 251.787717 117.291364 
L 238.255433 111.440025 
L 234.747063 110.019059 
L 231.238694 108.594497 
L 225.224295 106.264997 
L 220.713534 104.561405 
L 215.701577 102.715882 
L 208.183641 100.057758 
L 201.668097 97.834203 
L 197.157336 96.350624 
L 192.646575 94.881861 
L 188.135814 93.456214 
L 177.109458 90.101974 
L 165.581957 86.776777 
L 145.032934 81.267204 
L 145.032934 81.267204 
" style="fill:none;stroke:#ef9f07;stroke-dasharray:5.55,2.4;stroke-dashoffset:0;stroke-width:1.5;"/>
   </g>
   <g id="line2d_18">
    <path clip-path="url(#pdff5e54d1c)" d="M 344.007825 209.24 
L 344.007825 210.613232 
L 343.506629 216.81266 
L 343.005434 219.736082 
L 342.003042 223.659663 
L 341.000651 226.418309 
L 340.499455 227.535108 
L 339.497064 230.485156 
L 338.494672 232.864529 
L 337.492281 234.820307 
L 332.98152 242.348673 
L 331.477933 244.317376 
L 329.974296 246.571369 
L 328.470708 248.393739 
L 327.468317 249.452791 
L 325.96473 251.450352 
L 324.461143 253.086836 
L 322.957556 254.62689 
L 321.453969 256.322887 
L 319.950382 257.714097 
L 319.449186 258.114477 
L 317.444403 260.224493 
L 315.940816 261.500303 
L 315.43962 261.868013 
L 313.936033 263.375955 
L 312.432446 264.629169 
L 311.430055 265.373795 
L 309.926468 266.759921 
L 308.422881 267.909421 
L 307.420489 268.658696 
L 305.916902 269.929919 
L 300.904945 273.573015 
L 299.902554 274.27595 
L 297.897771 275.73061 
L 295.892988 277.079106 
L 293.888205 278.394778 
L 292.885814 279.024562 
L 290.881031 280.367077 
L 288.876249 281.618307 
L 286.871466 282.818672 
L 285.869074 283.434291 
L 283.864292 284.646776 
L 282.360704 285.5267 
L 280.355872 286.668234 
L 279.35348 287.236429 
L 277.348697 288.375793 
L 275.84511 289.210773 
L 273.840328 290.269826 
L 269.329566 292.694021 
L 264.818805 294.956228 
L 261.310435 296.675689 
L 259.305652 297.669867 
L 257.802065 298.394624 
L 253.7925 300.260574 
L 251.787717 301.188636 
L 238.255433 307.039975 
L 234.747063 308.460941 
L 231.238694 309.885503 
L 225.224295 312.215003 
L 220.713534 313.918595 
L 215.701577 315.764118 
L 208.183641 318.422242 
L 201.668097 320.645797 
L 197.157336 322.129376 
L 192.646575 323.598139 
L 188.135814 325.023786 
L 177.109458 328.378026 
L 165.581957 331.703223 
L 145.032934 337.212796 
L 145.032934 337.212796 
" style="fill:none;stroke:#ef9f07;stroke-dasharray:5.55,2.4;stroke-dashoffset:0;stroke-width:1.5;"/>
   </g>
   <g id="line2d_19">
    <path clip-path="url(#pdff5e54d1c)" d="M 324.461143 209.24 
L 324.461143 202.589916 
L 323.959947 199.804211 
L 323.458751 197.929923 
L 322.957556 196.557838 
L 321.955164 192.074586 
L 320.952773 188.877094 
L 319.950382 186.634414 
L 318.94799 185.082333 
L 317.444403 181.376656 
L 316.442012 179.516936 
L 315.43962 178.146742 
L 314.938425 177.624794 
L 313.434838 174.699295 
L 312.432446 173.223992 
L 311.430055 172.126225 
L 310.928859 171.640481 
L 309.926468 169.887916 
L 308.924076 168.500115 
L 307.921685 167.44221 
L 307.420489 167.029369 
L 306.418098 165.637353 
L 305.415706 164.321961 
L 304.413315 163.302986 
L 303.410924 162.514346 
L 302.408532 161.123942 
L 301.406141 160.013745 
L 300.40375 159.166459 
L 299.902554 158.83765 
L 297.897771 156.54956 
L 296.89538 155.740369 
L 296.394184 155.424175 
L 293.888205 152.913842 
L 292.384618 151.773951 
L 291.382227 150.733496 
L 290.379836 149.913053 
L 288.876249 148.808808 
L 287.372661 147.438334 
L 285.367879 145.988975 
L 283.864292 144.731174 
L 282.360704 143.778005 
L 280.857067 142.494414 
L 279.854676 141.876471 
L 279.35348 141.637148 
L 277.849893 140.354394 
L 276.847502 139.722967 
L 275.84511 139.109394 
L 274.341523 137.956237 
L 272.336741 136.686905 
L 270.833153 135.678159 
L 269.830762 135.165603 
L 268.327175 134.052214 
L 265.821196 132.510672 
L 264.317609 131.681023 
L 263.315218 131.036392 
L 261.811631 130.127888 
L 260.80924 129.615208 
L 259.305652 128.641953 
L 257.802065 127.855142 
L 256.298478 126.946948 
L 255.296087 126.495858 
L 253.7925 125.546626 
L 251.787717 124.475608 
L 250.28413 123.721312 
L 249.281739 123.156868 
L 247.778151 122.380626 
L 247.276956 122.19502 
L 245.773369 121.3022 
L 243.768586 120.293424 
L 240.260216 118.557782 
L 239.257825 118.108366 
L 237.754238 117.339904 
L 236.751846 116.893092 
L 235.248259 116.147815 
L 234.245868 115.695671 
L 232.742281 114.981081 
L 232.241085 114.810074 
L 230.737448 114.032034 
L 229.233861 113.35808 
L 226.226687 111.994736 
L 224.221904 111.108767 
L 201.668097 101.908427 
L 193.147771 98.761769 
L 190.641792 97.843378 
L 188.135814 96.974333 
L 185.629835 96.075252 
L 183.625052 95.400182 
L 177.610654 93.348502 
L 172.598697 91.70275 
L 169.090327 90.560782 
L 166.584349 89.762502 
L 161.572392 88.203416 
L 148.040108 84.168154 
L 136.512607 80.915767 
L 122.980273 77.290836 
L 101.930054 71.986335 
L 101.930054 71.986335 
" style="fill:none;stroke:#449775;stroke-dasharray:5.55,2.4;stroke-dashoffset:0;stroke-width:1.5;"/>
   </g>
   <g id="line2d_20">
    <path clip-path="url(#pdff5e54d1c)" d="M 324.461143 209.24 
L 324.461143 215.890084 
L 323.959947 218.675789 
L 323.458751 220.550077 
L 322.957556 221.922162 
L 321.955164 226.405414 
L 320.952773 229.602906 
L 319.950382 231.845586 
L 318.94799 233.397667 
L 317.444403 237.103344 
L 316.442012 238.963064 
L 315.43962 240.333258 
L 314.938425 240.855206 
L 313.434838 243.780705 
L 312.432446 245.256008 
L 311.430055 246.353775 
L 310.928859 246.839519 
L 309.926468 248.592084 
L 308.924076 249.979885 
L 307.921685 251.03779 
L 307.420489 251.450631 
L 306.418098 252.842647 
L 305.415706 254.158039 
L 304.413315 255.177014 
L 303.410924 255.965654 
L 302.408532 257.356058 
L 301.406141 258.466255 
L 300.40375 259.313541 
L 299.902554 259.64235 
L 297.897771 261.93044 
L 296.89538 262.739631 
L 296.394184 263.055825 
L 293.888205 265.566158 
L 292.384618 266.706049 
L 291.382227 267.746504 
L 290.379836 268.566947 
L 288.876249 269.671192 
L 287.372661 271.041666 
L 285.367879 272.491025 
L 283.864292 273.748826 
L 282.360704 274.701995 
L 280.857067 275.985586 
L 279.854676 276.603529 
L 279.35348 276.842852 
L 277.849893 278.125606 
L 276.847502 278.757033 
L 275.84511 279.370606 
L 274.341523 280.523763 
L 272.336741 281.793095 
L 270.833153 282.801841 
L 269.830762 283.314397 
L 268.327175 284.427786 
L 265.821196 285.969328 
L 264.317609 286.798977 
L 263.315218 287.443608 
L 261.811631 288.352112 
L 260.80924 288.864792 
L 259.305652 289.838047 
L 257.802065 290.624858 
L 256.298478 291.533052 
L 255.296087 291.984142 
L 253.7925 292.933374 
L 251.787717 294.004392 
L 250.28413 294.758688 
L 249.281739 295.323132 
L 247.778151 296.099374 
L 247.276956 296.28498 
L 245.773369 297.1778 
L 243.768586 298.186576 
L 240.260216 299.922218 
L 239.257825 300.371634 
L 237.754238 301.140096 
L 236.751846 301.586908 
L 235.248259 302.332185 
L 234.245868 302.784329 
L 232.742281 303.498919 
L 232.241085 303.669926 
L 230.737448 304.447966 
L 229.233861 305.12192 
L 226.226687 306.485264 
L 224.221904 307.371233 
L 201.668097 316.571573 
L 193.147771 319.718231 
L 190.641792 320.636622 
L 188.135814 321.505667 
L 185.629835 322.404748 
L 183.625052 323.079818 
L 177.610654 325.131498 
L 172.598697 326.77725 
L 169.090327 327.919218 
L 166.584349 328.717498 
L 161.572392 330.276584 
L 148.040108 334.311846 
L 136.512607 337.564233 
L 122.980273 341.189164 
L 101.930054 346.493665 
L 101.930054 346.493665 
" style="fill:none;stroke:#449775;stroke-dasharray:5.55,2.4;stroke-dashoffset:0;stroke-width:1.5;"/>
   </g>
   <g id="line2d_21">
    <path clip-path="url(#pdff5e54d1c)" d="M 303.243441 209.24 
L 303.243441 209.549964 
L 303.238434 209.859927 
L 303.22842 210.479855 
L 303.183358 211.719399 
L 303.023135 214.197558 
L 302.667642 217.289446 
L 302.141912 220.372034 
L 301.450953 223.441914 
L 300.594765 226.495986 
L 299.578354 229.53115 
L 298.406727 232.544306 
L 297.074879 235.532975 
L 295.597829 238.494678 
L 293.975577 241.426934 
L 292.21313 244.327884 
L 290.310489 247.195357 
L 288.277668 250.028425 
L 286.119672 252.825227 
L 283.84151 255.585763 
L 281.443181 258.307864 
L 278.929692 260.991219 
L 276.316064 263.634899 
L 273.592283 266.238283 
L 270.778377 268.801373 
L 267.864332 271.323547 
L 264.865169 273.805735 
L 261.780888 276.247009 
L 258.611489 278.647677 
L 255.366985 281.00836 
L 252.047377 283.329368 
L 248.657672 285.610701 
L 245.202877 287.853287 
L 241.682991 290.057129 
L 238.098015 292.222845 
L 234.457962 294.350745 
L 230.762833 296.44176 
L 227.012627 298.495889 
L 223.207345 300.514062 
L 219.362008 302.49659 
L 215.461594 304.444091 
L 211.526131 306.357497 
L 207.540599 308.236806 
L 203.520018 310.08295 
L 199.459382 311.896237 
L 195.35869 313.677598 
L 191.227956 315.427653 
L 187.062173 317.146711 
L 182.861342 318.835393 
L 178.63047 320.494628 
L 174.369555 322.124417 
L 170.083606 323.725999 
L 165.772622 325.299684 
L 161.431596 326.846093 
L 157.065536 328.365535 
L 152.679448 329.859249 
L 148.268325 331.327857 
L 143.837174 332.771668 
L 139.385996 334.191394 
L 134.919796 335.588121 
L 130.428562 336.962562 
L 125.927314 338.315615 
L 121.406038 339.648273 
L 116.869741 340.961651 
L 112.318424 342.257082 
L 107.757092 343.536023 
L 103.185747 344.800303 
L 98.609395 346.052091 
L 94.018022 347.294208 
L 89.426648 348.530219 
L 84.835275 349.765052 
L 80.248909 351.005651 
L 75.672557 352.26246 
L 71.116232 353.552343 
L 66.614984 354.905985 
L 62.213875 356.389006 
L 58.143225 358.190143 
L 56.551015 359.388121 
L 56.275632 359.736334 
L 55.890097 360.266093 
" style="fill:none;stroke:#3b7d86;stroke-dasharray:5.55,2.4;stroke-dashoffset:0;stroke-width:1.5;"/>
   </g>
   <g id="line2d_22">
    <path clip-path="url(#pdff5e54d1c)" d="M 303.243441 209.24 
L 303.243441 208.930036 
L 303.238434 208.620073 
L 303.22842 208.000145 
L 303.183358 206.760601 
L 303.023135 204.282442 
L 302.667642 201.190554 
L 302.141912 198.107966 
L 301.450953 195.038086 
L 300.594765 191.984014 
L 299.578354 188.94885 
L 298.406727 185.935694 
L 297.074879 182.947025 
L 295.597829 179.985322 
L 293.975577 177.053066 
L 292.21313 174.152116 
L 290.310489 171.284643 
L 288.277668 168.451575 
L 286.119672 165.654773 
L 283.84151 162.894237 
L 281.443181 160.172136 
L 278.929692 157.488781 
L 276.316064 154.845101 
L 273.592283 152.241717 
L 270.778377 149.678627 
L 267.864332 147.155833 
L 264.865169 144.673645 
L 261.775881 142.232061 
L 258.611489 139.830773 
L 255.366985 137.46947 
L 252.047377 135.148152 
L 248.657672 132.8662 
L 245.19787 130.623613 
L 241.677984 128.419462 
L 238.093008 126.253746 
L 234.452955 124.125845 
L 230.752819 122.034831 
L 227.002614 119.980702 
L 223.202338 117.962838 
L 219.351994 115.980311 
L 215.456587 114.032809 
L 211.516117 112.119404 
L 207.535592 110.240404 
L 203.510004 108.394261 
L 199.449368 106.580664 
L 195.353683 104.799303 
L 191.217942 103.049558 
L 187.05216 101.330499 
L 182.856335 99.641818 
L 178.625463 97.982892 
L 174.364548 96.352793 
L 170.078599 94.751521 
L 165.762608 93.177836 
L 161.426589 91.631427 
L 157.060529 90.111986 
L 152.674441 88.618271 
L 148.263318 87.149973 
L 143.832167 85.706162 
L 139.380989 84.286219 
L 134.909782 82.889523 
L 130.423555 81.515144 
L 125.9173 80.162153 
L 121.396024 78.829619 
L 116.859727 77.516303 
L 112.313417 76.220965 
L 107.752085 74.942055 
L 103.18074 73.677714 
L 98.599381 72.42577 
L 94.013015 71.183746 
L 89.421641 69.947921 
L 84.830268 68.713026 
L 80.238895 67.472242 
L 75.662543 66.215649 
L 71.111225 64.92558 
L 66.60497 63.571659 
L 62.208868 62.088173 
L 58.133211 60.286355 
L 56.52598 59.095784 
L 56.1805 58.719488 
L 55.845035 58.346912 
" style="fill:none;stroke:#3b7d86;stroke-dasharray:5.55,2.4;stroke-dashoffset:0;stroke-width:1.5;"/>
   </g>
   <g id="line2d_23">
    <path clip-path="url(#pdff5e54d1c)" d="M 556.515 209.24 
L 378.894851 209.24 
L 378.894851 209.24 
" style="fill:none;stroke:#000000;stroke-dasharray:5.55,2.4;stroke-dashoffset:0;stroke-width:1.5;"/>
   </g>
   <g id="line2d_24">
    <path clip-path="url(#pdff5e54d1c)" d="M 377.997755 209.24 
L 95.030777 209.24 
L 95.030777 209.24 
" style="fill:none;stroke:#000000;stroke-linecap:square;stroke-width:1.5;"/>
   </g>
   <g id="line2d_25">
    <path clip-path="url(#pdff5e54d1c)" d="M 93.601644 209.24 
L 55.82 209.24 
L 55.82 209.24 
" style="fill:none;stroke:#000000;stroke-linecap:square;stroke-width:1.5;"/>
   </g>
   <g id="line2d_26">
    <path clip-path="url(#pdff5e54d1c)" d="M 556.515 364.221818 
L 546.5011 364.221818 
L 541.49415 364.221818 
L 536.4872 364.221818 
L 531.48025 364.221818 
L 526.4733 364.221818 
L 521.46635 364.221818 
L 516.4594 364.221818 
L 511.45245 364.221818 
L 506.4455 364.221818 
L 501.43855 364.221818 
L 496.4316 364.221818 
L 491.42465 364.221818 
L 486.4177 364.221818 
L 481.41075 364.221818 
L 476.4038 364.221818 
L 471.39685 364.221818 
L 466.3899 364.221818 
L 461.38295 364.221818 
L 456.376 364.221818 
L 451.36905 364.221818 
L 446.3621 364.221818 
L 441.35515 364.221818 
L 436.3482 364.221818 
L 431.34125 364.221818 
L 426.3343 364.221818 
L 421.32735 364.221818 
L 416.3204 364.221818 
L 411.31345 364.221818 
L 406.3065 364.221818 
L 401.29955 364.221818 
L 396.2926 364.221818 
L 391.28565 364.221818 
L 386.2787 364.221818 
L 381.27175 364.221818 
L 376.2648 364.221818 
L 371.25785 364.221818 
L 366.2509 364.221818 
L 361.24395 364.221818 
L 356.237 364.221818 
L 351.23005 364.221818 
L 346.2231 364.221818 
L 341.21615 364.221818 
L 336.2092 364.221818 
L 331.20225 364.221818 
L 326.1953 364.221818 
L 321.18835 364.221818 
L 316.1814 364.221818 
L 311.17445 364.221818 
L 306.1675 364.221818 
L 301.16055 364.221818 
L 296.1536 364.221818 
L 291.14665 364.221818 
L 286.1397 364.221818 
L 281.13275 364.221818 
L 276.1258 364.221818 
L 271.11885 364.221818 
L 266.1119 364.221818 
L 261.10495 364.221818 
L 256.098 364.221818 
L 251.09105 364.221818 
L 246.0841 364.221818 
L 241.07715 364.221818 
L 236.0702 364.221818 
L 231.06325 364.221818 
L 226.0563 364.221818 
L 221.04935 364.221818 
L 216.0424 364.221818 
L 211.03545 364.221818 
L 206.0285 364.221818 
L 201.02155 364.221818 
L 196.0146 364.221818 
L 191.00765 364.221818 
L 186.0007 364.221818 
L 180.99375 364.221818 
L 175.9868 364.221818 
L 170.97985 364.221818 
L 165.9729 364.221818 
L 160.96595 364.221818 
L 155.959 364.221818 
L 150.95205 364.221818 
L 145.9451 364.221818 
L 140.93815 364.221818 
L 135.9312 364.221818 
L 130.92425 364.221818 
L 125.9173 364.221818 
L 120.91035 364.221818 
L 115.9034 364.221818 
L 110.89645 364.221818 
L 105.8895 364.221818 
L 100.88255 364.221818 
L 95.8756 364.221818 
L 90.86865 364.221818 
L 85.8617 364.221818 
L 80.85475 364.221818 
L 75.8478 364.221818 
L 70.84085 364.221818 
L 65.8339 364.221818 
L 60.82695 364.221818 
L 55.82 364.221818 
" style="fill:none;stroke:#000000;stroke-linecap:square;stroke-width:1.5;"/>
   </g>
   <g id="line2d_27">
    <path clip-path="url(#pdff5e54d1c)" d="M 556.515 54.258182 
L 546.5011 54.258182 
L 541.49415 54.258182 
L 536.4872 54.258182 
L 531.48025 54.258182 
L 526.4733 54.258182 
L 521.46635 54.258182 
L 516.4594 54.258182 
L 511.45245 54.258182 
L 506.4455 54.258182 
L 501.43855 54.258182 
L 496.4316 54.258182 
L 491.42465 54.258182 
L 486.4177 54.258182 
L 481.41075 54.258182 
L 476.4038 54.258182 
L 471.39685 54.258182 
L 466.3899 54.258182 
L 461.38295 54.258182 
L 456.376 54.258182 
L 451.36905 54.258182 
L 446.3621 54.258182 
L 441.35515 54.258182 
L 436.3482 54.258182 
L 431.34125 54.258182 
L 426.3343 54.258182 
L 421.32735 54.258182 
L 416.3204 54.258182 
L 411.31345 54.258182 
L 406.3065 54.258182 
L 401.29955 54.258182 
L 396.2926 54.258182 
L 391.28565 54.258182 
L 386.2787 54.258182 
L 381.27175 54.258182 
L 376.2648 54.258182 
L 371.25785 54.258182 
L 366.2509 54.258182 
L 361.24395 54.258182 
L 356.237 54.258182 
L 351.23005 54.258182 
L 346.2231 54.258182 
L 341.21615 54.258182 
L 336.2092 54.258182 
L 331.20225 54.258182 
L 326.1953 54.258182 
L 321.18835 54.258182 
L 316.1814 54.258182 
L 311.17445 54.258182 
L 306.1675 54.258182 
L 301.16055 54.258182 
L 296.1536 54.258182 
L 291.14665 54.258182 
L 286.1397 54.258182 
L 281.13275 54.258182 
L 276.1258 54.258182 
L 271.11885 54.258182 
L 266.1119 54.258182 
L 261.10495 54.258182 
L 256.098 54.258182 
L 251.09105 54.258182 
L 246.0841 54.258182 
L 241.07715 54.258182 
L 236.0702 54.258182 
L 231.06325 54.258182 
L 226.0563 54.258182 
L 221.04935 54.258182 
L 216.0424 54.258182 
L 211.03545 54.258182 
L 206.0285 54.258182 
L 201.02155 54.258182 
L 196.0146 54.258182 
L 191.00765 54.258182 
L 186.0007 54.258182 
L 180.99375 54.258182 
L 175.9868 54.258182 
L 170.97985 54.258182 
L 165.9729 54.258182 
L 160.96595 54.258182 
L 155.959 54.258182 
L 150.95205 54.258182 
L 145.9451 54.258182 
L 140.93815 54.258182 
L 135.9312 54.258182 
L 130.92425 54.258182 
L 125.9173 54.258182 
L 120.91035 54.258182 
L 115.9034 54.258182 
L 110.89645 54.258182 
L 105.8895 54.258182 
L 100.88255 54.258182 
L 95.8756 54.258182 
L 90.86865 54.258182 
L 85.8617 54.258182 
L 80.85475 54.258182 
L 75.8478 54.258182 
L 70.84085 54.258182 
L 65.8339 54.258182 
L 60.82695 54.258182 
L 55.82 54.258182 
" style="fill:none;stroke:#000000;stroke-linecap:square;stroke-width:1.5;"/>
   </g>
   <g id="patch_3">
    <path d="M 55.82 379.72 
L 55.82 38.76 
" style="fill:none;stroke:#000000;stroke-linecap:square;stroke-linejoin:miter;stroke-width:0.8;"/>
   </g>
   <g id="patch_4">
    <path d="M 556.515 379.72 
L 556.515 38.76 
" style="fill:none;stroke:#000000;stroke-linecap:square;stroke-linejoin:miter;stroke-width:0.8;"/>
   </g>
   <g id="patch_5">
    <path d="M 55.82 379.72 
L 556.515 379.72 
" style="fill:none;stroke:#000000;stroke-linecap:square;stroke-linejoin:miter;stroke-width:0.8;"/>
   </g>
   <g id="patch_6">
    <path d="M 55.82 38.76 
L 556.515 38.76 
" style="fill:none;stroke:#000000;stroke-linecap:square;stroke-linejoin:miter;stroke-width:0.8;"/>
   </g>
   <g id="text_15">
    <!-- Bifurcation diagram for two coupled neurons, $\beta=0.1$ -->
    <g transform="translate(94.1675 23.76)scale(0.16 -0.16)">
     <defs>
      <path d="M 19.671875 34.8125 
L 19.671875 8.109375 
L 35.5 8.109375 
Q 43.453125 8.109375 47.28125 11.40625 
Q 51.125 14.703125 51.125 21.484375 
Q 51.125 28.328125 47.28125 31.5625 
Q 43.453125 34.8125 35.5 34.8125 
z
M 19.671875 64.796875 
L 19.671875 42.828125 
L 34.28125 42.828125 
Q 41.5 42.828125 45.03125 45.53125 
Q 48.578125 48.25 48.578125 53.8125 
Q 48.578125 59.328125 45.03125 62.0625 
Q 41.5 64.796875 34.28125 64.796875 
z
M 9.8125 72.90625 
L 35.015625 72.90625 
Q 46.296875 72.90625 52.390625 68.21875 
Q 58.5 63.53125 58.5 54.890625 
Q 58.5 48.1875 55.375 44.234375 
Q 52.25 40.28125 46.1875 39.3125 
Q 53.46875 37.75 57.5 32.78125 
Q 61.53125 27.828125 61.53125 20.40625 
Q 61.53125 10.640625 54.890625 5.3125 
Q 48.25 0 35.984375 0 
L 9.8125 0 
z
" id="DejaVuSans-66"/>
      <path d="M 30.609375 48.390625 
Q 23.390625 48.390625 19.1875 42.75 
Q 14.984375 37.109375 14.984375 27.296875 
Q 14.984375 17.484375 19.15625 11.84375 
Q 23.34375 6.203125 30.609375 6.203125 
Q 37.796875 6.203125 41.984375 11.859375 
Q 46.1875 17.53125 46.1875 27.296875 
Q 46.1875 37.015625 41.984375 42.703125 
Q 37.796875 48.390625 30.609375 48.390625 
z
M 30.609375 56 
Q 42.328125 56 49.015625 48.375 
Q 55.71875 40.765625 55.71875 27.296875 
Q 55.71875 13.875 49.015625 6.21875 
Q 42.328125 -1.421875 30.609375 -1.421875 
Q 18.84375 -1.421875 12.171875 6.21875 
Q 5.515625 13.875 5.515625 27.296875 
Q 5.515625 40.765625 12.171875 48.375 
Q 18.84375 56 30.609375 56 
z
" id="DejaVuSans-111"/>
      <path d="M 45.40625 46.390625 
L 45.40625 75.984375 
L 54.390625 75.984375 
L 54.390625 0 
L 45.40625 0 
L 45.40625 8.203125 
Q 42.578125 3.328125 38.25 0.953125 
Q 33.9375 -1.421875 27.875 -1.421875 
Q 17.96875 -1.421875 11.734375 6.484375 
Q 5.515625 14.40625 5.515625 27.296875 
Q 5.515625 40.1875 11.734375 48.09375 
Q 17.96875 56 27.875 56 
Q 33.9375 56 38.25 53.625 
Q 42.578125 51.265625 45.40625 46.390625 
z
M 14.796875 27.296875 
Q 14.796875 17.390625 18.875 11.75 
Q 22.953125 6.109375 30.078125 6.109375 
Q 37.203125 6.109375 41.296875 11.75 
Q 45.40625 17.390625 45.40625 27.296875 
Q 45.40625 37.203125 41.296875 42.84375 
Q 37.203125 48.484375 30.078125 48.484375 
Q 22.953125 48.484375 18.875 42.84375 
Q 14.796875 37.203125 14.796875 27.296875 
z
" id="DejaVuSans-100"/>
      <path d="M 45.40625 27.984375 
Q 45.40625 37.75 41.375 43.109375 
Q 37.359375 48.484375 30.078125 48.484375 
Q 22.859375 48.484375 18.828125 43.109375 
Q 14.796875 37.75 14.796875 27.984375 
Q 14.796875 18.265625 18.828125 12.890625 
Q 22.859375 7.515625 30.078125 7.515625 
Q 37.359375 7.515625 41.375 12.890625 
Q 45.40625 18.265625 45.40625 27.984375 
z
M 54.390625 6.78125 
Q 54.390625 -7.171875 48.1875 -13.984375 
Q 42 -20.796875 29.203125 -20.796875 
Q 24.46875 -20.796875 20.265625 -20.09375 
Q 16.0625 -19.390625 12.109375 -17.921875 
L 12.109375 -9.1875 
Q 16.0625 -11.328125 19.921875 -12.34375 
Q 23.78125 -13.375 27.78125 -13.375 
Q 36.625 -13.375 41.015625 -8.765625 
Q 45.40625 -4.15625 45.40625 5.171875 
L 45.40625 9.625 
Q 42.625 4.78125 38.28125 2.390625 
Q 33.9375 0 27.875 0 
Q 17.828125 0 11.671875 7.65625 
Q 5.515625 15.328125 5.515625 27.984375 
Q 5.515625 40.671875 11.671875 48.328125 
Q 17.828125 56 27.875 56 
Q 33.9375 56 38.28125 53.609375 
Q 42.625 51.21875 45.40625 46.390625 
L 45.40625 54.6875 
L 54.390625 54.6875 
z
" id="DejaVuSans-103"/>
      <path d="M 52 44.1875 
Q 55.375 50.25 60.0625 53.125 
Q 64.75 56 71.09375 56 
Q 79.640625 56 84.28125 50.015625 
Q 88.921875 44.046875 88.921875 33.015625 
L 88.921875 0 
L 79.890625 0 
L 79.890625 32.71875 
Q 79.890625 40.578125 77.09375 44.375 
Q 74.3125 48.1875 68.609375 48.1875 
Q 61.625 48.1875 57.5625 43.546875 
Q 53.515625 38.921875 53.515625 30.90625 
L 53.515625 0 
L 44.484375 0 
L 44.484375 32.71875 
Q 44.484375 40.625 41.703125 44.40625 
Q 38.921875 48.1875 33.109375 48.1875 
Q 26.21875 48.1875 22.15625 43.53125 
Q 18.109375 38.875 18.109375 30.90625 
L 18.109375 0 
L 9.078125 0 
L 9.078125 54.6875 
L 18.109375 54.6875 
L 18.109375 46.1875 
Q 21.1875 51.21875 25.484375 53.609375 
Q 29.78125 56 35.6875 56 
Q 41.65625 56 45.828125 52.96875 
Q 50 49.953125 52 44.1875 
z
" id="DejaVuSans-109"/>
      <path d="M 4.203125 54.6875 
L 13.1875 54.6875 
L 24.421875 12.015625 
L 35.59375 54.6875 
L 46.1875 54.6875 
L 57.421875 12.015625 
L 68.609375 54.6875 
L 77.59375 54.6875 
L 63.28125 0 
L 52.6875 0 
L 40.921875 44.828125 
L 29.109375 0 
L 18.5 0 
z
" id="DejaVuSans-119"/>
      <path d="M 18.109375 8.203125 
L 18.109375 -20.796875 
L 9.078125 -20.796875 
L 9.078125 54.6875 
L 18.109375 54.6875 
L 18.109375 46.390625 
Q 20.953125 51.265625 25.265625 53.625 
Q 29.59375 56 35.59375 56 
Q 45.5625 56 51.78125 48.09375 
Q 58.015625 40.1875 58.015625 27.296875 
Q 58.015625 14.40625 51.78125 6.484375 
Q 45.5625 -1.421875 35.59375 -1.421875 
Q 29.59375 -1.421875 25.265625 0.953125 
Q 20.953125 3.328125 18.109375 8.203125 
z
M 48.6875 27.296875 
Q 48.6875 37.203125 44.609375 42.84375 
Q 40.53125 48.484375 33.40625 48.484375 
Q 26.265625 48.484375 22.1875 42.84375 
Q 18.109375 37.203125 18.109375 27.296875 
Q 18.109375 17.390625 22.1875 11.75 
Q 26.265625 6.109375 33.40625 6.109375 
Q 40.53125 6.109375 44.609375 11.75 
Q 48.6875 17.390625 48.6875 27.296875 
z
" id="DejaVuSans-112"/>
      <path d="M 9.421875 75.984375 
L 18.40625 75.984375 
L 18.40625 0 
L 9.421875 0 
z
" id="DejaVuSans-108"/>
      <path d="M 11.71875 12.40625 
L 22.015625 12.40625 
L 22.015625 4 
L 14.015625 -11.625 
L 7.71875 -11.625 
L 11.71875 4 
z
" id="DejaVuSans-44"/>
      <path d="M 13.625 3.375 
L 8.9375 -20.796875 
L -0.09375 -20.796875 
L 14.5 54.34375 
Q 18.84375 76.609375 39.65625 76.609375 
Q 60.75 76.609375 57.171875 57.8125 
Q 54.734375 44.4375 45.21875 39.546875 
Q 58.015625 35.15625 55.515625 22.125 
Q 51.125 -1.078125 27.484375 -1.03125 
Q 17.140625 -0.984375 13.625 3.375 
z
M 15.921875 15.09375 
Q 19.671875 6.59375 29.296875 6.640625 
Q 43.359375 6.640625 46.34375 21.96875 
Q 49.03125 35.75 26.171875 34.671875 
L 27.78125 42.96875 
Q 45.453125 42.671875 48.53125 58.59375 
Q 50.640625 69.34375 39.203125 69.28125 
Q 26.421875 69.28125 23.484375 54.046875 
z
" id="DejaVuSans-Oblique-946"/>
      <path d="M 10.59375 45.40625 
L 73.1875 45.40625 
L 73.1875 37.203125 
L 10.59375 37.203125 
z
M 10.59375 25.484375 
L 73.1875 25.484375 
L 73.1875 17.1875 
L 10.59375 17.1875 
z
" id="DejaVuSans-61"/>
     </defs>
     <use transform="translate(0 0.390625)" xlink:href="#DejaVuSans-66"/>
     <use transform="translate(68.603516 0.390625)" xlink:href="#DejaVuSans-105"/>
     <use transform="translate(96.386719 0.390625)" xlink:href="#DejaVuSans-102"/>
     <use transform="translate(131.591797 0.390625)" xlink:href="#DejaVuSans-117"/>
     <use transform="translate(194.970703 0.390625)" xlink:href="#DejaVuSans-114"/>
     <use transform="translate(236.083984 0.390625)" xlink:href="#DejaVuSans-99"/>
     <use transform="translate(291.064453 0.390625)" xlink:href="#DejaVuSans-97"/>
     <use transform="translate(352.34375 0.390625)" xlink:href="#DejaVuSans-116"/>
     <use transform="translate(391.552734 0.390625)" xlink:href="#DejaVuSans-105"/>
     <use transform="translate(419.335938 0.390625)" xlink:href="#DejaVuSans-111"/>
     <use transform="translate(480.517578 0.390625)" xlink:href="#DejaVuSans-110"/>
     <use transform="translate(543.896484 0.390625)" xlink:href="#DejaVuSans-32"/>
     <use transform="translate(575.683594 0.390625)" xlink:href="#DejaVuSans-100"/>
     <use transform="translate(639.160156 0.390625)" xlink:href="#DejaVuSans-105"/>
     <use transform="translate(666.943359 0.390625)" xlink:href="#DejaVuSans-97"/>
     <use transform="translate(728.222656 0.390625)" xlink:href="#DejaVuSans-103"/>
     <use transform="translate(791.699219 0.390625)" xlink:href="#DejaVuSans-114"/>
     <use transform="translate(832.8125 0.390625)" xlink:href="#DejaVuSans-97"/>
     <use transform="translate(894.091797 0.390625)" xlink:href="#DejaVuSans-109"/>
     <use transform="translate(991.503906 0.390625)" xlink:href="#DejaVuSans-32"/>
     <use transform="translate(1023.291016 0.390625)" xlink:href="#DejaVuSans-102"/>
     <use transform="translate(1058.496094 0.390625)" xlink:href="#DejaVuSans-111"/>
     <use transform="translate(1119.677734 0.390625)" xlink:href="#DejaVuSans-114"/>
     <use transform="translate(1160.791016 0.390625)" xlink:href="#DejaVuSans-32"/>
     <use transform="translate(1192.578125 0.390625)" xlink:href="#DejaVuSans-116"/>
     <use transform="translate(1231.787109 0.390625)" xlink:href="#DejaVuSans-119"/>
     <use transform="translate(1313.574219 0.390625)" xlink:href="#DejaVuSans-111"/>
     <use transform="translate(1374.755859 0.390625)" xlink:href="#DejaVuSans-32"/>
     <use transform="translate(1406.542969 0.390625)" xlink:href="#DejaVuSans-99"/>
     <use transform="translate(1461.523438 0.390625)" xlink:href="#DejaVuSans-111"/>
     <use transform="translate(1522.705078 0.390625)" xlink:href="#DejaVuSans-117"/>
     <use transform="translate(1586.083984 0.390625)" xlink:href="#DejaVuSans-112"/>
     <use transform="translate(1649.560547 0.390625)" xlink:href="#DejaVuSans-108"/>
     <use transform="translate(1677.34375 0.390625)" xlink:href="#DejaVuSans-101"/>
     <use transform="translate(1738.867188 0.390625)" xlink:href="#DejaVuSans-100"/>
     <use transform="translate(1802.34375 0.390625)" xlink:href="#DejaVuSans-32"/>
     <use transform="translate(1834.130859 0.390625)" xlink:href="#DejaVuSans-110"/>
     <use transform="translate(1897.509766 0.390625)" xlink:href="#DejaVuSans-101"/>
     <use transform="translate(1959.033203 0.390625)" xlink:href="#DejaVuSans-117"/>
     <use transform="translate(2022.412109 0.390625)" xlink:href="#DejaVuSans-114"/>
     <use transform="translate(2063.525391 0.390625)" xlink:href="#DejaVuSans-111"/>
     <use transform="translate(2124.707031 0.390625)" xlink:href="#DejaVuSans-110"/>
     <use transform="translate(2188.085938 0.390625)" xlink:href="#DejaVuSans-115"/>
     <use transform="translate(2240.185547 0.390625)" xlink:href="#DejaVuSans-44"/>
     <use transform="translate(2271.972656 0.390625)" xlink:href="#DejaVuSans-32"/>
     <use transform="translate(2303.759766 0.390625)" xlink:href="#DejaVuSans-Oblique-946"/>
     <use transform="translate(2387.060547 0.390625)" xlink:href="#DejaVuSans-61"/>
     <use transform="translate(2490.332031 0.390625)" xlink:href="#DejaVuSans-48"/>
     <use transform="translate(2553.955078 0.390625)" xlink:href="#DejaVuSans-46"/>
     <use transform="translate(2585.742188 0.390625)" xlink:href="#DejaVuSans-49"/>
    </g>
   </g>
   <g id="legend_1">
    <g id="patch_7">
     <path d="M 474.675 145.451125 
L 548.815 145.451125 
Q 551.015 145.451125 551.015 143.251125 
L 551.015 63.508 
Q 551.015 61.308 548.815 61.308 
L 474.675 61.308 
Q 472.475 61.308 472.475 63.508 
L 472.475 143.251125 
Q 472.475 145.451125 474.675 145.451125 
z
" style="fill:#ffffff;opacity:0.8;stroke:#cccccc;stroke-linejoin:miter;"/>
    </g>
    <g id="line2d_28">
     <path d="M 476.875 70.216281 
L 498.875 70.216281 
" style="fill:none;stroke:#aa3863;stroke-dasharray:5.55,2.4;stroke-dashoffset:0;stroke-width:1.5;"/>
    </g>
    <g id="line2d_29"/>
    <g id="text_16">
     <!-- $\gamma = 0.4$ -->
     <g transform="translate(507.675 74.066281)scale(0.11 -0.11)">
      <defs>
       <path d="M 23.296875 46.09375 
L 28.71875 12.3125 
L 54 54.6875 
L 63.53125 54.6875 
L 30.8125 0 
L 26.765625 -20.796875 
L 17.78125 -20.796875 
L 21.828125 0 
L 15.4375 40.828125 
Q 14.453125 46.96875 9.8125 46.96875 
L 7.421875 46.96875 
L 8.890625 54.6875 
L 12.3125 54.6875 
Q 21.921875 54.6875 23.296875 46.09375 
z
" id="DejaVuSans-Oblique-947"/>
      </defs>
      <use transform="translate(0 0.78125)" xlink:href="#DejaVuSans-Oblique-947"/>
      <use transform="translate(78.662109 0.78125)" xlink:href="#DejaVuSans-61"/>
      <use transform="translate(181.933594 0.78125)" xlink:href="#DejaVuSans-48"/>
      <use transform="translate(245.556641 0.78125)" xlink:href="#DejaVuSans-46"/>
      <use transform="translate(277.34375 0.78125)" xlink:href="#DejaVuSans-52"/>
     </g>
    </g>
    <g id="line2d_30">
     <path d="M 476.875 86.384562 
L 498.875 86.384562 
" style="fill:none;stroke:#d97020;stroke-dasharray:5.55,2.4;stroke-dashoffset:0;stroke-width:1.5;"/>
    </g>
    <g id="line2d_31"/>
    <g id="text_17">
     <!-- $\gamma = 0.3$ -->
     <g transform="translate(507.675 90.234562)scale(0.11 -0.11)">
      <defs>
       <path d="M 40.578125 39.3125 
Q 47.65625 37.796875 51.625 33 
Q 55.609375 28.21875 55.609375 21.1875 
Q 55.609375 10.40625 48.1875 4.484375 
Q 40.765625 -1.421875 27.09375 -1.421875 
Q 22.515625 -1.421875 17.65625 -0.515625 
Q 12.796875 0.390625 7.625 2.203125 
L 7.625 11.71875 
Q 11.71875 9.328125 16.59375 8.109375 
Q 21.484375 6.890625 26.8125 6.890625 
Q 36.078125 6.890625 40.9375 10.546875 
Q 45.796875 14.203125 45.796875 21.1875 
Q 45.796875 27.640625 41.28125 31.265625 
Q 36.765625 34.90625 28.71875 34.90625 
L 20.21875 34.90625 
L 20.21875 43.015625 
L 29.109375 43.015625 
Q 36.375 43.015625 40.234375 45.921875 
Q 44.09375 48.828125 44.09375 54.296875 
Q 44.09375 59.90625 40.109375 62.90625 
Q 36.140625 65.921875 28.71875 65.921875 
Q 24.65625 65.921875 20.015625 65.03125 
Q 15.375 64.15625 9.8125 62.3125 
L 9.8125 71.09375 
Q 15.4375 72.65625 20.34375 73.4375 
Q 25.25 74.21875 29.59375 74.21875 
Q 40.828125 74.21875 47.359375 69.109375 
Q 53.90625 64.015625 53.90625 55.328125 
Q 53.90625 49.265625 50.4375 45.09375 
Q 46.96875 40.921875 40.578125 39.3125 
z
" id="DejaVuSans-51"/>
      </defs>
      <use transform="translate(0 0.78125)" xlink:href="#DejaVuSans-Oblique-947"/>
      <use transform="translate(78.662109 0.78125)" xlink:href="#DejaVuSans-61"/>
      <use transform="translate(181.933594 0.78125)" xlink:href="#DejaVuSans-48"/>
      <use transform="translate(245.556641 0.78125)" xlink:href="#DejaVuSans-46"/>
      <use transform="translate(277.34375 0.78125)" xlink:href="#DejaVuSans-51"/>
     </g>
    </g>
    <g id="line2d_32">
     <path d="M 476.875 102.552844 
L 498.875 102.552844 
" style="fill:none;stroke:#ef9f07;stroke-dasharray:5.55,2.4;stroke-dashoffset:0;stroke-width:1.5;"/>
    </g>
    <g id="line2d_33"/>
    <g id="text_18">
     <!-- $\gamma = 0.2$ -->
     <g transform="translate(507.675 106.402844)scale(0.11 -0.11)">
      <use transform="translate(0 0.78125)" xlink:href="#DejaVuSans-Oblique-947"/>
      <use transform="translate(78.662109 0.78125)" xlink:href="#DejaVuSans-61"/>
      <use transform="translate(181.933594 0.78125)" xlink:href="#DejaVuSans-48"/>
      <use transform="translate(245.556641 0.78125)" xlink:href="#DejaVuSans-46"/>
      <use transform="translate(271.84375 0.78125)" xlink:href="#DejaVuSans-50"/>
     </g>
    </g>
    <g id="line2d_34">
     <path d="M 476.875 118.721125 
L 498.875 118.721125 
" style="fill:none;stroke:#449775;stroke-dasharray:5.55,2.4;stroke-dashoffset:0;stroke-width:1.5;"/>
    </g>
    <g id="line2d_35"/>
    <g id="text_19">
     <!-- $\gamma = 0.1$ -->
     <g transform="translate(507.675 122.571125)scale(0.11 -0.11)">
      <use transform="translate(0 0.78125)" xlink:href="#DejaVuSans-Oblique-947"/>
      <use transform="translate(78.662109 0.78125)" xlink:href="#DejaVuSans-61"/>
      <use transform="translate(181.933594 0.78125)" xlink:href="#DejaVuSans-48"/>
      <use transform="translate(245.556641 0.78125)" xlink:href="#DejaVuSans-46"/>
      <use transform="translate(277.34375 0.78125)" xlink:href="#DejaVuSans-49"/>
     </g>
    </g>
    <g id="line2d_36">
     <path d="M 476.875 134.891125 
L 498.875 134.891125 
" style="fill:none;stroke:#3b7d86;stroke-dasharray:5.55,2.4;stroke-dashoffset:0;stroke-width:1.5;"/>
    </g>
    <g id="line2d_37"/>
    <g id="text_20">
     <!-- $\gamma$ weak -->
     <g transform="translate(507.675 138.741125)scale(0.11 -0.11)">
      <defs>
       <path d="M 9.078125 75.984375 
L 18.109375 75.984375 
L 18.109375 31.109375 
L 44.921875 54.6875 
L 56.390625 54.6875 
L 27.390625 29.109375 
L 57.625 0 
L 45.90625 0 
L 18.109375 26.703125 
L 18.109375 0 
L 9.078125 0 
z
" id="DejaVuSans-107"/>
      </defs>
      <use transform="translate(0 0.015625)" xlink:href="#DejaVuSans-Oblique-947"/>
      <use transform="translate(59.179688 0.015625)" xlink:href="#DejaVuSans-32"/>
      <use transform="translate(90.966797 0.015625)" xlink:href="#DejaVuSans-119"/>
      <use transform="translate(172.753906 0.015625)" xlink:href="#DejaVuSans-101"/>
      <use transform="translate(234.277344 0.015625)" xlink:href="#DejaVuSans-97"/>
      <use transform="translate(295.556641 0.015625)" xlink:href="#DejaVuSans-107"/>
     </g>
    </g>
   </g>
  </g>
 </g>
 <defs>
  <clipPath id="pdff5e54d1c">
   <rect height="340.96" width="500.695" x="55.82" y="38.76"/>
  </clipPath>
 </defs>
</svg>
