<?xml version="1.0" encoding="utf-8" standalone="no"?>
<!DOCTYPE svg PUBLIC "-//W3C//DTD SVG 1.1//EN"
  "http://www.w3.org/Graphics/SVG/1.1/DTD/svg11.dtd">
<!-- Created with matplotlib (https://matplotlib.org/) -->
<svg height="360pt" version="1.1" viewBox="0 0 576 360" width="576pt" xmlns="http://www.w3.org/2000/svg" xmlns:xlink="http://www.w3.org/1999/xlink">
 <metadata>
  <rdf:RDF xmlns:cc="http://creativecommons.org/ns#" xmlns:dc="http://purl.org/dc/elements/1.1/" xmlns:rdf="http://www.w3.org/1999/02/22-rdf-syntax-ns#">
   <cc:Work>
    <dc:type rdf:resource="http://purl.org/dc/dcmitype/StillImage"/>
    <dc:date>2021-05-09T21:14:04.824657</dc:date>
    <dc:format>image/svg+xml</dc:format>
    <dc:creator>
     <cc:Agent>
      <dc:title>Matplotlib v3.3.3, https://matplotlib.org/</dc:title>
     </cc:Agent>
    </dc:creator>
   </cc:Work>
  </rdf:RDF>
 </metadata>
 <defs>
  <style type="text/css">*{stroke-linecap:butt;stroke-linejoin:round;}</style>
 </defs>
 <g id="figure_1">
  <g id="patch_1">
   <path d="M 0 360 
L 576 360 
L 576 0 
L 0 0 
z
" style="fill:#ffffff;"/>
  </g>
  <g id="axes_1">
   <g id="patch_2">
    <path d="M 78.750313 314.941875 
L 565.2 314.941875 
L 565.2 29.12 
L 78.750313 29.12 
z
" style="fill:#ffffff;"/>
   </g>
   <g id="matplotlib.axis_1">
    <g id="xtick_1">
     <g id="line2d_1">
      <defs>
       <path d="M 0 0 
L 0 3.5 
" id="mcd6545282e" style="stroke:#000000;stroke-width:0.8;"/>
      </defs>
      <g>
       <use style="stroke:#000000;stroke-width:0.8;" x="100.861662" xlink:href="#mcd6545282e" y="314.941875"/>
      </g>
     </g>
     <g id="text_1">
      <!-- 0.0 -->
      <g transform="translate(92.910099 329.540312)scale(0.1 -0.1)">
       <defs>
        <path d="M 31.78125 66.40625 
Q 24.171875 66.40625 20.328125 58.90625 
Q 16.5 51.421875 16.5 36.375 
Q 16.5 21.390625 20.328125 13.890625 
Q 24.171875 6.390625 31.78125 6.390625 
Q 39.453125 6.390625 43.28125 13.890625 
Q 47.125 21.390625 47.125 36.375 
Q 47.125 51.421875 43.28125 58.90625 
Q 39.453125 66.40625 31.78125 66.40625 
z
M 31.78125 74.21875 
Q 44.046875 74.21875 50.515625 64.515625 
Q 56.984375 54.828125 56.984375 36.375 
Q 56.984375 17.96875 50.515625 8.265625 
Q 44.046875 -1.421875 31.78125 -1.421875 
Q 19.53125 -1.421875 13.0625 8.265625 
Q 6.59375 17.96875 6.59375 36.375 
Q 6.59375 54.828125 13.0625 64.515625 
Q 19.53125 74.21875 31.78125 74.21875 
z
" id="DejaVuSans-48"/>
        <path d="M 10.6875 12.40625 
L 21 12.40625 
L 21 0 
L 10.6875 0 
z
" id="DejaVuSans-46"/>
       </defs>
       <use xlink:href="#DejaVuSans-48"/>
       <use x="63.623047" xlink:href="#DejaVuSans-46"/>
       <use x="95.410156" xlink:href="#DejaVuSans-48"/>
      </g>
     </g>
    </g>
    <g id="xtick_2">
     <g id="line2d_2">
      <g>
       <use style="stroke:#000000;stroke-width:0.8;" x="189.30706" xlink:href="#mcd6545282e" y="314.941875"/>
      </g>
     </g>
     <g id="text_2">
      <!-- 0.2 -->
      <g transform="translate(181.355497 329.540312)scale(0.1 -0.1)">
       <defs>
        <path d="M 19.1875 8.296875 
L 53.609375 8.296875 
L 53.609375 0 
L 7.328125 0 
L 7.328125 8.296875 
Q 12.9375 14.109375 22.625 23.890625 
Q 32.328125 33.6875 34.8125 36.53125 
Q 39.546875 41.84375 41.421875 45.53125 
Q 43.3125 49.21875 43.3125 52.78125 
Q 43.3125 58.59375 39.234375 62.25 
Q 35.15625 65.921875 28.609375 65.921875 
Q 23.96875 65.921875 18.8125 64.3125 
Q 13.671875 62.703125 7.8125 59.421875 
L 7.8125 69.390625 
Q 13.765625 71.78125 18.9375 73 
Q 24.125 74.21875 28.421875 74.21875 
Q 39.75 74.21875 46.484375 68.546875 
Q 53.21875 62.890625 53.21875 53.421875 
Q 53.21875 48.921875 51.53125 44.890625 
Q 49.859375 40.875 45.40625 35.40625 
Q 44.1875 33.984375 37.640625 27.21875 
Q 31.109375 20.453125 19.1875 8.296875 
z
" id="DejaVuSans-50"/>
       </defs>
       <use xlink:href="#DejaVuSans-48"/>
       <use x="63.623047" xlink:href="#DejaVuSans-46"/>
       <use x="95.410156" xlink:href="#DejaVuSans-50"/>
      </g>
     </g>
    </g>
    <g id="xtick_3">
     <g id="line2d_3">
      <g>
       <use style="stroke:#000000;stroke-width:0.8;" x="277.752457" xlink:href="#mcd6545282e" y="314.941875"/>
      </g>
     </g>
     <g id="text_3">
      <!-- 0.4 -->
      <g transform="translate(269.800895 329.540312)scale(0.1 -0.1)">
       <defs>
        <path d="M 37.796875 64.3125 
L 12.890625 25.390625 
L 37.796875 25.390625 
z
M 35.203125 72.90625 
L 47.609375 72.90625 
L 47.609375 25.390625 
L 58.015625 25.390625 
L 58.015625 17.1875 
L 47.609375 17.1875 
L 47.609375 0 
L 37.796875 0 
L 37.796875 17.1875 
L 4.890625 17.1875 
L 4.890625 26.703125 
z
" id="DejaVuSans-52"/>
       </defs>
       <use xlink:href="#DejaVuSans-48"/>
       <use x="63.623047" xlink:href="#DejaVuSans-46"/>
       <use x="95.410156" xlink:href="#DejaVuSans-52"/>
      </g>
     </g>
    </g>
    <g id="xtick_4">
     <g id="line2d_4">
      <g>
       <use style="stroke:#000000;stroke-width:0.8;" x="366.197855" xlink:href="#mcd6545282e" y="314.941875"/>
      </g>
     </g>
     <g id="text_4">
      <!-- 0.6 -->
      <g transform="translate(358.246293 329.540312)scale(0.1 -0.1)">
       <defs>
        <path d="M 33.015625 40.375 
Q 26.375 40.375 22.484375 35.828125 
Q 18.609375 31.296875 18.609375 23.390625 
Q 18.609375 15.53125 22.484375 10.953125 
Q 26.375 6.390625 33.015625 6.390625 
Q 39.65625 6.390625 43.53125 10.953125 
Q 47.40625 15.53125 47.40625 23.390625 
Q 47.40625 31.296875 43.53125 35.828125 
Q 39.65625 40.375 33.015625 40.375 
z
M 52.59375 71.296875 
L 52.59375 62.3125 
Q 48.875 64.0625 45.09375 64.984375 
Q 41.3125 65.921875 37.59375 65.921875 
Q 27.828125 65.921875 22.671875 59.328125 
Q 17.53125 52.734375 16.796875 39.40625 
Q 19.671875 43.65625 24.015625 45.921875 
Q 28.375 48.1875 33.59375 48.1875 
Q 44.578125 48.1875 50.953125 41.515625 
Q 57.328125 34.859375 57.328125 23.390625 
Q 57.328125 12.15625 50.6875 5.359375 
Q 44.046875 -1.421875 33.015625 -1.421875 
Q 20.359375 -1.421875 13.671875 8.265625 
Q 6.984375 17.96875 6.984375 36.375 
Q 6.984375 53.65625 15.1875 63.9375 
Q 23.390625 74.21875 37.203125 74.21875 
Q 40.921875 74.21875 44.703125 73.484375 
Q 48.484375 72.75 52.59375 71.296875 
z
" id="DejaVuSans-54"/>
       </defs>
       <use xlink:href="#DejaVuSans-48"/>
       <use x="63.623047" xlink:href="#DejaVuSans-46"/>
       <use x="95.410156" xlink:href="#DejaVuSans-54"/>
      </g>
     </g>
    </g>
    <g id="xtick_5">
     <g id="line2d_5">
      <g>
       <use style="stroke:#000000;stroke-width:0.8;" x="454.643253" xlink:href="#mcd6545282e" y="314.941875"/>
      </g>
     </g>
     <g id="text_5">
      <!-- 0.8 -->
      <g transform="translate(446.69169 329.540312)scale(0.1 -0.1)">
       <defs>
        <path d="M 31.78125 34.625 
Q 24.75 34.625 20.71875 30.859375 
Q 16.703125 27.09375 16.703125 20.515625 
Q 16.703125 13.921875 20.71875 10.15625 
Q 24.75 6.390625 31.78125 6.390625 
Q 38.8125 6.390625 42.859375 10.171875 
Q 46.921875 13.96875 46.921875 20.515625 
Q 46.921875 27.09375 42.890625 30.859375 
Q 38.875 34.625 31.78125 34.625 
z
M 21.921875 38.8125 
Q 15.578125 40.375 12.03125 44.71875 
Q 8.5 49.078125 8.5 55.328125 
Q 8.5 64.0625 14.71875 69.140625 
Q 20.953125 74.21875 31.78125 74.21875 
Q 42.671875 74.21875 48.875 69.140625 
Q 55.078125 64.0625 55.078125 55.328125 
Q 55.078125 49.078125 51.53125 44.71875 
Q 48 40.375 41.703125 38.8125 
Q 48.828125 37.15625 52.796875 32.3125 
Q 56.78125 27.484375 56.78125 20.515625 
Q 56.78125 9.90625 50.3125 4.234375 
Q 43.84375 -1.421875 31.78125 -1.421875 
Q 19.734375 -1.421875 13.25 4.234375 
Q 6.78125 9.90625 6.78125 20.515625 
Q 6.78125 27.484375 10.78125 32.3125 
Q 14.796875 37.15625 21.921875 38.8125 
z
M 18.3125 54.390625 
Q 18.3125 48.734375 21.84375 45.5625 
Q 25.390625 42.390625 31.78125 42.390625 
Q 38.140625 42.390625 41.71875 45.5625 
Q 45.3125 48.734375 45.3125 54.390625 
Q 45.3125 60.0625 41.71875 63.234375 
Q 38.140625 66.40625 31.78125 66.40625 
Q 25.390625 66.40625 21.84375 63.234375 
Q 18.3125 60.0625 18.3125 54.390625 
z
" id="DejaVuSans-56"/>
       </defs>
       <use xlink:href="#DejaVuSans-48"/>
       <use x="63.623047" xlink:href="#DejaVuSans-46"/>
       <use x="95.410156" xlink:href="#DejaVuSans-56"/>
      </g>
     </g>
    </g>
    <g id="xtick_6">
     <g id="line2d_6">
      <g>
       <use style="stroke:#000000;stroke-width:0.8;" x="543.088651" xlink:href="#mcd6545282e" y="314.941875"/>
      </g>
     </g>
     <g id="text_6">
      <!-- 1.0 -->
      <g transform="translate(535.137088 329.540312)scale(0.1 -0.1)">
       <defs>
        <path d="M 12.40625 8.296875 
L 28.515625 8.296875 
L 28.515625 63.921875 
L 10.984375 60.40625 
L 10.984375 69.390625 
L 28.421875 72.90625 
L 38.28125 72.90625 
L 38.28125 8.296875 
L 54.390625 8.296875 
L 54.390625 0 
L 12.40625 0 
z
" id="DejaVuSans-49"/>
       </defs>
       <use xlink:href="#DejaVuSans-49"/>
       <use x="63.623047" xlink:href="#DejaVuSans-46"/>
       <use x="95.410156" xlink:href="#DejaVuSans-48"/>
      </g>
     </g>
    </g>
    <g id="text_7">
     <!-- $\phi$ -->
     <g transform="translate(317.355156 346.26)scale(0.14 -0.14)">
      <defs>
       <path d="M 46.734375 75.984375 
L 42.78125 55.8125 
Q 52.546875 55.8125 57.5625 48.34375 
Q 62.75 40.71875 60.15625 27.296875 
Q 57.515625 13.875 49.359375 6.25 
Q 41.453125 -1.21875 31.6875 -1.21875 
L 27.875 -20.796875 
L 18.953125 -20.796875 
L 22.75 -1.21875 
Q 13.03125 -1.21875 7.953125 6.25 
Q 2.78125 13.875 5.421875 27.296875 
Q 8.015625 40.71875 16.15625 48.34375 
Q 24.125 55.8125 33.84375 55.8125 
L 37.796875 75.984375 
z
M 33.25 6.78125 
Q 38.765625 6.78125 43.5 11.8125 
Q 48.6875 17.4375 50.6875 27.296875 
Q 52.640625 37.0625 49.515625 42.78125 
Q 46.734375 47.796875 41.21875 47.796875 
z
M 24.3125 6.78125 
L 32.28125 47.796875 
Q 26.8125 47.796875 22.078125 42.78125 
Q 16.75 37.0625 14.890625 27.296875 
Q 13.03125 17.4375 16.0625 11.8125 
Q 18.796875 6.78125 24.3125 6.78125 
z
" id="DejaVuSans-Oblique-981"/>
      </defs>
      <use transform="translate(0 0.015625)" xlink:href="#DejaVuSans-Oblique-981"/>
     </g>
    </g>
   </g>
   <g id="matplotlib.axis_2">
    <g id="ytick_1">
     <g id="line2d_7">
      <defs>
       <path d="M 0 0 
L -3.5 0 
" id="mfa09342e9b" style="stroke:#000000;stroke-width:0.8;"/>
      </defs>
      <g>
       <use style="stroke:#000000;stroke-width:0.8;" x="78.750313" xlink:href="#mfa09342e9b" y="309.496237"/>
      </g>
     </g>
     <g id="text_8">
      <!-- −0.0006 -->
      <g transform="translate(28.38 313.295456)scale(0.1 -0.1)">
       <defs>
        <path d="M 10.59375 35.5 
L 73.1875 35.5 
L 73.1875 27.203125 
L 10.59375 27.203125 
z
" id="DejaVuSans-8722"/>
       </defs>
       <use xlink:href="#DejaVuSans-8722"/>
       <use x="83.789062" xlink:href="#DejaVuSans-48"/>
       <use x="147.412109" xlink:href="#DejaVuSans-46"/>
       <use x="179.199219" xlink:href="#DejaVuSans-48"/>
       <use x="242.822266" xlink:href="#DejaVuSans-48"/>
       <use x="306.445312" xlink:href="#DejaVuSans-48"/>
       <use x="370.068359" xlink:href="#DejaVuSans-54"/>
      </g>
     </g>
    </g>
    <g id="ytick_2">
     <g id="line2d_8">
      <g>
       <use style="stroke:#000000;stroke-width:0.8;" x="78.750313" xlink:href="#mfa09342e9b" y="263.674471"/>
      </g>
     </g>
     <g id="text_9">
      <!-- −0.0004 -->
      <g transform="translate(28.38 267.473689)scale(0.1 -0.1)">
       <use xlink:href="#DejaVuSans-8722"/>
       <use x="83.789062" xlink:href="#DejaVuSans-48"/>
       <use x="147.412109" xlink:href="#DejaVuSans-46"/>
       <use x="179.199219" xlink:href="#DejaVuSans-48"/>
       <use x="242.822266" xlink:href="#DejaVuSans-48"/>
       <use x="306.445312" xlink:href="#DejaVuSans-48"/>
       <use x="370.068359" xlink:href="#DejaVuSans-52"/>
      </g>
     </g>
    </g>
    <g id="ytick_3">
     <g id="line2d_9">
      <g>
       <use style="stroke:#000000;stroke-width:0.8;" x="78.750313" xlink:href="#mfa09342e9b" y="217.852704"/>
      </g>
     </g>
     <g id="text_10">
      <!-- −0.0002 -->
      <g transform="translate(28.38 221.651923)scale(0.1 -0.1)">
       <use xlink:href="#DejaVuSans-8722"/>
       <use x="83.789062" xlink:href="#DejaVuSans-48"/>
       <use x="147.412109" xlink:href="#DejaVuSans-46"/>
       <use x="179.199219" xlink:href="#DejaVuSans-48"/>
       <use x="242.822266" xlink:href="#DejaVuSans-48"/>
       <use x="306.445312" xlink:href="#DejaVuSans-48"/>
       <use x="370.068359" xlink:href="#DejaVuSans-50"/>
      </g>
     </g>
    </g>
    <g id="ytick_4">
     <g id="line2d_10">
      <g>
       <use style="stroke:#000000;stroke-width:0.8;" x="78.750313" xlink:href="#mfa09342e9b" y="172.030938"/>
      </g>
     </g>
     <g id="text_11">
      <!-- 0.0000 -->
      <g transform="translate(36.759688 175.830156)scale(0.1 -0.1)">
       <use xlink:href="#DejaVuSans-48"/>
       <use x="63.623047" xlink:href="#DejaVuSans-46"/>
       <use x="95.410156" xlink:href="#DejaVuSans-48"/>
       <use x="159.033203" xlink:href="#DejaVuSans-48"/>
       <use x="222.65625" xlink:href="#DejaVuSans-48"/>
       <use x="286.279297" xlink:href="#DejaVuSans-48"/>
      </g>
     </g>
    </g>
    <g id="ytick_5">
     <g id="line2d_11">
      <g>
       <use style="stroke:#000000;stroke-width:0.8;" x="78.750313" xlink:href="#mfa09342e9b" y="126.209171"/>
      </g>
     </g>
     <g id="text_12">
      <!-- 0.0002 -->
      <g transform="translate(36.759688 130.00839)scale(0.1 -0.1)">
       <use xlink:href="#DejaVuSans-48"/>
       <use x="63.623047" xlink:href="#DejaVuSans-46"/>
       <use x="95.410156" xlink:href="#DejaVuSans-48"/>
       <use x="159.033203" xlink:href="#DejaVuSans-48"/>
       <use x="222.65625" xlink:href="#DejaVuSans-48"/>
       <use x="286.279297" xlink:href="#DejaVuSans-50"/>
      </g>
     </g>
    </g>
    <g id="ytick_6">
     <g id="line2d_12">
      <g>
       <use style="stroke:#000000;stroke-width:0.8;" x="78.750313" xlink:href="#mfa09342e9b" y="80.387404"/>
      </g>
     </g>
     <g id="text_13">
      <!-- 0.0004 -->
      <g transform="translate(36.759688 84.186623)scale(0.1 -0.1)">
       <use xlink:href="#DejaVuSans-48"/>
       <use x="63.623047" xlink:href="#DejaVuSans-46"/>
       <use x="95.410156" xlink:href="#DejaVuSans-48"/>
       <use x="159.033203" xlink:href="#DejaVuSans-48"/>
       <use x="222.65625" xlink:href="#DejaVuSans-48"/>
       <use x="286.279297" xlink:href="#DejaVuSans-52"/>
      </g>
     </g>
    </g>
    <g id="ytick_7">
     <g id="line2d_13">
      <g>
       <use style="stroke:#000000;stroke-width:0.8;" x="78.750313" xlink:href="#mfa09342e9b" y="34.565638"/>
      </g>
     </g>
     <g id="text_14">
      <!-- 0.0006 -->
      <g transform="translate(36.759688 38.364856)scale(0.1 -0.1)">
       <use xlink:href="#DejaVuSans-48"/>
       <use x="63.623047" xlink:href="#DejaVuSans-46"/>
       <use x="95.410156" xlink:href="#DejaVuSans-48"/>
       <use x="159.033203" xlink:href="#DejaVuSans-48"/>
       <use x="222.65625" xlink:href="#DejaVuSans-48"/>
       <use x="286.279297" xlink:href="#DejaVuSans-54"/>
      </g>
     </g>
    </g>
    <g id="text_15">
     <!-- $G(\phi)$ -->
     <g transform="translate(21.44 187.570938)rotate(-90)scale(0.14 -0.14)">
      <defs>
       <path d="M 54.59375 10.890625 
L 58.40625 29.984375 
L 42.1875 29.984375 
L 43.703125 38.09375 
L 69.578125 38.09375 
L 63.28125 6 
Q 56.78125 2.4375 49.109375 0.5 
Q 41.453125 -1.421875 33.6875 -1.421875 
Q 19.96875 -1.421875 12.234375 6.1875 
Q 4.5 13.8125 4.5 27.390625 
Q 4.5 38.671875 9.203125 48.84375 
Q 13.921875 59.03125 22.21875 65.828125 
Q 27.4375 70.0625 33.640625 72.140625 
Q 39.84375 74.21875 47.40625 74.21875 
Q 54.25 74.21875 60.515625 72.484375 
Q 66.796875 70.75 72.515625 67.28125 
L 70.515625 56.78125 
Q 66.109375 61.375 60.203125 63.796875 
Q 54.296875 66.21875 47.609375 66.21875 
Q 39.84375 66.21875 33.9375 63.25 
Q 28.03125 60.296875 23.390625 54.109375 
Q 19.4375 48.828125 17.15625 41.671875 
Q 14.890625 34.515625 14.890625 27.09375 
Q 14.890625 16.890625 20.109375 11.734375 
Q 25.34375 6.59375 35.6875 6.59375 
Q 40.875 6.59375 45.703125 7.6875 
Q 50.53125 8.796875 54.59375 10.890625 
z
" id="DejaVuSans-Oblique-71"/>
       <path d="M 31 75.875 
Q 24.46875 64.65625 21.28125 53.65625 
Q 18.109375 42.671875 18.109375 31.390625 
Q 18.109375 20.125 21.3125 9.0625 
Q 24.515625 -2 31 -13.1875 
L 23.1875 -13.1875 
Q 15.875 -1.703125 12.234375 9.375 
Q 8.59375 20.453125 8.59375 31.390625 
Q 8.59375 42.28125 12.203125 53.3125 
Q 15.828125 64.359375 23.1875 75.875 
z
" id="DejaVuSans-40"/>
       <path d="M 8.015625 75.875 
L 15.828125 75.875 
Q 23.140625 64.359375 26.78125 53.3125 
Q 30.421875 42.28125 30.421875 31.390625 
Q 30.421875 20.453125 26.78125 9.375 
Q 23.140625 -1.703125 15.828125 -13.1875 
L 8.015625 -13.1875 
Q 14.5 -2 17.703125 9.0625 
Q 20.90625 20.125 20.90625 31.390625 
Q 20.90625 42.671875 17.703125 53.65625 
Q 14.5 64.65625 8.015625 75.875 
z
" id="DejaVuSans-41"/>
      </defs>
      <use transform="translate(0 0.015625)" xlink:href="#DejaVuSans-Oblique-71"/>
      <use transform="translate(77.490234 0.015625)" xlink:href="#DejaVuSans-40"/>
      <use transform="translate(116.503906 0.015625)" xlink:href="#DejaVuSans-Oblique-981"/>
      <use transform="translate(182.470703 0.015625)" xlink:href="#DejaVuSans-41"/>
     </g>
    </g>
   </g>
   <g id="line2d_14">
    <path clip-path="url(#pe6cf92f9fc)" d="M 100.861662 172.030938 
L 543.088651 172.030938 
L 543.088651 172.030938 
" style="fill:none;stroke:#000000;stroke-dasharray:5.55,2.4;stroke-dashoffset:0;stroke-width:1.5;"/>
   </g>
   <g id="line2d_15">
    <path clip-path="url(#pe6cf92f9fc)" d="M 100.861662 172.030938 
L 101.304332 197.911272 
L 108.829716 194.842159 
L 116.3551 192.010809 
L 123.880484 189.407006 
L 131.848538 186.88693 
L 139.816592 184.599082 
L 148.227315 182.423458 
L 156.638039 180.480701 
L 165.491432 178.673092 
L 174.344825 177.094467 
L 183.640888 175.66753 
L 193.379621 174.40842 
L 203.118353 173.372322 
L 213.299755 172.507834 
L 224.366497 171.798254 
L 235.875908 171.287561 
L 248.270658 170.964451 
L 261.550748 170.840457 
L 276.601516 170.925336 
L 294.750972 171.262742 
L 321.311152 172.010766 
L 355.396715 172.937324 
L 373.103502 173.193655 
L 388.15427 173.193288 
L 401.43436 172.974528 
L 413.82911 172.546186 
L 425.338521 171.923039 
L 435.962593 171.12967 
L 446.143995 170.150954 
L 455.882728 168.995489 
L 465.178791 167.675383 
L 474.474854 166.12663 
L 483.328247 164.423871 
L 491.73897 162.586902 
L 500.149694 160.523208 
L 508.117748 158.347178 
L 516.085801 155.944658 
L 524.053855 153.304114 
L 531.579239 150.581105 
L 539.104624 147.625166 
L 542.645981 146.150603 
L 543.088651 172.030938 
L 543.088651 172.030938 
" style="fill:none;stroke:#aa3863;stroke-linecap:square;stroke-width:1.5;"/>
   </g>
   <g id="line2d_16">
    <path clip-path="url(#pe6cf92f9fc)" d="M 100.861662 172.030938 
L 101.304332 223.920947 
L 108.829716 219.85804 
L 116.3551 216.044267 
L 123.880484 212.468963 
L 131.848538 208.931653 
L 139.816592 205.637804 
L 147.784646 202.575486 
L 156.195369 199.581292 
L 164.606093 196.818528 
L 173.459486 194.145814 
L 182.312879 191.699687 
L 191.608942 189.358827 
L 201.347674 187.138385 
L 211.529077 185.050279 
L 222.153148 183.102722 
L 233.21989 181.299745 
L 245.171971 179.580884 
L 258.009391 177.961986 
L 272.17482 176.401375 
L 288.553597 174.824017 
L 310.24441 172.976055 
L 359.823412 168.831256 
L 376.644859 167.147595 
L 390.810288 165.511062 
L 403.647708 163.807307 
L 415.599789 161.995523 
L 426.66653 160.094352 
L 437.290602 158.041358 
L 447.472004 155.841762 
L 457.210737 153.504946 
L 466.5068 151.043961 
L 475.360193 148.475072 
L 484.213586 145.671289 
L 492.62431 142.77617 
L 501.035033 139.641836 
L 509.003087 136.439431 
L 516.971141 132.998234 
L 524.939195 129.306168 
L 532.464579 125.577766 
L 539.989963 121.60402 
L 542.645981 120.140928 
L 543.088651 172.030938 
L 543.088651 172.030938 
" style="fill:none;stroke:#d97020;stroke-linecap:square;stroke-width:1.5;"/>
   </g>
   <g id="line2d_17">
    <path clip-path="url(#pe6cf92f9fc)" d="M 100.861662 172.030938 
L 101.304332 249.930622 
L 108.829716 244.873922 
L 116.3551 240.077724 
L 124.323154 235.270992 
L 132.291208 230.73093 
L 140.259262 226.444863 
L 148.669985 222.182504 
L 157.080709 218.174961 
L 165.491432 214.408168 
L 174.344825 210.688039 
L 183.198218 207.203562 
L 192.494281 203.781489 
L 202.233014 200.43751 
L 212.414416 197.183919 
L 223.038488 194.029132 
L 234.105229 190.977171 
L 246.05731 187.917828 
L 258.89473 184.867198 
L 273.060159 181.734218 
L 289.438936 178.345383 
L 311.12975 174.102947 
L 358.495403 164.910967 
L 375.31685 161.371673 
L 389.482279 158.167731 
L 402.319699 155.037524 
L 414.27178 151.890857 
L 425.338521 148.746494 
L 435.962593 145.49239 
L 446.143995 142.133707 
L 455.882728 138.679968 
L 465.178791 135.144554 
L 474.032184 131.544209 
L 482.885577 127.700344 
L 491.296301 123.808577 
L 499.707024 119.668691 
L 507.675078 115.504946 
L 515.643132 111.09345 
L 523.611186 106.421652 
L 531.13657 101.758856 
L 538.661954 96.841466 
L 542.645981 94.131253 
L 543.088651 172.030938 
L 543.088651 172.030938 
" style="fill:none;stroke:#ef9f07;stroke-linecap:square;stroke-width:1.5;"/>
   </g>
   <g id="line2d_18">
    <path clip-path="url(#pe6cf92f9fc)" d="M 100.861662 172.030938 
L 101.304332 275.940297 
L 108.829716 269.889803 
L 116.3551 264.111181 
L 124.323154 258.276132 
L 132.291208 252.719474 
L 140.259262 247.428015 
L 148.669985 242.115998 
L 157.080709 237.070113 
L 165.491432 232.275706 
L 174.344825 227.484825 
L 183.198218 222.940162 
L 192.494281 218.415537 
L 202.233014 213.927375 
L 212.414416 209.488559 
L 223.038488 205.107913 
L 234.105229 200.789671 
L 246.05731 196.373541 
L 258.89473 191.876378 
L 273.060159 187.157905 
L 289.438936 181.946568 
L 310.68708 175.435711 
L 358.938073 160.727969 
L 375.31685 155.453577 
L 389.482279 150.66089 
L 402.319699 146.080509 
L 413.82911 141.74463 
L 424.895852 137.339652 
L 435.519924 132.865768 
L 445.701326 128.328286 
L 455.440058 123.737076 
L 464.736121 119.106042 
L 473.589514 114.452602 
L 482.442907 109.545563 
L 490.853631 104.633845 
L 499.264354 99.463741 
L 507.232408 94.314007 
L 515.200462 88.906294 
L 523.168516 83.22755 
L 531.13657 77.264469 
L 538.661954 71.359361 
L 542.645981 68.121578 
L 543.088651 172.030938 
L 543.088651 172.030938 
" style="fill:none;stroke:#449775;stroke-linecap:square;stroke-width:1.5;"/>
   </g>
   <g id="line2d_19">
    <path clip-path="url(#pe6cf92f9fc)" d="M 100.861662 172.030938 
L 101.304332 301.949972 
L 108.829716 294.905685 
L 116.79777 287.755493 
L 124.765823 280.908608 
L 132.733877 274.351067 
L 140.701931 268.069175 
L 149.112655 261.722487 
L 157.523378 255.652438 
L 166.376771 249.545039 
L 175.230165 243.709852 
L 184.526227 237.857137 
L 193.82229 232.266172 
L 203.561023 226.668852 
L 213.742425 221.078292 
L 224.366497 215.503362 
L 235.433238 209.948135 
L 247.385319 204.202795 
L 260.222739 198.284086 
L 274.388168 192.002193 
L 290.766945 184.986767 
L 312.900428 175.769836 
L 357.167394 157.388467 
L 373.988841 150.121163 
L 388.15427 143.7636 
L 400.99169 137.75968 
L 412.943771 131.920603 
L 424.010512 126.266024 
L 434.634584 120.584184 
L 444.815986 114.880402 
L 454.554719 109.164762 
L 463.850782 103.451563 
L 472.704175 97.758773 
L 481.557568 91.803229 
L 489.968292 85.886361 
L 498.379015 79.701706 
L 506.789739 73.233913 
L 514.757792 66.831184 
L 522.725846 60.146752 
L 530.6939 53.166804 
L 538.661954 45.877256 
L 542.645981 42.111903 
L 543.088651 172.030938 
L 543.088651 172.030938 
" style="fill:none;stroke:#3b7d86;stroke-linecap:square;stroke-width:1.5;"/>
   </g>
   <g id="patch_3">
    <path d="M 78.750313 314.941875 
L 78.750313 29.12 
" style="fill:none;stroke:#000000;stroke-linecap:square;stroke-linejoin:miter;stroke-width:0.8;"/>
   </g>
   <g id="patch_4">
    <path d="M 565.2 314.941875 
L 565.2 29.12 
" style="fill:none;stroke:#000000;stroke-linecap:square;stroke-linejoin:miter;stroke-width:0.8;"/>
   </g>
   <g id="patch_5">
    <path d="M 78.750313 314.941875 
L 565.2 314.941875 
" style="fill:none;stroke:#000000;stroke-linecap:square;stroke-linejoin:miter;stroke-width:0.8;"/>
   </g>
   <g id="patch_6">
    <path d="M 78.750313 29.12 
L 565.2 29.12 
" style="fill:none;stroke:#000000;stroke-linecap:square;stroke-linejoin:miter;stroke-width:0.8;"/>
   </g>
   <g id="text_16">
    <!-- G-function for different values of $\beta$, with $I = 1.4, \gamma = 0.001$ -->
    <g transform="translate(92.295156 23.12)scale(0.16 -0.16)">
     <defs>
      <path d="M 59.515625 10.40625 
L 59.515625 29.984375 
L 43.40625 29.984375 
L 43.40625 38.09375 
L 69.28125 38.09375 
L 69.28125 6.78125 
Q 63.578125 2.734375 56.6875 0.65625 
Q 49.8125 -1.421875 42 -1.421875 
Q 24.90625 -1.421875 15.25 8.5625 
Q 5.609375 18.5625 5.609375 36.375 
Q 5.609375 54.25 15.25 64.234375 
Q 24.90625 74.21875 42 74.21875 
Q 49.125 74.21875 55.546875 72.453125 
Q 61.96875 70.703125 67.390625 67.28125 
L 67.390625 56.78125 
Q 61.921875 61.421875 55.765625 63.765625 
Q 49.609375 66.109375 42.828125 66.109375 
Q 29.4375 66.109375 22.71875 58.640625 
Q 16.015625 51.171875 16.015625 36.375 
Q 16.015625 21.625 22.71875 14.15625 
Q 29.4375 6.6875 42.828125 6.6875 
Q 48.046875 6.6875 52.140625 7.59375 
Q 56.25 8.5 59.515625 10.40625 
z
" id="DejaVuSans-71"/>
      <path d="M 4.890625 31.390625 
L 31.203125 31.390625 
L 31.203125 23.390625 
L 4.890625 23.390625 
z
" id="DejaVuSans-45"/>
      <path d="M 37.109375 75.984375 
L 37.109375 68.5 
L 28.515625 68.5 
Q 23.6875 68.5 21.796875 66.546875 
Q 19.921875 64.59375 19.921875 59.515625 
L 19.921875 54.6875 
L 34.71875 54.6875 
L 34.71875 47.703125 
L 19.921875 47.703125 
L 19.921875 0 
L 10.890625 0 
L 10.890625 47.703125 
L 2.296875 47.703125 
L 2.296875 54.6875 
L 10.890625 54.6875 
L 10.890625 58.5 
Q 10.890625 67.625 15.140625 71.796875 
Q 19.390625 75.984375 28.609375 75.984375 
z
" id="DejaVuSans-102"/>
      <path d="M 8.5 21.578125 
L 8.5 54.6875 
L 17.484375 54.6875 
L 17.484375 21.921875 
Q 17.484375 14.15625 20.5 10.265625 
Q 23.53125 6.390625 29.59375 6.390625 
Q 36.859375 6.390625 41.078125 11.03125 
Q 45.3125 15.671875 45.3125 23.6875 
L 45.3125 54.6875 
L 54.296875 54.6875 
L 54.296875 0 
L 45.3125 0 
L 45.3125 8.40625 
Q 42.046875 3.421875 37.71875 1 
Q 33.40625 -1.421875 27.6875 -1.421875 
Q 18.265625 -1.421875 13.375 4.4375 
Q 8.5 10.296875 8.5 21.578125 
z
M 31.109375 56 
z
" id="DejaVuSans-117"/>
      <path d="M 54.890625 33.015625 
L 54.890625 0 
L 45.90625 0 
L 45.90625 32.71875 
Q 45.90625 40.484375 42.875 44.328125 
Q 39.84375 48.1875 33.796875 48.1875 
Q 26.515625 48.1875 22.3125 43.546875 
Q 18.109375 38.921875 18.109375 30.90625 
L 18.109375 0 
L 9.078125 0 
L 9.078125 54.6875 
L 18.109375 54.6875 
L 18.109375 46.1875 
Q 21.34375 51.125 25.703125 53.5625 
Q 30.078125 56 35.796875 56 
Q 45.21875 56 50.046875 50.171875 
Q 54.890625 44.34375 54.890625 33.015625 
z
" id="DejaVuSans-110"/>
      <path d="M 48.78125 52.59375 
L 48.78125 44.1875 
Q 44.96875 46.296875 41.140625 47.34375 
Q 37.3125 48.390625 33.40625 48.390625 
Q 24.65625 48.390625 19.8125 42.84375 
Q 14.984375 37.3125 14.984375 27.296875 
Q 14.984375 17.28125 19.8125 11.734375 
Q 24.65625 6.203125 33.40625 6.203125 
Q 37.3125 6.203125 41.140625 7.25 
Q 44.96875 8.296875 48.78125 10.40625 
L 48.78125 2.09375 
Q 45.015625 0.34375 40.984375 -0.53125 
Q 36.96875 -1.421875 32.421875 -1.421875 
Q 20.0625 -1.421875 12.78125 6.34375 
Q 5.515625 14.109375 5.515625 27.296875 
Q 5.515625 40.671875 12.859375 48.328125 
Q 20.21875 56 33.015625 56 
Q 37.15625 56 41.109375 55.140625 
Q 45.0625 54.296875 48.78125 52.59375 
z
" id="DejaVuSans-99"/>
      <path d="M 18.3125 70.21875 
L 18.3125 54.6875 
L 36.8125 54.6875 
L 36.8125 47.703125 
L 18.3125 47.703125 
L 18.3125 18.015625 
Q 18.3125 11.328125 20.140625 9.421875 
Q 21.96875 7.515625 27.59375 7.515625 
L 36.8125 7.515625 
L 36.8125 0 
L 27.59375 0 
Q 17.1875 0 13.234375 3.875 
Q 9.28125 7.765625 9.28125 18.015625 
L 9.28125 47.703125 
L 2.6875 47.703125 
L 2.6875 54.6875 
L 9.28125 54.6875 
L 9.28125 70.21875 
z
" id="DejaVuSans-116"/>
      <path d="M 9.421875 54.6875 
L 18.40625 54.6875 
L 18.40625 0 
L 9.421875 0 
z
M 9.421875 75.984375 
L 18.40625 75.984375 
L 18.40625 64.59375 
L 9.421875 64.59375 
z
" id="DejaVuSans-105"/>
      <path d="M 30.609375 48.390625 
Q 23.390625 48.390625 19.1875 42.75 
Q 14.984375 37.109375 14.984375 27.296875 
Q 14.984375 17.484375 19.15625 11.84375 
Q 23.34375 6.203125 30.609375 6.203125 
Q 37.796875 6.203125 41.984375 11.859375 
Q 46.1875 17.53125 46.1875 27.296875 
Q 46.1875 37.015625 41.984375 42.703125 
Q 37.796875 48.390625 30.609375 48.390625 
z
M 30.609375 56 
Q 42.328125 56 49.015625 48.375 
Q 55.71875 40.765625 55.71875 27.296875 
Q 55.71875 13.875 49.015625 6.21875 
Q 42.328125 -1.421875 30.609375 -1.421875 
Q 18.84375 -1.421875 12.171875 6.21875 
Q 5.515625 13.875 5.515625 27.296875 
Q 5.515625 40.765625 12.171875 48.375 
Q 18.84375 56 30.609375 56 
z
" id="DejaVuSans-111"/>
      <path id="DejaVuSans-32"/>
      <path d="M 41.109375 46.296875 
Q 39.59375 47.171875 37.8125 47.578125 
Q 36.03125 48 33.890625 48 
Q 26.265625 48 22.1875 43.046875 
Q 18.109375 38.09375 18.109375 28.8125 
L 18.109375 0 
L 9.078125 0 
L 9.078125 54.6875 
L 18.109375 54.6875 
L 18.109375 46.1875 
Q 20.953125 51.171875 25.484375 53.578125 
Q 30.03125 56 36.53125 56 
Q 37.453125 56 38.578125 55.875 
Q 39.703125 55.765625 41.0625 55.515625 
z
" id="DejaVuSans-114"/>
      <path d="M 45.40625 46.390625 
L 45.40625 75.984375 
L 54.390625 75.984375 
L 54.390625 0 
L 45.40625 0 
L 45.40625 8.203125 
Q 42.578125 3.328125 38.25 0.953125 
Q 33.9375 -1.421875 27.875 -1.421875 
Q 17.96875 -1.421875 11.734375 6.484375 
Q 5.515625 14.40625 5.515625 27.296875 
Q 5.515625 40.1875 11.734375 48.09375 
Q 17.96875 56 27.875 56 
Q 33.9375 56 38.25 53.625 
Q 42.578125 51.265625 45.40625 46.390625 
z
M 14.796875 27.296875 
Q 14.796875 17.390625 18.875 11.75 
Q 22.953125 6.109375 30.078125 6.109375 
Q 37.203125 6.109375 41.296875 11.75 
Q 45.40625 17.390625 45.40625 27.296875 
Q 45.40625 37.203125 41.296875 42.84375 
Q 37.203125 48.484375 30.078125 48.484375 
Q 22.953125 48.484375 18.875 42.84375 
Q 14.796875 37.203125 14.796875 27.296875 
z
" id="DejaVuSans-100"/>
      <path d="M 56.203125 29.59375 
L 56.203125 25.203125 
L 14.890625 25.203125 
Q 15.484375 15.921875 20.484375 11.0625 
Q 25.484375 6.203125 34.421875 6.203125 
Q 39.59375 6.203125 44.453125 7.46875 
Q 49.3125 8.734375 54.109375 11.28125 
L 54.109375 2.78125 
Q 49.265625 0.734375 44.1875 -0.34375 
Q 39.109375 -1.421875 33.890625 -1.421875 
Q 20.796875 -1.421875 13.15625 6.1875 
Q 5.515625 13.8125 5.515625 26.8125 
Q 5.515625 40.234375 12.765625 48.109375 
Q 20.015625 56 32.328125 56 
Q 43.359375 56 49.78125 48.890625 
Q 56.203125 41.796875 56.203125 29.59375 
z
M 47.21875 32.234375 
Q 47.125 39.59375 43.09375 43.984375 
Q 39.0625 48.390625 32.421875 48.390625 
Q 24.90625 48.390625 20.390625 44.140625 
Q 15.875 39.890625 15.1875 32.171875 
z
" id="DejaVuSans-101"/>
      <path d="M 2.984375 54.6875 
L 12.5 54.6875 
L 29.59375 8.796875 
L 46.6875 54.6875 
L 56.203125 54.6875 
L 35.6875 0 
L 23.484375 0 
z
" id="DejaVuSans-118"/>
      <path d="M 34.28125 27.484375 
Q 23.390625 27.484375 19.1875 25 
Q 14.984375 22.515625 14.984375 16.5 
Q 14.984375 11.71875 18.140625 8.90625 
Q 21.296875 6.109375 26.703125 6.109375 
Q 34.1875 6.109375 38.703125 11.40625 
Q 43.21875 16.703125 43.21875 25.484375 
L 43.21875 27.484375 
z
M 52.203125 31.203125 
L 52.203125 0 
L 43.21875 0 
L 43.21875 8.296875 
Q 40.140625 3.328125 35.546875 0.953125 
Q 30.953125 -1.421875 24.3125 -1.421875 
Q 15.921875 -1.421875 10.953125 3.296875 
Q 6 8.015625 6 15.921875 
Q 6 25.140625 12.171875 29.828125 
Q 18.359375 34.515625 30.609375 34.515625 
L 43.21875 34.515625 
L 43.21875 35.40625 
Q 43.21875 41.609375 39.140625 45 
Q 35.0625 48.390625 27.6875 48.390625 
Q 23 48.390625 18.546875 47.265625 
Q 14.109375 46.140625 10.015625 43.890625 
L 10.015625 52.203125 
Q 14.9375 54.109375 19.578125 55.046875 
Q 24.21875 56 28.609375 56 
Q 40.484375 56 46.34375 49.84375 
Q 52.203125 43.703125 52.203125 31.203125 
z
" id="DejaVuSans-97"/>
      <path d="M 9.421875 75.984375 
L 18.40625 75.984375 
L 18.40625 0 
L 9.421875 0 
z
" id="DejaVuSans-108"/>
      <path d="M 44.28125 53.078125 
L 44.28125 44.578125 
Q 40.484375 46.53125 36.375 47.5 
Q 32.28125 48.484375 27.875 48.484375 
Q 21.1875 48.484375 17.84375 46.4375 
Q 14.5 44.390625 14.5 40.28125 
Q 14.5 37.15625 16.890625 35.375 
Q 19.28125 33.59375 26.515625 31.984375 
L 29.59375 31.296875 
Q 39.15625 29.25 43.1875 25.515625 
Q 47.21875 21.78125 47.21875 15.09375 
Q 47.21875 7.46875 41.1875 3.015625 
Q 35.15625 -1.421875 24.609375 -1.421875 
Q 20.21875 -1.421875 15.453125 -0.5625 
Q 10.6875 0.296875 5.421875 2 
L 5.421875 11.28125 
Q 10.40625 8.6875 15.234375 7.390625 
Q 20.0625 6.109375 24.8125 6.109375 
Q 31.15625 6.109375 34.5625 8.28125 
Q 37.984375 10.453125 37.984375 14.40625 
Q 37.984375 18.0625 35.515625 20.015625 
Q 33.0625 21.96875 24.703125 23.78125 
L 21.578125 24.515625 
Q 13.234375 26.265625 9.515625 29.90625 
Q 5.8125 33.546875 5.8125 39.890625 
Q 5.8125 47.609375 11.28125 51.796875 
Q 16.75 56 26.8125 56 
Q 31.78125 56 36.171875 55.265625 
Q 40.578125 54.546875 44.28125 53.078125 
z
" id="DejaVuSans-115"/>
      <path d="M 13.625 3.375 
L 8.9375 -20.796875 
L -0.09375 -20.796875 
L 14.5 54.34375 
Q 18.84375 76.609375 39.65625 76.609375 
Q 60.75 76.609375 57.171875 57.8125 
Q 54.734375 44.4375 45.21875 39.546875 
Q 58.015625 35.15625 55.515625 22.125 
Q 51.125 -1.078125 27.484375 -1.03125 
Q 17.140625 -0.984375 13.625 3.375 
z
M 15.921875 15.09375 
Q 19.671875 6.59375 29.296875 6.640625 
Q 43.359375 6.640625 46.34375 21.96875 
Q 49.03125 35.75 26.171875 34.671875 
L 27.78125 42.96875 
Q 45.453125 42.671875 48.53125 58.59375 
Q 50.640625 69.34375 39.203125 69.28125 
Q 26.421875 69.28125 23.484375 54.046875 
z
" id="DejaVuSans-Oblique-946"/>
      <path d="M 11.71875 12.40625 
L 22.015625 12.40625 
L 22.015625 4 
L 14.015625 -11.625 
L 7.71875 -11.625 
L 11.71875 4 
z
" id="DejaVuSans-44"/>
      <path d="M 4.203125 54.6875 
L 13.1875 54.6875 
L 24.421875 12.015625 
L 35.59375 54.6875 
L 46.1875 54.6875 
L 57.421875 12.015625 
L 68.609375 54.6875 
L 77.59375 54.6875 
L 63.28125 0 
L 52.6875 0 
L 40.921875 44.828125 
L 29.109375 0 
L 18.5 0 
z
" id="DejaVuSans-119"/>
      <path d="M 54.890625 33.015625 
L 54.890625 0 
L 45.90625 0 
L 45.90625 32.71875 
Q 45.90625 40.484375 42.875 44.328125 
Q 39.84375 48.1875 33.796875 48.1875 
Q 26.515625 48.1875 22.3125 43.546875 
Q 18.109375 38.921875 18.109375 30.90625 
L 18.109375 0 
L 9.078125 0 
L 9.078125 75.984375 
L 18.109375 75.984375 
L 18.109375 46.1875 
Q 21.34375 51.125 25.703125 53.5625 
Q 30.078125 56 35.796875 56 
Q 45.21875 56 50.046875 50.171875 
Q 54.890625 44.34375 54.890625 33.015625 
z
" id="DejaVuSans-104"/>
      <path d="M 16.890625 72.90625 
L 26.8125 72.90625 
L 12.59375 0 
L 2.6875 0 
z
" id="DejaVuSans-Oblique-73"/>
      <path d="M 10.59375 45.40625 
L 73.1875 45.40625 
L 73.1875 37.203125 
L 10.59375 37.203125 
z
M 10.59375 25.484375 
L 73.1875 25.484375 
L 73.1875 17.1875 
L 10.59375 17.1875 
z
" id="DejaVuSans-61"/>
      <path d="M 23.296875 46.09375 
L 28.71875 12.3125 
L 54 54.6875 
L 63.53125 54.6875 
L 30.8125 0 
L 26.765625 -20.796875 
L 17.78125 -20.796875 
L 21.828125 0 
L 15.4375 40.828125 
Q 14.453125 46.96875 9.8125 46.96875 
L 7.421875 46.96875 
L 8.890625 54.6875 
L 12.3125 54.6875 
Q 21.921875 54.6875 23.296875 46.09375 
z
" id="DejaVuSans-Oblique-947"/>
     </defs>
     <use transform="translate(0 0.390625)" xlink:href="#DejaVuSans-71"/>
     <use transform="translate(77.490234 0.390625)" xlink:href="#DejaVuSans-45"/>
     <use transform="translate(113.574219 0.390625)" xlink:href="#DejaVuSans-102"/>
     <use transform="translate(148.779297 0.390625)" xlink:href="#DejaVuSans-117"/>
     <use transform="translate(212.158203 0.390625)" xlink:href="#DejaVuSans-110"/>
     <use transform="translate(275.537109 0.390625)" xlink:href="#DejaVuSans-99"/>
     <use transform="translate(330.517578 0.390625)" xlink:href="#DejaVuSans-116"/>
     <use transform="translate(369.726562 0.390625)" xlink:href="#DejaVuSans-105"/>
     <use transform="translate(397.509766 0.390625)" xlink:href="#DejaVuSans-111"/>
     <use transform="translate(458.691406 0.390625)" xlink:href="#DejaVuSans-110"/>
     <use transform="translate(522.070312 0.390625)" xlink:href="#DejaVuSans-32"/>
     <use transform="translate(553.857422 0.390625)" xlink:href="#DejaVuSans-102"/>
     <use transform="translate(589.0625 0.390625)" xlink:href="#DejaVuSans-111"/>
     <use transform="translate(650.244141 0.390625)" xlink:href="#DejaVuSans-114"/>
     <use transform="translate(691.357422 0.390625)" xlink:href="#DejaVuSans-32"/>
     <use transform="translate(723.144531 0.390625)" xlink:href="#DejaVuSans-100"/>
     <use transform="translate(786.621094 0.390625)" xlink:href="#DejaVuSans-105"/>
     <use transform="translate(814.404297 0.390625)" xlink:href="#DejaVuSans-102"/>
     <use transform="translate(849.609375 0.390625)" xlink:href="#DejaVuSans-102"/>
     <use transform="translate(884.814453 0.390625)" xlink:href="#DejaVuSans-101"/>
     <use transform="translate(946.337891 0.390625)" xlink:href="#DejaVuSans-114"/>
     <use transform="translate(987.451172 0.390625)" xlink:href="#DejaVuSans-101"/>
     <use transform="translate(1048.974609 0.390625)" xlink:href="#DejaVuSans-110"/>
     <use transform="translate(1112.353516 0.390625)" xlink:href="#DejaVuSans-116"/>
     <use transform="translate(1151.5625 0.390625)" xlink:href="#DejaVuSans-32"/>
     <use transform="translate(1183.349609 0.390625)" xlink:href="#DejaVuSans-118"/>
     <use transform="translate(1242.529297 0.390625)" xlink:href="#DejaVuSans-97"/>
     <use transform="translate(1303.808594 0.390625)" xlink:href="#DejaVuSans-108"/>
     <use transform="translate(1331.591797 0.390625)" xlink:href="#DejaVuSans-117"/>
     <use transform="translate(1394.970703 0.390625)" xlink:href="#DejaVuSans-101"/>
     <use transform="translate(1456.494141 0.390625)" xlink:href="#DejaVuSans-115"/>
     <use transform="translate(1508.59375 0.390625)" xlink:href="#DejaVuSans-32"/>
     <use transform="translate(1540.380859 0.390625)" xlink:href="#DejaVuSans-111"/>
     <use transform="translate(1601.5625 0.390625)" xlink:href="#DejaVuSans-102"/>
     <use transform="translate(1636.767578 0.390625)" xlink:href="#DejaVuSans-32"/>
     <use transform="translate(1668.554688 0.390625)" xlink:href="#DejaVuSans-Oblique-946"/>
     <use transform="translate(1732.373047 0.390625)" xlink:href="#DejaVuSans-44"/>
     <use transform="translate(1764.160156 0.390625)" xlink:href="#DejaVuSans-32"/>
     <use transform="translate(1795.947266 0.390625)" xlink:href="#DejaVuSans-119"/>
     <use transform="translate(1877.734375 0.390625)" xlink:href="#DejaVuSans-105"/>
     <use transform="translate(1905.517578 0.390625)" xlink:href="#DejaVuSans-116"/>
     <use transform="translate(1944.726562 0.390625)" xlink:href="#DejaVuSans-104"/>
     <use transform="translate(2008.105469 0.390625)" xlink:href="#DejaVuSans-32"/>
     <use transform="translate(2039.892578 0.390625)" xlink:href="#DejaVuSans-Oblique-73"/>
     <use transform="translate(2088.867188 0.390625)" xlink:href="#DejaVuSans-61"/>
     <use transform="translate(2192.138672 0.390625)" xlink:href="#DejaVuSans-49"/>
     <use transform="translate(2255.761719 0.390625)" xlink:href="#DejaVuSans-46"/>
     <use transform="translate(2287.548828 0.390625)" xlink:href="#DejaVuSans-52"/>
     <use transform="translate(2351.171875 0.390625)" xlink:href="#DejaVuSans-44"/>
     <use transform="translate(2402.441406 0.390625)" xlink:href="#DejaVuSans-Oblique-947"/>
     <use transform="translate(2481.103516 0.390625)" xlink:href="#DejaVuSans-61"/>
     <use transform="translate(2584.375 0.390625)" xlink:href="#DejaVuSans-48"/>
     <use transform="translate(2647.998047 0.390625)" xlink:href="#DejaVuSans-46"/>
     <use transform="translate(2679.785156 0.390625)" xlink:href="#DejaVuSans-48"/>
     <use transform="translate(2743.408203 0.390625)" xlink:href="#DejaVuSans-48"/>
     <use transform="translate(2807.03125 0.390625)" xlink:href="#DejaVuSans-49"/>
    </g>
   </g>
   <g id="legend_1">
    <g id="patch_7">
     <path d="M 85.750313 111.12 
L 152.350313 111.12 
Q 154.350313 111.12 154.350313 109.12 
L 154.350313 36.12 
Q 154.350313 34.12 152.350313 34.12 
L 85.750313 34.12 
Q 83.750313 34.12 83.750313 36.12 
L 83.750313 109.12 
Q 83.750313 111.12 85.750313 111.12 
z
" style="fill:#ffffff;opacity:0.8;stroke:#cccccc;stroke-linejoin:miter;"/>
    </g>
    <g id="line2d_20">
     <path d="M 87.750313 42.32 
L 107.750313 42.32 
" style="fill:none;stroke:#aa3863;stroke-linecap:square;stroke-width:1.5;"/>
    </g>
    <g id="line2d_21"/>
    <g id="text_17">
     <!-- $\beta = 0.1$ -->
     <g transform="translate(115.750313 45.82)scale(0.1 -0.1)">
      <use transform="translate(0 0.390625)" xlink:href="#DejaVuSans-Oblique-946"/>
      <use transform="translate(83.300781 0.390625)" xlink:href="#DejaVuSans-61"/>
      <use transform="translate(186.572266 0.390625)" xlink:href="#DejaVuSans-48"/>
      <use transform="translate(250.195312 0.390625)" xlink:href="#DejaVuSans-46"/>
      <use transform="translate(281.982422 0.390625)" xlink:href="#DejaVuSans-49"/>
     </g>
    </g>
    <g id="line2d_22">
     <path d="M 87.750313 57.12 
L 107.750313 57.12 
" style="fill:none;stroke:#d97020;stroke-linecap:square;stroke-width:1.5;"/>
    </g>
    <g id="line2d_23"/>
    <g id="text_18">
     <!-- $\beta = 0.2$ -->
     <g transform="translate(115.750313 60.62)scale(0.1 -0.1)">
      <use transform="translate(0 0.390625)" xlink:href="#DejaVuSans-Oblique-946"/>
      <use transform="translate(83.300781 0.390625)" xlink:href="#DejaVuSans-61"/>
      <use transform="translate(186.572266 0.390625)" xlink:href="#DejaVuSans-48"/>
      <use transform="translate(250.195312 0.390625)" xlink:href="#DejaVuSans-46"/>
      <use transform="translate(276.482422 0.390625)" xlink:href="#DejaVuSans-50"/>
     </g>
    </g>
    <g id="line2d_24">
     <path d="M 87.750313 71.92 
L 107.750313 71.92 
" style="fill:none;stroke:#ef9f07;stroke-linecap:square;stroke-width:1.5;"/>
    </g>
    <g id="line2d_25"/>
    <g id="text_19">
     <!-- $\beta = 0.3$ -->
     <g transform="translate(115.750313 75.42)scale(0.1 -0.1)">
      <defs>
       <path d="M 40.578125 39.3125 
Q 47.65625 37.796875 51.625 33 
Q 55.609375 28.21875 55.609375 21.1875 
Q 55.609375 10.40625 48.1875 4.484375 
Q 40.765625 -1.421875 27.09375 -1.421875 
Q 22.515625 -1.421875 17.65625 -0.515625 
Q 12.796875 0.390625 7.625 2.203125 
L 7.625 11.71875 
Q 11.71875 9.328125 16.59375 8.109375 
Q 21.484375 6.890625 26.8125 6.890625 
Q 36.078125 6.890625 40.9375 10.546875 
Q 45.796875 14.203125 45.796875 21.1875 
Q 45.796875 27.640625 41.28125 31.265625 
Q 36.765625 34.90625 28.71875 34.90625 
L 20.21875 34.90625 
L 20.21875 43.015625 
L 29.109375 43.015625 
Q 36.375 43.015625 40.234375 45.921875 
Q 44.09375 48.828125 44.09375 54.296875 
Q 44.09375 59.90625 40.109375 62.90625 
Q 36.140625 65.921875 28.71875 65.921875 
Q 24.65625 65.921875 20.015625 65.03125 
Q 15.375 64.15625 9.8125 62.3125 
L 9.8125 71.09375 
Q 15.4375 72.65625 20.34375 73.4375 
Q 25.25 74.21875 29.59375 74.21875 
Q 40.828125 74.21875 47.359375 69.109375 
Q 53.90625 64.015625 53.90625 55.328125 
Q 53.90625 49.265625 50.4375 45.09375 
Q 46.96875 40.921875 40.578125 39.3125 
z
" id="DejaVuSans-51"/>
      </defs>
      <use transform="translate(0 0.390625)" xlink:href="#DejaVuSans-Oblique-946"/>
      <use transform="translate(83.300781 0.390625)" xlink:href="#DejaVuSans-61"/>
      <use transform="translate(186.572266 0.390625)" xlink:href="#DejaVuSans-48"/>
      <use transform="translate(250.195312 0.390625)" xlink:href="#DejaVuSans-46"/>
      <use transform="translate(281.982422 0.390625)" xlink:href="#DejaVuSans-51"/>
     </g>
    </g>
    <g id="line2d_26">
     <path d="M 87.750313 86.72 
L 107.750313 86.72 
" style="fill:none;stroke:#449775;stroke-linecap:square;stroke-width:1.5;"/>
    </g>
    <g id="line2d_27"/>
    <g id="text_20">
     <!-- $\beta = 0.4$ -->
     <g transform="translate(115.750313 90.22)scale(0.1 -0.1)">
      <use transform="translate(0 0.390625)" xlink:href="#DejaVuSans-Oblique-946"/>
      <use transform="translate(83.300781 0.390625)" xlink:href="#DejaVuSans-61"/>
      <use transform="translate(186.572266 0.390625)" xlink:href="#DejaVuSans-48"/>
      <use transform="translate(250.195312 0.390625)" xlink:href="#DejaVuSans-46"/>
      <use transform="translate(281.982422 0.390625)" xlink:href="#DejaVuSans-52"/>
     </g>
    </g>
    <g id="line2d_28">
     <path d="M 87.750313 101.52 
L 107.750313 101.52 
" style="fill:none;stroke:#3b7d86;stroke-linecap:square;stroke-width:1.5;"/>
    </g>
    <g id="line2d_29"/>
    <g id="text_21">
     <!-- $\beta = 0.5$ -->
     <g transform="translate(115.750313 105.02)scale(0.1 -0.1)">
      <defs>
       <path d="M 10.796875 72.90625 
L 49.515625 72.90625 
L 49.515625 64.59375 
L 19.828125 64.59375 
L 19.828125 46.734375 
Q 21.96875 47.46875 24.109375 47.828125 
Q 26.265625 48.1875 28.421875 48.1875 
Q 40.625 48.1875 47.75 41.5 
Q 54.890625 34.8125 54.890625 23.390625 
Q 54.890625 11.625 47.5625 5.09375 
Q 40.234375 -1.421875 26.90625 -1.421875 
Q 22.3125 -1.421875 17.546875 -0.640625 
Q 12.796875 0.140625 7.71875 1.703125 
L 7.71875 11.625 
Q 12.109375 9.234375 16.796875 8.0625 
Q 21.484375 6.890625 26.703125 6.890625 
Q 35.15625 6.890625 40.078125 11.328125 
Q 45.015625 15.765625 45.015625 23.390625 
Q 45.015625 31 40.078125 35.4375 
Q 35.15625 39.890625 26.703125 39.890625 
Q 22.75 39.890625 18.8125 39.015625 
Q 14.890625 38.140625 10.796875 36.28125 
z
" id="DejaVuSans-53"/>
      </defs>
      <use transform="translate(0 0.390625)" xlink:href="#DejaVuSans-Oblique-946"/>
      <use transform="translate(83.300781 0.390625)" xlink:href="#DejaVuSans-61"/>
      <use transform="translate(186.572266 0.390625)" xlink:href="#DejaVuSans-48"/>
      <use transform="translate(250.195312 0.390625)" xlink:href="#DejaVuSans-46"/>
      <use transform="translate(281.982422 0.390625)" xlink:href="#DejaVuSans-53"/>
     </g>
    </g>
   </g>
   <g id="PathCollection_1">
    <defs>
     <path d="M 0 3.162278 
C 0.838646 3.162278 1.643056 2.82908 2.236068 2.236068 
C 2.82908 1.643056 3.162278 0.838646 3.162278 0 
C 3.162278 -0.838646 2.82908 -1.643056 2.236068 -2.236068 
C 1.643056 -2.82908 0.838646 -3.162278 0 -3.162278 
C -0.838646 -3.162278 -1.643056 -2.82908 -2.236068 -2.236068 
C -2.82908 -1.643056 -3.162278 -0.838646 -3.162278 0 
C -3.162278 0.838646 -2.82908 1.643056 -2.236068 2.236068 
C -1.643056 2.82908 -0.838646 3.162278 0 3.162278 
z
" id="ma71a7c4621" style="stroke:#000000;"/>
    </defs>
    <g clip-path="url(#pe6cf92f9fc)">
     <use style="stroke:#000000;" x="100.861662" xlink:href="#ma71a7c4621" y="172.030938"/>
    </g>
   </g>
   <g id="PathCollection_2">
    <path clip-path="url(#pe6cf92f9fc)" d="M 219.9398 175.193215 
C 220.778446 175.193215 221.582856 174.860018 222.175868 174.267005 
C 222.76888 173.673993 223.102078 172.869583 223.102078 172.030938 
C 223.102078 171.192292 222.76888 170.387882 222.175868 169.79487 
C 221.582856 169.201857 220.778446 168.86866 219.9398 168.86866 
C 219.101154 168.86866 218.296744 169.201857 217.703732 169.79487 
C 217.11072 170.387882 216.777522 171.192292 216.777522 172.030938 
C 216.777522 172.869583 217.11072 173.673993 217.703732 174.267005 
C 218.296744 174.860018 219.101154 175.193215 219.9398 175.193215 
z
" style="fill:none;stroke:#000000;"/>
   </g>
   <g id="PathCollection_3">
    <g clip-path="url(#pe6cf92f9fc)">
     <use style="stroke:#000000;" x="321.753821" xlink:href="#ma71a7c4621" y="172.030938"/>
    </g>
   </g>
   <g id="PathCollection_4">
    <path clip-path="url(#pe6cf92f9fc)" d="M 423.567843 175.193215 
C 424.406489 175.193215 425.210899 174.860018 425.803911 174.267005 
C 426.396923 173.673993 426.73012 172.869583 426.73012 172.030938 
C 426.73012 171.192292 426.396923 170.387882 425.803911 169.79487 
C 425.210899 169.201857 424.406489 168.86866 423.567843 168.86866 
C 422.729197 168.86866 421.924787 169.201857 421.331775 169.79487 
C 420.738763 170.387882 420.405565 171.192292 420.405565 172.030938 
C 420.405565 172.869583 420.738763 173.673993 421.331775 174.267005 
C 421.924787 174.860018 422.729197 175.193215 423.567843 175.193215 
z
" style="fill:none;stroke:#000000;"/>
   </g>
   <g id="PathCollection_5">
    <g clip-path="url(#pe6cf92f9fc)">
     <use style="stroke:#000000;" x="542.645981" xlink:href="#ma71a7c4621" y="172.030938"/>
    </g>
   </g>
   <g id="PathCollection_6">
    <g clip-path="url(#pe6cf92f9fc)">
     <use style="stroke:#000000;" x="100.861662" xlink:href="#ma71a7c4621" y="172.030938"/>
    </g>
   </g>
   <g id="PathCollection_7">
    <path clip-path="url(#pe6cf92f9fc)" d="M 321.753821 175.193215 
C 322.592467 175.193215 323.396877 174.860018 323.989889 174.267005 
C 324.582902 173.673993 324.916099 172.869583 324.916099 172.030938 
C 324.916099 171.192292 324.582902 170.387882 323.989889 169.79487 
C 323.396877 169.201857 322.592467 168.86866 321.753821 168.86866 
C 320.915176 168.86866 320.110766 169.201857 319.517753 169.79487 
C 318.924741 170.387882 318.591544 171.192292 318.591544 172.030938 
C 318.591544 172.869583 318.924741 173.673993 319.517753 174.267005 
C 320.110766 174.860018 320.915176 175.193215 321.753821 175.193215 
z
" style="fill:none;stroke:#000000;"/>
   </g>
   <g id="PathCollection_8">
    <g clip-path="url(#pe6cf92f9fc)">
     <use style="stroke:#000000;" x="542.645981" xlink:href="#ma71a7c4621" y="172.030938"/>
    </g>
   </g>
   <g id="PathCollection_9">
    <g clip-path="url(#pe6cf92f9fc)">
     <use style="stroke:#000000;" x="100.861662" xlink:href="#ma71a7c4621" y="172.030938"/>
    </g>
   </g>
   <g id="PathCollection_10">
    <path clip-path="url(#pe6cf92f9fc)" d="M 321.753821 175.193215 
C 322.592467 175.193215 323.396877 174.860018 323.989889 174.267005 
C 324.582902 173.673993 324.916099 172.869583 324.916099 172.030938 
C 324.916099 171.192292 324.582902 170.387882 323.989889 169.79487 
C 323.396877 169.201857 322.592467 168.86866 321.753821 168.86866 
C 320.915176 168.86866 320.110766 169.201857 319.517753 169.79487 
C 318.924741 170.387882 318.591544 171.192292 318.591544 172.030938 
C 318.591544 172.869583 318.924741 173.673993 319.517753 174.267005 
C 320.110766 174.860018 320.915176 175.193215 321.753821 175.193215 
z
" style="fill:none;stroke:#000000;"/>
   </g>
   <g id="PathCollection_11">
    <g clip-path="url(#pe6cf92f9fc)">
     <use style="stroke:#000000;" x="542.645981" xlink:href="#ma71a7c4621" y="172.030938"/>
    </g>
   </g>
   <g id="PathCollection_12">
    <g clip-path="url(#pe6cf92f9fc)">
     <use style="stroke:#000000;" x="100.861662" xlink:href="#ma71a7c4621" y="172.030938"/>
    </g>
   </g>
   <g id="PathCollection_13">
    <path clip-path="url(#pe6cf92f9fc)" d="M 321.753821 175.193215 
C 322.592467 175.193215 323.396877 174.860018 323.989889 174.267005 
C 324.582902 173.673993 324.916099 172.869583 324.916099 172.030938 
C 324.916099 171.192292 324.582902 170.387882 323.989889 169.79487 
C 323.396877 169.201857 322.592467 168.86866 321.753821 168.86866 
C 320.915176 168.86866 320.110766 169.201857 319.517753 169.79487 
C 318.924741 170.387882 318.591544 171.192292 318.591544 172.030938 
C 318.591544 172.869583 318.924741 173.673993 319.517753 174.267005 
C 320.110766 174.860018 320.915176 175.193215 321.753821 175.193215 
z
" style="fill:none;stroke:#000000;"/>
   </g>
   <g id="PathCollection_14">
    <g clip-path="url(#pe6cf92f9fc)">
     <use style="stroke:#000000;" x="542.645981" xlink:href="#ma71a7c4621" y="172.030938"/>
    </g>
   </g>
   <g id="PathCollection_15">
    <g clip-path="url(#pe6cf92f9fc)">
     <use style="stroke:#000000;" x="100.861662" xlink:href="#ma71a7c4621" y="172.030938"/>
    </g>
   </g>
   <g id="PathCollection_16">
    <path clip-path="url(#pe6cf92f9fc)" d="M 321.753821 175.193215 
C 322.592467 175.193215 323.396877 174.860018 323.989889 174.267005 
C 324.582902 173.673993 324.916099 172.869583 324.916099 172.030938 
C 324.916099 171.192292 324.582902 170.387882 323.989889 169.79487 
C 323.396877 169.201857 322.592467 168.86866 321.753821 168.86866 
C 320.915176 168.86866 320.110766 169.201857 319.517753 169.79487 
C 318.924741 170.387882 318.591544 171.192292 318.591544 172.030938 
C 318.591544 172.869583 318.924741 173.673993 319.517753 174.267005 
C 320.110766 174.860018 320.915176 175.193215 321.753821 175.193215 
z
" style="fill:none;stroke:#000000;"/>
   </g>
   <g id="PathCollection_17">
    <g clip-path="url(#pe6cf92f9fc)">
     <use style="stroke:#000000;" x="542.645981" xlink:href="#ma71a7c4621" y="172.030938"/>
    </g>
   </g>
  </g>
 </g>
 <defs>
  <clipPath id="pe6cf92f9fc">
   <rect height="285.821875" width="486.449687" x="78.750313" y="29.12"/>
  </clipPath>
 </defs>
</svg>
