<?xml version="1.0" encoding="utf-8" standalone="no"?>
<!DOCTYPE svg PUBLIC "-//W3C//DTD SVG 1.1//EN"
  "http://www.w3.org/Graphics/SVG/1.1/DTD/svg11.dtd">
<!-- Created with matplotlib (https://matplotlib.org/) -->
<svg height="360pt" version="1.1" viewBox="0 0 576 360" width="576pt" xmlns="http://www.w3.org/2000/svg" xmlns:xlink="http://www.w3.org/1999/xlink">
 <metadata>
  <rdf:RDF xmlns:cc="http://creativecommons.org/ns#" xmlns:dc="http://purl.org/dc/elements/1.1/" xmlns:rdf="http://www.w3.org/1999/02/22-rdf-syntax-ns#">
   <cc:Work>
    <dc:type rdf:resource="http://purl.org/dc/dcmitype/StillImage"/>
    <dc:date>2021-05-09T20:49:43.012182</dc:date>
    <dc:format>image/svg+xml</dc:format>
    <dc:creator>
     <cc:Agent>
      <dc:title>Matplotlib v3.3.3, https://matplotlib.org/</dc:title>
     </cc:Agent>
    </dc:creator>
   </cc:Work>
  </rdf:RDF>
 </metadata>
 <defs>
  <style type="text/css">*{stroke-linecap:butt;stroke-linejoin:round;}</style>
 </defs>
 <g id="figure_1">
  <g id="patch_1">
   <path d="M 0 360 
L 576 360 
L 576 0 
L 0 0 
z
" style="fill:#ffffff;"/>
  </g>
  <g id="axes_1">
   <g id="patch_2">
    <path d="M 78.750313 314.941875 
L 565.2 314.941875 
L 565.2 29.12 
L 78.750313 29.12 
z
" style="fill:#ffffff;"/>
   </g>
   <g id="matplotlib.axis_1">
    <g id="xtick_1">
     <g id="line2d_1">
      <defs>
       <path d="M 0 0 
L 0 3.5 
" id="m5bc7a6c4f2" style="stroke:#000000;stroke-width:0.8;"/>
      </defs>
      <g>
       <use style="stroke:#000000;stroke-width:0.8;" x="100.861662" xlink:href="#m5bc7a6c4f2" y="314.941875"/>
      </g>
     </g>
     <g id="text_1">
      <!-- 0.0 -->
      <g transform="translate(92.910099 329.540312)scale(0.1 -0.1)">
       <defs>
        <path d="M 31.78125 66.40625 
Q 24.171875 66.40625 20.328125 58.90625 
Q 16.5 51.421875 16.5 36.375 
Q 16.5 21.390625 20.328125 13.890625 
Q 24.171875 6.390625 31.78125 6.390625 
Q 39.453125 6.390625 43.28125 13.890625 
Q 47.125 21.390625 47.125 36.375 
Q 47.125 51.421875 43.28125 58.90625 
Q 39.453125 66.40625 31.78125 66.40625 
z
M 31.78125 74.21875 
Q 44.046875 74.21875 50.515625 64.515625 
Q 56.984375 54.828125 56.984375 36.375 
Q 56.984375 17.96875 50.515625 8.265625 
Q 44.046875 -1.421875 31.78125 -1.421875 
Q 19.53125 -1.421875 13.0625 8.265625 
Q 6.59375 17.96875 6.59375 36.375 
Q 6.59375 54.828125 13.0625 64.515625 
Q 19.53125 74.21875 31.78125 74.21875 
z
" id="DejaVuSans-48"/>
        <path d="M 10.6875 12.40625 
L 21 12.40625 
L 21 0 
L 10.6875 0 
z
" id="DejaVuSans-46"/>
       </defs>
       <use xlink:href="#DejaVuSans-48"/>
       <use x="63.623047" xlink:href="#DejaVuSans-46"/>
       <use x="95.410156" xlink:href="#DejaVuSans-48"/>
      </g>
     </g>
    </g>
    <g id="xtick_2">
     <g id="line2d_2">
      <g>
       <use style="stroke:#000000;stroke-width:0.8;" x="189.30706" xlink:href="#m5bc7a6c4f2" y="314.941875"/>
      </g>
     </g>
     <g id="text_2">
      <!-- 0.2 -->
      <g transform="translate(181.355497 329.540312)scale(0.1 -0.1)">
       <defs>
        <path d="M 19.1875 8.296875 
L 53.609375 8.296875 
L 53.609375 0 
L 7.328125 0 
L 7.328125 8.296875 
Q 12.9375 14.109375 22.625 23.890625 
Q 32.328125 33.6875 34.8125 36.53125 
Q 39.546875 41.84375 41.421875 45.53125 
Q 43.3125 49.21875 43.3125 52.78125 
Q 43.3125 58.59375 39.234375 62.25 
Q 35.15625 65.921875 28.609375 65.921875 
Q 23.96875 65.921875 18.8125 64.3125 
Q 13.671875 62.703125 7.8125 59.421875 
L 7.8125 69.390625 
Q 13.765625 71.78125 18.9375 73 
Q 24.125 74.21875 28.421875 74.21875 
Q 39.75 74.21875 46.484375 68.546875 
Q 53.21875 62.890625 53.21875 53.421875 
Q 53.21875 48.921875 51.53125 44.890625 
Q 49.859375 40.875 45.40625 35.40625 
Q 44.1875 33.984375 37.640625 27.21875 
Q 31.109375 20.453125 19.1875 8.296875 
z
" id="DejaVuSans-50"/>
       </defs>
       <use xlink:href="#DejaVuSans-48"/>
       <use x="63.623047" xlink:href="#DejaVuSans-46"/>
       <use x="95.410156" xlink:href="#DejaVuSans-50"/>
      </g>
     </g>
    </g>
    <g id="xtick_3">
     <g id="line2d_3">
      <g>
       <use style="stroke:#000000;stroke-width:0.8;" x="277.752457" xlink:href="#m5bc7a6c4f2" y="314.941875"/>
      </g>
     </g>
     <g id="text_3">
      <!-- 0.4 -->
      <g transform="translate(269.800895 329.540312)scale(0.1 -0.1)">
       <defs>
        <path d="M 37.796875 64.3125 
L 12.890625 25.390625 
L 37.796875 25.390625 
z
M 35.203125 72.90625 
L 47.609375 72.90625 
L 47.609375 25.390625 
L 58.015625 25.390625 
L 58.015625 17.1875 
L 47.609375 17.1875 
L 47.609375 0 
L 37.796875 0 
L 37.796875 17.1875 
L 4.890625 17.1875 
L 4.890625 26.703125 
z
" id="DejaVuSans-52"/>
       </defs>
       <use xlink:href="#DejaVuSans-48"/>
       <use x="63.623047" xlink:href="#DejaVuSans-46"/>
       <use x="95.410156" xlink:href="#DejaVuSans-52"/>
      </g>
     </g>
    </g>
    <g id="xtick_4">
     <g id="line2d_4">
      <g>
       <use style="stroke:#000000;stroke-width:0.8;" x="366.197855" xlink:href="#m5bc7a6c4f2" y="314.941875"/>
      </g>
     </g>
     <g id="text_4">
      <!-- 0.6 -->
      <g transform="translate(358.246293 329.540312)scale(0.1 -0.1)">
       <defs>
        <path d="M 33.015625 40.375 
Q 26.375 40.375 22.484375 35.828125 
Q 18.609375 31.296875 18.609375 23.390625 
Q 18.609375 15.53125 22.484375 10.953125 
Q 26.375 6.390625 33.015625 6.390625 
Q 39.65625 6.390625 43.53125 10.953125 
Q 47.40625 15.53125 47.40625 23.390625 
Q 47.40625 31.296875 43.53125 35.828125 
Q 39.65625 40.375 33.015625 40.375 
z
M 52.59375 71.296875 
L 52.59375 62.3125 
Q 48.875 64.0625 45.09375 64.984375 
Q 41.3125 65.921875 37.59375 65.921875 
Q 27.828125 65.921875 22.671875 59.328125 
Q 17.53125 52.734375 16.796875 39.40625 
Q 19.671875 43.65625 24.015625 45.921875 
Q 28.375 48.1875 33.59375 48.1875 
Q 44.578125 48.1875 50.953125 41.515625 
Q 57.328125 34.859375 57.328125 23.390625 
Q 57.328125 12.15625 50.6875 5.359375 
Q 44.046875 -1.421875 33.015625 -1.421875 
Q 20.359375 -1.421875 13.671875 8.265625 
Q 6.984375 17.96875 6.984375 36.375 
Q 6.984375 53.65625 15.1875 63.9375 
Q 23.390625 74.21875 37.203125 74.21875 
Q 40.921875 74.21875 44.703125 73.484375 
Q 48.484375 72.75 52.59375 71.296875 
z
" id="DejaVuSans-54"/>
       </defs>
       <use xlink:href="#DejaVuSans-48"/>
       <use x="63.623047" xlink:href="#DejaVuSans-46"/>
       <use x="95.410156" xlink:href="#DejaVuSans-54"/>
      </g>
     </g>
    </g>
    <g id="xtick_5">
     <g id="line2d_5">
      <g>
       <use style="stroke:#000000;stroke-width:0.8;" x="454.643253" xlink:href="#m5bc7a6c4f2" y="314.941875"/>
      </g>
     </g>
     <g id="text_5">
      <!-- 0.8 -->
      <g transform="translate(446.69169 329.540312)scale(0.1 -0.1)">
       <defs>
        <path d="M 31.78125 34.625 
Q 24.75 34.625 20.71875 30.859375 
Q 16.703125 27.09375 16.703125 20.515625 
Q 16.703125 13.921875 20.71875 10.15625 
Q 24.75 6.390625 31.78125 6.390625 
Q 38.8125 6.390625 42.859375 10.171875 
Q 46.921875 13.96875 46.921875 20.515625 
Q 46.921875 27.09375 42.890625 30.859375 
Q 38.875 34.625 31.78125 34.625 
z
M 21.921875 38.8125 
Q 15.578125 40.375 12.03125 44.71875 
Q 8.5 49.078125 8.5 55.328125 
Q 8.5 64.0625 14.71875 69.140625 
Q 20.953125 74.21875 31.78125 74.21875 
Q 42.671875 74.21875 48.875 69.140625 
Q 55.078125 64.0625 55.078125 55.328125 
Q 55.078125 49.078125 51.53125 44.71875 
Q 48 40.375 41.703125 38.8125 
Q 48.828125 37.15625 52.796875 32.3125 
Q 56.78125 27.484375 56.78125 20.515625 
Q 56.78125 9.90625 50.3125 4.234375 
Q 43.84375 -1.421875 31.78125 -1.421875 
Q 19.734375 -1.421875 13.25 4.234375 
Q 6.78125 9.90625 6.78125 20.515625 
Q 6.78125 27.484375 10.78125 32.3125 
Q 14.796875 37.15625 21.921875 38.8125 
z
M 18.3125 54.390625 
Q 18.3125 48.734375 21.84375 45.5625 
Q 25.390625 42.390625 31.78125 42.390625 
Q 38.140625 42.390625 41.71875 45.5625 
Q 45.3125 48.734375 45.3125 54.390625 
Q 45.3125 60.0625 41.71875 63.234375 
Q 38.140625 66.40625 31.78125 66.40625 
Q 25.390625 66.40625 21.84375 63.234375 
Q 18.3125 60.0625 18.3125 54.390625 
z
" id="DejaVuSans-56"/>
       </defs>
       <use xlink:href="#DejaVuSans-48"/>
       <use x="63.623047" xlink:href="#DejaVuSans-46"/>
       <use x="95.410156" xlink:href="#DejaVuSans-56"/>
      </g>
     </g>
    </g>
    <g id="xtick_6">
     <g id="line2d_6">
      <g>
       <use style="stroke:#000000;stroke-width:0.8;" x="543.088651" xlink:href="#m5bc7a6c4f2" y="314.941875"/>
      </g>
     </g>
     <g id="text_6">
      <!-- 1.0 -->
      <g transform="translate(535.137088 329.540312)scale(0.1 -0.1)">
       <defs>
        <path d="M 12.40625 8.296875 
L 28.515625 8.296875 
L 28.515625 63.921875 
L 10.984375 60.40625 
L 10.984375 69.390625 
L 28.421875 72.90625 
L 38.28125 72.90625 
L 38.28125 8.296875 
L 54.390625 8.296875 
L 54.390625 0 
L 12.40625 0 
z
" id="DejaVuSans-49"/>
       </defs>
       <use xlink:href="#DejaVuSans-49"/>
       <use x="63.623047" xlink:href="#DejaVuSans-46"/>
       <use x="95.410156" xlink:href="#DejaVuSans-48"/>
      </g>
     </g>
    </g>
    <g id="text_7">
     <!-- $\phi$ -->
     <g transform="translate(317.355156 346.26)scale(0.14 -0.14)">
      <defs>
       <path d="M 46.734375 75.984375 
L 42.78125 55.8125 
Q 52.546875 55.8125 57.5625 48.34375 
Q 62.75 40.71875 60.15625 27.296875 
Q 57.515625 13.875 49.359375 6.25 
Q 41.453125 -1.21875 31.6875 -1.21875 
L 27.875 -20.796875 
L 18.953125 -20.796875 
L 22.75 -1.21875 
Q 13.03125 -1.21875 7.953125 6.25 
Q 2.78125 13.875 5.421875 27.296875 
Q 8.015625 40.71875 16.15625 48.34375 
Q 24.125 55.8125 33.84375 55.8125 
L 37.796875 75.984375 
z
M 33.25 6.78125 
Q 38.765625 6.78125 43.5 11.8125 
Q 48.6875 17.4375 50.6875 27.296875 
Q 52.640625 37.0625 49.515625 42.78125 
Q 46.734375 47.796875 41.21875 47.796875 
z
M 24.3125 6.78125 
L 32.28125 47.796875 
Q 26.8125 47.796875 22.078125 42.78125 
Q 16.75 37.0625 14.890625 27.296875 
Q 13.03125 17.4375 16.0625 11.8125 
Q 18.796875 6.78125 24.3125 6.78125 
z
" id="DejaVuSans-Oblique-981"/>
      </defs>
      <use transform="translate(0 0.015625)" xlink:href="#DejaVuSans-Oblique-981"/>
     </g>
    </g>
   </g>
   <g id="matplotlib.axis_2">
    <g id="ytick_1">
     <g id="line2d_7">
      <defs>
       <path d="M 0 0 
L -3.5 0 
" id="mc68856d9a3" style="stroke:#000000;stroke-width:0.8;"/>
      </defs>
      <g>
       <use style="stroke:#000000;stroke-width:0.8;" x="78.750313" xlink:href="#mc68856d9a3" y="296.145704"/>
      </g>
     </g>
     <g id="text_8">
      <!-- −0.0006 -->
      <g transform="translate(28.38 299.944923)scale(0.1 -0.1)">
       <defs>
        <path d="M 10.59375 35.5 
L 73.1875 35.5 
L 73.1875 27.203125 
L 10.59375 27.203125 
z
" id="DejaVuSans-8722"/>
       </defs>
       <use xlink:href="#DejaVuSans-8722"/>
       <use x="83.789062" xlink:href="#DejaVuSans-48"/>
       <use x="147.412109" xlink:href="#DejaVuSans-46"/>
       <use x="179.199219" xlink:href="#DejaVuSans-48"/>
       <use x="242.822266" xlink:href="#DejaVuSans-48"/>
       <use x="306.445312" xlink:href="#DejaVuSans-48"/>
       <use x="370.068359" xlink:href="#DejaVuSans-54"/>
      </g>
     </g>
    </g>
    <g id="ytick_2">
     <g id="line2d_8">
      <g>
       <use style="stroke:#000000;stroke-width:0.8;" x="78.750313" xlink:href="#mc68856d9a3" y="254.774115"/>
      </g>
     </g>
     <g id="text_9">
      <!-- −0.0004 -->
      <g transform="translate(28.38 258.573334)scale(0.1 -0.1)">
       <use xlink:href="#DejaVuSans-8722"/>
       <use x="83.789062" xlink:href="#DejaVuSans-48"/>
       <use x="147.412109" xlink:href="#DejaVuSans-46"/>
       <use x="179.199219" xlink:href="#DejaVuSans-48"/>
       <use x="242.822266" xlink:href="#DejaVuSans-48"/>
       <use x="306.445312" xlink:href="#DejaVuSans-48"/>
       <use x="370.068359" xlink:href="#DejaVuSans-52"/>
      </g>
     </g>
    </g>
    <g id="ytick_3">
     <g id="line2d_9">
      <g>
       <use style="stroke:#000000;stroke-width:0.8;" x="78.750313" xlink:href="#mc68856d9a3" y="213.402526"/>
      </g>
     </g>
     <g id="text_10">
      <!-- −0.0002 -->
      <g transform="translate(28.38 217.201745)scale(0.1 -0.1)">
       <use xlink:href="#DejaVuSans-8722"/>
       <use x="83.789062" xlink:href="#DejaVuSans-48"/>
       <use x="147.412109" xlink:href="#DejaVuSans-46"/>
       <use x="179.199219" xlink:href="#DejaVuSans-48"/>
       <use x="242.822266" xlink:href="#DejaVuSans-48"/>
       <use x="306.445312" xlink:href="#DejaVuSans-48"/>
       <use x="370.068359" xlink:href="#DejaVuSans-50"/>
      </g>
     </g>
    </g>
    <g id="ytick_4">
     <g id="line2d_10">
      <g>
       <use style="stroke:#000000;stroke-width:0.8;" x="78.750313" xlink:href="#mc68856d9a3" y="172.030938"/>
      </g>
     </g>
     <g id="text_11">
      <!-- 0.0000 -->
      <g transform="translate(36.759688 175.830156)scale(0.1 -0.1)">
       <use xlink:href="#DejaVuSans-48"/>
       <use x="63.623047" xlink:href="#DejaVuSans-46"/>
       <use x="95.410156" xlink:href="#DejaVuSans-48"/>
       <use x="159.033203" xlink:href="#DejaVuSans-48"/>
       <use x="222.65625" xlink:href="#DejaVuSans-48"/>
       <use x="286.279297" xlink:href="#DejaVuSans-48"/>
      </g>
     </g>
    </g>
    <g id="ytick_5">
     <g id="line2d_11">
      <g>
       <use style="stroke:#000000;stroke-width:0.8;" x="78.750313" xlink:href="#mc68856d9a3" y="130.659349"/>
      </g>
     </g>
     <g id="text_12">
      <!-- 0.0002 -->
      <g transform="translate(36.759688 134.458567)scale(0.1 -0.1)">
       <use xlink:href="#DejaVuSans-48"/>
       <use x="63.623047" xlink:href="#DejaVuSans-46"/>
       <use x="95.410156" xlink:href="#DejaVuSans-48"/>
       <use x="159.033203" xlink:href="#DejaVuSans-48"/>
       <use x="222.65625" xlink:href="#DejaVuSans-48"/>
       <use x="286.279297" xlink:href="#DejaVuSans-50"/>
      </g>
     </g>
    </g>
    <g id="ytick_6">
     <g id="line2d_12">
      <g>
       <use style="stroke:#000000;stroke-width:0.8;" x="78.750313" xlink:href="#mc68856d9a3" y="89.28776"/>
      </g>
     </g>
     <g id="text_13">
      <!-- 0.0004 -->
      <g transform="translate(36.759688 93.086979)scale(0.1 -0.1)">
       <use xlink:href="#DejaVuSans-48"/>
       <use x="63.623047" xlink:href="#DejaVuSans-46"/>
       <use x="95.410156" xlink:href="#DejaVuSans-48"/>
       <use x="159.033203" xlink:href="#DejaVuSans-48"/>
       <use x="222.65625" xlink:href="#DejaVuSans-48"/>
       <use x="286.279297" xlink:href="#DejaVuSans-52"/>
      </g>
     </g>
    </g>
    <g id="ytick_7">
     <g id="line2d_13">
      <g>
       <use style="stroke:#000000;stroke-width:0.8;" x="78.750313" xlink:href="#mc68856d9a3" y="47.916171"/>
      </g>
     </g>
     <g id="text_14">
      <!-- 0.0006 -->
      <g transform="translate(36.759688 51.71539)scale(0.1 -0.1)">
       <use xlink:href="#DejaVuSans-48"/>
       <use x="63.623047" xlink:href="#DejaVuSans-46"/>
       <use x="95.410156" xlink:href="#DejaVuSans-48"/>
       <use x="159.033203" xlink:href="#DejaVuSans-48"/>
       <use x="222.65625" xlink:href="#DejaVuSans-48"/>
       <use x="286.279297" xlink:href="#DejaVuSans-54"/>
      </g>
     </g>
    </g>
    <g id="text_15">
     <!-- $G(\phi)$ -->
     <g transform="translate(21.44 187.570938)rotate(-90)scale(0.14 -0.14)">
      <defs>
       <path d="M 54.59375 10.890625 
L 58.40625 29.984375 
L 42.1875 29.984375 
L 43.703125 38.09375 
L 69.578125 38.09375 
L 63.28125 6 
Q 56.78125 2.4375 49.109375 0.5 
Q 41.453125 -1.421875 33.6875 -1.421875 
Q 19.96875 -1.421875 12.234375 6.1875 
Q 4.5 13.8125 4.5 27.390625 
Q 4.5 38.671875 9.203125 48.84375 
Q 13.921875 59.03125 22.21875 65.828125 
Q 27.4375 70.0625 33.640625 72.140625 
Q 39.84375 74.21875 47.40625 74.21875 
Q 54.25 74.21875 60.515625 72.484375 
Q 66.796875 70.75 72.515625 67.28125 
L 70.515625 56.78125 
Q 66.109375 61.375 60.203125 63.796875 
Q 54.296875 66.21875 47.609375 66.21875 
Q 39.84375 66.21875 33.9375 63.25 
Q 28.03125 60.296875 23.390625 54.109375 
Q 19.4375 48.828125 17.15625 41.671875 
Q 14.890625 34.515625 14.890625 27.09375 
Q 14.890625 16.890625 20.109375 11.734375 
Q 25.34375 6.59375 35.6875 6.59375 
Q 40.875 6.59375 45.703125 7.6875 
Q 50.53125 8.796875 54.59375 10.890625 
z
" id="DejaVuSans-Oblique-71"/>
       <path d="M 31 75.875 
Q 24.46875 64.65625 21.28125 53.65625 
Q 18.109375 42.671875 18.109375 31.390625 
Q 18.109375 20.125 21.3125 9.0625 
Q 24.515625 -2 31 -13.1875 
L 23.1875 -13.1875 
Q 15.875 -1.703125 12.234375 9.375 
Q 8.59375 20.453125 8.59375 31.390625 
Q 8.59375 42.28125 12.203125 53.3125 
Q 15.828125 64.359375 23.1875 75.875 
z
" id="DejaVuSans-40"/>
       <path d="M 8.015625 75.875 
L 15.828125 75.875 
Q 23.140625 64.359375 26.78125 53.3125 
Q 30.421875 42.28125 30.421875 31.390625 
Q 30.421875 20.453125 26.78125 9.375 
Q 23.140625 -1.703125 15.828125 -13.1875 
L 8.015625 -13.1875 
Q 14.5 -2 17.703125 9.0625 
Q 20.90625 20.125 20.90625 31.390625 
Q 20.90625 42.671875 17.703125 53.65625 
Q 14.5 64.65625 8.015625 75.875 
z
" id="DejaVuSans-41"/>
      </defs>
      <use transform="translate(0 0.015625)" xlink:href="#DejaVuSans-Oblique-71"/>
      <use transform="translate(77.490234 0.015625)" xlink:href="#DejaVuSans-40"/>
      <use transform="translate(116.503906 0.015625)" xlink:href="#DejaVuSans-Oblique-981"/>
      <use transform="translate(182.470703 0.015625)" xlink:href="#DejaVuSans-41"/>
     </g>
    </g>
   </g>
   <g id="line2d_14">
    <path clip-path="url(#p383bd5e3f3)" d="M 100.861662 172.030938 
L 543.088651 172.030938 
L 543.088651 172.030938 
" style="fill:none;stroke:#000000;stroke-dasharray:5.55,2.4;stroke-dashoffset:0;stroke-width:1.5;"/>
   </g>
   <g id="line2d_15">
    <path clip-path="url(#p383bd5e3f3)" d="M 100.861662 172.030938 
L 101.304332 204.116182 
L 105.731028 198.129392 
L 110.157725 192.522722 
L 114.584421 187.282425 
L 119.011118 182.39517 
L 123.437815 177.848028 
L 127.864511 173.628455 
L 132.291208 169.724288 
L 136.717904 166.123722 
L 141.144601 162.815305 
L 145.571297 159.787924 
L 149.997994 157.030792 
L 154.424691 154.533437 
L 158.851387 152.285693 
L 163.278084 150.277685 
L 167.70478 148.499824 
L 172.131477 146.942791 
L 177.000843 145.47431 
L 181.870209 144.250376 
L 186.739576 143.259643 
L 191.608942 142.4911 
L 196.478308 141.934063 
L 201.790344 141.555424 
L 207.10238 141.403081 
L 212.414416 141.464358 
L 218.169121 141.75755 
L 223.923827 142.271855 
L 230.121202 143.056138 
L 236.318577 144.061992 
L 242.958622 145.36595 
L 250.041337 146.992121 
L 257.566721 148.959472 
L 265.534775 151.280792 
L 273.945498 153.961616 
L 283.241561 157.156038 
L 293.865633 161.043433 
L 307.145723 166.153137 
L 335.476581 177.387239 
L 350.527349 183.18458 
L 361.594091 187.219255 
L 371.332823 190.5378 
L 380.186216 193.31648 
L 388.15427 195.586055 
L 395.679654 197.497775 
L 402.762369 199.065403 
L 409.402414 200.308862 
L 415.599789 201.253196 
L 421.797164 201.970926 
L 427.55187 202.418783 
L 433.306575 202.640912 
L 438.618611 202.632367 
L 443.930647 202.406019 
L 449.242683 201.949063 
L 454.112049 201.316332 
L 458.981415 200.468246 
L 463.850782 199.394003 
L 468.720148 198.082475 
L 473.589514 196.522185 
L 478.016211 194.877922 
L 482.442907 193.009135 
L 486.869604 190.906399 
L 491.296301 188.560012 
L 495.722997 185.959983 
L 500.149694 183.096025 
L 504.57639 179.957542 
L 509.003087 176.533618 
L 513.429783 172.813005 
L 517.85648 168.784112 
L 522.283177 164.434992 
L 526.709873 159.753331 
L 531.13657 154.726434 
L 535.563266 149.341211 
L 539.989963 143.584166 
L 542.645981 139.945693 
L 543.088651 172.030938 
L 543.088651 172.030938 
" style="fill:none;stroke:#aa3863;stroke-linecap:square;stroke-width:1.5;"/>
   </g>
   <g id="line2d_16">
    <path clip-path="url(#p383bd5e3f3)" d="M 100.861662 172.030938 
L 101.304332 236.727445 
L 105.731028 229.80981 
L 110.157725 223.290549 
L 114.584421 217.155389 
L 119.011118 211.390482 
L 123.437815 205.982393 
L 127.864511 200.918086 
L 132.291208 196.184906 
L 136.717904 191.770574 
L 141.144601 187.663168 
L 145.571297 183.851114 
L 149.997994 180.323173 
L 154.424691 177.06843 
L 158.851387 174.076282 
L 163.278084 171.336426 
L 167.70478 168.838849 
L 172.574147 166.35974 
L 177.443513 164.149438 
L 182.312879 162.195742 
L 187.182245 160.486812 
L 192.051612 159.011153 
L 196.920978 157.757604 
L 202.233014 156.630671 
L 207.54505 155.741488 
L 212.857085 155.076786 
L 218.169121 154.62368 
L 223.923827 154.357079 
L 229.678532 154.308648 
L 235.875908 154.483255 
L 242.073283 154.875231 
L 248.713328 155.516294 
L 255.796042 156.428844 
L 263.321427 157.629769 
L 271.28948 159.129336 
L 280.142874 161.030285 
L 289.881606 163.354652 
L 301.391017 166.338866 
L 317.327125 170.72663 
L 345.215313 178.429923 
L 356.724724 181.362186 
L 366.463457 183.625275 
L 375.31685 185.456421 
L 383.284904 186.881398 
L 390.810288 188.001368 
L 397.893003 188.82814 
L 404.533048 189.380103 
L 410.730423 189.681119 
L 416.927798 189.757017 
L 422.682504 189.609786 
L 428.437209 189.237301 
L 433.749245 188.679984 
L 439.061281 187.904676 
L 444.373317 186.898301 
L 449.242683 185.76131 
L 454.112049 184.408165 
L 458.981415 182.827878 
L 463.850782 181.009136 
L 468.720148 178.94029 
L 473.589514 176.609338 
L 478.016211 174.25244 
L 482.442907 171.659135 
L 486.869604 168.819579 
L 491.296301 165.723646 
L 495.722997 162.360914 
L 500.149694 158.720655 
L 504.57639 154.791828 
L 509.003087 150.563059 
L 513.429783 146.022638 
L 517.85648 141.158502 
L 522.283177 135.958221 
L 526.709873 130.408992 
L 531.13657 124.497619 
L 535.563266 118.210503 
L 539.989963 111.53363 
L 542.645981 107.33443 
L 543.088651 172.030938 
L 543.088651 172.030938 
" style="fill:none;stroke:#d97020;stroke-linecap:square;stroke-width:1.5;"/>
   </g>
   <g id="line2d_17">
    <path clip-path="url(#p383bd5e3f3)" d="M 100.861662 172.030938 
L 101.304332 269.338708 
L 105.731028 261.490229 
L 110.157725 254.058376 
L 114.584421 247.028352 
L 119.011118 240.385793 
L 123.437815 234.116759 
L 127.864511 228.207716 
L 132.291208 222.645524 
L 136.717904 217.417425 
L 141.144601 212.51103 
L 145.571297 207.914303 
L 149.997994 203.615554 
L 154.424691 199.603424 
L 158.851387 195.866872 
L 163.278084 192.395166 
L 168.14745 188.869745 
L 173.016816 185.63868 
L 177.886182 182.688888 
L 182.755549 180.007666 
L 187.624915 177.582685 
L 192.494281 175.401966 
L 197.363647 173.45387 
L 202.675683 171.580689 
L 207.987719 169.95661 
L 213.299755 168.567771 
L 218.611791 167.400702 
L 224.366497 166.371453 
L 230.121202 165.570914 
L 236.318577 164.946523 
L 242.515953 164.550011 
L 249.155997 164.356939 
L 255.796042 164.381868 
L 262.878757 164.624327 
L 270.404141 165.098004 
L 278.814865 165.854639 
L 288.110927 166.922374 
L 298.734999 168.37301 
L 312.457759 170.486939 
L 348.314001 176.133011 
L 358.938073 177.519246 
L 368.234136 178.511459 
L 376.644859 179.184005 
L 384.170243 179.569451 
L 391.252958 179.717378 
L 397.893003 179.643304 
L 404.533048 179.340919 
L 410.730423 178.832824 
L 416.485128 178.148888 
L 422.239834 177.244773 
L 427.994539 176.104533 
L 433.306575 174.828239 
L 438.618611 173.323488 
L 443.930647 171.576616 
L 448.800013 169.750615 
L 453.66938 167.698203 
L 458.538746 165.407918 
L 463.408112 162.86797 
L 468.277478 160.066221 
L 473.146845 156.990175 
L 478.016211 153.626958 
L 482.442907 150.309134 
L 486.869604 146.732758 
L 491.296301 142.88728 
L 495.722997 138.761844 
L 500.149694 134.345285 
L 504.57639 129.626113 
L 509.003087 124.5925 
L 513.429783 119.232272 
L 517.85648 113.532891 
L 522.283177 107.48145 
L 526.709873 101.064652 
L 531.13657 94.268804 
L 535.563266 87.079796 
L 539.989963 79.483093 
L 542.645981 74.723167 
L 543.088651 172.030938 
L 543.088651 172.030938 
" style="fill:none;stroke:#ef9f07;stroke-linecap:square;stroke-width:1.5;"/>
   </g>
   <g id="line2d_18">
    <path clip-path="url(#p383bd5e3f3)" d="M 100.861662 172.030938 
L 101.304332 301.949972 
L 106.173698 292.31689 
L 111.043064 283.208144 
L 115.91243 274.603427 
L 120.781797 266.48308 
L 125.651163 258.828071 
L 130.520529 251.61997 
L 135.389895 244.840928 
L 140.259262 238.473656 
L 145.128628 232.501402 
L 149.997994 226.907936 
L 154.86736 221.677523 
L 159.736726 216.79491 
L 164.606093 212.245303 
L 169.475459 208.014354 
L 174.344825 204.088135 
L 179.214191 200.453128 
L 184.083558 197.096207 
L 188.952924 194.004617 
L 193.82229 191.165962 
L 198.691656 188.568188 
L 204.003692 185.995205 
L 209.315728 183.680136 
L 214.627764 181.608595 
L 219.9398 179.766595 
L 225.694506 178.014341 
L 231.449211 176.498662 
L 237.203917 175.203169 
L 243.401292 174.035963 
L 250.041337 173.026159 
L 256.681382 172.242684 
L 263.764096 171.630885 
L 271.28948 171.204673 
L 279.700204 170.963252 
L 288.996267 170.934974 
L 299.620339 171.138763 
L 313.343098 171.644867 
L 346.985992 172.993422 
L 357.610064 173.141233 
L 366.906127 173.046715 
L 374.87418 172.753977 
L 382.399565 172.263056 
L 389.482279 171.581768 
L 396.122324 170.725399 
L 402.319699 169.715451 
L 408.517074 168.482577 
L 414.27178 167.121054 
L 420.026486 165.534349 
L 425.781191 163.705937 
L 431.093227 161.788954 
L 436.405263 159.63781 
L 441.717299 157.238388 
L 447.029335 154.576165 
L 451.898701 151.892172 
L 456.768067 148.962953 
L 461.637433 145.776332 
L 466.5068 142.319783 
L 471.376166 138.580421 
L 476.245532 134.544976 
L 481.114898 130.199784 
L 485.984265 125.530768 
L 490.853631 120.523417 
L 495.280327 115.665107 
L 499.707024 110.503251 
L 504.133721 105.025947 
L 508.560417 99.220947 
L 512.987114 93.075647 
L 517.41381 86.577078 
L 521.840507 79.711887 
L 526.267204 72.46633 
L 530.6939 64.826253 
L 535.120597 56.77708 
L 539.547293 48.303802 
L 542.645981 42.111903 
L 543.088651 172.030938 
L 543.088651 172.030938 
" style="fill:none;stroke:#449775;stroke-linecap:square;stroke-width:1.5;"/>
   </g>
   <g id="patch_3">
    <path d="M 78.750313 314.941875 
L 78.750313 29.12 
" style="fill:none;stroke:#000000;stroke-linecap:square;stroke-linejoin:miter;stroke-width:0.8;"/>
   </g>
   <g id="patch_4">
    <path d="M 565.2 314.941875 
L 565.2 29.12 
" style="fill:none;stroke:#000000;stroke-linecap:square;stroke-linejoin:miter;stroke-width:0.8;"/>
   </g>
   <g id="patch_5">
    <path d="M 78.750313 314.941875 
L 565.2 314.941875 
" style="fill:none;stroke:#000000;stroke-linecap:square;stroke-linejoin:miter;stroke-width:0.8;"/>
   </g>
   <g id="patch_6">
    <path d="M 78.750313 29.12 
L 565.2 29.12 
" style="fill:none;stroke:#000000;stroke-linecap:square;stroke-linejoin:miter;stroke-width:0.8;"/>
   </g>
   <g id="text_16">
    <!-- G-function for different values of $\beta$, with $I = 1.1, \gamma = 0.001$ -->
    <g transform="translate(92.295156 23.12)scale(0.16 -0.16)">
     <defs>
      <path d="M 59.515625 10.40625 
L 59.515625 29.984375 
L 43.40625 29.984375 
L 43.40625 38.09375 
L 69.28125 38.09375 
L 69.28125 6.78125 
Q 63.578125 2.734375 56.6875 0.65625 
Q 49.8125 -1.421875 42 -1.421875 
Q 24.90625 -1.421875 15.25 8.5625 
Q 5.609375 18.5625 5.609375 36.375 
Q 5.609375 54.25 15.25 64.234375 
Q 24.90625 74.21875 42 74.21875 
Q 49.125 74.21875 55.546875 72.453125 
Q 61.96875 70.703125 67.390625 67.28125 
L 67.390625 56.78125 
Q 61.921875 61.421875 55.765625 63.765625 
Q 49.609375 66.109375 42.828125 66.109375 
Q 29.4375 66.109375 22.71875 58.640625 
Q 16.015625 51.171875 16.015625 36.375 
Q 16.015625 21.625 22.71875 14.15625 
Q 29.4375 6.6875 42.828125 6.6875 
Q 48.046875 6.6875 52.140625 7.59375 
Q 56.25 8.5 59.515625 10.40625 
z
" id="DejaVuSans-71"/>
      <path d="M 4.890625 31.390625 
L 31.203125 31.390625 
L 31.203125 23.390625 
L 4.890625 23.390625 
z
" id="DejaVuSans-45"/>
      <path d="M 37.109375 75.984375 
L 37.109375 68.5 
L 28.515625 68.5 
Q 23.6875 68.5 21.796875 66.546875 
Q 19.921875 64.59375 19.921875 59.515625 
L 19.921875 54.6875 
L 34.71875 54.6875 
L 34.71875 47.703125 
L 19.921875 47.703125 
L 19.921875 0 
L 10.890625 0 
L 10.890625 47.703125 
L 2.296875 47.703125 
L 2.296875 54.6875 
L 10.890625 54.6875 
L 10.890625 58.5 
Q 10.890625 67.625 15.140625 71.796875 
Q 19.390625 75.984375 28.609375 75.984375 
z
" id="DejaVuSans-102"/>
      <path d="M 8.5 21.578125 
L 8.5 54.6875 
L 17.484375 54.6875 
L 17.484375 21.921875 
Q 17.484375 14.15625 20.5 10.265625 
Q 23.53125 6.390625 29.59375 6.390625 
Q 36.859375 6.390625 41.078125 11.03125 
Q 45.3125 15.671875 45.3125 23.6875 
L 45.3125 54.6875 
L 54.296875 54.6875 
L 54.296875 0 
L 45.3125 0 
L 45.3125 8.40625 
Q 42.046875 3.421875 37.71875 1 
Q 33.40625 -1.421875 27.6875 -1.421875 
Q 18.265625 -1.421875 13.375 4.4375 
Q 8.5 10.296875 8.5 21.578125 
z
M 31.109375 56 
z
" id="DejaVuSans-117"/>
      <path d="M 54.890625 33.015625 
L 54.890625 0 
L 45.90625 0 
L 45.90625 32.71875 
Q 45.90625 40.484375 42.875 44.328125 
Q 39.84375 48.1875 33.796875 48.1875 
Q 26.515625 48.1875 22.3125 43.546875 
Q 18.109375 38.921875 18.109375 30.90625 
L 18.109375 0 
L 9.078125 0 
L 9.078125 54.6875 
L 18.109375 54.6875 
L 18.109375 46.1875 
Q 21.34375 51.125 25.703125 53.5625 
Q 30.078125 56 35.796875 56 
Q 45.21875 56 50.046875 50.171875 
Q 54.890625 44.34375 54.890625 33.015625 
z
" id="DejaVuSans-110"/>
      <path d="M 48.78125 52.59375 
L 48.78125 44.1875 
Q 44.96875 46.296875 41.140625 47.34375 
Q 37.3125 48.390625 33.40625 48.390625 
Q 24.65625 48.390625 19.8125 42.84375 
Q 14.984375 37.3125 14.984375 27.296875 
Q 14.984375 17.28125 19.8125 11.734375 
Q 24.65625 6.203125 33.40625 6.203125 
Q 37.3125 6.203125 41.140625 7.25 
Q 44.96875 8.296875 48.78125 10.40625 
L 48.78125 2.09375 
Q 45.015625 0.34375 40.984375 -0.53125 
Q 36.96875 -1.421875 32.421875 -1.421875 
Q 20.0625 -1.421875 12.78125 6.34375 
Q 5.515625 14.109375 5.515625 27.296875 
Q 5.515625 40.671875 12.859375 48.328125 
Q 20.21875 56 33.015625 56 
Q 37.15625 56 41.109375 55.140625 
Q 45.0625 54.296875 48.78125 52.59375 
z
" id="DejaVuSans-99"/>
      <path d="M 18.3125 70.21875 
L 18.3125 54.6875 
L 36.8125 54.6875 
L 36.8125 47.703125 
L 18.3125 47.703125 
L 18.3125 18.015625 
Q 18.3125 11.328125 20.140625 9.421875 
Q 21.96875 7.515625 27.59375 7.515625 
L 36.8125 7.515625 
L 36.8125 0 
L 27.59375 0 
Q 17.1875 0 13.234375 3.875 
Q 9.28125 7.765625 9.28125 18.015625 
L 9.28125 47.703125 
L 2.6875 47.703125 
L 2.6875 54.6875 
L 9.28125 54.6875 
L 9.28125 70.21875 
z
" id="DejaVuSans-116"/>
      <path d="M 9.421875 54.6875 
L 18.40625 54.6875 
L 18.40625 0 
L 9.421875 0 
z
M 9.421875 75.984375 
L 18.40625 75.984375 
L 18.40625 64.59375 
L 9.421875 64.59375 
z
" id="DejaVuSans-105"/>
      <path d="M 30.609375 48.390625 
Q 23.390625 48.390625 19.1875 42.75 
Q 14.984375 37.109375 14.984375 27.296875 
Q 14.984375 17.484375 19.15625 11.84375 
Q 23.34375 6.203125 30.609375 6.203125 
Q 37.796875 6.203125 41.984375 11.859375 
Q 46.1875 17.53125 46.1875 27.296875 
Q 46.1875 37.015625 41.984375 42.703125 
Q 37.796875 48.390625 30.609375 48.390625 
z
M 30.609375 56 
Q 42.328125 56 49.015625 48.375 
Q 55.71875 40.765625 55.71875 27.296875 
Q 55.71875 13.875 49.015625 6.21875 
Q 42.328125 -1.421875 30.609375 -1.421875 
Q 18.84375 -1.421875 12.171875 6.21875 
Q 5.515625 13.875 5.515625 27.296875 
Q 5.515625 40.765625 12.171875 48.375 
Q 18.84375 56 30.609375 56 
z
" id="DejaVuSans-111"/>
      <path id="DejaVuSans-32"/>
      <path d="M 41.109375 46.296875 
Q 39.59375 47.171875 37.8125 47.578125 
Q 36.03125 48 33.890625 48 
Q 26.265625 48 22.1875 43.046875 
Q 18.109375 38.09375 18.109375 28.8125 
L 18.109375 0 
L 9.078125 0 
L 9.078125 54.6875 
L 18.109375 54.6875 
L 18.109375 46.1875 
Q 20.953125 51.171875 25.484375 53.578125 
Q 30.03125 56 36.53125 56 
Q 37.453125 56 38.578125 55.875 
Q 39.703125 55.765625 41.0625 55.515625 
z
" id="DejaVuSans-114"/>
      <path d="M 45.40625 46.390625 
L 45.40625 75.984375 
L 54.390625 75.984375 
L 54.390625 0 
L 45.40625 0 
L 45.40625 8.203125 
Q 42.578125 3.328125 38.25 0.953125 
Q 33.9375 -1.421875 27.875 -1.421875 
Q 17.96875 -1.421875 11.734375 6.484375 
Q 5.515625 14.40625 5.515625 27.296875 
Q 5.515625 40.1875 11.734375 48.09375 
Q 17.96875 56 27.875 56 
Q 33.9375 56 38.25 53.625 
Q 42.578125 51.265625 45.40625 46.390625 
z
M 14.796875 27.296875 
Q 14.796875 17.390625 18.875 11.75 
Q 22.953125 6.109375 30.078125 6.109375 
Q 37.203125 6.109375 41.296875 11.75 
Q 45.40625 17.390625 45.40625 27.296875 
Q 45.40625 37.203125 41.296875 42.84375 
Q 37.203125 48.484375 30.078125 48.484375 
Q 22.953125 48.484375 18.875 42.84375 
Q 14.796875 37.203125 14.796875 27.296875 
z
" id="DejaVuSans-100"/>
      <path d="M 56.203125 29.59375 
L 56.203125 25.203125 
L 14.890625 25.203125 
Q 15.484375 15.921875 20.484375 11.0625 
Q 25.484375 6.203125 34.421875 6.203125 
Q 39.59375 6.203125 44.453125 7.46875 
Q 49.3125 8.734375 54.109375 11.28125 
L 54.109375 2.78125 
Q 49.265625 0.734375 44.1875 -0.34375 
Q 39.109375 -1.421875 33.890625 -1.421875 
Q 20.796875 -1.421875 13.15625 6.1875 
Q 5.515625 13.8125 5.515625 26.8125 
Q 5.515625 40.234375 12.765625 48.109375 
Q 20.015625 56 32.328125 56 
Q 43.359375 56 49.78125 48.890625 
Q 56.203125 41.796875 56.203125 29.59375 
z
M 47.21875 32.234375 
Q 47.125 39.59375 43.09375 43.984375 
Q 39.0625 48.390625 32.421875 48.390625 
Q 24.90625 48.390625 20.390625 44.140625 
Q 15.875 39.890625 15.1875 32.171875 
z
" id="DejaVuSans-101"/>
      <path d="M 2.984375 54.6875 
L 12.5 54.6875 
L 29.59375 8.796875 
L 46.6875 54.6875 
L 56.203125 54.6875 
L 35.6875 0 
L 23.484375 0 
z
" id="DejaVuSans-118"/>
      <path d="M 34.28125 27.484375 
Q 23.390625 27.484375 19.1875 25 
Q 14.984375 22.515625 14.984375 16.5 
Q 14.984375 11.71875 18.140625 8.90625 
Q 21.296875 6.109375 26.703125 6.109375 
Q 34.1875 6.109375 38.703125 11.40625 
Q 43.21875 16.703125 43.21875 25.484375 
L 43.21875 27.484375 
z
M 52.203125 31.203125 
L 52.203125 0 
L 43.21875 0 
L 43.21875 8.296875 
Q 40.140625 3.328125 35.546875 0.953125 
Q 30.953125 -1.421875 24.3125 -1.421875 
Q 15.921875 -1.421875 10.953125 3.296875 
Q 6 8.015625 6 15.921875 
Q 6 25.140625 12.171875 29.828125 
Q 18.359375 34.515625 30.609375 34.515625 
L 43.21875 34.515625 
L 43.21875 35.40625 
Q 43.21875 41.609375 39.140625 45 
Q 35.0625 48.390625 27.6875 48.390625 
Q 23 48.390625 18.546875 47.265625 
Q 14.109375 46.140625 10.015625 43.890625 
L 10.015625 52.203125 
Q 14.9375 54.109375 19.578125 55.046875 
Q 24.21875 56 28.609375 56 
Q 40.484375 56 46.34375 49.84375 
Q 52.203125 43.703125 52.203125 31.203125 
z
" id="DejaVuSans-97"/>
      <path d="M 9.421875 75.984375 
L 18.40625 75.984375 
L 18.40625 0 
L 9.421875 0 
z
" id="DejaVuSans-108"/>
      <path d="M 44.28125 53.078125 
L 44.28125 44.578125 
Q 40.484375 46.53125 36.375 47.5 
Q 32.28125 48.484375 27.875 48.484375 
Q 21.1875 48.484375 17.84375 46.4375 
Q 14.5 44.390625 14.5 40.28125 
Q 14.5 37.15625 16.890625 35.375 
Q 19.28125 33.59375 26.515625 31.984375 
L 29.59375 31.296875 
Q 39.15625 29.25 43.1875 25.515625 
Q 47.21875 21.78125 47.21875 15.09375 
Q 47.21875 7.46875 41.1875 3.015625 
Q 35.15625 -1.421875 24.609375 -1.421875 
Q 20.21875 -1.421875 15.453125 -0.5625 
Q 10.6875 0.296875 5.421875 2 
L 5.421875 11.28125 
Q 10.40625 8.6875 15.234375 7.390625 
Q 20.0625 6.109375 24.8125 6.109375 
Q 31.15625 6.109375 34.5625 8.28125 
Q 37.984375 10.453125 37.984375 14.40625 
Q 37.984375 18.0625 35.515625 20.015625 
Q 33.0625 21.96875 24.703125 23.78125 
L 21.578125 24.515625 
Q 13.234375 26.265625 9.515625 29.90625 
Q 5.8125 33.546875 5.8125 39.890625 
Q 5.8125 47.609375 11.28125 51.796875 
Q 16.75 56 26.8125 56 
Q 31.78125 56 36.171875 55.265625 
Q 40.578125 54.546875 44.28125 53.078125 
z
" id="DejaVuSans-115"/>
      <path d="M 13.625 3.375 
L 8.9375 -20.796875 
L -0.09375 -20.796875 
L 14.5 54.34375 
Q 18.84375 76.609375 39.65625 76.609375 
Q 60.75 76.609375 57.171875 57.8125 
Q 54.734375 44.4375 45.21875 39.546875 
Q 58.015625 35.15625 55.515625 22.125 
Q 51.125 -1.078125 27.484375 -1.03125 
Q 17.140625 -0.984375 13.625 3.375 
z
M 15.921875 15.09375 
Q 19.671875 6.59375 29.296875 6.640625 
Q 43.359375 6.640625 46.34375 21.96875 
Q 49.03125 35.75 26.171875 34.671875 
L 27.78125 42.96875 
Q 45.453125 42.671875 48.53125 58.59375 
Q 50.640625 69.34375 39.203125 69.28125 
Q 26.421875 69.28125 23.484375 54.046875 
z
" id="DejaVuSans-Oblique-946"/>
      <path d="M 11.71875 12.40625 
L 22.015625 12.40625 
L 22.015625 4 
L 14.015625 -11.625 
L 7.71875 -11.625 
L 11.71875 4 
z
" id="DejaVuSans-44"/>
      <path d="M 4.203125 54.6875 
L 13.1875 54.6875 
L 24.421875 12.015625 
L 35.59375 54.6875 
L 46.1875 54.6875 
L 57.421875 12.015625 
L 68.609375 54.6875 
L 77.59375 54.6875 
L 63.28125 0 
L 52.6875 0 
L 40.921875 44.828125 
L 29.109375 0 
L 18.5 0 
z
" id="DejaVuSans-119"/>
      <path d="M 54.890625 33.015625 
L 54.890625 0 
L 45.90625 0 
L 45.90625 32.71875 
Q 45.90625 40.484375 42.875 44.328125 
Q 39.84375 48.1875 33.796875 48.1875 
Q 26.515625 48.1875 22.3125 43.546875 
Q 18.109375 38.921875 18.109375 30.90625 
L 18.109375 0 
L 9.078125 0 
L 9.078125 75.984375 
L 18.109375 75.984375 
L 18.109375 46.1875 
Q 21.34375 51.125 25.703125 53.5625 
Q 30.078125 56 35.796875 56 
Q 45.21875 56 50.046875 50.171875 
Q 54.890625 44.34375 54.890625 33.015625 
z
" id="DejaVuSans-104"/>
      <path d="M 16.890625 72.90625 
L 26.8125 72.90625 
L 12.59375 0 
L 2.6875 0 
z
" id="DejaVuSans-Oblique-73"/>
      <path d="M 10.59375 45.40625 
L 73.1875 45.40625 
L 73.1875 37.203125 
L 10.59375 37.203125 
z
M 10.59375 25.484375 
L 73.1875 25.484375 
L 73.1875 17.1875 
L 10.59375 17.1875 
z
" id="DejaVuSans-61"/>
      <path d="M 23.296875 46.09375 
L 28.71875 12.3125 
L 54 54.6875 
L 63.53125 54.6875 
L 30.8125 0 
L 26.765625 -20.796875 
L 17.78125 -20.796875 
L 21.828125 0 
L 15.4375 40.828125 
Q 14.453125 46.96875 9.8125 46.96875 
L 7.421875 46.96875 
L 8.890625 54.6875 
L 12.3125 54.6875 
Q 21.921875 54.6875 23.296875 46.09375 
z
" id="DejaVuSans-Oblique-947"/>
     </defs>
     <use transform="translate(0 0.390625)" xlink:href="#DejaVuSans-71"/>
     <use transform="translate(77.490234 0.390625)" xlink:href="#DejaVuSans-45"/>
     <use transform="translate(113.574219 0.390625)" xlink:href="#DejaVuSans-102"/>
     <use transform="translate(148.779297 0.390625)" xlink:href="#DejaVuSans-117"/>
     <use transform="translate(212.158203 0.390625)" xlink:href="#DejaVuSans-110"/>
     <use transform="translate(275.537109 0.390625)" xlink:href="#DejaVuSans-99"/>
     <use transform="translate(330.517578 0.390625)" xlink:href="#DejaVuSans-116"/>
     <use transform="translate(369.726562 0.390625)" xlink:href="#DejaVuSans-105"/>
     <use transform="translate(397.509766 0.390625)" xlink:href="#DejaVuSans-111"/>
     <use transform="translate(458.691406 0.390625)" xlink:href="#DejaVuSans-110"/>
     <use transform="translate(522.070312 0.390625)" xlink:href="#DejaVuSans-32"/>
     <use transform="translate(553.857422 0.390625)" xlink:href="#DejaVuSans-102"/>
     <use transform="translate(589.0625 0.390625)" xlink:href="#DejaVuSans-111"/>
     <use transform="translate(650.244141 0.390625)" xlink:href="#DejaVuSans-114"/>
     <use transform="translate(691.357422 0.390625)" xlink:href="#DejaVuSans-32"/>
     <use transform="translate(723.144531 0.390625)" xlink:href="#DejaVuSans-100"/>
     <use transform="translate(786.621094 0.390625)" xlink:href="#DejaVuSans-105"/>
     <use transform="translate(814.404297 0.390625)" xlink:href="#DejaVuSans-102"/>
     <use transform="translate(849.609375 0.390625)" xlink:href="#DejaVuSans-102"/>
     <use transform="translate(884.814453 0.390625)" xlink:href="#DejaVuSans-101"/>
     <use transform="translate(946.337891 0.390625)" xlink:href="#DejaVuSans-114"/>
     <use transform="translate(987.451172 0.390625)" xlink:href="#DejaVuSans-101"/>
     <use transform="translate(1048.974609 0.390625)" xlink:href="#DejaVuSans-110"/>
     <use transform="translate(1112.353516 0.390625)" xlink:href="#DejaVuSans-116"/>
     <use transform="translate(1151.5625 0.390625)" xlink:href="#DejaVuSans-32"/>
     <use transform="translate(1183.349609 0.390625)" xlink:href="#DejaVuSans-118"/>
     <use transform="translate(1242.529297 0.390625)" xlink:href="#DejaVuSans-97"/>
     <use transform="translate(1303.808594 0.390625)" xlink:href="#DejaVuSans-108"/>
     <use transform="translate(1331.591797 0.390625)" xlink:href="#DejaVuSans-117"/>
     <use transform="translate(1394.970703 0.390625)" xlink:href="#DejaVuSans-101"/>
     <use transform="translate(1456.494141 0.390625)" xlink:href="#DejaVuSans-115"/>
     <use transform="translate(1508.59375 0.390625)" xlink:href="#DejaVuSans-32"/>
     <use transform="translate(1540.380859 0.390625)" xlink:href="#DejaVuSans-111"/>
     <use transform="translate(1601.5625 0.390625)" xlink:href="#DejaVuSans-102"/>
     <use transform="translate(1636.767578 0.390625)" xlink:href="#DejaVuSans-32"/>
     <use transform="translate(1668.554688 0.390625)" xlink:href="#DejaVuSans-Oblique-946"/>
     <use transform="translate(1732.373047 0.390625)" xlink:href="#DejaVuSans-44"/>
     <use transform="translate(1764.160156 0.390625)" xlink:href="#DejaVuSans-32"/>
     <use transform="translate(1795.947266 0.390625)" xlink:href="#DejaVuSans-119"/>
     <use transform="translate(1877.734375 0.390625)" xlink:href="#DejaVuSans-105"/>
     <use transform="translate(1905.517578 0.390625)" xlink:href="#DejaVuSans-116"/>
     <use transform="translate(1944.726562 0.390625)" xlink:href="#DejaVuSans-104"/>
     <use transform="translate(2008.105469 0.390625)" xlink:href="#DejaVuSans-32"/>
     <use transform="translate(2039.892578 0.390625)" xlink:href="#DejaVuSans-Oblique-73"/>
     <use transform="translate(2088.867188 0.390625)" xlink:href="#DejaVuSans-61"/>
     <use transform="translate(2192.138672 0.390625)" xlink:href="#DejaVuSans-49"/>
     <use transform="translate(2255.761719 0.390625)" xlink:href="#DejaVuSans-46"/>
     <use transform="translate(2287.548828 0.390625)" xlink:href="#DejaVuSans-49"/>
     <use transform="translate(2351.171875 0.390625)" xlink:href="#DejaVuSans-44"/>
     <use transform="translate(2402.441406 0.390625)" xlink:href="#DejaVuSans-Oblique-947"/>
     <use transform="translate(2481.103516 0.390625)" xlink:href="#DejaVuSans-61"/>
     <use transform="translate(2584.375 0.390625)" xlink:href="#DejaVuSans-48"/>
     <use transform="translate(2647.998047 0.390625)" xlink:href="#DejaVuSans-46"/>
     <use transform="translate(2679.785156 0.390625)" xlink:href="#DejaVuSans-48"/>
     <use transform="translate(2743.408203 0.390625)" xlink:href="#DejaVuSans-48"/>
     <use transform="translate(2807.03125 0.390625)" xlink:href="#DejaVuSans-49"/>
    </g>
   </g>
   <g id="legend_1">
    <g id="patch_7">
     <path d="M 85.750313 96.32 
L 152.350313 96.32 
Q 154.350313 96.32 154.350313 94.32 
L 154.350313 36.12 
Q 154.350313 34.12 152.350313 34.12 
L 85.750313 34.12 
Q 83.750313 34.12 83.750313 36.12 
L 83.750313 94.32 
Q 83.750313 96.32 85.750313 96.32 
z
" style="fill:#ffffff;opacity:0.8;stroke:#cccccc;stroke-linejoin:miter;"/>
    </g>
    <g id="line2d_19">
     <path d="M 87.750313 42.32 
L 107.750313 42.32 
" style="fill:none;stroke:#aa3863;stroke-linecap:square;stroke-width:1.5;"/>
    </g>
    <g id="line2d_20"/>
    <g id="text_17">
     <!-- $\beta = 0.1$ -->
     <g transform="translate(115.750313 45.82)scale(0.1 -0.1)">
      <use transform="translate(0 0.390625)" xlink:href="#DejaVuSans-Oblique-946"/>
      <use transform="translate(83.300781 0.390625)" xlink:href="#DejaVuSans-61"/>
      <use transform="translate(186.572266 0.390625)" xlink:href="#DejaVuSans-48"/>
      <use transform="translate(250.195312 0.390625)" xlink:href="#DejaVuSans-46"/>
      <use transform="translate(281.982422 0.390625)" xlink:href="#DejaVuSans-49"/>
     </g>
    </g>
    <g id="line2d_21">
     <path d="M 87.750313 57.12 
L 107.750313 57.12 
" style="fill:none;stroke:#d97020;stroke-linecap:square;stroke-width:1.5;"/>
    </g>
    <g id="line2d_22"/>
    <g id="text_18">
     <!-- $\beta = 0.2$ -->
     <g transform="translate(115.750313 60.62)scale(0.1 -0.1)">
      <use transform="translate(0 0.390625)" xlink:href="#DejaVuSans-Oblique-946"/>
      <use transform="translate(83.300781 0.390625)" xlink:href="#DejaVuSans-61"/>
      <use transform="translate(186.572266 0.390625)" xlink:href="#DejaVuSans-48"/>
      <use transform="translate(250.195312 0.390625)" xlink:href="#DejaVuSans-46"/>
      <use transform="translate(276.482422 0.390625)" xlink:href="#DejaVuSans-50"/>
     </g>
    </g>
    <g id="line2d_23">
     <path d="M 87.750313 71.92 
L 107.750313 71.92 
" style="fill:none;stroke:#ef9f07;stroke-linecap:square;stroke-width:1.5;"/>
    </g>
    <g id="line2d_24"/>
    <g id="text_19">
     <!-- $\beta = 0.3$ -->
     <g transform="translate(115.750313 75.42)scale(0.1 -0.1)">
      <defs>
       <path d="M 40.578125 39.3125 
Q 47.65625 37.796875 51.625 33 
Q 55.609375 28.21875 55.609375 21.1875 
Q 55.609375 10.40625 48.1875 4.484375 
Q 40.765625 -1.421875 27.09375 -1.421875 
Q 22.515625 -1.421875 17.65625 -0.515625 
Q 12.796875 0.390625 7.625 2.203125 
L 7.625 11.71875 
Q 11.71875 9.328125 16.59375 8.109375 
Q 21.484375 6.890625 26.8125 6.890625 
Q 36.078125 6.890625 40.9375 10.546875 
Q 45.796875 14.203125 45.796875 21.1875 
Q 45.796875 27.640625 41.28125 31.265625 
Q 36.765625 34.90625 28.71875 34.90625 
L 20.21875 34.90625 
L 20.21875 43.015625 
L 29.109375 43.015625 
Q 36.375 43.015625 40.234375 45.921875 
Q 44.09375 48.828125 44.09375 54.296875 
Q 44.09375 59.90625 40.109375 62.90625 
Q 36.140625 65.921875 28.71875 65.921875 
Q 24.65625 65.921875 20.015625 65.03125 
Q 15.375 64.15625 9.8125 62.3125 
L 9.8125 71.09375 
Q 15.4375 72.65625 20.34375 73.4375 
Q 25.25 74.21875 29.59375 74.21875 
Q 40.828125 74.21875 47.359375 69.109375 
Q 53.90625 64.015625 53.90625 55.328125 
Q 53.90625 49.265625 50.4375 45.09375 
Q 46.96875 40.921875 40.578125 39.3125 
z
" id="DejaVuSans-51"/>
      </defs>
      <use transform="translate(0 0.390625)" xlink:href="#DejaVuSans-Oblique-946"/>
      <use transform="translate(83.300781 0.390625)" xlink:href="#DejaVuSans-61"/>
      <use transform="translate(186.572266 0.390625)" xlink:href="#DejaVuSans-48"/>
      <use transform="translate(250.195312 0.390625)" xlink:href="#DejaVuSans-46"/>
      <use transform="translate(281.982422 0.390625)" xlink:href="#DejaVuSans-51"/>
     </g>
    </g>
    <g id="line2d_25">
     <path d="M 87.750313 86.72 
L 107.750313 86.72 
" style="fill:none;stroke:#449775;stroke-linecap:square;stroke-width:1.5;"/>
    </g>
    <g id="line2d_26"/>
    <g id="text_20">
     <!-- $\beta = 0.4$ -->
     <g transform="translate(115.750313 90.22)scale(0.1 -0.1)">
      <use transform="translate(0 0.390625)" xlink:href="#DejaVuSans-Oblique-946"/>
      <use transform="translate(83.300781 0.390625)" xlink:href="#DejaVuSans-61"/>
      <use transform="translate(186.572266 0.390625)" xlink:href="#DejaVuSans-48"/>
      <use transform="translate(250.195312 0.390625)" xlink:href="#DejaVuSans-46"/>
      <use transform="translate(281.982422 0.390625)" xlink:href="#DejaVuSans-52"/>
     </g>
    </g>
   </g>
   <g id="PathCollection_1">
    <defs>
     <path d="M 0 3.162278 
C 0.838646 3.162278 1.643056 2.82908 2.236068 2.236068 
C 2.82908 1.643056 3.162278 0.838646 3.162278 0 
C 3.162278 -0.838646 2.82908 -1.643056 2.236068 -2.236068 
C 1.643056 -2.82908 0.838646 -3.162278 0 -3.162278 
C -0.838646 -3.162278 -1.643056 -2.82908 -2.236068 -2.236068 
C -2.82908 -1.643056 -3.162278 -0.838646 -3.162278 0 
C -3.162278 0.838646 -2.82908 1.643056 -2.236068 2.236068 
C -1.643056 2.82908 -0.838646 3.162278 0 3.162278 
z
" id="mdf54f3aec7" style="stroke:#000000;"/>
    </defs>
    <g clip-path="url(#p383bd5e3f3)">
     <use style="stroke:#000000;" x="100.861662" xlink:href="#mdf54f3aec7" y="172.030938"/>
    </g>
   </g>
   <g id="PathCollection_2">
    <path clip-path="url(#p383bd5e3f3)" d="M 129.19252 175.193215 
C 130.031166 175.193215 130.835576 174.860018 131.428588 174.267005 
C 132.0216 173.673993 132.354798 172.869583 132.354798 172.030938 
C 132.354798 171.192292 132.0216 170.387882 131.428588 169.79487 
C 130.835576 169.201857 130.031166 168.86866 129.19252 168.86866 
C 128.353874 168.86866 127.549464 169.201857 126.956452 169.79487 
C 126.36344 170.387882 126.030242 171.192292 126.030242 172.030938 
C 126.030242 172.869583 126.36344 173.673993 126.956452 174.267005 
C 127.549464 174.860018 128.353874 175.193215 129.19252 175.193215 
z
" style="fill:none;stroke:#000000;"/>
   </g>
   <g id="PathCollection_3">
    <g clip-path="url(#p383bd5e3f3)">
     <use style="stroke:#000000;" x="321.753821" xlink:href="#mdf54f3aec7" y="172.030938"/>
    </g>
   </g>
   <g id="PathCollection_4">
    <path clip-path="url(#p383bd5e3f3)" d="M 514.315123 175.193215 
C 515.153769 175.193215 515.958179 174.860018 516.551191 174.267005 
C 517.144203 173.673993 517.4774 172.869583 517.4774 172.030938 
C 517.4774 171.192292 517.144203 170.387882 516.551191 169.79487 
C 515.958179 169.201857 515.153769 168.86866 514.315123 168.86866 
C 513.476477 168.86866 512.672067 169.201857 512.079055 169.79487 
C 511.486043 170.387882 511.152845 171.192292 511.152845 172.030938 
C 511.152845 172.869583 511.486043 173.673993 512.079055 174.267005 
C 512.672067 174.860018 513.476477 175.193215 514.315123 175.193215 
z
" style="fill:none;stroke:#000000;"/>
   </g>
   <g id="PathCollection_5">
    <g clip-path="url(#p383bd5e3f3)">
     <use style="stroke:#000000;" x="542.645981" xlink:href="#mdf54f3aec7" y="172.030938"/>
    </g>
   </g>
   <g id="PathCollection_6">
    <g clip-path="url(#p383bd5e3f3)">
     <use style="stroke:#000000;" x="100.861662" xlink:href="#mdf54f3aec7" y="172.030938"/>
    </g>
   </g>
   <g id="PathCollection_7">
    <path clip-path="url(#p383bd5e3f3)" d="M 161.950075 175.193215 
C 162.788721 175.193215 163.593131 174.860018 164.186143 174.267005 
C 164.779155 173.673993 165.112352 172.869583 165.112352 172.030938 
C 165.112352 171.192292 164.779155 170.387882 164.186143 169.79487 
C 163.593131 169.201857 162.788721 168.86866 161.950075 168.86866 
C 161.111429 168.86866 160.307019 169.201857 159.714007 169.79487 
C 159.120995 170.387882 158.787797 171.192292 158.787797 172.030938 
C 158.787797 172.869583 159.120995 173.673993 159.714007 174.267005 
C 160.307019 174.860018 161.111429 175.193215 161.950075 175.193215 
z
" style="fill:none;stroke:#000000;"/>
   </g>
   <g id="PathCollection_8">
    <g clip-path="url(#p383bd5e3f3)">
     <use style="stroke:#000000;" x="321.753821" xlink:href="#mdf54f3aec7" y="172.030938"/>
    </g>
   </g>
   <g id="PathCollection_9">
    <path clip-path="url(#p383bd5e3f3)" d="M 481.557568 175.193215 
C 482.396214 175.193215 483.200624 174.860018 483.793636 174.267005 
C 484.386648 173.673993 484.719846 172.869583 484.719846 172.030938 
C 484.719846 171.192292 484.386648 170.387882 483.793636 169.79487 
C 483.200624 169.201857 482.396214 168.86866 481.557568 168.86866 
C 480.718922 168.86866 479.914512 169.201857 479.3215 169.79487 
C 478.728488 170.387882 478.39529 171.192292 478.39529 172.030938 
C 478.39529 172.869583 478.728488 173.673993 479.3215 174.267005 
C 479.914512 174.860018 480.718922 175.193215 481.557568 175.193215 
z
" style="fill:none;stroke:#000000;"/>
   </g>
   <g id="PathCollection_10">
    <g clip-path="url(#p383bd5e3f3)">
     <use style="stroke:#000000;" x="542.645981" xlink:href="#mdf54f3aec7" y="172.030938"/>
    </g>
   </g>
   <g id="PathCollection_11">
    <g clip-path="url(#p383bd5e3f3)">
     <use style="stroke:#000000;" x="100.861662" xlink:href="#mdf54f3aec7" y="172.030938"/>
    </g>
   </g>
   <g id="PathCollection_12">
    <path clip-path="url(#p383bd5e3f3)" d="M 200.905005 175.193215 
C 201.743651 175.193215 202.548061 174.860018 203.141073 174.267005 
C 203.734085 173.673993 204.067282 172.869583 204.067282 172.030938 
C 204.067282 171.192292 203.734085 170.387882 203.141073 169.79487 
C 202.548061 169.201857 201.743651 168.86866 200.905005 168.86866 
C 200.066359 168.86866 199.261949 169.201857 198.668937 169.79487 
C 198.075925 170.387882 197.742727 171.192292 197.742727 172.030938 
C 197.742727 172.869583 198.075925 173.673993 198.668937 174.267005 
C 199.261949 174.860018 200.066359 175.193215 200.905005 175.193215 
z
" style="fill:none;stroke:#000000;"/>
   </g>
   <g id="PathCollection_13">
    <g clip-path="url(#p383bd5e3f3)">
     <use style="stroke:#000000;" x="321.753821" xlink:href="#mdf54f3aec7" y="172.030938"/>
    </g>
   </g>
   <g id="PathCollection_14">
    <path clip-path="url(#p383bd5e3f3)" d="M 442.602638 175.193215 
C 443.441284 175.193215 444.245694 174.860018 444.838706 174.267005 
C 445.431718 173.673993 445.764916 172.869583 445.764916 172.030938 
C 445.764916 171.192292 445.431718 170.387882 444.838706 169.79487 
C 444.245694 169.201857 443.441284 168.86866 442.602638 168.86866 
C 441.763992 168.86866 440.959582 169.201857 440.36657 169.79487 
C 439.773558 170.387882 439.44036 171.192292 439.44036 172.030938 
C 439.44036 172.869583 439.773558 173.673993 440.36657 174.267005 
C 440.959582 174.860018 441.763992 175.193215 442.602638 175.193215 
z
" style="fill:none;stroke:#000000;"/>
   </g>
   <g id="PathCollection_15">
    <g clip-path="url(#p383bd5e3f3)">
     <use style="stroke:#000000;" x="542.645981" xlink:href="#mdf54f3aec7" y="172.030938"/>
    </g>
   </g>
   <g id="PathCollection_16">
    <g clip-path="url(#p383bd5e3f3)">
     <use style="stroke:#000000;" x="100.861662" xlink:href="#mdf54f3aec7" y="172.030938"/>
    </g>
   </g>
   <g id="PathCollection_17">
    <path clip-path="url(#p383bd5e3f3)" d="M 258.45206 175.193215 
C 259.290706 175.193215 260.095116 174.860018 260.688128 174.267005 
C 261.28114 173.673993 261.614338 172.869583 261.614338 172.030938 
C 261.614338 171.192292 261.28114 170.387882 260.688128 169.79487 
C 260.095116 169.201857 259.290706 168.86866 258.45206 168.86866 
C 257.613414 168.86866 256.809004 169.201857 256.215992 169.79487 
C 255.62298 170.387882 255.289783 171.192292 255.289783 172.030938 
C 255.289783 172.869583 255.62298 173.673993 256.215992 174.267005 
C 256.809004 174.860018 257.613414 175.193215 258.45206 175.193215 
z
" style="fill:none;stroke:#000000;"/>
   </g>
   <g id="PathCollection_18">
    <g clip-path="url(#p383bd5e3f3)">
     <use style="stroke:#000000;" x="321.753821" xlink:href="#mdf54f3aec7" y="172.030938"/>
    </g>
   </g>
   <g id="PathCollection_19">
    <path clip-path="url(#p383bd5e3f3)" d="M 385.055583 175.193215 
C 385.894228 175.193215 386.698638 174.860018 387.291651 174.267005 
C 387.884663 173.673993 388.21786 172.869583 388.21786 172.030938 
C 388.21786 171.192292 387.884663 170.387882 387.291651 169.79487 
C 386.698638 169.201857 385.894228 168.86866 385.055583 168.86866 
C 384.216937 168.86866 383.412527 169.201857 382.819515 169.79487 
C 382.226502 170.387882 381.893305 171.192292 381.893305 172.030938 
C 381.893305 172.869583 382.226502 173.673993 382.819515 174.267005 
C 383.412527 174.860018 384.216937 175.193215 385.055583 175.193215 
z
" style="fill:none;stroke:#000000;"/>
   </g>
   <g id="PathCollection_20">
    <g clip-path="url(#p383bd5e3f3)">
     <use style="stroke:#000000;" x="542.645981" xlink:href="#mdf54f3aec7" y="172.030938"/>
    </g>
   </g>
  </g>
 </g>
 <defs>
  <clipPath id="p383bd5e3f3">
   <rect height="285.821875" width="486.449687" x="78.750313" y="29.12"/>
  </clipPath>
 </defs>
</svg>
