<?xml version="1.0" encoding="utf-8" standalone="no"?>
<!DOCTYPE svg PUBLIC "-//W3C//DTD SVG 1.1//EN"
  "http://www.w3.org/Graphics/SVG/1.1/DTD/svg11.dtd">
<!-- Created with matplotlib (https://matplotlib.org/) -->
<svg height="360pt" version="1.1" viewBox="0 0 576 360" width="576pt" xmlns="http://www.w3.org/2000/svg" xmlns:xlink="http://www.w3.org/1999/xlink">
 <metadata>
  <rdf:RDF xmlns:cc="http://creativecommons.org/ns#" xmlns:dc="http://purl.org/dc/elements/1.1/" xmlns:rdf="http://www.w3.org/1999/02/22-rdf-syntax-ns#">
   <cc:Work>
    <dc:type rdf:resource="http://purl.org/dc/dcmitype/StillImage"/>
    <dc:date>2021-05-09T21:45:21.966591</dc:date>
    <dc:format>image/svg+xml</dc:format>
    <dc:creator>
     <cc:Agent>
      <dc:title>Matplotlib v3.3.3, https://matplotlib.org/</dc:title>
     </cc:Agent>
    </dc:creator>
   </cc:Work>
  </rdf:RDF>
 </metadata>
 <defs>
  <style type="text/css">*{stroke-linecap:butt;stroke-linejoin:round;}</style>
 </defs>
 <g id="figure_1">
  <g id="patch_1">
   <path d="M 0 360 
L 576 360 
L 576 0 
L 0 0 
z
" style="fill:#ffffff;"/>
  </g>
  <g id="axes_1">
   <g id="patch_2">
    <path d="M 78.750313 314.941875 
L 565.2 314.941875 
L 565.2 29.12 
L 78.750313 29.12 
z
" style="fill:#ffffff;"/>
   </g>
   <g id="matplotlib.axis_1">
    <g id="xtick_1">
     <g id="line2d_1">
      <defs>
       <path d="M 0 0 
L 0 3.5 
" id="m340036ab29" style="stroke:#000000;stroke-width:0.8;"/>
      </defs>
      <g>
       <use style="stroke:#000000;stroke-width:0.8;" x="100.861662" xlink:href="#m340036ab29" y="314.941875"/>
      </g>
     </g>
     <g id="text_1">
      <!-- 0.0 -->
      <g transform="translate(92.910099 329.540312)scale(0.1 -0.1)">
       <defs>
        <path d="M 31.78125 66.40625 
Q 24.171875 66.40625 20.328125 58.90625 
Q 16.5 51.421875 16.5 36.375 
Q 16.5 21.390625 20.328125 13.890625 
Q 24.171875 6.390625 31.78125 6.390625 
Q 39.453125 6.390625 43.28125 13.890625 
Q 47.125 21.390625 47.125 36.375 
Q 47.125 51.421875 43.28125 58.90625 
Q 39.453125 66.40625 31.78125 66.40625 
z
M 31.78125 74.21875 
Q 44.046875 74.21875 50.515625 64.515625 
Q 56.984375 54.828125 56.984375 36.375 
Q 56.984375 17.96875 50.515625 8.265625 
Q 44.046875 -1.421875 31.78125 -1.421875 
Q 19.53125 -1.421875 13.0625 8.265625 
Q 6.59375 17.96875 6.59375 36.375 
Q 6.59375 54.828125 13.0625 64.515625 
Q 19.53125 74.21875 31.78125 74.21875 
z
" id="DejaVuSans-48"/>
        <path d="M 10.6875 12.40625 
L 21 12.40625 
L 21 0 
L 10.6875 0 
z
" id="DejaVuSans-46"/>
       </defs>
       <use xlink:href="#DejaVuSans-48"/>
       <use x="63.623047" xlink:href="#DejaVuSans-46"/>
       <use x="95.410156" xlink:href="#DejaVuSans-48"/>
      </g>
     </g>
    </g>
    <g id="xtick_2">
     <g id="line2d_2">
      <g>
       <use style="stroke:#000000;stroke-width:0.8;" x="189.30706" xlink:href="#m340036ab29" y="314.941875"/>
      </g>
     </g>
     <g id="text_2">
      <!-- 0.2 -->
      <g transform="translate(181.355497 329.540312)scale(0.1 -0.1)">
       <defs>
        <path d="M 19.1875 8.296875 
L 53.609375 8.296875 
L 53.609375 0 
L 7.328125 0 
L 7.328125 8.296875 
Q 12.9375 14.109375 22.625 23.890625 
Q 32.328125 33.6875 34.8125 36.53125 
Q 39.546875 41.84375 41.421875 45.53125 
Q 43.3125 49.21875 43.3125 52.78125 
Q 43.3125 58.59375 39.234375 62.25 
Q 35.15625 65.921875 28.609375 65.921875 
Q 23.96875 65.921875 18.8125 64.3125 
Q 13.671875 62.703125 7.8125 59.421875 
L 7.8125 69.390625 
Q 13.765625 71.78125 18.9375 73 
Q 24.125 74.21875 28.421875 74.21875 
Q 39.75 74.21875 46.484375 68.546875 
Q 53.21875 62.890625 53.21875 53.421875 
Q 53.21875 48.921875 51.53125 44.890625 
Q 49.859375 40.875 45.40625 35.40625 
Q 44.1875 33.984375 37.640625 27.21875 
Q 31.109375 20.453125 19.1875 8.296875 
z
" id="DejaVuSans-50"/>
       </defs>
       <use xlink:href="#DejaVuSans-48"/>
       <use x="63.623047" xlink:href="#DejaVuSans-46"/>
       <use x="95.410156" xlink:href="#DejaVuSans-50"/>
      </g>
     </g>
    </g>
    <g id="xtick_3">
     <g id="line2d_3">
      <g>
       <use style="stroke:#000000;stroke-width:0.8;" x="277.752457" xlink:href="#m340036ab29" y="314.941875"/>
      </g>
     </g>
     <g id="text_3">
      <!-- 0.4 -->
      <g transform="translate(269.800895 329.540312)scale(0.1 -0.1)">
       <defs>
        <path d="M 37.796875 64.3125 
L 12.890625 25.390625 
L 37.796875 25.390625 
z
M 35.203125 72.90625 
L 47.609375 72.90625 
L 47.609375 25.390625 
L 58.015625 25.390625 
L 58.015625 17.1875 
L 47.609375 17.1875 
L 47.609375 0 
L 37.796875 0 
L 37.796875 17.1875 
L 4.890625 17.1875 
L 4.890625 26.703125 
z
" id="DejaVuSans-52"/>
       </defs>
       <use xlink:href="#DejaVuSans-48"/>
       <use x="63.623047" xlink:href="#DejaVuSans-46"/>
       <use x="95.410156" xlink:href="#DejaVuSans-52"/>
      </g>
     </g>
    </g>
    <g id="xtick_4">
     <g id="line2d_4">
      <g>
       <use style="stroke:#000000;stroke-width:0.8;" x="366.197855" xlink:href="#m340036ab29" y="314.941875"/>
      </g>
     </g>
     <g id="text_4">
      <!-- 0.6 -->
      <g transform="translate(358.246293 329.540312)scale(0.1 -0.1)">
       <defs>
        <path d="M 33.015625 40.375 
Q 26.375 40.375 22.484375 35.828125 
Q 18.609375 31.296875 18.609375 23.390625 
Q 18.609375 15.53125 22.484375 10.953125 
Q 26.375 6.390625 33.015625 6.390625 
Q 39.65625 6.390625 43.53125 10.953125 
Q 47.40625 15.53125 47.40625 23.390625 
Q 47.40625 31.296875 43.53125 35.828125 
Q 39.65625 40.375 33.015625 40.375 
z
M 52.59375 71.296875 
L 52.59375 62.3125 
Q 48.875 64.0625 45.09375 64.984375 
Q 41.3125 65.921875 37.59375 65.921875 
Q 27.828125 65.921875 22.671875 59.328125 
Q 17.53125 52.734375 16.796875 39.40625 
Q 19.671875 43.65625 24.015625 45.921875 
Q 28.375 48.1875 33.59375 48.1875 
Q 44.578125 48.1875 50.953125 41.515625 
Q 57.328125 34.859375 57.328125 23.390625 
Q 57.328125 12.15625 50.6875 5.359375 
Q 44.046875 -1.421875 33.015625 -1.421875 
Q 20.359375 -1.421875 13.671875 8.265625 
Q 6.984375 17.96875 6.984375 36.375 
Q 6.984375 53.65625 15.1875 63.9375 
Q 23.390625 74.21875 37.203125 74.21875 
Q 40.921875 74.21875 44.703125 73.484375 
Q 48.484375 72.75 52.59375 71.296875 
z
" id="DejaVuSans-54"/>
       </defs>
       <use xlink:href="#DejaVuSans-48"/>
       <use x="63.623047" xlink:href="#DejaVuSans-46"/>
       <use x="95.410156" xlink:href="#DejaVuSans-54"/>
      </g>
     </g>
    </g>
    <g id="xtick_5">
     <g id="line2d_5">
      <g>
       <use style="stroke:#000000;stroke-width:0.8;" x="454.643253" xlink:href="#m340036ab29" y="314.941875"/>
      </g>
     </g>
     <g id="text_5">
      <!-- 0.8 -->
      <g transform="translate(446.69169 329.540312)scale(0.1 -0.1)">
       <defs>
        <path d="M 31.78125 34.625 
Q 24.75 34.625 20.71875 30.859375 
Q 16.703125 27.09375 16.703125 20.515625 
Q 16.703125 13.921875 20.71875 10.15625 
Q 24.75 6.390625 31.78125 6.390625 
Q 38.8125 6.390625 42.859375 10.171875 
Q 46.921875 13.96875 46.921875 20.515625 
Q 46.921875 27.09375 42.890625 30.859375 
Q 38.875 34.625 31.78125 34.625 
z
M 21.921875 38.8125 
Q 15.578125 40.375 12.03125 44.71875 
Q 8.5 49.078125 8.5 55.328125 
Q 8.5 64.0625 14.71875 69.140625 
Q 20.953125 74.21875 31.78125 74.21875 
Q 42.671875 74.21875 48.875 69.140625 
Q 55.078125 64.0625 55.078125 55.328125 
Q 55.078125 49.078125 51.53125 44.71875 
Q 48 40.375 41.703125 38.8125 
Q 48.828125 37.15625 52.796875 32.3125 
Q 56.78125 27.484375 56.78125 20.515625 
Q 56.78125 9.90625 50.3125 4.234375 
Q 43.84375 -1.421875 31.78125 -1.421875 
Q 19.734375 -1.421875 13.25 4.234375 
Q 6.78125 9.90625 6.78125 20.515625 
Q 6.78125 27.484375 10.78125 32.3125 
Q 14.796875 37.15625 21.921875 38.8125 
z
M 18.3125 54.390625 
Q 18.3125 48.734375 21.84375 45.5625 
Q 25.390625 42.390625 31.78125 42.390625 
Q 38.140625 42.390625 41.71875 45.5625 
Q 45.3125 48.734375 45.3125 54.390625 
Q 45.3125 60.0625 41.71875 63.234375 
Q 38.140625 66.40625 31.78125 66.40625 
Q 25.390625 66.40625 21.84375 63.234375 
Q 18.3125 60.0625 18.3125 54.390625 
z
" id="DejaVuSans-56"/>
       </defs>
       <use xlink:href="#DejaVuSans-48"/>
       <use x="63.623047" xlink:href="#DejaVuSans-46"/>
       <use x="95.410156" xlink:href="#DejaVuSans-56"/>
      </g>
     </g>
    </g>
    <g id="xtick_6">
     <g id="line2d_6">
      <g>
       <use style="stroke:#000000;stroke-width:0.8;" x="543.088651" xlink:href="#m340036ab29" y="314.941875"/>
      </g>
     </g>
     <g id="text_6">
      <!-- 1.0 -->
      <g transform="translate(535.137088 329.540312)scale(0.1 -0.1)">
       <defs>
        <path d="M 12.40625 8.296875 
L 28.515625 8.296875 
L 28.515625 63.921875 
L 10.984375 60.40625 
L 10.984375 69.390625 
L 28.421875 72.90625 
L 38.28125 72.90625 
L 38.28125 8.296875 
L 54.390625 8.296875 
L 54.390625 0 
L 12.40625 0 
z
" id="DejaVuSans-49"/>
       </defs>
       <use xlink:href="#DejaVuSans-49"/>
       <use x="63.623047" xlink:href="#DejaVuSans-46"/>
       <use x="95.410156" xlink:href="#DejaVuSans-48"/>
      </g>
     </g>
    </g>
    <g id="text_7">
     <!-- $\phi$ -->
     <g transform="translate(317.355156 346.26)scale(0.14 -0.14)">
      <defs>
       <path d="M 46.734375 75.984375 
L 42.78125 55.8125 
Q 52.546875 55.8125 57.5625 48.34375 
Q 62.75 40.71875 60.15625 27.296875 
Q 57.515625 13.875 49.359375 6.25 
Q 41.453125 -1.21875 31.6875 -1.21875 
L 27.875 -20.796875 
L 18.953125 -20.796875 
L 22.75 -1.21875 
Q 13.03125 -1.21875 7.953125 6.25 
Q 2.78125 13.875 5.421875 27.296875 
Q 8.015625 40.71875 16.15625 48.34375 
Q 24.125 55.8125 33.84375 55.8125 
L 37.796875 75.984375 
z
M 33.25 6.78125 
Q 38.765625 6.78125 43.5 11.8125 
Q 48.6875 17.4375 50.6875 27.296875 
Q 52.640625 37.0625 49.515625 42.78125 
Q 46.734375 47.796875 41.21875 47.796875 
z
M 24.3125 6.78125 
L 32.28125 47.796875 
Q 26.8125 47.796875 22.078125 42.78125 
Q 16.75 37.0625 14.890625 27.296875 
Q 13.03125 17.4375 16.0625 11.8125 
Q 18.796875 6.78125 24.3125 6.78125 
z
" id="DejaVuSans-Oblique-981"/>
      </defs>
      <use transform="translate(0 0.015625)" xlink:href="#DejaVuSans-Oblique-981"/>
     </g>
    </g>
   </g>
   <g id="matplotlib.axis_2">
    <g id="ytick_1">
     <g id="line2d_7">
      <defs>
       <path d="M 0 0 
L -3.5 0 
" id="m541b362ef5" style="stroke:#000000;stroke-width:0.8;"/>
      </defs>
      <g>
       <use style="stroke:#000000;stroke-width:0.8;" x="78.750313" xlink:href="#m541b362ef5" y="299.658658"/>
      </g>
     </g>
     <g id="text_8">
      <!-- −0.0008 -->
      <g transform="translate(28.38 303.457877)scale(0.1 -0.1)">
       <defs>
        <path d="M 10.59375 35.5 
L 73.1875 35.5 
L 73.1875 27.203125 
L 10.59375 27.203125 
z
" id="DejaVuSans-8722"/>
       </defs>
       <use xlink:href="#DejaVuSans-8722"/>
       <use x="83.789062" xlink:href="#DejaVuSans-48"/>
       <use x="147.412109" xlink:href="#DejaVuSans-46"/>
       <use x="179.199219" xlink:href="#DejaVuSans-48"/>
       <use x="242.822266" xlink:href="#DejaVuSans-48"/>
       <use x="306.445312" xlink:href="#DejaVuSans-48"/>
       <use x="370.068359" xlink:href="#DejaVuSans-56"/>
      </g>
     </g>
    </g>
    <g id="ytick_2">
     <g id="line2d_8">
      <g>
       <use style="stroke:#000000;stroke-width:0.8;" x="78.750313" xlink:href="#m541b362ef5" y="267.751728"/>
      </g>
     </g>
     <g id="text_9">
      <!-- −0.0006 -->
      <g transform="translate(28.38 271.550947)scale(0.1 -0.1)">
       <use xlink:href="#DejaVuSans-8722"/>
       <use x="83.789062" xlink:href="#DejaVuSans-48"/>
       <use x="147.412109" xlink:href="#DejaVuSans-46"/>
       <use x="179.199219" xlink:href="#DejaVuSans-48"/>
       <use x="242.822266" xlink:href="#DejaVuSans-48"/>
       <use x="306.445312" xlink:href="#DejaVuSans-48"/>
       <use x="370.068359" xlink:href="#DejaVuSans-54"/>
      </g>
     </g>
    </g>
    <g id="ytick_3">
     <g id="line2d_9">
      <g>
       <use style="stroke:#000000;stroke-width:0.8;" x="78.750313" xlink:href="#m541b362ef5" y="235.844798"/>
      </g>
     </g>
     <g id="text_10">
      <!-- −0.0004 -->
      <g transform="translate(28.38 239.644017)scale(0.1 -0.1)">
       <use xlink:href="#DejaVuSans-8722"/>
       <use x="83.789062" xlink:href="#DejaVuSans-48"/>
       <use x="147.412109" xlink:href="#DejaVuSans-46"/>
       <use x="179.199219" xlink:href="#DejaVuSans-48"/>
       <use x="242.822266" xlink:href="#DejaVuSans-48"/>
       <use x="306.445312" xlink:href="#DejaVuSans-48"/>
       <use x="370.068359" xlink:href="#DejaVuSans-52"/>
      </g>
     </g>
    </g>
    <g id="ytick_4">
     <g id="line2d_10">
      <g>
       <use style="stroke:#000000;stroke-width:0.8;" x="78.750313" xlink:href="#m541b362ef5" y="203.937868"/>
      </g>
     </g>
     <g id="text_11">
      <!-- −0.0002 -->
      <g transform="translate(28.38 207.737086)scale(0.1 -0.1)">
       <use xlink:href="#DejaVuSans-8722"/>
       <use x="83.789062" xlink:href="#DejaVuSans-48"/>
       <use x="147.412109" xlink:href="#DejaVuSans-46"/>
       <use x="179.199219" xlink:href="#DejaVuSans-48"/>
       <use x="242.822266" xlink:href="#DejaVuSans-48"/>
       <use x="306.445312" xlink:href="#DejaVuSans-48"/>
       <use x="370.068359" xlink:href="#DejaVuSans-50"/>
      </g>
     </g>
    </g>
    <g id="ytick_5">
     <g id="line2d_11">
      <g>
       <use style="stroke:#000000;stroke-width:0.8;" x="78.750313" xlink:href="#m541b362ef5" y="172.030938"/>
      </g>
     </g>
     <g id="text_12">
      <!-- 0.0000 -->
      <g transform="translate(36.759688 175.830156)scale(0.1 -0.1)">
       <use xlink:href="#DejaVuSans-48"/>
       <use x="63.623047" xlink:href="#DejaVuSans-46"/>
       <use x="95.410156" xlink:href="#DejaVuSans-48"/>
       <use x="159.033203" xlink:href="#DejaVuSans-48"/>
       <use x="222.65625" xlink:href="#DejaVuSans-48"/>
       <use x="286.279297" xlink:href="#DejaVuSans-48"/>
      </g>
     </g>
    </g>
    <g id="ytick_6">
     <g id="line2d_12">
      <g>
       <use style="stroke:#000000;stroke-width:0.8;" x="78.750313" xlink:href="#m541b362ef5" y="140.124007"/>
      </g>
     </g>
     <g id="text_13">
      <!-- 0.0002 -->
      <g transform="translate(36.759688 143.923226)scale(0.1 -0.1)">
       <use xlink:href="#DejaVuSans-48"/>
       <use x="63.623047" xlink:href="#DejaVuSans-46"/>
       <use x="95.410156" xlink:href="#DejaVuSans-48"/>
       <use x="159.033203" xlink:href="#DejaVuSans-48"/>
       <use x="222.65625" xlink:href="#DejaVuSans-48"/>
       <use x="286.279297" xlink:href="#DejaVuSans-50"/>
      </g>
     </g>
    </g>
    <g id="ytick_7">
     <g id="line2d_13">
      <g>
       <use style="stroke:#000000;stroke-width:0.8;" x="78.750313" xlink:href="#m541b362ef5" y="108.217077"/>
      </g>
     </g>
     <g id="text_14">
      <!-- 0.0004 -->
      <g transform="translate(36.759688 112.016296)scale(0.1 -0.1)">
       <use xlink:href="#DejaVuSans-48"/>
       <use x="63.623047" xlink:href="#DejaVuSans-46"/>
       <use x="95.410156" xlink:href="#DejaVuSans-48"/>
       <use x="159.033203" xlink:href="#DejaVuSans-48"/>
       <use x="222.65625" xlink:href="#DejaVuSans-48"/>
       <use x="286.279297" xlink:href="#DejaVuSans-52"/>
      </g>
     </g>
    </g>
    <g id="ytick_8">
     <g id="line2d_14">
      <g>
       <use style="stroke:#000000;stroke-width:0.8;" x="78.750313" xlink:href="#m541b362ef5" y="76.310147"/>
      </g>
     </g>
     <g id="text_15">
      <!-- 0.0006 -->
      <g transform="translate(36.759688 80.109366)scale(0.1 -0.1)">
       <use xlink:href="#DejaVuSans-48"/>
       <use x="63.623047" xlink:href="#DejaVuSans-46"/>
       <use x="95.410156" xlink:href="#DejaVuSans-48"/>
       <use x="159.033203" xlink:href="#DejaVuSans-48"/>
       <use x="222.65625" xlink:href="#DejaVuSans-48"/>
       <use x="286.279297" xlink:href="#DejaVuSans-54"/>
      </g>
     </g>
    </g>
    <g id="ytick_9">
     <g id="line2d_15">
      <g>
       <use style="stroke:#000000;stroke-width:0.8;" x="78.750313" xlink:href="#m541b362ef5" y="44.403217"/>
      </g>
     </g>
     <g id="text_16">
      <!-- 0.0008 -->
      <g transform="translate(36.759688 48.202435)scale(0.1 -0.1)">
       <use xlink:href="#DejaVuSans-48"/>
       <use x="63.623047" xlink:href="#DejaVuSans-46"/>
       <use x="95.410156" xlink:href="#DejaVuSans-48"/>
       <use x="159.033203" xlink:href="#DejaVuSans-48"/>
       <use x="222.65625" xlink:href="#DejaVuSans-48"/>
       <use x="286.279297" xlink:href="#DejaVuSans-56"/>
      </g>
     </g>
    </g>
    <g id="text_17">
     <!-- $G(\phi)$ -->
     <g transform="translate(21.44 187.570938)rotate(-90)scale(0.14 -0.14)">
      <defs>
       <path d="M 54.59375 10.890625 
L 58.40625 29.984375 
L 42.1875 29.984375 
L 43.703125 38.09375 
L 69.578125 38.09375 
L 63.28125 6 
Q 56.78125 2.4375 49.109375 0.5 
Q 41.453125 -1.421875 33.6875 -1.421875 
Q 19.96875 -1.421875 12.234375 6.1875 
Q 4.5 13.8125 4.5 27.390625 
Q 4.5 38.671875 9.203125 48.84375 
Q 13.921875 59.03125 22.21875 65.828125 
Q 27.4375 70.0625 33.640625 72.140625 
Q 39.84375 74.21875 47.40625 74.21875 
Q 54.25 74.21875 60.515625 72.484375 
Q 66.796875 70.75 72.515625 67.28125 
L 70.515625 56.78125 
Q 66.109375 61.375 60.203125 63.796875 
Q 54.296875 66.21875 47.609375 66.21875 
Q 39.84375 66.21875 33.9375 63.25 
Q 28.03125 60.296875 23.390625 54.109375 
Q 19.4375 48.828125 17.15625 41.671875 
Q 14.890625 34.515625 14.890625 27.09375 
Q 14.890625 16.890625 20.109375 11.734375 
Q 25.34375 6.59375 35.6875 6.59375 
Q 40.875 6.59375 45.703125 7.6875 
Q 50.53125 8.796875 54.59375 10.890625 
z
" id="DejaVuSans-Oblique-71"/>
       <path d="M 31 75.875 
Q 24.46875 64.65625 21.28125 53.65625 
Q 18.109375 42.671875 18.109375 31.390625 
Q 18.109375 20.125 21.3125 9.0625 
Q 24.515625 -2 31 -13.1875 
L 23.1875 -13.1875 
Q 15.875 -1.703125 12.234375 9.375 
Q 8.59375 20.453125 8.59375 31.390625 
Q 8.59375 42.28125 12.203125 53.3125 
Q 15.828125 64.359375 23.1875 75.875 
z
" id="DejaVuSans-40"/>
       <path d="M 8.015625 75.875 
L 15.828125 75.875 
Q 23.140625 64.359375 26.78125 53.3125 
Q 30.421875 42.28125 30.421875 31.390625 
Q 30.421875 20.453125 26.78125 9.375 
Q 23.140625 -1.703125 15.828125 -13.1875 
L 8.015625 -13.1875 
Q 14.5 -2 17.703125 9.0625 
Q 20.90625 20.125 20.90625 31.390625 
Q 20.90625 42.671875 17.703125 53.65625 
Q 14.5 64.65625 8.015625 75.875 
z
" id="DejaVuSans-41"/>
      </defs>
      <use transform="translate(0 0.015625)" xlink:href="#DejaVuSans-Oblique-71"/>
      <use transform="translate(77.490234 0.015625)" xlink:href="#DejaVuSans-40"/>
      <use transform="translate(116.503906 0.015625)" xlink:href="#DejaVuSans-Oblique-981"/>
      <use transform="translate(182.470703 0.015625)" xlink:href="#DejaVuSans-41"/>
     </g>
    </g>
   </g>
   <g id="line2d_16">
    <path clip-path="url(#pe467030158)" d="M 100.861662 172.030938 
L 543.088651 172.030938 
L 543.088651 172.030938 
" style="fill:none;stroke:#000000;stroke-dasharray:5.55,2.4;stroke-dashoffset:0;stroke-width:1.5;"/>
   </g>
   <g id="line2d_17">
    <path clip-path="url(#pe467030158)" d="M 100.861662 172.030938 
L 101.304332 203.928256 
L 105.288359 196.234288 
L 109.272385 189.035543 
L 113.256412 182.312306 
L 117.240439 176.045565 
L 121.224466 170.216991 
L 125.208493 164.808909 
L 129.19252 159.804282 
L 133.176547 155.18668 
L 137.160574 150.940266 
L 141.144601 147.049769 
L 145.128628 143.500464 
L 149.112655 140.278157 
L 153.096682 137.36916 
L 157.080709 134.760275 
L 161.064735 132.438775 
L 165.048762 130.392386 
L 169.032789 128.609272 
L 173.016816 127.078015 
L 177.000843 125.787602 
L 180.98487 124.727406 
L 184.968897 123.887175 
L 188.952924 123.257012 
L 193.379621 122.791601 
L 197.806317 122.561122 
L 202.233014 122.553425 
L 206.65971 122.75682 
L 211.529077 123.210941 
L 216.398443 123.892464 
L 221.267809 124.787554 
L 226.579845 125.991983 
L 231.891881 127.418197 
L 237.646586 129.195125 
L 243.843962 131.356785 
L 250.041337 133.753089 
L 256.681382 136.555776 
L 263.764096 139.78476 
L 271.28948 143.453154 
L 279.700204 147.800745 
L 288.996267 152.855731 
L 300.063008 159.133947 
L 314.671107 167.695523 
L 346.543322 186.455656 
L 357.610064 192.673802 
L 366.906127 197.659597 
L 375.31685 201.929261 
L 382.842234 205.51507 
L 389.924949 208.654748 
L 396.564994 211.363062 
L 402.762369 213.661574 
L 408.959744 215.715644 
L 414.71445 217.383499 
L 420.026486 218.700849 
L 425.338521 219.788216 
L 430.207888 220.568496 
L 435.077254 221.127733 
L 439.94662 221.451783 
L 444.373317 221.529901 
L 448.800013 221.389967 
L 453.22671 221.020016 
L 457.653407 220.407617 
L 461.637433 219.63849 
L 465.62146 218.652737 
L 469.605487 217.440225 
L 473.589514 215.990454 
L 477.573541 214.292541 
L 481.557568 212.335204 
L 485.541595 210.10675 
L 489.525622 207.595051 
L 493.509649 204.787534 
L 497.051006 202.033092 
L 500.592363 199.025144 
L 504.133721 195.7539 
L 507.675078 192.209248 
L 511.216435 188.380743 
L 514.757792 184.257593 
L 518.29915 179.828654 
L 522.283177 174.46623 
L 526.267204 168.685238 
L 530.25123 162.468075 
L 534.235257 155.796486 
L 538.219284 148.651537 
L 542.203311 141.013589 
L 542.645981 140.133619 
L 543.088651 172.030938 
L 543.088651 172.030938 
" style="fill:none;stroke:#aa3863;stroke-linecap:square;stroke-width:1.5;"/>
   </g>
   <g id="line2d_18">
    <path clip-path="url(#pe467030158)" d="M 100.861662 172.030938 
L 101.304332 236.602161 
L 105.288359 227.933982 
L 109.272385 219.784876 
L 113.256412 212.134412 
L 117.240439 204.962881 
L 121.224466 198.251272 
L 125.208493 191.981247 
L 129.19252 186.13512 
L 133.176547 180.695829 
L 137.160574 175.646917 
L 141.144601 170.972509 
L 145.128628 166.657293 
L 149.112655 162.686496 
L 153.096682 159.045868 
L 157.080709 155.721661 
L 161.064735 152.700608 
L 165.048762 149.969912 
L 169.032789 147.517219 
L 173.016816 145.330608 
L 177.000843 143.398574 
L 180.98487 141.710006 
L 184.968897 140.25418 
L 188.952924 139.020736 
L 192.936951 137.999669 
L 197.363647 137.102484 
L 201.790344 136.442772 
L 206.217041 136.008209 
L 210.643737 135.786923 
L 215.513103 135.776194 
L 220.38247 135.99502 
L 225.251836 136.429296 
L 230.563872 137.13283 
L 235.875908 138.059667 
L 241.630613 139.296853 
L 247.385319 140.7571 
L 253.582694 142.557216 
L 260.222739 144.722332 
L 267.305453 147.271511 
L 274.830838 150.216537 
L 283.241561 153.752459 
L 292.537624 157.903754 
L 303.604365 163.09278 
L 319.540473 170.836282 
L 343.444635 182.443556 
L 354.954046 187.7658 
L 364.250109 191.826697 
L 372.660832 195.259331 
L 380.186216 198.093964 
L 387.268931 200.523109 
L 393.908976 202.560901 
L 400.106351 204.228725 
L 405.861056 205.554015 
L 411.615762 206.644093 
L 416.927798 207.423912 
L 422.239834 207.969202 
L 427.1092 208.248164 
L 431.978566 208.301471 
L 436.405263 208.141917 
L 440.83196 207.772564 
L 445.258656 207.181669 
L 449.685353 206.357048 
L 454.112049 205.286051 
L 458.096076 204.100654 
L 462.080103 202.695129 
L 466.06413 201.059195 
L 470.048157 199.182211 
L 474.032184 197.053153 
L 478.016211 194.660605 
L 482.000238 191.992739 
L 485.984265 189.0373 
L 489.968292 185.78159 
L 493.952318 182.212449 
L 497.936345 178.316237 
L 501.920372 174.078816 
L 505.904399 169.485532 
L 509.888426 164.521195 
L 513.872453 159.170056 
L 517.85648 153.41579 
L 521.840507 147.241471 
L 525.824534 140.629553 
L 529.808561 133.561846 
L 533.792588 126.019489 
L 537.776615 117.982933 
L 541.760642 109.431907 
L 542.645981 107.459714 
L 543.088651 172.030938 
L 543.088651 172.030938 
" style="fill:none;stroke:#d97020;stroke-linecap:square;stroke-width:1.5;"/>
   </g>
   <g id="line2d_19">
    <path clip-path="url(#pe467030158)" d="M 100.861662 172.030938 
L 101.304332 269.276066 
L 105.288359 259.633677 
L 109.272385 250.53421 
L 113.256412 241.956518 
L 117.240439 233.880196 
L 121.224466 226.285553 
L 125.208493 219.153585 
L 129.19252 212.465958 
L 133.176547 206.204977 
L 137.160574 200.353567 
L 141.144601 194.895249 
L 145.128628 189.814121 
L 149.112655 185.094835 
L 153.096682 180.722576 
L 157.080709 176.683046 
L 161.064735 172.962442 
L 165.048762 169.547437 
L 169.032789 166.425165 
L 173.016816 163.583201 
L 177.000843 161.009545 
L 180.98487 158.692606 
L 184.968897 156.621185 
L 188.952924 154.78446 
L 192.936951 153.171971 
L 197.363647 151.631021 
L 201.790344 150.341038 
L 206.217041 149.289113 
L 210.643737 148.4628 
L 215.070434 147.850092 
L 219.9398 147.409005 
L 224.809166 147.197488 
L 229.678532 147.201213 
L 234.990568 147.434542 
L 240.302604 147.89032 
L 246.05731 148.615825 
L 251.812015 149.562513 
L 258.009391 150.806893 
L 264.649436 152.372769 
L 271.73215 154.277462 
L 279.257534 156.530514 
L 287.668258 159.282539 
L 297.40699 162.712591 
L 309.359071 167.171075 
L 351.412689 183.092552 
L 360.708751 186.255603 
L 369.119475 188.883201 
L 376.644859 191.001502 
L 383.727574 192.758428 
L 390.367618 194.166631 
L 396.564994 195.246489 
L 402.319699 196.024816 
L 407.631735 196.533583 
L 412.943771 196.824118 
L 418.255807 196.879308 
L 423.125173 196.707976 
L 427.994539 196.309719 
L 432.421236 195.738328 
L 436.847933 194.955683 
L 441.274629 193.949862 
L 445.701326 192.708508 
L 450.128022 191.218806 
L 454.112049 189.654763 
L 458.096076 187.868759 
L 462.080103 185.850415 
L 466.06413 183.58899 
L 470.048157 181.07337 
L 474.032184 178.292052 
L 478.016211 175.23313 
L 482.000238 171.884273 
L 485.984265 168.232715 
L 489.968292 164.265233 
L 493.952318 159.968132 
L 497.936345 155.327225 
L 501.920372 150.327813 
L 505.904399 144.95467 
L 509.888426 139.192017 
L 513.872453 133.023506 
L 517.85648 126.432196 
L 521.840507 119.400532 
L 525.824534 111.910324 
L 529.808561 103.942719 
L 533.792588 95.478181 
L 537.776615 86.496465 
L 541.760642 76.976591 
L 542.645981 74.785809 
L 543.088651 172.030938 
L 543.088651 172.030938 
" style="fill:none;stroke:#ef9f07;stroke-linecap:square;stroke-width:1.5;"/>
   </g>
   <g id="line2d_20">
    <path clip-path="url(#pe467030158)" d="M 100.861662 172.030938 
L 101.304332 301.949972 
L 105.731028 290.189141 
L 109.715055 280.200924 
L 113.699082 270.755235 
L 117.683109 261.831053 
L 121.667136 253.408085 
L 125.651163 245.466743 
L 129.63519 237.988115 
L 133.619217 230.953947 
L 137.603244 224.346613 
L 141.58727 218.149099 
L 145.571297 212.344976 
L 149.555324 206.918381 
L 153.539351 201.853997 
L 157.523378 197.137033 
L 161.507405 192.753201 
L 165.491432 188.688703 
L 169.475459 184.930208 
L 173.459486 181.464838 
L 177.443513 178.280146 
L 181.42754 175.364104 
L 185.411567 172.705084 
L 189.395594 170.291843 
L 193.379621 168.113507 
L 197.806317 165.955858 
L 202.233014 164.0613 
L 206.65971 162.416386 
L 211.086407 161.008143 
L 215.513103 159.824046 
L 220.38247 158.765998 
L 225.251836 157.948991 
L 230.121202 157.358043 
L 234.990568 156.978697 
L 240.302604 156.789802 
L 245.61464 156.818621 
L 251.369346 157.075951 
L 257.124051 157.548249 
L 263.321427 158.27434 
L 269.961471 159.275764 
L 277.044186 160.567125 
L 285.01224 162.254164 
L 293.865633 164.365074 
L 304.489705 167.142328 
L 319.540473 171.339938 
L 342.116626 177.63364 
L 352.740698 180.352706 
L 361.594091 182.394911 
L 369.562145 184.003926 
L 376.644859 185.21264 
L 383.284904 186.124835 
L 389.482279 186.75703 
L 395.236985 187.132642 
L 400.99169 187.283808 
L 406.303726 187.205919 
L 411.615762 186.901643 
L 416.485128 186.408639 
L 421.354495 185.696212 
L 426.223861 184.74962 
L 430.650557 183.673032 
L 435.077254 182.378401 
L 439.503951 180.853416 
L 443.930647 179.085331 
L 448.357344 177.060938 
L 452.341371 175.008538 
L 456.325398 172.72712 
L 460.309424 170.206008 
L 464.293451 167.434166 
L 468.277478 164.400183 
L 472.261505 161.092254 
L 476.245532 157.498168 
L 480.229559 153.605289 
L 484.213586 149.400537 
L 488.197613 144.870379 
L 492.18164 140.000799 
L 496.165667 134.777289 
L 500.149694 129.184827 
L 504.133721 123.207855 
L 508.117748 116.830262 
L 512.101774 110.03536 
L 516.085801 102.805867 
L 520.069828 95.123881 
L 524.053855 86.970857 
L 528.037882 78.327587 
L 532.021909 69.174172 
L 536.005936 59.489999 
L 539.989963 49.253714 
L 542.645981 42.111903 
L 543.088651 172.030938 
L 543.088651 172.030938 
" style="fill:none;stroke:#449775;stroke-linecap:square;stroke-width:1.5;"/>
   </g>
   <g id="patch_3">
    <path d="M 78.750313 314.941875 
L 78.750313 29.12 
" style="fill:none;stroke:#000000;stroke-linecap:square;stroke-linejoin:miter;stroke-width:0.8;"/>
   </g>
   <g id="patch_4">
    <path d="M 565.2 314.941875 
L 565.2 29.12 
" style="fill:none;stroke:#000000;stroke-linecap:square;stroke-linejoin:miter;stroke-width:0.8;"/>
   </g>
   <g id="patch_5">
    <path d="M 78.750313 314.941875 
L 565.2 314.941875 
" style="fill:none;stroke:#000000;stroke-linecap:square;stroke-linejoin:miter;stroke-width:0.8;"/>
   </g>
   <g id="patch_6">
    <path d="M 78.750313 29.12 
L 565.2 29.12 
" style="fill:none;stroke:#000000;stroke-linecap:square;stroke-linejoin:miter;stroke-width:0.8;"/>
   </g>
   <g id="text_18">
    <!-- G-function for different values of $\beta$, with $I = 1.05, \gamma = 0.001$ -->
    <g transform="translate(87.175156 23.12)scale(0.16 -0.16)">
     <defs>
      <path d="M 59.515625 10.40625 
L 59.515625 29.984375 
L 43.40625 29.984375 
L 43.40625 38.09375 
L 69.28125 38.09375 
L 69.28125 6.78125 
Q 63.578125 2.734375 56.6875 0.65625 
Q 49.8125 -1.421875 42 -1.421875 
Q 24.90625 -1.421875 15.25 8.5625 
Q 5.609375 18.5625 5.609375 36.375 
Q 5.609375 54.25 15.25 64.234375 
Q 24.90625 74.21875 42 74.21875 
Q 49.125 74.21875 55.546875 72.453125 
Q 61.96875 70.703125 67.390625 67.28125 
L 67.390625 56.78125 
Q 61.921875 61.421875 55.765625 63.765625 
Q 49.609375 66.109375 42.828125 66.109375 
Q 29.4375 66.109375 22.71875 58.640625 
Q 16.015625 51.171875 16.015625 36.375 
Q 16.015625 21.625 22.71875 14.15625 
Q 29.4375 6.6875 42.828125 6.6875 
Q 48.046875 6.6875 52.140625 7.59375 
Q 56.25 8.5 59.515625 10.40625 
z
" id="DejaVuSans-71"/>
      <path d="M 4.890625 31.390625 
L 31.203125 31.390625 
L 31.203125 23.390625 
L 4.890625 23.390625 
z
" id="DejaVuSans-45"/>
      <path d="M 37.109375 75.984375 
L 37.109375 68.5 
L 28.515625 68.5 
Q 23.6875 68.5 21.796875 66.546875 
Q 19.921875 64.59375 19.921875 59.515625 
L 19.921875 54.6875 
L 34.71875 54.6875 
L 34.71875 47.703125 
L 19.921875 47.703125 
L 19.921875 0 
L 10.890625 0 
L 10.890625 47.703125 
L 2.296875 47.703125 
L 2.296875 54.6875 
L 10.890625 54.6875 
L 10.890625 58.5 
Q 10.890625 67.625 15.140625 71.796875 
Q 19.390625 75.984375 28.609375 75.984375 
z
" id="DejaVuSans-102"/>
      <path d="M 8.5 21.578125 
L 8.5 54.6875 
L 17.484375 54.6875 
L 17.484375 21.921875 
Q 17.484375 14.15625 20.5 10.265625 
Q 23.53125 6.390625 29.59375 6.390625 
Q 36.859375 6.390625 41.078125 11.03125 
Q 45.3125 15.671875 45.3125 23.6875 
L 45.3125 54.6875 
L 54.296875 54.6875 
L 54.296875 0 
L 45.3125 0 
L 45.3125 8.40625 
Q 42.046875 3.421875 37.71875 1 
Q 33.40625 -1.421875 27.6875 -1.421875 
Q 18.265625 -1.421875 13.375 4.4375 
Q 8.5 10.296875 8.5 21.578125 
z
M 31.109375 56 
z
" id="DejaVuSans-117"/>
      <path d="M 54.890625 33.015625 
L 54.890625 0 
L 45.90625 0 
L 45.90625 32.71875 
Q 45.90625 40.484375 42.875 44.328125 
Q 39.84375 48.1875 33.796875 48.1875 
Q 26.515625 48.1875 22.3125 43.546875 
Q 18.109375 38.921875 18.109375 30.90625 
L 18.109375 0 
L 9.078125 0 
L 9.078125 54.6875 
L 18.109375 54.6875 
L 18.109375 46.1875 
Q 21.34375 51.125 25.703125 53.5625 
Q 30.078125 56 35.796875 56 
Q 45.21875 56 50.046875 50.171875 
Q 54.890625 44.34375 54.890625 33.015625 
z
" id="DejaVuSans-110"/>
      <path d="M 48.78125 52.59375 
L 48.78125 44.1875 
Q 44.96875 46.296875 41.140625 47.34375 
Q 37.3125 48.390625 33.40625 48.390625 
Q 24.65625 48.390625 19.8125 42.84375 
Q 14.984375 37.3125 14.984375 27.296875 
Q 14.984375 17.28125 19.8125 11.734375 
Q 24.65625 6.203125 33.40625 6.203125 
Q 37.3125 6.203125 41.140625 7.25 
Q 44.96875 8.296875 48.78125 10.40625 
L 48.78125 2.09375 
Q 45.015625 0.34375 40.984375 -0.53125 
Q 36.96875 -1.421875 32.421875 -1.421875 
Q 20.0625 -1.421875 12.78125 6.34375 
Q 5.515625 14.109375 5.515625 27.296875 
Q 5.515625 40.671875 12.859375 48.328125 
Q 20.21875 56 33.015625 56 
Q 37.15625 56 41.109375 55.140625 
Q 45.0625 54.296875 48.78125 52.59375 
z
" id="DejaVuSans-99"/>
      <path d="M 18.3125 70.21875 
L 18.3125 54.6875 
L 36.8125 54.6875 
L 36.8125 47.703125 
L 18.3125 47.703125 
L 18.3125 18.015625 
Q 18.3125 11.328125 20.140625 9.421875 
Q 21.96875 7.515625 27.59375 7.515625 
L 36.8125 7.515625 
L 36.8125 0 
L 27.59375 0 
Q 17.1875 0 13.234375 3.875 
Q 9.28125 7.765625 9.28125 18.015625 
L 9.28125 47.703125 
L 2.6875 47.703125 
L 2.6875 54.6875 
L 9.28125 54.6875 
L 9.28125 70.21875 
z
" id="DejaVuSans-116"/>
      <path d="M 9.421875 54.6875 
L 18.40625 54.6875 
L 18.40625 0 
L 9.421875 0 
z
M 9.421875 75.984375 
L 18.40625 75.984375 
L 18.40625 64.59375 
L 9.421875 64.59375 
z
" id="DejaVuSans-105"/>
      <path d="M 30.609375 48.390625 
Q 23.390625 48.390625 19.1875 42.75 
Q 14.984375 37.109375 14.984375 27.296875 
Q 14.984375 17.484375 19.15625 11.84375 
Q 23.34375 6.203125 30.609375 6.203125 
Q 37.796875 6.203125 41.984375 11.859375 
Q 46.1875 17.53125 46.1875 27.296875 
Q 46.1875 37.015625 41.984375 42.703125 
Q 37.796875 48.390625 30.609375 48.390625 
z
M 30.609375 56 
Q 42.328125 56 49.015625 48.375 
Q 55.71875 40.765625 55.71875 27.296875 
Q 55.71875 13.875 49.015625 6.21875 
Q 42.328125 -1.421875 30.609375 -1.421875 
Q 18.84375 -1.421875 12.171875 6.21875 
Q 5.515625 13.875 5.515625 27.296875 
Q 5.515625 40.765625 12.171875 48.375 
Q 18.84375 56 30.609375 56 
z
" id="DejaVuSans-111"/>
      <path id="DejaVuSans-32"/>
      <path d="M 41.109375 46.296875 
Q 39.59375 47.171875 37.8125 47.578125 
Q 36.03125 48 33.890625 48 
Q 26.265625 48 22.1875 43.046875 
Q 18.109375 38.09375 18.109375 28.8125 
L 18.109375 0 
L 9.078125 0 
L 9.078125 54.6875 
L 18.109375 54.6875 
L 18.109375 46.1875 
Q 20.953125 51.171875 25.484375 53.578125 
Q 30.03125 56 36.53125 56 
Q 37.453125 56 38.578125 55.875 
Q 39.703125 55.765625 41.0625 55.515625 
z
" id="DejaVuSans-114"/>
      <path d="M 45.40625 46.390625 
L 45.40625 75.984375 
L 54.390625 75.984375 
L 54.390625 0 
L 45.40625 0 
L 45.40625 8.203125 
Q 42.578125 3.328125 38.25 0.953125 
Q 33.9375 -1.421875 27.875 -1.421875 
Q 17.96875 -1.421875 11.734375 6.484375 
Q 5.515625 14.40625 5.515625 27.296875 
Q 5.515625 40.1875 11.734375 48.09375 
Q 17.96875 56 27.875 56 
Q 33.9375 56 38.25 53.625 
Q 42.578125 51.265625 45.40625 46.390625 
z
M 14.796875 27.296875 
Q 14.796875 17.390625 18.875 11.75 
Q 22.953125 6.109375 30.078125 6.109375 
Q 37.203125 6.109375 41.296875 11.75 
Q 45.40625 17.390625 45.40625 27.296875 
Q 45.40625 37.203125 41.296875 42.84375 
Q 37.203125 48.484375 30.078125 48.484375 
Q 22.953125 48.484375 18.875 42.84375 
Q 14.796875 37.203125 14.796875 27.296875 
z
" id="DejaVuSans-100"/>
      <path d="M 56.203125 29.59375 
L 56.203125 25.203125 
L 14.890625 25.203125 
Q 15.484375 15.921875 20.484375 11.0625 
Q 25.484375 6.203125 34.421875 6.203125 
Q 39.59375 6.203125 44.453125 7.46875 
Q 49.3125 8.734375 54.109375 11.28125 
L 54.109375 2.78125 
Q 49.265625 0.734375 44.1875 -0.34375 
Q 39.109375 -1.421875 33.890625 -1.421875 
Q 20.796875 -1.421875 13.15625 6.1875 
Q 5.515625 13.8125 5.515625 26.8125 
Q 5.515625 40.234375 12.765625 48.109375 
Q 20.015625 56 32.328125 56 
Q 43.359375 56 49.78125 48.890625 
Q 56.203125 41.796875 56.203125 29.59375 
z
M 47.21875 32.234375 
Q 47.125 39.59375 43.09375 43.984375 
Q 39.0625 48.390625 32.421875 48.390625 
Q 24.90625 48.390625 20.390625 44.140625 
Q 15.875 39.890625 15.1875 32.171875 
z
" id="DejaVuSans-101"/>
      <path d="M 2.984375 54.6875 
L 12.5 54.6875 
L 29.59375 8.796875 
L 46.6875 54.6875 
L 56.203125 54.6875 
L 35.6875 0 
L 23.484375 0 
z
" id="DejaVuSans-118"/>
      <path d="M 34.28125 27.484375 
Q 23.390625 27.484375 19.1875 25 
Q 14.984375 22.515625 14.984375 16.5 
Q 14.984375 11.71875 18.140625 8.90625 
Q 21.296875 6.109375 26.703125 6.109375 
Q 34.1875 6.109375 38.703125 11.40625 
Q 43.21875 16.703125 43.21875 25.484375 
L 43.21875 27.484375 
z
M 52.203125 31.203125 
L 52.203125 0 
L 43.21875 0 
L 43.21875 8.296875 
Q 40.140625 3.328125 35.546875 0.953125 
Q 30.953125 -1.421875 24.3125 -1.421875 
Q 15.921875 -1.421875 10.953125 3.296875 
Q 6 8.015625 6 15.921875 
Q 6 25.140625 12.171875 29.828125 
Q 18.359375 34.515625 30.609375 34.515625 
L 43.21875 34.515625 
L 43.21875 35.40625 
Q 43.21875 41.609375 39.140625 45 
Q 35.0625 48.390625 27.6875 48.390625 
Q 23 48.390625 18.546875 47.265625 
Q 14.109375 46.140625 10.015625 43.890625 
L 10.015625 52.203125 
Q 14.9375 54.109375 19.578125 55.046875 
Q 24.21875 56 28.609375 56 
Q 40.484375 56 46.34375 49.84375 
Q 52.203125 43.703125 52.203125 31.203125 
z
" id="DejaVuSans-97"/>
      <path d="M 9.421875 75.984375 
L 18.40625 75.984375 
L 18.40625 0 
L 9.421875 0 
z
" id="DejaVuSans-108"/>
      <path d="M 44.28125 53.078125 
L 44.28125 44.578125 
Q 40.484375 46.53125 36.375 47.5 
Q 32.28125 48.484375 27.875 48.484375 
Q 21.1875 48.484375 17.84375 46.4375 
Q 14.5 44.390625 14.5 40.28125 
Q 14.5 37.15625 16.890625 35.375 
Q 19.28125 33.59375 26.515625 31.984375 
L 29.59375 31.296875 
Q 39.15625 29.25 43.1875 25.515625 
Q 47.21875 21.78125 47.21875 15.09375 
Q 47.21875 7.46875 41.1875 3.015625 
Q 35.15625 -1.421875 24.609375 -1.421875 
Q 20.21875 -1.421875 15.453125 -0.5625 
Q 10.6875 0.296875 5.421875 2 
L 5.421875 11.28125 
Q 10.40625 8.6875 15.234375 7.390625 
Q 20.0625 6.109375 24.8125 6.109375 
Q 31.15625 6.109375 34.5625 8.28125 
Q 37.984375 10.453125 37.984375 14.40625 
Q 37.984375 18.0625 35.515625 20.015625 
Q 33.0625 21.96875 24.703125 23.78125 
L 21.578125 24.515625 
Q 13.234375 26.265625 9.515625 29.90625 
Q 5.8125 33.546875 5.8125 39.890625 
Q 5.8125 47.609375 11.28125 51.796875 
Q 16.75 56 26.8125 56 
Q 31.78125 56 36.171875 55.265625 
Q 40.578125 54.546875 44.28125 53.078125 
z
" id="DejaVuSans-115"/>
      <path d="M 13.625 3.375 
L 8.9375 -20.796875 
L -0.09375 -20.796875 
L 14.5 54.34375 
Q 18.84375 76.609375 39.65625 76.609375 
Q 60.75 76.609375 57.171875 57.8125 
Q 54.734375 44.4375 45.21875 39.546875 
Q 58.015625 35.15625 55.515625 22.125 
Q 51.125 -1.078125 27.484375 -1.03125 
Q 17.140625 -0.984375 13.625 3.375 
z
M 15.921875 15.09375 
Q 19.671875 6.59375 29.296875 6.640625 
Q 43.359375 6.640625 46.34375 21.96875 
Q 49.03125 35.75 26.171875 34.671875 
L 27.78125 42.96875 
Q 45.453125 42.671875 48.53125 58.59375 
Q 50.640625 69.34375 39.203125 69.28125 
Q 26.421875 69.28125 23.484375 54.046875 
z
" id="DejaVuSans-Oblique-946"/>
      <path d="M 11.71875 12.40625 
L 22.015625 12.40625 
L 22.015625 4 
L 14.015625 -11.625 
L 7.71875 -11.625 
L 11.71875 4 
z
" id="DejaVuSans-44"/>
      <path d="M 4.203125 54.6875 
L 13.1875 54.6875 
L 24.421875 12.015625 
L 35.59375 54.6875 
L 46.1875 54.6875 
L 57.421875 12.015625 
L 68.609375 54.6875 
L 77.59375 54.6875 
L 63.28125 0 
L 52.6875 0 
L 40.921875 44.828125 
L 29.109375 0 
L 18.5 0 
z
" id="DejaVuSans-119"/>
      <path d="M 54.890625 33.015625 
L 54.890625 0 
L 45.90625 0 
L 45.90625 32.71875 
Q 45.90625 40.484375 42.875 44.328125 
Q 39.84375 48.1875 33.796875 48.1875 
Q 26.515625 48.1875 22.3125 43.546875 
Q 18.109375 38.921875 18.109375 30.90625 
L 18.109375 0 
L 9.078125 0 
L 9.078125 75.984375 
L 18.109375 75.984375 
L 18.109375 46.1875 
Q 21.34375 51.125 25.703125 53.5625 
Q 30.078125 56 35.796875 56 
Q 45.21875 56 50.046875 50.171875 
Q 54.890625 44.34375 54.890625 33.015625 
z
" id="DejaVuSans-104"/>
      <path d="M 16.890625 72.90625 
L 26.8125 72.90625 
L 12.59375 0 
L 2.6875 0 
z
" id="DejaVuSans-Oblique-73"/>
      <path d="M 10.59375 45.40625 
L 73.1875 45.40625 
L 73.1875 37.203125 
L 10.59375 37.203125 
z
M 10.59375 25.484375 
L 73.1875 25.484375 
L 73.1875 17.1875 
L 10.59375 17.1875 
z
" id="DejaVuSans-61"/>
      <path d="M 10.796875 72.90625 
L 49.515625 72.90625 
L 49.515625 64.59375 
L 19.828125 64.59375 
L 19.828125 46.734375 
Q 21.96875 47.46875 24.109375 47.828125 
Q 26.265625 48.1875 28.421875 48.1875 
Q 40.625 48.1875 47.75 41.5 
Q 54.890625 34.8125 54.890625 23.390625 
Q 54.890625 11.625 47.5625 5.09375 
Q 40.234375 -1.421875 26.90625 -1.421875 
Q 22.3125 -1.421875 17.546875 -0.640625 
Q 12.796875 0.140625 7.71875 1.703125 
L 7.71875 11.625 
Q 12.109375 9.234375 16.796875 8.0625 
Q 21.484375 6.890625 26.703125 6.890625 
Q 35.15625 6.890625 40.078125 11.328125 
Q 45.015625 15.765625 45.015625 23.390625 
Q 45.015625 31 40.078125 35.4375 
Q 35.15625 39.890625 26.703125 39.890625 
Q 22.75 39.890625 18.8125 39.015625 
Q 14.890625 38.140625 10.796875 36.28125 
z
" id="DejaVuSans-53"/>
      <path d="M 23.296875 46.09375 
L 28.71875 12.3125 
L 54 54.6875 
L 63.53125 54.6875 
L 30.8125 0 
L 26.765625 -20.796875 
L 17.78125 -20.796875 
L 21.828125 0 
L 15.4375 40.828125 
Q 14.453125 46.96875 9.8125 46.96875 
L 7.421875 46.96875 
L 8.890625 54.6875 
L 12.3125 54.6875 
Q 21.921875 54.6875 23.296875 46.09375 
z
" id="DejaVuSans-Oblique-947"/>
     </defs>
     <use transform="translate(0 0.390625)" xlink:href="#DejaVuSans-71"/>
     <use transform="translate(77.490234 0.390625)" xlink:href="#DejaVuSans-45"/>
     <use transform="translate(113.574219 0.390625)" xlink:href="#DejaVuSans-102"/>
     <use transform="translate(148.779297 0.390625)" xlink:href="#DejaVuSans-117"/>
     <use transform="translate(212.158203 0.390625)" xlink:href="#DejaVuSans-110"/>
     <use transform="translate(275.537109 0.390625)" xlink:href="#DejaVuSans-99"/>
     <use transform="translate(330.517578 0.390625)" xlink:href="#DejaVuSans-116"/>
     <use transform="translate(369.726562 0.390625)" xlink:href="#DejaVuSans-105"/>
     <use transform="translate(397.509766 0.390625)" xlink:href="#DejaVuSans-111"/>
     <use transform="translate(458.691406 0.390625)" xlink:href="#DejaVuSans-110"/>
     <use transform="translate(522.070312 0.390625)" xlink:href="#DejaVuSans-32"/>
     <use transform="translate(553.857422 0.390625)" xlink:href="#DejaVuSans-102"/>
     <use transform="translate(589.0625 0.390625)" xlink:href="#DejaVuSans-111"/>
     <use transform="translate(650.244141 0.390625)" xlink:href="#DejaVuSans-114"/>
     <use transform="translate(691.357422 0.390625)" xlink:href="#DejaVuSans-32"/>
     <use transform="translate(723.144531 0.390625)" xlink:href="#DejaVuSans-100"/>
     <use transform="translate(786.621094 0.390625)" xlink:href="#DejaVuSans-105"/>
     <use transform="translate(814.404297 0.390625)" xlink:href="#DejaVuSans-102"/>
     <use transform="translate(849.609375 0.390625)" xlink:href="#DejaVuSans-102"/>
     <use transform="translate(884.814453 0.390625)" xlink:href="#DejaVuSans-101"/>
     <use transform="translate(946.337891 0.390625)" xlink:href="#DejaVuSans-114"/>
     <use transform="translate(987.451172 0.390625)" xlink:href="#DejaVuSans-101"/>
     <use transform="translate(1048.974609 0.390625)" xlink:href="#DejaVuSans-110"/>
     <use transform="translate(1112.353516 0.390625)" xlink:href="#DejaVuSans-116"/>
     <use transform="translate(1151.5625 0.390625)" xlink:href="#DejaVuSans-32"/>
     <use transform="translate(1183.349609 0.390625)" xlink:href="#DejaVuSans-118"/>
     <use transform="translate(1242.529297 0.390625)" xlink:href="#DejaVuSans-97"/>
     <use transform="translate(1303.808594 0.390625)" xlink:href="#DejaVuSans-108"/>
     <use transform="translate(1331.591797 0.390625)" xlink:href="#DejaVuSans-117"/>
     <use transform="translate(1394.970703 0.390625)" xlink:href="#DejaVuSans-101"/>
     <use transform="translate(1456.494141 0.390625)" xlink:href="#DejaVuSans-115"/>
     <use transform="translate(1508.59375 0.390625)" xlink:href="#DejaVuSans-32"/>
     <use transform="translate(1540.380859 0.390625)" xlink:href="#DejaVuSans-111"/>
     <use transform="translate(1601.5625 0.390625)" xlink:href="#DejaVuSans-102"/>
     <use transform="translate(1636.767578 0.390625)" xlink:href="#DejaVuSans-32"/>
     <use transform="translate(1668.554688 0.390625)" xlink:href="#DejaVuSans-Oblique-946"/>
     <use transform="translate(1732.373047 0.390625)" xlink:href="#DejaVuSans-44"/>
     <use transform="translate(1764.160156 0.390625)" xlink:href="#DejaVuSans-32"/>
     <use transform="translate(1795.947266 0.390625)" xlink:href="#DejaVuSans-119"/>
     <use transform="translate(1877.734375 0.390625)" xlink:href="#DejaVuSans-105"/>
     <use transform="translate(1905.517578 0.390625)" xlink:href="#DejaVuSans-116"/>
     <use transform="translate(1944.726562 0.390625)" xlink:href="#DejaVuSans-104"/>
     <use transform="translate(2008.105469 0.390625)" xlink:href="#DejaVuSans-32"/>
     <use transform="translate(2039.892578 0.390625)" xlink:href="#DejaVuSans-Oblique-73"/>
     <use transform="translate(2088.867188 0.390625)" xlink:href="#DejaVuSans-61"/>
     <use transform="translate(2192.138672 0.390625)" xlink:href="#DejaVuSans-49"/>
     <use transform="translate(2255.761719 0.390625)" xlink:href="#DejaVuSans-46"/>
     <use transform="translate(2287.548828 0.390625)" xlink:href="#DejaVuSans-48"/>
     <use transform="translate(2351.171875 0.390625)" xlink:href="#DejaVuSans-53"/>
     <use transform="translate(2414.794922 0.390625)" xlink:href="#DejaVuSans-44"/>
     <use transform="translate(2466.064453 0.390625)" xlink:href="#DejaVuSans-Oblique-947"/>
     <use transform="translate(2544.726562 0.390625)" xlink:href="#DejaVuSans-61"/>
     <use transform="translate(2647.998047 0.390625)" xlink:href="#DejaVuSans-48"/>
     <use transform="translate(2711.621094 0.390625)" xlink:href="#DejaVuSans-46"/>
     <use transform="translate(2743.408203 0.390625)" xlink:href="#DejaVuSans-48"/>
     <use transform="translate(2807.03125 0.390625)" xlink:href="#DejaVuSans-48"/>
     <use transform="translate(2870.654297 0.390625)" xlink:href="#DejaVuSans-49"/>
    </g>
   </g>
   <g id="legend_1">
    <g id="patch_7">
     <path d="M 85.750313 96.32 
L 152.350313 96.32 
Q 154.350313 96.32 154.350313 94.32 
L 154.350313 36.12 
Q 154.350313 34.12 152.350313 34.12 
L 85.750313 34.12 
Q 83.750313 34.12 83.750313 36.12 
L 83.750313 94.32 
Q 83.750313 96.32 85.750313 96.32 
z
" style="fill:#ffffff;opacity:0.8;stroke:#cccccc;stroke-linejoin:miter;"/>
    </g>
    <g id="line2d_21">
     <path d="M 87.750313 42.32 
L 107.750313 42.32 
" style="fill:none;stroke:#aa3863;stroke-linecap:square;stroke-width:1.5;"/>
    </g>
    <g id="line2d_22"/>
    <g id="text_19">
     <!-- $\beta = 0.1$ -->
     <g transform="translate(115.750313 45.82)scale(0.1 -0.1)">
      <use transform="translate(0 0.390625)" xlink:href="#DejaVuSans-Oblique-946"/>
      <use transform="translate(83.300781 0.390625)" xlink:href="#DejaVuSans-61"/>
      <use transform="translate(186.572266 0.390625)" xlink:href="#DejaVuSans-48"/>
      <use transform="translate(250.195312 0.390625)" xlink:href="#DejaVuSans-46"/>
      <use transform="translate(281.982422 0.390625)" xlink:href="#DejaVuSans-49"/>
     </g>
    </g>
    <g id="line2d_23">
     <path d="M 87.750313 57.12 
L 107.750313 57.12 
" style="fill:none;stroke:#d97020;stroke-linecap:square;stroke-width:1.5;"/>
    </g>
    <g id="line2d_24"/>
    <g id="text_20">
     <!-- $\beta = 0.2$ -->
     <g transform="translate(115.750313 60.62)scale(0.1 -0.1)">
      <use transform="translate(0 0.390625)" xlink:href="#DejaVuSans-Oblique-946"/>
      <use transform="translate(83.300781 0.390625)" xlink:href="#DejaVuSans-61"/>
      <use transform="translate(186.572266 0.390625)" xlink:href="#DejaVuSans-48"/>
      <use transform="translate(250.195312 0.390625)" xlink:href="#DejaVuSans-46"/>
      <use transform="translate(276.482422 0.390625)" xlink:href="#DejaVuSans-50"/>
     </g>
    </g>
    <g id="line2d_25">
     <path d="M 87.750313 71.92 
L 107.750313 71.92 
" style="fill:none;stroke:#ef9f07;stroke-linecap:square;stroke-width:1.5;"/>
    </g>
    <g id="line2d_26"/>
    <g id="text_21">
     <!-- $\beta = 0.3$ -->
     <g transform="translate(115.750313 75.42)scale(0.1 -0.1)">
      <defs>
       <path d="M 40.578125 39.3125 
Q 47.65625 37.796875 51.625 33 
Q 55.609375 28.21875 55.609375 21.1875 
Q 55.609375 10.40625 48.1875 4.484375 
Q 40.765625 -1.421875 27.09375 -1.421875 
Q 22.515625 -1.421875 17.65625 -0.515625 
Q 12.796875 0.390625 7.625 2.203125 
L 7.625 11.71875 
Q 11.71875 9.328125 16.59375 8.109375 
Q 21.484375 6.890625 26.8125 6.890625 
Q 36.078125 6.890625 40.9375 10.546875 
Q 45.796875 14.203125 45.796875 21.1875 
Q 45.796875 27.640625 41.28125 31.265625 
Q 36.765625 34.90625 28.71875 34.90625 
L 20.21875 34.90625 
L 20.21875 43.015625 
L 29.109375 43.015625 
Q 36.375 43.015625 40.234375 45.921875 
Q 44.09375 48.828125 44.09375 54.296875 
Q 44.09375 59.90625 40.109375 62.90625 
Q 36.140625 65.921875 28.71875 65.921875 
Q 24.65625 65.921875 20.015625 65.03125 
Q 15.375 64.15625 9.8125 62.3125 
L 9.8125 71.09375 
Q 15.4375 72.65625 20.34375 73.4375 
Q 25.25 74.21875 29.59375 74.21875 
Q 40.828125 74.21875 47.359375 69.109375 
Q 53.90625 64.015625 53.90625 55.328125 
Q 53.90625 49.265625 50.4375 45.09375 
Q 46.96875 40.921875 40.578125 39.3125 
z
" id="DejaVuSans-51"/>
      </defs>
      <use transform="translate(0 0.390625)" xlink:href="#DejaVuSans-Oblique-946"/>
      <use transform="translate(83.300781 0.390625)" xlink:href="#DejaVuSans-61"/>
      <use transform="translate(186.572266 0.390625)" xlink:href="#DejaVuSans-48"/>
      <use transform="translate(250.195312 0.390625)" xlink:href="#DejaVuSans-46"/>
      <use transform="translate(281.982422 0.390625)" xlink:href="#DejaVuSans-51"/>
     </g>
    </g>
    <g id="line2d_27">
     <path d="M 87.750313 86.72 
L 107.750313 86.72 
" style="fill:none;stroke:#449775;stroke-linecap:square;stroke-width:1.5;"/>
    </g>
    <g id="line2d_28"/>
    <g id="text_22">
     <!-- $\beta = 0.4$ -->
     <g transform="translate(115.750313 90.22)scale(0.1 -0.1)">
      <use transform="translate(0 0.390625)" xlink:href="#DejaVuSans-Oblique-946"/>
      <use transform="translate(83.300781 0.390625)" xlink:href="#DejaVuSans-61"/>
      <use transform="translate(186.572266 0.390625)" xlink:href="#DejaVuSans-48"/>
      <use transform="translate(250.195312 0.390625)" xlink:href="#DejaVuSans-46"/>
      <use transform="translate(281.982422 0.390625)" xlink:href="#DejaVuSans-52"/>
     </g>
    </g>
   </g>
   <g id="PathCollection_1">
    <defs>
     <path d="M 0 3.162278 
C 0.838646 3.162278 1.643056 2.82908 2.236068 2.236068 
C 2.82908 1.643056 3.162278 0.838646 3.162278 0 
C 3.162278 -0.838646 2.82908 -1.643056 2.236068 -2.236068 
C 1.643056 -2.82908 0.838646 -3.162278 0 -3.162278 
C -0.838646 -3.162278 -1.643056 -2.82908 -2.236068 -2.236068 
C -2.82908 -1.643056 -3.162278 -0.838646 -3.162278 0 
C -3.162278 0.838646 -2.82908 1.643056 -2.236068 2.236068 
C -1.643056 2.82908 -0.838646 3.162278 0 3.162278 
z
" id="mb13f86ee87" style="stroke:#000000;"/>
    </defs>
    <g clip-path="url(#pe467030158)">
     <use style="stroke:#000000;" x="100.861662" xlink:href="#mb13f86ee87" y="172.030938"/>
    </g>
   </g>
   <g id="PathCollection_2">
    <path clip-path="url(#pe467030158)" d="M 119.896457 175.193215 
C 120.735103 175.193215 121.539513 174.860018 122.132525 174.267005 
C 122.725537 173.673993 123.058735 172.869583 123.058735 172.030938 
C 123.058735 171.192292 122.725537 170.387882 122.132525 169.79487 
C 121.539513 169.201857 120.735103 168.86866 119.896457 168.86866 
C 119.057811 168.86866 118.253401 169.201857 117.660389 169.79487 
C 117.067377 170.387882 116.73418 171.192292 116.73418 172.030938 
C 116.73418 172.869583 117.067377 173.673993 117.660389 174.267005 
C 118.253401 174.860018 119.057811 175.193215 119.896457 175.193215 
z
" style="fill:none;stroke:#000000;"/>
   </g>
   <g id="PathCollection_3">
    <g clip-path="url(#pe467030158)">
     <use style="stroke:#000000;" x="321.753821" xlink:href="#mb13f86ee87" y="172.030938"/>
    </g>
   </g>
   <g id="PathCollection_4">
    <path clip-path="url(#pe467030158)" d="M 523.611186 175.193215 
C 524.449831 175.193215 525.254241 174.860018 525.847254 174.267005 
C 526.440266 173.673993 526.773463 172.869583 526.773463 172.030938 
C 526.773463 171.192292 526.440266 170.387882 525.847254 169.79487 
C 525.254241 169.201857 524.449831 168.86866 523.611186 168.86866 
C 522.77254 168.86866 521.96813 169.201857 521.375118 169.79487 
C 520.782105 170.387882 520.448908 171.192292 520.448908 172.030938 
C 520.448908 172.869583 520.782105 173.673993 521.375118 174.267005 
C 521.96813 174.860018 522.77254 175.193215 523.611186 175.193215 
z
" style="fill:none;stroke:#000000;"/>
   </g>
   <g id="PathCollection_5">
    <g clip-path="url(#pe467030158)">
     <use style="stroke:#000000;" x="542.645981" xlink:href="#mb13f86ee87" y="172.030938"/>
    </g>
   </g>
   <g id="PathCollection_6">
    <g clip-path="url(#pe467030158)">
     <use style="stroke:#000000;" x="100.861662" xlink:href="#mb13f86ee87" y="172.030938"/>
    </g>
   </g>
   <g id="PathCollection_7">
    <path clip-path="url(#pe467030158)" d="M 139.816592 175.193215 
C 140.655238 175.193215 141.459648 174.860018 142.05266 174.267005 
C 142.645672 173.673993 142.97887 172.869583 142.97887 172.030938 
C 142.97887 171.192292 142.645672 170.387882 142.05266 169.79487 
C 141.459648 169.201857 140.655238 168.86866 139.816592 168.86866 
C 138.977946 168.86866 138.173536 169.201857 137.580524 169.79487 
C 136.987512 170.387882 136.654314 171.192292 136.654314 172.030938 
C 136.654314 172.869583 136.987512 173.673993 137.580524 174.267005 
C 138.173536 174.860018 138.977946 175.193215 139.816592 175.193215 
z
" style="fill:none;stroke:#000000;"/>
   </g>
   <g id="PathCollection_8">
    <g clip-path="url(#pe467030158)">
     <use style="stroke:#000000;" x="321.753821" xlink:href="#mb13f86ee87" y="172.030938"/>
    </g>
   </g>
   <g id="PathCollection_9">
    <path clip-path="url(#pe467030158)" d="M 503.691051 175.193215 
C 504.529697 175.193215 505.334107 174.860018 505.927119 174.267005 
C 506.520131 173.673993 506.853329 172.869583 506.853329 172.030938 
C 506.853329 171.192292 506.520131 170.387882 505.927119 169.79487 
C 505.334107 169.201857 504.529697 168.86866 503.691051 168.86866 
C 502.852405 168.86866 502.047995 169.201857 501.454983 169.79487 
C 500.861971 170.387882 500.528773 171.192292 500.528773 172.030938 
C 500.528773 172.869583 500.861971 173.673993 501.454983 174.267005 
C 502.047995 174.860018 502.852405 175.193215 503.691051 175.193215 
z
" style="fill:none;stroke:#000000;"/>
   </g>
   <g id="PathCollection_10">
    <g clip-path="url(#pe467030158)">
     <use style="stroke:#000000;" x="542.645981" xlink:href="#mb13f86ee87" y="172.030938"/>
    </g>
   </g>
   <g id="PathCollection_11">
    <g clip-path="url(#pe467030158)">
     <use style="stroke:#000000;" x="100.861662" xlink:href="#mb13f86ee87" y="172.030938"/>
    </g>
   </g>
   <g id="PathCollection_12">
    <path clip-path="url(#pe467030158)" d="M 161.950075 175.193215 
C 162.788721 175.193215 163.593131 174.860018 164.186143 174.267005 
C 164.779155 173.673993 165.112352 172.869583 165.112352 172.030938 
C 165.112352 171.192292 164.779155 170.387882 164.186143 169.79487 
C 163.593131 169.201857 162.788721 168.86866 161.950075 168.86866 
C 161.111429 168.86866 160.307019 169.201857 159.714007 169.79487 
C 159.120995 170.387882 158.787797 171.192292 158.787797 172.030938 
C 158.787797 172.869583 159.120995 173.673993 159.714007 174.267005 
C 160.307019 174.860018 161.111429 175.193215 161.950075 175.193215 
z
" style="fill:none;stroke:#000000;"/>
   </g>
   <g id="PathCollection_13">
    <g clip-path="url(#pe467030158)">
     <use style="stroke:#000000;" x="321.753821" xlink:href="#mb13f86ee87" y="172.030938"/>
    </g>
   </g>
   <g id="PathCollection_14">
    <path clip-path="url(#pe467030158)" d="M 481.557568 175.193215 
C 482.396214 175.193215 483.200624 174.860018 483.793636 174.267005 
C 484.386648 173.673993 484.719846 172.869583 484.719846 172.030938 
C 484.719846 171.192292 484.386648 170.387882 483.793636 169.79487 
C 483.200624 169.201857 482.396214 168.86866 481.557568 168.86866 
C 480.718922 168.86866 479.914512 169.201857 479.3215 169.79487 
C 478.728488 170.387882 478.39529 171.192292 478.39529 172.030938 
C 478.39529 172.869583 478.728488 173.673993 479.3215 174.267005 
C 479.914512 174.860018 480.718922 175.193215 481.557568 175.193215 
z
" style="fill:none;stroke:#000000;"/>
   </g>
   <g id="PathCollection_15">
    <g clip-path="url(#pe467030158)">
     <use style="stroke:#000000;" x="542.645981" xlink:href="#mb13f86ee87" y="172.030938"/>
    </g>
   </g>
   <g id="PathCollection_16">
    <g clip-path="url(#pe467030158)">
     <use style="stroke:#000000;" x="100.861662" xlink:href="#mb13f86ee87" y="172.030938"/>
    </g>
   </g>
   <g id="PathCollection_17">
    <path clip-path="url(#pe467030158)" d="M 186.296906 175.193215 
C 187.135552 175.193215 187.939962 174.860018 188.532974 174.267005 
C 189.125986 173.673993 189.459184 172.869583 189.459184 172.030938 
C 189.459184 171.192292 189.125986 170.387882 188.532974 169.79487 
C 187.939962 169.201857 187.135552 168.86866 186.296906 168.86866 
C 185.45826 168.86866 184.65385 169.201857 184.060838 169.79487 
C 183.467826 170.387882 183.134628 171.192292 183.134628 172.030938 
C 183.134628 172.869583 183.467826 173.673993 184.060838 174.267005 
C 184.65385 174.860018 185.45826 175.193215 186.296906 175.193215 
z
" style="fill:none;stroke:#000000;"/>
   </g>
   <g id="PathCollection_18">
    <g clip-path="url(#pe467030158)">
     <use style="stroke:#000000;" x="321.753821" xlink:href="#mb13f86ee87" y="172.030938"/>
    </g>
   </g>
   <g id="PathCollection_19">
    <path clip-path="url(#pe467030158)" d="M 457.210737 175.193215 
C 458.049383 175.193215 458.853793 174.860018 459.446805 174.267005 
C 460.039817 173.673993 460.373015 172.869583 460.373015 172.030938 
C 460.373015 171.192292 460.039817 170.387882 459.446805 169.79487 
C 458.853793 169.201857 458.049383 168.86866 457.210737 168.86866 
C 456.372091 168.86866 455.567681 169.201857 454.974669 169.79487 
C 454.381657 170.387882 454.048459 171.192292 454.048459 172.030938 
C 454.048459 172.869583 454.381657 173.673993 454.974669 174.267005 
C 455.567681 174.860018 456.372091 175.193215 457.210737 175.193215 
z
" style="fill:none;stroke:#000000;"/>
   </g>
   <g id="PathCollection_20">
    <g clip-path="url(#pe467030158)">
     <use style="stroke:#000000;" x="542.645981" xlink:href="#mb13f86ee87" y="172.030938"/>
    </g>
   </g>
  </g>
 </g>
 <defs>
  <clipPath id="pe467030158">
   <rect height="285.821875" width="486.449687" x="78.750313" y="29.12"/>
  </clipPath>
 </defs>
</svg>
