<?xml version="1.0" encoding="utf-8" standalone="no"?>
<!DOCTYPE svg PUBLIC "-//W3C//DTD SVG 1.1//EN"
  "http://www.w3.org/Graphics/SVG/1.1/DTD/svg11.dtd">
<!-- Created with matplotlib (https://matplotlib.org/) -->
<svg height="360pt" version="1.1" viewBox="0 0 576 360" width="576pt" xmlns="http://www.w3.org/2000/svg" xmlns:xlink="http://www.w3.org/1999/xlink">
 <metadata>
  <rdf:RDF xmlns:cc="http://creativecommons.org/ns#" xmlns:dc="http://purl.org/dc/elements/1.1/" xmlns:rdf="http://www.w3.org/1999/02/22-rdf-syntax-ns#">
   <cc:Work>
    <dc:type rdf:resource="http://purl.org/dc/dcmitype/StillImage"/>
    <dc:date>2021-05-09T21:45:20.379492</dc:date>
    <dc:format>image/svg+xml</dc:format>
    <dc:creator>
     <cc:Agent>
      <dc:title>Matplotlib v3.3.3, https://matplotlib.org/</dc:title>
     </cc:Agent>
    </dc:creator>
   </cc:Work>
  </rdf:RDF>
 </metadata>
 <defs>
  <style type="text/css">*{stroke-linecap:butt;stroke-linejoin:round;}</style>
 </defs>
 <g id="figure_1">
  <g id="patch_1">
   <path d="M 0 360 
L 576 360 
L 576 0 
L 0 0 
z
" style="fill:#ffffff;"/>
  </g>
  <g id="axes_1">
   <g id="patch_2">
    <path d="M 78.750313 314.941875 
L 565.2 314.941875 
L 565.2 29.12 
L 78.750313 29.12 
z
" style="fill:#ffffff;"/>
   </g>
   <g id="matplotlib.axis_1">
    <g id="xtick_1">
     <g id="line2d_1">
      <defs>
       <path d="M 0 0 
L 0 3.5 
" id="m45ba68e439" style="stroke:#000000;stroke-width:0.8;"/>
      </defs>
      <g>
       <use style="stroke:#000000;stroke-width:0.8;" x="100.861662" xlink:href="#m45ba68e439" y="314.941875"/>
      </g>
     </g>
     <g id="text_1">
      <!-- 0.0 -->
      <g transform="translate(92.910099 329.540312)scale(0.1 -0.1)">
       <defs>
        <path d="M 31.78125 66.40625 
Q 24.171875 66.40625 20.328125 58.90625 
Q 16.5 51.421875 16.5 36.375 
Q 16.5 21.390625 20.328125 13.890625 
Q 24.171875 6.390625 31.78125 6.390625 
Q 39.453125 6.390625 43.28125 13.890625 
Q 47.125 21.390625 47.125 36.375 
Q 47.125 51.421875 43.28125 58.90625 
Q 39.453125 66.40625 31.78125 66.40625 
z
M 31.78125 74.21875 
Q 44.046875 74.21875 50.515625 64.515625 
Q 56.984375 54.828125 56.984375 36.375 
Q 56.984375 17.96875 50.515625 8.265625 
Q 44.046875 -1.421875 31.78125 -1.421875 
Q 19.53125 -1.421875 13.0625 8.265625 
Q 6.59375 17.96875 6.59375 36.375 
Q 6.59375 54.828125 13.0625 64.515625 
Q 19.53125 74.21875 31.78125 74.21875 
z
" id="DejaVuSans-48"/>
        <path d="M 10.6875 12.40625 
L 21 12.40625 
L 21 0 
L 10.6875 0 
z
" id="DejaVuSans-46"/>
       </defs>
       <use xlink:href="#DejaVuSans-48"/>
       <use x="63.623047" xlink:href="#DejaVuSans-46"/>
       <use x="95.410156" xlink:href="#DejaVuSans-48"/>
      </g>
     </g>
    </g>
    <g id="xtick_2">
     <g id="line2d_2">
      <g>
       <use style="stroke:#000000;stroke-width:0.8;" x="189.30706" xlink:href="#m45ba68e439" y="314.941875"/>
      </g>
     </g>
     <g id="text_2">
      <!-- 0.2 -->
      <g transform="translate(181.355497 329.540312)scale(0.1 -0.1)">
       <defs>
        <path d="M 19.1875 8.296875 
L 53.609375 8.296875 
L 53.609375 0 
L 7.328125 0 
L 7.328125 8.296875 
Q 12.9375 14.109375 22.625 23.890625 
Q 32.328125 33.6875 34.8125 36.53125 
Q 39.546875 41.84375 41.421875 45.53125 
Q 43.3125 49.21875 43.3125 52.78125 
Q 43.3125 58.59375 39.234375 62.25 
Q 35.15625 65.921875 28.609375 65.921875 
Q 23.96875 65.921875 18.8125 64.3125 
Q 13.671875 62.703125 7.8125 59.421875 
L 7.8125 69.390625 
Q 13.765625 71.78125 18.9375 73 
Q 24.125 74.21875 28.421875 74.21875 
Q 39.75 74.21875 46.484375 68.546875 
Q 53.21875 62.890625 53.21875 53.421875 
Q 53.21875 48.921875 51.53125 44.890625 
Q 49.859375 40.875 45.40625 35.40625 
Q 44.1875 33.984375 37.640625 27.21875 
Q 31.109375 20.453125 19.1875 8.296875 
z
" id="DejaVuSans-50"/>
       </defs>
       <use xlink:href="#DejaVuSans-48"/>
       <use x="63.623047" xlink:href="#DejaVuSans-46"/>
       <use x="95.410156" xlink:href="#DejaVuSans-50"/>
      </g>
     </g>
    </g>
    <g id="xtick_3">
     <g id="line2d_3">
      <g>
       <use style="stroke:#000000;stroke-width:0.8;" x="277.752457" xlink:href="#m45ba68e439" y="314.941875"/>
      </g>
     </g>
     <g id="text_3">
      <!-- 0.4 -->
      <g transform="translate(269.800895 329.540312)scale(0.1 -0.1)">
       <defs>
        <path d="M 37.796875 64.3125 
L 12.890625 25.390625 
L 37.796875 25.390625 
z
M 35.203125 72.90625 
L 47.609375 72.90625 
L 47.609375 25.390625 
L 58.015625 25.390625 
L 58.015625 17.1875 
L 47.609375 17.1875 
L 47.609375 0 
L 37.796875 0 
L 37.796875 17.1875 
L 4.890625 17.1875 
L 4.890625 26.703125 
z
" id="DejaVuSans-52"/>
       </defs>
       <use xlink:href="#DejaVuSans-48"/>
       <use x="63.623047" xlink:href="#DejaVuSans-46"/>
       <use x="95.410156" xlink:href="#DejaVuSans-52"/>
      </g>
     </g>
    </g>
    <g id="xtick_4">
     <g id="line2d_4">
      <g>
       <use style="stroke:#000000;stroke-width:0.8;" x="366.197855" xlink:href="#m45ba68e439" y="314.941875"/>
      </g>
     </g>
     <g id="text_4">
      <!-- 0.6 -->
      <g transform="translate(358.246293 329.540312)scale(0.1 -0.1)">
       <defs>
        <path d="M 33.015625 40.375 
Q 26.375 40.375 22.484375 35.828125 
Q 18.609375 31.296875 18.609375 23.390625 
Q 18.609375 15.53125 22.484375 10.953125 
Q 26.375 6.390625 33.015625 6.390625 
Q 39.65625 6.390625 43.53125 10.953125 
Q 47.40625 15.53125 47.40625 23.390625 
Q 47.40625 31.296875 43.53125 35.828125 
Q 39.65625 40.375 33.015625 40.375 
z
M 52.59375 71.296875 
L 52.59375 62.3125 
Q 48.875 64.0625 45.09375 64.984375 
Q 41.3125 65.921875 37.59375 65.921875 
Q 27.828125 65.921875 22.671875 59.328125 
Q 17.53125 52.734375 16.796875 39.40625 
Q 19.671875 43.65625 24.015625 45.921875 
Q 28.375 48.1875 33.59375 48.1875 
Q 44.578125 48.1875 50.953125 41.515625 
Q 57.328125 34.859375 57.328125 23.390625 
Q 57.328125 12.15625 50.6875 5.359375 
Q 44.046875 -1.421875 33.015625 -1.421875 
Q 20.359375 -1.421875 13.671875 8.265625 
Q 6.984375 17.96875 6.984375 36.375 
Q 6.984375 53.65625 15.1875 63.9375 
Q 23.390625 74.21875 37.203125 74.21875 
Q 40.921875 74.21875 44.703125 73.484375 
Q 48.484375 72.75 52.59375 71.296875 
z
" id="DejaVuSans-54"/>
       </defs>
       <use xlink:href="#DejaVuSans-48"/>
       <use x="63.623047" xlink:href="#DejaVuSans-46"/>
       <use x="95.410156" xlink:href="#DejaVuSans-54"/>
      </g>
     </g>
    </g>
    <g id="xtick_5">
     <g id="line2d_5">
      <g>
       <use style="stroke:#000000;stroke-width:0.8;" x="454.643253" xlink:href="#m45ba68e439" y="314.941875"/>
      </g>
     </g>
     <g id="text_5">
      <!-- 0.8 -->
      <g transform="translate(446.69169 329.540312)scale(0.1 -0.1)">
       <defs>
        <path d="M 31.78125 34.625 
Q 24.75 34.625 20.71875 30.859375 
Q 16.703125 27.09375 16.703125 20.515625 
Q 16.703125 13.921875 20.71875 10.15625 
Q 24.75 6.390625 31.78125 6.390625 
Q 38.8125 6.390625 42.859375 10.171875 
Q 46.921875 13.96875 46.921875 20.515625 
Q 46.921875 27.09375 42.890625 30.859375 
Q 38.875 34.625 31.78125 34.625 
z
M 21.921875 38.8125 
Q 15.578125 40.375 12.03125 44.71875 
Q 8.5 49.078125 8.5 55.328125 
Q 8.5 64.0625 14.71875 69.140625 
Q 20.953125 74.21875 31.78125 74.21875 
Q 42.671875 74.21875 48.875 69.140625 
Q 55.078125 64.0625 55.078125 55.328125 
Q 55.078125 49.078125 51.53125 44.71875 
Q 48 40.375 41.703125 38.8125 
Q 48.828125 37.15625 52.796875 32.3125 
Q 56.78125 27.484375 56.78125 20.515625 
Q 56.78125 9.90625 50.3125 4.234375 
Q 43.84375 -1.421875 31.78125 -1.421875 
Q 19.734375 -1.421875 13.25 4.234375 
Q 6.78125 9.90625 6.78125 20.515625 
Q 6.78125 27.484375 10.78125 32.3125 
Q 14.796875 37.15625 21.921875 38.8125 
z
M 18.3125 54.390625 
Q 18.3125 48.734375 21.84375 45.5625 
Q 25.390625 42.390625 31.78125 42.390625 
Q 38.140625 42.390625 41.71875 45.5625 
Q 45.3125 48.734375 45.3125 54.390625 
Q 45.3125 60.0625 41.71875 63.234375 
Q 38.140625 66.40625 31.78125 66.40625 
Q 25.390625 66.40625 21.84375 63.234375 
Q 18.3125 60.0625 18.3125 54.390625 
z
" id="DejaVuSans-56"/>
       </defs>
       <use xlink:href="#DejaVuSans-48"/>
       <use x="63.623047" xlink:href="#DejaVuSans-46"/>
       <use x="95.410156" xlink:href="#DejaVuSans-56"/>
      </g>
     </g>
    </g>
    <g id="xtick_6">
     <g id="line2d_6">
      <g>
       <use style="stroke:#000000;stroke-width:0.8;" x="543.088651" xlink:href="#m45ba68e439" y="314.941875"/>
      </g>
     </g>
     <g id="text_6">
      <!-- 1.0 -->
      <g transform="translate(535.137088 329.540312)scale(0.1 -0.1)">
       <defs>
        <path d="M 12.40625 8.296875 
L 28.515625 8.296875 
L 28.515625 63.921875 
L 10.984375 60.40625 
L 10.984375 69.390625 
L 28.421875 72.90625 
L 38.28125 72.90625 
L 38.28125 8.296875 
L 54.390625 8.296875 
L 54.390625 0 
L 12.40625 0 
z
" id="DejaVuSans-49"/>
       </defs>
       <use xlink:href="#DejaVuSans-49"/>
       <use x="63.623047" xlink:href="#DejaVuSans-46"/>
       <use x="95.410156" xlink:href="#DejaVuSans-48"/>
      </g>
     </g>
    </g>
    <g id="text_7">
     <!-- $\phi$ -->
     <g transform="translate(317.355156 346.26)scale(0.14 -0.14)">
      <defs>
       <path d="M 46.734375 75.984375 
L 42.78125 55.8125 
Q 52.546875 55.8125 57.5625 48.34375 
Q 62.75 40.71875 60.15625 27.296875 
Q 57.515625 13.875 49.359375 6.25 
Q 41.453125 -1.21875 31.6875 -1.21875 
L 27.875 -20.796875 
L 18.953125 -20.796875 
L 22.75 -1.21875 
Q 13.03125 -1.21875 7.953125 6.25 
Q 2.78125 13.875 5.421875 27.296875 
Q 8.015625 40.71875 16.15625 48.34375 
Q 24.125 55.8125 33.84375 55.8125 
L 37.796875 75.984375 
z
M 33.25 6.78125 
Q 38.765625 6.78125 43.5 11.8125 
Q 48.6875 17.4375 50.6875 27.296875 
Q 52.640625 37.0625 49.515625 42.78125 
Q 46.734375 47.796875 41.21875 47.796875 
z
M 24.3125 6.78125 
L 32.28125 47.796875 
Q 26.8125 47.796875 22.078125 42.78125 
Q 16.75 37.0625 14.890625 27.296875 
Q 13.03125 17.4375 16.0625 11.8125 
Q 18.796875 6.78125 24.3125 6.78125 
z
" id="DejaVuSans-Oblique-981"/>
      </defs>
      <use transform="translate(0 0.015625)" xlink:href="#DejaVuSans-Oblique-981"/>
     </g>
    </g>
   </g>
   <g id="matplotlib.axis_2">
    <g id="ytick_1">
     <g id="line2d_7">
      <defs>
       <path d="M 0 0 
L -3.5 0 
" id="m5990c0f87a" style="stroke:#000000;stroke-width:0.8;"/>
      </defs>
      <g>
       <use style="stroke:#000000;stroke-width:0.8;" x="78.750313" xlink:href="#m5990c0f87a" y="288.387486"/>
      </g>
     </g>
     <g id="text_8">
      <!-- −0.0002 -->
      <g transform="translate(28.38 292.186705)scale(0.1 -0.1)">
       <defs>
        <path d="M 10.59375 35.5 
L 73.1875 35.5 
L 73.1875 27.203125 
L 10.59375 27.203125 
z
" id="DejaVuSans-8722"/>
       </defs>
       <use xlink:href="#DejaVuSans-8722"/>
       <use x="83.789062" xlink:href="#DejaVuSans-48"/>
       <use x="147.412109" xlink:href="#DejaVuSans-46"/>
       <use x="179.199219" xlink:href="#DejaVuSans-48"/>
       <use x="242.822266" xlink:href="#DejaVuSans-48"/>
       <use x="306.445312" xlink:href="#DejaVuSans-48"/>
       <use x="370.068359" xlink:href="#DejaVuSans-50"/>
      </g>
     </g>
    </g>
    <g id="ytick_2">
     <g id="line2d_8">
      <g>
       <use style="stroke:#000000;stroke-width:0.8;" x="78.750313" xlink:href="#m5990c0f87a" y="230.209212"/>
      </g>
     </g>
     <g id="text_9">
      <!-- −0.0001 -->
      <g transform="translate(28.38 234.00843)scale(0.1 -0.1)">
       <use xlink:href="#DejaVuSans-8722"/>
       <use x="83.789062" xlink:href="#DejaVuSans-48"/>
       <use x="147.412109" xlink:href="#DejaVuSans-46"/>
       <use x="179.199219" xlink:href="#DejaVuSans-48"/>
       <use x="242.822266" xlink:href="#DejaVuSans-48"/>
       <use x="306.445312" xlink:href="#DejaVuSans-48"/>
       <use x="370.068359" xlink:href="#DejaVuSans-49"/>
      </g>
     </g>
    </g>
    <g id="ytick_3">
     <g id="line2d_9">
      <g>
       <use style="stroke:#000000;stroke-width:0.8;" x="78.750313" xlink:href="#m5990c0f87a" y="172.030938"/>
      </g>
     </g>
     <g id="text_10">
      <!-- 0.0000 -->
      <g transform="translate(36.759688 175.830156)scale(0.1 -0.1)">
       <use xlink:href="#DejaVuSans-48"/>
       <use x="63.623047" xlink:href="#DejaVuSans-46"/>
       <use x="95.410156" xlink:href="#DejaVuSans-48"/>
       <use x="159.033203" xlink:href="#DejaVuSans-48"/>
       <use x="222.65625" xlink:href="#DejaVuSans-48"/>
       <use x="286.279297" xlink:href="#DejaVuSans-48"/>
      </g>
     </g>
    </g>
    <g id="ytick_4">
     <g id="line2d_10">
      <g>
       <use style="stroke:#000000;stroke-width:0.8;" x="78.750313" xlink:href="#m5990c0f87a" y="113.852663"/>
      </g>
     </g>
     <g id="text_11">
      <!-- 0.0001 -->
      <g transform="translate(36.759688 117.651882)scale(0.1 -0.1)">
       <use xlink:href="#DejaVuSans-48"/>
       <use x="63.623047" xlink:href="#DejaVuSans-46"/>
       <use x="95.410156" xlink:href="#DejaVuSans-48"/>
       <use x="159.033203" xlink:href="#DejaVuSans-48"/>
       <use x="222.65625" xlink:href="#DejaVuSans-48"/>
       <use x="286.279297" xlink:href="#DejaVuSans-49"/>
      </g>
     </g>
    </g>
    <g id="ytick_5">
     <g id="line2d_11">
      <g>
       <use style="stroke:#000000;stroke-width:0.8;" x="78.750313" xlink:href="#m5990c0f87a" y="55.674389"/>
      </g>
     </g>
     <g id="text_12">
      <!-- 0.0002 -->
      <g transform="translate(36.759688 59.473608)scale(0.1 -0.1)">
       <use xlink:href="#DejaVuSans-48"/>
       <use x="63.623047" xlink:href="#DejaVuSans-46"/>
       <use x="95.410156" xlink:href="#DejaVuSans-48"/>
       <use x="159.033203" xlink:href="#DejaVuSans-48"/>
       <use x="222.65625" xlink:href="#DejaVuSans-48"/>
       <use x="286.279297" xlink:href="#DejaVuSans-50"/>
      </g>
     </g>
    </g>
    <g id="text_13">
     <!-- $G(\phi)$ -->
     <g transform="translate(21.44 187.570938)rotate(-90)scale(0.14 -0.14)">
      <defs>
       <path d="M 54.59375 10.890625 
L 58.40625 29.984375 
L 42.1875 29.984375 
L 43.703125 38.09375 
L 69.578125 38.09375 
L 63.28125 6 
Q 56.78125 2.4375 49.109375 0.5 
Q 41.453125 -1.421875 33.6875 -1.421875 
Q 19.96875 -1.421875 12.234375 6.1875 
Q 4.5 13.8125 4.5 27.390625 
Q 4.5 38.671875 9.203125 48.84375 
Q 13.921875 59.03125 22.21875 65.828125 
Q 27.4375 70.0625 33.640625 72.140625 
Q 39.84375 74.21875 47.40625 74.21875 
Q 54.25 74.21875 60.515625 72.484375 
Q 66.796875 70.75 72.515625 67.28125 
L 70.515625 56.78125 
Q 66.109375 61.375 60.203125 63.796875 
Q 54.296875 66.21875 47.609375 66.21875 
Q 39.84375 66.21875 33.9375 63.25 
Q 28.03125 60.296875 23.390625 54.109375 
Q 19.4375 48.828125 17.15625 41.671875 
Q 14.890625 34.515625 14.890625 27.09375 
Q 14.890625 16.890625 20.109375 11.734375 
Q 25.34375 6.59375 35.6875 6.59375 
Q 40.875 6.59375 45.703125 7.6875 
Q 50.53125 8.796875 54.59375 10.890625 
z
" id="DejaVuSans-Oblique-71"/>
       <path d="M 31 75.875 
Q 24.46875 64.65625 21.28125 53.65625 
Q 18.109375 42.671875 18.109375 31.390625 
Q 18.109375 20.125 21.3125 9.0625 
Q 24.515625 -2 31 -13.1875 
L 23.1875 -13.1875 
Q 15.875 -1.703125 12.234375 9.375 
Q 8.59375 20.453125 8.59375 31.390625 
Q 8.59375 42.28125 12.203125 53.3125 
Q 15.828125 64.359375 23.1875 75.875 
z
" id="DejaVuSans-40"/>
       <path d="M 8.015625 75.875 
L 15.828125 75.875 
Q 23.140625 64.359375 26.78125 53.3125 
Q 30.421875 42.28125 30.421875 31.390625 
Q 30.421875 20.453125 26.78125 9.375 
Q 23.140625 -1.703125 15.828125 -13.1875 
L 8.015625 -13.1875 
Q 14.5 -2 17.703125 9.0625 
Q 20.90625 20.125 20.90625 31.390625 
Q 20.90625 42.671875 17.703125 53.65625 
Q 14.5 64.65625 8.015625 75.875 
z
" id="DejaVuSans-41"/>
      </defs>
      <use transform="translate(0 0.015625)" xlink:href="#DejaVuSans-Oblique-71"/>
      <use transform="translate(77.490234 0.015625)" xlink:href="#DejaVuSans-40"/>
      <use transform="translate(116.503906 0.015625)" xlink:href="#DejaVuSans-Oblique-981"/>
      <use transform="translate(182.470703 0.015625)" xlink:href="#DejaVuSans-41"/>
     </g>
    </g>
   </g>
   <g id="line2d_12">
    <path clip-path="url(#p12aba650a3)" d="M 100.861662 172.030938 
L 543.088651 172.030938 
L 543.088651 172.030938 
" style="fill:none;stroke:#000000;stroke-dasharray:5.55,2.4;stroke-dashoffset:0;stroke-width:1.5;"/>
   </g>
   <g id="line2d_13">
    <path clip-path="url(#p12aba650a3)" d="M 100.861662 172.030938 
L 104.845689 159.093117 
L 108.829716 146.985791 
L 112.371073 136.898825 
L 115.91243 127.427771 
L 119.453788 118.554403 
L 122.995145 110.26094 
L 126.536502 102.53004 
L 130.077859 95.34478 
L 133.619217 88.688652 
L 137.160574 82.545546 
L 140.259262 77.578802 
L 143.357949 72.982508 
L 146.456637 68.74659 
L 149.555324 64.861183 
L 152.654012 61.31663 
L 155.7527 58.103473 
L 158.851387 55.212453 
L 161.950075 52.634498 
L 165.048762 50.360726 
L 168.14745 48.382434 
L 171.246138 46.691095 
L 174.344825 45.278355 
L 177.443513 44.136028 
L 180.5422 43.25609 
L 183.640888 42.630675 
L 186.739576 42.25207 
L 189.838263 42.112715 
L 192.936951 42.205192 
L 196.035638 42.522226 
L 199.134326 43.056679 
L 202.233014 43.801545 
L 205.774371 44.901656 
L 209.315728 46.257551 
L 212.857085 47.859372 
L 216.398443 49.69746 
L 220.38247 52.035939 
L 224.366497 54.648259 
L 228.350524 57.521498 
L 232.77722 61.004621 
L 237.203917 64.777263 
L 242.073283 69.241745 
L 246.942649 74.014819 
L 252.254685 79.548919 
L 257.566721 85.39826 
L 263.321427 92.060342 
L 269.518802 99.576718 
L 276.158847 107.979056 
L 283.684231 117.87886 
L 292.094954 129.336457 
L 301.833687 143.002262 
L 314.671107 161.438818 
L 344.329974 204.196195 
L 354.068706 217.775826 
L 362.47943 229.132527 
L 370.004814 238.920853 
L 376.644859 247.207852 
L 382.842234 254.601911 
L 388.59694 261.137454 
L 393.908976 266.858669 
L 399.221012 272.253529 
L 404.090378 276.888984 
L 408.959744 281.206076 
L 413.386441 284.836058 
L 417.813137 288.168075 
L 421.797164 290.897938 
L 425.781191 293.359737 
L 429.765218 295.540395 
L 433.306575 297.231938 
L 436.847933 298.6812 
L 440.38929 299.878397 
L 443.487977 300.711329 
L 446.586665 301.336809 
L 449.685353 301.747889 
L 452.78404 301.937487 
L 455.882728 301.898388 
L 458.981415 301.623237 
L 462.080103 301.104533 
L 465.178791 300.33463 
L 468.277478 299.305729 
L 471.376166 298.009873 
L 474.474854 296.438947 
L 477.573541 294.584668 
L 480.672229 292.438586 
L 483.770916 289.992072 
L 486.869604 287.236323 
L 489.968292 284.162347 
L 493.066979 280.760968 
L 496.165667 277.022812 
L 499.264354 272.938308 
L 502.363042 268.497682 
L 505.46173 263.69095 
L 508.560417 258.507912 
L 511.659105 252.938152 
L 515.200462 246.085508 
L 518.741819 238.69759 
L 522.283177 230.757734 
L 525.824534 222.248862 
L 529.365891 213.153469 
L 532.907248 203.453608 
L 536.448606 193.130884 
L 539.989963 182.166434 
L 543.088651 172.030938 
L 543.088651 172.030938 
" style="fill:none;stroke:#aa3863;stroke-linecap:square;stroke-width:1.5;"/>
   </g>
   <g id="line2d_14">
    <path clip-path="url(#p12aba650a3)" d="M 100.861662 172.030938 
L 104.845689 165.644727 
L 108.829716 159.641517 
L 112.813743 154.011003 
L 116.79777 148.743073 
L 120.781797 143.827807 
L 124.765823 139.255469 
L 128.74985 135.016504 
L 132.733877 131.101535 
L 136.717904 127.501354 
L 140.701931 124.206919 
L 144.685958 121.209353 
L 148.669985 118.499937 
L 152.654012 116.070102 
L 156.638039 113.911432 
L 160.622066 112.015655 
L 164.606093 110.37464 
L 168.59012 108.980391 
L 172.574147 107.825049 
L 176.558174 106.900879 
L 180.5422 106.200274 
L 184.526227 105.715747 
L 188.510254 105.439928 
L 192.936951 105.369421 
L 197.363647 105.537826 
L 201.790344 105.935507 
L 206.217041 106.552984 
L 210.643737 107.380924 
L 215.513103 108.523777 
L 220.38247 109.898129 
L 225.251836 111.492128 
L 230.563872 113.467831 
L 235.875908 115.67612 
L 241.630613 118.313864 
L 247.385319 121.188932 
L 253.582694 124.529785 
L 260.222739 128.366038 
L 267.305453 132.721017 
L 274.830838 137.610175 
L 283.241561 143.347778 
L 292.537624 149.963527 
L 303.604365 158.12009 
L 319.540473 170.175767 
L 343.444635 188.250192 
L 354.511376 196.331472 
L 363.807439 202.858371 
L 372.218162 208.495199 
L 379.743547 213.277563 
L 386.826261 217.51749 
L 393.466306 221.232892 
L 399.663681 224.449443 
L 405.418387 227.198991 
L 411.173092 229.701341 
L 416.485128 231.775755 
L 421.797164 233.608906 
L 426.66653 235.064491 
L 431.535897 236.292909 
L 436.405263 237.282187 
L 440.83196 237.963776 
L 445.258656 238.428384 
L 449.685353 238.666577 
L 454.112049 238.668764 
L 458.096076 238.460897 
L 462.080103 238.046752 
L 466.06413 237.418999 
L 470.048157 236.570191 
L 474.032184 235.492759 
L 478.016211 234.179013 
L 482.000238 232.621134 
L 485.984265 230.811175 
L 489.968292 228.741048 
L 493.952318 226.402529 
L 497.936345 223.787251 
L 501.920372 220.886696 
L 505.904399 217.692197 
L 509.888426 214.194927 
L 513.872453 210.385902 
L 517.85648 206.255969 
L 521.840507 201.795809 
L 525.824534 196.995924 
L 529.808561 191.846642 
L 533.792588 186.338103 
L 537.776615 180.460261 
L 541.760642 174.202874 
L 543.088651 172.030938 
L 543.088651 172.030938 
" style="fill:none;stroke:#d97020;stroke-linecap:square;stroke-width:1.5;"/>
   </g>
   <g id="line2d_15">
    <path clip-path="url(#p12aba650a3)" d="M 100.861662 172.030938 
L 105.288359 167.532787 
L 109.715055 163.325637 
L 114.141752 159.401655 
L 118.568448 155.75313 
L 122.995145 152.372472 
L 127.421841 149.252206 
L 131.848538 146.384971 
L 136.275235 143.763514 
L 140.701931 141.380692 
L 145.128628 139.229464 
L 149.997994 137.122326 
L 154.86736 135.277924 
L 159.736726 133.687299 
L 164.606093 132.341627 
L 169.475459 131.232213 
L 174.344825 130.35049 
L 179.214191 129.688009 
L 184.083558 129.236443 
L 189.395594 128.974718 
L 194.707629 128.943702 
L 200.019665 129.13302 
L 205.331701 129.532439 
L 211.086407 130.19053 
L 216.841112 131.070681 
L 223.038488 132.252539 
L 229.235863 133.662028 
L 235.875908 135.407518 
L 242.515953 137.378389 
L 249.598667 139.708517 
L 257.124051 142.418041 
L 265.092105 145.521196 
L 273.945498 149.215367 
L 283.684231 153.530591 
L 294.750972 158.687165 
L 308.473732 165.340637 
L 354.511376 187.878817 
L 365.135448 192.71864 
L 374.431511 196.723571 
L 382.842234 200.120533 
L 390.810288 203.106762 
L 398.335672 205.691758 
L 405.418387 207.892028 
L 412.058432 209.729873 
L 418.698477 211.331284 
L 424.895852 212.596197 
L 431.093227 213.623597 
L 436.847933 214.351355 
L 442.602638 214.848301 
L 447.914674 215.091098 
L 453.22671 215.116132 
L 458.538746 214.913065 
L 463.850782 214.471414 
L 468.720148 213.847898 
L 473.589514 213.006662 
L 478.45888 211.93928 
L 483.328247 210.637206 
L 488.197613 209.091771 
L 493.066979 207.294173 
L 497.493676 205.433659 
L 501.920372 203.350551 
L 506.347069 201.037942 
L 510.773766 198.488821 
L 515.200462 195.696076 
L 519.627159 192.652487 
L 524.053855 189.350726 
L 528.480552 185.783353 
L 532.907248 181.942812 
L 537.333945 177.821429 
L 541.760642 173.411409 
L 543.088651 172.030938 
L 543.088651 172.030938 
" style="fill:none;stroke:#ef9f07;stroke-linecap:square;stroke-width:1.5;"/>
   </g>
   <g id="line2d_16">
    <path clip-path="url(#p12aba650a3)" d="M 100.861662 172.030938 
L 106.173698 168.225614 
L 111.485734 164.711154 
L 116.79777 161.478742 
L 122.109806 158.519687 
L 127.421841 155.825426 
L 132.733877 153.387513 
L 138.045913 151.197624 
L 143.357949 149.247542 
L 148.669985 147.529165 
L 153.982021 146.034493 
L 159.294057 144.755633 
L 165.048762 143.604697 
L 170.803468 142.688105 
L 176.558174 141.996196 
L 182.312879 141.519434 
L 188.510254 141.235801 
L 194.707629 141.179139 
L 200.905005 141.337968 
L 207.54505 141.734386 
L 214.185094 142.351368 
L 221.267809 143.237241 
L 228.350524 144.34221 
L 235.875908 145.738218 
L 243.843962 147.444715 
L 252.254685 149.476402 
L 261.108078 151.842298 
L 270.846811 154.678438 
L 281.470883 158.006003 
L 293.865633 162.12941 
L 309.359071 167.530945 
L 354.511376 183.430269 
L 366.906127 187.468844 
L 377.530198 190.700526 
L 387.268931 193.429826 
L 396.122324 195.682721 
L 404.533048 197.59292 
L 412.501101 199.171483 
L 420.026486 200.435073 
L 427.1092 201.405013 
L 434.191915 202.145659 
L 440.83196 202.617122 
L 447.472004 202.858846 
L 453.66938 202.864919 
L 459.866755 202.647314 
L 466.06413 202.194452 
L 471.818836 201.553035 
L 477.573541 200.689145 
L 483.328247 199.593153 
L 489.082952 198.2553 
L 494.394988 196.797143 
L 499.707024 195.116603 
L 505.01906 193.205698 
L 510.331096 191.056344 
L 515.643132 188.660344 
L 520.955168 186.009391 
L 526.267204 183.09506 
L 531.579239 179.908807 
L 536.891275 176.441964 
L 542.203311 172.685735 
L 543.088651 172.030938 
L 543.088651 172.030938 
" style="fill:none;stroke:#449775;stroke-linecap:square;stroke-width:1.5;"/>
   </g>
   <g id="patch_3">
    <path d="M 78.750313 314.941875 
L 78.750313 29.12 
" style="fill:none;stroke:#000000;stroke-linecap:square;stroke-linejoin:miter;stroke-width:0.8;"/>
   </g>
   <g id="patch_4">
    <path d="M 565.2 314.941875 
L 565.2 29.12 
" style="fill:none;stroke:#000000;stroke-linecap:square;stroke-linejoin:miter;stroke-width:0.8;"/>
   </g>
   <g id="patch_5">
    <path d="M 78.750313 314.941875 
L 565.2 314.941875 
" style="fill:none;stroke:#000000;stroke-linecap:square;stroke-linejoin:miter;stroke-width:0.8;"/>
   </g>
   <g id="patch_6">
    <path d="M 78.750313 29.12 
L 565.2 29.12 
" style="fill:none;stroke:#000000;stroke-linecap:square;stroke-linejoin:miter;stroke-width:0.8;"/>
   </g>
   <g id="text_14">
    <!-- G-function for different values of $I$, with $\beta = 0, \gamma = 0.001$ -->
    <g transform="translate(99.895156 23.12)scale(0.16 -0.16)">
     <defs>
      <path d="M 59.515625 10.40625 
L 59.515625 29.984375 
L 43.40625 29.984375 
L 43.40625 38.09375 
L 69.28125 38.09375 
L 69.28125 6.78125 
Q 63.578125 2.734375 56.6875 0.65625 
Q 49.8125 -1.421875 42 -1.421875 
Q 24.90625 -1.421875 15.25 8.5625 
Q 5.609375 18.5625 5.609375 36.375 
Q 5.609375 54.25 15.25 64.234375 
Q 24.90625 74.21875 42 74.21875 
Q 49.125 74.21875 55.546875 72.453125 
Q 61.96875 70.703125 67.390625 67.28125 
L 67.390625 56.78125 
Q 61.921875 61.421875 55.765625 63.765625 
Q 49.609375 66.109375 42.828125 66.109375 
Q 29.4375 66.109375 22.71875 58.640625 
Q 16.015625 51.171875 16.015625 36.375 
Q 16.015625 21.625 22.71875 14.15625 
Q 29.4375 6.6875 42.828125 6.6875 
Q 48.046875 6.6875 52.140625 7.59375 
Q 56.25 8.5 59.515625 10.40625 
z
" id="DejaVuSans-71"/>
      <path d="M 4.890625 31.390625 
L 31.203125 31.390625 
L 31.203125 23.390625 
L 4.890625 23.390625 
z
" id="DejaVuSans-45"/>
      <path d="M 37.109375 75.984375 
L 37.109375 68.5 
L 28.515625 68.5 
Q 23.6875 68.5 21.796875 66.546875 
Q 19.921875 64.59375 19.921875 59.515625 
L 19.921875 54.6875 
L 34.71875 54.6875 
L 34.71875 47.703125 
L 19.921875 47.703125 
L 19.921875 0 
L 10.890625 0 
L 10.890625 47.703125 
L 2.296875 47.703125 
L 2.296875 54.6875 
L 10.890625 54.6875 
L 10.890625 58.5 
Q 10.890625 67.625 15.140625 71.796875 
Q 19.390625 75.984375 28.609375 75.984375 
z
" id="DejaVuSans-102"/>
      <path d="M 8.5 21.578125 
L 8.5 54.6875 
L 17.484375 54.6875 
L 17.484375 21.921875 
Q 17.484375 14.15625 20.5 10.265625 
Q 23.53125 6.390625 29.59375 6.390625 
Q 36.859375 6.390625 41.078125 11.03125 
Q 45.3125 15.671875 45.3125 23.6875 
L 45.3125 54.6875 
L 54.296875 54.6875 
L 54.296875 0 
L 45.3125 0 
L 45.3125 8.40625 
Q 42.046875 3.421875 37.71875 1 
Q 33.40625 -1.421875 27.6875 -1.421875 
Q 18.265625 -1.421875 13.375 4.4375 
Q 8.5 10.296875 8.5 21.578125 
z
M 31.109375 56 
z
" id="DejaVuSans-117"/>
      <path d="M 54.890625 33.015625 
L 54.890625 0 
L 45.90625 0 
L 45.90625 32.71875 
Q 45.90625 40.484375 42.875 44.328125 
Q 39.84375 48.1875 33.796875 48.1875 
Q 26.515625 48.1875 22.3125 43.546875 
Q 18.109375 38.921875 18.109375 30.90625 
L 18.109375 0 
L 9.078125 0 
L 9.078125 54.6875 
L 18.109375 54.6875 
L 18.109375 46.1875 
Q 21.34375 51.125 25.703125 53.5625 
Q 30.078125 56 35.796875 56 
Q 45.21875 56 50.046875 50.171875 
Q 54.890625 44.34375 54.890625 33.015625 
z
" id="DejaVuSans-110"/>
      <path d="M 48.78125 52.59375 
L 48.78125 44.1875 
Q 44.96875 46.296875 41.140625 47.34375 
Q 37.3125 48.390625 33.40625 48.390625 
Q 24.65625 48.390625 19.8125 42.84375 
Q 14.984375 37.3125 14.984375 27.296875 
Q 14.984375 17.28125 19.8125 11.734375 
Q 24.65625 6.203125 33.40625 6.203125 
Q 37.3125 6.203125 41.140625 7.25 
Q 44.96875 8.296875 48.78125 10.40625 
L 48.78125 2.09375 
Q 45.015625 0.34375 40.984375 -0.53125 
Q 36.96875 -1.421875 32.421875 -1.421875 
Q 20.0625 -1.421875 12.78125 6.34375 
Q 5.515625 14.109375 5.515625 27.296875 
Q 5.515625 40.671875 12.859375 48.328125 
Q 20.21875 56 33.015625 56 
Q 37.15625 56 41.109375 55.140625 
Q 45.0625 54.296875 48.78125 52.59375 
z
" id="DejaVuSans-99"/>
      <path d="M 18.3125 70.21875 
L 18.3125 54.6875 
L 36.8125 54.6875 
L 36.8125 47.703125 
L 18.3125 47.703125 
L 18.3125 18.015625 
Q 18.3125 11.328125 20.140625 9.421875 
Q 21.96875 7.515625 27.59375 7.515625 
L 36.8125 7.515625 
L 36.8125 0 
L 27.59375 0 
Q 17.1875 0 13.234375 3.875 
Q 9.28125 7.765625 9.28125 18.015625 
L 9.28125 47.703125 
L 2.6875 47.703125 
L 2.6875 54.6875 
L 9.28125 54.6875 
L 9.28125 70.21875 
z
" id="DejaVuSans-116"/>
      <path d="M 9.421875 54.6875 
L 18.40625 54.6875 
L 18.40625 0 
L 9.421875 0 
z
M 9.421875 75.984375 
L 18.40625 75.984375 
L 18.40625 64.59375 
L 9.421875 64.59375 
z
" id="DejaVuSans-105"/>
      <path d="M 30.609375 48.390625 
Q 23.390625 48.390625 19.1875 42.75 
Q 14.984375 37.109375 14.984375 27.296875 
Q 14.984375 17.484375 19.15625 11.84375 
Q 23.34375 6.203125 30.609375 6.203125 
Q 37.796875 6.203125 41.984375 11.859375 
Q 46.1875 17.53125 46.1875 27.296875 
Q 46.1875 37.015625 41.984375 42.703125 
Q 37.796875 48.390625 30.609375 48.390625 
z
M 30.609375 56 
Q 42.328125 56 49.015625 48.375 
Q 55.71875 40.765625 55.71875 27.296875 
Q 55.71875 13.875 49.015625 6.21875 
Q 42.328125 -1.421875 30.609375 -1.421875 
Q 18.84375 -1.421875 12.171875 6.21875 
Q 5.515625 13.875 5.515625 27.296875 
Q 5.515625 40.765625 12.171875 48.375 
Q 18.84375 56 30.609375 56 
z
" id="DejaVuSans-111"/>
      <path id="DejaVuSans-32"/>
      <path d="M 41.109375 46.296875 
Q 39.59375 47.171875 37.8125 47.578125 
Q 36.03125 48 33.890625 48 
Q 26.265625 48 22.1875 43.046875 
Q 18.109375 38.09375 18.109375 28.8125 
L 18.109375 0 
L 9.078125 0 
L 9.078125 54.6875 
L 18.109375 54.6875 
L 18.109375 46.1875 
Q 20.953125 51.171875 25.484375 53.578125 
Q 30.03125 56 36.53125 56 
Q 37.453125 56 38.578125 55.875 
Q 39.703125 55.765625 41.0625 55.515625 
z
" id="DejaVuSans-114"/>
      <path d="M 45.40625 46.390625 
L 45.40625 75.984375 
L 54.390625 75.984375 
L 54.390625 0 
L 45.40625 0 
L 45.40625 8.203125 
Q 42.578125 3.328125 38.25 0.953125 
Q 33.9375 -1.421875 27.875 -1.421875 
Q 17.96875 -1.421875 11.734375 6.484375 
Q 5.515625 14.40625 5.515625 27.296875 
Q 5.515625 40.1875 11.734375 48.09375 
Q 17.96875 56 27.875 56 
Q 33.9375 56 38.25 53.625 
Q 42.578125 51.265625 45.40625 46.390625 
z
M 14.796875 27.296875 
Q 14.796875 17.390625 18.875 11.75 
Q 22.953125 6.109375 30.078125 6.109375 
Q 37.203125 6.109375 41.296875 11.75 
Q 45.40625 17.390625 45.40625 27.296875 
Q 45.40625 37.203125 41.296875 42.84375 
Q 37.203125 48.484375 30.078125 48.484375 
Q 22.953125 48.484375 18.875 42.84375 
Q 14.796875 37.203125 14.796875 27.296875 
z
" id="DejaVuSans-100"/>
      <path d="M 56.203125 29.59375 
L 56.203125 25.203125 
L 14.890625 25.203125 
Q 15.484375 15.921875 20.484375 11.0625 
Q 25.484375 6.203125 34.421875 6.203125 
Q 39.59375 6.203125 44.453125 7.46875 
Q 49.3125 8.734375 54.109375 11.28125 
L 54.109375 2.78125 
Q 49.265625 0.734375 44.1875 -0.34375 
Q 39.109375 -1.421875 33.890625 -1.421875 
Q 20.796875 -1.421875 13.15625 6.1875 
Q 5.515625 13.8125 5.515625 26.8125 
Q 5.515625 40.234375 12.765625 48.109375 
Q 20.015625 56 32.328125 56 
Q 43.359375 56 49.78125 48.890625 
Q 56.203125 41.796875 56.203125 29.59375 
z
M 47.21875 32.234375 
Q 47.125 39.59375 43.09375 43.984375 
Q 39.0625 48.390625 32.421875 48.390625 
Q 24.90625 48.390625 20.390625 44.140625 
Q 15.875 39.890625 15.1875 32.171875 
z
" id="DejaVuSans-101"/>
      <path d="M 2.984375 54.6875 
L 12.5 54.6875 
L 29.59375 8.796875 
L 46.6875 54.6875 
L 56.203125 54.6875 
L 35.6875 0 
L 23.484375 0 
z
" id="DejaVuSans-118"/>
      <path d="M 34.28125 27.484375 
Q 23.390625 27.484375 19.1875 25 
Q 14.984375 22.515625 14.984375 16.5 
Q 14.984375 11.71875 18.140625 8.90625 
Q 21.296875 6.109375 26.703125 6.109375 
Q 34.1875 6.109375 38.703125 11.40625 
Q 43.21875 16.703125 43.21875 25.484375 
L 43.21875 27.484375 
z
M 52.203125 31.203125 
L 52.203125 0 
L 43.21875 0 
L 43.21875 8.296875 
Q 40.140625 3.328125 35.546875 0.953125 
Q 30.953125 -1.421875 24.3125 -1.421875 
Q 15.921875 -1.421875 10.953125 3.296875 
Q 6 8.015625 6 15.921875 
Q 6 25.140625 12.171875 29.828125 
Q 18.359375 34.515625 30.609375 34.515625 
L 43.21875 34.515625 
L 43.21875 35.40625 
Q 43.21875 41.609375 39.140625 45 
Q 35.0625 48.390625 27.6875 48.390625 
Q 23 48.390625 18.546875 47.265625 
Q 14.109375 46.140625 10.015625 43.890625 
L 10.015625 52.203125 
Q 14.9375 54.109375 19.578125 55.046875 
Q 24.21875 56 28.609375 56 
Q 40.484375 56 46.34375 49.84375 
Q 52.203125 43.703125 52.203125 31.203125 
z
" id="DejaVuSans-97"/>
      <path d="M 9.421875 75.984375 
L 18.40625 75.984375 
L 18.40625 0 
L 9.421875 0 
z
" id="DejaVuSans-108"/>
      <path d="M 44.28125 53.078125 
L 44.28125 44.578125 
Q 40.484375 46.53125 36.375 47.5 
Q 32.28125 48.484375 27.875 48.484375 
Q 21.1875 48.484375 17.84375 46.4375 
Q 14.5 44.390625 14.5 40.28125 
Q 14.5 37.15625 16.890625 35.375 
Q 19.28125 33.59375 26.515625 31.984375 
L 29.59375 31.296875 
Q 39.15625 29.25 43.1875 25.515625 
Q 47.21875 21.78125 47.21875 15.09375 
Q 47.21875 7.46875 41.1875 3.015625 
Q 35.15625 -1.421875 24.609375 -1.421875 
Q 20.21875 -1.421875 15.453125 -0.5625 
Q 10.6875 0.296875 5.421875 2 
L 5.421875 11.28125 
Q 10.40625 8.6875 15.234375 7.390625 
Q 20.0625 6.109375 24.8125 6.109375 
Q 31.15625 6.109375 34.5625 8.28125 
Q 37.984375 10.453125 37.984375 14.40625 
Q 37.984375 18.0625 35.515625 20.015625 
Q 33.0625 21.96875 24.703125 23.78125 
L 21.578125 24.515625 
Q 13.234375 26.265625 9.515625 29.90625 
Q 5.8125 33.546875 5.8125 39.890625 
Q 5.8125 47.609375 11.28125 51.796875 
Q 16.75 56 26.8125 56 
Q 31.78125 56 36.171875 55.265625 
Q 40.578125 54.546875 44.28125 53.078125 
z
" id="DejaVuSans-115"/>
      <path d="M 16.890625 72.90625 
L 26.8125 72.90625 
L 12.59375 0 
L 2.6875 0 
z
" id="DejaVuSans-Oblique-73"/>
      <path d="M 11.71875 12.40625 
L 22.015625 12.40625 
L 22.015625 4 
L 14.015625 -11.625 
L 7.71875 -11.625 
L 11.71875 4 
z
" id="DejaVuSans-44"/>
      <path d="M 4.203125 54.6875 
L 13.1875 54.6875 
L 24.421875 12.015625 
L 35.59375 54.6875 
L 46.1875 54.6875 
L 57.421875 12.015625 
L 68.609375 54.6875 
L 77.59375 54.6875 
L 63.28125 0 
L 52.6875 0 
L 40.921875 44.828125 
L 29.109375 0 
L 18.5 0 
z
" id="DejaVuSans-119"/>
      <path d="M 54.890625 33.015625 
L 54.890625 0 
L 45.90625 0 
L 45.90625 32.71875 
Q 45.90625 40.484375 42.875 44.328125 
Q 39.84375 48.1875 33.796875 48.1875 
Q 26.515625 48.1875 22.3125 43.546875 
Q 18.109375 38.921875 18.109375 30.90625 
L 18.109375 0 
L 9.078125 0 
L 9.078125 75.984375 
L 18.109375 75.984375 
L 18.109375 46.1875 
Q 21.34375 51.125 25.703125 53.5625 
Q 30.078125 56 35.796875 56 
Q 45.21875 56 50.046875 50.171875 
Q 54.890625 44.34375 54.890625 33.015625 
z
" id="DejaVuSans-104"/>
      <path d="M 13.625 3.375 
L 8.9375 -20.796875 
L -0.09375 -20.796875 
L 14.5 54.34375 
Q 18.84375 76.609375 39.65625 76.609375 
Q 60.75 76.609375 57.171875 57.8125 
Q 54.734375 44.4375 45.21875 39.546875 
Q 58.015625 35.15625 55.515625 22.125 
Q 51.125 -1.078125 27.484375 -1.03125 
Q 17.140625 -0.984375 13.625 3.375 
z
M 15.921875 15.09375 
Q 19.671875 6.59375 29.296875 6.640625 
Q 43.359375 6.640625 46.34375 21.96875 
Q 49.03125 35.75 26.171875 34.671875 
L 27.78125 42.96875 
Q 45.453125 42.671875 48.53125 58.59375 
Q 50.640625 69.34375 39.203125 69.28125 
Q 26.421875 69.28125 23.484375 54.046875 
z
" id="DejaVuSans-Oblique-946"/>
      <path d="M 10.59375 45.40625 
L 73.1875 45.40625 
L 73.1875 37.203125 
L 10.59375 37.203125 
z
M 10.59375 25.484375 
L 73.1875 25.484375 
L 73.1875 17.1875 
L 10.59375 17.1875 
z
" id="DejaVuSans-61"/>
      <path d="M 23.296875 46.09375 
L 28.71875 12.3125 
L 54 54.6875 
L 63.53125 54.6875 
L 30.8125 0 
L 26.765625 -20.796875 
L 17.78125 -20.796875 
L 21.828125 0 
L 15.4375 40.828125 
Q 14.453125 46.96875 9.8125 46.96875 
L 7.421875 46.96875 
L 8.890625 54.6875 
L 12.3125 54.6875 
Q 21.921875 54.6875 23.296875 46.09375 
z
" id="DejaVuSans-Oblique-947"/>
     </defs>
     <use transform="translate(0 0.390625)" xlink:href="#DejaVuSans-71"/>
     <use transform="translate(77.490234 0.390625)" xlink:href="#DejaVuSans-45"/>
     <use transform="translate(113.574219 0.390625)" xlink:href="#DejaVuSans-102"/>
     <use transform="translate(148.779297 0.390625)" xlink:href="#DejaVuSans-117"/>
     <use transform="translate(212.158203 0.390625)" xlink:href="#DejaVuSans-110"/>
     <use transform="translate(275.537109 0.390625)" xlink:href="#DejaVuSans-99"/>
     <use transform="translate(330.517578 0.390625)" xlink:href="#DejaVuSans-116"/>
     <use transform="translate(369.726562 0.390625)" xlink:href="#DejaVuSans-105"/>
     <use transform="translate(397.509766 0.390625)" xlink:href="#DejaVuSans-111"/>
     <use transform="translate(458.691406 0.390625)" xlink:href="#DejaVuSans-110"/>
     <use transform="translate(522.070312 0.390625)" xlink:href="#DejaVuSans-32"/>
     <use transform="translate(553.857422 0.390625)" xlink:href="#DejaVuSans-102"/>
     <use transform="translate(589.0625 0.390625)" xlink:href="#DejaVuSans-111"/>
     <use transform="translate(650.244141 0.390625)" xlink:href="#DejaVuSans-114"/>
     <use transform="translate(691.357422 0.390625)" xlink:href="#DejaVuSans-32"/>
     <use transform="translate(723.144531 0.390625)" xlink:href="#DejaVuSans-100"/>
     <use transform="translate(786.621094 0.390625)" xlink:href="#DejaVuSans-105"/>
     <use transform="translate(814.404297 0.390625)" xlink:href="#DejaVuSans-102"/>
     <use transform="translate(849.609375 0.390625)" xlink:href="#DejaVuSans-102"/>
     <use transform="translate(884.814453 0.390625)" xlink:href="#DejaVuSans-101"/>
     <use transform="translate(946.337891 0.390625)" xlink:href="#DejaVuSans-114"/>
     <use transform="translate(987.451172 0.390625)" xlink:href="#DejaVuSans-101"/>
     <use transform="translate(1048.974609 0.390625)" xlink:href="#DejaVuSans-110"/>
     <use transform="translate(1112.353516 0.390625)" xlink:href="#DejaVuSans-116"/>
     <use transform="translate(1151.5625 0.390625)" xlink:href="#DejaVuSans-32"/>
     <use transform="translate(1183.349609 0.390625)" xlink:href="#DejaVuSans-118"/>
     <use transform="translate(1242.529297 0.390625)" xlink:href="#DejaVuSans-97"/>
     <use transform="translate(1303.808594 0.390625)" xlink:href="#DejaVuSans-108"/>
     <use transform="translate(1331.591797 0.390625)" xlink:href="#DejaVuSans-117"/>
     <use transform="translate(1394.970703 0.390625)" xlink:href="#DejaVuSans-101"/>
     <use transform="translate(1456.494141 0.390625)" xlink:href="#DejaVuSans-115"/>
     <use transform="translate(1508.59375 0.390625)" xlink:href="#DejaVuSans-32"/>
     <use transform="translate(1540.380859 0.390625)" xlink:href="#DejaVuSans-111"/>
     <use transform="translate(1601.5625 0.390625)" xlink:href="#DejaVuSans-102"/>
     <use transform="translate(1636.767578 0.390625)" xlink:href="#DejaVuSans-32"/>
     <use transform="translate(1668.554688 0.390625)" xlink:href="#DejaVuSans-Oblique-73"/>
     <use transform="translate(1698.046875 0.390625)" xlink:href="#DejaVuSans-44"/>
     <use transform="translate(1729.833984 0.390625)" xlink:href="#DejaVuSans-32"/>
     <use transform="translate(1761.621094 0.390625)" xlink:href="#DejaVuSans-119"/>
     <use transform="translate(1843.408203 0.390625)" xlink:href="#DejaVuSans-105"/>
     <use transform="translate(1871.191406 0.390625)" xlink:href="#DejaVuSans-116"/>
     <use transform="translate(1910.400391 0.390625)" xlink:href="#DejaVuSans-104"/>
     <use transform="translate(1973.779297 0.390625)" xlink:href="#DejaVuSans-32"/>
     <use transform="translate(2005.566406 0.390625)" xlink:href="#DejaVuSans-Oblique-946"/>
     <use transform="translate(2088.867188 0.390625)" xlink:href="#DejaVuSans-61"/>
     <use transform="translate(2192.138672 0.390625)" xlink:href="#DejaVuSans-48"/>
     <use transform="translate(2255.761719 0.390625)" xlink:href="#DejaVuSans-44"/>
     <use transform="translate(2307.03125 0.390625)" xlink:href="#DejaVuSans-Oblique-947"/>
     <use transform="translate(2385.693359 0.390625)" xlink:href="#DejaVuSans-61"/>
     <use transform="translate(2488.964844 0.390625)" xlink:href="#DejaVuSans-48"/>
     <use transform="translate(2552.587891 0.390625)" xlink:href="#DejaVuSans-46"/>
     <use transform="translate(2584.375 0.390625)" xlink:href="#DejaVuSans-48"/>
     <use transform="translate(2647.998047 0.390625)" xlink:href="#DejaVuSans-48"/>
     <use transform="translate(2711.621094 0.390625)" xlink:href="#DejaVuSans-49"/>
    </g>
   </g>
   <g id="legend_1">
    <g id="patch_7">
     <path d="M 495 95.8325 
L 558.2 95.8325 
Q 560.2 95.8325 560.2 93.8325 
L 560.2 36.12 
Q 560.2 34.12 558.2 34.12 
L 495 34.12 
Q 493 34.12 493 36.12 
L 493 93.8325 
Q 493 95.8325 495 95.8325 
z
" style="fill:#ffffff;opacity:0.8;stroke:#cccccc;stroke-linejoin:miter;"/>
    </g>
    <g id="line2d_17">
     <path d="M 497 42.218438 
L 517 42.218438 
" style="fill:none;stroke:#aa3863;stroke-linecap:square;stroke-width:1.5;"/>
    </g>
    <g id="line2d_18"/>
    <g id="text_15">
     <!-- $I = 1.1$ -->
     <g transform="translate(525 45.718438)scale(0.1 -0.1)">
      <use transform="translate(0 0.09375)" xlink:href="#DejaVuSans-Oblique-73"/>
      <use transform="translate(48.974609 0.09375)" xlink:href="#DejaVuSans-61"/>
      <use transform="translate(152.246094 0.09375)" xlink:href="#DejaVuSans-49"/>
      <use transform="translate(215.869141 0.09375)" xlink:href="#DejaVuSans-46"/>
      <use transform="translate(247.65625 0.09375)" xlink:href="#DejaVuSans-49"/>
     </g>
    </g>
    <g id="line2d_19">
     <path d="M 497 56.896563 
L 517 56.896563 
" style="fill:none;stroke:#d97020;stroke-linecap:square;stroke-width:1.5;"/>
    </g>
    <g id="line2d_20"/>
    <g id="text_16">
     <!-- $I = 1.2$ -->
     <g transform="translate(525 60.396563)scale(0.1 -0.1)">
      <use transform="translate(0 0.78125)" xlink:href="#DejaVuSans-Oblique-73"/>
      <use transform="translate(48.974609 0.78125)" xlink:href="#DejaVuSans-61"/>
      <use transform="translate(152.246094 0.78125)" xlink:href="#DejaVuSans-49"/>
      <use transform="translate(215.869141 0.78125)" xlink:href="#DejaVuSans-46"/>
      <use transform="translate(242.15625 0.78125)" xlink:href="#DejaVuSans-50"/>
     </g>
    </g>
    <g id="line2d_21">
     <path d="M 497 71.574688 
L 517 71.574688 
" style="fill:none;stroke:#ef9f07;stroke-linecap:square;stroke-width:1.5;"/>
    </g>
    <g id="line2d_22"/>
    <g id="text_17">
     <!-- $I = 1.3$ -->
     <g transform="translate(525 75.074688)scale(0.1 -0.1)">
      <defs>
       <path d="M 40.578125 39.3125 
Q 47.65625 37.796875 51.625 33 
Q 55.609375 28.21875 55.609375 21.1875 
Q 55.609375 10.40625 48.1875 4.484375 
Q 40.765625 -1.421875 27.09375 -1.421875 
Q 22.515625 -1.421875 17.65625 -0.515625 
Q 12.796875 0.390625 7.625 2.203125 
L 7.625 11.71875 
Q 11.71875 9.328125 16.59375 8.109375 
Q 21.484375 6.890625 26.8125 6.890625 
Q 36.078125 6.890625 40.9375 10.546875 
Q 45.796875 14.203125 45.796875 21.1875 
Q 45.796875 27.640625 41.28125 31.265625 
Q 36.765625 34.90625 28.71875 34.90625 
L 20.21875 34.90625 
L 20.21875 43.015625 
L 29.109375 43.015625 
Q 36.375 43.015625 40.234375 45.921875 
Q 44.09375 48.828125 44.09375 54.296875 
Q 44.09375 59.90625 40.109375 62.90625 
Q 36.140625 65.921875 28.71875 65.921875 
Q 24.65625 65.921875 20.015625 65.03125 
Q 15.375 64.15625 9.8125 62.3125 
L 9.8125 71.09375 
Q 15.4375 72.65625 20.34375 73.4375 
Q 25.25 74.21875 29.59375 74.21875 
Q 40.828125 74.21875 47.359375 69.109375 
Q 53.90625 64.015625 53.90625 55.328125 
Q 53.90625 49.265625 50.4375 45.09375 
Q 46.96875 40.921875 40.578125 39.3125 
z
" id="DejaVuSans-51"/>
      </defs>
      <use transform="translate(0 0.78125)" xlink:href="#DejaVuSans-Oblique-73"/>
      <use transform="translate(48.974609 0.78125)" xlink:href="#DejaVuSans-61"/>
      <use transform="translate(152.246094 0.78125)" xlink:href="#DejaVuSans-49"/>
      <use transform="translate(215.869141 0.78125)" xlink:href="#DejaVuSans-46"/>
      <use transform="translate(247.65625 0.78125)" xlink:href="#DejaVuSans-51"/>
     </g>
    </g>
    <g id="line2d_23">
     <path d="M 497 86.252813 
L 517 86.252813 
" style="fill:none;stroke:#449775;stroke-linecap:square;stroke-width:1.5;"/>
    </g>
    <g id="line2d_24"/>
    <g id="text_18">
     <!-- $I = 1.4$ -->
     <g transform="translate(525 89.752813)scale(0.1 -0.1)">
      <use transform="translate(0 0.09375)" xlink:href="#DejaVuSans-Oblique-73"/>
      <use transform="translate(48.974609 0.09375)" xlink:href="#DejaVuSans-61"/>
      <use transform="translate(152.246094 0.09375)" xlink:href="#DejaVuSans-49"/>
      <use transform="translate(215.869141 0.09375)" xlink:href="#DejaVuSans-46"/>
      <use transform="translate(247.65625 0.09375)" xlink:href="#DejaVuSans-52"/>
     </g>
    </g>
   </g>
   <g id="PathCollection_1">
    <path clip-path="url(#p12aba650a3)" d="M 100.861662 175.193215 
C 101.700308 175.193215 102.504718 174.860018 103.09773 174.267005 
C 103.690742 173.673993 104.02394 172.869583 104.02394 172.030938 
C 104.02394 171.192292 103.690742 170.387882 103.09773 169.79487 
C 102.504718 169.201857 101.700308 168.86866 100.861662 168.86866 
C 100.023016 168.86866 99.218606 169.201857 98.625594 169.79487 
C 98.032582 170.387882 97.699384 171.192292 97.699384 172.030938 
C 97.699384 172.869583 98.032582 173.673993 98.625594 174.267005 
C 99.218606 174.860018 100.023016 175.193215 100.861662 175.193215 
z
" style="fill:none;stroke:#000000;"/>
   </g>
   <g id="PathCollection_2">
    <defs>
     <path d="M 0 3.162278 
C 0.838646 3.162278 1.643056 2.82908 2.236068 2.236068 
C 2.82908 1.643056 3.162278 0.838646 3.162278 0 
C 3.162278 -0.838646 2.82908 -1.643056 2.236068 -2.236068 
C 1.643056 -2.82908 0.838646 -3.162278 0 -3.162278 
C -0.838646 -3.162278 -1.643056 -2.82908 -2.236068 -2.236068 
C -2.82908 -1.643056 -3.162278 -0.838646 -3.162278 0 
C -3.162278 0.838646 -2.82908 1.643056 -2.236068 2.236068 
C -1.643056 2.82908 -0.838646 3.162278 0 3.162278 
z
" id="mb8c487dd05" style="stroke:#000000;"/>
    </defs>
    <g clip-path="url(#p12aba650a3)">
     <use style="stroke:#000000;" x="321.753821" xlink:href="#mb8c487dd05" y="172.030938"/>
    </g>
   </g>
   <g id="PathCollection_3">
    <path clip-path="url(#p12aba650a3)" d="M 542.645981 175.193215 
C 543.484627 175.193215 544.289037 174.860018 544.882049 174.267005 
C 545.475061 173.673993 545.808259 172.869583 545.808259 172.030938 
C 545.808259 171.192292 545.475061 170.387882 544.882049 169.79487 
C 544.289037 169.201857 543.484627 168.86866 542.645981 168.86866 
C 541.807335 168.86866 541.002925 169.201857 540.409913 169.79487 
C 539.816901 170.387882 539.483703 171.192292 539.483703 172.030938 
C 539.483703 172.869583 539.816901 173.673993 540.409913 174.267005 
C 541.002925 174.860018 541.807335 175.193215 542.645981 175.193215 
z
" style="fill:none;stroke:#000000;"/>
   </g>
   <g id="PathCollection_4">
    <path clip-path="url(#p12aba650a3)" d="M 100.861662 175.193215 
C 101.700308 175.193215 102.504718 174.860018 103.09773 174.267005 
C 103.690742 173.673993 104.02394 172.869583 104.02394 172.030938 
C 104.02394 171.192292 103.690742 170.387882 103.09773 169.79487 
C 102.504718 169.201857 101.700308 168.86866 100.861662 168.86866 
C 100.023016 168.86866 99.218606 169.201857 98.625594 169.79487 
C 98.032582 170.387882 97.699384 171.192292 97.699384 172.030938 
C 97.699384 172.869583 98.032582 173.673993 98.625594 174.267005 
C 99.218606 174.860018 100.023016 175.193215 100.861662 175.193215 
z
" style="fill:none;stroke:#000000;"/>
   </g>
   <g id="PathCollection_5">
    <g clip-path="url(#p12aba650a3)">
     <use style="stroke:#000000;" x="321.753821" xlink:href="#mb8c487dd05" y="172.030938"/>
    </g>
   </g>
   <g id="PathCollection_6">
    <path clip-path="url(#p12aba650a3)" d="M 542.645981 175.193215 
C 543.484627 175.193215 544.289037 174.860018 544.882049 174.267005 
C 545.475061 173.673993 545.808259 172.869583 545.808259 172.030938 
C 545.808259 171.192292 545.475061 170.387882 544.882049 169.79487 
C 544.289037 169.201857 543.484627 168.86866 542.645981 168.86866 
C 541.807335 168.86866 541.002925 169.201857 540.409913 169.79487 
C 539.816901 170.387882 539.483703 171.192292 539.483703 172.030938 
C 539.483703 172.869583 539.816901 173.673993 540.409913 174.267005 
C 541.002925 174.860018 541.807335 175.193215 542.645981 175.193215 
z
" style="fill:none;stroke:#000000;"/>
   </g>
   <g id="PathCollection_7">
    <path clip-path="url(#p12aba650a3)" d="M 100.861662 175.193215 
C 101.700308 175.193215 102.504718 174.860018 103.09773 174.267005 
C 103.690742 173.673993 104.02394 172.869583 104.02394 172.030938 
C 104.02394 171.192292 103.690742 170.387882 103.09773 169.79487 
C 102.504718 169.201857 101.700308 168.86866 100.861662 168.86866 
C 100.023016 168.86866 99.218606 169.201857 98.625594 169.79487 
C 98.032582 170.387882 97.699384 171.192292 97.699384 172.030938 
C 97.699384 172.869583 98.032582 173.673993 98.625594 174.267005 
C 99.218606 174.860018 100.023016 175.193215 100.861662 175.193215 
z
" style="fill:none;stroke:#000000;"/>
   </g>
   <g id="PathCollection_8">
    <g clip-path="url(#p12aba650a3)">
     <use style="stroke:#000000;" x="321.753821" xlink:href="#mb8c487dd05" y="172.030938"/>
    </g>
   </g>
   <g id="PathCollection_9">
    <path clip-path="url(#p12aba650a3)" d="M 542.645981 175.193215 
C 543.484627 175.193215 544.289037 174.860018 544.882049 174.267005 
C 545.475061 173.673993 545.808259 172.869583 545.808259 172.030938 
C 545.808259 171.192292 545.475061 170.387882 544.882049 169.79487 
C 544.289037 169.201857 543.484627 168.86866 542.645981 168.86866 
C 541.807335 168.86866 541.002925 169.201857 540.409913 169.79487 
C 539.816901 170.387882 539.483703 171.192292 539.483703 172.030938 
C 539.483703 172.869583 539.816901 173.673993 540.409913 174.267005 
C 541.002925 174.860018 541.807335 175.193215 542.645981 175.193215 
z
" style="fill:none;stroke:#000000;"/>
   </g>
   <g id="PathCollection_10">
    <path clip-path="url(#p12aba650a3)" d="M 100.861662 175.193215 
C 101.700308 175.193215 102.504718 174.860018 103.09773 174.267005 
C 103.690742 173.673993 104.02394 172.869583 104.02394 172.030938 
C 104.02394 171.192292 103.690742 170.387882 103.09773 169.79487 
C 102.504718 169.201857 101.700308 168.86866 100.861662 168.86866 
C 100.023016 168.86866 99.218606 169.201857 98.625594 169.79487 
C 98.032582 170.387882 97.699384 171.192292 97.699384 172.030938 
C 97.699384 172.869583 98.032582 173.673993 98.625594 174.267005 
C 99.218606 174.860018 100.023016 175.193215 100.861662 175.193215 
z
" style="fill:none;stroke:#000000;"/>
   </g>
   <g id="PathCollection_11">
    <g clip-path="url(#p12aba650a3)">
     <use style="stroke:#000000;" x="321.753821" xlink:href="#mb8c487dd05" y="172.030938"/>
    </g>
   </g>
   <g id="PathCollection_12">
    <path clip-path="url(#p12aba650a3)" d="M 542.645981 175.193215 
C 543.484627 175.193215 544.289037 174.860018 544.882049 174.267005 
C 545.475061 173.673993 545.808259 172.869583 545.808259 172.030938 
C 545.808259 171.192292 545.475061 170.387882 544.882049 169.79487 
C 544.289037 169.201857 543.484627 168.86866 542.645981 168.86866 
C 541.807335 168.86866 541.002925 169.201857 540.409913 169.79487 
C 539.816901 170.387882 539.483703 171.192292 539.483703 172.030938 
C 539.483703 172.869583 539.816901 173.673993 540.409913 174.267005 
C 541.002925 174.860018 541.807335 175.193215 542.645981 175.193215 
z
" style="fill:none;stroke:#000000;"/>
   </g>
  </g>
 </g>
 <defs>
  <clipPath id="p12aba650a3">
   <rect height="285.821875" width="486.449687" x="78.750313" y="29.12"/>
  </clipPath>
 </defs>
</svg>
