<?xml version="1.0" encoding="utf-8" standalone="no"?>
<!DOCTYPE svg PUBLIC "-//W3C//DTD SVG 1.1//EN"
  "http://www.w3.org/Graphics/SVG/1.1/DTD/svg11.dtd">
<!-- Created with matplotlib (https://matplotlib.org/) -->
<svg height="252pt" version="1.1" viewBox="0 0 864 252" width="864pt" xmlns="http://www.w3.org/2000/svg" xmlns:xlink="http://www.w3.org/1999/xlink">
 <metadata>
  <rdf:RDF xmlns:cc="http://creativecommons.org/ns#" xmlns:dc="http://purl.org/dc/elements/1.1/" xmlns:rdf="http://www.w3.org/1999/02/22-rdf-syntax-ns#">
   <cc:Work>
    <dc:type rdf:resource="http://purl.org/dc/dcmitype/StillImage"/>
    <dc:date>2021-08-26T03:15:15.614295</dc:date>
    <dc:format>image/svg+xml</dc:format>
    <dc:creator>
     <cc:Agent>
      <dc:title>Matplotlib v3.3.3, https://matplotlib.org/</dc:title>
     </cc:Agent>
    </dc:creator>
   </cc:Work>
  </rdf:RDF>
 </metadata>
 <defs>
  <style type="text/css">*{stroke-linecap:butt;stroke-linejoin:round;}</style>
 </defs>
 <g id="figure_1">
  <g id="patch_1">
   <path d="M 0 252 
L 864 252 
L 864 0 
L 0 0 
z
" style="fill:#ffffff;"/>
  </g>
  <g id="axes_1">
   <g id="patch_2">
    <path d="M 55.705625 207.921875 
L 288.464167 207.921875 
L 288.464167 53.865 
L 55.705625 53.865 
z
" style="fill:#ffffff;"/>
   </g>
   <g id="matplotlib.axis_1">
    <g id="xtick_1">
     <g id="line2d_1">
      <defs>
       <path d="M 0 0 
L 0 3.5 
" id="mae4c77fee8" style="stroke:#000000;stroke-width:0.8;"/>
      </defs>
      <g>
       <use style="stroke:#000000;stroke-width:0.8;" x="102.257333" xlink:href="#mae4c77fee8" y="207.921875"/>
      </g>
     </g>
     <g id="text_1">
      <!-- 4 -->
      <g transform="translate(99.076083 222.520312)scale(0.1 -0.1)">
       <defs>
        <path d="M 37.796875 64.3125 
L 12.890625 25.390625 
L 37.796875 25.390625 
z
M 35.203125 72.90625 
L 47.609375 72.90625 
L 47.609375 25.390625 
L 58.015625 25.390625 
L 58.015625 17.1875 
L 47.609375 17.1875 
L 47.609375 0 
L 37.796875 0 
L 37.796875 17.1875 
L 4.890625 17.1875 
L 4.890625 26.703125 
z
" id="DejaVuSans-52"/>
       </defs>
       <use xlink:href="#DejaVuSans-52"/>
      </g>
     </g>
    </g>
    <g id="xtick_2">
     <g id="line2d_2">
      <g>
       <use style="stroke:#000000;stroke-width:0.8;" x="164.326278" xlink:href="#mae4c77fee8" y="207.921875"/>
      </g>
     </g>
     <g id="text_2">
      <!-- 6 -->
      <g transform="translate(161.145028 222.520312)scale(0.1 -0.1)">
       <defs>
        <path d="M 33.015625 40.375 
Q 26.375 40.375 22.484375 35.828125 
Q 18.609375 31.296875 18.609375 23.390625 
Q 18.609375 15.53125 22.484375 10.953125 
Q 26.375 6.390625 33.015625 6.390625 
Q 39.65625 6.390625 43.53125 10.953125 
Q 47.40625 15.53125 47.40625 23.390625 
Q 47.40625 31.296875 43.53125 35.828125 
Q 39.65625 40.375 33.015625 40.375 
z
M 52.59375 71.296875 
L 52.59375 62.3125 
Q 48.875 64.0625 45.09375 64.984375 
Q 41.3125 65.921875 37.59375 65.921875 
Q 27.828125 65.921875 22.671875 59.328125 
Q 17.53125 52.734375 16.796875 39.40625 
Q 19.671875 43.65625 24.015625 45.921875 
Q 28.375 48.1875 33.59375 48.1875 
Q 44.578125 48.1875 50.953125 41.515625 
Q 57.328125 34.859375 57.328125 23.390625 
Q 57.328125 12.15625 50.6875 5.359375 
Q 44.046875 -1.421875 33.015625 -1.421875 
Q 20.359375 -1.421875 13.671875 8.265625 
Q 6.984375 17.96875 6.984375 36.375 
Q 6.984375 53.65625 15.1875 63.9375 
Q 23.390625 74.21875 37.203125 74.21875 
Q 40.921875 74.21875 44.703125 73.484375 
Q 48.484375 72.75 52.59375 71.296875 
z
" id="DejaVuSans-54"/>
       </defs>
       <use xlink:href="#DejaVuSans-54"/>
      </g>
     </g>
    </g>
    <g id="xtick_3">
     <g id="line2d_3">
      <g>
       <use style="stroke:#000000;stroke-width:0.8;" x="226.395222" xlink:href="#mae4c77fee8" y="207.921875"/>
      </g>
     </g>
     <g id="text_3">
      <!-- 8 -->
      <g transform="translate(223.213972 222.520312)scale(0.1 -0.1)">
       <defs>
        <path d="M 31.78125 34.625 
Q 24.75 34.625 20.71875 30.859375 
Q 16.703125 27.09375 16.703125 20.515625 
Q 16.703125 13.921875 20.71875 10.15625 
Q 24.75 6.390625 31.78125 6.390625 
Q 38.8125 6.390625 42.859375 10.171875 
Q 46.921875 13.96875 46.921875 20.515625 
Q 46.921875 27.09375 42.890625 30.859375 
Q 38.875 34.625 31.78125 34.625 
z
M 21.921875 38.8125 
Q 15.578125 40.375 12.03125 44.71875 
Q 8.5 49.078125 8.5 55.328125 
Q 8.5 64.0625 14.71875 69.140625 
Q 20.953125 74.21875 31.78125 74.21875 
Q 42.671875 74.21875 48.875 69.140625 
Q 55.078125 64.0625 55.078125 55.328125 
Q 55.078125 49.078125 51.53125 44.71875 
Q 48 40.375 41.703125 38.8125 
Q 48.828125 37.15625 52.796875 32.3125 
Q 56.78125 27.484375 56.78125 20.515625 
Q 56.78125 9.90625 50.3125 4.234375 
Q 43.84375 -1.421875 31.78125 -1.421875 
Q 19.734375 -1.421875 13.25 4.234375 
Q 6.78125 9.90625 6.78125 20.515625 
Q 6.78125 27.484375 10.78125 32.3125 
Q 14.796875 37.15625 21.921875 38.8125 
z
M 18.3125 54.390625 
Q 18.3125 48.734375 21.84375 45.5625 
Q 25.390625 42.390625 31.78125 42.390625 
Q 38.140625 42.390625 41.71875 45.5625 
Q 45.3125 48.734375 45.3125 54.390625 
Q 45.3125 60.0625 41.71875 63.234375 
Q 38.140625 66.40625 31.78125 66.40625 
Q 25.390625 66.40625 21.84375 63.234375 
Q 18.3125 60.0625 18.3125 54.390625 
z
" id="DejaVuSans-56"/>
       </defs>
       <use xlink:href="#DejaVuSans-56"/>
      </g>
     </g>
    </g>
    <g id="xtick_4">
     <g id="line2d_4">
      <g>
       <use style="stroke:#000000;stroke-width:0.8;" x="288.464167" xlink:href="#mae4c77fee8" y="207.921875"/>
      </g>
     </g>
     <g id="text_4">
      <!-- 10 -->
      <g transform="translate(282.101667 222.520312)scale(0.1 -0.1)">
       <defs>
        <path d="M 12.40625 8.296875 
L 28.515625 8.296875 
L 28.515625 63.921875 
L 10.984375 60.40625 
L 10.984375 69.390625 
L 28.421875 72.90625 
L 38.28125 72.90625 
L 38.28125 8.296875 
L 54.390625 8.296875 
L 54.390625 0 
L 12.40625 0 
z
" id="DejaVuSans-49"/>
        <path d="M 31.78125 66.40625 
Q 24.171875 66.40625 20.328125 58.90625 
Q 16.5 51.421875 16.5 36.375 
Q 16.5 21.390625 20.328125 13.890625 
Q 24.171875 6.390625 31.78125 6.390625 
Q 39.453125 6.390625 43.28125 13.890625 
Q 47.125 21.390625 47.125 36.375 
Q 47.125 51.421875 43.28125 58.90625 
Q 39.453125 66.40625 31.78125 66.40625 
z
M 31.78125 74.21875 
Q 44.046875 74.21875 50.515625 64.515625 
Q 56.984375 54.828125 56.984375 36.375 
Q 56.984375 17.96875 50.515625 8.265625 
Q 44.046875 -1.421875 31.78125 -1.421875 
Q 19.53125 -1.421875 13.0625 8.265625 
Q 6.59375 17.96875 6.59375 36.375 
Q 6.59375 54.828125 13.0625 64.515625 
Q 19.53125 74.21875 31.78125 74.21875 
z
" id="DejaVuSans-48"/>
       </defs>
       <use xlink:href="#DejaVuSans-49"/>
       <use x="63.623047" xlink:href="#DejaVuSans-48"/>
      </g>
     </g>
    </g>
    <g id="text_5">
     <!-- Time ($10^{-2}$ seconds) -->
     <g transform="translate(110.104896 238.704375)scale(0.12 -0.12)">
      <defs>
       <path d="M -0.296875 72.90625 
L 61.375 72.90625 
L 61.375 64.59375 
L 35.5 64.59375 
L 35.5 0 
L 25.59375 0 
L 25.59375 64.59375 
L -0.296875 64.59375 
z
" id="DejaVuSans-84"/>
       <path d="M 9.421875 54.6875 
L 18.40625 54.6875 
L 18.40625 0 
L 9.421875 0 
z
M 9.421875 75.984375 
L 18.40625 75.984375 
L 18.40625 64.59375 
L 9.421875 64.59375 
z
" id="DejaVuSans-105"/>
       <path d="M 52 44.1875 
Q 55.375 50.25 60.0625 53.125 
Q 64.75 56 71.09375 56 
Q 79.640625 56 84.28125 50.015625 
Q 88.921875 44.046875 88.921875 33.015625 
L 88.921875 0 
L 79.890625 0 
L 79.890625 32.71875 
Q 79.890625 40.578125 77.09375 44.375 
Q 74.3125 48.1875 68.609375 48.1875 
Q 61.625 48.1875 57.5625 43.546875 
Q 53.515625 38.921875 53.515625 30.90625 
L 53.515625 0 
L 44.484375 0 
L 44.484375 32.71875 
Q 44.484375 40.625 41.703125 44.40625 
Q 38.921875 48.1875 33.109375 48.1875 
Q 26.21875 48.1875 22.15625 43.53125 
Q 18.109375 38.875 18.109375 30.90625 
L 18.109375 0 
L 9.078125 0 
L 9.078125 54.6875 
L 18.109375 54.6875 
L 18.109375 46.1875 
Q 21.1875 51.21875 25.484375 53.609375 
Q 29.78125 56 35.6875 56 
Q 41.65625 56 45.828125 52.96875 
Q 50 49.953125 52 44.1875 
z
" id="DejaVuSans-109"/>
       <path d="M 56.203125 29.59375 
L 56.203125 25.203125 
L 14.890625 25.203125 
Q 15.484375 15.921875 20.484375 11.0625 
Q 25.484375 6.203125 34.421875 6.203125 
Q 39.59375 6.203125 44.453125 7.46875 
Q 49.3125 8.734375 54.109375 11.28125 
L 54.109375 2.78125 
Q 49.265625 0.734375 44.1875 -0.34375 
Q 39.109375 -1.421875 33.890625 -1.421875 
Q 20.796875 -1.421875 13.15625 6.1875 
Q 5.515625 13.8125 5.515625 26.8125 
Q 5.515625 40.234375 12.765625 48.109375 
Q 20.015625 56 32.328125 56 
Q 43.359375 56 49.78125 48.890625 
Q 56.203125 41.796875 56.203125 29.59375 
z
M 47.21875 32.234375 
Q 47.125 39.59375 43.09375 43.984375 
Q 39.0625 48.390625 32.421875 48.390625 
Q 24.90625 48.390625 20.390625 44.140625 
Q 15.875 39.890625 15.1875 32.171875 
z
" id="DejaVuSans-101"/>
       <path id="DejaVuSans-32"/>
       <path d="M 31 75.875 
Q 24.46875 64.65625 21.28125 53.65625 
Q 18.109375 42.671875 18.109375 31.390625 
Q 18.109375 20.125 21.3125 9.0625 
Q 24.515625 -2 31 -13.1875 
L 23.1875 -13.1875 
Q 15.875 -1.703125 12.234375 9.375 
Q 8.59375 20.453125 8.59375 31.390625 
Q 8.59375 42.28125 12.203125 53.3125 
Q 15.828125 64.359375 23.1875 75.875 
z
" id="DejaVuSans-40"/>
       <path d="M 10.59375 35.5 
L 73.1875 35.5 
L 73.1875 27.203125 
L 10.59375 27.203125 
z
" id="DejaVuSans-8722"/>
       <path d="M 19.1875 8.296875 
L 53.609375 8.296875 
L 53.609375 0 
L 7.328125 0 
L 7.328125 8.296875 
Q 12.9375 14.109375 22.625 23.890625 
Q 32.328125 33.6875 34.8125 36.53125 
Q 39.546875 41.84375 41.421875 45.53125 
Q 43.3125 49.21875 43.3125 52.78125 
Q 43.3125 58.59375 39.234375 62.25 
Q 35.15625 65.921875 28.609375 65.921875 
Q 23.96875 65.921875 18.8125 64.3125 
Q 13.671875 62.703125 7.8125 59.421875 
L 7.8125 69.390625 
Q 13.765625 71.78125 18.9375 73 
Q 24.125 74.21875 28.421875 74.21875 
Q 39.75 74.21875 46.484375 68.546875 
Q 53.21875 62.890625 53.21875 53.421875 
Q 53.21875 48.921875 51.53125 44.890625 
Q 49.859375 40.875 45.40625 35.40625 
Q 44.1875 33.984375 37.640625 27.21875 
Q 31.109375 20.453125 19.1875 8.296875 
z
" id="DejaVuSans-50"/>
       <path d="M 44.28125 53.078125 
L 44.28125 44.578125 
Q 40.484375 46.53125 36.375 47.5 
Q 32.28125 48.484375 27.875 48.484375 
Q 21.1875 48.484375 17.84375 46.4375 
Q 14.5 44.390625 14.5 40.28125 
Q 14.5 37.15625 16.890625 35.375 
Q 19.28125 33.59375 26.515625 31.984375 
L 29.59375 31.296875 
Q 39.15625 29.25 43.1875 25.515625 
Q 47.21875 21.78125 47.21875 15.09375 
Q 47.21875 7.46875 41.1875 3.015625 
Q 35.15625 -1.421875 24.609375 -1.421875 
Q 20.21875 -1.421875 15.453125 -0.5625 
Q 10.6875 0.296875 5.421875 2 
L 5.421875 11.28125 
Q 10.40625 8.6875 15.234375 7.390625 
Q 20.0625 6.109375 24.8125 6.109375 
Q 31.15625 6.109375 34.5625 8.28125 
Q 37.984375 10.453125 37.984375 14.40625 
Q 37.984375 18.0625 35.515625 20.015625 
Q 33.0625 21.96875 24.703125 23.78125 
L 21.578125 24.515625 
Q 13.234375 26.265625 9.515625 29.90625 
Q 5.8125 33.546875 5.8125 39.890625 
Q 5.8125 47.609375 11.28125 51.796875 
Q 16.75 56 26.8125 56 
Q 31.78125 56 36.171875 55.265625 
Q 40.578125 54.546875 44.28125 53.078125 
z
" id="DejaVuSans-115"/>
       <path d="M 48.78125 52.59375 
L 48.78125 44.1875 
Q 44.96875 46.296875 41.140625 47.34375 
Q 37.3125 48.390625 33.40625 48.390625 
Q 24.65625 48.390625 19.8125 42.84375 
Q 14.984375 37.3125 14.984375 27.296875 
Q 14.984375 17.28125 19.8125 11.734375 
Q 24.65625 6.203125 33.40625 6.203125 
Q 37.3125 6.203125 41.140625 7.25 
Q 44.96875 8.296875 48.78125 10.40625 
L 48.78125 2.09375 
Q 45.015625 0.34375 40.984375 -0.53125 
Q 36.96875 -1.421875 32.421875 -1.421875 
Q 20.0625 -1.421875 12.78125 6.34375 
Q 5.515625 14.109375 5.515625 27.296875 
Q 5.515625 40.671875 12.859375 48.328125 
Q 20.21875 56 33.015625 56 
Q 37.15625 56 41.109375 55.140625 
Q 45.0625 54.296875 48.78125 52.59375 
z
" id="DejaVuSans-99"/>
       <path d="M 30.609375 48.390625 
Q 23.390625 48.390625 19.1875 42.75 
Q 14.984375 37.109375 14.984375 27.296875 
Q 14.984375 17.484375 19.15625 11.84375 
Q 23.34375 6.203125 30.609375 6.203125 
Q 37.796875 6.203125 41.984375 11.859375 
Q 46.1875 17.53125 46.1875 27.296875 
Q 46.1875 37.015625 41.984375 42.703125 
Q 37.796875 48.390625 30.609375 48.390625 
z
M 30.609375 56 
Q 42.328125 56 49.015625 48.375 
Q 55.71875 40.765625 55.71875 27.296875 
Q 55.71875 13.875 49.015625 6.21875 
Q 42.328125 -1.421875 30.609375 -1.421875 
Q 18.84375 -1.421875 12.171875 6.21875 
Q 5.515625 13.875 5.515625 27.296875 
Q 5.515625 40.765625 12.171875 48.375 
Q 18.84375 56 30.609375 56 
z
" id="DejaVuSans-111"/>
       <path d="M 54.890625 33.015625 
L 54.890625 0 
L 45.90625 0 
L 45.90625 32.71875 
Q 45.90625 40.484375 42.875 44.328125 
Q 39.84375 48.1875 33.796875 48.1875 
Q 26.515625 48.1875 22.3125 43.546875 
Q 18.109375 38.921875 18.109375 30.90625 
L 18.109375 0 
L 9.078125 0 
L 9.078125 54.6875 
L 18.109375 54.6875 
L 18.109375 46.1875 
Q 21.34375 51.125 25.703125 53.5625 
Q 30.078125 56 35.796875 56 
Q 45.21875 56 50.046875 50.171875 
Q 54.890625 44.34375 54.890625 33.015625 
z
" id="DejaVuSans-110"/>
       <path d="M 45.40625 46.390625 
L 45.40625 75.984375 
L 54.390625 75.984375 
L 54.390625 0 
L 45.40625 0 
L 45.40625 8.203125 
Q 42.578125 3.328125 38.25 0.953125 
Q 33.9375 -1.421875 27.875 -1.421875 
Q 17.96875 -1.421875 11.734375 6.484375 
Q 5.515625 14.40625 5.515625 27.296875 
Q 5.515625 40.1875 11.734375 48.09375 
Q 17.96875 56 27.875 56 
Q 33.9375 56 38.25 53.625 
Q 42.578125 51.265625 45.40625 46.390625 
z
M 14.796875 27.296875 
Q 14.796875 17.390625 18.875 11.75 
Q 22.953125 6.109375 30.078125 6.109375 
Q 37.203125 6.109375 41.296875 11.75 
Q 45.40625 17.390625 45.40625 27.296875 
Q 45.40625 37.203125 41.296875 42.84375 
Q 37.203125 48.484375 30.078125 48.484375 
Q 22.953125 48.484375 18.875 42.84375 
Q 14.796875 37.203125 14.796875 27.296875 
z
" id="DejaVuSans-100"/>
       <path d="M 8.015625 75.875 
L 15.828125 75.875 
Q 23.140625 64.359375 26.78125 53.3125 
Q 30.421875 42.28125 30.421875 31.390625 
Q 30.421875 20.453125 26.78125 9.375 
Q 23.140625 -1.703125 15.828125 -13.1875 
L 8.015625 -13.1875 
Q 14.5 -2 17.703125 9.0625 
Q 20.90625 20.125 20.90625 31.390625 
Q 20.90625 42.671875 17.703125 53.65625 
Q 14.5 64.65625 8.015625 75.875 
z
" id="DejaVuSans-41"/>
      </defs>
      <use transform="translate(0 0.765625)" xlink:href="#DejaVuSans-84"/>
      <use transform="translate(61.083984 0.765625)" xlink:href="#DejaVuSans-105"/>
      <use transform="translate(88.867188 0.765625)" xlink:href="#DejaVuSans-109"/>
      <use transform="translate(186.279297 0.765625)" xlink:href="#DejaVuSans-101"/>
      <use transform="translate(247.802734 0.765625)" xlink:href="#DejaVuSans-32"/>
      <use transform="translate(279.589844 0.765625)" xlink:href="#DejaVuSans-40"/>
      <use transform="translate(318.603516 0.765625)" xlink:href="#DejaVuSans-49"/>
      <use transform="translate(382.226562 0.765625)" xlink:href="#DejaVuSans-48"/>
      <use transform="translate(446.806641 39.046875)scale(0.7)" xlink:href="#DejaVuSans-8722"/>
      <use transform="translate(505.458984 39.046875)scale(0.7)" xlink:href="#DejaVuSans-50"/>
      <use transform="translate(552.729492 0.765625)" xlink:href="#DejaVuSans-32"/>
      <use transform="translate(584.516602 0.765625)" xlink:href="#DejaVuSans-115"/>
      <use transform="translate(636.616211 0.765625)" xlink:href="#DejaVuSans-101"/>
      <use transform="translate(698.139648 0.765625)" xlink:href="#DejaVuSans-99"/>
      <use transform="translate(753.120117 0.765625)" xlink:href="#DejaVuSans-111"/>
      <use transform="translate(814.301758 0.765625)" xlink:href="#DejaVuSans-110"/>
      <use transform="translate(877.680664 0.765625)" xlink:href="#DejaVuSans-100"/>
      <use transform="translate(941.157227 0.765625)" xlink:href="#DejaVuSans-115"/>
      <use transform="translate(993.256836 0.765625)" xlink:href="#DejaVuSans-41"/>
     </g>
    </g>
   </g>
   <g id="matplotlib.axis_2">
    <g id="ytick_1">
     <g id="line2d_5">
      <defs>
       <path d="M 0 0 
L -3.5 0 
" id="mb36e3a1fc0" style="stroke:#000000;stroke-width:0.8;"/>
      </defs>
      <g>
       <use style="stroke:#000000;stroke-width:0.8;" x="55.705625" xlink:href="#mb36e3a1fc0" y="198.859706"/>
      </g>
     </g>
     <g id="text_6">
      <!-- 0.00 -->
      <g transform="translate(26.44 202.658925)scale(0.1 -0.1)">
       <defs>
        <path d="M 10.6875 12.40625 
L 21 12.40625 
L 21 0 
L 10.6875 0 
z
" id="DejaVuSans-46"/>
       </defs>
       <use xlink:href="#DejaVuSans-48"/>
       <use x="63.623047" xlink:href="#DejaVuSans-46"/>
       <use x="95.410156" xlink:href="#DejaVuSans-48"/>
       <use x="159.033203" xlink:href="#DejaVuSans-48"/>
      </g>
     </g>
    </g>
    <g id="ytick_2">
     <g id="line2d_6">
      <g>
       <use style="stroke:#000000;stroke-width:0.8;" x="55.705625" xlink:href="#mb36e3a1fc0" y="176.204283"/>
      </g>
     </g>
     <g id="text_7">
      <!-- 0.25 -->
      <g transform="translate(26.44 180.003502)scale(0.1 -0.1)">
       <defs>
        <path d="M 10.796875 72.90625 
L 49.515625 72.90625 
L 49.515625 64.59375 
L 19.828125 64.59375 
L 19.828125 46.734375 
Q 21.96875 47.46875 24.109375 47.828125 
Q 26.265625 48.1875 28.421875 48.1875 
Q 40.625 48.1875 47.75 41.5 
Q 54.890625 34.8125 54.890625 23.390625 
Q 54.890625 11.625 47.5625 5.09375 
Q 40.234375 -1.421875 26.90625 -1.421875 
Q 22.3125 -1.421875 17.546875 -0.640625 
Q 12.796875 0.140625 7.71875 1.703125 
L 7.71875 11.625 
Q 12.109375 9.234375 16.796875 8.0625 
Q 21.484375 6.890625 26.703125 6.890625 
Q 35.15625 6.890625 40.078125 11.328125 
Q 45.015625 15.765625 45.015625 23.390625 
Q 45.015625 31 40.078125 35.4375 
Q 35.15625 39.890625 26.703125 39.890625 
Q 22.75 39.890625 18.8125 39.015625 
Q 14.890625 38.140625 10.796875 36.28125 
z
" id="DejaVuSans-53"/>
       </defs>
       <use xlink:href="#DejaVuSans-48"/>
       <use x="63.623047" xlink:href="#DejaVuSans-46"/>
       <use x="95.410156" xlink:href="#DejaVuSans-50"/>
       <use x="159.033203" xlink:href="#DejaVuSans-53"/>
      </g>
     </g>
    </g>
    <g id="ytick_3">
     <g id="line2d_7">
      <g>
       <use style="stroke:#000000;stroke-width:0.8;" x="55.705625" xlink:href="#mb36e3a1fc0" y="153.54886"/>
      </g>
     </g>
     <g id="text_8">
      <!-- 0.50 -->
      <g transform="translate(26.44 157.348079)scale(0.1 -0.1)">
       <use xlink:href="#DejaVuSans-48"/>
       <use x="63.623047" xlink:href="#DejaVuSans-46"/>
       <use x="95.410156" xlink:href="#DejaVuSans-53"/>
       <use x="159.033203" xlink:href="#DejaVuSans-48"/>
      </g>
     </g>
    </g>
    <g id="ytick_4">
     <g id="line2d_8">
      <g>
       <use style="stroke:#000000;stroke-width:0.8;" x="55.705625" xlink:href="#mb36e3a1fc0" y="130.893438"/>
      </g>
     </g>
     <g id="text_9">
      <!-- 0.75 -->
      <g transform="translate(26.44 134.692656)scale(0.1 -0.1)">
       <defs>
        <path d="M 8.203125 72.90625 
L 55.078125 72.90625 
L 55.078125 68.703125 
L 28.609375 0 
L 18.3125 0 
L 43.21875 64.59375 
L 8.203125 64.59375 
z
" id="DejaVuSans-55"/>
       </defs>
       <use xlink:href="#DejaVuSans-48"/>
       <use x="63.623047" xlink:href="#DejaVuSans-46"/>
       <use x="95.410156" xlink:href="#DejaVuSans-55"/>
       <use x="159.033203" xlink:href="#DejaVuSans-53"/>
      </g>
     </g>
    </g>
    <g id="ytick_5">
     <g id="line2d_9">
      <g>
       <use style="stroke:#000000;stroke-width:0.8;" x="55.705625" xlink:href="#mb36e3a1fc0" y="108.238015"/>
      </g>
     </g>
     <g id="text_10">
      <!-- 1.00 -->
      <g transform="translate(26.44 112.037233)scale(0.1 -0.1)">
       <use xlink:href="#DejaVuSans-49"/>
       <use x="63.623047" xlink:href="#DejaVuSans-46"/>
       <use x="95.410156" xlink:href="#DejaVuSans-48"/>
       <use x="159.033203" xlink:href="#DejaVuSans-48"/>
      </g>
     </g>
    </g>
    <g id="ytick_6">
     <g id="line2d_10">
      <g>
       <use style="stroke:#000000;stroke-width:0.8;" x="55.705625" xlink:href="#mb36e3a1fc0" y="85.582592"/>
      </g>
     </g>
     <g id="text_11">
      <!-- 1.25 -->
      <g transform="translate(26.44 89.381811)scale(0.1 -0.1)">
       <use xlink:href="#DejaVuSans-49"/>
       <use x="63.623047" xlink:href="#DejaVuSans-46"/>
       <use x="95.410156" xlink:href="#DejaVuSans-50"/>
       <use x="159.033203" xlink:href="#DejaVuSans-53"/>
      </g>
     </g>
    </g>
    <g id="ytick_7">
     <g id="line2d_11">
      <g>
       <use style="stroke:#000000;stroke-width:0.8;" x="55.705625" xlink:href="#mb36e3a1fc0" y="62.927169"/>
      </g>
     </g>
     <g id="text_12">
      <!-- 1.50 -->
      <g transform="translate(26.44 66.726388)scale(0.1 -0.1)">
       <use xlink:href="#DejaVuSans-49"/>
       <use x="63.623047" xlink:href="#DejaVuSans-46"/>
       <use x="95.410156" xlink:href="#DejaVuSans-53"/>
       <use x="159.033203" xlink:href="#DejaVuSans-48"/>
      </g>
     </g>
    </g>
    <g id="text_13">
     <!-- Voltage $V_{k}, k \in \{1,2\}$ -->
     <g transform="translate(19.92 194.973437)rotate(-90)scale(0.12 -0.12)">
      <defs>
       <path d="M 28.609375 0 
L 0.78125 72.90625 
L 11.078125 72.90625 
L 34.1875 11.53125 
L 57.328125 72.90625 
L 67.578125 72.90625 
L 39.796875 0 
z
" id="DejaVuSans-86"/>
       <path d="M 9.421875 75.984375 
L 18.40625 75.984375 
L 18.40625 0 
L 9.421875 0 
z
" id="DejaVuSans-108"/>
       <path d="M 18.3125 70.21875 
L 18.3125 54.6875 
L 36.8125 54.6875 
L 36.8125 47.703125 
L 18.3125 47.703125 
L 18.3125 18.015625 
Q 18.3125 11.328125 20.140625 9.421875 
Q 21.96875 7.515625 27.59375 7.515625 
L 36.8125 7.515625 
L 36.8125 0 
L 27.59375 0 
Q 17.1875 0 13.234375 3.875 
Q 9.28125 7.765625 9.28125 18.015625 
L 9.28125 47.703125 
L 2.6875 47.703125 
L 2.6875 54.6875 
L 9.28125 54.6875 
L 9.28125 70.21875 
z
" id="DejaVuSans-116"/>
       <path d="M 34.28125 27.484375 
Q 23.390625 27.484375 19.1875 25 
Q 14.984375 22.515625 14.984375 16.5 
Q 14.984375 11.71875 18.140625 8.90625 
Q 21.296875 6.109375 26.703125 6.109375 
Q 34.1875 6.109375 38.703125 11.40625 
Q 43.21875 16.703125 43.21875 25.484375 
L 43.21875 27.484375 
z
M 52.203125 31.203125 
L 52.203125 0 
L 43.21875 0 
L 43.21875 8.296875 
Q 40.140625 3.328125 35.546875 0.953125 
Q 30.953125 -1.421875 24.3125 -1.421875 
Q 15.921875 -1.421875 10.953125 3.296875 
Q 6 8.015625 6 15.921875 
Q 6 25.140625 12.171875 29.828125 
Q 18.359375 34.515625 30.609375 34.515625 
L 43.21875 34.515625 
L 43.21875 35.40625 
Q 43.21875 41.609375 39.140625 45 
Q 35.0625 48.390625 27.6875 48.390625 
Q 23 48.390625 18.546875 47.265625 
Q 14.109375 46.140625 10.015625 43.890625 
L 10.015625 52.203125 
Q 14.9375 54.109375 19.578125 55.046875 
Q 24.21875 56 28.609375 56 
Q 40.484375 56 46.34375 49.84375 
Q 52.203125 43.703125 52.203125 31.203125 
z
" id="DejaVuSans-97"/>
       <path d="M 45.40625 27.984375 
Q 45.40625 37.75 41.375 43.109375 
Q 37.359375 48.484375 30.078125 48.484375 
Q 22.859375 48.484375 18.828125 43.109375 
Q 14.796875 37.75 14.796875 27.984375 
Q 14.796875 18.265625 18.828125 12.890625 
Q 22.859375 7.515625 30.078125 7.515625 
Q 37.359375 7.515625 41.375 12.890625 
Q 45.40625 18.265625 45.40625 27.984375 
z
M 54.390625 6.78125 
Q 54.390625 -7.171875 48.1875 -13.984375 
Q 42 -20.796875 29.203125 -20.796875 
Q 24.46875 -20.796875 20.265625 -20.09375 
Q 16.0625 -19.390625 12.109375 -17.921875 
L 12.109375 -9.1875 
Q 16.0625 -11.328125 19.921875 -12.34375 
Q 23.78125 -13.375 27.78125 -13.375 
Q 36.625 -13.375 41.015625 -8.765625 
Q 45.40625 -4.15625 45.40625 5.171875 
L 45.40625 9.625 
Q 42.625 4.78125 38.28125 2.390625 
Q 33.9375 0 27.875 0 
Q 17.828125 0 11.671875 7.65625 
Q 5.515625 15.328125 5.515625 27.984375 
Q 5.515625 40.671875 11.671875 48.328125 
Q 17.828125 56 27.875 56 
Q 33.9375 56 38.28125 53.609375 
Q 42.625 51.21875 45.40625 46.390625 
L 45.40625 54.6875 
L 54.390625 54.6875 
z
" id="DejaVuSans-103"/>
       <path d="M 20.609375 0 
L 7.8125 72.90625 
L 17.484375 72.90625 
L 28.078125 10.203125 
L 63.484375 72.90625 
L 74.21875 72.90625 
L 32.078125 0 
z
" id="DejaVuSans-Oblique-86"/>
       <path d="M 18.3125 75.984375 
L 27.296875 75.984375 
L 18.703125 31.6875 
L 49.515625 54.6875 
L 61.1875 54.6875 
L 26.8125 28.515625 
L 51.90625 0 
L 41.015625 0 
L 17.671875 26.703125 
L 12.5 0 
L 3.515625 0 
z
" id="DejaVuSans-Oblique-107"/>
       <path d="M 11.71875 12.40625 
L 22.015625 12.40625 
L 22.015625 4 
L 14.015625 -11.625 
L 7.71875 -11.625 
L 11.71875 4 
z
" id="DejaVuSans-44"/>
       <path d="M 16.75 30.609375 
Q 17.09375 27 20.171875 21.140625 
Q 23.78125 14.359375 30.609375 10.546875 
Q 37.3125 6.84375 44.53125 6.78125 
L 78.5625 6.78125 
L 78.5625 -0.984375 
L 44.53125 -0.984375 
Q 35.15625 -0.984375 26.484375 3.84375 
Q 17.828125 8.6875 13.1875 17.28125 
Q 8.546875 25.875 8.546875 35.015625 
Q 8.546875 44.046875 13.1875 52.640625 
Q 17.828125 61.234375 26.484375 66.109375 
Q 35.15625 71 44.53125 71 
L 78.5625 71 
L 78.5625 63.234375 
L 44.53125 63.234375 
Q 37.3125 63.1875 30.609375 59.421875 
Q 23.828125 55.5625 20.171875 48.828125 
Q 17.046875 42.96875 16.609375 38.421875 
L 78.5625 38.421875 
L 78.5625 30.609375 
z
" id="DejaVuSans-8712"/>
       <path d="M 51.125 -9.28125 
L 51.125 -16.3125 
L 48.09375 -16.3125 
Q 35.9375 -16.3125 31.8125 -12.6875 
Q 27.6875 -9.078125 27.6875 1.703125 
L 27.6875 13.375 
Q 27.6875 20.75 25.046875 23.578125 
Q 22.40625 26.421875 15.484375 26.421875 
L 12.5 26.421875 
L 12.5 33.40625 
L 15.484375 33.40625 
Q 22.46875 33.40625 25.078125 36.203125 
Q 27.6875 39.015625 27.6875 46.296875 
L 27.6875 58.015625 
Q 27.6875 68.796875 31.8125 72.390625 
Q 35.9375 75.984375 48.09375 75.984375 
L 51.125 75.984375 
L 51.125 69 
L 47.796875 69 
Q 40.921875 69 38.8125 66.84375 
Q 36.71875 64.703125 36.71875 57.8125 
L 36.71875 45.703125 
Q 36.71875 38.03125 34.5 34.5625 
Q 32.28125 31.109375 26.90625 29.890625 
Q 32.328125 28.5625 34.515625 25.09375 
Q 36.71875 21.625 36.71875 14.015625 
L 36.71875 1.90625 
Q 36.71875 -4.984375 38.8125 -7.125 
Q 40.921875 -9.28125 47.796875 -9.28125 
z
" id="DejaVuSans-123"/>
       <path d="M 12.5 -9.28125 
L 15.921875 -9.28125 
Q 22.75 -9.28125 24.828125 -7.171875 
Q 26.90625 -5.078125 26.90625 1.90625 
L 26.90625 14.015625 
Q 26.90625 21.625 29.09375 25.09375 
Q 31.296875 28.5625 36.71875 29.890625 
Q 31.296875 31.109375 29.09375 34.5625 
Q 26.90625 38.03125 26.90625 45.703125 
L 26.90625 57.8125 
Q 26.90625 64.75 24.828125 66.875 
Q 22.75 69 15.921875 69 
L 12.5 69 
L 12.5 75.984375 
L 15.578125 75.984375 
Q 27.734375 75.984375 31.8125 72.390625 
Q 35.890625 68.796875 35.890625 58.015625 
L 35.890625 46.296875 
Q 35.890625 39.015625 38.515625 36.203125 
Q 41.15625 33.40625 48.09375 33.40625 
L 51.125 33.40625 
L 51.125 26.421875 
L 48.09375 26.421875 
Q 41.15625 26.421875 38.515625 23.578125 
Q 35.890625 20.75 35.890625 13.375 
L 35.890625 1.703125 
Q 35.890625 -9.078125 31.8125 -12.6875 
Q 27.734375 -16.3125 15.578125 -16.3125 
L 12.5 -16.3125 
z
" id="DejaVuSans-125"/>
      </defs>
      <use transform="translate(0 0.015625)" xlink:href="#DejaVuSans-86"/>
      <use transform="translate(68.408203 0.015625)" xlink:href="#DejaVuSans-111"/>
      <use transform="translate(129.589844 0.015625)" xlink:href="#DejaVuSans-108"/>
      <use transform="translate(157.373047 0.015625)" xlink:href="#DejaVuSans-116"/>
      <use transform="translate(196.582031 0.015625)" xlink:href="#DejaVuSans-97"/>
      <use transform="translate(257.861328 0.015625)" xlink:href="#DejaVuSans-103"/>
      <use transform="translate(321.337891 0.015625)" xlink:href="#DejaVuSans-101"/>
      <use transform="translate(382.861328 0.015625)" xlink:href="#DejaVuSans-32"/>
      <use transform="translate(414.648438 0.015625)" xlink:href="#DejaVuSans-Oblique-86"/>
      <use transform="translate(483.056641 -16.390625)scale(0.7)" xlink:href="#DejaVuSans-Oblique-107"/>
      <use transform="translate(526.328125 0.015625)" xlink:href="#DejaVuSans-44"/>
      <use transform="translate(577.597656 0.015625)" xlink:href="#DejaVuSans-Oblique-107"/>
      <use transform="translate(654.990234 0.015625)" xlink:href="#DejaVuSans-8712"/>
      <use transform="translate(761.582031 0.015625)" xlink:href="#DejaVuSans-123"/>
      <use transform="translate(825.205078 0.015625)" xlink:href="#DejaVuSans-49"/>
      <use transform="translate(888.828125 0.015625)" xlink:href="#DejaVuSans-44"/>
      <use transform="translate(940.097656 0.015625)" xlink:href="#DejaVuSans-50"/>
      <use transform="translate(1003.720703 0.015625)" xlink:href="#DejaVuSans-125"/>
     </g>
    </g>
   </g>
   <g id="line2d_12">
    <path clip-path="url(#p8063207dea)" d="M 55.702522 118.336805 
L 74.937687 117.886234 
L 81.963892 117.775132 
L 88.788372 117.686957 
L 99.998024 117.575855 
L 105.177677 117.53571 
L 126.079394 117.424607 
L 130.418013 117.40902 
L 133.32284 117.298462 
L 135.920425 109.328647 
L 136.292839 108.244993 
L 136.295942 62.927169 
L 136.295942 198.857295 
L 136.395253 198.570462 
L 138.999045 191.402293 
L 141.636975 184.78951 
L 144.228354 178.872548 
L 147.139387 172.84684 
L 149.9418 167.607909 
L 152.601454 163.097034 
L 155.552832 158.566855 
L 158.268349 154.798533 
L 161.288003 151.0139 
L 164.708002 147.190117 
L 167.709035 144.196339 
L 171.144551 141.13822 
L 174.009033 138.857906 
L 177.190067 136.582214 
L 180.799376 134.291751 
L 184.973512 131.982438 
L 189.911097 129.655364 
L 193.570061 128.173971 
L 197.877646 126.657598 
L 200.788679 125.755278 
L 205.912471 124.374838 
L 213.047296 122.822126 
L 222.466258 121.284548 
L 236.59315 119.746335 
L 244.575216 119.158563 
L 258.723832 118.443558 
L 286.533822 117.742599 
L 288.46727 117.714506 
L 288.46727 117.714506 
" style="fill:none;stroke:#aa3863;stroke-linecap:square;stroke-width:1.5;"/>
   </g>
   <g id="patch_3">
    <path d="M 55.705625 207.921875 
L 55.705625 53.865 
" style="fill:none;stroke:#000000;stroke-linecap:square;stroke-linejoin:miter;stroke-width:0.8;"/>
   </g>
   <g id="patch_4">
    <path d="M 288.464167 207.921875 
L 288.464167 53.865 
" style="fill:none;stroke:#000000;stroke-linecap:square;stroke-linejoin:miter;stroke-width:0.8;"/>
   </g>
   <g id="patch_5">
    <path d="M 55.705625 207.921875 
L 288.464167 207.921875 
" style="fill:none;stroke:#000000;stroke-linecap:square;stroke-linejoin:miter;stroke-width:0.8;"/>
   </g>
   <g id="patch_6">
    <path d="M 55.705625 53.865 
L 288.464167 53.865 
" style="fill:none;stroke:#000000;stroke-linecap:square;stroke-linejoin:miter;stroke-width:0.8;"/>
   </g>
   <g id="text_14">
    <!-- Presynaptic spike -->
    <g transform="translate(111.095208 47.865)scale(0.14 -0.14)">
     <defs>
      <path d="M 19.671875 64.796875 
L 19.671875 37.40625 
L 32.078125 37.40625 
Q 38.96875 37.40625 42.71875 40.96875 
Q 46.484375 44.53125 46.484375 51.125 
Q 46.484375 57.671875 42.71875 61.234375 
Q 38.96875 64.796875 32.078125 64.796875 
z
M 9.8125 72.90625 
L 32.078125 72.90625 
Q 44.34375 72.90625 50.609375 67.359375 
Q 56.890625 61.8125 56.890625 51.125 
Q 56.890625 40.328125 50.609375 34.8125 
Q 44.34375 29.296875 32.078125 29.296875 
L 19.671875 29.296875 
L 19.671875 0 
L 9.8125 0 
z
" id="DejaVuSans-80"/>
      <path d="M 41.109375 46.296875 
Q 39.59375 47.171875 37.8125 47.578125 
Q 36.03125 48 33.890625 48 
Q 26.265625 48 22.1875 43.046875 
Q 18.109375 38.09375 18.109375 28.8125 
L 18.109375 0 
L 9.078125 0 
L 9.078125 54.6875 
L 18.109375 54.6875 
L 18.109375 46.1875 
Q 20.953125 51.171875 25.484375 53.578125 
Q 30.03125 56 36.53125 56 
Q 37.453125 56 38.578125 55.875 
Q 39.703125 55.765625 41.0625 55.515625 
z
" id="DejaVuSans-114"/>
      <path d="M 32.171875 -5.078125 
Q 28.375 -14.84375 24.75 -17.8125 
Q 21.140625 -20.796875 15.09375 -20.796875 
L 7.90625 -20.796875 
L 7.90625 -13.28125 
L 13.1875 -13.28125 
Q 16.890625 -13.28125 18.9375 -11.515625 
Q 21 -9.765625 23.484375 -3.21875 
L 25.09375 0.875 
L 2.984375 54.6875 
L 12.5 54.6875 
L 29.59375 11.921875 
L 46.6875 54.6875 
L 56.203125 54.6875 
z
" id="DejaVuSans-121"/>
      <path d="M 18.109375 8.203125 
L 18.109375 -20.796875 
L 9.078125 -20.796875 
L 9.078125 54.6875 
L 18.109375 54.6875 
L 18.109375 46.390625 
Q 20.953125 51.265625 25.265625 53.625 
Q 29.59375 56 35.59375 56 
Q 45.5625 56 51.78125 48.09375 
Q 58.015625 40.1875 58.015625 27.296875 
Q 58.015625 14.40625 51.78125 6.484375 
Q 45.5625 -1.421875 35.59375 -1.421875 
Q 29.59375 -1.421875 25.265625 0.953125 
Q 20.953125 3.328125 18.109375 8.203125 
z
M 48.6875 27.296875 
Q 48.6875 37.203125 44.609375 42.84375 
Q 40.53125 48.484375 33.40625 48.484375 
Q 26.265625 48.484375 22.1875 42.84375 
Q 18.109375 37.203125 18.109375 27.296875 
Q 18.109375 17.390625 22.1875 11.75 
Q 26.265625 6.109375 33.40625 6.109375 
Q 40.53125 6.109375 44.609375 11.75 
Q 48.6875 17.390625 48.6875 27.296875 
z
" id="DejaVuSans-112"/>
      <path d="M 9.078125 75.984375 
L 18.109375 75.984375 
L 18.109375 31.109375 
L 44.921875 54.6875 
L 56.390625 54.6875 
L 27.390625 29.109375 
L 57.625 0 
L 45.90625 0 
L 18.109375 26.703125 
L 18.109375 0 
L 9.078125 0 
z
" id="DejaVuSans-107"/>
     </defs>
     <use xlink:href="#DejaVuSans-80"/>
     <use x="58.552734" xlink:href="#DejaVuSans-114"/>
     <use x="97.416016" xlink:href="#DejaVuSans-101"/>
     <use x="158.939453" xlink:href="#DejaVuSans-115"/>
     <use x="211.039062" xlink:href="#DejaVuSans-121"/>
     <use x="270.21875" xlink:href="#DejaVuSans-110"/>
     <use x="333.597656" xlink:href="#DejaVuSans-97"/>
     <use x="394.876953" xlink:href="#DejaVuSans-112"/>
     <use x="458.353516" xlink:href="#DejaVuSans-116"/>
     <use x="497.5625" xlink:href="#DejaVuSans-105"/>
     <use x="525.345703" xlink:href="#DejaVuSans-99"/>
     <use x="580.326172" xlink:href="#DejaVuSans-32"/>
     <use x="612.113281" xlink:href="#DejaVuSans-115"/>
     <use x="664.212891" xlink:href="#DejaVuSans-112"/>
     <use x="727.689453" xlink:href="#DejaVuSans-105"/>
     <use x="755.472656" xlink:href="#DejaVuSans-107"/>
     <use x="809.757812" xlink:href="#DejaVuSans-101"/>
    </g>
   </g>
   <g id="legend_1">
    <g id="patch_7">
     <path d="M 227.744167 81.07875 
L 280.064167 81.07875 
Q 282.464167 81.07875 282.464167 78.67875 
L 282.464167 62.265 
Q 282.464167 59.865 280.064167 59.865 
L 227.744167 59.865 
Q 225.344167 59.865 225.344167 62.265 
L 225.344167 78.67875 
Q 225.344167 81.07875 227.744167 81.07875 
z
" style="fill:#ffffff;opacity:0.8;stroke:#cccccc;stroke-linejoin:miter;"/>
    </g>
    <g id="line2d_13">
     <path d="M 230.144167 69.583125 
L 254.144167 69.583125 
" style="fill:none;stroke:#aa3863;stroke-linecap:square;stroke-width:1.5;"/>
    </g>
    <g id="line2d_14"/>
    <g id="text_15">
     <!-- $V_1$ -->
     <g transform="translate(263.744167 73.783125)scale(0.12 -0.12)">
      <use transform="translate(0 0.09375)" xlink:href="#DejaVuSans-Oblique-86"/>
      <use transform="translate(68.408203 -16.3125)scale(0.7)" xlink:href="#DejaVuSans-49"/>
     </g>
    </g>
   </g>
  </g>
  <g id="axes_2">
   <g id="patch_8">
    <path d="M 334.892292 207.921875 
L 567.650833 207.921875 
L 567.650833 53.865 
L 334.892292 53.865 
z
" style="fill:#ffffff;"/>
   </g>
   <g id="matplotlib.axis_3">
    <g id="xtick_5">
     <g id="line2d_15">
      <g>
       <use style="stroke:#000000;stroke-width:0.8;" x="381.444" xlink:href="#mae4c77fee8" y="207.921875"/>
      </g>
     </g>
     <g id="text_16">
      <!-- 4 -->
      <g transform="translate(378.26275 222.520312)scale(0.1 -0.1)">
       <use xlink:href="#DejaVuSans-52"/>
      </g>
     </g>
    </g>
    <g id="xtick_6">
     <g id="line2d_16">
      <g>
       <use style="stroke:#000000;stroke-width:0.8;" x="443.512944" xlink:href="#mae4c77fee8" y="207.921875"/>
      </g>
     </g>
     <g id="text_17">
      <!-- 6 -->
      <g transform="translate(440.331694 222.520312)scale(0.1 -0.1)">
       <use xlink:href="#DejaVuSans-54"/>
      </g>
     </g>
    </g>
    <g id="xtick_7">
     <g id="line2d_17">
      <g>
       <use style="stroke:#000000;stroke-width:0.8;" x="505.581889" xlink:href="#mae4c77fee8" y="207.921875"/>
      </g>
     </g>
     <g id="text_18">
      <!-- 8 -->
      <g transform="translate(502.400639 222.520312)scale(0.1 -0.1)">
       <use xlink:href="#DejaVuSans-56"/>
      </g>
     </g>
    </g>
    <g id="xtick_8">
     <g id="line2d_18">
      <g>
       <use style="stroke:#000000;stroke-width:0.8;" x="567.650833" xlink:href="#mae4c77fee8" y="207.921875"/>
      </g>
     </g>
     <g id="text_19">
      <!-- 10 -->
      <g transform="translate(561.288333 222.520312)scale(0.1 -0.1)">
       <use xlink:href="#DejaVuSans-49"/>
       <use x="63.623047" xlink:href="#DejaVuSans-48"/>
      </g>
     </g>
    </g>
    <g id="text_20">
     <!-- Time ($10^{-2}$ seconds) -->
     <g transform="translate(389.291563 238.704375)scale(0.12 -0.12)">
      <use transform="translate(0 0.765625)" xlink:href="#DejaVuSans-84"/>
      <use transform="translate(61.083984 0.765625)" xlink:href="#DejaVuSans-105"/>
      <use transform="translate(88.867188 0.765625)" xlink:href="#DejaVuSans-109"/>
      <use transform="translate(186.279297 0.765625)" xlink:href="#DejaVuSans-101"/>
      <use transform="translate(247.802734 0.765625)" xlink:href="#DejaVuSans-32"/>
      <use transform="translate(279.589844 0.765625)" xlink:href="#DejaVuSans-40"/>
      <use transform="translate(318.603516 0.765625)" xlink:href="#DejaVuSans-49"/>
      <use transform="translate(382.226562 0.765625)" xlink:href="#DejaVuSans-48"/>
      <use transform="translate(446.806641 39.046875)scale(0.7)" xlink:href="#DejaVuSans-8722"/>
      <use transform="translate(505.458984 39.046875)scale(0.7)" xlink:href="#DejaVuSans-50"/>
      <use transform="translate(552.729492 0.765625)" xlink:href="#DejaVuSans-32"/>
      <use transform="translate(584.516602 0.765625)" xlink:href="#DejaVuSans-115"/>
      <use transform="translate(636.616211 0.765625)" xlink:href="#DejaVuSans-101"/>
      <use transform="translate(698.139648 0.765625)" xlink:href="#DejaVuSans-99"/>
      <use transform="translate(753.120117 0.765625)" xlink:href="#DejaVuSans-111"/>
      <use transform="translate(814.301758 0.765625)" xlink:href="#DejaVuSans-110"/>
      <use transform="translate(877.680664 0.765625)" xlink:href="#DejaVuSans-100"/>
      <use transform="translate(941.157227 0.765625)" xlink:href="#DejaVuSans-115"/>
      <use transform="translate(993.256836 0.765625)" xlink:href="#DejaVuSans-41"/>
     </g>
    </g>
   </g>
   <g id="matplotlib.axis_4">
    <g id="ytick_8">
     <g id="line2d_19">
      <g>
       <use style="stroke:#000000;stroke-width:0.8;" x="334.892292" xlink:href="#mb36e3a1fc0" y="192.516188"/>
      </g>
     </g>
     <g id="text_21">
      <!-- 0.86 -->
      <g transform="translate(305.626667 196.315406)scale(0.1 -0.1)">
       <use xlink:href="#DejaVuSans-48"/>
       <use x="63.623047" xlink:href="#DejaVuSans-46"/>
       <use x="95.410156" xlink:href="#DejaVuSans-56"/>
       <use x="159.033203" xlink:href="#DejaVuSans-54"/>
      </g>
     </g>
    </g>
    <g id="ytick_9">
     <g id="line2d_20">
      <g>
       <use style="stroke:#000000;stroke-width:0.8;" x="334.892292" xlink:href="#mb36e3a1fc0" y="161.704813"/>
      </g>
     </g>
     <g id="text_22">
      <!-- 0.88 -->
      <g transform="translate(305.626667 165.504031)scale(0.1 -0.1)">
       <use xlink:href="#DejaVuSans-48"/>
       <use x="63.623047" xlink:href="#DejaVuSans-46"/>
       <use x="95.410156" xlink:href="#DejaVuSans-56"/>
       <use x="159.033203" xlink:href="#DejaVuSans-56"/>
      </g>
     </g>
    </g>
    <g id="ytick_10">
     <g id="line2d_21">
      <g>
       <use style="stroke:#000000;stroke-width:0.8;" x="334.892292" xlink:href="#mb36e3a1fc0" y="130.893438"/>
      </g>
     </g>
     <g id="text_23">
      <!-- 0.90 -->
      <g transform="translate(305.626667 134.692656)scale(0.1 -0.1)">
       <defs>
        <path d="M 10.984375 1.515625 
L 10.984375 10.5 
Q 14.703125 8.734375 18.5 7.8125 
Q 22.3125 6.890625 25.984375 6.890625 
Q 35.75 6.890625 40.890625 13.453125 
Q 46.046875 20.015625 46.78125 33.40625 
Q 43.953125 29.203125 39.59375 26.953125 
Q 35.25 24.703125 29.984375 24.703125 
Q 19.046875 24.703125 12.671875 31.3125 
Q 6.296875 37.9375 6.296875 49.421875 
Q 6.296875 60.640625 12.9375 67.421875 
Q 19.578125 74.21875 30.609375 74.21875 
Q 43.265625 74.21875 49.921875 64.515625 
Q 56.59375 54.828125 56.59375 36.375 
Q 56.59375 19.140625 48.40625 8.859375 
Q 40.234375 -1.421875 26.421875 -1.421875 
Q 22.703125 -1.421875 18.890625 -0.6875 
Q 15.09375 0.046875 10.984375 1.515625 
z
M 30.609375 32.421875 
Q 37.25 32.421875 41.125 36.953125 
Q 45.015625 41.5 45.015625 49.421875 
Q 45.015625 57.28125 41.125 61.84375 
Q 37.25 66.40625 30.609375 66.40625 
Q 23.96875 66.40625 20.09375 61.84375 
Q 16.21875 57.28125 16.21875 49.421875 
Q 16.21875 41.5 20.09375 36.953125 
Q 23.96875 32.421875 30.609375 32.421875 
z
" id="DejaVuSans-57"/>
       </defs>
       <use xlink:href="#DejaVuSans-48"/>
       <use x="63.623047" xlink:href="#DejaVuSans-46"/>
       <use x="95.410156" xlink:href="#DejaVuSans-57"/>
       <use x="159.033203" xlink:href="#DejaVuSans-48"/>
      </g>
     </g>
    </g>
    <g id="ytick_11">
     <g id="line2d_22">
      <g>
       <use style="stroke:#000000;stroke-width:0.8;" x="334.892292" xlink:href="#mb36e3a1fc0" y="100.082063"/>
      </g>
     </g>
     <g id="text_24">
      <!-- 0.92 -->
      <g transform="translate(305.626667 103.881281)scale(0.1 -0.1)">
       <use xlink:href="#DejaVuSans-48"/>
       <use x="63.623047" xlink:href="#DejaVuSans-46"/>
       <use x="95.410156" xlink:href="#DejaVuSans-57"/>
       <use x="159.033203" xlink:href="#DejaVuSans-50"/>
      </g>
     </g>
    </g>
    <g id="ytick_12">
     <g id="line2d_23">
      <g>
       <use style="stroke:#000000;stroke-width:0.8;" x="334.892292" xlink:href="#mb36e3a1fc0" y="69.270688"/>
      </g>
     </g>
     <g id="text_25">
      <!-- 0.94 -->
      <g transform="translate(305.626667 73.069906)scale(0.1 -0.1)">
       <use xlink:href="#DejaVuSans-48"/>
       <use x="63.623047" xlink:href="#DejaVuSans-46"/>
       <use x="95.410156" xlink:href="#DejaVuSans-57"/>
       <use x="159.033203" xlink:href="#DejaVuSans-52"/>
      </g>
     </g>
    </g>
   </g>
   <g id="line2d_24">
    <path clip-path="url(#p3f47aa243d)" d="M 334.889188 163.858528 
L 336.729532 161.875816 
L 337.170222 161.418267 
L 341.505738 157.269515 
L 341.825393 156.987591 
L 343.01091 155.966194 
L 343.374013 155.662702 
L 344.283323 154.915526 
L 344.686771 154.592007 
L 345.447116 153.992725 
L 345.897116 153.646097 
L 346.55815 153.145413 
L 347.064012 152.771054 
L 347.65677 152.338155 
L 348.227804 151.931444 
L 348.764701 151.554005 
L 349.416425 151.10724 
L 349.906769 150.776018 
L 350.66401 150.276874 
L 351.11401 149.985706 
L 352.026424 149.409533 
L 352.442286 149.152258 
L 353.621596 148.443597 
L 354.006423 148.217133 
L 355.843664 147.181871 
L 356.19125 146.992381 
L 363.450213 143.512236 
L 363.714006 143.401315 
L 365.132281 142.820521 
L 365.411592 142.7096 
L 366.55366 142.265916 
L 366.848488 142.154995 
L 367.838487 141.786799 
L 368.145729 141.675878 
L 369.027108 141.361602 
L 369.346763 141.250681 
L 370.147452 140.97646 
L 370.479521 140.865539 
L 371.221245 140.620589 
L 371.565727 140.509668 
L 372.2609 140.287826 
L 372.617796 140.176905 
L 373.272623 139.97509 
L 373.641934 139.864169 
L 374.262623 139.679301 
L 374.644347 139.56838 
L 375.237106 139.397377 
L 375.634347 139.286456 
L 376.205381 139.126237 
L 376.615036 139.015316 
L 377.161243 138.867421 
L 377.583312 138.7565 
L 378.107794 138.61939 
L 378.542277 138.508469 
L 379.051242 138.379061 
L 379.501242 138.26814 
L 379.991587 138.147976 
L 380.454 138.037055 
L 380.931931 137.923053 
L 381.412966 137.812132 
L 381.878483 137.704292 
L 382.375034 137.593371 
L 382.828137 137.491693 
L 383.340206 137.380773 
L 383.780896 137.285257 
L 384.308482 137.174336 
L 384.736758 137.084983 
L 385.279861 136.974062 
L 385.698826 136.889331 
L 386.26055 136.77841 
L 386.673309 136.69676 
L 387.256757 136.585839 
L 387.660205 136.508811 
L 388.262274 136.39789 
L 388.656411 136.325483 
L 389.280204 136.214562 
L 389.668135 136.145236 
L 390.313652 136.034315 
L 390.695376 135.968071 
L 391.365721 135.85715 
L 391.741238 135.793987 
L 392.43641 135.683066 
L 392.80572 135.622984 
L 393.52572 135.512063 
L 393.88572 135.456602 
L 394.627444 135.345681 
L 394.98434 135.291761 
L 395.760202 135.18084 
L 396.110892 135.130002 
L 396.914684 135.019081 
L 397.259167 134.971323 
L 398.090891 134.860402 
L 398.429167 134.815726 
L 399.295028 134.704805 
L 399.630201 134.661669 
L 400.533304 134.550748 
L 400.862269 134.510693 
L 401.79951 134.399772 
L 402.125372 134.361258 
L 403.109165 134.250337 
L 403.431924 134.213363 
L 404.462268 134.102442 
L 404.77882 134.06855 
L 405.852612 133.957629 
L 406.166061 133.925277 
L 407.292612 133.814356 
L 407.602957 133.783544 
L 408.788473 133.672624 
L 409.095715 133.643353 
L 410.346404 133.532432 
L 410.650542 133.504702 
L 411.97261 133.393781 
L 412.273645 133.367591 
L 413.158127 133.25667 
L 413.632955 133.144208 
L 414.002265 133.033287 
L 415.479506 132.380086 
L 415.482609 116.975939 
L 415.59123 117.513598 
L 417.338471 125.624692 
L 418.893298 132.062729 
L 420.535021 138.127948 
L 422.350538 144.03603 
L 424.39571 149.77927 
L 426.738812 155.299128 
L 429.49157 160.518575 
L 432.802948 165.251202 
L 433.926396 166.522171 
L 434.367085 166.97972 
L 436.20743 168.651237 
L 436.635705 168.987081 
L 437.237774 169.429224 
L 437.95467 169.908341 
L 438.370532 170.165616 
L 441.616738 171.653805 
L 441.970531 171.764726 
L 442.550876 171.929567 
L 443.003979 172.040488 
L 443.447772 172.137544 
L 444.065358 172.248465 
L 444.422254 172.302385 
L 445.446392 172.413306 
L 445.738116 172.434874 
L 449.335011 172.323953 
L 449.66708 172.282358 
L 450.430528 172.171437 
L 450.809149 172.106733 
L 451.401907 171.995812 
L 451.830183 171.906459 
L 452.329838 171.795538 
L 452.817079 171.676914 
L 453.254665 171.565993 
L 453.807079 171.415017 
L 454.198113 171.304096 
L 454.837423 171.109985 
L 455.191216 170.999064 
L 455.939147 170.751032 
L 456.265009 170.640111 
L 457.171216 170.313511 
L 457.469147 170.20259 
L 458.623629 169.752744 
L 458.899836 169.641823 
L 460.563283 168.939323 
L 460.817766 168.828402 
L 474.013624 162.154659 
L 474.358106 161.96825 
L 477.346726 160.361437 
L 477.688105 160.178109 
L 481.07707 158.372562 
L 481.412242 158.195397 
L 497.038099 150.561879 
L 497.292581 150.450958 
L 499.24465 149.605186 
L 499.508443 149.494265 
L 501.109821 148.822577 
L 501.379821 148.711656 
L 502.754648 148.152429 
L 503.033959 148.041508 
L 504.262924 147.554689 
L 504.548441 147.443768 
L 505.662579 147.013949 
L 505.957406 146.903028 
L 506.98775 146.514805 
L 507.288785 146.403884 
L 508.24775 146.051093 
L 508.554991 145.940172 
L 509.448784 145.619734 
L 509.765336 145.508813 
L 510.61568 145.209943 
L 510.938439 145.099022 
L 511.745335 144.82172 
L 512.0743 144.710799 
L 512.840852 144.453524 
L 513.179128 144.342603 
L 513.914645 144.100733 
L 514.259127 143.989812 
L 514.966713 143.761808 
L 515.320506 143.650887 
L 516.000161 143.436748 
L 516.360161 143.325827 
L 517.018092 143.122472 
L 517.387402 143.011551 
L 518.023609 142.81898 
L 518.399126 142.708059 
L 519.013608 142.526272 
L 519.398436 142.415351 
L 519.994298 142.242807 
L 520.385332 142.131887 
L 520.965677 141.967046 
L 521.366021 141.856125 
L 521.927745 141.700527 
L 522.334297 141.589606 
L 522.880504 141.441712 
L 523.296366 141.330791 
L 523.833262 141.187518 
L 524.261538 141.076597 
L 524.78602 140.939486 
L 525.220503 140.828565 
L 525.729468 140.699158 
L 526.173261 140.588237 
L 526.672916 140.463451 
L 527.12602 140.35253 
L 527.616364 140.232365 
L 528.081881 140.121444 
L 528.562916 140.005902 
L 529.037743 139.894981 
L 529.506364 139.7856 
L 529.990501 139.674679 
L 530.452915 139.56838 
L 530.949466 139.457459 
L 531.40257 139.355782 
L 531.908432 139.244861 
L 532.352225 139.147805 
L 532.867397 139.036884 
L 533.304983 138.942909 
L 533.835672 138.831988 
L 534.267052 138.741095 
L 534.810155 138.630174 
L 535.232224 138.543902 
L 535.787741 138.432981 
L 536.203603 138.34979 
L 536.76843 138.238869 
L 537.178085 138.15876 
L 537.761533 138.047839 
L 538.168085 137.96927 
L 538.76705 137.858349 
L 539.164291 137.784402 
L 539.772567 137.673481 
L 540.166705 137.601074 
L 540.793601 137.490153 
L 541.181532 137.420827 
L 541.827049 137.309906 
L 542.208773 137.243662 
L 542.866704 137.132741 
L 543.245324 137.068037 
L 543.921876 136.957116 
L 544.29429 136.895493 
L 544.989462 136.784572 
L 545.355668 136.726031 
L 546.066358 136.61511 
L 546.429461 136.558109 
L 547.161875 136.447188 
L 547.521875 136.391727 
L 548.276012 136.280806 
L 548.629805 136.228427 
L 549.402564 136.117506 
L 549.753253 136.066667 
L 550.550839 135.955746 
L 550.895322 135.907989 
L 551.711528 135.797068 
L 552.052908 135.750851 
L 552.897045 135.63993 
L 553.235321 135.595253 
L 554.10739 135.484332 
L 554.442562 135.441196 
L 555.342562 135.330275 
L 555.674631 135.28868 
L 556.605665 135.177759 
L 556.93463 135.137704 
L 557.896699 135.026783 
L 558.219457 134.98981 
L 559.206353 134.878889 
L 559.526009 134.843456 
L 560.550146 134.732535 
L 560.869801 134.697102 
L 561.94049 134.586181 
L 562.257042 134.552288 
L 563.368076 134.441367 
L 563.678421 134.410556 
L 564.820489 134.299635 
L 565.130834 134.268824 
L 566.331868 134.157903 
L 566.63911 134.128632 
L 567.653937 134.037738 
L 567.653937 134.037738 
" style="fill:none;stroke:#3b7d86;stroke-linecap:square;stroke-width:1.5;"/>
   </g>
   <g id="patch_9">
    <path d="M 334.892292 207.921875 
L 334.892292 53.865 
" style="fill:none;stroke:#000000;stroke-linecap:square;stroke-linejoin:miter;stroke-width:0.8;"/>
   </g>
   <g id="patch_10">
    <path d="M 567.650833 207.921875 
L 567.650833 53.865 
" style="fill:none;stroke:#000000;stroke-linecap:square;stroke-linejoin:miter;stroke-width:0.8;"/>
   </g>
   <g id="patch_11">
    <path d="M 334.892292 207.921875 
L 567.650833 207.921875 
" style="fill:none;stroke:#000000;stroke-linecap:square;stroke-linejoin:miter;stroke-width:0.8;"/>
   </g>
   <g id="patch_12">
    <path d="M 334.892292 53.865 
L 567.650833 53.865 
" style="fill:none;stroke:#000000;stroke-linecap:square;stroke-linejoin:miter;stroke-width:0.8;"/>
   </g>
   <g id="text_26">
    <!-- Post-synaptic effect, $\beta=0.1$ -->
    <g transform="translate(353.341563 47.865)scale(0.14 -0.14)">
     <defs>
      <path d="M 4.890625 31.390625 
L 31.203125 31.390625 
L 31.203125 23.390625 
L 4.890625 23.390625 
z
" id="DejaVuSans-45"/>
      <path d="M 37.109375 75.984375 
L 37.109375 68.5 
L 28.515625 68.5 
Q 23.6875 68.5 21.796875 66.546875 
Q 19.921875 64.59375 19.921875 59.515625 
L 19.921875 54.6875 
L 34.71875 54.6875 
L 34.71875 47.703125 
L 19.921875 47.703125 
L 19.921875 0 
L 10.890625 0 
L 10.890625 47.703125 
L 2.296875 47.703125 
L 2.296875 54.6875 
L 10.890625 54.6875 
L 10.890625 58.5 
Q 10.890625 67.625 15.140625 71.796875 
Q 19.390625 75.984375 28.609375 75.984375 
z
" id="DejaVuSans-102"/>
      <path d="M 13.625 3.375 
L 8.9375 -20.796875 
L -0.09375 -20.796875 
L 14.5 54.34375 
Q 18.84375 76.609375 39.65625 76.609375 
Q 60.75 76.609375 57.171875 57.8125 
Q 54.734375 44.4375 45.21875 39.546875 
Q 58.015625 35.15625 55.515625 22.125 
Q 51.125 -1.078125 27.484375 -1.03125 
Q 17.140625 -0.984375 13.625 3.375 
z
M 15.921875 15.09375 
Q 19.671875 6.59375 29.296875 6.640625 
Q 43.359375 6.640625 46.34375 21.96875 
Q 49.03125 35.75 26.171875 34.671875 
L 27.78125 42.96875 
Q 45.453125 42.671875 48.53125 58.59375 
Q 50.640625 69.34375 39.203125 69.28125 
Q 26.421875 69.28125 23.484375 54.046875 
z
" id="DejaVuSans-Oblique-946"/>
      <path d="M 10.59375 45.40625 
L 73.1875 45.40625 
L 73.1875 37.203125 
L 10.59375 37.203125 
z
M 10.59375 25.484375 
L 73.1875 25.484375 
L 73.1875 17.1875 
L 10.59375 17.1875 
z
" id="DejaVuSans-61"/>
     </defs>
     <use transform="translate(0 0.390625)" xlink:href="#DejaVuSans-80"/>
     <use transform="translate(60.302734 0.390625)" xlink:href="#DejaVuSans-111"/>
     <use transform="translate(121.484375 0.390625)" xlink:href="#DejaVuSans-115"/>
     <use transform="translate(173.583984 0.390625)" xlink:href="#DejaVuSans-116"/>
     <use transform="translate(212.792969 0.390625)" xlink:href="#DejaVuSans-45"/>
     <use transform="translate(248.876953 0.390625)" xlink:href="#DejaVuSans-115"/>
     <use transform="translate(300.976562 0.390625)" xlink:href="#DejaVuSans-121"/>
     <use transform="translate(360.15625 0.390625)" xlink:href="#DejaVuSans-110"/>
     <use transform="translate(423.535156 0.390625)" xlink:href="#DejaVuSans-97"/>
     <use transform="translate(484.814453 0.390625)" xlink:href="#DejaVuSans-112"/>
     <use transform="translate(548.291016 0.390625)" xlink:href="#DejaVuSans-116"/>
     <use transform="translate(587.5 0.390625)" xlink:href="#DejaVuSans-105"/>
     <use transform="translate(615.283203 0.390625)" xlink:href="#DejaVuSans-99"/>
     <use transform="translate(670.263672 0.390625)" xlink:href="#DejaVuSans-32"/>
     <use transform="translate(702.050781 0.390625)" xlink:href="#DejaVuSans-101"/>
     <use transform="translate(763.574219 0.390625)" xlink:href="#DejaVuSans-102"/>
     <use transform="translate(798.779297 0.390625)" xlink:href="#DejaVuSans-102"/>
     <use transform="translate(833.984375 0.390625)" xlink:href="#DejaVuSans-101"/>
     <use transform="translate(895.507812 0.390625)" xlink:href="#DejaVuSans-99"/>
     <use transform="translate(950.488281 0.390625)" xlink:href="#DejaVuSans-116"/>
     <use transform="translate(989.697266 0.390625)" xlink:href="#DejaVuSans-44"/>
     <use transform="translate(1021.484375 0.390625)" xlink:href="#DejaVuSans-32"/>
     <use transform="translate(1053.271484 0.390625)" xlink:href="#DejaVuSans-Oblique-946"/>
     <use transform="translate(1136.572266 0.390625)" xlink:href="#DejaVuSans-61"/>
     <use transform="translate(1239.84375 0.390625)" xlink:href="#DejaVuSans-48"/>
     <use transform="translate(1303.466797 0.390625)" xlink:href="#DejaVuSans-46"/>
     <use transform="translate(1335.253906 0.390625)" xlink:href="#DejaVuSans-49"/>
    </g>
   </g>
   <g id="legend_2">
    <g id="patch_13">
     <path d="M 506.930833 81.07875 
L 559.250833 81.07875 
Q 561.650833 81.07875 561.650833 78.67875 
L 561.650833 62.265 
Q 561.650833 59.865 559.250833 59.865 
L 506.930833 59.865 
Q 504.530833 59.865 504.530833 62.265 
L 504.530833 78.67875 
Q 504.530833 81.07875 506.930833 81.07875 
z
" style="fill:#ffffff;opacity:0.8;stroke:#cccccc;stroke-linejoin:miter;"/>
    </g>
    <g id="line2d_25">
     <path d="M 509.330833 69.583125 
L 533.330833 69.583125 
" style="fill:none;stroke:#3b7d86;stroke-linecap:square;stroke-width:1.5;"/>
    </g>
    <g id="line2d_26"/>
    <g id="text_27">
     <!-- $V_2$ -->
     <g transform="translate(542.930833 73.783125)scale(0.12 -0.12)">
      <use transform="translate(0 0.09375)" xlink:href="#DejaVuSans-Oblique-86"/>
      <use transform="translate(68.408203 -16.3125)scale(0.7)" xlink:href="#DejaVuSans-50"/>
     </g>
    </g>
   </g>
  </g>
  <g id="axes_3">
   <g id="patch_14">
    <path d="M 614.078958 207.921875 
L 846.8375 207.921875 
L 846.8375 53.865 
L 614.078958 53.865 
z
" style="fill:#ffffff;"/>
   </g>
   <g id="matplotlib.axis_5">
    <g id="xtick_9">
     <g id="line2d_27">
      <g>
       <use style="stroke:#000000;stroke-width:0.8;" x="660.630667" xlink:href="#mae4c77fee8" y="207.921875"/>
      </g>
     </g>
     <g id="text_28">
      <!-- 4 -->
      <g transform="translate(657.449417 222.520312)scale(0.1 -0.1)">
       <use xlink:href="#DejaVuSans-52"/>
      </g>
     </g>
    </g>
    <g id="xtick_10">
     <g id="line2d_28">
      <g>
       <use style="stroke:#000000;stroke-width:0.8;" x="722.699611" xlink:href="#mae4c77fee8" y="207.921875"/>
      </g>
     </g>
     <g id="text_29">
      <!-- 6 -->
      <g transform="translate(719.518361 222.520312)scale(0.1 -0.1)">
       <use xlink:href="#DejaVuSans-54"/>
      </g>
     </g>
    </g>
    <g id="xtick_11">
     <g id="line2d_29">
      <g>
       <use style="stroke:#000000;stroke-width:0.8;" x="784.768556" xlink:href="#mae4c77fee8" y="207.921875"/>
      </g>
     </g>
     <g id="text_30">
      <!-- 8 -->
      <g transform="translate(781.587306 222.520312)scale(0.1 -0.1)">
       <use xlink:href="#DejaVuSans-56"/>
      </g>
     </g>
    </g>
    <g id="xtick_12">
     <g id="line2d_30">
      <g>
       <use style="stroke:#000000;stroke-width:0.8;" x="846.8375" xlink:href="#mae4c77fee8" y="207.921875"/>
      </g>
     </g>
     <g id="text_31">
      <!-- 10 -->
      <g transform="translate(840.475 222.520312)scale(0.1 -0.1)">
       <use xlink:href="#DejaVuSans-49"/>
       <use x="63.623047" xlink:href="#DejaVuSans-48"/>
      </g>
     </g>
    </g>
    <g id="text_32">
     <!-- Time ($10^{-2}$ seconds) -->
     <g transform="translate(668.478229 238.704375)scale(0.12 -0.12)">
      <use transform="translate(0 0.765625)" xlink:href="#DejaVuSans-84"/>
      <use transform="translate(61.083984 0.765625)" xlink:href="#DejaVuSans-105"/>
      <use transform="translate(88.867188 0.765625)" xlink:href="#DejaVuSans-109"/>
      <use transform="translate(186.279297 0.765625)" xlink:href="#DejaVuSans-101"/>
      <use transform="translate(247.802734 0.765625)" xlink:href="#DejaVuSans-32"/>
      <use transform="translate(279.589844 0.765625)" xlink:href="#DejaVuSans-40"/>
      <use transform="translate(318.603516 0.765625)" xlink:href="#DejaVuSans-49"/>
      <use transform="translate(382.226562 0.765625)" xlink:href="#DejaVuSans-48"/>
      <use transform="translate(446.806641 39.046875)scale(0.7)" xlink:href="#DejaVuSans-8722"/>
      <use transform="translate(505.458984 39.046875)scale(0.7)" xlink:href="#DejaVuSans-50"/>
      <use transform="translate(552.729492 0.765625)" xlink:href="#DejaVuSans-32"/>
      <use transform="translate(584.516602 0.765625)" xlink:href="#DejaVuSans-115"/>
      <use transform="translate(636.616211 0.765625)" xlink:href="#DejaVuSans-101"/>
      <use transform="translate(698.139648 0.765625)" xlink:href="#DejaVuSans-99"/>
      <use transform="translate(753.120117 0.765625)" xlink:href="#DejaVuSans-111"/>
      <use transform="translate(814.301758 0.765625)" xlink:href="#DejaVuSans-110"/>
      <use transform="translate(877.680664 0.765625)" xlink:href="#DejaVuSans-100"/>
      <use transform="translate(941.157227 0.765625)" xlink:href="#DejaVuSans-115"/>
      <use transform="translate(993.256836 0.765625)" xlink:href="#DejaVuSans-41"/>
     </g>
    </g>
   </g>
   <g id="matplotlib.axis_6">
    <g id="ytick_13">
     <g id="line2d_31">
      <g>
       <use style="stroke:#000000;stroke-width:0.8;" x="614.078958" xlink:href="#mb36e3a1fc0" y="192.516188"/>
      </g>
     </g>
     <g id="text_33">
      <!-- 0.86 -->
      <g transform="translate(584.813333 196.315406)scale(0.1 -0.1)">
       <use xlink:href="#DejaVuSans-48"/>
       <use x="63.623047" xlink:href="#DejaVuSans-46"/>
       <use x="95.410156" xlink:href="#DejaVuSans-56"/>
       <use x="159.033203" xlink:href="#DejaVuSans-54"/>
      </g>
     </g>
    </g>
    <g id="ytick_14">
     <g id="line2d_32">
      <g>
       <use style="stroke:#000000;stroke-width:0.8;" x="614.078958" xlink:href="#mb36e3a1fc0" y="161.704813"/>
      </g>
     </g>
     <g id="text_34">
      <!-- 0.88 -->
      <g transform="translate(584.813333 165.504031)scale(0.1 -0.1)">
       <use xlink:href="#DejaVuSans-48"/>
       <use x="63.623047" xlink:href="#DejaVuSans-46"/>
       <use x="95.410156" xlink:href="#DejaVuSans-56"/>
       <use x="159.033203" xlink:href="#DejaVuSans-56"/>
      </g>
     </g>
    </g>
    <g id="ytick_15">
     <g id="line2d_33">
      <g>
       <use style="stroke:#000000;stroke-width:0.8;" x="614.078958" xlink:href="#mb36e3a1fc0" y="130.893438"/>
      </g>
     </g>
     <g id="text_35">
      <!-- 0.90 -->
      <g transform="translate(584.813333 134.692656)scale(0.1 -0.1)">
       <use xlink:href="#DejaVuSans-48"/>
       <use x="63.623047" xlink:href="#DejaVuSans-46"/>
       <use x="95.410156" xlink:href="#DejaVuSans-57"/>
       <use x="159.033203" xlink:href="#DejaVuSans-48"/>
      </g>
     </g>
    </g>
    <g id="ytick_16">
     <g id="line2d_34">
      <g>
       <use style="stroke:#000000;stroke-width:0.8;" x="614.078958" xlink:href="#mb36e3a1fc0" y="100.082063"/>
      </g>
     </g>
     <g id="text_36">
      <!-- 0.92 -->
      <g transform="translate(584.813333 103.881281)scale(0.1 -0.1)">
       <use xlink:href="#DejaVuSans-48"/>
       <use x="63.623047" xlink:href="#DejaVuSans-46"/>
       <use x="95.410156" xlink:href="#DejaVuSans-57"/>
       <use x="159.033203" xlink:href="#DejaVuSans-50"/>
      </g>
     </g>
    </g>
    <g id="ytick_17">
     <g id="line2d_35">
      <g>
       <use style="stroke:#000000;stroke-width:0.8;" x="614.078958" xlink:href="#mb36e3a1fc0" y="69.270688"/>
      </g>
     </g>
     <g id="text_37">
      <!-- 0.94 -->
      <g transform="translate(584.813333 73.069906)scale(0.1 -0.1)">
       <use xlink:href="#DejaVuSans-48"/>
       <use x="63.623047" xlink:href="#DejaVuSans-46"/>
       <use x="95.410156" xlink:href="#DejaVuSans-57"/>
       <use x="159.033203" xlink:href="#DejaVuSans-52"/>
      </g>
     </g>
    </g>
   </g>
   <g id="line2d_36">
    <path clip-path="url(#p6308192838)" d="M 614.075855 163.858528 
L 615.916199 161.875816 
L 616.356889 161.418267 
L 620.692404 157.269515 
L 621.012059 156.987591 
L 622.197576 155.966194 
L 622.56068 155.662702 
L 623.46999 154.915526 
L 623.873438 154.592007 
L 624.633782 153.992725 
L 625.083782 153.646097 
L 625.744816 153.145413 
L 626.250678 152.771054 
L 626.843437 152.338155 
L 627.414471 151.931444 
L 627.951367 151.554005 
L 628.603091 151.10724 
L 629.093436 150.776018 
L 629.850677 150.276874 
L 630.300677 149.985706 
L 631.21309 149.409533 
L 631.628952 149.152258 
L 632.808262 148.443597 
L 633.19309 148.217133 
L 635.030331 147.181871 
L 635.377917 146.992381 
L 642.63688 143.512236 
L 642.900673 143.401315 
L 644.318948 142.820521 
L 644.598258 142.7096 
L 645.740327 142.265916 
L 646.035154 142.154995 
L 647.025154 141.786799 
L 647.332395 141.675878 
L 648.213774 141.361602 
L 648.533429 141.250681 
L 649.334119 140.97646 
L 649.666188 140.865539 
L 650.407912 140.620589 
L 650.752394 140.509668 
L 651.447566 140.287826 
L 651.804463 140.176905 
L 652.45929 139.97509 
L 652.8286 139.864169 
L 653.44929 139.679301 
L 653.831014 139.56838 
L 654.423772 139.397377 
L 654.821013 139.286456 
L 655.392048 139.126237 
L 655.801703 139.015316 
L 656.34791 138.867421 
L 656.769978 138.7565 
L 657.294461 138.61939 
L 657.728944 138.508469 
L 658.237909 138.379061 
L 658.687909 138.26814 
L 659.178253 138.147976 
L 659.640667 138.037055 
L 660.118598 137.923053 
L 660.599632 137.812132 
L 661.065149 137.704292 
L 661.561701 137.593371 
L 662.014804 137.491693 
L 662.526873 137.380773 
L 662.967562 137.285257 
L 663.495148 137.174336 
L 663.923424 137.084983 
L 664.466527 136.974062 
L 664.885493 136.889331 
L 665.447217 136.77841 
L 665.859975 136.69676 
L 666.443423 136.585839 
L 666.846871 136.508811 
L 667.44894 136.39789 
L 667.843078 136.325483 
L 668.466871 136.214562 
L 668.854802 136.145236 
L 669.500319 136.034315 
L 669.882043 135.968071 
L 670.552387 135.85715 
L 670.927905 135.793987 
L 671.623077 135.683066 
L 671.992387 135.622984 
L 672.712387 135.512063 
L 673.072387 135.456602 
L 673.81411 135.345681 
L 674.171007 135.291761 
L 674.946869 135.18084 
L 675.297558 135.130002 
L 676.101351 135.019081 
L 676.445834 134.971323 
L 677.277558 134.860402 
L 677.615833 134.815726 
L 678.481695 134.704805 
L 678.816867 134.661669 
L 679.719971 134.550748 
L 680.048936 134.510693 
L 680.986177 134.399772 
L 681.312039 134.361258 
L 682.295832 134.250337 
L 682.61859 134.213363 
L 683.648935 134.102442 
L 683.965486 134.06855 
L 685.039279 133.957629 
L 685.352727 133.925277 
L 686.479279 133.814356 
L 686.789623 133.783544 
L 687.97514 133.672624 
L 688.282381 133.643353 
L 689.533071 133.532432 
L 689.837208 133.504702 
L 691.159277 133.393781 
L 691.460311 133.367591 
L 692.344794 133.25667 
L 692.819621 133.144208 
L 693.188931 133.033287 
L 694.666172 132.380086 
L 694.669276 101.570252 
L 694.777896 102.166452 
L 696.705137 112.07385 
L 698.207206 118.967895 
L 699.762033 125.405932 
L 701.447205 131.643694 
L 703.321687 137.756671 
L 705.444445 143.730997 
L 707.883754 149.489643 
L 710.754443 154.943256 
L 714.233407 159.925456 
L 715.273062 161.113234 
L 715.735476 161.603135 
L 717.833406 163.530386 
L 718.255475 163.863149 
L 718.876164 164.323779 
L 719.546509 164.779788 
L 719.980991 165.05555 
L 723.745473 166.801014 
L 724.102369 166.911935 
L 724.67961 167.075235 
L 725.126507 167.186156 
L 725.57961 167.287834 
L 726.169265 167.398755 
L 726.541679 167.460377 
L 727.416851 167.571298 
L 727.727196 167.60211 
L 732.494091 167.491189 
L 732.832366 167.446512 
L 733.586504 167.335591 
L 733.962021 167.272428 
L 734.567193 167.161507 
L 734.983055 167.078316 
L 735.504434 166.967395 
L 735.966848 166.861096 
L 736.429262 166.750175 
L 736.944434 166.617686 
L 737.363399 166.506765 
L 737.934434 166.346546 
L 738.319261 166.235625 
L 738.958571 166.041514 
L 739.315468 165.930593 
L 740.038571 165.694886 
L 740.37064 165.583965 
L 741.196157 165.297419 
L 741.509605 165.186498 
L 742.471673 164.832167 
L 742.766501 164.721246 
L 743.905466 164.279103 
L 744.184776 164.168182 
L 745.590638 163.59355 
L 745.857534 163.482629 
L 747.697878 162.692317 
L 747.952361 162.581396 
L 750.593395 161.393618 
L 750.835464 161.282697 
L 755.18029 159.249146 
L 755.416152 159.138225 
L 761.334426 156.323606 
L 761.570288 156.212685 
L 765.80339 154.234595 
L 766.045458 154.123674 
L 768.965802 152.797244 
L 769.217182 152.686323 
L 771.485801 151.683413 
L 771.743388 151.572492 
L 773.611663 150.768315 
L 773.875456 150.657394 
L 775.483041 149.982625 
L 775.753041 149.871704 
L 777.171317 149.29091 
L 777.447524 149.179989 
L 778.729247 148.666979 
L 779.011661 148.556058 
L 780.184764 148.096969 
L 780.473385 147.986048 
L 781.556488 147.571635 
L 781.851315 147.460714 
L 782.863039 147.081734 
L 783.164073 146.970813 
L 784.113728 146.622644 
L 784.420969 146.511723 
L 785.317866 146.189745 
L 785.631314 146.078824 
L 786.484762 145.778413 
L 786.80752 145.667492 
L 787.623727 145.385568 
L 787.952692 145.274647 
L 788.734761 145.009669 
L 789.069933 144.898748 
L 789.817864 144.650716 
L 790.159243 144.539795 
L 790.87614 144.30717 
L 791.223726 144.196249 
L 791.915795 143.975947 
L 792.269587 143.865026 
L 792.936829 143.65705 
L 793.299932 143.546129 
L 793.948552 143.347395 
L 794.317863 143.236474 
L 794.944759 143.048525 
L 795.320276 142.937604 
L 795.928552 142.758898 
L 796.313379 142.647977 
L 796.906138 142.476974 
L 797.297172 142.366053 
L 797.874413 142.202753 
L 798.274758 142.091832 
L 798.836482 141.936234 
L 799.243033 141.825313 
L 799.792344 141.675878 
L 800.211309 141.564957 
L 800.748205 141.421684 
L 801.173378 141.310763 
L 801.69786 141.173653 
L 802.132343 141.062732 
L 802.647515 140.930243 
L 803.091308 140.819322 
L 803.594066 140.692995 
L 804.04717 140.582074 
L 804.540618 140.460369 
L 805.003031 140.349448 
L 805.484066 140.233906 
L 805.95579 140.122985 
L 806.430617 140.010523 
L 806.911651 139.899602 
L 807.377169 139.791763 
L 807.870617 139.680842 
L 808.326823 139.577624 
L 808.829582 139.466703 
L 809.279582 139.366566 
L 809.794754 139.255645 
L 810.235443 139.160129 
L 810.759926 139.049208 
L 811.194409 138.956774 
L 811.731305 138.845853 
L 812.156477 138.758041 
L 812.702684 138.64712 
L 813.121649 138.562389 
L 813.68027 138.451468 
L 814.093028 138.369818 
L 814.667166 138.258897 
L 815.073718 138.180328 
L 815.660269 138.069407 
L 816.063717 137.992378 
L 816.662683 137.881457 
L 817.059924 137.80751 
L 817.67751 137.696589 
L 818.068544 137.625723 
L 818.701647 137.514802 
L 819.086475 137.447017 
L 819.731992 137.336096 
L 820.113716 137.269852 
L 820.777854 137.158931 
L 821.153371 137.095767 
L 821.833026 136.984846 
L 822.205439 136.923224 
L 822.906818 136.812303 
L 823.273025 136.753761 
L 823.989922 136.64284 
L 824.353025 136.585839 
L 825.088542 136.474918 
L 825.445438 136.420998 
L 826.202679 136.310077 
L 826.556472 136.257698 
L 827.332334 136.146777 
L 827.683024 136.095938 
L 828.486817 135.985017 
L 828.831299 135.93726 
L 829.650609 135.826339 
L 829.991988 135.780122 
L 830.83923 135.669201 
L 831.177505 135.624524 
L 832.052677 135.513603 
L 832.38785 135.470467 
L 833.290953 135.359546 
L 833.623022 135.317951 
L 834.557159 135.20703 
L 834.886125 135.166975 
L 835.851297 135.056054 
L 836.177159 135.01754 
L 837.176469 134.906619 
L 837.496124 134.871186 
L 838.520261 134.760265 
L 838.836813 134.726373 
L 839.898192 134.615452 
L 840.214744 134.581559 
L 841.325778 134.470638 
L 841.639226 134.438286 
L 842.793708 134.327365 
L 843.104053 134.296554 
L 844.301984 134.185633 
L 844.609225 134.156362 
L 845.856811 134.045441 
L 846.160949 134.017711 
L 846.840603 133.959169 
L 846.840603 133.959169 
" style="fill:none;stroke:#3b7d86;stroke-linecap:square;stroke-width:1.5;"/>
   </g>
   <g id="patch_15">
    <path d="M 614.078958 207.921875 
L 614.078958 53.865 
" style="fill:none;stroke:#000000;stroke-linecap:square;stroke-linejoin:miter;stroke-width:0.8;"/>
   </g>
   <g id="patch_16">
    <path d="M 846.8375 207.921875 
L 846.8375 53.865 
" style="fill:none;stroke:#000000;stroke-linecap:square;stroke-linejoin:miter;stroke-width:0.8;"/>
   </g>
   <g id="patch_17">
    <path d="M 614.078958 207.921875 
L 846.8375 207.921875 
" style="fill:none;stroke:#000000;stroke-linecap:square;stroke-linejoin:miter;stroke-width:0.8;"/>
   </g>
   <g id="patch_18">
    <path d="M 614.078958 53.865 
L 846.8375 53.865 
" style="fill:none;stroke:#000000;stroke-linecap:square;stroke-linejoin:miter;stroke-width:0.8;"/>
   </g>
   <g id="text_38">
    <!-- Post-synaptic effect, $\beta=0.2$ -->
    <g transform="translate(632.878229 47.865)scale(0.14 -0.14)">
     <use transform="translate(0 0.390625)" xlink:href="#DejaVuSans-80"/>
     <use transform="translate(60.302734 0.390625)" xlink:href="#DejaVuSans-111"/>
     <use transform="translate(121.484375 0.390625)" xlink:href="#DejaVuSans-115"/>
     <use transform="translate(173.583984 0.390625)" xlink:href="#DejaVuSans-116"/>
     <use transform="translate(212.792969 0.390625)" xlink:href="#DejaVuSans-45"/>
     <use transform="translate(248.876953 0.390625)" xlink:href="#DejaVuSans-115"/>
     <use transform="translate(300.976562 0.390625)" xlink:href="#DejaVuSans-121"/>
     <use transform="translate(360.15625 0.390625)" xlink:href="#DejaVuSans-110"/>
     <use transform="translate(423.535156 0.390625)" xlink:href="#DejaVuSans-97"/>
     <use transform="translate(484.814453 0.390625)" xlink:href="#DejaVuSans-112"/>
     <use transform="translate(548.291016 0.390625)" xlink:href="#DejaVuSans-116"/>
     <use transform="translate(587.5 0.390625)" xlink:href="#DejaVuSans-105"/>
     <use transform="translate(615.283203 0.390625)" xlink:href="#DejaVuSans-99"/>
     <use transform="translate(670.263672 0.390625)" xlink:href="#DejaVuSans-32"/>
     <use transform="translate(702.050781 0.390625)" xlink:href="#DejaVuSans-101"/>
     <use transform="translate(763.574219 0.390625)" xlink:href="#DejaVuSans-102"/>
     <use transform="translate(798.779297 0.390625)" xlink:href="#DejaVuSans-102"/>
     <use transform="translate(833.984375 0.390625)" xlink:href="#DejaVuSans-101"/>
     <use transform="translate(895.507812 0.390625)" xlink:href="#DejaVuSans-99"/>
     <use transform="translate(950.488281 0.390625)" xlink:href="#DejaVuSans-116"/>
     <use transform="translate(989.697266 0.390625)" xlink:href="#DejaVuSans-44"/>
     <use transform="translate(1021.484375 0.390625)" xlink:href="#DejaVuSans-32"/>
     <use transform="translate(1053.271484 0.390625)" xlink:href="#DejaVuSans-Oblique-946"/>
     <use transform="translate(1136.572266 0.390625)" xlink:href="#DejaVuSans-61"/>
     <use transform="translate(1239.84375 0.390625)" xlink:href="#DejaVuSans-48"/>
     <use transform="translate(1303.466797 0.390625)" xlink:href="#DejaVuSans-46"/>
     <use transform="translate(1329.753906 0.390625)" xlink:href="#DejaVuSans-50"/>
    </g>
   </g>
   <g id="legend_3">
    <g id="patch_19">
     <path d="M 786.1175 81.07875 
L 838.4375 81.07875 
Q 840.8375 81.07875 840.8375 78.67875 
L 840.8375 62.265 
Q 840.8375 59.865 838.4375 59.865 
L 786.1175 59.865 
Q 783.7175 59.865 783.7175 62.265 
L 783.7175 78.67875 
Q 783.7175 81.07875 786.1175 81.07875 
z
" style="fill:#ffffff;opacity:0.8;stroke:#cccccc;stroke-linejoin:miter;"/>
    </g>
    <g id="line2d_37">
     <path d="M 788.5175 69.583125 
L 812.5175 69.583125 
" style="fill:none;stroke:#3b7d86;stroke-linecap:square;stroke-width:1.5;"/>
    </g>
    <g id="line2d_38"/>
    <g id="text_39">
     <!-- $V_2$ -->
     <g transform="translate(822.1175 73.783125)scale(0.12 -0.12)">
      <use transform="translate(0 0.09375)" xlink:href="#DejaVuSans-Oblique-86"/>
      <use transform="translate(68.408203 -16.3125)scale(0.7)" xlink:href="#DejaVuSans-50"/>
     </g>
    </g>
   </g>
  </g>
  <g id="text_40">
   <!-- Dominantly inhibitory effects -->
   <g transform="translate(315.5875 17.1975)scale(0.16 -0.16)">
    <defs>
     <path d="M 19.671875 64.796875 
L 19.671875 8.109375 
L 31.59375 8.109375 
Q 46.6875 8.109375 53.6875 14.9375 
Q 60.6875 21.78125 60.6875 36.53125 
Q 60.6875 51.171875 53.6875 57.984375 
Q 46.6875 64.796875 31.59375 64.796875 
z
M 9.8125 72.90625 
L 30.078125 72.90625 
Q 51.265625 72.90625 61.171875 64.09375 
Q 71.09375 55.28125 71.09375 36.53125 
Q 71.09375 17.671875 61.125 8.828125 
Q 51.171875 0 30.078125 0 
L 9.8125 0 
z
" id="DejaVuSans-68"/>
     <path d="M 54.890625 33.015625 
L 54.890625 0 
L 45.90625 0 
L 45.90625 32.71875 
Q 45.90625 40.484375 42.875 44.328125 
Q 39.84375 48.1875 33.796875 48.1875 
Q 26.515625 48.1875 22.3125 43.546875 
Q 18.109375 38.921875 18.109375 30.90625 
L 18.109375 0 
L 9.078125 0 
L 9.078125 75.984375 
L 18.109375 75.984375 
L 18.109375 46.1875 
Q 21.34375 51.125 25.703125 53.5625 
Q 30.078125 56 35.796875 56 
Q 45.21875 56 50.046875 50.171875 
Q 54.890625 44.34375 54.890625 33.015625 
z
" id="DejaVuSans-104"/>
     <path d="M 48.6875 27.296875 
Q 48.6875 37.203125 44.609375 42.84375 
Q 40.53125 48.484375 33.40625 48.484375 
Q 26.265625 48.484375 22.1875 42.84375 
Q 18.109375 37.203125 18.109375 27.296875 
Q 18.109375 17.390625 22.1875 11.75 
Q 26.265625 6.109375 33.40625 6.109375 
Q 40.53125 6.109375 44.609375 11.75 
Q 48.6875 17.390625 48.6875 27.296875 
z
M 18.109375 46.390625 
Q 20.953125 51.265625 25.265625 53.625 
Q 29.59375 56 35.59375 56 
Q 45.5625 56 51.78125 48.09375 
Q 58.015625 40.1875 58.015625 27.296875 
Q 58.015625 14.40625 51.78125 6.484375 
Q 45.5625 -1.421875 35.59375 -1.421875 
Q 29.59375 -1.421875 25.265625 0.953125 
Q 20.953125 3.328125 18.109375 8.203125 
L 18.109375 0 
L 9.078125 0 
L 9.078125 75.984375 
L 18.109375 75.984375 
z
" id="DejaVuSans-98"/>
    </defs>
    <use xlink:href="#DejaVuSans-68"/>
    <use x="77.001953" xlink:href="#DejaVuSans-111"/>
    <use x="138.183594" xlink:href="#DejaVuSans-109"/>
    <use x="235.595703" xlink:href="#DejaVuSans-105"/>
    <use x="263.378906" xlink:href="#DejaVuSans-110"/>
    <use x="326.757812" xlink:href="#DejaVuSans-97"/>
    <use x="388.037109" xlink:href="#DejaVuSans-110"/>
    <use x="451.416016" xlink:href="#DejaVuSans-116"/>
    <use x="490.625" xlink:href="#DejaVuSans-108"/>
    <use x="518.408203" xlink:href="#DejaVuSans-121"/>
    <use x="577.587891" xlink:href="#DejaVuSans-32"/>
    <use x="609.375" xlink:href="#DejaVuSans-105"/>
    <use x="637.158203" xlink:href="#DejaVuSans-110"/>
    <use x="700.537109" xlink:href="#DejaVuSans-104"/>
    <use x="763.916016" xlink:href="#DejaVuSans-105"/>
    <use x="791.699219" xlink:href="#DejaVuSans-98"/>
    <use x="855.175781" xlink:href="#DejaVuSans-105"/>
    <use x="882.958984" xlink:href="#DejaVuSans-116"/>
    <use x="922.167969" xlink:href="#DejaVuSans-111"/>
    <use x="983.349609" xlink:href="#DejaVuSans-114"/>
    <use x="1024.462891" xlink:href="#DejaVuSans-121"/>
    <use x="1083.642578" xlink:href="#DejaVuSans-32"/>
    <use x="1115.429688" xlink:href="#DejaVuSans-101"/>
    <use x="1176.953125" xlink:href="#DejaVuSans-102"/>
    <use x="1212.158203" xlink:href="#DejaVuSans-102"/>
    <use x="1247.363281" xlink:href="#DejaVuSans-101"/>
    <use x="1308.886719" xlink:href="#DejaVuSans-99"/>
    <use x="1363.867188" xlink:href="#DejaVuSans-116"/>
    <use x="1403.076172" xlink:href="#DejaVuSans-115"/>
   </g>
  </g>
 </g>
 <defs>
  <clipPath id="p8063207dea">
   <rect height="154.056875" width="232.758542" x="55.705625" y="53.865"/>
  </clipPath>
  <clipPath id="p3f47aa243d">
   <rect height="154.056875" width="232.758542" x="334.892292" y="53.865"/>
  </clipPath>
  <clipPath id="p6308192838">
   <rect height="154.056875" width="232.758542" x="614.078958" y="53.865"/>
  </clipPath>
 </defs>
</svg>
