<?xml version="1.0" encoding="utf-8" standalone="no"?>
<!DOCTYPE svg PUBLIC "-//W3C//DTD SVG 1.1//EN"
  "http://www.w3.org/Graphics/SVG/1.1/DTD/svg11.dtd">
<svg height="288pt" version="1.1" viewBox="0 0 720 288" width="720pt" xmlns="http://www.w3.org/2000/svg" xmlns:xlink="http://www.w3.org/1999/xlink">
 <metadata>
  <rdf:RDF xmlns:cc="http://creativecommons.org/ns#" xmlns:dc="http://purl.org/dc/elements/1.1/" xmlns:rdf="http://www.w3.org/1999/02/22-rdf-syntax-ns#">
   <cc:Work>
    <dc:type rdf:resource="http://purl.org/dc/dcmitype/StillImage"/>
    <dc:date>2021-08-19T02:09:38.437091</dc:date>
    <dc:format>image/svg+xml</dc:format>
    <dc:creator>
     <cc:Agent>
      <dc:title>Matplotlib v3.4.2, https://matplotlib.org/</dc:title>
     </cc:Agent>
    </dc:creator>
   </cc:Work>
  </rdf:RDF>
 </metadata>
 <defs>
  <style type="text/css">*{stroke-linecap:butt;stroke-linejoin:round;}</style>
 </defs>
 <g id="figure_1">
  <g id="patch_1">
   <path d="M 0 288 
L 720 288 
L 720 0 
L 0 0 
z
" style="fill:#ffffff;"/>
  </g>
  <g id="axes_1">
   <g id="patch_2">
    <path d="M 49.343125 243.921875 
L 352.87625 243.921875 
L 352.87625 53.917812 
L 49.343125 53.917812 
z
" style="fill:#ffffff;"/>
   </g>
   <g id="matplotlib.axis_1">
    <g id="xtick_1">
     <g id="line2d_1">
      <defs>
       <path d="M 0 0 
L 0 3.5 
" id="mc2dc607246" style="stroke:#000000;stroke-width:0.8;"/>
      </defs>
      <g>
       <use style="stroke:#000000;stroke-width:0.8;" x="69.578667" xlink:href="#mc2dc607246" y="243.921875"/>
      </g>
     </g>
     <g id="text_1">
      <!-- 3 -->
      <g transform="translate(66.397417 258.520313)scale(0.1 -0.1)">
       <defs>
        <path d="M 2597 2516 
Q 3050 2419 3304 2112 
Q 3559 1806 3559 1356 
Q 3559 666 3084 287 
Q 2609 -91 1734 -91 
Q 1441 -91 1130 -33 
Q 819 25 488 141 
L 488 750 
Q 750 597 1062 519 
Q 1375 441 1716 441 
Q 2309 441 2620 675 
Q 2931 909 2931 1356 
Q 2931 1769 2642 2001 
Q 2353 2234 1838 2234 
L 1294 2234 
L 1294 2753 
L 1863 2753 
Q 2328 2753 2575 2939 
Q 2822 3125 2822 3475 
Q 2822 3834 2567 4026 
Q 2313 4219 1838 4219 
Q 1578 4219 1281 4162 
Q 984 4106 628 3988 
L 628 4550 
Q 988 4650 1302 4700 
Q 1616 4750 1894 4750 
Q 2613 4750 3031 4423 
Q 3450 4097 3450 3541 
Q 3450 3153 3228 2886 
Q 3006 2619 2597 2516 
z
" id="DejaVuSans-33" transform="scale(0.015625)"/>
       </defs>
       <use xlink:href="#DejaVuSans-33"/>
      </g>
     </g>
    </g>
    <g id="xtick_2">
     <g id="line2d_2">
      <g>
       <use style="stroke:#000000;stroke-width:0.8;" x="110.04975" xlink:href="#mc2dc607246" y="243.921875"/>
      </g>
     </g>
     <g id="text_2">
      <!-- 4 -->
      <g transform="translate(106.8685 258.520313)scale(0.1 -0.1)">
       <defs>
        <path d="M 2419 4116 
L 825 1625 
L 2419 1625 
L 2419 4116 
z
M 2253 4666 
L 3047 4666 
L 3047 1625 
L 3713 1625 
L 3713 1100 
L 3047 1100 
L 3047 0 
L 2419 0 
L 2419 1100 
L 313 1100 
L 313 1709 
L 2253 4666 
z
" id="DejaVuSans-34" transform="scale(0.015625)"/>
       </defs>
       <use xlink:href="#DejaVuSans-34"/>
      </g>
     </g>
    </g>
    <g id="xtick_3">
     <g id="line2d_3">
      <g>
       <use style="stroke:#000000;stroke-width:0.8;" x="150.520833" xlink:href="#mc2dc607246" y="243.921875"/>
      </g>
     </g>
     <g id="text_3">
      <!-- 5 -->
      <g transform="translate(147.339583 258.520313)scale(0.1 -0.1)">
       <defs>
        <path d="M 691 4666 
L 3169 4666 
L 3169 4134 
L 1269 4134 
L 1269 2991 
Q 1406 3038 1543 3061 
Q 1681 3084 1819 3084 
Q 2600 3084 3056 2656 
Q 3513 2228 3513 1497 
Q 3513 744 3044 326 
Q 2575 -91 1722 -91 
Q 1428 -91 1123 -41 
Q 819 9 494 109 
L 494 744 
Q 775 591 1075 516 
Q 1375 441 1709 441 
Q 2250 441 2565 725 
Q 2881 1009 2881 1497 
Q 2881 1984 2565 2268 
Q 2250 2553 1709 2553 
Q 1456 2553 1204 2497 
Q 953 2441 691 2322 
L 691 4666 
z
" id="DejaVuSans-35" transform="scale(0.015625)"/>
       </defs>
       <use xlink:href="#DejaVuSans-35"/>
      </g>
     </g>
    </g>
    <g id="xtick_4">
     <g id="line2d_4">
      <g>
       <use style="stroke:#000000;stroke-width:0.8;" x="190.991917" xlink:href="#mc2dc607246" y="243.921875"/>
      </g>
     </g>
     <g id="text_4">
      <!-- 6 -->
      <g transform="translate(187.810667 258.520313)scale(0.1 -0.1)">
       <defs>
        <path d="M 2113 2584 
Q 1688 2584 1439 2293 
Q 1191 2003 1191 1497 
Q 1191 994 1439 701 
Q 1688 409 2113 409 
Q 2538 409 2786 701 
Q 3034 994 3034 1497 
Q 3034 2003 2786 2293 
Q 2538 2584 2113 2584 
z
M 3366 4563 
L 3366 3988 
Q 3128 4100 2886 4159 
Q 2644 4219 2406 4219 
Q 1781 4219 1451 3797 
Q 1122 3375 1075 2522 
Q 1259 2794 1537 2939 
Q 1816 3084 2150 3084 
Q 2853 3084 3261 2657 
Q 3669 2231 3669 1497 
Q 3669 778 3244 343 
Q 2819 -91 2113 -91 
Q 1303 -91 875 529 
Q 447 1150 447 2328 
Q 447 3434 972 4092 
Q 1497 4750 2381 4750 
Q 2619 4750 2861 4703 
Q 3103 4656 3366 4563 
z
" id="DejaVuSans-36" transform="scale(0.015625)"/>
       </defs>
       <use xlink:href="#DejaVuSans-36"/>
      </g>
     </g>
    </g>
    <g id="xtick_5">
     <g id="line2d_5">
      <g>
       <use style="stroke:#000000;stroke-width:0.8;" x="231.463" xlink:href="#mc2dc607246" y="243.921875"/>
      </g>
     </g>
     <g id="text_5">
      <!-- 7 -->
      <g transform="translate(228.28175 258.520313)scale(0.1 -0.1)">
       <defs>
        <path d="M 525 4666 
L 3525 4666 
L 3525 4397 
L 1831 0 
L 1172 0 
L 2766 4134 
L 525 4134 
L 525 4666 
z
" id="DejaVuSans-37" transform="scale(0.015625)"/>
       </defs>
       <use xlink:href="#DejaVuSans-37"/>
      </g>
     </g>
    </g>
    <g id="xtick_6">
     <g id="line2d_6">
      <g>
       <use style="stroke:#000000;stroke-width:0.8;" x="271.934083" xlink:href="#mc2dc607246" y="243.921875"/>
      </g>
     </g>
     <g id="text_6">
      <!-- 8 -->
      <g transform="translate(268.752833 258.520313)scale(0.1 -0.1)">
       <defs>
        <path d="M 2034 2216 
Q 1584 2216 1326 1975 
Q 1069 1734 1069 1313 
Q 1069 891 1326 650 
Q 1584 409 2034 409 
Q 2484 409 2743 651 
Q 3003 894 3003 1313 
Q 3003 1734 2745 1975 
Q 2488 2216 2034 2216 
z
M 1403 2484 
Q 997 2584 770 2862 
Q 544 3141 544 3541 
Q 544 4100 942 4425 
Q 1341 4750 2034 4750 
Q 2731 4750 3128 4425 
Q 3525 4100 3525 3541 
Q 3525 3141 3298 2862 
Q 3072 2584 2669 2484 
Q 3125 2378 3379 2068 
Q 3634 1759 3634 1313 
Q 3634 634 3220 271 
Q 2806 -91 2034 -91 
Q 1263 -91 848 271 
Q 434 634 434 1313 
Q 434 1759 690 2068 
Q 947 2378 1403 2484 
z
M 1172 3481 
Q 1172 3119 1398 2916 
Q 1625 2713 2034 2713 
Q 2441 2713 2670 2916 
Q 2900 3119 2900 3481 
Q 2900 3844 2670 4047 
Q 2441 4250 2034 4250 
Q 1625 4250 1398 4047 
Q 1172 3844 1172 3481 
z
" id="DejaVuSans-38" transform="scale(0.015625)"/>
       </defs>
       <use xlink:href="#DejaVuSans-38"/>
      </g>
     </g>
    </g>
    <g id="xtick_7">
     <g id="line2d_7">
      <g>
       <use style="stroke:#000000;stroke-width:0.8;" x="312.405167" xlink:href="#mc2dc607246" y="243.921875"/>
      </g>
     </g>
     <g id="text_7">
      <!-- 9 -->
      <g transform="translate(309.223917 258.520313)scale(0.1 -0.1)">
       <defs>
        <path d="M 703 97 
L 703 672 
Q 941 559 1184 500 
Q 1428 441 1663 441 
Q 2288 441 2617 861 
Q 2947 1281 2994 2138 
Q 2813 1869 2534 1725 
Q 2256 1581 1919 1581 
Q 1219 1581 811 2004 
Q 403 2428 403 3163 
Q 403 3881 828 4315 
Q 1253 4750 1959 4750 
Q 2769 4750 3195 4129 
Q 3622 3509 3622 2328 
Q 3622 1225 3098 567 
Q 2575 -91 1691 -91 
Q 1453 -91 1209 -44 
Q 966 3 703 97 
z
M 1959 2075 
Q 2384 2075 2632 2365 
Q 2881 2656 2881 3163 
Q 2881 3666 2632 3958 
Q 2384 4250 1959 4250 
Q 1534 4250 1286 3958 
Q 1038 3666 1038 3163 
Q 1038 2656 1286 2365 
Q 1534 2075 1959 2075 
z
" id="DejaVuSans-39" transform="scale(0.015625)"/>
       </defs>
       <use xlink:href="#DejaVuSans-39"/>
      </g>
     </g>
    </g>
    <g id="xtick_8">
     <g id="line2d_8">
      <g>
       <use style="stroke:#000000;stroke-width:0.8;" x="352.87625" xlink:href="#mc2dc607246" y="243.921875"/>
      </g>
     </g>
     <g id="text_8">
      <!-- 10 -->
      <g transform="translate(346.51375 258.520313)scale(0.1 -0.1)">
       <defs>
        <path d="M 794 531 
L 1825 531 
L 1825 4091 
L 703 3866 
L 703 4441 
L 1819 4666 
L 2450 4666 
L 2450 531 
L 3481 531 
L 3481 0 
L 794 0 
L 794 531 
z
" id="DejaVuSans-31" transform="scale(0.015625)"/>
        <path d="M 2034 4250 
Q 1547 4250 1301 3770 
Q 1056 3291 1056 2328 
Q 1056 1369 1301 889 
Q 1547 409 2034 409 
Q 2525 409 2770 889 
Q 3016 1369 3016 2328 
Q 3016 3291 2770 3770 
Q 2525 4250 2034 4250 
z
M 2034 4750 
Q 2819 4750 3233 4129 
Q 3647 3509 3647 2328 
Q 3647 1150 3233 529 
Q 2819 -91 2034 -91 
Q 1250 -91 836 529 
Q 422 1150 422 2328 
Q 422 3509 836 4129 
Q 1250 4750 2034 4750 
z
" id="DejaVuSans-30" transform="scale(0.015625)"/>
       </defs>
       <use xlink:href="#DejaVuSans-31"/>
       <use x="63.623047" xlink:href="#DejaVuSans-30"/>
      </g>
     </g>
    </g>
    <g id="text_9">
     <!-- Time ($10^{-2}$ seconds) -->
     <g transform="translate(139.129688 274.704375)scale(0.12 -0.12)">
      <defs>
       <path d="M -19 4666 
L 3928 4666 
L 3928 4134 
L 2272 4134 
L 2272 0 
L 1638 0 
L 1638 4134 
L -19 4134 
L -19 4666 
z
" id="DejaVuSans-54" transform="scale(0.015625)"/>
       <path d="M 603 3500 
L 1178 3500 
L 1178 0 
L 603 0 
L 603 3500 
z
M 603 4863 
L 1178 4863 
L 1178 4134 
L 603 4134 
L 603 4863 
z
" id="DejaVuSans-69" transform="scale(0.015625)"/>
       <path d="M 3328 2828 
Q 3544 3216 3844 3400 
Q 4144 3584 4550 3584 
Q 5097 3584 5394 3201 
Q 5691 2819 5691 2113 
L 5691 0 
L 5113 0 
L 5113 2094 
Q 5113 2597 4934 2840 
Q 4756 3084 4391 3084 
Q 3944 3084 3684 2787 
Q 3425 2491 3425 1978 
L 3425 0 
L 2847 0 
L 2847 2094 
Q 2847 2600 2669 2842 
Q 2491 3084 2119 3084 
Q 1678 3084 1418 2786 
Q 1159 2488 1159 1978 
L 1159 0 
L 581 0 
L 581 3500 
L 1159 3500 
L 1159 2956 
Q 1356 3278 1631 3431 
Q 1906 3584 2284 3584 
Q 2666 3584 2933 3390 
Q 3200 3197 3328 2828 
z
" id="DejaVuSans-6d" transform="scale(0.015625)"/>
       <path d="M 3597 1894 
L 3597 1613 
L 953 1613 
Q 991 1019 1311 708 
Q 1631 397 2203 397 
Q 2534 397 2845 478 
Q 3156 559 3463 722 
L 3463 178 
Q 3153 47 2828 -22 
Q 2503 -91 2169 -91 
Q 1331 -91 842 396 
Q 353 884 353 1716 
Q 353 2575 817 3079 
Q 1281 3584 2069 3584 
Q 2775 3584 3186 3129 
Q 3597 2675 3597 1894 
z
M 3022 2063 
Q 3016 2534 2758 2815 
Q 2500 3097 2075 3097 
Q 1594 3097 1305 2825 
Q 1016 2553 972 2059 
L 3022 2063 
z
" id="DejaVuSans-65" transform="scale(0.015625)"/>
       <path id="DejaVuSans-20" transform="scale(0.015625)"/>
       <path d="M 1984 4856 
Q 1566 4138 1362 3434 
Q 1159 2731 1159 2009 
Q 1159 1288 1364 580 
Q 1569 -128 1984 -844 
L 1484 -844 
Q 1016 -109 783 600 
Q 550 1309 550 2009 
Q 550 2706 781 3412 
Q 1013 4119 1484 4856 
L 1984 4856 
z
" id="DejaVuSans-28" transform="scale(0.015625)"/>
       <path d="M 678 2272 
L 4684 2272 
L 4684 1741 
L 678 1741 
L 678 2272 
z
" id="DejaVuSans-2212" transform="scale(0.015625)"/>
       <path d="M 1228 531 
L 3431 531 
L 3431 0 
L 469 0 
L 469 531 
Q 828 903 1448 1529 
Q 2069 2156 2228 2338 
Q 2531 2678 2651 2914 
Q 2772 3150 2772 3378 
Q 2772 3750 2511 3984 
Q 2250 4219 1831 4219 
Q 1534 4219 1204 4116 
Q 875 4013 500 3803 
L 500 4441 
Q 881 4594 1212 4672 
Q 1544 4750 1819 4750 
Q 2544 4750 2975 4387 
Q 3406 4025 3406 3419 
Q 3406 3131 3298 2873 
Q 3191 2616 2906 2266 
Q 2828 2175 2409 1742 
Q 1991 1309 1228 531 
z
" id="DejaVuSans-32" transform="scale(0.015625)"/>
       <path d="M 2834 3397 
L 2834 2853 
Q 2591 2978 2328 3040 
Q 2066 3103 1784 3103 
Q 1356 3103 1142 2972 
Q 928 2841 928 2578 
Q 928 2378 1081 2264 
Q 1234 2150 1697 2047 
L 1894 2003 
Q 2506 1872 2764 1633 
Q 3022 1394 3022 966 
Q 3022 478 2636 193 
Q 2250 -91 1575 -91 
Q 1294 -91 989 -36 
Q 684 19 347 128 
L 347 722 
Q 666 556 975 473 
Q 1284 391 1588 391 
Q 1994 391 2212 530 
Q 2431 669 2431 922 
Q 2431 1156 2273 1281 
Q 2116 1406 1581 1522 
L 1381 1569 
Q 847 1681 609 1914 
Q 372 2147 372 2553 
Q 372 3047 722 3315 
Q 1072 3584 1716 3584 
Q 2034 3584 2315 3537 
Q 2597 3491 2834 3397 
z
" id="DejaVuSans-73" transform="scale(0.015625)"/>
       <path d="M 3122 3366 
L 3122 2828 
Q 2878 2963 2633 3030 
Q 2388 3097 2138 3097 
Q 1578 3097 1268 2742 
Q 959 2388 959 1747 
Q 959 1106 1268 751 
Q 1578 397 2138 397 
Q 2388 397 2633 464 
Q 2878 531 3122 666 
L 3122 134 
Q 2881 22 2623 -34 
Q 2366 -91 2075 -91 
Q 1284 -91 818 406 
Q 353 903 353 1747 
Q 353 2603 823 3093 
Q 1294 3584 2113 3584 
Q 2378 3584 2631 3529 
Q 2884 3475 3122 3366 
z
" id="DejaVuSans-63" transform="scale(0.015625)"/>
       <path d="M 1959 3097 
Q 1497 3097 1228 2736 
Q 959 2375 959 1747 
Q 959 1119 1226 758 
Q 1494 397 1959 397 
Q 2419 397 2687 759 
Q 2956 1122 2956 1747 
Q 2956 2369 2687 2733 
Q 2419 3097 1959 3097 
z
M 1959 3584 
Q 2709 3584 3137 3096 
Q 3566 2609 3566 1747 
Q 3566 888 3137 398 
Q 2709 -91 1959 -91 
Q 1206 -91 779 398 
Q 353 888 353 1747 
Q 353 2609 779 3096 
Q 1206 3584 1959 3584 
z
" id="DejaVuSans-6f" transform="scale(0.015625)"/>
       <path d="M 3513 2113 
L 3513 0 
L 2938 0 
L 2938 2094 
Q 2938 2591 2744 2837 
Q 2550 3084 2163 3084 
Q 1697 3084 1428 2787 
Q 1159 2491 1159 1978 
L 1159 0 
L 581 0 
L 581 3500 
L 1159 3500 
L 1159 2956 
Q 1366 3272 1645 3428 
Q 1925 3584 2291 3584 
Q 2894 3584 3203 3211 
Q 3513 2838 3513 2113 
z
" id="DejaVuSans-6e" transform="scale(0.015625)"/>
       <path d="M 2906 2969 
L 2906 4863 
L 3481 4863 
L 3481 0 
L 2906 0 
L 2906 525 
Q 2725 213 2448 61 
Q 2172 -91 1784 -91 
Q 1150 -91 751 415 
Q 353 922 353 1747 
Q 353 2572 751 3078 
Q 1150 3584 1784 3584 
Q 2172 3584 2448 3432 
Q 2725 3281 2906 2969 
z
M 947 1747 
Q 947 1113 1208 752 
Q 1469 391 1925 391 
Q 2381 391 2643 752 
Q 2906 1113 2906 1747 
Q 2906 2381 2643 2742 
Q 2381 3103 1925 3103 
Q 1469 3103 1208 2742 
Q 947 2381 947 1747 
z
" id="DejaVuSans-64" transform="scale(0.015625)"/>
       <path d="M 513 4856 
L 1013 4856 
Q 1481 4119 1714 3412 
Q 1947 2706 1947 2009 
Q 1947 1309 1714 600 
Q 1481 -109 1013 -844 
L 513 -844 
Q 928 -128 1133 580 
Q 1338 1288 1338 2009 
Q 1338 2731 1133 3434 
Q 928 4138 513 4856 
z
" id="DejaVuSans-29" transform="scale(0.015625)"/>
      </defs>
      <use transform="translate(0 0.765625)" xlink:href="#DejaVuSans-54"/>
      <use transform="translate(61.083984 0.765625)" xlink:href="#DejaVuSans-69"/>
      <use transform="translate(88.867188 0.765625)" xlink:href="#DejaVuSans-6d"/>
      <use transform="translate(186.279297 0.765625)" xlink:href="#DejaVuSans-65"/>
      <use transform="translate(247.802734 0.765625)" xlink:href="#DejaVuSans-20"/>
      <use transform="translate(279.589844 0.765625)" xlink:href="#DejaVuSans-28"/>
      <use transform="translate(318.603516 0.765625)" xlink:href="#DejaVuSans-31"/>
      <use transform="translate(382.226562 0.765625)" xlink:href="#DejaVuSans-30"/>
      <use transform="translate(446.806641 39.046875)scale(0.7)" xlink:href="#DejaVuSans-2212"/>
      <use transform="translate(505.458984 39.046875)scale(0.7)" xlink:href="#DejaVuSans-32"/>
      <use transform="translate(552.729492 0.765625)" xlink:href="#DejaVuSans-20"/>
      <use transform="translate(584.516602 0.765625)" xlink:href="#DejaVuSans-73"/>
      <use transform="translate(636.616211 0.765625)" xlink:href="#DejaVuSans-65"/>
      <use transform="translate(698.139648 0.765625)" xlink:href="#DejaVuSans-63"/>
      <use transform="translate(753.120117 0.765625)" xlink:href="#DejaVuSans-6f"/>
      <use transform="translate(814.301758 0.765625)" xlink:href="#DejaVuSans-6e"/>
      <use transform="translate(877.680664 0.765625)" xlink:href="#DejaVuSans-64"/>
      <use transform="translate(941.157227 0.765625)" xlink:href="#DejaVuSans-73"/>
      <use transform="translate(993.256836 0.765625)" xlink:href="#DejaVuSans-29"/>
     </g>
    </g>
   </g>
   <g id="matplotlib.axis_2">
    <g id="ytick_1">
     <g id="line2d_9">
      <defs>
       <path d="M 0 0 
L -3.5 0 
" id="ma3ea9429f3" style="stroke:#000000;stroke-width:0.8;"/>
      </defs>
      <g>
       <use style="stroke:#000000;stroke-width:0.8;" x="49.343125" xlink:href="#ma3ea9429f3" y="232.745165"/>
      </g>
     </g>
     <g id="text_10">
      <!-- 0.0 -->
      <g transform="translate(26.44 236.544384)scale(0.1 -0.1)">
       <defs>
        <path d="M 684 794 
L 1344 794 
L 1344 0 
L 684 0 
L 684 794 
z
" id="DejaVuSans-2e" transform="scale(0.015625)"/>
       </defs>
       <use xlink:href="#DejaVuSans-30"/>
       <use x="63.623047" xlink:href="#DejaVuSans-2e"/>
       <use x="95.410156" xlink:href="#DejaVuSans-30"/>
      </g>
     </g>
    </g>
    <g id="ytick_2">
     <g id="line2d_10">
      <g>
       <use style="stroke:#000000;stroke-width:0.8;" x="49.343125" xlink:href="#ma3ea9429f3" y="210.391746"/>
      </g>
     </g>
     <g id="text_11">
      <!-- 0.2 -->
      <g transform="translate(26.44 214.190965)scale(0.1 -0.1)">
       <use xlink:href="#DejaVuSans-30"/>
       <use x="63.623047" xlink:href="#DejaVuSans-2e"/>
       <use x="95.410156" xlink:href="#DejaVuSans-32"/>
      </g>
     </g>
    </g>
    <g id="ytick_3">
     <g id="line2d_11">
      <g>
       <use style="stroke:#000000;stroke-width:0.8;" x="49.343125" xlink:href="#ma3ea9429f3" y="188.038327"/>
      </g>
     </g>
     <g id="text_12">
      <!-- 0.4 -->
      <g transform="translate(26.44 191.837546)scale(0.1 -0.1)">
       <use xlink:href="#DejaVuSans-30"/>
       <use x="63.623047" xlink:href="#DejaVuSans-2e"/>
       <use x="95.410156" xlink:href="#DejaVuSans-34"/>
      </g>
     </g>
    </g>
    <g id="ytick_4">
     <g id="line2d_12">
      <g>
       <use style="stroke:#000000;stroke-width:0.8;" x="49.343125" xlink:href="#ma3ea9429f3" y="165.684908"/>
      </g>
     </g>
     <g id="text_13">
      <!-- 0.6 -->
      <g transform="translate(26.44 169.484127)scale(0.1 -0.1)">
       <use xlink:href="#DejaVuSans-30"/>
       <use x="63.623047" xlink:href="#DejaVuSans-2e"/>
       <use x="95.410156" xlink:href="#DejaVuSans-36"/>
      </g>
     </g>
    </g>
    <g id="ytick_5">
     <g id="line2d_13">
      <g>
       <use style="stroke:#000000;stroke-width:0.8;" x="49.343125" xlink:href="#ma3ea9429f3" y="143.331489"/>
      </g>
     </g>
     <g id="text_14">
      <!-- 0.8 -->
      <g transform="translate(26.44 147.130708)scale(0.1 -0.1)">
       <use xlink:href="#DejaVuSans-30"/>
       <use x="63.623047" xlink:href="#DejaVuSans-2e"/>
       <use x="95.410156" xlink:href="#DejaVuSans-38"/>
      </g>
     </g>
    </g>
    <g id="ytick_6">
     <g id="line2d_14">
      <g>
       <use style="stroke:#000000;stroke-width:0.8;" x="49.343125" xlink:href="#ma3ea9429f3" y="120.97807"/>
      </g>
     </g>
     <g id="text_15">
      <!-- 1.0 -->
      <g transform="translate(26.44 124.777289)scale(0.1 -0.1)">
       <use xlink:href="#DejaVuSans-31"/>
       <use x="63.623047" xlink:href="#DejaVuSans-2e"/>
       <use x="95.410156" xlink:href="#DejaVuSans-30"/>
      </g>
     </g>
    </g>
    <g id="ytick_7">
     <g id="line2d_15">
      <g>
       <use style="stroke:#000000;stroke-width:0.8;" x="49.343125" xlink:href="#ma3ea9429f3" y="98.624651"/>
      </g>
     </g>
     <g id="text_16">
      <!-- 1.2 -->
      <g transform="translate(26.44 102.423869)scale(0.1 -0.1)">
       <use xlink:href="#DejaVuSans-31"/>
       <use x="63.623047" xlink:href="#DejaVuSans-2e"/>
       <use x="95.410156" xlink:href="#DejaVuSans-32"/>
      </g>
     </g>
    </g>
    <g id="ytick_8">
     <g id="line2d_16">
      <g>
       <use style="stroke:#000000;stroke-width:0.8;" x="49.343125" xlink:href="#ma3ea9429f3" y="76.271232"/>
      </g>
     </g>
     <g id="text_17">
      <!-- 1.4 -->
      <g transform="translate(26.44 80.07045)scale(0.1 -0.1)">
       <use xlink:href="#DejaVuSans-31"/>
       <use x="63.623047" xlink:href="#DejaVuSans-2e"/>
       <use x="95.410156" xlink:href="#DejaVuSans-34"/>
      </g>
     </g>
    </g>
    <g id="ytick_9">
     <g id="line2d_17">
      <g>
       <use style="stroke:#000000;stroke-width:0.8;" x="49.343125" xlink:href="#ma3ea9429f3" y="53.917812"/>
      </g>
     </g>
     <g id="text_18">
      <!-- 1.6 -->
      <g transform="translate(26.44 57.717031)scale(0.1 -0.1)">
       <use xlink:href="#DejaVuSans-31"/>
       <use x="63.623047" xlink:href="#DejaVuSans-2e"/>
       <use x="95.410156" xlink:href="#DejaVuSans-36"/>
      </g>
     </g>
    </g>
    <g id="text_19">
     <!-- Voltage $V_{k}, k \in \{1,2\}$ -->
     <g transform="translate(19.92 212.999844)rotate(-90)scale(0.12 -0.12)">
      <defs>
       <path d="M 1831 0 
L 50 4666 
L 709 4666 
L 2188 738 
L 3669 4666 
L 4325 4666 
L 2547 0 
L 1831 0 
z
" id="DejaVuSans-56" transform="scale(0.015625)"/>
       <path d="M 603 4863 
L 1178 4863 
L 1178 0 
L 603 0 
L 603 4863 
z
" id="DejaVuSans-6c" transform="scale(0.015625)"/>
       <path d="M 1172 4494 
L 1172 3500 
L 2356 3500 
L 2356 3053 
L 1172 3053 
L 1172 1153 
Q 1172 725 1289 603 
Q 1406 481 1766 481 
L 2356 481 
L 2356 0 
L 1766 0 
Q 1100 0 847 248 
Q 594 497 594 1153 
L 594 3053 
L 172 3053 
L 172 3500 
L 594 3500 
L 594 4494 
L 1172 4494 
z
" id="DejaVuSans-74" transform="scale(0.015625)"/>
       <path d="M 2194 1759 
Q 1497 1759 1228 1600 
Q 959 1441 959 1056 
Q 959 750 1161 570 
Q 1363 391 1709 391 
Q 2188 391 2477 730 
Q 2766 1069 2766 1631 
L 2766 1759 
L 2194 1759 
z
M 3341 1997 
L 3341 0 
L 2766 0 
L 2766 531 
Q 2569 213 2275 61 
Q 1981 -91 1556 -91 
Q 1019 -91 701 211 
Q 384 513 384 1019 
Q 384 1609 779 1909 
Q 1175 2209 1959 2209 
L 2766 2209 
L 2766 2266 
Q 2766 2663 2505 2880 
Q 2244 3097 1772 3097 
Q 1472 3097 1187 3025 
Q 903 2953 641 2809 
L 641 3341 
Q 956 3463 1253 3523 
Q 1550 3584 1831 3584 
Q 2591 3584 2966 3190 
Q 3341 2797 3341 1997 
z
" id="DejaVuSans-61" transform="scale(0.015625)"/>
       <path d="M 2906 1791 
Q 2906 2416 2648 2759 
Q 2391 3103 1925 3103 
Q 1463 3103 1205 2759 
Q 947 2416 947 1791 
Q 947 1169 1205 825 
Q 1463 481 1925 481 
Q 2391 481 2648 825 
Q 2906 1169 2906 1791 
z
M 3481 434 
Q 3481 -459 3084 -895 
Q 2688 -1331 1869 -1331 
Q 1566 -1331 1297 -1286 
Q 1028 -1241 775 -1147 
L 775 -588 
Q 1028 -725 1275 -790 
Q 1522 -856 1778 -856 
Q 2344 -856 2625 -561 
Q 2906 -266 2906 331 
L 2906 616 
Q 2728 306 2450 153 
Q 2172 0 1784 0 
Q 1141 0 747 490 
Q 353 981 353 1791 
Q 353 2603 747 3093 
Q 1141 3584 1784 3584 
Q 2172 3584 2450 3431 
Q 2728 3278 2906 2969 
L 2906 3500 
L 3481 3500 
L 3481 434 
z
" id="DejaVuSans-67" transform="scale(0.015625)"/>
       <path d="M 1319 0 
L 500 4666 
L 1119 4666 
L 1797 653 
L 4063 4666 
L 4750 4666 
L 2053 0 
L 1319 0 
z
" id="DejaVuSans-Oblique-56" transform="scale(0.015625)"/>
       <path d="M 1172 4863 
L 1747 4863 
L 1197 2028 
L 3169 3500 
L 3916 3500 
L 1716 1825 
L 3322 0 
L 2625 0 
L 1131 1709 
L 800 0 
L 225 0 
L 1172 4863 
z
" id="DejaVuSans-Oblique-6b" transform="scale(0.015625)"/>
       <path d="M 750 794 
L 1409 794 
L 1409 256 
L 897 -744 
L 494 -744 
L 750 256 
L 750 794 
z
" id="DejaVuSans-2c" transform="scale(0.015625)"/>
       <path d="M 1072 1959 
Q 1094 1728 1291 1353 
Q 1522 919 1959 675 
Q 2388 438 2850 434 
L 5028 434 
L 5028 -63 
L 2850 -63 
Q 2250 -63 1695 246 
Q 1141 556 844 1106 
Q 547 1656 547 2241 
Q 547 2819 844 3369 
Q 1141 3919 1695 4231 
Q 2250 4544 2850 4544 
L 5028 4544 
L 5028 4047 
L 2850 4047 
Q 2388 4044 1959 3803 
Q 1525 3556 1291 3125 
Q 1091 2750 1063 2459 
L 5028 2459 
L 5028 1959 
L 1072 1959 
z
" id="DejaVuSans-2208" transform="scale(0.015625)"/>
       <path d="M 3272 -594 
L 3272 -1044 
L 3078 -1044 
Q 2300 -1044 2036 -812 
Q 1772 -581 1772 109 
L 1772 856 
Q 1772 1328 1603 1509 
Q 1434 1691 991 1691 
L 800 1691 
L 800 2138 
L 991 2138 
Q 1438 2138 1605 2317 
Q 1772 2497 1772 2963 
L 1772 3713 
Q 1772 4403 2036 4633 
Q 2300 4863 3078 4863 
L 3272 4863 
L 3272 4416 
L 3059 4416 
Q 2619 4416 2484 4278 
Q 2350 4141 2350 3700 
L 2350 2925 
Q 2350 2434 2208 2212 
Q 2066 1991 1722 1913 
Q 2069 1828 2209 1606 
Q 2350 1384 2350 897 
L 2350 122 
Q 2350 -319 2484 -456 
Q 2619 -594 3059 -594 
L 3272 -594 
z
" id="DejaVuSans-7b" transform="scale(0.015625)"/>
       <path d="M 800 -594 
L 1019 -594 
Q 1456 -594 1589 -459 
Q 1722 -325 1722 122 
L 1722 897 
Q 1722 1384 1862 1606 
Q 2003 1828 2350 1913 
Q 2003 1991 1862 2212 
Q 1722 2434 1722 2925 
L 1722 3700 
Q 1722 4144 1589 4280 
Q 1456 4416 1019 4416 
L 800 4416 
L 800 4863 
L 997 4863 
Q 1775 4863 2036 4633 
Q 2297 4403 2297 3713 
L 2297 2963 
Q 2297 2497 2465 2317 
Q 2634 2138 3078 2138 
L 3272 2138 
L 3272 1691 
L 3078 1691 
Q 2634 1691 2465 1509 
Q 2297 1328 2297 856 
L 2297 109 
Q 2297 -581 2036 -812 
Q 1775 -1044 997 -1044 
L 800 -1044 
L 800 -594 
z
" id="DejaVuSans-7d" transform="scale(0.015625)"/>
      </defs>
      <use transform="translate(0 0.015625)" xlink:href="#DejaVuSans-56"/>
      <use transform="translate(68.408203 0.015625)" xlink:href="#DejaVuSans-6f"/>
      <use transform="translate(129.589844 0.015625)" xlink:href="#DejaVuSans-6c"/>
      <use transform="translate(157.373047 0.015625)" xlink:href="#DejaVuSans-74"/>
      <use transform="translate(196.582031 0.015625)" xlink:href="#DejaVuSans-61"/>
      <use transform="translate(257.861328 0.015625)" xlink:href="#DejaVuSans-67"/>
      <use transform="translate(321.337891 0.015625)" xlink:href="#DejaVuSans-65"/>
      <use transform="translate(382.861328 0.015625)" xlink:href="#DejaVuSans-20"/>
      <use transform="translate(414.648438 0.015625)" xlink:href="#DejaVuSans-Oblique-56"/>
      <use transform="translate(483.056641 -16.390625)scale(0.7)" xlink:href="#DejaVuSans-Oblique-6b"/>
      <use transform="translate(526.328125 0.015625)" xlink:href="#DejaVuSans-2c"/>
      <use transform="translate(577.597656 0.015625)" xlink:href="#DejaVuSans-Oblique-6b"/>
      <use transform="translate(654.990234 0.015625)" xlink:href="#DejaVuSans-2208"/>
      <use transform="translate(761.582031 0.015625)" xlink:href="#DejaVuSans-7b"/>
      <use transform="translate(825.205078 0.015625)" xlink:href="#DejaVuSans-31"/>
      <use transform="translate(888.828125 0.015625)" xlink:href="#DejaVuSans-2c"/>
      <use transform="translate(940.097656 0.015625)" xlink:href="#DejaVuSans-32"/>
      <use transform="translate(1003.720703 0.015625)" xlink:href="#DejaVuSans-7d"/>
     </g>
    </g>
   </g>
   <g id="line2d_18">
    <path clip-path="url(#p78d21e8a4e)" d="M 49.339078 133.433283 
L 71.978602 132.919155 
L 78.838451 132.808058 
L 86.839584 132.698191 
L 96.746905 132.587095 
L 102.829709 132.530205 
L 117.909234 132.419109 
L 123.008591 132.389379 
L 150.334666 132.278282 
L 150.557257 132.16495 
L 153.527835 123.495959 
L 154.434387 120.986676 
L 154.438434 65.094522 
L 154.438434 232.74219 
L 154.535565 232.476483 
L 157.510189 224.672977 
L 160.529332 217.37786 
L 163.503957 210.757336 
L 166.709267 204.202308 
L 169.691986 198.598194 
L 172.411642 193.872011 
L 175.928579 188.259179 
L 179.129842 183.598491 
L 181.958771 179.805675 
L 184.981961 176.063265 
L 188.292495 172.304091 
L 191.963223 168.513845 
L 194.99046 165.660766 
L 198.248382 162.841888 
L 201.838167 160.011722 
L 205.848851 157.159538 
L 210.377566 154.291147 
L 213.740713 152.377582 
L 219.519983 149.47052 
L 223.643987 147.657099 
L 228.504564 145.763876 
L 231.689638 144.651458 
L 234.785676 143.657961 
L 240.730878 141.967819 
L 249.059827 140.012118 
L 253.770661 139.085122 
L 259.084514 138.170979 
L 265.268496 137.258847 
L 285.362389 135.15092 
L 294.363158 134.516642 
L 312.911055 133.603393 
L 349.039591 132.716744 
L 352.880297 132.663096 
L 352.880297 132.663096 
" style="fill:none;stroke:#aa3863;stroke-linecap:square;stroke-width:1.5;"/>
   </g>
   <g id="patch_3">
    <path d="M 49.343125 243.921875 
L 49.343125 53.917812 
" style="fill:none;stroke:#000000;stroke-linecap:square;stroke-linejoin:miter;stroke-width:0.8;"/>
   </g>
   <g id="patch_4">
    <path d="M 352.87625 243.921875 
L 352.87625 53.917812 
" style="fill:none;stroke:#000000;stroke-linecap:square;stroke-linejoin:miter;stroke-width:0.8;"/>
   </g>
   <g id="patch_5">
    <path d="M 49.343125 243.921875 
L 352.87625 243.921875 
" style="fill:none;stroke:#000000;stroke-linecap:square;stroke-linejoin:miter;stroke-width:0.8;"/>
   </g>
   <g id="patch_6">
    <path d="M 49.343125 53.917812 
L 352.87625 53.917812 
" style="fill:none;stroke:#000000;stroke-linecap:square;stroke-linejoin:miter;stroke-width:0.8;"/>
   </g>
   <g id="text_20">
    <!-- Presynaptic spike -->
    <g transform="translate(140.12 47.917812)scale(0.14 -0.14)">
     <defs>
      <path d="M 1259 4147 
L 1259 2394 
L 2053 2394 
Q 2494 2394 2734 2622 
Q 2975 2850 2975 3272 
Q 2975 3691 2734 3919 
Q 2494 4147 2053 4147 
L 1259 4147 
z
M 628 4666 
L 2053 4666 
Q 2838 4666 3239 4311 
Q 3641 3956 3641 3272 
Q 3641 2581 3239 2228 
Q 2838 1875 2053 1875 
L 1259 1875 
L 1259 0 
L 628 0 
L 628 4666 
z
" id="DejaVuSans-50" transform="scale(0.015625)"/>
      <path d="M 2631 2963 
Q 2534 3019 2420 3045 
Q 2306 3072 2169 3072 
Q 1681 3072 1420 2755 
Q 1159 2438 1159 1844 
L 1159 0 
L 581 0 
L 581 3500 
L 1159 3500 
L 1159 2956 
Q 1341 3275 1631 3429 
Q 1922 3584 2338 3584 
Q 2397 3584 2469 3576 
Q 2541 3569 2628 3553 
L 2631 2963 
z
" id="DejaVuSans-72" transform="scale(0.015625)"/>
      <path d="M 2059 -325 
Q 1816 -950 1584 -1140 
Q 1353 -1331 966 -1331 
L 506 -1331 
L 506 -850 
L 844 -850 
Q 1081 -850 1212 -737 
Q 1344 -625 1503 -206 
L 1606 56 
L 191 3500 
L 800 3500 
L 1894 763 
L 2988 3500 
L 3597 3500 
L 2059 -325 
z
" id="DejaVuSans-79" transform="scale(0.015625)"/>
      <path d="M 1159 525 
L 1159 -1331 
L 581 -1331 
L 581 3500 
L 1159 3500 
L 1159 2969 
Q 1341 3281 1617 3432 
Q 1894 3584 2278 3584 
Q 2916 3584 3314 3078 
Q 3713 2572 3713 1747 
Q 3713 922 3314 415 
Q 2916 -91 2278 -91 
Q 1894 -91 1617 61 
Q 1341 213 1159 525 
z
M 3116 1747 
Q 3116 2381 2855 2742 
Q 2594 3103 2138 3103 
Q 1681 3103 1420 2742 
Q 1159 2381 1159 1747 
Q 1159 1113 1420 752 
Q 1681 391 2138 391 
Q 2594 391 2855 752 
Q 3116 1113 3116 1747 
z
" id="DejaVuSans-70" transform="scale(0.015625)"/>
      <path d="M 581 4863 
L 1159 4863 
L 1159 1991 
L 2875 3500 
L 3609 3500 
L 1753 1863 
L 3688 0 
L 2938 0 
L 1159 1709 
L 1159 0 
L 581 0 
L 581 4863 
z
" id="DejaVuSans-6b" transform="scale(0.015625)"/>
     </defs>
     <use xlink:href="#DejaVuSans-50"/>
     <use x="58.552734" xlink:href="#DejaVuSans-72"/>
     <use x="97.416016" xlink:href="#DejaVuSans-65"/>
     <use x="158.939453" xlink:href="#DejaVuSans-73"/>
     <use x="211.039062" xlink:href="#DejaVuSans-79"/>
     <use x="270.21875" xlink:href="#DejaVuSans-6e"/>
     <use x="333.597656" xlink:href="#DejaVuSans-61"/>
     <use x="394.876953" xlink:href="#DejaVuSans-70"/>
     <use x="458.353516" xlink:href="#DejaVuSans-74"/>
     <use x="497.5625" xlink:href="#DejaVuSans-69"/>
     <use x="525.345703" xlink:href="#DejaVuSans-63"/>
     <use x="580.326172" xlink:href="#DejaVuSans-20"/>
     <use x="612.113281" xlink:href="#DejaVuSans-73"/>
     <use x="664.212891" xlink:href="#DejaVuSans-70"/>
     <use x="727.689453" xlink:href="#DejaVuSans-69"/>
     <use x="755.472656" xlink:href="#DejaVuSans-6b"/>
     <use x="809.757812" xlink:href="#DejaVuSans-65"/>
    </g>
   </g>
   <g id="legend_1">
    <g id="patch_7">
     <path d="M 292.15625 81.131562 
L 344.47625 81.131562 
Q 346.87625 81.131562 346.87625 78.731562 
L 346.87625 62.317812 
Q 346.87625 59.917812 344.47625 59.917812 
L 292.15625 59.917812 
Q 289.75625 59.917812 289.75625 62.317812 
L 289.75625 78.731562 
Q 289.75625 81.131562 292.15625 81.131562 
z
" style="fill:#ffffff;opacity:0.8;stroke:#cccccc;stroke-linejoin:miter;"/>
    </g>
    <g id="line2d_19">
     <path d="M 294.55625 69.635937 
L 318.55625 69.635937 
" style="fill:none;stroke:#aa3863;stroke-linecap:square;stroke-width:1.5;"/>
    </g>
    <g id="line2d_20"/>
    <g id="text_21">
     <!-- $V_1$ -->
     <g transform="translate(328.15625 73.835937)scale(0.12 -0.12)">
      <use transform="translate(0 0.09375)" xlink:href="#DejaVuSans-Oblique-56"/>
      <use transform="translate(68.408203 -16.3125)scale(0.7)" xlink:href="#DejaVuSans-31"/>
     </g>
    </g>
   </g>
  </g>
  <g id="axes_2">
   <g id="patch_8">
    <path d="M 399.304375 243.921875 
L 702.8375 243.921875 
L 702.8375 53.917812 
L 399.304375 53.917812 
z
" style="fill:#ffffff;"/>
   </g>
   <g id="matplotlib.axis_3">
    <g id="xtick_9">
     <g id="line2d_21">
      <g>
       <use style="stroke:#000000;stroke-width:0.8;" x="419.539917" xlink:href="#mc2dc607246" y="243.921875"/>
      </g>
     </g>
     <g id="text_22">
      <!-- 3 -->
      <g transform="translate(416.358667 258.520313)scale(0.1 -0.1)">
       <use xlink:href="#DejaVuSans-33"/>
      </g>
     </g>
    </g>
    <g id="xtick_10">
     <g id="line2d_22">
      <g>
       <use style="stroke:#000000;stroke-width:0.8;" x="460.011" xlink:href="#mc2dc607246" y="243.921875"/>
      </g>
     </g>
     <g id="text_23">
      <!-- 4 -->
      <g transform="translate(456.82975 258.520313)scale(0.1 -0.1)">
       <use xlink:href="#DejaVuSans-34"/>
      </g>
     </g>
    </g>
    <g id="xtick_11">
     <g id="line2d_23">
      <g>
       <use style="stroke:#000000;stroke-width:0.8;" x="500.482083" xlink:href="#mc2dc607246" y="243.921875"/>
      </g>
     </g>
     <g id="text_24">
      <!-- 5 -->
      <g transform="translate(497.300833 258.520313)scale(0.1 -0.1)">
       <use xlink:href="#DejaVuSans-35"/>
      </g>
     </g>
    </g>
    <g id="xtick_12">
     <g id="line2d_24">
      <g>
       <use style="stroke:#000000;stroke-width:0.8;" x="540.953167" xlink:href="#mc2dc607246" y="243.921875"/>
      </g>
     </g>
     <g id="text_25">
      <!-- 6 -->
      <g transform="translate(537.771917 258.520313)scale(0.1 -0.1)">
       <use xlink:href="#DejaVuSans-36"/>
      </g>
     </g>
    </g>
    <g id="xtick_13">
     <g id="line2d_25">
      <g>
       <use style="stroke:#000000;stroke-width:0.8;" x="581.42425" xlink:href="#mc2dc607246" y="243.921875"/>
      </g>
     </g>
     <g id="text_26">
      <!-- 7 -->
      <g transform="translate(578.243 258.520313)scale(0.1 -0.1)">
       <use xlink:href="#DejaVuSans-37"/>
      </g>
     </g>
    </g>
    <g id="xtick_14">
     <g id="line2d_26">
      <g>
       <use style="stroke:#000000;stroke-width:0.8;" x="621.895333" xlink:href="#mc2dc607246" y="243.921875"/>
      </g>
     </g>
     <g id="text_27">
      <!-- 8 -->
      <g transform="translate(618.714083 258.520313)scale(0.1 -0.1)">
       <use xlink:href="#DejaVuSans-38"/>
      </g>
     </g>
    </g>
    <g id="xtick_15">
     <g id="line2d_27">
      <g>
       <use style="stroke:#000000;stroke-width:0.8;" x="662.366417" xlink:href="#mc2dc607246" y="243.921875"/>
      </g>
     </g>
     <g id="text_28">
      <!-- 9 -->
      <g transform="translate(659.185167 258.520313)scale(0.1 -0.1)">
       <use xlink:href="#DejaVuSans-39"/>
      </g>
     </g>
    </g>
    <g id="xtick_16">
     <g id="line2d_28">
      <g>
       <use style="stroke:#000000;stroke-width:0.8;" x="702.8375" xlink:href="#mc2dc607246" y="243.921875"/>
      </g>
     </g>
     <g id="text_29">
      <!-- 10 -->
      <g transform="translate(696.475 258.520313)scale(0.1 -0.1)">
       <use xlink:href="#DejaVuSans-31"/>
       <use x="63.623047" xlink:href="#DejaVuSans-30"/>
      </g>
     </g>
    </g>
    <g id="text_30">
     <!-- Time ($10^{-2}$ seconds) -->
     <g transform="translate(489.090937 274.704375)scale(0.12 -0.12)">
      <use transform="translate(0 0.765625)" xlink:href="#DejaVuSans-54"/>
      <use transform="translate(61.083984 0.765625)" xlink:href="#DejaVuSans-69"/>
      <use transform="translate(88.867188 0.765625)" xlink:href="#DejaVuSans-6d"/>
      <use transform="translate(186.279297 0.765625)" xlink:href="#DejaVuSans-65"/>
      <use transform="translate(247.802734 0.765625)" xlink:href="#DejaVuSans-20"/>
      <use transform="translate(279.589844 0.765625)" xlink:href="#DejaVuSans-28"/>
      <use transform="translate(318.603516 0.765625)" xlink:href="#DejaVuSans-31"/>
      <use transform="translate(382.226562 0.765625)" xlink:href="#DejaVuSans-30"/>
      <use transform="translate(446.806641 39.046875)scale(0.7)" xlink:href="#DejaVuSans-2212"/>
      <use transform="translate(505.458984 39.046875)scale(0.7)" xlink:href="#DejaVuSans-32"/>
      <use transform="translate(552.729492 0.765625)" xlink:href="#DejaVuSans-20"/>
      <use transform="translate(584.516602 0.765625)" xlink:href="#DejaVuSans-73"/>
      <use transform="translate(636.616211 0.765625)" xlink:href="#DejaVuSans-65"/>
      <use transform="translate(698.139648 0.765625)" xlink:href="#DejaVuSans-63"/>
      <use transform="translate(753.120117 0.765625)" xlink:href="#DejaVuSans-6f"/>
      <use transform="translate(814.301758 0.765625)" xlink:href="#DejaVuSans-6e"/>
      <use transform="translate(877.680664 0.765625)" xlink:href="#DejaVuSans-64"/>
      <use transform="translate(941.157227 0.765625)" xlink:href="#DejaVuSans-73"/>
      <use transform="translate(993.256836 0.765625)" xlink:href="#DejaVuSans-29"/>
     </g>
    </g>
   </g>
   <g id="matplotlib.axis_4">
    <g id="ytick_10">
     <g id="line2d_29">
      <g>
       <use style="stroke:#000000;stroke-width:0.8;" x="399.304375" xlink:href="#ma3ea9429f3" y="224.921469"/>
      </g>
     </g>
     <g id="text_31">
      <!-- 0.86 -->
      <g transform="translate(370.03875 228.720688)scale(0.1 -0.1)">
       <use xlink:href="#DejaVuSans-30"/>
       <use x="63.623047" xlink:href="#DejaVuSans-2e"/>
       <use x="95.410156" xlink:href="#DejaVuSans-38"/>
       <use x="159.033203" xlink:href="#DejaVuSans-36"/>
      </g>
     </g>
    </g>
    <g id="ytick_11">
     <g id="line2d_30">
      <g>
       <use style="stroke:#000000;stroke-width:0.8;" x="399.304375" xlink:href="#ma3ea9429f3" y="186.920656"/>
      </g>
     </g>
     <g id="text_32">
      <!-- 0.88 -->
      <g transform="translate(370.03875 190.719875)scale(0.1 -0.1)">
       <use xlink:href="#DejaVuSans-30"/>
       <use x="63.623047" xlink:href="#DejaVuSans-2e"/>
       <use x="95.410156" xlink:href="#DejaVuSans-38"/>
       <use x="159.033203" xlink:href="#DejaVuSans-38"/>
      </g>
     </g>
    </g>
    <g id="ytick_12">
     <g id="line2d_31">
      <g>
       <use style="stroke:#000000;stroke-width:0.8;" x="399.304375" xlink:href="#ma3ea9429f3" y="148.919844"/>
      </g>
     </g>
     <g id="text_33">
      <!-- 0.90 -->
      <g transform="translate(370.03875 152.719063)scale(0.1 -0.1)">
       <use xlink:href="#DejaVuSans-30"/>
       <use x="63.623047" xlink:href="#DejaVuSans-2e"/>
       <use x="95.410156" xlink:href="#DejaVuSans-39"/>
       <use x="159.033203" xlink:href="#DejaVuSans-30"/>
      </g>
     </g>
    </g>
    <g id="ytick_13">
     <g id="line2d_32">
      <g>
       <use style="stroke:#000000;stroke-width:0.8;" x="399.304375" xlink:href="#ma3ea9429f3" y="110.919031"/>
      </g>
     </g>
     <g id="text_34">
      <!-- 0.92 -->
      <g transform="translate(370.03875 114.71825)scale(0.1 -0.1)">
       <use xlink:href="#DejaVuSans-30"/>
       <use x="63.623047" xlink:href="#DejaVuSans-2e"/>
       <use x="95.410156" xlink:href="#DejaVuSans-39"/>
       <use x="159.033203" xlink:href="#DejaVuSans-32"/>
      </g>
     </g>
    </g>
    <g id="ytick_14">
     <g id="line2d_33">
      <g>
       <use style="stroke:#000000;stroke-width:0.8;" x="399.304375" xlink:href="#ma3ea9429f3" y="72.918219"/>
      </g>
     </g>
     <g id="text_35">
      <!-- 0.94 -->
      <g transform="translate(370.03875 76.717438)scale(0.1 -0.1)">
       <use xlink:href="#DejaVuSans-30"/>
       <use x="63.623047" xlink:href="#DejaVuSans-2e"/>
       <use x="95.410156" xlink:href="#DejaVuSans-39"/>
       <use x="159.033203" xlink:href="#DejaVuSans-34"/>
      </g>
     </g>
    </g>
   </g>
   <g id="line2d_34">
    <path clip-path="url(#pd0534d571c)" d="M 399.300328 189.576913 
L 401.008208 187.821276 
L 401.477672 187.351965 
L 407.888292 181.48464 
L 408.220155 181.207234 
L 409.499041 180.158412 
L 409.867328 179.863905 
L 410.883152 179.062088 
L 411.283816 178.752382 
L 412.141803 178.098768 
L 412.57889 177.771961 
L 413.3357 177.213349 
L 413.813258 176.867541 
L 414.493173 176.381131 
L 415.01525 176.014423 
L 415.634457 175.585014 
L 416.209147 175.193606 
L 416.783836 174.805997 
L 417.419232 174.386088 
L 417.95345 174.036481 
L 418.669788 173.578571 
L 419.167583 173.263164 
L 419.977004 172.761554 
L 420.442422 172.476547 
L 421.381351 171.914135 
L 421.818439 171.65573 
L 422.955676 171.000216 
L 423.364434 170.768411 
L 424.845676 169.951393 
L 425.226104 169.746189 
L 427.650322 168.486462 
L 427.998373 168.311658 
L 435.570513 164.878285 
L 435.841669 164.768083 
L 437.565737 164.080268 
L 437.853082 163.970066 
L 439.225052 163.447554 
L 439.524538 163.337352 
L 440.698199 162.907943 
L 441.009826 162.79774 
L 442.05398 162.429133 
L 442.377749 162.31893 
L 443.328819 161.994023 
L 443.660682 161.883821 
L 444.530811 161.596915 
L 444.874815 161.486712 
L 445.692331 161.224507 
L 446.044429 161.114304 
L 446.809333 160.876799 
L 447.173572 160.766597 
L 447.902052 160.546192 
L 448.274386 160.43599 
L 448.966441 160.232686 
L 449.350917 160.122483 
L 450.014642 159.932479 
L 450.411259 159.822277 
L 451.050702 159.643673 
L 451.45946 159.533471 
L 452.078668 159.364367 
L 452.49552 159.254165 
L 453.086398 159.098361 
L 453.515391 158.988159 
L 454.090081 158.839956 
L 454.527168 158.729753 
L 455.081622 158.591051 
L 455.530851 158.480848 
L 456.073164 158.347845 
L 456.538581 158.237643 
L 457.068752 158.11034 
L 457.546311 158.000138 
L 458.060294 157.880435 
L 458.545947 157.770233 
L 459.047788 157.656231 
L 459.545583 157.546028 
L 460.035283 157.437726 
L 460.549265 157.327524 
L 461.030871 157.223021 
L 461.556995 157.112819 
L 462.02646 157.014017 
L 462.568772 156.903814 
L 463.030143 156.808812 
L 463.584597 156.69861 
L 464.033826 156.609308 
L 464.600421 156.499106 
L 465.045603 156.411704 
L 465.632433 156.301502 
L 466.069521 156.2179 
L 466.67254 156.107697 
L 467.101534 156.027896 
L 467.720741 155.917693 
L 468.141641 155.841692 
L 468.77299 155.731489 
L 469.185795 155.659288 
L 469.833332 155.549085 
L 470.238043 155.480684 
L 470.901769 155.370482 
L 471.302432 155.30398 
L 471.990441 155.193778 
L 472.387057 155.129177 
L 473.095301 155.018974 
L 473.487871 154.956273 
L 474.220397 154.84607 
L 474.604873 154.787169 
L 475.349541 154.676967 
L 475.725922 154.621866 
L 476.490825 154.511663 
L 476.863159 154.458462 
L 477.652345 154.34826 
L 478.020632 154.296959 
L 478.834101 154.186756 
L 479.198341 154.137355 
L 480.040139 154.027153 
L 480.400332 153.979652 
L 481.266413 153.86945 
L 481.622558 153.823849 
L 482.521017 153.713646 
L 482.873115 153.669945 
L 483.799903 153.559743 
L 484.147954 153.517942 
L 485.103072 153.40774 
L 485.447076 153.367839 
L 486.43457 153.257636 
L 486.774527 153.219636 
L 487.798446 153.109433 
L 488.134356 153.073333 
L 489.190651 152.96313 
L 489.522514 152.928929 
L 490.61928 152.818727 
L 490.951143 152.784526 
L 492.100522 152.674324 
L 492.428338 152.642023 
L 493.618188 152.531821 
L 493.941956 152.50142 
L 495.172277 152.391218 
L 495.491999 152.362717 
L 496.774932 152.252515 
L 497.094654 152.224014 
L 498.442341 152.113812 
L 498.758015 152.087211 
L 500.162362 151.977009 
L 500.473989 151.952309 
L 501.327929 151.842106 
L 501.797394 151.743304 
L 502.22234 151.633102 
L 503.161269 151.313895 
L 503.436472 151.203693 
L 504.395637 150.753383 
L 504.399684 112.75447 
L 504.508956 113.322583 
L 506.74296 124.276317 
L 508.653195 132.712497 
L 510.688891 140.833271 
L 512.926941 148.807741 
L 515.41996 156.620708 
L 518.2327 164.213271 
L 521.454199 171.492326 
L 525.234198 178.355273 
L 529.811477 184.610207 
L 530.705888 185.602028 
L 531.240107 186.16254 
L 534.607301 189.172204 
L 535.040341 189.497111 
L 535.716208 189.979722 
L 536.327322 190.38823 
L 536.825116 190.703637 
L 537.901647 191.330651 
L 538.282075 191.535855 
L 541.604751 192.974186 
L 541.936614 193.084388 
L 542.693423 193.318093 
L 543.09004 193.428295 
L 543.664729 193.576499 
L 544.142288 193.686701 
L 544.6158 193.787403 
L 545.206678 193.897605 
L 545.611388 193.966007 
L 546.39248 194.076209 
L 546.740532 194.11801 
L 547.991088 194.228212 
L 548.290574 194.247213 
L 552.969031 194.137011 
L 553.300894 194.10281 
L 554.251965 193.992607 
L 554.620252 193.941306 
L 555.373014 193.831104 
L 555.773677 193.764603 
L 556.409073 193.6544 
L 556.842114 193.572698 
L 557.400615 193.462496 
L 557.870079 193.363694 
L 558.375968 193.253492 
L 558.885904 193.135689 
L 559.347274 193.025487 
L 559.901728 192.886784 
L 560.330721 192.776581 
L 560.933741 192.615078 
L 561.334404 192.504876 
L 561.99813 192.314872 
L 562.378558 192.204669 
L 563.111085 191.982364 
L 563.471277 191.872162 
L 564.284746 191.611857 
L 564.624703 191.501654 
L 565.535303 191.195748 
L 565.859071 191.085545 
L 566.887037 190.724538 
L 567.198664 190.614335 
L 568.388514 190.177326 
L 568.683953 190.067124 
L 570.076158 189.535112 
L 570.363503 189.42491 
L 572.07543 188.742795 
L 572.350633 188.632593 
L 574.527977 187.731974 
L 574.791039 187.621771 
L 577.75757 186.350644 
L 578.012538 186.240442 
L 582.516969 184.247299 
L 582.763843 184.137097 
L 588.964013 181.347837 
L 589.210886 181.237635 
L 594.49641 178.877784 
L 594.747331 178.767582 
L 598.499 177.127847 
L 598.758015 177.017645 
L 601.651697 175.780718 
L 601.914759 175.670516 
L 604.274224 174.684395 
L 604.54538 174.574192 
L 606.568934 173.745775 
L 606.844137 173.635572 
L 608.620818 172.923057 
L 608.900068 172.812855 
L 610.486535 172.189641 
L 610.77388 172.079439 
L 612.230839 171.517027 
L 612.52223 171.406825 
L 613.861823 170.899514 
L 614.157262 170.789311 
L 615.395677 170.329502 
L 615.69921 170.219299 
L 616.872872 169.78989 
L 617.180452 169.679688 
L 618.281266 169.284479 
L 618.592893 169.174277 
L 619.633 168.807569 
L 619.952721 168.697367 
L 620.952357 168.349659 
L 621.276126 168.239457 
L 622.223149 167.91645 
L 622.550965 167.806248 
L 623.457517 167.502241 
L 623.793427 167.392039 
L 624.67165 167.101332 
L 625.011607 166.99113 
L 625.853405 166.717524 
L 626.201457 166.607322 
L 627.014925 166.347016 
L 627.367024 166.236814 
L 628.15621 165.987909 
L 628.512355 165.877706 
L 629.269165 165.644001 
L 629.633404 165.533799 
L 630.374025 165.307694 
L 630.742312 165.197492 
L 631.45865 164.982787 
L 631.835031 164.872585 
L 632.535181 164.66548 
L 632.915609 164.555278 
L 633.595524 164.357674 
L 633.984046 164.247471 
L 634.651819 164.055567 
L 635.048435 163.945365 
L 635.70002 163.761061 
L 636.100684 163.650859 
L 636.732032 163.476055 
L 637.136743 163.365853 
L 637.751904 163.198649 
L 638.164709 163.088447 
L 638.771775 162.925043 
L 639.192674 162.814841 
L 639.787599 162.657137 
L 640.212546 162.546935 
L 640.791282 162.396832 
L 641.224323 162.28663 
L 641.794965 162.140326 
L 642.2361 162.030124 
L 642.794601 161.889521 
L 643.239783 161.779319 
L 643.786142 161.644416 
L 644.239418 161.534213 
L 644.777684 161.403111 
L 645.239054 161.292908 
L 645.769225 161.165606 
L 646.23869 161.055403 
L 646.760767 160.931901 
L 647.242373 160.821698 
L 647.756356 160.701996 
L 648.242009 160.591793 
L 648.747897 160.475891 
L 649.241644 160.365688 
L 649.739439 160.253586 
L 650.245327 160.143384 
L 650.735027 160.035081 
L 651.244963 159.924879 
L 651.726569 159.820377 
L 652.244599 159.710174 
L 652.71811 159.609472 
L 653.244234 159.49927 
L 653.713699 159.400468 
L 654.251964 159.290265 
L 654.713335 159.195263 
L 655.259694 159.085061 
L 655.717018 158.991959 
L 656.275519 158.881757 
L 656.724748 158.792455 
L 657.291343 158.682252 
L 657.736525 158.594851 
L 658.315261 158.484648 
L 658.756396 158.399146 
L 659.347274 158.288944 
L 659.780314 158.207242 
L 660.379286 158.09704 
L 660.80828 158.017238 
L 661.419393 157.907036 
L 661.84434 157.829134 
L 662.467594 157.718932 
L 662.888494 157.64293 
L 663.52389 157.532728 
L 663.936695 157.460526 
L 664.580185 157.350324 
L 664.988943 157.280023 
L 665.648622 157.16982 
L 666.053332 157.101419 
L 666.725152 156.991216 
L 667.125816 156.924715 
L 667.809777 156.814513 
L 668.206394 156.749911 
L 668.906544 156.639709 
L 669.299113 156.577007 
L 670.011404 156.466805 
L 670.399927 156.406004 
L 671.128406 156.295801 
L 671.512882 156.2369 
L 672.257549 156.126698 
L 672.637978 156.069697 
L 673.398834 155.959494 
L 673.775215 155.904393 
L 674.548213 155.794191 
L 674.920547 155.74099 
L 675.709733 155.630787 
L 676.07802 155.579486 
L 676.887441 155.469284 
L 677.255728 155.417983 
L 678.089433 155.30778 
L 678.453672 155.258379 
L 679.303565 155.148177 
L 679.663758 155.100676 
L 680.533886 154.990474 
L 680.890032 154.944873 
L 681.780395 154.83467 
L 682.136541 154.789069 
L 683.055234 154.678867 
L 683.407333 154.635166 
L 684.346262 154.524964 
L 684.694313 154.483163 
L 685.653478 154.37296 
L 685.997482 154.333059 
L 686.98093 154.222857 
L 687.324934 154.182956 
L 688.340758 154.072754 
L 688.680715 154.034753 
L 689.720822 153.924551 
L 690.056732 153.88845 
L 691.121121 153.778248 
L 691.457031 153.742147 
L 692.561892 153.631945 
L 692.893755 153.597744 
L 694.026945 153.487541 
L 694.354761 153.455241 
L 695.512234 153.345038 
L 695.84005 153.312738 
L 697.046088 153.202535 
L 697.369857 153.172135 
L 698.604225 153.061932 
L 698.923946 153.033432 
L 700.194738 152.923229 
L 700.51446 152.894729 
L 701.833817 152.784526 
L 702.149492 152.757926 
L 702.841547 152.700925 
L 702.841547 152.700925 
" style="fill:none;stroke:#3b7d86;stroke-linecap:square;stroke-width:1.5;"/>
   </g>
   <g id="patch_9">
    <path d="M 399.304375 243.921875 
L 399.304375 53.917813 
" style="fill:none;stroke:#000000;stroke-linecap:square;stroke-linejoin:miter;stroke-width:0.8;"/>
   </g>
   <g id="patch_10">
    <path d="M 702.8375 243.921875 
L 702.8375 53.917813 
" style="fill:none;stroke:#000000;stroke-linecap:square;stroke-linejoin:miter;stroke-width:0.8;"/>
   </g>
   <g id="patch_11">
    <path d="M 399.304375 243.921875 
L 702.8375 243.921875 
" style="fill:none;stroke:#000000;stroke-linecap:square;stroke-linejoin:miter;stroke-width:0.8;"/>
   </g>
   <g id="patch_12">
    <path d="M 399.304375 53.917812 
L 702.8375 53.917812 
" style="fill:none;stroke:#000000;stroke-linecap:square;stroke-linejoin:miter;stroke-width:0.8;"/>
   </g>
   <g id="text_36">
    <!-- Post-synaptic spikelet -->
    <g transform="translate(475.044375 47.917812)scale(0.14 -0.14)">
     <defs>
      <path d="M 313 2009 
L 1997 2009 
L 1997 1497 
L 313 1497 
L 313 2009 
z
" id="DejaVuSans-2d" transform="scale(0.015625)"/>
     </defs>
     <use xlink:href="#DejaVuSans-50"/>
     <use x="56.677734" xlink:href="#DejaVuSans-6f"/>
     <use x="117.859375" xlink:href="#DejaVuSans-73"/>
     <use x="169.958984" xlink:href="#DejaVuSans-74"/>
     <use x="209.167969" xlink:href="#DejaVuSans-2d"/>
     <use x="245.251953" xlink:href="#DejaVuSans-73"/>
     <use x="297.351562" xlink:href="#DejaVuSans-79"/>
     <use x="356.53125" xlink:href="#DejaVuSans-6e"/>
     <use x="419.910156" xlink:href="#DejaVuSans-61"/>
     <use x="481.189453" xlink:href="#DejaVuSans-70"/>
     <use x="544.666016" xlink:href="#DejaVuSans-74"/>
     <use x="583.875" xlink:href="#DejaVuSans-69"/>
     <use x="611.658203" xlink:href="#DejaVuSans-63"/>
     <use x="666.638672" xlink:href="#DejaVuSans-20"/>
     <use x="698.425781" xlink:href="#DejaVuSans-73"/>
     <use x="750.525391" xlink:href="#DejaVuSans-70"/>
     <use x="814.001953" xlink:href="#DejaVuSans-69"/>
     <use x="841.785156" xlink:href="#DejaVuSans-6b"/>
     <use x="896.070312" xlink:href="#DejaVuSans-65"/>
     <use x="957.59375" xlink:href="#DejaVuSans-6c"/>
     <use x="985.376953" xlink:href="#DejaVuSans-65"/>
     <use x="1046.900391" xlink:href="#DejaVuSans-74"/>
    </g>
   </g>
   <g id="legend_2">
    <g id="patch_13">
     <path d="M 642.1175 81.131562 
L 694.4375 81.131562 
Q 696.8375 81.131562 696.8375 78.731562 
L 696.8375 62.317812 
Q 696.8375 59.917812 694.4375 59.917812 
L 642.1175 59.917812 
Q 639.7175 59.917812 639.7175 62.317812 
L 639.7175 78.731562 
Q 639.7175 81.131562 642.1175 81.131562 
z
" style="fill:#ffffff;opacity:0.8;stroke:#cccccc;stroke-linejoin:miter;"/>
    </g>
    <g id="line2d_35">
     <path d="M 644.5175 69.635937 
L 668.5175 69.635937 
" style="fill:none;stroke:#3b7d86;stroke-linecap:square;stroke-width:1.5;"/>
    </g>
    <g id="line2d_36"/>
    <g id="text_37">
     <!-- $V_2$ -->
     <g transform="translate(678.1175 73.835937)scale(0.12 -0.12)">
      <use transform="translate(0 0.09375)" xlink:href="#DejaVuSans-Oblique-56"/>
      <use transform="translate(68.408203 -16.3125)scale(0.7)" xlink:href="#DejaVuSans-32"/>
     </g>
    </g>
   </g>
  </g>
  <g id="text_38">
   <!-- Coupled neurons, $\gamma=0.1$ and $\beta=0.2$ -->
   <g transform="translate(212.4 18.08)scale(0.16 -0.16)">
    <defs>
     <path d="M 4122 4306 
L 4122 3641 
Q 3803 3938 3442 4084 
Q 3081 4231 2675 4231 
Q 1875 4231 1450 3742 
Q 1025 3253 1025 2328 
Q 1025 1406 1450 917 
Q 1875 428 2675 428 
Q 3081 428 3442 575 
Q 3803 722 4122 1019 
L 4122 359 
Q 3791 134 3420 21 
Q 3050 -91 2638 -91 
Q 1578 -91 968 557 
Q 359 1206 359 2328 
Q 359 3453 968 4101 
Q 1578 4750 2638 4750 
Q 3056 4750 3426 4639 
Q 3797 4528 4122 4306 
z
" id="DejaVuSans-43" transform="scale(0.015625)"/>
     <path d="M 544 1381 
L 544 3500 
L 1119 3500 
L 1119 1403 
Q 1119 906 1312 657 
Q 1506 409 1894 409 
Q 2359 409 2629 706 
Q 2900 1003 2900 1516 
L 2900 3500 
L 3475 3500 
L 3475 0 
L 2900 0 
L 2900 538 
Q 2691 219 2414 64 
Q 2138 -91 1772 -91 
Q 1169 -91 856 284 
Q 544 659 544 1381 
z
M 1991 3584 
L 1991 3584 
z
" id="DejaVuSans-75" transform="scale(0.015625)"/>
     <path d="M 1491 2950 
L 1838 788 
L 3456 3500 
L 4066 3500 
L 1972 0 
L 1713 -1331 
L 1138 -1331 
L 1397 0 
L 988 2613 
Q 925 3006 628 3006 
L 475 3006 
L 569 3500 
L 788 3500 
Q 1403 3500 1491 2950 
z
" id="DejaVuSans-Oblique-3b3" transform="scale(0.015625)"/>
     <path d="M 678 2906 
L 4684 2906 
L 4684 2381 
L 678 2381 
L 678 2906 
z
M 678 1631 
L 4684 1631 
L 4684 1100 
L 678 1100 
L 678 1631 
z
" id="DejaVuSans-3d" transform="scale(0.015625)"/>
     <path d="M 872 216 
L 572 -1331 
L -6 -1331 
L 928 3478 
Q 1206 4903 2538 4903 
Q 3888 4903 3659 3700 
Q 3503 2844 2894 2531 
Q 3713 2250 3553 1416 
Q 3272 -69 1759 -66 
Q 1097 -63 872 216 
z
M 1019 966 
Q 1259 422 1875 425 
Q 2775 425 2966 1406 
Q 3138 2288 1675 2219 
L 1778 2750 
Q 2909 2731 3106 3750 
Q 3241 4438 2509 4434 
Q 1691 4434 1503 3459 
L 1019 966 
z
" id="DejaVuSans-Oblique-3b2" transform="scale(0.015625)"/>
    </defs>
    <use transform="translate(0 0.390625)" xlink:href="#DejaVuSans-43"/>
    <use transform="translate(69.824219 0.390625)" xlink:href="#DejaVuSans-6f"/>
    <use transform="translate(131.005859 0.390625)" xlink:href="#DejaVuSans-75"/>
    <use transform="translate(194.384766 0.390625)" xlink:href="#DejaVuSans-70"/>
    <use transform="translate(257.861328 0.390625)" xlink:href="#DejaVuSans-6c"/>
    <use transform="translate(285.644531 0.390625)" xlink:href="#DejaVuSans-65"/>
    <use transform="translate(347.167969 0.390625)" xlink:href="#DejaVuSans-64"/>
    <use transform="translate(410.644531 0.390625)" xlink:href="#DejaVuSans-20"/>
    <use transform="translate(442.431641 0.390625)" xlink:href="#DejaVuSans-6e"/>
    <use transform="translate(505.810547 0.390625)" xlink:href="#DejaVuSans-65"/>
    <use transform="translate(567.333984 0.390625)" xlink:href="#DejaVuSans-75"/>
    <use transform="translate(630.712891 0.390625)" xlink:href="#DejaVuSans-72"/>
    <use transform="translate(671.826172 0.390625)" xlink:href="#DejaVuSans-6f"/>
    <use transform="translate(733.007812 0.390625)" xlink:href="#DejaVuSans-6e"/>
    <use transform="translate(796.386719 0.390625)" xlink:href="#DejaVuSans-73"/>
    <use transform="translate(848.486328 0.390625)" xlink:href="#DejaVuSans-2c"/>
    <use transform="translate(880.273438 0.390625)" xlink:href="#DejaVuSans-20"/>
    <use transform="translate(912.060547 0.390625)" xlink:href="#DejaVuSans-Oblique-3b3"/>
    <use transform="translate(990.722656 0.390625)" xlink:href="#DejaVuSans-3d"/>
    <use transform="translate(1093.994141 0.390625)" xlink:href="#DejaVuSans-30"/>
    <use transform="translate(1157.617188 0.390625)" xlink:href="#DejaVuSans-2e"/>
    <use transform="translate(1189.404297 0.390625)" xlink:href="#DejaVuSans-31"/>
    <use transform="translate(1253.027344 0.390625)" xlink:href="#DejaVuSans-20"/>
    <use transform="translate(1284.814453 0.390625)" xlink:href="#DejaVuSans-61"/>
    <use transform="translate(1346.09375 0.390625)" xlink:href="#DejaVuSans-6e"/>
    <use transform="translate(1409.472656 0.390625)" xlink:href="#DejaVuSans-64"/>
    <use transform="translate(1472.949219 0.390625)" xlink:href="#DejaVuSans-20"/>
    <use transform="translate(1504.736328 0.390625)" xlink:href="#DejaVuSans-Oblique-3b2"/>
    <use transform="translate(1588.037109 0.390625)" xlink:href="#DejaVuSans-3d"/>
    <use transform="translate(1691.308594 0.390625)" xlink:href="#DejaVuSans-30"/>
    <use transform="translate(1754.931641 0.390625)" xlink:href="#DejaVuSans-2e"/>
    <use transform="translate(1781.21875 0.390625)" xlink:href="#DejaVuSans-32"/>
   </g>
  </g>
 </g>
 <defs>
  <clipPath id="p78d21e8a4e">
   <rect height="190.004063" width="303.533125" x="49.343125" y="53.917812"/>
  </clipPath>
  <clipPath id="pd0534d571c">
   <rect height="190.004063" width="303.533125" x="399.304375" y="53.917812"/>
  </clipPath>
 </defs>
</svg>
