<?xml version="1.0" encoding="utf-8" standalone="no"?>
<!DOCTYPE svg PUBLIC "-//W3C//DTD SVG 1.1//EN"
  "http://www.w3.org/Graphics/SVG/1.1/DTD/svg11.dtd">
<!-- Created with matplotlib (https://matplotlib.org/) -->
<svg height="432pt" version="1.1" viewBox="0 0 576 432" width="576pt" xmlns="http://www.w3.org/2000/svg" xmlns:xlink="http://www.w3.org/1999/xlink">
 <metadata>
  <rdf:RDF xmlns:cc="http://creativecommons.org/ns#" xmlns:dc="http://purl.org/dc/elements/1.1/" xmlns:rdf="http://www.w3.org/1999/02/22-rdf-syntax-ns#">
   <cc:Work>
    <dc:type rdf:resource="http://purl.org/dc/dcmitype/StillImage"/>
    <dc:date>2021-08-17T00:08:03.266727</dc:date>
    <dc:format>image/svg+xml</dc:format>
    <dc:creator>
     <cc:Agent>
      <dc:title>Matplotlib v3.3.3, https://matplotlib.org/</dc:title>
     </cc:Agent>
    </dc:creator>
   </cc:Work>
  </rdf:RDF>
 </metadata>
 <defs>
  <style type="text/css">*{stroke-linecap:butt;stroke-linejoin:round;}</style>
 </defs>
 <g id="figure_1">
  <g id="patch_1">
   <path d="M 0 432 
L 576 432 
L 576 0 
L 0 0 
z
" style="fill:#ffffff;"/>
  </g>
  <g id="axes_1">
   <g id="patch_2">
    <path d="M 55.82 379.72 
L 556.515 379.72 
L 556.515 38.76 
L 55.82 38.76 
z
" style="fill:#ffffff;"/>
   </g>
   <g id="matplotlib.axis_1">
    <g id="xtick_1">
     <g id="line2d_1">
      <defs>
       <path d="M 0 0 
L 0 3.5 
" id="m0a5a84bab9" style="stroke:#000000;stroke-width:0.8;"/>
      </defs>
      <g>
       <use style="stroke:#000000;stroke-width:0.8;" x="55.82" xlink:href="#m0a5a84bab9" y="379.72"/>
      </g>
     </g>
     <g id="text_1">
      <!-- 1.0 -->
      <g transform="translate(47.073281 395.078281)scale(0.11 -0.11)">
       <defs>
        <path d="M 12.40625 8.296875 
L 28.515625 8.296875 
L 28.515625 63.921875 
L 10.984375 60.40625 
L 10.984375 69.390625 
L 28.421875 72.90625 
L 38.28125 72.90625 
L 38.28125 8.296875 
L 54.390625 8.296875 
L 54.390625 0 
L 12.40625 0 
z
" id="DejaVuSans-49"/>
        <path d="M 10.6875 12.40625 
L 21 12.40625 
L 21 0 
L 10.6875 0 
z
" id="DejaVuSans-46"/>
        <path d="M 31.78125 66.40625 
Q 24.171875 66.40625 20.328125 58.90625 
Q 16.5 51.421875 16.5 36.375 
Q 16.5 21.390625 20.328125 13.890625 
Q 24.171875 6.390625 31.78125 6.390625 
Q 39.453125 6.390625 43.28125 13.890625 
Q 47.125 21.390625 47.125 36.375 
Q 47.125 51.421875 43.28125 58.90625 
Q 39.453125 66.40625 31.78125 66.40625 
z
M 31.78125 74.21875 
Q 44.046875 74.21875 50.515625 64.515625 
Q 56.984375 54.828125 56.984375 36.375 
Q 56.984375 17.96875 50.515625 8.265625 
Q 44.046875 -1.421875 31.78125 -1.421875 
Q 19.53125 -1.421875 13.0625 8.265625 
Q 6.59375 17.96875 6.59375 36.375 
Q 6.59375 54.828125 13.0625 64.515625 
Q 19.53125 74.21875 31.78125 74.21875 
z
" id="DejaVuSans-48"/>
       </defs>
       <use xlink:href="#DejaVuSans-49"/>
       <use x="63.623047" xlink:href="#DejaVuSans-46"/>
       <use x="95.410156" xlink:href="#DejaVuSans-48"/>
      </g>
     </g>
    </g>
    <g id="xtick_2">
     <g id="line2d_2">
      <g>
       <use style="stroke:#000000;stroke-width:0.8;" x="155.959" xlink:href="#m0a5a84bab9" y="379.72"/>
      </g>
     </g>
     <g id="text_2">
      <!-- 1.2 -->
      <g transform="translate(147.212281 395.078281)scale(0.11 -0.11)">
       <defs>
        <path d="M 19.1875 8.296875 
L 53.609375 8.296875 
L 53.609375 0 
L 7.328125 0 
L 7.328125 8.296875 
Q 12.9375 14.109375 22.625 23.890625 
Q 32.328125 33.6875 34.8125 36.53125 
Q 39.546875 41.84375 41.421875 45.53125 
Q 43.3125 49.21875 43.3125 52.78125 
Q 43.3125 58.59375 39.234375 62.25 
Q 35.15625 65.921875 28.609375 65.921875 
Q 23.96875 65.921875 18.8125 64.3125 
Q 13.671875 62.703125 7.8125 59.421875 
L 7.8125 69.390625 
Q 13.765625 71.78125 18.9375 73 
Q 24.125 74.21875 28.421875 74.21875 
Q 39.75 74.21875 46.484375 68.546875 
Q 53.21875 62.890625 53.21875 53.421875 
Q 53.21875 48.921875 51.53125 44.890625 
Q 49.859375 40.875 45.40625 35.40625 
Q 44.1875 33.984375 37.640625 27.21875 
Q 31.109375 20.453125 19.1875 8.296875 
z
" id="DejaVuSans-50"/>
       </defs>
       <use xlink:href="#DejaVuSans-49"/>
       <use x="63.623047" xlink:href="#DejaVuSans-46"/>
       <use x="95.410156" xlink:href="#DejaVuSans-50"/>
      </g>
     </g>
    </g>
    <g id="xtick_3">
     <g id="line2d_3">
      <g>
       <use style="stroke:#000000;stroke-width:0.8;" x="256.098" xlink:href="#m0a5a84bab9" y="379.72"/>
      </g>
     </g>
     <g id="text_3">
      <!-- 1.4 -->
      <g transform="translate(247.351281 395.078281)scale(0.11 -0.11)">
       <defs>
        <path d="M 37.796875 64.3125 
L 12.890625 25.390625 
L 37.796875 25.390625 
z
M 35.203125 72.90625 
L 47.609375 72.90625 
L 47.609375 25.390625 
L 58.015625 25.390625 
L 58.015625 17.1875 
L 47.609375 17.1875 
L 47.609375 0 
L 37.796875 0 
L 37.796875 17.1875 
L 4.890625 17.1875 
L 4.890625 26.703125 
z
" id="DejaVuSans-52"/>
       </defs>
       <use xlink:href="#DejaVuSans-49"/>
       <use x="63.623047" xlink:href="#DejaVuSans-46"/>
       <use x="95.410156" xlink:href="#DejaVuSans-52"/>
      </g>
     </g>
    </g>
    <g id="xtick_4">
     <g id="line2d_4">
      <g>
       <use style="stroke:#000000;stroke-width:0.8;" x="356.237" xlink:href="#m0a5a84bab9" y="379.72"/>
      </g>
     </g>
     <g id="text_4">
      <!-- 1.6 -->
      <g transform="translate(347.490281 395.078281)scale(0.11 -0.11)">
       <defs>
        <path d="M 33.015625 40.375 
Q 26.375 40.375 22.484375 35.828125 
Q 18.609375 31.296875 18.609375 23.390625 
Q 18.609375 15.53125 22.484375 10.953125 
Q 26.375 6.390625 33.015625 6.390625 
Q 39.65625 6.390625 43.53125 10.953125 
Q 47.40625 15.53125 47.40625 23.390625 
Q 47.40625 31.296875 43.53125 35.828125 
Q 39.65625 40.375 33.015625 40.375 
z
M 52.59375 71.296875 
L 52.59375 62.3125 
Q 48.875 64.0625 45.09375 64.984375 
Q 41.3125 65.921875 37.59375 65.921875 
Q 27.828125 65.921875 22.671875 59.328125 
Q 17.53125 52.734375 16.796875 39.40625 
Q 19.671875 43.65625 24.015625 45.921875 
Q 28.375 48.1875 33.59375 48.1875 
Q 44.578125 48.1875 50.953125 41.515625 
Q 57.328125 34.859375 57.328125 23.390625 
Q 57.328125 12.15625 50.6875 5.359375 
Q 44.046875 -1.421875 33.015625 -1.421875 
Q 20.359375 -1.421875 13.671875 8.265625 
Q 6.984375 17.96875 6.984375 36.375 
Q 6.984375 53.65625 15.1875 63.9375 
Q 23.390625 74.21875 37.203125 74.21875 
Q 40.921875 74.21875 44.703125 73.484375 
Q 48.484375 72.75 52.59375 71.296875 
z
" id="DejaVuSans-54"/>
       </defs>
       <use xlink:href="#DejaVuSans-49"/>
       <use x="63.623047" xlink:href="#DejaVuSans-46"/>
       <use x="95.410156" xlink:href="#DejaVuSans-54"/>
      </g>
     </g>
    </g>
    <g id="xtick_5">
     <g id="line2d_5">
      <g>
       <use style="stroke:#000000;stroke-width:0.8;" x="456.376" xlink:href="#m0a5a84bab9" y="379.72"/>
      </g>
     </g>
     <g id="text_5">
      <!-- 1.8 -->
      <g transform="translate(447.629281 395.078281)scale(0.11 -0.11)">
       <defs>
        <path d="M 31.78125 34.625 
Q 24.75 34.625 20.71875 30.859375 
Q 16.703125 27.09375 16.703125 20.515625 
Q 16.703125 13.921875 20.71875 10.15625 
Q 24.75 6.390625 31.78125 6.390625 
Q 38.8125 6.390625 42.859375 10.171875 
Q 46.921875 13.96875 46.921875 20.515625 
Q 46.921875 27.09375 42.890625 30.859375 
Q 38.875 34.625 31.78125 34.625 
z
M 21.921875 38.8125 
Q 15.578125 40.375 12.03125 44.71875 
Q 8.5 49.078125 8.5 55.328125 
Q 8.5 64.0625 14.71875 69.140625 
Q 20.953125 74.21875 31.78125 74.21875 
Q 42.671875 74.21875 48.875 69.140625 
Q 55.078125 64.0625 55.078125 55.328125 
Q 55.078125 49.078125 51.53125 44.71875 
Q 48 40.375 41.703125 38.8125 
Q 48.828125 37.15625 52.796875 32.3125 
Q 56.78125 27.484375 56.78125 20.515625 
Q 56.78125 9.90625 50.3125 4.234375 
Q 43.84375 -1.421875 31.78125 -1.421875 
Q 19.734375 -1.421875 13.25 4.234375 
Q 6.78125 9.90625 6.78125 20.515625 
Q 6.78125 27.484375 10.78125 32.3125 
Q 14.796875 37.15625 21.921875 38.8125 
z
M 18.3125 54.390625 
Q 18.3125 48.734375 21.84375 45.5625 
Q 25.390625 42.390625 31.78125 42.390625 
Q 38.140625 42.390625 41.71875 45.5625 
Q 45.3125 48.734375 45.3125 54.390625 
Q 45.3125 60.0625 41.71875 63.234375 
Q 38.140625 66.40625 31.78125 66.40625 
Q 25.390625 66.40625 21.84375 63.234375 
Q 18.3125 60.0625 18.3125 54.390625 
z
" id="DejaVuSans-56"/>
       </defs>
       <use xlink:href="#DejaVuSans-49"/>
       <use x="63.623047" xlink:href="#DejaVuSans-46"/>
       <use x="95.410156" xlink:href="#DejaVuSans-56"/>
      </g>
     </g>
    </g>
    <g id="xtick_6">
     <g id="line2d_6">
      <g>
       <use style="stroke:#000000;stroke-width:0.8;" x="556.515" xlink:href="#m0a5a84bab9" y="379.72"/>
      </g>
     </g>
     <g id="text_6">
      <!-- 2.0 -->
      <g transform="translate(547.768281 395.078281)scale(0.11 -0.11)">
       <use xlink:href="#DejaVuSans-50"/>
       <use x="63.623047" xlink:href="#DejaVuSans-46"/>
       <use x="95.410156" xlink:href="#DejaVuSans-48"/>
      </g>
     </g>
    </g>
    <g id="text_7">
     <!-- Current $I$ -->
     <g transform="translate(275.2975 418.00375)scale(0.14 -0.14)">
      <defs>
       <path d="M 64.40625 67.28125 
L 64.40625 56.890625 
Q 59.421875 61.53125 53.78125 63.8125 
Q 48.140625 66.109375 41.796875 66.109375 
Q 29.296875 66.109375 22.65625 58.46875 
Q 16.015625 50.828125 16.015625 36.375 
Q 16.015625 21.96875 22.65625 14.328125 
Q 29.296875 6.6875 41.796875 6.6875 
Q 48.140625 6.6875 53.78125 8.984375 
Q 59.421875 11.28125 64.40625 15.921875 
L 64.40625 5.609375 
Q 59.234375 2.09375 53.4375 0.328125 
Q 47.65625 -1.421875 41.21875 -1.421875 
Q 24.65625 -1.421875 15.125 8.703125 
Q 5.609375 18.84375 5.609375 36.375 
Q 5.609375 53.953125 15.125 64.078125 
Q 24.65625 74.21875 41.21875 74.21875 
Q 47.75 74.21875 53.53125 72.484375 
Q 59.328125 70.75 64.40625 67.28125 
z
" id="DejaVuSans-67"/>
       <path d="M 8.5 21.578125 
L 8.5 54.6875 
L 17.484375 54.6875 
L 17.484375 21.921875 
Q 17.484375 14.15625 20.5 10.265625 
Q 23.53125 6.390625 29.59375 6.390625 
Q 36.859375 6.390625 41.078125 11.03125 
Q 45.3125 15.671875 45.3125 23.6875 
L 45.3125 54.6875 
L 54.296875 54.6875 
L 54.296875 0 
L 45.3125 0 
L 45.3125 8.40625 
Q 42.046875 3.421875 37.71875 1 
Q 33.40625 -1.421875 27.6875 -1.421875 
Q 18.265625 -1.421875 13.375 4.4375 
Q 8.5 10.296875 8.5 21.578125 
z
M 31.109375 56 
z
" id="DejaVuSans-117"/>
       <path d="M 41.109375 46.296875 
Q 39.59375 47.171875 37.8125 47.578125 
Q 36.03125 48 33.890625 48 
Q 26.265625 48 22.1875 43.046875 
Q 18.109375 38.09375 18.109375 28.8125 
L 18.109375 0 
L 9.078125 0 
L 9.078125 54.6875 
L 18.109375 54.6875 
L 18.109375 46.1875 
Q 20.953125 51.171875 25.484375 53.578125 
Q 30.03125 56 36.53125 56 
Q 37.453125 56 38.578125 55.875 
Q 39.703125 55.765625 41.0625 55.515625 
z
" id="DejaVuSans-114"/>
       <path d="M 56.203125 29.59375 
L 56.203125 25.203125 
L 14.890625 25.203125 
Q 15.484375 15.921875 20.484375 11.0625 
Q 25.484375 6.203125 34.421875 6.203125 
Q 39.59375 6.203125 44.453125 7.46875 
Q 49.3125 8.734375 54.109375 11.28125 
L 54.109375 2.78125 
Q 49.265625 0.734375 44.1875 -0.34375 
Q 39.109375 -1.421875 33.890625 -1.421875 
Q 20.796875 -1.421875 13.15625 6.1875 
Q 5.515625 13.8125 5.515625 26.8125 
Q 5.515625 40.234375 12.765625 48.109375 
Q 20.015625 56 32.328125 56 
Q 43.359375 56 49.78125 48.890625 
Q 56.203125 41.796875 56.203125 29.59375 
z
M 47.21875 32.234375 
Q 47.125 39.59375 43.09375 43.984375 
Q 39.0625 48.390625 32.421875 48.390625 
Q 24.90625 48.390625 20.390625 44.140625 
Q 15.875 39.890625 15.1875 32.171875 
z
" id="DejaVuSans-101"/>
       <path d="M 54.890625 33.015625 
L 54.890625 0 
L 45.90625 0 
L 45.90625 32.71875 
Q 45.90625 40.484375 42.875 44.328125 
Q 39.84375 48.1875 33.796875 48.1875 
Q 26.515625 48.1875 22.3125 43.546875 
Q 18.109375 38.921875 18.109375 30.90625 
L 18.109375 0 
L 9.078125 0 
L 9.078125 54.6875 
L 18.109375 54.6875 
L 18.109375 46.1875 
Q 21.34375 51.125 25.703125 53.5625 
Q 30.078125 56 35.796875 56 
Q 45.21875 56 50.046875 50.171875 
Q 54.890625 44.34375 54.890625 33.015625 
z
" id="DejaVuSans-110"/>
       <path d="M 18.3125 70.21875 
L 18.3125 54.6875 
L 36.8125 54.6875 
L 36.8125 47.703125 
L 18.3125 47.703125 
L 18.3125 18.015625 
Q 18.3125 11.328125 20.140625 9.421875 
Q 21.96875 7.515625 27.59375 7.515625 
L 36.8125 7.515625 
L 36.8125 0 
L 27.59375 0 
Q 17.1875 0 13.234375 3.875 
Q 9.28125 7.765625 9.28125 18.015625 
L 9.28125 47.703125 
L 2.6875 47.703125 
L 2.6875 54.6875 
L 9.28125 54.6875 
L 9.28125 70.21875 
z
" id="DejaVuSans-116"/>
       <path id="DejaVuSans-32"/>
       <path d="M 16.890625 72.90625 
L 26.8125 72.90625 
L 12.59375 0 
L 2.6875 0 
z
" id="DejaVuSans-Oblique-73"/>
      </defs>
      <use transform="translate(0 0.78125)" xlink:href="#DejaVuSans-67"/>
      <use transform="translate(69.824219 0.78125)" xlink:href="#DejaVuSans-117"/>
      <use transform="translate(133.203125 0.78125)" xlink:href="#DejaVuSans-114"/>
      <use transform="translate(174.316406 0.78125)" xlink:href="#DejaVuSans-114"/>
      <use transform="translate(215.429688 0.78125)" xlink:href="#DejaVuSans-101"/>
      <use transform="translate(276.953125 0.78125)" xlink:href="#DejaVuSans-110"/>
      <use transform="translate(340.332031 0.78125)" xlink:href="#DejaVuSans-116"/>
      <use transform="translate(379.541016 0.78125)" xlink:href="#DejaVuSans-32"/>
      <use transform="translate(411.328125 0.78125)" xlink:href="#DejaVuSans-Oblique-73"/>
     </g>
    </g>
   </g>
   <g id="matplotlib.axis_2">
    <g id="ytick_1">
     <g id="line2d_7">
      <defs>
       <path d="M 0 0 
L -3.5 0 
" id="m34aa0df57e" style="stroke:#000000;stroke-width:0.8;"/>
      </defs>
      <g>
       <use style="stroke:#000000;stroke-width:0.8;" x="55.82" xlink:href="#m34aa0df57e" y="364.221818"/>
      </g>
     </g>
     <g id="text_8">
      <!-- 0.0 -->
      <g transform="translate(31.326563 368.400959)scale(0.11 -0.11)">
       <use xlink:href="#DejaVuSans-48"/>
       <use x="63.623047" xlink:href="#DejaVuSans-46"/>
       <use x="95.410156" xlink:href="#DejaVuSans-48"/>
      </g>
     </g>
    </g>
    <g id="ytick_2">
     <g id="line2d_8">
      <g>
       <use style="stroke:#000000;stroke-width:0.8;" x="55.82" xlink:href="#m34aa0df57e" y="302.229091"/>
      </g>
     </g>
     <g id="text_9">
      <!-- 0.2 -->
      <g transform="translate(31.326563 306.408232)scale(0.11 -0.11)">
       <use xlink:href="#DejaVuSans-48"/>
       <use x="63.623047" xlink:href="#DejaVuSans-46"/>
       <use x="95.410156" xlink:href="#DejaVuSans-50"/>
      </g>
     </g>
    </g>
    <g id="ytick_3">
     <g id="line2d_9">
      <g>
       <use style="stroke:#000000;stroke-width:0.8;" x="55.82" xlink:href="#m34aa0df57e" y="240.236364"/>
      </g>
     </g>
     <g id="text_10">
      <!-- 0.4 -->
      <g transform="translate(31.326563 244.415504)scale(0.11 -0.11)">
       <use xlink:href="#DejaVuSans-48"/>
       <use x="63.623047" xlink:href="#DejaVuSans-46"/>
       <use x="95.410156" xlink:href="#DejaVuSans-52"/>
      </g>
     </g>
    </g>
    <g id="ytick_4">
     <g id="line2d_10">
      <g>
       <use style="stroke:#000000;stroke-width:0.8;" x="55.82" xlink:href="#m34aa0df57e" y="178.243636"/>
      </g>
     </g>
     <g id="text_11">
      <!-- 0.6 -->
      <g transform="translate(31.326563 182.422777)scale(0.11 -0.11)">
       <use xlink:href="#DejaVuSans-48"/>
       <use x="63.623047" xlink:href="#DejaVuSans-46"/>
       <use x="95.410156" xlink:href="#DejaVuSans-54"/>
      </g>
     </g>
    </g>
    <g id="ytick_5">
     <g id="line2d_11">
      <g>
       <use style="stroke:#000000;stroke-width:0.8;" x="55.82" xlink:href="#m34aa0df57e" y="116.250909"/>
      </g>
     </g>
     <g id="text_12">
      <!-- 0.8 -->
      <g transform="translate(31.326563 120.43005)scale(0.11 -0.11)">
       <use xlink:href="#DejaVuSans-48"/>
       <use x="63.623047" xlink:href="#DejaVuSans-46"/>
       <use x="95.410156" xlink:href="#DejaVuSans-56"/>
      </g>
     </g>
    </g>
    <g id="ytick_6">
     <g id="line2d_12">
      <g>
       <use style="stroke:#000000;stroke-width:0.8;" x="55.82" xlink:href="#m34aa0df57e" y="54.258182"/>
      </g>
     </g>
     <g id="text_13">
      <!-- 1.0 -->
      <g transform="translate(31.326563 58.437322)scale(0.11 -0.11)">
       <use xlink:href="#DejaVuSans-49"/>
       <use x="63.623047" xlink:href="#DejaVuSans-46"/>
       <use x="95.410156" xlink:href="#DejaVuSans-48"/>
      </g>
     </g>
    </g>
    <g id="text_14">
     <!-- Phase Difference $\phi$ -->
     <g transform="translate(24.386563 275.6)rotate(-90)scale(0.14 -0.14)">
      <defs>
       <path d="M 19.671875 64.796875 
L 19.671875 37.40625 
L 32.078125 37.40625 
Q 38.96875 37.40625 42.71875 40.96875 
Q 46.484375 44.53125 46.484375 51.125 
Q 46.484375 57.671875 42.71875 61.234375 
Q 38.96875 64.796875 32.078125 64.796875 
z
M 9.8125 72.90625 
L 32.078125 72.90625 
Q 44.34375 72.90625 50.609375 67.359375 
Q 56.890625 61.8125 56.890625 51.125 
Q 56.890625 40.328125 50.609375 34.8125 
Q 44.34375 29.296875 32.078125 29.296875 
L 19.671875 29.296875 
L 19.671875 0 
L 9.8125 0 
z
" id="DejaVuSans-80"/>
       <path d="M 54.890625 33.015625 
L 54.890625 0 
L 45.90625 0 
L 45.90625 32.71875 
Q 45.90625 40.484375 42.875 44.328125 
Q 39.84375 48.1875 33.796875 48.1875 
Q 26.515625 48.1875 22.3125 43.546875 
Q 18.109375 38.921875 18.109375 30.90625 
L 18.109375 0 
L 9.078125 0 
L 9.078125 75.984375 
L 18.109375 75.984375 
L 18.109375 46.1875 
Q 21.34375 51.125 25.703125 53.5625 
Q 30.078125 56 35.796875 56 
Q 45.21875 56 50.046875 50.171875 
Q 54.890625 44.34375 54.890625 33.015625 
z
" id="DejaVuSans-104"/>
       <path d="M 34.28125 27.484375 
Q 23.390625 27.484375 19.1875 25 
Q 14.984375 22.515625 14.984375 16.5 
Q 14.984375 11.71875 18.140625 8.90625 
Q 21.296875 6.109375 26.703125 6.109375 
Q 34.1875 6.109375 38.703125 11.40625 
Q 43.21875 16.703125 43.21875 25.484375 
L 43.21875 27.484375 
z
M 52.203125 31.203125 
L 52.203125 0 
L 43.21875 0 
L 43.21875 8.296875 
Q 40.140625 3.328125 35.546875 0.953125 
Q 30.953125 -1.421875 24.3125 -1.421875 
Q 15.921875 -1.421875 10.953125 3.296875 
Q 6 8.015625 6 15.921875 
Q 6 25.140625 12.171875 29.828125 
Q 18.359375 34.515625 30.609375 34.515625 
L 43.21875 34.515625 
L 43.21875 35.40625 
Q 43.21875 41.609375 39.140625 45 
Q 35.0625 48.390625 27.6875 48.390625 
Q 23 48.390625 18.546875 47.265625 
Q 14.109375 46.140625 10.015625 43.890625 
L 10.015625 52.203125 
Q 14.9375 54.109375 19.578125 55.046875 
Q 24.21875 56 28.609375 56 
Q 40.484375 56 46.34375 49.84375 
Q 52.203125 43.703125 52.203125 31.203125 
z
" id="DejaVuSans-97"/>
       <path d="M 44.28125 53.078125 
L 44.28125 44.578125 
Q 40.484375 46.53125 36.375 47.5 
Q 32.28125 48.484375 27.875 48.484375 
Q 21.1875 48.484375 17.84375 46.4375 
Q 14.5 44.390625 14.5 40.28125 
Q 14.5 37.15625 16.890625 35.375 
Q 19.28125 33.59375 26.515625 31.984375 
L 29.59375 31.296875 
Q 39.15625 29.25 43.1875 25.515625 
Q 47.21875 21.78125 47.21875 15.09375 
Q 47.21875 7.46875 41.1875 3.015625 
Q 35.15625 -1.421875 24.609375 -1.421875 
Q 20.21875 -1.421875 15.453125 -0.5625 
Q 10.6875 0.296875 5.421875 2 
L 5.421875 11.28125 
Q 10.40625 8.6875 15.234375 7.390625 
Q 20.0625 6.109375 24.8125 6.109375 
Q 31.15625 6.109375 34.5625 8.28125 
Q 37.984375 10.453125 37.984375 14.40625 
Q 37.984375 18.0625 35.515625 20.015625 
Q 33.0625 21.96875 24.703125 23.78125 
L 21.578125 24.515625 
Q 13.234375 26.265625 9.515625 29.90625 
Q 5.8125 33.546875 5.8125 39.890625 
Q 5.8125 47.609375 11.28125 51.796875 
Q 16.75 56 26.8125 56 
Q 31.78125 56 36.171875 55.265625 
Q 40.578125 54.546875 44.28125 53.078125 
z
" id="DejaVuSans-115"/>
       <path d="M 19.671875 64.796875 
L 19.671875 8.109375 
L 31.59375 8.109375 
Q 46.6875 8.109375 53.6875 14.9375 
Q 60.6875 21.78125 60.6875 36.53125 
Q 60.6875 51.171875 53.6875 57.984375 
Q 46.6875 64.796875 31.59375 64.796875 
z
M 9.8125 72.90625 
L 30.078125 72.90625 
Q 51.265625 72.90625 61.171875 64.09375 
Q 71.09375 55.28125 71.09375 36.53125 
Q 71.09375 17.671875 61.125 8.828125 
Q 51.171875 0 30.078125 0 
L 9.8125 0 
z
" id="DejaVuSans-68"/>
       <path d="M 9.421875 54.6875 
L 18.40625 54.6875 
L 18.40625 0 
L 9.421875 0 
z
M 9.421875 75.984375 
L 18.40625 75.984375 
L 18.40625 64.59375 
L 9.421875 64.59375 
z
" id="DejaVuSans-105"/>
       <path d="M 37.109375 75.984375 
L 37.109375 68.5 
L 28.515625 68.5 
Q 23.6875 68.5 21.796875 66.546875 
Q 19.921875 64.59375 19.921875 59.515625 
L 19.921875 54.6875 
L 34.71875 54.6875 
L 34.71875 47.703125 
L 19.921875 47.703125 
L 19.921875 0 
L 10.890625 0 
L 10.890625 47.703125 
L 2.296875 47.703125 
L 2.296875 54.6875 
L 10.890625 54.6875 
L 10.890625 58.5 
Q 10.890625 67.625 15.140625 71.796875 
Q 19.390625 75.984375 28.609375 75.984375 
z
" id="DejaVuSans-102"/>
       <path d="M 48.78125 52.59375 
L 48.78125 44.1875 
Q 44.96875 46.296875 41.140625 47.34375 
Q 37.3125 48.390625 33.40625 48.390625 
Q 24.65625 48.390625 19.8125 42.84375 
Q 14.984375 37.3125 14.984375 27.296875 
Q 14.984375 17.28125 19.8125 11.734375 
Q 24.65625 6.203125 33.40625 6.203125 
Q 37.3125 6.203125 41.140625 7.25 
Q 44.96875 8.296875 48.78125 10.40625 
L 48.78125 2.09375 
Q 45.015625 0.34375 40.984375 -0.53125 
Q 36.96875 -1.421875 32.421875 -1.421875 
Q 20.0625 -1.421875 12.78125 6.34375 
Q 5.515625 14.109375 5.515625 27.296875 
Q 5.515625 40.671875 12.859375 48.328125 
Q 20.21875 56 33.015625 56 
Q 37.15625 56 41.109375 55.140625 
Q 45.0625 54.296875 48.78125 52.59375 
z
" id="DejaVuSans-99"/>
       <path d="M 46.734375 75.984375 
L 42.78125 55.8125 
Q 52.546875 55.8125 57.5625 48.34375 
Q 62.75 40.71875 60.15625 27.296875 
Q 57.515625 13.875 49.359375 6.25 
Q 41.453125 -1.21875 31.6875 -1.21875 
L 27.875 -20.796875 
L 18.953125 -20.796875 
L 22.75 -1.21875 
Q 13.03125 -1.21875 7.953125 6.25 
Q 2.78125 13.875 5.421875 27.296875 
Q 8.015625 40.71875 16.15625 48.34375 
Q 24.125 55.8125 33.84375 55.8125 
L 37.796875 75.984375 
z
M 33.25 6.78125 
Q 38.765625 6.78125 43.5 11.8125 
Q 48.6875 17.4375 50.6875 27.296875 
Q 52.640625 37.0625 49.515625 42.78125 
Q 46.734375 47.796875 41.21875 47.796875 
z
M 24.3125 6.78125 
L 32.28125 47.796875 
Q 26.8125 47.796875 22.078125 42.78125 
Q 16.75 37.0625 14.890625 27.296875 
Q 13.03125 17.4375 16.0625 11.8125 
Q 18.796875 6.78125 24.3125 6.78125 
z
" id="DejaVuSans-Oblique-981"/>
      </defs>
      <use transform="translate(0 0.015625)" xlink:href="#DejaVuSans-80"/>
      <use transform="translate(60.302734 0.015625)" xlink:href="#DejaVuSans-104"/>
      <use transform="translate(123.681641 0.015625)" xlink:href="#DejaVuSans-97"/>
      <use transform="translate(184.960938 0.015625)" xlink:href="#DejaVuSans-115"/>
      <use transform="translate(237.060547 0.015625)" xlink:href="#DejaVuSans-101"/>
      <use transform="translate(298.583984 0.015625)" xlink:href="#DejaVuSans-32"/>
      <use transform="translate(330.371094 0.015625)" xlink:href="#DejaVuSans-68"/>
      <use transform="translate(407.373047 0.015625)" xlink:href="#DejaVuSans-105"/>
      <use transform="translate(435.15625 0.015625)" xlink:href="#DejaVuSans-102"/>
      <use transform="translate(470.361328 0.015625)" xlink:href="#DejaVuSans-102"/>
      <use transform="translate(505.566406 0.015625)" xlink:href="#DejaVuSans-101"/>
      <use transform="translate(567.089844 0.015625)" xlink:href="#DejaVuSans-114"/>
      <use transform="translate(608.203125 0.015625)" xlink:href="#DejaVuSans-101"/>
      <use transform="translate(669.726562 0.015625)" xlink:href="#DejaVuSans-110"/>
      <use transform="translate(733.105469 0.015625)" xlink:href="#DejaVuSans-99"/>
      <use transform="translate(788.085938 0.015625)" xlink:href="#DejaVuSans-101"/>
      <use transform="translate(849.609375 0.015625)" xlink:href="#DejaVuSans-32"/>
      <use transform="translate(881.396484 0.015625)" xlink:href="#DejaVuSans-Oblique-981"/>
     </g>
    </g>
   </g>
   <g id="line2d_13">
    <path clip-path="url(#pcf4634b067)" d="M 239.825412 209.24 
L 239.825412 202.416337 
L 238.573675 192.754522 
L 237.321937 187.609808 
L 236.0702 182.153239 
L 234.818463 178.093986 
L 233.566725 174.948413 
L 232.314988 171.709696 
L 231.06325 168.582783 
L 229.811512 166.029333 
L 228.559775 163.698531 
L 227.308037 161.034641 
L 226.0563 158.808327 
L 224.804562 156.967887 
L 223.552825 154.607359 
L 222.301087 152.610357 
L 221.04935 150.948951 
L 219.797612 148.930065 
L 218.545875 147.11591 
L 217.294138 145.59932 
L 216.0424 143.8015 
L 214.790662 142.146108 
L 213.538925 140.760137 
L 212.287187 139.101924 
L 211.03545 137.591224 
L 209.783713 136.329981 
L 208.531975 134.753816 
L 207.280237 133.380863 
L 206.0285 132.168968 
L 204.776763 130.706466 
L 203.525025 129.467697 
L 202.273288 128.244239 
L 201.02155 126.926057 
L 199.769813 125.820261 
L 198.518075 124.565963 
L 197.266337 123.390147 
L 196.0146 122.34901 
L 194.762862 121.118795 
L 193.511125 120.085903 
L 192.259388 118.973537 
L 191.00765 117.893654 
L 189.755913 116.929698 
L 188.504175 115.815472 
L 187.252437 114.887379 
L 186.0007 113.830279 
L 184.748963 112.874041 
L 183.497225 111.921895 
L 182.245487 110.948268 
L 180.99375 110.077921 
L 179.742012 109.096266 
L 178.490275 108.288439 
L 177.238538 107.307745 
L 175.9868 106.498275 
L 174.735063 105.574894 
L 173.483325 104.770848 
L 172.231587 103.891853 
L 170.97985 103.101415 
L 169.728113 102.25509 
L 168.476375 101.485233 
L 167.224637 100.662187 
L 165.9729 99.919731 
L 164.721162 99.112121 
L 163.469425 98.403575 
L 162.217687 97.605016 
L 160.96595 96.923189 
L 159.714213 96.14208 
L 158.462475 95.453992 
L 157.210737 94.72536 
L 155.959 94.028407 
L 154.707262 93.357522 
L 153.455525 92.649844 
L 152.203787 92.016619 
L 150.95205 91.322704 
L 149.700312 90.672245 
L 148.448575 90.051822 
L 147.196838 89.384284 
L 145.9451 88.770308 
L 144.693363 88.158719 
L 143.441625 87.525401 
L 142.189888 86.933928 
L 140.93815 86.351104 
L 139.686412 85.740165 
L 138.434675 85.162424 
L 137.182937 84.611712 
L 135.9312 84.031367 
L 134.679462 83.462739 
L 133.427725 82.916149 
L 132.175988 82.387444 
L 130.92425 81.848262 
L 129.672512 81.306229 
L 128.420775 80.779662 
L 127.169038 80.265898 
L 125.9173 79.762548 
L 124.665562 79.267815 
L 123.413825 78.775686 
L 122.162087 78.278504 
L 120.91035 77.790621 
L 119.658613 77.31089 
L 118.406875 76.838692 
" style="fill:none;stroke:#aa3863;stroke-dasharray:5.55,2.4;stroke-dashoffset:0;stroke-width:1.5;"/>
   </g>
   <g id="line2d_14">
    <path clip-path="url(#pcf4634b067)" d="M 239.825412 209.24 
L 239.825412 216.063663 
L 238.573675 225.725478 
L 237.321937 230.870192 
L 236.0702 236.326761 
L 234.818463 240.386014 
L 233.566725 243.531587 
L 232.314988 246.770304 
L 231.06325 249.897217 
L 229.811512 252.450667 
L 228.559775 254.781469 
L 227.308037 257.445359 
L 226.0563 259.671673 
L 224.804562 261.512113 
L 223.552825 263.872641 
L 222.301087 265.869643 
L 221.04935 267.531049 
L 219.797612 269.549935 
L 218.545875 271.36409 
L 217.294138 272.88068 
L 216.0424 274.6785 
L 214.790662 276.333892 
L 213.538925 277.719863 
L 212.287187 279.378076 
L 211.03545 280.888776 
L 209.783713 282.150019 
L 208.531975 283.726184 
L 207.280237 285.099137 
L 206.0285 286.311032 
L 204.776763 287.773534 
L 203.525025 289.012303 
L 202.273288 290.235761 
L 201.02155 291.553943 
L 199.769813 292.659739 
L 198.518075 293.914037 
L 197.266337 295.089853 
L 196.0146 296.13099 
L 194.762862 297.361205 
L 193.511125 298.394097 
L 192.259388 299.506463 
L 191.00765 300.586346 
L 189.755913 301.550302 
L 188.504175 302.664528 
L 187.252437 303.592621 
L 186.0007 304.649721 
L 184.748963 305.605959 
L 183.497225 306.558105 
L 182.245487 307.531732 
L 180.99375 308.402079 
L 179.742012 309.383734 
L 178.490275 310.191561 
L 177.238538 311.172255 
L 175.9868 311.981725 
L 174.735063 312.905106 
L 173.483325 313.709152 
L 172.231587 314.588147 
L 170.97985 315.378585 
L 169.728113 316.22491 
L 168.476375 316.994767 
L 167.224637 317.817813 
L 165.9729 318.560269 
L 164.721162 319.367879 
L 163.469425 320.076425 
L 162.217687 320.874984 
L 160.96595 321.556811 
L 159.714213 322.33792 
L 158.462475 323.026008 
L 157.210737 323.75464 
L 155.959 324.451593 
L 154.707262 325.122478 
L 153.455525 325.830156 
L 152.203787 326.463381 
L 150.95205 327.157296 
L 149.700312 327.807755 
L 148.448575 328.428178 
L 147.196838 329.095716 
L 145.9451 329.709692 
L 144.693363 330.321281 
L 143.441625 330.954599 
L 142.189888 331.546072 
L 140.93815 332.128896 
L 139.686412 332.739835 
L 138.434675 333.317576 
L 137.182937 333.868288 
L 135.9312 334.448633 
L 134.679462 335.017261 
L 133.427725 335.563851 
L 132.175988 336.092556 
L 130.92425 336.631738 
L 129.672512 337.173771 
L 128.420775 337.700338 
L 127.169038 338.214102 
L 125.9173 338.717452 
L 124.665562 339.212185 
L 123.413825 339.704314 
L 122.162087 340.201496 
L 120.91035 340.689379 
L 119.658613 341.16911 
L 118.406875 341.641308 
" style="fill:none;stroke:#aa3863;stroke-dasharray:5.55,2.4;stroke-dashoffset:0;stroke-width:1.5;"/>
   </g>
   <g id="line2d_15">
    <path clip-path="url(#pcf4634b067)" d="M 262.356688 209.24 
L 262.356688 205.287809 
L 261.10495 193.918683 
L 259.853212 188.423865 
L 258.601475 184.331787 
L 257.349738 179.942454 
L 256.098 176.435247 
L 254.846262 173.558257 
L 253.594525 171.09042 
L 252.342787 168.135009 
L 251.09105 165.610386 
L 249.839313 163.452699 
L 248.587575 161.481144 
L 247.335838 159.149287 
L 246.0841 157.118251 
L 244.832362 155.360757 
L 243.580625 153.600256 
L 242.328888 151.659171 
L 241.07715 149.958556 
L 239.825412 148.48285 
L 238.573675 146.805017 
L 237.321937 145.15415 
L 236.0702 143.708511 
L 234.818463 142.393707 
L 233.566725 140.791412 
L 232.314988 139.378443 
L 231.06325 138.147763 
L 229.811512 136.768301 
L 228.559775 135.392125 
L 227.308037 134.186831 
L 226.0563 133.014796 
L 224.804562 131.680248 
L 223.552825 130.506881 
L 222.301087 129.48211 
L 221.04935 128.193777 
L 219.797612 127.058752 
L 218.545875 126.075579 
L 217.294138 124.897314 
L 216.0424 123.806738 
L 214.790662 122.861535 
L 213.538925 121.766185 
L 212.287187 120.725265 
L 211.03545 119.824697 
L 209.783713 118.782196 
L 208.531975 117.796109 
L 207.280237 116.946529 
L 206.0285 115.933103 
L 204.776763 115.007366 
L 203.525025 114.20112 
L 202.273288 113.211282 
L 201.02155 112.350916 
L 199.769813 111.528861 
L 198.518075 110.611958 
L 197.266337 109.821984 
L 196.0146 108.973242 
L 194.762862 108.133736 
L 193.511125 107.414435 
L 192.259388 106.534913 
L 191.00765 105.77761 
L 189.755913 105.00828 
L 188.504175 104.216757 
L 187.252437 103.540137 
L 186.0007 102.722329 
L 184.748963 102.02364 
L 183.497225 101.282579 
L 182.245487 100.562875 
L 180.99375 99.88827 
L 179.742012 99.154276 
L 178.490275 98.531993 
L 177.238538 97.790281 
L 175.9868 97.164557 
L 174.735063 96.464659 
L 173.483325 95.835743 
L 172.231587 95.172979 
L 170.97985 94.546697 
L 169.728113 93.912078 
L 168.476375 93.293886 
L 167.224637 92.679786 
L 165.9729 92.074923 
L 164.721162 91.47502 
L 163.469425 90.888507 
L 162.217687 90.29753 
L 160.96595 89.734202 
L 159.714213 89.147844 
L 158.462475 88.612444 
L 157.210737 88.027201 
L 155.959 87.515668 
L 154.707262 86.937493 
L 153.455525 86.418211 
L 152.203787 85.881292 
L 150.95205 85.352897 
L 149.700312 84.861574 
L 148.448575 84.323291 
L 147.196838 83.833269 
L 145.9451 83.333391 
L 144.693363 82.829855 
L 143.441625 82.363856 
L 142.189888 81.871354 
L 140.93815 81.390136 
L 139.686412 80.938426 
L 138.434675 80.468087 
L 137.182937 80.00122 
L 135.9312 79.557476 
L 134.679462 79.123775 
L 133.427725 78.666299 
L 132.175988 78.227608 
L 130.92425 77.804383 
L 129.672512 77.393248 
L 128.420775 76.960414 
L 127.169038 76.539298 
L 125.9173 76.128844 
L 124.665562 75.727348 
L 123.413825 75.333105 
" style="fill:none;stroke:#d97020;stroke-dasharray:5.55,2.4;stroke-dashoffset:0;stroke-width:1.5;"/>
   </g>
   <g id="line2d_16">
    <path clip-path="url(#pcf4634b067)" d="M 262.356688 209.24 
L 262.356688 213.192191 
L 261.10495 224.561317 
L 259.853212 230.056135 
L 258.601475 234.148213 
L 257.349738 238.537546 
L 256.098 242.044753 
L 254.846262 244.921743 
L 253.594525 247.38958 
L 252.342787 250.344991 
L 251.09105 252.869614 
L 249.839313 255.027301 
L 248.587575 256.998856 
L 247.335838 259.330713 
L 246.0841 261.361749 
L 244.832362 263.119243 
L 243.580625 264.879744 
L 242.328888 266.820829 
L 241.07715 268.521444 
L 239.825412 269.99715 
L 238.573675 271.674983 
L 237.321937 273.32585 
L 236.0702 274.771489 
L 234.818463 276.086293 
L 233.566725 277.688588 
L 232.314988 279.101557 
L 231.06325 280.332237 
L 229.811512 281.711699 
L 228.559775 283.087875 
L 227.308037 284.293169 
L 226.0563 285.465204 
L 224.804562 286.799752 
L 223.552825 287.973119 
L 222.301087 288.99789 
L 221.04935 290.286223 
L 219.797612 291.421248 
L 218.545875 292.404421 
L 217.294138 293.582686 
L 216.0424 294.673262 
L 214.790662 295.618465 
L 213.538925 296.713815 
L 212.287187 297.754735 
L 211.03545 298.655303 
L 209.783713 299.697804 
L 208.531975 300.683891 
L 207.280237 301.533471 
L 206.0285 302.546897 
L 204.776763 303.472634 
L 203.525025 304.27888 
L 202.273288 305.268718 
L 201.02155 306.129084 
L 199.769813 306.951139 
L 198.518075 307.868042 
L 197.266337 308.658016 
L 196.0146 309.506758 
L 194.762862 310.346264 
L 193.511125 311.065565 
L 192.259388 311.945087 
L 191.00765 312.70239 
L 189.755913 313.47172 
L 188.504175 314.263243 
L 187.252437 314.939863 
L 186.0007 315.757671 
L 184.748963 316.45636 
L 183.497225 317.197421 
L 182.245487 317.917125 
L 180.99375 318.59173 
L 179.742012 319.325724 
L 178.490275 319.948007 
L 177.238538 320.689719 
L 175.9868 321.315443 
L 174.735063 322.015341 
L 173.483325 322.644257 
L 172.231587 323.307021 
L 170.97985 323.933303 
L 169.728113 324.567922 
L 168.476375 325.186114 
L 167.224637 325.800214 
L 165.9729 326.405077 
L 164.721162 327.00498 
L 163.469425 327.591493 
L 162.217687 328.18247 
L 160.96595 328.745798 
L 159.714213 329.332156 
L 158.462475 329.867556 
L 157.210737 330.452799 
L 155.959 330.964332 
L 154.707262 331.542507 
L 153.455525 332.061789 
L 152.203787 332.598708 
L 150.95205 333.127103 
L 149.700312 333.618426 
L 148.448575 334.156709 
L 147.196838 334.646731 
L 145.9451 335.146609 
L 144.693363 335.650145 
L 143.441625 336.116144 
L 142.189888 336.608646 
L 140.93815 337.089864 
L 139.686412 337.541574 
L 138.434675 338.011913 
L 137.182937 338.47878 
L 135.9312 338.922524 
L 134.679462 339.356225 
L 133.427725 339.813701 
L 132.175988 340.252392 
L 130.92425 340.675617 
L 129.672512 341.086752 
L 128.420775 341.519586 
L 127.169038 341.940702 
L 125.9173 342.351156 
L 124.665562 342.752652 
L 123.413825 343.146895 
" style="fill:none;stroke:#d97020;stroke-dasharray:5.55,2.4;stroke-dashoffset:0;stroke-width:1.5;"/>
   </g>
   <g id="line2d_17">
    <path clip-path="url(#pcf4634b067)" d="M 291.14665 209.24 
L 291.14665 197.592372 
L 289.894913 191.803678 
L 287.391437 182.833299 
L 286.1397 179.371036 
L 284.887962 176.500928 
L 282.384487 171.526135 
L 281.13275 168.914723 
L 279.881012 166.639931 
L 278.629275 164.652382 
L 277.377537 162.920057 
L 274.874063 158.858635 
L 273.622325 157.102133 
L 271.11885 154.043907 
L 268.615375 150.662359 
L 262.356688 143.654577 
L 259.853212 141.203602 
L 257.349738 138.610198 
L 254.846262 136.395942 
L 252.342787 133.988578 
L 249.839313 131.942198 
L 247.335838 129.713002 
L 244.832362 127.785493 
L 242.328888 125.732294 
L 239.825412 123.88894 
L 237.321937 122.012203 
L 236.0702 121.23187 
L 233.566725 119.326895 
L 231.06325 117.693015 
L 228.559775 115.978668 
L 227.308037 115.269471 
L 224.804562 113.554597 
L 222.301087 112.041138 
L 219.797612 110.531615 
L 209.783713 104.812166 
L 199.769813 99.680966 
L 196.0146 97.850073 
L 188.504175 94.395776 
L 184.748963 92.782043 
L 179.742012 90.652035 
L 175.9868 89.162164 
L 170.97985 87.196747 
L 159.714213 83.120074 
L 152.203787 80.602239 
L 137.182937 76.065673 
L 127.169038 73.348036 
L 127.169038 73.348036 
" style="fill:none;stroke:#ef9f07;stroke-dasharray:5.55,2.4;stroke-dashoffset:0;stroke-width:1.5;"/>
   </g>
   <g id="line2d_18">
    <path clip-path="url(#pcf4634b067)" d="M 291.14665 209.24 
L 291.14665 220.887628 
L 289.894913 226.676322 
L 287.391437 235.646701 
L 286.1397 239.108964 
L 284.887962 241.979072 
L 282.384487 246.953865 
L 281.13275 249.565277 
L 279.881012 251.840069 
L 278.629275 253.827618 
L 277.377537 255.559943 
L 274.874063 259.621365 
L 273.622325 261.377867 
L 271.11885 264.436093 
L 268.615375 267.817641 
L 262.356688 274.825423 
L 259.853212 277.276398 
L 257.349738 279.869802 
L 254.846262 282.084058 
L 252.342787 284.491422 
L 249.839313 286.537802 
L 247.335838 288.766998 
L 244.832362 290.694507 
L 242.328888 292.747706 
L 239.825412 294.59106 
L 237.321937 296.467797 
L 236.0702 297.24813 
L 233.566725 299.153105 
L 231.06325 300.786985 
L 228.559775 302.501332 
L 227.308037 303.210529 
L 224.804562 304.925403 
L 222.301087 306.438862 
L 219.797612 307.948385 
L 209.783713 313.667834 
L 199.769813 318.799034 
L 196.0146 320.629927 
L 188.504175 324.084224 
L 184.748963 325.697957 
L 179.742012 327.827965 
L 175.9868 329.317836 
L 170.97985 331.283253 
L 159.714213 335.359926 
L 152.203787 337.877761 
L 137.182937 342.414327 
L 127.169038 345.131964 
L 127.169038 345.131964 
" style="fill:none;stroke:#ef9f07;stroke-dasharray:5.55,2.4;stroke-dashoffset:0;stroke-width:1.5;"/>
   </g>
   <g id="line2d_19">
    <path clip-path="url(#pcf4634b067)" d="M 324.943562 209.24 
L 324.943562 202.104203 
L 323.691825 193.979901 
L 322.440088 189.156619 
L 321.18835 185.532152 
L 317.433137 176.767621 
L 316.1814 174.142105 
L 314.929663 171.856309 
L 313.677925 169.852549 
L 312.426187 168.09366 
L 308.670975 162.217524 
L 306.1675 159.080847 
L 304.915763 157.762262 
L 302.412287 154.402442 
L 299.908813 151.6473 
L 298.657075 150.475575 
L 294.901862 146.391587 
L 292.398387 144.158547 
L 289.894913 141.735158 
L 287.391437 139.497717 
L 284.887962 137.516088 
L 282.384487 135.288411 
L 274.874063 129.594224 
L 273.622325 128.817672 
L 271.11885 126.875161 
L 268.615375 125.240505 
L 267.363638 124.441698 
L 264.860163 122.664367 
L 252.342787 115.148213 
L 247.335838 112.355193 
L 243.580625 110.27977 
L 241.07715 109.009446 
L 238.573675 107.720059 
L 237.321937 107.179482 
L 234.818463 105.84295 
L 231.06325 104.052569 
L 222.301087 100.078277 
L 209.783713 94.882791 
L 207.280237 93.915022 
L 202.273288 92.009087 
L 199.769813 91.084899 
L 188.504175 87.165254 
L 177.238538 83.549714 
L 173.483325 82.439735 
L 167.224637 80.61377 
L 158.462475 78.216511 
L 149.700312 75.972839 
L 139.686412 73.594922 
L 132.175988 71.939655 
L 132.175988 71.939655 
" style="fill:none;stroke:#449775;stroke-dasharray:5.55,2.4;stroke-dashoffset:0;stroke-width:1.5;"/>
   </g>
   <g id="line2d_20">
    <path clip-path="url(#pcf4634b067)" d="M 324.943562 209.24 
L 324.943562 216.375797 
L 323.691825 224.500099 
L 322.440088 229.323381 
L 321.18835 232.947848 
L 317.433137 241.712379 
L 316.1814 244.337895 
L 314.929663 246.623691 
L 313.677925 248.627451 
L 312.426187 250.38634 
L 308.670975 256.262476 
L 306.1675 259.399153 
L 304.915763 260.717738 
L 302.412287 264.077558 
L 299.908813 266.8327 
L 298.657075 268.004425 
L 294.901862 272.088413 
L 292.398387 274.321453 
L 289.894913 276.744842 
L 287.391437 278.982283 
L 284.887962 280.963912 
L 282.384487 283.191589 
L 274.874063 288.885776 
L 273.622325 289.662328 
L 271.11885 291.604839 
L 268.615375 293.239495 
L 267.363638 294.038302 
L 264.860163 295.815633 
L 252.342787 303.331787 
L 247.335838 306.124807 
L 243.580625 308.20023 
L 241.07715 309.470554 
L 238.573675 310.759941 
L 237.321937 311.300518 
L 234.818463 312.63705 
L 231.06325 314.427431 
L 222.301087 318.401723 
L 209.783713 323.597209 
L 207.280237 324.564978 
L 202.273288 326.470913 
L 199.769813 327.395101 
L 188.504175 331.314746 
L 177.238538 334.930286 
L 173.483325 336.040265 
L 167.224637 337.86623 
L 158.462475 340.263489 
L 149.700312 342.507161 
L 139.686412 344.885078 
L 132.175988 346.540345 
L 132.175988 346.540345 
" style="fill:none;stroke:#449775;stroke-dasharray:5.55,2.4;stroke-dashoffset:0;stroke-width:1.5;"/>
   </g>
   <g id="line2d_21">
    <path clip-path="url(#pcf4634b067)" d="M 360.409442 209.24 
L 360.409442 199.66544 
L 359.574983 195.326879 
L 358.740475 192.171635 
L 357.905967 189.622742 
L 356.237 185.592223 
L 355.402492 183.942163 
L 353.733525 179.744356 
L 352.064558 176.280637 
L 350.395542 173.379005 
L 348.726575 170.915941 
L 346.2231 167.584204 
L 344.554133 165.00199 
L 342.885117 162.741394 
L 341.21615 160.762338 
L 339.547183 159.032307 
L 338.712675 158.254732 
L 334.540233 153.424011 
L 332.036758 151.09138 
L 330.367742 149.742325 
L 327.864267 147.134446 
L 325.360792 144.934262 
L 321.18835 141.55727 
L 318.684875 139.473881 
L 316.1814 137.733249 
L 315.346892 137.2259 
L 312.843417 135.150322 
L 310.339942 133.392394 
L 307.836467 131.844529 
L 305.332992 129.986328 
L 302.829517 128.424607 
L 301.16055 127.512074 
L 298.657075 125.769706 
L 296.1536 124.307577 
L 294.484633 123.452077 
L 291.981158 121.830162 
L 289.477683 120.476178 
L 287.808667 119.631249 
L 285.305192 118.135891 
L 282.801717 116.897865 
L 281.967258 116.538772 
L 279.463783 115.092978 
L 276.960308 113.897107 
L 275.291292 113.095107 
L 272.787817 111.791927 
L 256.098 104.302276 
L 247.753067 100.940441 
L 245.249592 99.946326 
L 242.746117 98.995884 
L 240.242642 98.051053 
L 238.573675 97.461998 
L 236.0702 96.502413 
L 233.566725 95.627107 
L 231.06325 94.738255 
L 229.394283 94.178585 
L 226.890808 93.296273 
L 224.387333 92.453947 
L 218.545875 90.551049 
L 216.0424 89.754505 
L 210.200942 87.97987 
L 205.193992 86.495423 
L 201.02155 85.282659 
L 193.511125 83.211668 
L 169.310883 77.249487 
L 165.9729 76.524854 
L 161.800458 75.590654 
L 157.627967 74.706049 
L 140.103642 71.263438 
L 137.600167 70.810116 
L 137.600167 70.810116 
" style="fill:none;stroke:#3b7d86;stroke-dasharray:5.55,2.4;stroke-dashoffset:0;stroke-width:1.5;"/>
   </g>
   <g id="line2d_22">
    <path clip-path="url(#pcf4634b067)" d="M 360.409442 209.24 
L 360.409442 218.81456 
L 359.574983 223.153121 
L 358.740475 226.308365 
L 357.905967 228.857258 
L 356.237 232.887777 
L 355.402492 234.537837 
L 353.733525 238.735644 
L 352.064558 242.199363 
L 350.395542 245.100995 
L 348.726575 247.564059 
L 346.2231 250.895796 
L 344.554133 253.47801 
L 342.885117 255.738606 
L 341.21615 257.717662 
L 339.547183 259.447693 
L 338.712675 260.225268 
L 334.540233 265.055989 
L 332.036758 267.38862 
L 330.367742 268.737675 
L 327.864267 271.345554 
L 325.360792 273.545738 
L 321.18835 276.92273 
L 318.684875 279.006119 
L 316.1814 280.746751 
L 315.346892 281.2541 
L 312.843417 283.329678 
L 310.339942 285.087606 
L 307.836467 286.635471 
L 305.332992 288.493672 
L 302.829517 290.055393 
L 301.16055 290.967926 
L 298.657075 292.710294 
L 296.1536 294.172423 
L 294.484633 295.027923 
L 291.981158 296.649838 
L 289.477683 298.003822 
L 287.808667 298.848751 
L 285.305192 300.344109 
L 282.801717 301.582135 
L 281.967258 301.941228 
L 279.463783 303.387022 
L 276.960308 304.582893 
L 275.291292 305.384893 
L 272.787817 306.688073 
L 256.098 314.177724 
L 247.753067 317.539559 
L 245.249592 318.533674 
L 242.746117 319.484116 
L 240.242642 320.428947 
L 238.573675 321.018002 
L 236.0702 321.977587 
L 233.566725 322.852893 
L 231.06325 323.741745 
L 229.394283 324.301415 
L 226.890808 325.183727 
L 224.387333 326.026053 
L 218.545875 327.928951 
L 216.0424 328.725495 
L 210.200942 330.50013 
L 205.193992 331.984577 
L 201.02155 333.197341 
L 193.511125 335.268332 
L 169.310883 341.230513 
L 165.9729 341.955146 
L 161.800458 342.889346 
L 157.627967 343.773951 
L 140.103642 347.216562 
L 137.600167 347.669884 
L 137.600167 347.669884 
" style="fill:none;stroke:#3b7d86;stroke-dasharray:5.55,2.4;stroke-dashoffset:0;stroke-width:1.5;"/>
   </g>
   <g id="line2d_23">
    <path clip-path="url(#pcf4634b067)" d="M 556.515 209.24 
L 360.979783 209.24 
L 360.979783 209.24 
" style="fill:none;stroke:#000000;stroke-dasharray:5.55,2.4;stroke-dashoffset:0;stroke-width:1.5;"/>
   </g>
   <g id="line2d_24">
    <path clip-path="url(#pcf4634b067)" d="M 359.992212 209.24 
L 62.078687 209.24 
L 62.078687 209.24 
" style="fill:none;stroke:#000000;stroke-linecap:square;stroke-width:1.5;"/>
   </g>
   <g id="line2d_25">
    <path clip-path="url(#pcf4634b067)" d="M 556.515 364.221818 
L 546.5011 364.221818 
L 541.49415 364.221818 
L 536.4872 364.221818 
L 531.48025 364.221818 
L 526.4733 364.221818 
L 521.46635 364.221818 
L 516.4594 364.221818 
L 511.45245 364.221818 
L 506.4455 364.221818 
L 501.43855 364.221818 
L 496.4316 364.221818 
L 491.42465 364.221818 
L 486.4177 364.221818 
L 481.41075 364.221818 
L 476.4038 364.221818 
L 471.39685 364.221818 
L 466.3899 364.221818 
L 461.38295 364.221818 
L 456.376 364.221818 
L 451.36905 364.221818 
L 446.3621 364.221818 
L 441.35515 364.221818 
L 436.3482 364.221818 
L 431.34125 364.221818 
L 426.3343 364.221818 
L 421.32735 364.221818 
L 416.3204 364.221818 
L 411.31345 364.221818 
L 406.3065 364.221818 
L 401.29955 364.221818 
L 396.2926 364.221818 
L 391.28565 364.221818 
L 386.2787 364.221818 
L 381.27175 364.221818 
L 376.2648 364.221818 
L 371.25785 364.221818 
L 366.2509 364.221818 
L 361.24395 364.221818 
L 356.237 364.221818 
L 351.23005 364.221818 
L 346.2231 364.221818 
L 341.21615 364.221818 
L 336.2092 364.221818 
L 331.20225 364.221818 
L 326.1953 364.221818 
L 321.18835 364.221818 
L 316.1814 364.221818 
L 311.17445 364.221818 
L 306.1675 364.221818 
L 301.16055 364.221818 
L 296.1536 364.221818 
L 291.14665 364.221818 
L 286.1397 364.221818 
L 281.13275 364.221818 
L 276.1258 364.221818 
L 271.11885 364.221818 
L 266.1119 364.221818 
L 261.10495 364.221818 
L 256.098 364.221818 
L 251.09105 364.221818 
L 246.0841 364.221818 
L 241.07715 364.221818 
L 236.0702 364.221818 
L 231.06325 364.221818 
L 226.0563 364.221818 
L 221.04935 364.221818 
L 216.0424 364.221818 
L 211.03545 364.221818 
L 206.0285 364.221818 
L 201.02155 364.221818 
L 196.0146 364.221818 
L 191.00765 364.221818 
L 186.0007 364.221818 
L 180.99375 364.221818 
L 175.9868 364.221818 
L 170.97985 364.221818 
L 165.9729 364.221818 
L 160.96595 364.221818 
L 155.959 364.221818 
L 150.95205 364.221818 
L 145.9451 364.221818 
L 140.93815 364.221818 
L 135.9312 364.221818 
L 130.92425 364.221818 
L 125.9173 364.221818 
L 120.91035 364.221818 
L 115.9034 364.221818 
L 110.89645 364.221818 
L 105.8895 364.221818 
L 100.88255 364.221818 
L 95.8756 364.221818 
L 90.86865 364.221818 
L 85.8617 364.221818 
L 80.85475 364.221818 
L 75.8478 364.221818 
L 70.84085 364.221818 
L 65.8339 364.221818 
L 60.82695 364.221818 
L 55.82 364.221818 
" style="fill:none;stroke:#000000;stroke-linecap:square;stroke-width:1.5;"/>
   </g>
   <g id="line2d_26">
    <path clip-path="url(#pcf4634b067)" d="M 556.515 54.258182 
L 546.5011 54.258182 
L 541.49415 54.258182 
L 536.4872 54.258182 
L 531.48025 54.258182 
L 526.4733 54.258182 
L 521.46635 54.258182 
L 516.4594 54.258182 
L 511.45245 54.258182 
L 506.4455 54.258182 
L 501.43855 54.258182 
L 496.4316 54.258182 
L 491.42465 54.258182 
L 486.4177 54.258182 
L 481.41075 54.258182 
L 476.4038 54.258182 
L 471.39685 54.258182 
L 466.3899 54.258182 
L 461.38295 54.258182 
L 456.376 54.258182 
L 451.36905 54.258182 
L 446.3621 54.258182 
L 441.35515 54.258182 
L 436.3482 54.258182 
L 431.34125 54.258182 
L 426.3343 54.258182 
L 421.32735 54.258182 
L 416.3204 54.258182 
L 411.31345 54.258182 
L 406.3065 54.258182 
L 401.29955 54.258182 
L 396.2926 54.258182 
L 391.28565 54.258182 
L 386.2787 54.258182 
L 381.27175 54.258182 
L 376.2648 54.258182 
L 371.25785 54.258182 
L 366.2509 54.258182 
L 361.24395 54.258182 
L 356.237 54.258182 
L 351.23005 54.258182 
L 346.2231 54.258182 
L 341.21615 54.258182 
L 336.2092 54.258182 
L 331.20225 54.258182 
L 326.1953 54.258182 
L 321.18835 54.258182 
L 316.1814 54.258182 
L 311.17445 54.258182 
L 306.1675 54.258182 
L 301.16055 54.258182 
L 296.1536 54.258182 
L 291.14665 54.258182 
L 286.1397 54.258182 
L 281.13275 54.258182 
L 276.1258 54.258182 
L 271.11885 54.258182 
L 266.1119 54.258182 
L 261.10495 54.258182 
L 256.098 54.258182 
L 251.09105 54.258182 
L 246.0841 54.258182 
L 241.07715 54.258182 
L 236.0702 54.258182 
L 231.06325 54.258182 
L 226.0563 54.258182 
L 221.04935 54.258182 
L 216.0424 54.258182 
L 211.03545 54.258182 
L 206.0285 54.258182 
L 201.02155 54.258182 
L 196.0146 54.258182 
L 191.00765 54.258182 
L 186.0007 54.258182 
L 180.99375 54.258182 
L 175.9868 54.258182 
L 170.97985 54.258182 
L 165.9729 54.258182 
L 160.96595 54.258182 
L 155.959 54.258182 
L 150.95205 54.258182 
L 145.9451 54.258182 
L 140.93815 54.258182 
L 135.9312 54.258182 
L 130.92425 54.258182 
L 125.9173 54.258182 
L 120.91035 54.258182 
L 115.9034 54.258182 
L 110.89645 54.258182 
L 105.8895 54.258182 
L 100.88255 54.258182 
L 95.8756 54.258182 
L 90.86865 54.258182 
L 85.8617 54.258182 
L 80.85475 54.258182 
L 75.8478 54.258182 
L 70.84085 54.258182 
L 65.8339 54.258182 
L 60.82695 54.258182 
L 55.82 54.258182 
" style="fill:none;stroke:#000000;stroke-linecap:square;stroke-width:1.5;"/>
   </g>
   <g id="patch_3">
    <path d="M 55.82 379.72 
L 55.82 38.76 
" style="fill:none;stroke:#000000;stroke-linecap:square;stroke-linejoin:miter;stroke-width:0.8;"/>
   </g>
   <g id="patch_4">
    <path d="M 556.515 379.72 
L 556.515 38.76 
" style="fill:none;stroke:#000000;stroke-linecap:square;stroke-linejoin:miter;stroke-width:0.8;"/>
   </g>
   <g id="patch_5">
    <path d="M 55.82 379.72 
L 556.515 379.72 
" style="fill:none;stroke:#000000;stroke-linecap:square;stroke-linejoin:miter;stroke-width:0.8;"/>
   </g>
   <g id="patch_6">
    <path d="M 55.82 38.76 
L 556.515 38.76 
" style="fill:none;stroke:#000000;stroke-linecap:square;stroke-linejoin:miter;stroke-width:0.8;"/>
   </g>
   <g id="text_15">
    <!-- Bifurcation diagram for two coupled neurons, various $\alpha$ -->
    <g transform="translate(98.5675 23.76)scale(0.15 -0.15)">
     <defs>
      <path d="M 19.671875 34.8125 
L 19.671875 8.109375 
L 35.5 8.109375 
Q 43.453125 8.109375 47.28125 11.40625 
Q 51.125 14.703125 51.125 21.484375 
Q 51.125 28.328125 47.28125 31.5625 
Q 43.453125 34.8125 35.5 34.8125 
z
M 19.671875 64.796875 
L 19.671875 42.828125 
L 34.28125 42.828125 
Q 41.5 42.828125 45.03125 45.53125 
Q 48.578125 48.25 48.578125 53.8125 
Q 48.578125 59.328125 45.03125 62.0625 
Q 41.5 64.796875 34.28125 64.796875 
z
M 9.8125 72.90625 
L 35.015625 72.90625 
Q 46.296875 72.90625 52.390625 68.21875 
Q 58.5 63.53125 58.5 54.890625 
Q 58.5 48.1875 55.375 44.234375 
Q 52.25 40.28125 46.1875 39.3125 
Q 53.46875 37.75 57.5 32.78125 
Q 61.53125 27.828125 61.53125 20.40625 
Q 61.53125 10.640625 54.890625 5.3125 
Q 48.25 0 35.984375 0 
L 9.8125 0 
z
" id="DejaVuSans-66"/>
      <path d="M 30.609375 48.390625 
Q 23.390625 48.390625 19.1875 42.75 
Q 14.984375 37.109375 14.984375 27.296875 
Q 14.984375 17.484375 19.15625 11.84375 
Q 23.34375 6.203125 30.609375 6.203125 
Q 37.796875 6.203125 41.984375 11.859375 
Q 46.1875 17.53125 46.1875 27.296875 
Q 46.1875 37.015625 41.984375 42.703125 
Q 37.796875 48.390625 30.609375 48.390625 
z
M 30.609375 56 
Q 42.328125 56 49.015625 48.375 
Q 55.71875 40.765625 55.71875 27.296875 
Q 55.71875 13.875 49.015625 6.21875 
Q 42.328125 -1.421875 30.609375 -1.421875 
Q 18.84375 -1.421875 12.171875 6.21875 
Q 5.515625 13.875 5.515625 27.296875 
Q 5.515625 40.765625 12.171875 48.375 
Q 18.84375 56 30.609375 56 
z
" id="DejaVuSans-111"/>
      <path d="M 45.40625 46.390625 
L 45.40625 75.984375 
L 54.390625 75.984375 
L 54.390625 0 
L 45.40625 0 
L 45.40625 8.203125 
Q 42.578125 3.328125 38.25 0.953125 
Q 33.9375 -1.421875 27.875 -1.421875 
Q 17.96875 -1.421875 11.734375 6.484375 
Q 5.515625 14.40625 5.515625 27.296875 
Q 5.515625 40.1875 11.734375 48.09375 
Q 17.96875 56 27.875 56 
Q 33.9375 56 38.25 53.625 
Q 42.578125 51.265625 45.40625 46.390625 
z
M 14.796875 27.296875 
Q 14.796875 17.390625 18.875 11.75 
Q 22.953125 6.109375 30.078125 6.109375 
Q 37.203125 6.109375 41.296875 11.75 
Q 45.40625 17.390625 45.40625 27.296875 
Q 45.40625 37.203125 41.296875 42.84375 
Q 37.203125 48.484375 30.078125 48.484375 
Q 22.953125 48.484375 18.875 42.84375 
Q 14.796875 37.203125 14.796875 27.296875 
z
" id="DejaVuSans-100"/>
      <path d="M 45.40625 27.984375 
Q 45.40625 37.75 41.375 43.109375 
Q 37.359375 48.484375 30.078125 48.484375 
Q 22.859375 48.484375 18.828125 43.109375 
Q 14.796875 37.75 14.796875 27.984375 
Q 14.796875 18.265625 18.828125 12.890625 
Q 22.859375 7.515625 30.078125 7.515625 
Q 37.359375 7.515625 41.375 12.890625 
Q 45.40625 18.265625 45.40625 27.984375 
z
M 54.390625 6.78125 
Q 54.390625 -7.171875 48.1875 -13.984375 
Q 42 -20.796875 29.203125 -20.796875 
Q 24.46875 -20.796875 20.265625 -20.09375 
Q 16.0625 -19.390625 12.109375 -17.921875 
L 12.109375 -9.1875 
Q 16.0625 -11.328125 19.921875 -12.34375 
Q 23.78125 -13.375 27.78125 -13.375 
Q 36.625 -13.375 41.015625 -8.765625 
Q 45.40625 -4.15625 45.40625 5.171875 
L 45.40625 9.625 
Q 42.625 4.78125 38.28125 2.390625 
Q 33.9375 0 27.875 0 
Q 17.828125 0 11.671875 7.65625 
Q 5.515625 15.328125 5.515625 27.984375 
Q 5.515625 40.671875 11.671875 48.328125 
Q 17.828125 56 27.875 56 
Q 33.9375 56 38.28125 53.609375 
Q 42.625 51.21875 45.40625 46.390625 
L 45.40625 54.6875 
L 54.390625 54.6875 
z
" id="DejaVuSans-103"/>
      <path d="M 52 44.1875 
Q 55.375 50.25 60.0625 53.125 
Q 64.75 56 71.09375 56 
Q 79.640625 56 84.28125 50.015625 
Q 88.921875 44.046875 88.921875 33.015625 
L 88.921875 0 
L 79.890625 0 
L 79.890625 32.71875 
Q 79.890625 40.578125 77.09375 44.375 
Q 74.3125 48.1875 68.609375 48.1875 
Q 61.625 48.1875 57.5625 43.546875 
Q 53.515625 38.921875 53.515625 30.90625 
L 53.515625 0 
L 44.484375 0 
L 44.484375 32.71875 
Q 44.484375 40.625 41.703125 44.40625 
Q 38.921875 48.1875 33.109375 48.1875 
Q 26.21875 48.1875 22.15625 43.53125 
Q 18.109375 38.875 18.109375 30.90625 
L 18.109375 0 
L 9.078125 0 
L 9.078125 54.6875 
L 18.109375 54.6875 
L 18.109375 46.1875 
Q 21.1875 51.21875 25.484375 53.609375 
Q 29.78125 56 35.6875 56 
Q 41.65625 56 45.828125 52.96875 
Q 50 49.953125 52 44.1875 
z
" id="DejaVuSans-109"/>
      <path d="M 4.203125 54.6875 
L 13.1875 54.6875 
L 24.421875 12.015625 
L 35.59375 54.6875 
L 46.1875 54.6875 
L 57.421875 12.015625 
L 68.609375 54.6875 
L 77.59375 54.6875 
L 63.28125 0 
L 52.6875 0 
L 40.921875 44.828125 
L 29.109375 0 
L 18.5 0 
z
" id="DejaVuSans-119"/>
      <path d="M 18.109375 8.203125 
L 18.109375 -20.796875 
L 9.078125 -20.796875 
L 9.078125 54.6875 
L 18.109375 54.6875 
L 18.109375 46.390625 
Q 20.953125 51.265625 25.265625 53.625 
Q 29.59375 56 35.59375 56 
Q 45.5625 56 51.78125 48.09375 
Q 58.015625 40.1875 58.015625 27.296875 
Q 58.015625 14.40625 51.78125 6.484375 
Q 45.5625 -1.421875 35.59375 -1.421875 
Q 29.59375 -1.421875 25.265625 0.953125 
Q 20.953125 3.328125 18.109375 8.203125 
z
M 48.6875 27.296875 
Q 48.6875 37.203125 44.609375 42.84375 
Q 40.53125 48.484375 33.40625 48.484375 
Q 26.265625 48.484375 22.1875 42.84375 
Q 18.109375 37.203125 18.109375 27.296875 
Q 18.109375 17.390625 22.1875 11.75 
Q 26.265625 6.109375 33.40625 6.109375 
Q 40.53125 6.109375 44.609375 11.75 
Q 48.6875 17.390625 48.6875 27.296875 
z
" id="DejaVuSans-112"/>
      <path d="M 9.421875 75.984375 
L 18.40625 75.984375 
L 18.40625 0 
L 9.421875 0 
z
" id="DejaVuSans-108"/>
      <path d="M 11.71875 12.40625 
L 22.015625 12.40625 
L 22.015625 4 
L 14.015625 -11.625 
L 7.71875 -11.625 
L 11.71875 4 
z
" id="DejaVuSans-44"/>
      <path d="M 2.984375 54.6875 
L 12.5 54.6875 
L 29.59375 8.796875 
L 46.6875 54.6875 
L 56.203125 54.6875 
L 35.6875 0 
L 23.484375 0 
z
" id="DejaVuSans-118"/>
      <path d="M 40.921875 25.4375 
L 40.96875 36.71875 
Q 41.015625 48.25 32.328125 48.296875 
Q 25.828125 48.34375 21.78125 42.921875 
Q 16.703125 36.234375 14.984375 27.296875 
Q 12.890625 16.546875 15.53125 11.421875 
Q 18.265625 6.203125 24.171875 6.203125 
Q 30.71875 6.203125 36.234375 16.609375 
z
M 33.84375 55.90625 
Q 49.078125 56.15625 48.875 40.375 
Q 48.875 40.375 56.5 54.6875 
L 64.5 54.6875 
L 48.734375 25.046875 
L 48.578125 14.359375 
Q 48.578125 11.96875 49.90625 9.96875 
Q 51.421875 7.625 52.984375 7.625 
L 57.328125 7.625 
L 55.859375 0 
L 50.4375 0 
Q 45.84375 0 42.53125 4.109375 
Q 40.96875 6.15625 40.921875 10.453125 
Q 37.75 5.21875 32.28125 0.78125 
Q 29.6875 -1.265625 22.703125 -1.21875 
Q 11.28125 -1.125 7.125 6.203125 
Q 2.875 13.8125 5.515625 27.296875 
Q 8.34375 41.796875 15.765625 48.390625 
Q 24.125 55.765625 33.84375 55.90625 
z
" id="DejaVuSans-Oblique-945"/>
     </defs>
     <use transform="translate(0 0.015625)" xlink:href="#DejaVuSans-66"/>
     <use transform="translate(68.603516 0.015625)" xlink:href="#DejaVuSans-105"/>
     <use transform="translate(96.386719 0.015625)" xlink:href="#DejaVuSans-102"/>
     <use transform="translate(131.591797 0.015625)" xlink:href="#DejaVuSans-117"/>
     <use transform="translate(194.970703 0.015625)" xlink:href="#DejaVuSans-114"/>
     <use transform="translate(236.083984 0.015625)" xlink:href="#DejaVuSans-99"/>
     <use transform="translate(291.064453 0.015625)" xlink:href="#DejaVuSans-97"/>
     <use transform="translate(352.34375 0.015625)" xlink:href="#DejaVuSans-116"/>
     <use transform="translate(391.552734 0.015625)" xlink:href="#DejaVuSans-105"/>
     <use transform="translate(419.335938 0.015625)" xlink:href="#DejaVuSans-111"/>
     <use transform="translate(480.517578 0.015625)" xlink:href="#DejaVuSans-110"/>
     <use transform="translate(543.896484 0.015625)" xlink:href="#DejaVuSans-32"/>
     <use transform="translate(575.683594 0.015625)" xlink:href="#DejaVuSans-100"/>
     <use transform="translate(639.160156 0.015625)" xlink:href="#DejaVuSans-105"/>
     <use transform="translate(666.943359 0.015625)" xlink:href="#DejaVuSans-97"/>
     <use transform="translate(728.222656 0.015625)" xlink:href="#DejaVuSans-103"/>
     <use transform="translate(791.699219 0.015625)" xlink:href="#DejaVuSans-114"/>
     <use transform="translate(832.8125 0.015625)" xlink:href="#DejaVuSans-97"/>
     <use transform="translate(894.091797 0.015625)" xlink:href="#DejaVuSans-109"/>
     <use transform="translate(991.503906 0.015625)" xlink:href="#DejaVuSans-32"/>
     <use transform="translate(1023.291016 0.015625)" xlink:href="#DejaVuSans-102"/>
     <use transform="translate(1058.496094 0.015625)" xlink:href="#DejaVuSans-111"/>
     <use transform="translate(1119.677734 0.015625)" xlink:href="#DejaVuSans-114"/>
     <use transform="translate(1160.791016 0.015625)" xlink:href="#DejaVuSans-32"/>
     <use transform="translate(1192.578125 0.015625)" xlink:href="#DejaVuSans-116"/>
     <use transform="translate(1231.787109 0.015625)" xlink:href="#DejaVuSans-119"/>
     <use transform="translate(1313.574219 0.015625)" xlink:href="#DejaVuSans-111"/>
     <use transform="translate(1374.755859 0.015625)" xlink:href="#DejaVuSans-32"/>
     <use transform="translate(1406.542969 0.015625)" xlink:href="#DejaVuSans-99"/>
     <use transform="translate(1461.523438 0.015625)" xlink:href="#DejaVuSans-111"/>
     <use transform="translate(1522.705078 0.015625)" xlink:href="#DejaVuSans-117"/>
     <use transform="translate(1586.083984 0.015625)" xlink:href="#DejaVuSans-112"/>
     <use transform="translate(1649.560547 0.015625)" xlink:href="#DejaVuSans-108"/>
     <use transform="translate(1677.34375 0.015625)" xlink:href="#DejaVuSans-101"/>
     <use transform="translate(1738.867188 0.015625)" xlink:href="#DejaVuSans-100"/>
     <use transform="translate(1802.34375 0.015625)" xlink:href="#DejaVuSans-32"/>
     <use transform="translate(1834.130859 0.015625)" xlink:href="#DejaVuSans-110"/>
     <use transform="translate(1897.509766 0.015625)" xlink:href="#DejaVuSans-101"/>
     <use transform="translate(1959.033203 0.015625)" xlink:href="#DejaVuSans-117"/>
     <use transform="translate(2022.412109 0.015625)" xlink:href="#DejaVuSans-114"/>
     <use transform="translate(2063.525391 0.015625)" xlink:href="#DejaVuSans-111"/>
     <use transform="translate(2124.707031 0.015625)" xlink:href="#DejaVuSans-110"/>
     <use transform="translate(2188.085938 0.015625)" xlink:href="#DejaVuSans-115"/>
     <use transform="translate(2240.185547 0.015625)" xlink:href="#DejaVuSans-44"/>
     <use transform="translate(2271.972656 0.015625)" xlink:href="#DejaVuSans-32"/>
     <use transform="translate(2303.759766 0.015625)" xlink:href="#DejaVuSans-118"/>
     <use transform="translate(2362.939453 0.015625)" xlink:href="#DejaVuSans-97"/>
     <use transform="translate(2424.21875 0.015625)" xlink:href="#DejaVuSans-114"/>
     <use transform="translate(2465.332031 0.015625)" xlink:href="#DejaVuSans-105"/>
     <use transform="translate(2493.115234 0.015625)" xlink:href="#DejaVuSans-111"/>
     <use transform="translate(2554.296875 0.015625)" xlink:href="#DejaVuSans-117"/>
     <use transform="translate(2617.675781 0.015625)" xlink:href="#DejaVuSans-115"/>
     <use transform="translate(2669.775391 0.015625)" xlink:href="#DejaVuSans-32"/>
     <use transform="translate(2701.5625 0.015625)" xlink:href="#DejaVuSans-Oblique-945"/>
    </g>
   </g>
   <g id="legend_1">
    <g id="patch_7">
     <path d="M 475.335 145.337688 
L 548.815 145.337688 
Q 551.015 145.337688 551.015 143.137688 
L 551.015 63.508 
Q 551.015 61.308 548.815 61.308 
L 475.335 61.308 
Q 473.135 61.308 473.135 63.508 
L 473.135 143.137688 
Q 473.135 145.337688 475.335 145.337688 
z
" style="fill:#ffffff;opacity:0.8;stroke:#cccccc;stroke-linejoin:miter;"/>
    </g>
    <g id="line2d_27">
     <path d="M 477.535 70.216281 
L 499.535 70.216281 
" style="fill:none;stroke:#aa3863;stroke-dasharray:5.55,2.4;stroke-dashoffset:0;stroke-width:1.5;"/>
    </g>
    <g id="line2d_28"/>
    <g id="text_16">
     <!-- $\alpha = 2$ -->
     <g transform="translate(508.335 74.066281)scale(0.11 -0.11)">
      <defs>
       <path d="M 10.59375 45.40625 
L 73.1875 45.40625 
L 73.1875 37.203125 
L 10.59375 37.203125 
z
M 10.59375 25.484375 
L 73.1875 25.484375 
L 73.1875 17.1875 
L 10.59375 17.1875 
z
" id="DejaVuSans-61"/>
      </defs>
      <use transform="translate(0 0.78125)" xlink:href="#DejaVuSans-Oblique-945"/>
      <use transform="translate(85.400391 0.78125)" xlink:href="#DejaVuSans-61"/>
      <use transform="translate(188.671875 0.78125)" xlink:href="#DejaVuSans-50"/>
     </g>
    </g>
    <g id="line2d_29">
     <path d="M 477.535 86.362219 
L 499.535 86.362219 
" style="fill:none;stroke:#d97020;stroke-dasharray:5.55,2.4;stroke-dashoffset:0;stroke-width:1.5;"/>
    </g>
    <g id="line2d_30"/>
    <g id="text_17">
     <!-- $\alpha = 2.5$ -->
     <g transform="translate(508.335 90.212219)scale(0.11 -0.11)">
      <defs>
       <path d="M 10.796875 72.90625 
L 49.515625 72.90625 
L 49.515625 64.59375 
L 19.828125 64.59375 
L 19.828125 46.734375 
Q 21.96875 47.46875 24.109375 47.828125 
Q 26.265625 48.1875 28.421875 48.1875 
Q 40.625 48.1875 47.75 41.5 
Q 54.890625 34.8125 54.890625 23.390625 
Q 54.890625 11.625 47.5625 5.09375 
Q 40.234375 -1.421875 26.90625 -1.421875 
Q 22.3125 -1.421875 17.546875 -0.640625 
Q 12.796875 0.140625 7.71875 1.703125 
L 7.71875 11.625 
Q 12.109375 9.234375 16.796875 8.0625 
Q 21.484375 6.890625 26.703125 6.890625 
Q 35.15625 6.890625 40.078125 11.328125 
Q 45.015625 15.765625 45.015625 23.390625 
Q 45.015625 31 40.078125 35.4375 
Q 35.15625 39.890625 26.703125 39.890625 
Q 22.75 39.890625 18.8125 39.015625 
Q 14.890625 38.140625 10.796875 36.28125 
z
" id="DejaVuSans-53"/>
      </defs>
      <use transform="translate(0 0.78125)" xlink:href="#DejaVuSans-Oblique-945"/>
      <use transform="translate(85.400391 0.78125)" xlink:href="#DejaVuSans-61"/>
      <use transform="translate(188.671875 0.78125)" xlink:href="#DejaVuSans-50"/>
      <use transform="translate(252.294922 0.78125)" xlink:href="#DejaVuSans-46"/>
      <use transform="translate(284.082031 0.78125)" xlink:href="#DejaVuSans-53"/>
     </g>
    </g>
    <g id="line2d_31">
     <path d="M 477.535 102.508156 
L 499.535 102.508156 
" style="fill:none;stroke:#ef9f07;stroke-dasharray:5.55,2.4;stroke-dashoffset:0;stroke-width:1.5;"/>
    </g>
    <g id="line2d_32"/>
    <g id="text_18">
     <!-- $\alpha = 3$ -->
     <g transform="translate(508.335 106.358156)scale(0.11 -0.11)">
      <defs>
       <path d="M 40.578125 39.3125 
Q 47.65625 37.796875 51.625 33 
Q 55.609375 28.21875 55.609375 21.1875 
Q 55.609375 10.40625 48.1875 4.484375 
Q 40.765625 -1.421875 27.09375 -1.421875 
Q 22.515625 -1.421875 17.65625 -0.515625 
Q 12.796875 0.390625 7.625 2.203125 
L 7.625 11.71875 
Q 11.71875 9.328125 16.59375 8.109375 
Q 21.484375 6.890625 26.8125 6.890625 
Q 36.078125 6.890625 40.9375 10.546875 
Q 45.796875 14.203125 45.796875 21.1875 
Q 45.796875 27.640625 41.28125 31.265625 
Q 36.765625 34.90625 28.71875 34.90625 
L 20.21875 34.90625 
L 20.21875 43.015625 
L 29.109375 43.015625 
Q 36.375 43.015625 40.234375 45.921875 
Q 44.09375 48.828125 44.09375 54.296875 
Q 44.09375 59.90625 40.109375 62.90625 
Q 36.140625 65.921875 28.71875 65.921875 
Q 24.65625 65.921875 20.015625 65.03125 
Q 15.375 64.15625 9.8125 62.3125 
L 9.8125 71.09375 
Q 15.4375 72.65625 20.34375 73.4375 
Q 25.25 74.21875 29.59375 74.21875 
Q 40.828125 74.21875 47.359375 69.109375 
Q 53.90625 64.015625 53.90625 55.328125 
Q 53.90625 49.265625 50.4375 45.09375 
Q 46.96875 40.921875 40.578125 39.3125 
z
" id="DejaVuSans-51"/>
      </defs>
      <use transform="translate(0 0.78125)" xlink:href="#DejaVuSans-Oblique-945"/>
      <use transform="translate(85.400391 0.78125)" xlink:href="#DejaVuSans-61"/>
      <use transform="translate(188.671875 0.78125)" xlink:href="#DejaVuSans-51"/>
     </g>
    </g>
    <g id="line2d_33">
     <path d="M 477.535 118.654094 
L 499.535 118.654094 
" style="fill:none;stroke:#449775;stroke-dasharray:5.55,2.4;stroke-dashoffset:0;stroke-width:1.5;"/>
    </g>
    <g id="line2d_34"/>
    <g id="text_19">
     <!-- $\alpha = 3.5$ -->
     <g transform="translate(508.335 122.504094)scale(0.11 -0.11)">
      <use transform="translate(0 0.78125)" xlink:href="#DejaVuSans-Oblique-945"/>
      <use transform="translate(85.400391 0.78125)" xlink:href="#DejaVuSans-61"/>
      <use transform="translate(188.671875 0.78125)" xlink:href="#DejaVuSans-51"/>
      <use transform="translate(252.294922 0.78125)" xlink:href="#DejaVuSans-46"/>
      <use transform="translate(284.082031 0.78125)" xlink:href="#DejaVuSans-53"/>
     </g>
    </g>
    <g id="line2d_35">
     <path d="M 477.535 134.800031 
L 499.535 134.800031 
" style="fill:none;stroke:#3b7d86;stroke-dasharray:5.55,2.4;stroke-dashoffset:0;stroke-width:1.5;"/>
    </g>
    <g id="line2d_36"/>
    <g id="text_20">
     <!-- $\alpha = 4$ -->
     <g transform="translate(508.335 138.650031)scale(0.11 -0.11)">
      <use transform="translate(0 0.09375)" xlink:href="#DejaVuSans-Oblique-945"/>
      <use transform="translate(85.400391 0.09375)" xlink:href="#DejaVuSans-61"/>
      <use transform="translate(188.671875 0.09375)" xlink:href="#DejaVuSans-52"/>
     </g>
    </g>
   </g>
  </g>
 </g>
 <defs>
  <clipPath id="pcf4634b067">
   <rect height="340.96" width="500.695" x="55.82" y="38.76"/>
  </clipPath>
 </defs>
</svg>
