<?xml version="1.0" encoding="utf-8" standalone="no"?>
<!DOCTYPE svg PUBLIC "-//W3C//DTD SVG 1.1//EN"
  "http://www.w3.org/Graphics/SVG/1.1/DTD/svg11.dtd">
<!-- Created with matplotlib (https://matplotlib.org/) -->
<svg height="345.6pt" version="1.1" viewBox="0 0 460.8 345.6" width="460.8pt" xmlns="http://www.w3.org/2000/svg" xmlns:xlink="http://www.w3.org/1999/xlink">
 <metadata>
  <rdf:RDF xmlns:cc="http://creativecommons.org/ns#" xmlns:dc="http://purl.org/dc/elements/1.1/" xmlns:rdf="http://www.w3.org/1999/02/22-rdf-syntax-ns#">
   <cc:Work>
    <dc:type rdf:resource="http://purl.org/dc/dcmitype/StillImage"/>
    <dc:date>2021-08-16T13:18:48.286351</dc:date>
    <dc:format>image/svg+xml</dc:format>
    <dc:creator>
     <cc:Agent>
      <dc:title>Matplotlib v3.3.3, https://matplotlib.org/</dc:title>
     </cc:Agent>
    </dc:creator>
   </cc:Work>
  </rdf:RDF>
 </metadata>
 <defs>
  <style type="text/css">*{stroke-linecap:butt;stroke-linejoin:round;}</style>
 </defs>
 <g id="figure_1">
  <g id="patch_1">
   <path d="M 0 345.6 
L 460.8 345.6 
L 460.8 0 
L 0 0 
z
" style="fill:#ffffff;"/>
  </g>
  <g id="axes_1">
   <g id="patch_2">
    <path d="M 57.6 307.584 
L 414.72 307.584 
L 414.72 41.472 
L 57.6 41.472 
z
" style="fill:#ffffff;"/>
   </g>
   <g id="patch_3">
    <path clip-path="url(#p73c54492d0)" d="M 62.9568 307.584 
L 62.9568 41.472 
L 204.912 41.472 
L 204.912 307.584 
z
" style="fill:#333333;opacity:0.1;"/>
   </g>
   <g id="matplotlib.axis_1">
    <g id="xtick_1">
     <g id="line2d_1">
      <defs>
       <path d="M 0 0 
L 0 3.5 
" id="m68ec3f64ba" style="stroke:#000000;stroke-width:0.8;"/>
      </defs>
      <g>
       <use style="stroke:#000000;stroke-width:0.8;" x="57.6" xlink:href="#m68ec3f64ba" y="307.584"/>
      </g>
     </g>
     <g id="text_1">
      <!-- 1.0 -->
      <g transform="translate(49.648438 322.182437)scale(0.1 -0.1)">
       <defs>
        <path d="M 12.40625 8.296875 
L 28.515625 8.296875 
L 28.515625 63.921875 
L 10.984375 60.40625 
L 10.984375 69.390625 
L 28.421875 72.90625 
L 38.28125 72.90625 
L 38.28125 8.296875 
L 54.390625 8.296875 
L 54.390625 0 
L 12.40625 0 
z
" id="DejaVuSans-49"/>
        <path d="M 10.6875 12.40625 
L 21 12.40625 
L 21 0 
L 10.6875 0 
z
" id="DejaVuSans-46"/>
        <path d="M 31.78125 66.40625 
Q 24.171875 66.40625 20.328125 58.90625 
Q 16.5 51.421875 16.5 36.375 
Q 16.5 21.390625 20.328125 13.890625 
Q 24.171875 6.390625 31.78125 6.390625 
Q 39.453125 6.390625 43.28125 13.890625 
Q 47.125 21.390625 47.125 36.375 
Q 47.125 51.421875 43.28125 58.90625 
Q 39.453125 66.40625 31.78125 66.40625 
z
M 31.78125 74.21875 
Q 44.046875 74.21875 50.515625 64.515625 
Q 56.984375 54.828125 56.984375 36.375 
Q 56.984375 17.96875 50.515625 8.265625 
Q 44.046875 -1.421875 31.78125 -1.421875 
Q 19.53125 -1.421875 13.0625 8.265625 
Q 6.59375 17.96875 6.59375 36.375 
Q 6.59375 54.828125 13.0625 64.515625 
Q 19.53125 74.21875 31.78125 74.21875 
z
" id="DejaVuSans-48"/>
       </defs>
       <use xlink:href="#DejaVuSans-49"/>
       <use x="63.623047" xlink:href="#DejaVuSans-46"/>
       <use x="95.410156" xlink:href="#DejaVuSans-48"/>
      </g>
     </g>
    </g>
    <g id="xtick_2">
     <g id="line2d_2">
      <g>
       <use style="stroke:#000000;stroke-width:0.8;" x="129.024" xlink:href="#m68ec3f64ba" y="307.584"/>
      </g>
     </g>
     <g id="text_2">
      <!-- 1.2 -->
      <g transform="translate(121.072438 322.182437)scale(0.1 -0.1)">
       <defs>
        <path d="M 19.1875 8.296875 
L 53.609375 8.296875 
L 53.609375 0 
L 7.328125 0 
L 7.328125 8.296875 
Q 12.9375 14.109375 22.625 23.890625 
Q 32.328125 33.6875 34.8125 36.53125 
Q 39.546875 41.84375 41.421875 45.53125 
Q 43.3125 49.21875 43.3125 52.78125 
Q 43.3125 58.59375 39.234375 62.25 
Q 35.15625 65.921875 28.609375 65.921875 
Q 23.96875 65.921875 18.8125 64.3125 
Q 13.671875 62.703125 7.8125 59.421875 
L 7.8125 69.390625 
Q 13.765625 71.78125 18.9375 73 
Q 24.125 74.21875 28.421875 74.21875 
Q 39.75 74.21875 46.484375 68.546875 
Q 53.21875 62.890625 53.21875 53.421875 
Q 53.21875 48.921875 51.53125 44.890625 
Q 49.859375 40.875 45.40625 35.40625 
Q 44.1875 33.984375 37.640625 27.21875 
Q 31.109375 20.453125 19.1875 8.296875 
z
" id="DejaVuSans-50"/>
       </defs>
       <use xlink:href="#DejaVuSans-49"/>
       <use x="63.623047" xlink:href="#DejaVuSans-46"/>
       <use x="95.410156" xlink:href="#DejaVuSans-50"/>
      </g>
     </g>
    </g>
    <g id="xtick_3">
     <g id="line2d_3">
      <g>
       <use style="stroke:#000000;stroke-width:0.8;" x="200.448" xlink:href="#m68ec3f64ba" y="307.584"/>
      </g>
     </g>
     <g id="text_3">
      <!-- 1.4 -->
      <g transform="translate(192.496438 322.182437)scale(0.1 -0.1)">
       <defs>
        <path d="M 37.796875 64.3125 
L 12.890625 25.390625 
L 37.796875 25.390625 
z
M 35.203125 72.90625 
L 47.609375 72.90625 
L 47.609375 25.390625 
L 58.015625 25.390625 
L 58.015625 17.1875 
L 47.609375 17.1875 
L 47.609375 0 
L 37.796875 0 
L 37.796875 17.1875 
L 4.890625 17.1875 
L 4.890625 26.703125 
z
" id="DejaVuSans-52"/>
       </defs>
       <use xlink:href="#DejaVuSans-49"/>
       <use x="63.623047" xlink:href="#DejaVuSans-46"/>
       <use x="95.410156" xlink:href="#DejaVuSans-52"/>
      </g>
     </g>
    </g>
    <g id="xtick_4">
     <g id="line2d_4">
      <g>
       <use style="stroke:#000000;stroke-width:0.8;" x="271.872" xlink:href="#m68ec3f64ba" y="307.584"/>
      </g>
     </g>
     <g id="text_4">
      <!-- 1.6 -->
      <g transform="translate(263.920438 322.182437)scale(0.1 -0.1)">
       <defs>
        <path d="M 33.015625 40.375 
Q 26.375 40.375 22.484375 35.828125 
Q 18.609375 31.296875 18.609375 23.390625 
Q 18.609375 15.53125 22.484375 10.953125 
Q 26.375 6.390625 33.015625 6.390625 
Q 39.65625 6.390625 43.53125 10.953125 
Q 47.40625 15.53125 47.40625 23.390625 
Q 47.40625 31.296875 43.53125 35.828125 
Q 39.65625 40.375 33.015625 40.375 
z
M 52.59375 71.296875 
L 52.59375 62.3125 
Q 48.875 64.0625 45.09375 64.984375 
Q 41.3125 65.921875 37.59375 65.921875 
Q 27.828125 65.921875 22.671875 59.328125 
Q 17.53125 52.734375 16.796875 39.40625 
Q 19.671875 43.65625 24.015625 45.921875 
Q 28.375 48.1875 33.59375 48.1875 
Q 44.578125 48.1875 50.953125 41.515625 
Q 57.328125 34.859375 57.328125 23.390625 
Q 57.328125 12.15625 50.6875 5.359375 
Q 44.046875 -1.421875 33.015625 -1.421875 
Q 20.359375 -1.421875 13.671875 8.265625 
Q 6.984375 17.96875 6.984375 36.375 
Q 6.984375 53.65625 15.1875 63.9375 
Q 23.390625 74.21875 37.203125 74.21875 
Q 40.921875 74.21875 44.703125 73.484375 
Q 48.484375 72.75 52.59375 71.296875 
z
" id="DejaVuSans-54"/>
       </defs>
       <use xlink:href="#DejaVuSans-49"/>
       <use x="63.623047" xlink:href="#DejaVuSans-46"/>
       <use x="95.410156" xlink:href="#DejaVuSans-54"/>
      </g>
     </g>
    </g>
    <g id="xtick_5">
     <g id="line2d_5">
      <g>
       <use style="stroke:#000000;stroke-width:0.8;" x="343.296" xlink:href="#m68ec3f64ba" y="307.584"/>
      </g>
     </g>
     <g id="text_5">
      <!-- 1.8 -->
      <g transform="translate(335.344438 322.182437)scale(0.1 -0.1)">
       <defs>
        <path d="M 31.78125 34.625 
Q 24.75 34.625 20.71875 30.859375 
Q 16.703125 27.09375 16.703125 20.515625 
Q 16.703125 13.921875 20.71875 10.15625 
Q 24.75 6.390625 31.78125 6.390625 
Q 38.8125 6.390625 42.859375 10.171875 
Q 46.921875 13.96875 46.921875 20.515625 
Q 46.921875 27.09375 42.890625 30.859375 
Q 38.875 34.625 31.78125 34.625 
z
M 21.921875 38.8125 
Q 15.578125 40.375 12.03125 44.71875 
Q 8.5 49.078125 8.5 55.328125 
Q 8.5 64.0625 14.71875 69.140625 
Q 20.953125 74.21875 31.78125 74.21875 
Q 42.671875 74.21875 48.875 69.140625 
Q 55.078125 64.0625 55.078125 55.328125 
Q 55.078125 49.078125 51.53125 44.71875 
Q 48 40.375 41.703125 38.8125 
Q 48.828125 37.15625 52.796875 32.3125 
Q 56.78125 27.484375 56.78125 20.515625 
Q 56.78125 9.90625 50.3125 4.234375 
Q 43.84375 -1.421875 31.78125 -1.421875 
Q 19.734375 -1.421875 13.25 4.234375 
Q 6.78125 9.90625 6.78125 20.515625 
Q 6.78125 27.484375 10.78125 32.3125 
Q 14.796875 37.15625 21.921875 38.8125 
z
M 18.3125 54.390625 
Q 18.3125 48.734375 21.84375 45.5625 
Q 25.390625 42.390625 31.78125 42.390625 
Q 38.140625 42.390625 41.71875 45.5625 
Q 45.3125 48.734375 45.3125 54.390625 
Q 45.3125 60.0625 41.71875 63.234375 
Q 38.140625 66.40625 31.78125 66.40625 
Q 25.390625 66.40625 21.84375 63.234375 
Q 18.3125 60.0625 18.3125 54.390625 
z
" id="DejaVuSans-56"/>
       </defs>
       <use xlink:href="#DejaVuSans-49"/>
       <use x="63.623047" xlink:href="#DejaVuSans-46"/>
       <use x="95.410156" xlink:href="#DejaVuSans-56"/>
      </g>
     </g>
    </g>
    <g id="xtick_6">
     <g id="line2d_6">
      <g>
       <use style="stroke:#000000;stroke-width:0.8;" x="414.72" xlink:href="#m68ec3f64ba" y="307.584"/>
      </g>
     </g>
     <g id="text_6">
      <!-- 2.0 -->
      <g transform="translate(406.768438 322.182437)scale(0.1 -0.1)">
       <use xlink:href="#DejaVuSans-50"/>
       <use x="63.623047" xlink:href="#DejaVuSans-46"/>
       <use x="95.410156" xlink:href="#DejaVuSans-48"/>
      </g>
     </g>
    </g>
    <g id="text_7">
     <!-- Current $I$ -->
     <g transform="translate(213.0075 336.240484)scale(0.105 -0.105)">
      <defs>
       <path d="M 64.40625 67.28125 
L 64.40625 56.890625 
Q 59.421875 61.53125 53.78125 63.8125 
Q 48.140625 66.109375 41.796875 66.109375 
Q 29.296875 66.109375 22.65625 58.46875 
Q 16.015625 50.828125 16.015625 36.375 
Q 16.015625 21.96875 22.65625 14.328125 
Q 29.296875 6.6875 41.796875 6.6875 
Q 48.140625 6.6875 53.78125 8.984375 
Q 59.421875 11.28125 64.40625 15.921875 
L 64.40625 5.609375 
Q 59.234375 2.09375 53.4375 0.328125 
Q 47.65625 -1.421875 41.21875 -1.421875 
Q 24.65625 -1.421875 15.125 8.703125 
Q 5.609375 18.84375 5.609375 36.375 
Q 5.609375 53.953125 15.125 64.078125 
Q 24.65625 74.21875 41.21875 74.21875 
Q 47.75 74.21875 53.53125 72.484375 
Q 59.328125 70.75 64.40625 67.28125 
z
" id="DejaVuSans-67"/>
       <path d="M 8.5 21.578125 
L 8.5 54.6875 
L 17.484375 54.6875 
L 17.484375 21.921875 
Q 17.484375 14.15625 20.5 10.265625 
Q 23.53125 6.390625 29.59375 6.390625 
Q 36.859375 6.390625 41.078125 11.03125 
Q 45.3125 15.671875 45.3125 23.6875 
L 45.3125 54.6875 
L 54.296875 54.6875 
L 54.296875 0 
L 45.3125 0 
L 45.3125 8.40625 
Q 42.046875 3.421875 37.71875 1 
Q 33.40625 -1.421875 27.6875 -1.421875 
Q 18.265625 -1.421875 13.375 4.4375 
Q 8.5 10.296875 8.5 21.578125 
z
M 31.109375 56 
z
" id="DejaVuSans-117"/>
       <path d="M 41.109375 46.296875 
Q 39.59375 47.171875 37.8125 47.578125 
Q 36.03125 48 33.890625 48 
Q 26.265625 48 22.1875 43.046875 
Q 18.109375 38.09375 18.109375 28.8125 
L 18.109375 0 
L 9.078125 0 
L 9.078125 54.6875 
L 18.109375 54.6875 
L 18.109375 46.1875 
Q 20.953125 51.171875 25.484375 53.578125 
Q 30.03125 56 36.53125 56 
Q 37.453125 56 38.578125 55.875 
Q 39.703125 55.765625 41.0625 55.515625 
z
" id="DejaVuSans-114"/>
       <path d="M 56.203125 29.59375 
L 56.203125 25.203125 
L 14.890625 25.203125 
Q 15.484375 15.921875 20.484375 11.0625 
Q 25.484375 6.203125 34.421875 6.203125 
Q 39.59375 6.203125 44.453125 7.46875 
Q 49.3125 8.734375 54.109375 11.28125 
L 54.109375 2.78125 
Q 49.265625 0.734375 44.1875 -0.34375 
Q 39.109375 -1.421875 33.890625 -1.421875 
Q 20.796875 -1.421875 13.15625 6.1875 
Q 5.515625 13.8125 5.515625 26.8125 
Q 5.515625 40.234375 12.765625 48.109375 
Q 20.015625 56 32.328125 56 
Q 43.359375 56 49.78125 48.890625 
Q 56.203125 41.796875 56.203125 29.59375 
z
M 47.21875 32.234375 
Q 47.125 39.59375 43.09375 43.984375 
Q 39.0625 48.390625 32.421875 48.390625 
Q 24.90625 48.390625 20.390625 44.140625 
Q 15.875 39.890625 15.1875 32.171875 
z
" id="DejaVuSans-101"/>
       <path d="M 54.890625 33.015625 
L 54.890625 0 
L 45.90625 0 
L 45.90625 32.71875 
Q 45.90625 40.484375 42.875 44.328125 
Q 39.84375 48.1875 33.796875 48.1875 
Q 26.515625 48.1875 22.3125 43.546875 
Q 18.109375 38.921875 18.109375 30.90625 
L 18.109375 0 
L 9.078125 0 
L 9.078125 54.6875 
L 18.109375 54.6875 
L 18.109375 46.1875 
Q 21.34375 51.125 25.703125 53.5625 
Q 30.078125 56 35.796875 56 
Q 45.21875 56 50.046875 50.171875 
Q 54.890625 44.34375 54.890625 33.015625 
z
" id="DejaVuSans-110"/>
       <path d="M 18.3125 70.21875 
L 18.3125 54.6875 
L 36.8125 54.6875 
L 36.8125 47.703125 
L 18.3125 47.703125 
L 18.3125 18.015625 
Q 18.3125 11.328125 20.140625 9.421875 
Q 21.96875 7.515625 27.59375 7.515625 
L 36.8125 7.515625 
L 36.8125 0 
L 27.59375 0 
Q 17.1875 0 13.234375 3.875 
Q 9.28125 7.765625 9.28125 18.015625 
L 9.28125 47.703125 
L 2.6875 47.703125 
L 2.6875 54.6875 
L 9.28125 54.6875 
L 9.28125 70.21875 
z
" id="DejaVuSans-116"/>
       <path id="DejaVuSans-32"/>
       <path d="M 16.890625 72.90625 
L 26.8125 72.90625 
L 12.59375 0 
L 2.6875 0 
z
" id="DejaVuSans-Oblique-73"/>
      </defs>
      <use transform="translate(0 0.78125)" xlink:href="#DejaVuSans-67"/>
      <use transform="translate(69.824219 0.78125)" xlink:href="#DejaVuSans-117"/>
      <use transform="translate(133.203125 0.78125)" xlink:href="#DejaVuSans-114"/>
      <use transform="translate(174.316406 0.78125)" xlink:href="#DejaVuSans-114"/>
      <use transform="translate(215.429688 0.78125)" xlink:href="#DejaVuSans-101"/>
      <use transform="translate(276.953125 0.78125)" xlink:href="#DejaVuSans-110"/>
      <use transform="translate(340.332031 0.78125)" xlink:href="#DejaVuSans-116"/>
      <use transform="translate(379.541016 0.78125)" xlink:href="#DejaVuSans-32"/>
      <use transform="translate(411.328125 0.78125)" xlink:href="#DejaVuSans-Oblique-73"/>
     </g>
    </g>
   </g>
   <g id="matplotlib.axis_2">
    <g id="ytick_1">
     <g id="line2d_7">
      <defs>
       <path d="M 0 0 
L -3.5 0 
" id="m0fb260fded" style="stroke:#000000;stroke-width:0.8;"/>
      </defs>
      <g>
       <use style="stroke:#000000;stroke-width:0.8;" x="57.6" xlink:href="#m0fb260fded" y="295.488"/>
      </g>
     </g>
     <g id="text_8">
      <!-- 0.0 -->
      <g transform="translate(34.696875 299.287219)scale(0.1 -0.1)">
       <use xlink:href="#DejaVuSans-48"/>
       <use x="63.623047" xlink:href="#DejaVuSans-46"/>
       <use x="95.410156" xlink:href="#DejaVuSans-48"/>
      </g>
     </g>
    </g>
    <g id="ytick_2">
     <g id="line2d_8">
      <g>
       <use style="stroke:#000000;stroke-width:0.8;" x="57.6" xlink:href="#m0fb260fded" y="247.104"/>
      </g>
     </g>
     <g id="text_9">
      <!-- 0.2 -->
      <g transform="translate(34.696875 250.903219)scale(0.1 -0.1)">
       <use xlink:href="#DejaVuSans-48"/>
       <use x="63.623047" xlink:href="#DejaVuSans-46"/>
       <use x="95.410156" xlink:href="#DejaVuSans-50"/>
      </g>
     </g>
    </g>
    <g id="ytick_3">
     <g id="line2d_9">
      <g>
       <use style="stroke:#000000;stroke-width:0.8;" x="57.6" xlink:href="#m0fb260fded" y="198.72"/>
      </g>
     </g>
     <g id="text_10">
      <!-- 0.4 -->
      <g transform="translate(34.696875 202.519219)scale(0.1 -0.1)">
       <use xlink:href="#DejaVuSans-48"/>
       <use x="63.623047" xlink:href="#DejaVuSans-46"/>
       <use x="95.410156" xlink:href="#DejaVuSans-52"/>
      </g>
     </g>
    </g>
    <g id="ytick_4">
     <g id="line2d_10">
      <g>
       <use style="stroke:#000000;stroke-width:0.8;" x="57.6" xlink:href="#m0fb260fded" y="150.336"/>
      </g>
     </g>
     <g id="text_11">
      <!-- 0.6 -->
      <g transform="translate(34.696875 154.135219)scale(0.1 -0.1)">
       <use xlink:href="#DejaVuSans-48"/>
       <use x="63.623047" xlink:href="#DejaVuSans-46"/>
       <use x="95.410156" xlink:href="#DejaVuSans-54"/>
      </g>
     </g>
    </g>
    <g id="ytick_5">
     <g id="line2d_11">
      <g>
       <use style="stroke:#000000;stroke-width:0.8;" x="57.6" xlink:href="#m0fb260fded" y="101.952"/>
      </g>
     </g>
     <g id="text_12">
      <!-- 0.8 -->
      <g transform="translate(34.696875 105.751219)scale(0.1 -0.1)">
       <use xlink:href="#DejaVuSans-48"/>
       <use x="63.623047" xlink:href="#DejaVuSans-46"/>
       <use x="95.410156" xlink:href="#DejaVuSans-56"/>
      </g>
     </g>
    </g>
    <g id="ytick_6">
     <g id="line2d_12">
      <g>
       <use style="stroke:#000000;stroke-width:0.8;" x="57.6" xlink:href="#m0fb260fded" y="53.568"/>
      </g>
     </g>
     <g id="text_13">
      <!-- 1.0 -->
      <g transform="translate(34.696875 57.367219)scale(0.1 -0.1)">
       <use xlink:href="#DejaVuSans-49"/>
       <use x="63.623047" xlink:href="#DejaVuSans-46"/>
       <use x="95.410156" xlink:href="#DejaVuSans-48"/>
      </g>
     </g>
    </g>
    <g id="text_14">
     <!-- Phase Difference $\phi$ -->
     <g transform="translate(28.491875 224.298)rotate(-90)scale(0.105 -0.105)">
      <defs>
       <path d="M 19.671875 64.796875 
L 19.671875 37.40625 
L 32.078125 37.40625 
Q 38.96875 37.40625 42.71875 40.96875 
Q 46.484375 44.53125 46.484375 51.125 
Q 46.484375 57.671875 42.71875 61.234375 
Q 38.96875 64.796875 32.078125 64.796875 
z
M 9.8125 72.90625 
L 32.078125 72.90625 
Q 44.34375 72.90625 50.609375 67.359375 
Q 56.890625 61.8125 56.890625 51.125 
Q 56.890625 40.328125 50.609375 34.8125 
Q 44.34375 29.296875 32.078125 29.296875 
L 19.671875 29.296875 
L 19.671875 0 
L 9.8125 0 
z
" id="DejaVuSans-80"/>
       <path d="M 54.890625 33.015625 
L 54.890625 0 
L 45.90625 0 
L 45.90625 32.71875 
Q 45.90625 40.484375 42.875 44.328125 
Q 39.84375 48.1875 33.796875 48.1875 
Q 26.515625 48.1875 22.3125 43.546875 
Q 18.109375 38.921875 18.109375 30.90625 
L 18.109375 0 
L 9.078125 0 
L 9.078125 75.984375 
L 18.109375 75.984375 
L 18.109375 46.1875 
Q 21.34375 51.125 25.703125 53.5625 
Q 30.078125 56 35.796875 56 
Q 45.21875 56 50.046875 50.171875 
Q 54.890625 44.34375 54.890625 33.015625 
z
" id="DejaVuSans-104"/>
       <path d="M 34.28125 27.484375 
Q 23.390625 27.484375 19.1875 25 
Q 14.984375 22.515625 14.984375 16.5 
Q 14.984375 11.71875 18.140625 8.90625 
Q 21.296875 6.109375 26.703125 6.109375 
Q 34.1875 6.109375 38.703125 11.40625 
Q 43.21875 16.703125 43.21875 25.484375 
L 43.21875 27.484375 
z
M 52.203125 31.203125 
L 52.203125 0 
L 43.21875 0 
L 43.21875 8.296875 
Q 40.140625 3.328125 35.546875 0.953125 
Q 30.953125 -1.421875 24.3125 -1.421875 
Q 15.921875 -1.421875 10.953125 3.296875 
Q 6 8.015625 6 15.921875 
Q 6 25.140625 12.171875 29.828125 
Q 18.359375 34.515625 30.609375 34.515625 
L 43.21875 34.515625 
L 43.21875 35.40625 
Q 43.21875 41.609375 39.140625 45 
Q 35.0625 48.390625 27.6875 48.390625 
Q 23 48.390625 18.546875 47.265625 
Q 14.109375 46.140625 10.015625 43.890625 
L 10.015625 52.203125 
Q 14.9375 54.109375 19.578125 55.046875 
Q 24.21875 56 28.609375 56 
Q 40.484375 56 46.34375 49.84375 
Q 52.203125 43.703125 52.203125 31.203125 
z
" id="DejaVuSans-97"/>
       <path d="M 44.28125 53.078125 
L 44.28125 44.578125 
Q 40.484375 46.53125 36.375 47.5 
Q 32.28125 48.484375 27.875 48.484375 
Q 21.1875 48.484375 17.84375 46.4375 
Q 14.5 44.390625 14.5 40.28125 
Q 14.5 37.15625 16.890625 35.375 
Q 19.28125 33.59375 26.515625 31.984375 
L 29.59375 31.296875 
Q 39.15625 29.25 43.1875 25.515625 
Q 47.21875 21.78125 47.21875 15.09375 
Q 47.21875 7.46875 41.1875 3.015625 
Q 35.15625 -1.421875 24.609375 -1.421875 
Q 20.21875 -1.421875 15.453125 -0.5625 
Q 10.6875 0.296875 5.421875 2 
L 5.421875 11.28125 
Q 10.40625 8.6875 15.234375 7.390625 
Q 20.0625 6.109375 24.8125 6.109375 
Q 31.15625 6.109375 34.5625 8.28125 
Q 37.984375 10.453125 37.984375 14.40625 
Q 37.984375 18.0625 35.515625 20.015625 
Q 33.0625 21.96875 24.703125 23.78125 
L 21.578125 24.515625 
Q 13.234375 26.265625 9.515625 29.90625 
Q 5.8125 33.546875 5.8125 39.890625 
Q 5.8125 47.609375 11.28125 51.796875 
Q 16.75 56 26.8125 56 
Q 31.78125 56 36.171875 55.265625 
Q 40.578125 54.546875 44.28125 53.078125 
z
" id="DejaVuSans-115"/>
       <path d="M 19.671875 64.796875 
L 19.671875 8.109375 
L 31.59375 8.109375 
Q 46.6875 8.109375 53.6875 14.9375 
Q 60.6875 21.78125 60.6875 36.53125 
Q 60.6875 51.171875 53.6875 57.984375 
Q 46.6875 64.796875 31.59375 64.796875 
z
M 9.8125 72.90625 
L 30.078125 72.90625 
Q 51.265625 72.90625 61.171875 64.09375 
Q 71.09375 55.28125 71.09375 36.53125 
Q 71.09375 17.671875 61.125 8.828125 
Q 51.171875 0 30.078125 0 
L 9.8125 0 
z
" id="DejaVuSans-68"/>
       <path d="M 9.421875 54.6875 
L 18.40625 54.6875 
L 18.40625 0 
L 9.421875 0 
z
M 9.421875 75.984375 
L 18.40625 75.984375 
L 18.40625 64.59375 
L 9.421875 64.59375 
z
" id="DejaVuSans-105"/>
       <path d="M 37.109375 75.984375 
L 37.109375 68.5 
L 28.515625 68.5 
Q 23.6875 68.5 21.796875 66.546875 
Q 19.921875 64.59375 19.921875 59.515625 
L 19.921875 54.6875 
L 34.71875 54.6875 
L 34.71875 47.703125 
L 19.921875 47.703125 
L 19.921875 0 
L 10.890625 0 
L 10.890625 47.703125 
L 2.296875 47.703125 
L 2.296875 54.6875 
L 10.890625 54.6875 
L 10.890625 58.5 
Q 10.890625 67.625 15.140625 71.796875 
Q 19.390625 75.984375 28.609375 75.984375 
z
" id="DejaVuSans-102"/>
       <path d="M 48.78125 52.59375 
L 48.78125 44.1875 
Q 44.96875 46.296875 41.140625 47.34375 
Q 37.3125 48.390625 33.40625 48.390625 
Q 24.65625 48.390625 19.8125 42.84375 
Q 14.984375 37.3125 14.984375 27.296875 
Q 14.984375 17.28125 19.8125 11.734375 
Q 24.65625 6.203125 33.40625 6.203125 
Q 37.3125 6.203125 41.140625 7.25 
Q 44.96875 8.296875 48.78125 10.40625 
L 48.78125 2.09375 
Q 45.015625 0.34375 40.984375 -0.53125 
Q 36.96875 -1.421875 32.421875 -1.421875 
Q 20.0625 -1.421875 12.78125 6.34375 
Q 5.515625 14.109375 5.515625 27.296875 
Q 5.515625 40.671875 12.859375 48.328125 
Q 20.21875 56 33.015625 56 
Q 37.15625 56 41.109375 55.140625 
Q 45.0625 54.296875 48.78125 52.59375 
z
" id="DejaVuSans-99"/>
       <path d="M 46.734375 75.984375 
L 42.78125 55.8125 
Q 52.546875 55.8125 57.5625 48.34375 
Q 62.75 40.71875 60.15625 27.296875 
Q 57.515625 13.875 49.359375 6.25 
Q 41.453125 -1.21875 31.6875 -1.21875 
L 27.875 -20.796875 
L 18.953125 -20.796875 
L 22.75 -1.21875 
Q 13.03125 -1.21875 7.953125 6.25 
Q 2.78125 13.875 5.421875 27.296875 
Q 8.015625 40.71875 16.15625 48.34375 
Q 24.125 55.8125 33.84375 55.8125 
L 37.796875 75.984375 
z
M 33.25 6.78125 
Q 38.765625 6.78125 43.5 11.8125 
Q 48.6875 17.4375 50.6875 27.296875 
Q 52.640625 37.0625 49.515625 42.78125 
Q 46.734375 47.796875 41.21875 47.796875 
z
M 24.3125 6.78125 
L 32.28125 47.796875 
Q 26.8125 47.796875 22.078125 42.78125 
Q 16.75 37.0625 14.890625 27.296875 
Q 13.03125 17.4375 16.0625 11.8125 
Q 18.796875 6.78125 24.3125 6.78125 
z
" id="DejaVuSans-Oblique-981"/>
      </defs>
      <use transform="translate(0 0.015625)" xlink:href="#DejaVuSans-80"/>
      <use transform="translate(60.302734 0.015625)" xlink:href="#DejaVuSans-104"/>
      <use transform="translate(123.681641 0.015625)" xlink:href="#DejaVuSans-97"/>
      <use transform="translate(184.960938 0.015625)" xlink:href="#DejaVuSans-115"/>
      <use transform="translate(237.060547 0.015625)" xlink:href="#DejaVuSans-101"/>
      <use transform="translate(298.583984 0.015625)" xlink:href="#DejaVuSans-32"/>
      <use transform="translate(330.371094 0.015625)" xlink:href="#DejaVuSans-68"/>
      <use transform="translate(407.373047 0.015625)" xlink:href="#DejaVuSans-105"/>
      <use transform="translate(435.15625 0.015625)" xlink:href="#DejaVuSans-102"/>
      <use transform="translate(470.361328 0.015625)" xlink:href="#DejaVuSans-102"/>
      <use transform="translate(505.566406 0.015625)" xlink:href="#DejaVuSans-101"/>
      <use transform="translate(567.089844 0.015625)" xlink:href="#DejaVuSans-114"/>
      <use transform="translate(608.203125 0.015625)" xlink:href="#DejaVuSans-101"/>
      <use transform="translate(669.726562 0.015625)" xlink:href="#DejaVuSans-110"/>
      <use transform="translate(733.105469 0.015625)" xlink:href="#DejaVuSans-99"/>
      <use transform="translate(788.085938 0.015625)" xlink:href="#DejaVuSans-101"/>
      <use transform="translate(849.609375 0.015625)" xlink:href="#DejaVuSans-32"/>
      <use transform="translate(881.396484 0.015625)" xlink:href="#DejaVuSans-Oblique-981"/>
     </g>
    </g>
   </g>
   <g id="line2d_13">
    <path clip-path="url(#p73c54492d0)" d="M 414.72 174.528 
L 204.912 174.528 
L 204.912 174.528 
" style="fill:none;stroke:#000000;stroke-dasharray:5.55,2.4;stroke-dashoffset:0;stroke-width:1.5;"/>
   </g>
   <g id="line2d_14">
    <path clip-path="url(#p73c54492d0)" d="M 204.912 174.528 
L 62.9568 174.528 
L 62.9568 174.528 
" style="fill:none;stroke:#000000;stroke-linecap:square;stroke-width:1.5;"/>
   </g>
   <g id="line2d_15">
    <path clip-path="url(#p73c54492d0)" d="M 204.912 174.528 
L 204.912 171.443399 
L 204.0192 162.57004 
L 203.1264 158.281451 
L 202.2336 155.087672 
L 201.3408 151.661891 
L 200.448 148.92459 
L 199.5552 146.679161 
L 198.6624 144.753067 
L 197.7696 142.446432 
L 196.8768 140.476018 
L 195.984 138.791989 
L 195.0912 137.253233 
L 194.1984 135.433268 
L 193.3056 133.848088 
L 192.4128 132.476401 
L 191.52 131.102368 
L 190.6272 129.587393 
L 189.7344 128.260098 
L 188.8416 127.108342 
L 187.9488 125.798829 
L 187.056 124.510363 
L 186.1632 123.382072 
L 185.2704 122.355896 
L 184.3776 121.105339 
L 183.4848 120.002546 
L 182.592 119.042027 
L 181.6992 117.965386 
L 180.8064 116.89131 
L 179.9136 115.950604 
L 179.0208 115.035856 
L 178.128 113.99427 
L 177.2352 113.078481 
L 176.3424 112.27867 
L 175.4496 111.273153 
L 174.5568 110.387291 
L 173.664 109.619945 
L 172.7712 108.700334 
L 171.8784 107.849163 
L 170.9856 107.111452 
L 170.0928 106.256555 
L 169.2 105.444139 
L 168.3072 104.741265 
L 167.4144 103.927615 
L 166.5216 103.157995 
L 165.6288 102.494917 
L 164.736 101.703959 
L 163.8432 100.981441 
L 162.9504 100.352183 
L 162.0576 99.579636 
L 161.1648 98.908138 
L 160.272 98.266542 
L 159.3792 97.550919 
L 158.4864 96.934361 
L 157.5936 96.271936 
L 156.7008 95.61672 
L 155.808 95.05532 
L 154.9152 94.368872 
L 154.0224 93.777814 
L 153.1296 93.177368 
L 152.2368 92.559601 
L 151.344 92.031514 
L 150.4512 91.393232 
L 149.5584 90.84792 
L 148.6656 90.269538 
L 147.7728 89.707824 
L 146.88 89.181309 
L 145.9872 88.608443 
L 145.0944 88.122764 
L 144.2016 87.543874 
L 143.3088 87.05551 
L 142.416 86.509255 
L 141.5232 86.018399 
L 140.6304 85.501126 
L 139.7376 85.012326 
L 138.8448 84.517019 
L 137.952 84.034534 
L 137.0592 83.555242 
L 136.1664 83.083159 
L 135.2736 82.614947 
L 134.3808 82.157186 
L 133.488 81.695942 
L 132.5952 81.256276 
L 131.7024 80.798636 
L 130.8096 80.380768 
L 129.9168 79.923999 
L 129.024 79.524758 
L 128.1312 79.073505 
L 127.2384 78.668216 
L 126.3456 78.249162 
L 125.4528 77.836761 
L 124.56 77.453294 
L 123.6672 77.033176 
L 122.7744 76.650724 
L 121.8816 76.26058 
L 120.9888 75.867581 
L 120.096 75.503878 
L 119.2032 75.119492 
L 118.3104 74.743911 
L 117.4176 74.391361 
L 116.5248 74.024271 
L 115.632 73.659891 
L 114.7392 73.313559 
L 113.8464 72.975064 
L 112.9536 72.618015 
L 112.0608 72.275625 
L 111.168 71.945308 
L 110.2752 71.624425 
L 109.3824 71.286608 
L 108.4896 70.957935 
L 107.5968 70.637585 
L 106.704 70.324226 
L 105.8112 70.016528 
" style="fill:none;stroke:#000000;stroke-dasharray:5.55,2.4;stroke-dashoffset:0;stroke-width:1.5;"/>
   </g>
   <g id="line2d_16">
    <path clip-path="url(#p73c54492d0)" d="M 204.912 174.528 
L 204.912 177.612601 
L 204.0192 186.48596 
L 203.1264 190.774549 
L 202.2336 193.968328 
L 201.3408 197.394109 
L 200.448 200.13141 
L 199.5552 202.376839 
L 198.6624 204.302933 
L 197.7696 206.609568 
L 196.8768 208.579982 
L 195.984 210.264011 
L 195.0912 211.802767 
L 194.1984 213.622732 
L 193.3056 215.207912 
L 192.4128 216.579599 
L 191.52 217.953632 
L 190.6272 219.468607 
L 189.7344 220.795902 
L 188.8416 221.947658 
L 187.9488 223.257171 
L 187.056 224.545637 
L 186.1632 225.673928 
L 185.2704 226.700104 
L 184.3776 227.950661 
L 183.4848 229.053454 
L 182.592 230.013973 
L 181.6992 231.090614 
L 180.8064 232.16469 
L 179.9136 233.105396 
L 179.0208 234.020144 
L 178.128 235.06173 
L 177.2352 235.977519 
L 176.3424 236.77733 
L 175.4496 237.782847 
L 174.5568 238.668709 
L 173.664 239.436055 
L 172.7712 240.355666 
L 171.8784 241.206837 
L 170.9856 241.944548 
L 170.0928 242.799445 
L 169.2 243.611861 
L 168.3072 244.314735 
L 167.4144 245.128385 
L 166.5216 245.898005 
L 165.6288 246.561083 
L 164.736 247.352041 
L 163.8432 248.074559 
L 162.9504 248.703817 
L 162.0576 249.476364 
L 161.1648 250.147862 
L 160.272 250.789458 
L 159.3792 251.505081 
L 158.4864 252.121639 
L 157.5936 252.784064 
L 156.7008 253.43928 
L 155.808 254.00068 
L 154.9152 254.687128 
L 154.0224 255.278186 
L 153.1296 255.878632 
L 152.2368 256.496399 
L 151.344 257.024486 
L 150.4512 257.662768 
L 149.5584 258.20808 
L 148.6656 258.786462 
L 147.7728 259.348176 
L 146.88 259.874691 
L 145.9872 260.447557 
L 145.0944 260.933236 
L 144.2016 261.512126 
L 143.3088 262.00049 
L 142.416 262.546745 
L 141.5232 263.037601 
L 140.6304 263.554874 
L 139.7376 264.043674 
L 138.8448 264.538981 
L 137.952 265.021466 
L 137.0592 265.500758 
L 136.1664 265.972841 
L 135.2736 266.441053 
L 134.3808 266.898814 
L 133.488 267.360058 
L 132.5952 267.799724 
L 131.7024 268.257364 
L 130.8096 268.675232 
L 129.9168 269.132001 
L 129.024 269.531242 
L 128.1312 269.982495 
L 127.2384 270.387784 
L 126.3456 270.806838 
L 125.4528 271.219239 
L 124.56 271.602706 
L 123.6672 272.022824 
L 122.7744 272.405276 
L 121.8816 272.79542 
L 120.9888 273.188419 
L 120.096 273.552122 
L 119.2032 273.936508 
L 118.3104 274.312089 
L 117.4176 274.664639 
L 116.5248 275.031729 
L 115.632 275.396109 
L 114.7392 275.742441 
L 113.8464 276.080936 
L 112.9536 276.437985 
L 112.0608 276.780375 
L 111.168 277.110692 
L 110.2752 277.431575 
L 109.3824 277.769392 
L 108.4896 278.098065 
L 107.5968 278.418415 
L 106.704 278.731774 
L 105.8112 279.039472 
" style="fill:none;stroke:#000000;stroke-dasharray:5.55,2.4;stroke-dashoffset:0;stroke-width:1.5;"/>
   </g>
   <g id="patch_4">
    <path d="M 57.6 307.584 
L 57.6 41.472 
" style="fill:none;stroke:#000000;stroke-linecap:square;stroke-linejoin:miter;stroke-width:0.8;"/>
   </g>
   <g id="patch_5">
    <path d="M 414.72 307.584 
L 414.72 41.472 
" style="fill:none;stroke:#000000;stroke-linecap:square;stroke-linejoin:miter;stroke-width:0.8;"/>
   </g>
   <g id="patch_6">
    <path d="M 57.6 307.584 
L 414.72 307.584 
" style="fill:none;stroke:#000000;stroke-linecap:square;stroke-linejoin:miter;stroke-width:0.8;"/>
   </g>
   <g id="patch_7">
    <path d="M 57.6 41.472 
L 414.72 41.472 
" style="fill:none;stroke:#000000;stroke-linecap:square;stroke-linejoin:miter;stroke-width:0.8;"/>
   </g>
   <g id="text_15">
    <!-- Bifurcation diagram for two coupled neurons, $\gamma=0.1, \beta=0.1$ -->
    <g transform="translate(68.85 35.472)scale(0.11 -0.11)">
     <defs>
      <path d="M 19.671875 34.8125 
L 19.671875 8.109375 
L 35.5 8.109375 
Q 43.453125 8.109375 47.28125 11.40625 
Q 51.125 14.703125 51.125 21.484375 
Q 51.125 28.328125 47.28125 31.5625 
Q 43.453125 34.8125 35.5 34.8125 
z
M 19.671875 64.796875 
L 19.671875 42.828125 
L 34.28125 42.828125 
Q 41.5 42.828125 45.03125 45.53125 
Q 48.578125 48.25 48.578125 53.8125 
Q 48.578125 59.328125 45.03125 62.0625 
Q 41.5 64.796875 34.28125 64.796875 
z
M 9.8125 72.90625 
L 35.015625 72.90625 
Q 46.296875 72.90625 52.390625 68.21875 
Q 58.5 63.53125 58.5 54.890625 
Q 58.5 48.1875 55.375 44.234375 
Q 52.25 40.28125 46.1875 39.3125 
Q 53.46875 37.75 57.5 32.78125 
Q 61.53125 27.828125 61.53125 20.40625 
Q 61.53125 10.640625 54.890625 5.3125 
Q 48.25 0 35.984375 0 
L 9.8125 0 
z
" id="DejaVuSans-66"/>
      <path d="M 30.609375 48.390625 
Q 23.390625 48.390625 19.1875 42.75 
Q 14.984375 37.109375 14.984375 27.296875 
Q 14.984375 17.484375 19.15625 11.84375 
Q 23.34375 6.203125 30.609375 6.203125 
Q 37.796875 6.203125 41.984375 11.859375 
Q 46.1875 17.53125 46.1875 27.296875 
Q 46.1875 37.015625 41.984375 42.703125 
Q 37.796875 48.390625 30.609375 48.390625 
z
M 30.609375 56 
Q 42.328125 56 49.015625 48.375 
Q 55.71875 40.765625 55.71875 27.296875 
Q 55.71875 13.875 49.015625 6.21875 
Q 42.328125 -1.421875 30.609375 -1.421875 
Q 18.84375 -1.421875 12.171875 6.21875 
Q 5.515625 13.875 5.515625 27.296875 
Q 5.515625 40.765625 12.171875 48.375 
Q 18.84375 56 30.609375 56 
z
" id="DejaVuSans-111"/>
      <path d="M 45.40625 46.390625 
L 45.40625 75.984375 
L 54.390625 75.984375 
L 54.390625 0 
L 45.40625 0 
L 45.40625 8.203125 
Q 42.578125 3.328125 38.25 0.953125 
Q 33.9375 -1.421875 27.875 -1.421875 
Q 17.96875 -1.421875 11.734375 6.484375 
Q 5.515625 14.40625 5.515625 27.296875 
Q 5.515625 40.1875 11.734375 48.09375 
Q 17.96875 56 27.875 56 
Q 33.9375 56 38.25 53.625 
Q 42.578125 51.265625 45.40625 46.390625 
z
M 14.796875 27.296875 
Q 14.796875 17.390625 18.875 11.75 
Q 22.953125 6.109375 30.078125 6.109375 
Q 37.203125 6.109375 41.296875 11.75 
Q 45.40625 17.390625 45.40625 27.296875 
Q 45.40625 37.203125 41.296875 42.84375 
Q 37.203125 48.484375 30.078125 48.484375 
Q 22.953125 48.484375 18.875 42.84375 
Q 14.796875 37.203125 14.796875 27.296875 
z
" id="DejaVuSans-100"/>
      <path d="M 45.40625 27.984375 
Q 45.40625 37.75 41.375 43.109375 
Q 37.359375 48.484375 30.078125 48.484375 
Q 22.859375 48.484375 18.828125 43.109375 
Q 14.796875 37.75 14.796875 27.984375 
Q 14.796875 18.265625 18.828125 12.890625 
Q 22.859375 7.515625 30.078125 7.515625 
Q 37.359375 7.515625 41.375 12.890625 
Q 45.40625 18.265625 45.40625 27.984375 
z
M 54.390625 6.78125 
Q 54.390625 -7.171875 48.1875 -13.984375 
Q 42 -20.796875 29.203125 -20.796875 
Q 24.46875 -20.796875 20.265625 -20.09375 
Q 16.0625 -19.390625 12.109375 -17.921875 
L 12.109375 -9.1875 
Q 16.0625 -11.328125 19.921875 -12.34375 
Q 23.78125 -13.375 27.78125 -13.375 
Q 36.625 -13.375 41.015625 -8.765625 
Q 45.40625 -4.15625 45.40625 5.171875 
L 45.40625 9.625 
Q 42.625 4.78125 38.28125 2.390625 
Q 33.9375 0 27.875 0 
Q 17.828125 0 11.671875 7.65625 
Q 5.515625 15.328125 5.515625 27.984375 
Q 5.515625 40.671875 11.671875 48.328125 
Q 17.828125 56 27.875 56 
Q 33.9375 56 38.28125 53.609375 
Q 42.625 51.21875 45.40625 46.390625 
L 45.40625 54.6875 
L 54.390625 54.6875 
z
" id="DejaVuSans-103"/>
      <path d="M 52 44.1875 
Q 55.375 50.25 60.0625 53.125 
Q 64.75 56 71.09375 56 
Q 79.640625 56 84.28125 50.015625 
Q 88.921875 44.046875 88.921875 33.015625 
L 88.921875 0 
L 79.890625 0 
L 79.890625 32.71875 
Q 79.890625 40.578125 77.09375 44.375 
Q 74.3125 48.1875 68.609375 48.1875 
Q 61.625 48.1875 57.5625 43.546875 
Q 53.515625 38.921875 53.515625 30.90625 
L 53.515625 0 
L 44.484375 0 
L 44.484375 32.71875 
Q 44.484375 40.625 41.703125 44.40625 
Q 38.921875 48.1875 33.109375 48.1875 
Q 26.21875 48.1875 22.15625 43.53125 
Q 18.109375 38.875 18.109375 30.90625 
L 18.109375 0 
L 9.078125 0 
L 9.078125 54.6875 
L 18.109375 54.6875 
L 18.109375 46.1875 
Q 21.1875 51.21875 25.484375 53.609375 
Q 29.78125 56 35.6875 56 
Q 41.65625 56 45.828125 52.96875 
Q 50 49.953125 52 44.1875 
z
" id="DejaVuSans-109"/>
      <path d="M 4.203125 54.6875 
L 13.1875 54.6875 
L 24.421875 12.015625 
L 35.59375 54.6875 
L 46.1875 54.6875 
L 57.421875 12.015625 
L 68.609375 54.6875 
L 77.59375 54.6875 
L 63.28125 0 
L 52.6875 0 
L 40.921875 44.828125 
L 29.109375 0 
L 18.5 0 
z
" id="DejaVuSans-119"/>
      <path d="M 18.109375 8.203125 
L 18.109375 -20.796875 
L 9.078125 -20.796875 
L 9.078125 54.6875 
L 18.109375 54.6875 
L 18.109375 46.390625 
Q 20.953125 51.265625 25.265625 53.625 
Q 29.59375 56 35.59375 56 
Q 45.5625 56 51.78125 48.09375 
Q 58.015625 40.1875 58.015625 27.296875 
Q 58.015625 14.40625 51.78125 6.484375 
Q 45.5625 -1.421875 35.59375 -1.421875 
Q 29.59375 -1.421875 25.265625 0.953125 
Q 20.953125 3.328125 18.109375 8.203125 
z
M 48.6875 27.296875 
Q 48.6875 37.203125 44.609375 42.84375 
Q 40.53125 48.484375 33.40625 48.484375 
Q 26.265625 48.484375 22.1875 42.84375 
Q 18.109375 37.203125 18.109375 27.296875 
Q 18.109375 17.390625 22.1875 11.75 
Q 26.265625 6.109375 33.40625 6.109375 
Q 40.53125 6.109375 44.609375 11.75 
Q 48.6875 17.390625 48.6875 27.296875 
z
" id="DejaVuSans-112"/>
      <path d="M 9.421875 75.984375 
L 18.40625 75.984375 
L 18.40625 0 
L 9.421875 0 
z
" id="DejaVuSans-108"/>
      <path d="M 11.71875 12.40625 
L 22.015625 12.40625 
L 22.015625 4 
L 14.015625 -11.625 
L 7.71875 -11.625 
L 11.71875 4 
z
" id="DejaVuSans-44"/>
      <path d="M 23.296875 46.09375 
L 28.71875 12.3125 
L 54 54.6875 
L 63.53125 54.6875 
L 30.8125 0 
L 26.765625 -20.796875 
L 17.78125 -20.796875 
L 21.828125 0 
L 15.4375 40.828125 
Q 14.453125 46.96875 9.8125 46.96875 
L 7.421875 46.96875 
L 8.890625 54.6875 
L 12.3125 54.6875 
Q 21.921875 54.6875 23.296875 46.09375 
z
" id="DejaVuSans-Oblique-947"/>
      <path d="M 10.59375 45.40625 
L 73.1875 45.40625 
L 73.1875 37.203125 
L 10.59375 37.203125 
z
M 10.59375 25.484375 
L 73.1875 25.484375 
L 73.1875 17.1875 
L 10.59375 17.1875 
z
" id="DejaVuSans-61"/>
      <path d="M 13.625 3.375 
L 8.9375 -20.796875 
L -0.09375 -20.796875 
L 14.5 54.34375 
Q 18.84375 76.609375 39.65625 76.609375 
Q 60.75 76.609375 57.171875 57.8125 
Q 54.734375 44.4375 45.21875 39.546875 
Q 58.015625 35.15625 55.515625 22.125 
Q 51.125 -1.078125 27.484375 -1.03125 
Q 17.140625 -0.984375 13.625 3.375 
z
M 15.921875 15.09375 
Q 19.671875 6.59375 29.296875 6.640625 
Q 43.359375 6.640625 46.34375 21.96875 
Q 49.03125 35.75 26.171875 34.671875 
L 27.78125 42.96875 
Q 45.453125 42.671875 48.53125 58.59375 
Q 50.640625 69.34375 39.203125 69.28125 
Q 26.421875 69.28125 23.484375 54.046875 
z
" id="DejaVuSans-Oblique-946"/>
     </defs>
     <use transform="translate(0 0.390625)" xlink:href="#DejaVuSans-66"/>
     <use transform="translate(68.603516 0.390625)" xlink:href="#DejaVuSans-105"/>
     <use transform="translate(96.386719 0.390625)" xlink:href="#DejaVuSans-102"/>
     <use transform="translate(131.591797 0.390625)" xlink:href="#DejaVuSans-117"/>
     <use transform="translate(194.970703 0.390625)" xlink:href="#DejaVuSans-114"/>
     <use transform="translate(236.083984 0.390625)" xlink:href="#DejaVuSans-99"/>
     <use transform="translate(291.064453 0.390625)" xlink:href="#DejaVuSans-97"/>
     <use transform="translate(352.34375 0.390625)" xlink:href="#DejaVuSans-116"/>
     <use transform="translate(391.552734 0.390625)" xlink:href="#DejaVuSans-105"/>
     <use transform="translate(419.335938 0.390625)" xlink:href="#DejaVuSans-111"/>
     <use transform="translate(480.517578 0.390625)" xlink:href="#DejaVuSans-110"/>
     <use transform="translate(543.896484 0.390625)" xlink:href="#DejaVuSans-32"/>
     <use transform="translate(575.683594 0.390625)" xlink:href="#DejaVuSans-100"/>
     <use transform="translate(639.160156 0.390625)" xlink:href="#DejaVuSans-105"/>
     <use transform="translate(666.943359 0.390625)" xlink:href="#DejaVuSans-97"/>
     <use transform="translate(728.222656 0.390625)" xlink:href="#DejaVuSans-103"/>
     <use transform="translate(791.699219 0.390625)" xlink:href="#DejaVuSans-114"/>
     <use transform="translate(832.8125 0.390625)" xlink:href="#DejaVuSans-97"/>
     <use transform="translate(894.091797 0.390625)" xlink:href="#DejaVuSans-109"/>
     <use transform="translate(991.503906 0.390625)" xlink:href="#DejaVuSans-32"/>
     <use transform="translate(1023.291016 0.390625)" xlink:href="#DejaVuSans-102"/>
     <use transform="translate(1058.496094 0.390625)" xlink:href="#DejaVuSans-111"/>
     <use transform="translate(1119.677734 0.390625)" xlink:href="#DejaVuSans-114"/>
     <use transform="translate(1160.791016 0.390625)" xlink:href="#DejaVuSans-32"/>
     <use transform="translate(1192.578125 0.390625)" xlink:href="#DejaVuSans-116"/>
     <use transform="translate(1231.787109 0.390625)" xlink:href="#DejaVuSans-119"/>
     <use transform="translate(1313.574219 0.390625)" xlink:href="#DejaVuSans-111"/>
     <use transform="translate(1374.755859 0.390625)" xlink:href="#DejaVuSans-32"/>
     <use transform="translate(1406.542969 0.390625)" xlink:href="#DejaVuSans-99"/>
     <use transform="translate(1461.523438 0.390625)" xlink:href="#DejaVuSans-111"/>
     <use transform="translate(1522.705078 0.390625)" xlink:href="#DejaVuSans-117"/>
     <use transform="translate(1586.083984 0.390625)" xlink:href="#DejaVuSans-112"/>
     <use transform="translate(1649.560547 0.390625)" xlink:href="#DejaVuSans-108"/>
     <use transform="translate(1677.34375 0.390625)" xlink:href="#DejaVuSans-101"/>
     <use transform="translate(1738.867188 0.390625)" xlink:href="#DejaVuSans-100"/>
     <use transform="translate(1802.34375 0.390625)" xlink:href="#DejaVuSans-32"/>
     <use transform="translate(1834.130859 0.390625)" xlink:href="#DejaVuSans-110"/>
     <use transform="translate(1897.509766 0.390625)" xlink:href="#DejaVuSans-101"/>
     <use transform="translate(1959.033203 0.390625)" xlink:href="#DejaVuSans-117"/>
     <use transform="translate(2022.412109 0.390625)" xlink:href="#DejaVuSans-114"/>
     <use transform="translate(2063.525391 0.390625)" xlink:href="#DejaVuSans-111"/>
     <use transform="translate(2124.707031 0.390625)" xlink:href="#DejaVuSans-110"/>
     <use transform="translate(2188.085938 0.390625)" xlink:href="#DejaVuSans-115"/>
     <use transform="translate(2240.185547 0.390625)" xlink:href="#DejaVuSans-44"/>
     <use transform="translate(2271.972656 0.390625)" xlink:href="#DejaVuSans-32"/>
     <use transform="translate(2303.759766 0.390625)" xlink:href="#DejaVuSans-Oblique-947"/>
     <use transform="translate(2382.421875 0.390625)" xlink:href="#DejaVuSans-61"/>
     <use transform="translate(2485.693359 0.390625)" xlink:href="#DejaVuSans-48"/>
     <use transform="translate(2549.316406 0.390625)" xlink:href="#DejaVuSans-46"/>
     <use transform="translate(2581.103516 0.390625)" xlink:href="#DejaVuSans-49"/>
     <use transform="translate(2644.726562 0.390625)" xlink:href="#DejaVuSans-44"/>
     <use transform="translate(2695.996094 0.390625)" xlink:href="#DejaVuSans-Oblique-946"/>
     <use transform="translate(2779.296875 0.390625)" xlink:href="#DejaVuSans-61"/>
     <use transform="translate(2882.568359 0.390625)" xlink:href="#DejaVuSans-48"/>
     <use transform="translate(2946.191406 0.390625)" xlink:href="#DejaVuSans-46"/>
     <use transform="translate(2977.978516 0.390625)" xlink:href="#DejaVuSans-49"/>
    </g>
   </g>
   <g id="legend_1">
    <g id="patch_8">
     <path d="M 332.5075 92.13385 
L 407.72 92.13385 
Q 409.72 92.13385 409.72 90.13385 
L 409.72 61.7776 
Q 409.72 59.7776 407.72 59.7776 
L 332.5075 59.7776 
Q 330.5075 59.7776 330.5075 61.7776 
L 330.5075 90.13385 
Q 330.5075 92.13385 332.5075 92.13385 
z
" style="fill:#ffffff;opacity:0.8;stroke:#cccccc;stroke-linejoin:miter;"/>
    </g>
    <g id="line2d_17">
     <path d="M 334.5075 67.876037 
L 354.5075 67.876037 
" style="fill:none;stroke:#000000;stroke-dasharray:5.55,2.4;stroke-dashoffset:0;stroke-width:1.5;"/>
    </g>
    <g id="line2d_18"/>
    <g id="text_16">
     <!-- unstable -->
     <g transform="translate(362.5075 71.376037)scale(0.1 -0.1)">
      <defs>
       <path d="M 48.6875 27.296875 
Q 48.6875 37.203125 44.609375 42.84375 
Q 40.53125 48.484375 33.40625 48.484375 
Q 26.265625 48.484375 22.1875 42.84375 
Q 18.109375 37.203125 18.109375 27.296875 
Q 18.109375 17.390625 22.1875 11.75 
Q 26.265625 6.109375 33.40625 6.109375 
Q 40.53125 6.109375 44.609375 11.75 
Q 48.6875 17.390625 48.6875 27.296875 
z
M 18.109375 46.390625 
Q 20.953125 51.265625 25.265625 53.625 
Q 29.59375 56 35.59375 56 
Q 45.5625 56 51.78125 48.09375 
Q 58.015625 40.1875 58.015625 27.296875 
Q 58.015625 14.40625 51.78125 6.484375 
Q 45.5625 -1.421875 35.59375 -1.421875 
Q 29.59375 -1.421875 25.265625 0.953125 
Q 20.953125 3.328125 18.109375 8.203125 
L 18.109375 0 
L 9.078125 0 
L 9.078125 75.984375 
L 18.109375 75.984375 
z
" id="DejaVuSans-98"/>
      </defs>
      <use xlink:href="#DejaVuSans-117"/>
      <use x="63.378906" xlink:href="#DejaVuSans-110"/>
      <use x="126.757812" xlink:href="#DejaVuSans-115"/>
      <use x="178.857422" xlink:href="#DejaVuSans-116"/>
      <use x="218.066406" xlink:href="#DejaVuSans-97"/>
      <use x="279.345703" xlink:href="#DejaVuSans-98"/>
      <use x="342.822266" xlink:href="#DejaVuSans-108"/>
      <use x="370.605469" xlink:href="#DejaVuSans-101"/>
     </g>
    </g>
    <g id="line2d_19">
     <path d="M 334.5075 82.554163 
L 354.5075 82.554163 
" style="fill:none;stroke:#000000;stroke-linecap:square;stroke-width:1.5;"/>
    </g>
    <g id="line2d_20"/>
    <g id="text_17">
     <!-- stable -->
     <g transform="translate(362.5075 86.054163)scale(0.1 -0.1)">
      <use xlink:href="#DejaVuSans-115"/>
      <use x="52.099609" xlink:href="#DejaVuSans-116"/>
      <use x="91.308594" xlink:href="#DejaVuSans-97"/>
      <use x="152.587891" xlink:href="#DejaVuSans-98"/>
      <use x="216.064453" xlink:href="#DejaVuSans-108"/>
      <use x="243.847656" xlink:href="#DejaVuSans-101"/>
     </g>
    </g>
   </g>
  </g>
 </g>
 <defs>
  <clipPath id="p73c54492d0">
   <rect height="266.112" width="357.12" x="57.6" y="41.472"/>
  </clipPath>
 </defs>
</svg>
