<?xml version="1.0" encoding="utf-8" standalone="no"?>
<!DOCTYPE svg PUBLIC "-//W3C//DTD SVG 1.1//EN"
  "http://www.w3.org/Graphics/SVG/1.1/DTD/svg11.dtd">
<!-- Created with matplotlib (https://matplotlib.org/) -->
<svg height="432pt" version="1.1" viewBox="0 0 576 432" width="576pt" xmlns="http://www.w3.org/2000/svg" xmlns:xlink="http://www.w3.org/1999/xlink">
 <metadata>
  <rdf:RDF xmlns:cc="http://creativecommons.org/ns#" xmlns:dc="http://purl.org/dc/elements/1.1/" xmlns:rdf="http://www.w3.org/1999/02/22-rdf-syntax-ns#">
   <cc:Work>
    <dc:type rdf:resource="http://purl.org/dc/dcmitype/StillImage"/>
    <dc:date>2021-08-16T15:33:30.410545</dc:date>
    <dc:format>image/svg+xml</dc:format>
    <dc:creator>
     <cc:Agent>
      <dc:title>Matplotlib v3.3.3, https://matplotlib.org/</dc:title>
     </cc:Agent>
    </dc:creator>
   </cc:Work>
  </rdf:RDF>
 </metadata>
 <defs>
  <style type="text/css">*{stroke-linecap:butt;stroke-linejoin:round;}</style>
 </defs>
 <g id="figure_1">
  <g id="patch_1">
   <path d="M 0 432 
L 576 432 
L 576 0 
L 0 0 
z
" style="fill:#ffffff;"/>
  </g>
  <g id="axes_1">
   <g id="patch_2">
    <path d="M 55.82 379.72 
L 556.515 379.72 
L 556.515 38.76 
L 55.82 38.76 
z
" style="fill:#ffffff;"/>
   </g>
   <g id="matplotlib.axis_1">
    <g id="xtick_1">
     <g id="line2d_1">
      <defs>
       <path d="M 0 0 
L 0 3.5 
" id="m6c452a693a" style="stroke:#000000;stroke-width:0.8;"/>
      </defs>
      <g>
       <use style="stroke:#000000;stroke-width:0.8;" x="149.859162" xlink:href="#m6c452a693a" y="379.72"/>
      </g>
     </g>
     <g id="text_1">
      <!-- 1.2 -->
      <g transform="translate(141.112444 395.078281)scale(0.11 -0.11)">
       <defs>
        <path d="M 12.40625 8.296875 
L 28.515625 8.296875 
L 28.515625 63.921875 
L 10.984375 60.40625 
L 10.984375 69.390625 
L 28.421875 72.90625 
L 38.28125 72.90625 
L 38.28125 8.296875 
L 54.390625 8.296875 
L 54.390625 0 
L 12.40625 0 
z
" id="DejaVuSans-49"/>
        <path d="M 10.6875 12.40625 
L 21 12.40625 
L 21 0 
L 10.6875 0 
z
" id="DejaVuSans-46"/>
        <path d="M 19.1875 8.296875 
L 53.609375 8.296875 
L 53.609375 0 
L 7.328125 0 
L 7.328125 8.296875 
Q 12.9375 14.109375 22.625 23.890625 
Q 32.328125 33.6875 34.8125 36.53125 
Q 39.546875 41.84375 41.421875 45.53125 
Q 43.3125 49.21875 43.3125 52.78125 
Q 43.3125 58.59375 39.234375 62.25 
Q 35.15625 65.921875 28.609375 65.921875 
Q 23.96875 65.921875 18.8125 64.3125 
Q 13.671875 62.703125 7.8125 59.421875 
L 7.8125 69.390625 
Q 13.765625 71.78125 18.9375 73 
Q 24.125 74.21875 28.421875 74.21875 
Q 39.75 74.21875 46.484375 68.546875 
Q 53.21875 62.890625 53.21875 53.421875 
Q 53.21875 48.921875 51.53125 44.890625 
Q 49.859375 40.875 45.40625 35.40625 
Q 44.1875 33.984375 37.640625 27.21875 
Q 31.109375 20.453125 19.1875 8.296875 
z
" id="DejaVuSans-50"/>
       </defs>
       <use xlink:href="#DejaVuSans-49"/>
       <use x="63.623047" xlink:href="#DejaVuSans-46"/>
       <use x="95.410156" xlink:href="#DejaVuSans-50"/>
      </g>
     </g>
    </g>
    <g id="xtick_2">
     <g id="line2d_2">
      <g>
       <use style="stroke:#000000;stroke-width:0.8;" x="251.523122" xlink:href="#m6c452a693a" y="379.72"/>
      </g>
     </g>
     <g id="text_2">
      <!-- 1.4 -->
      <g transform="translate(242.776403 395.078281)scale(0.11 -0.11)">
       <defs>
        <path d="M 37.796875 64.3125 
L 12.890625 25.390625 
L 37.796875 25.390625 
z
M 35.203125 72.90625 
L 47.609375 72.90625 
L 47.609375 25.390625 
L 58.015625 25.390625 
L 58.015625 17.1875 
L 47.609375 17.1875 
L 47.609375 0 
L 37.796875 0 
L 37.796875 17.1875 
L 4.890625 17.1875 
L 4.890625 26.703125 
z
" id="DejaVuSans-52"/>
       </defs>
       <use xlink:href="#DejaVuSans-49"/>
       <use x="63.623047" xlink:href="#DejaVuSans-46"/>
       <use x="95.410156" xlink:href="#DejaVuSans-52"/>
      </g>
     </g>
    </g>
    <g id="xtick_3">
     <g id="line2d_3">
      <g>
       <use style="stroke:#000000;stroke-width:0.8;" x="353.187081" xlink:href="#m6c452a693a" y="379.72"/>
      </g>
     </g>
     <g id="text_3">
      <!-- 1.6 -->
      <g transform="translate(344.440362 395.078281)scale(0.11 -0.11)">
       <defs>
        <path d="M 33.015625 40.375 
Q 26.375 40.375 22.484375 35.828125 
Q 18.609375 31.296875 18.609375 23.390625 
Q 18.609375 15.53125 22.484375 10.953125 
Q 26.375 6.390625 33.015625 6.390625 
Q 39.65625 6.390625 43.53125 10.953125 
Q 47.40625 15.53125 47.40625 23.390625 
Q 47.40625 31.296875 43.53125 35.828125 
Q 39.65625 40.375 33.015625 40.375 
z
M 52.59375 71.296875 
L 52.59375 62.3125 
Q 48.875 64.0625 45.09375 64.984375 
Q 41.3125 65.921875 37.59375 65.921875 
Q 27.828125 65.921875 22.671875 59.328125 
Q 17.53125 52.734375 16.796875 39.40625 
Q 19.671875 43.65625 24.015625 45.921875 
Q 28.375 48.1875 33.59375 48.1875 
Q 44.578125 48.1875 50.953125 41.515625 
Q 57.328125 34.859375 57.328125 23.390625 
Q 57.328125 12.15625 50.6875 5.359375 
Q 44.046875 -1.421875 33.015625 -1.421875 
Q 20.359375 -1.421875 13.671875 8.265625 
Q 6.984375 17.96875 6.984375 36.375 
Q 6.984375 53.65625 15.1875 63.9375 
Q 23.390625 74.21875 37.203125 74.21875 
Q 40.921875 74.21875 44.703125 73.484375 
Q 48.484375 72.75 52.59375 71.296875 
z
" id="DejaVuSans-54"/>
       </defs>
       <use xlink:href="#DejaVuSans-49"/>
       <use x="63.623047" xlink:href="#DejaVuSans-46"/>
       <use x="95.410156" xlink:href="#DejaVuSans-54"/>
      </g>
     </g>
    </g>
    <g id="xtick_4">
     <g id="line2d_4">
      <g>
       <use style="stroke:#000000;stroke-width:0.8;" x="454.851041" xlink:href="#m6c452a693a" y="379.72"/>
      </g>
     </g>
     <g id="text_4">
      <!-- 1.8 -->
      <g transform="translate(446.104322 395.078281)scale(0.11 -0.11)">
       <defs>
        <path d="M 31.78125 34.625 
Q 24.75 34.625 20.71875 30.859375 
Q 16.703125 27.09375 16.703125 20.515625 
Q 16.703125 13.921875 20.71875 10.15625 
Q 24.75 6.390625 31.78125 6.390625 
Q 38.8125 6.390625 42.859375 10.171875 
Q 46.921875 13.96875 46.921875 20.515625 
Q 46.921875 27.09375 42.890625 30.859375 
Q 38.875 34.625 31.78125 34.625 
z
M 21.921875 38.8125 
Q 15.578125 40.375 12.03125 44.71875 
Q 8.5 49.078125 8.5 55.328125 
Q 8.5 64.0625 14.71875 69.140625 
Q 20.953125 74.21875 31.78125 74.21875 
Q 42.671875 74.21875 48.875 69.140625 
Q 55.078125 64.0625 55.078125 55.328125 
Q 55.078125 49.078125 51.53125 44.71875 
Q 48 40.375 41.703125 38.8125 
Q 48.828125 37.15625 52.796875 32.3125 
Q 56.78125 27.484375 56.78125 20.515625 
Q 56.78125 9.90625 50.3125 4.234375 
Q 43.84375 -1.421875 31.78125 -1.421875 
Q 19.734375 -1.421875 13.25 4.234375 
Q 6.78125 9.90625 6.78125 20.515625 
Q 6.78125 27.484375 10.78125 32.3125 
Q 14.796875 37.15625 21.921875 38.8125 
z
M 18.3125 54.390625 
Q 18.3125 48.734375 21.84375 45.5625 
Q 25.390625 42.390625 31.78125 42.390625 
Q 38.140625 42.390625 41.71875 45.5625 
Q 45.3125 48.734375 45.3125 54.390625 
Q 45.3125 60.0625 41.71875 63.234375 
Q 38.140625 66.40625 31.78125 66.40625 
Q 25.390625 66.40625 21.84375 63.234375 
Q 18.3125 60.0625 18.3125 54.390625 
z
" id="DejaVuSans-56"/>
       </defs>
       <use xlink:href="#DejaVuSans-49"/>
       <use x="63.623047" xlink:href="#DejaVuSans-46"/>
       <use x="95.410156" xlink:href="#DejaVuSans-56"/>
      </g>
     </g>
    </g>
    <g id="xtick_5">
     <g id="line2d_5">
      <g>
       <use style="stroke:#000000;stroke-width:0.8;" x="556.515" xlink:href="#m6c452a693a" y="379.72"/>
      </g>
     </g>
     <g id="text_5">
      <!-- 2.0 -->
      <g transform="translate(547.768281 395.078281)scale(0.11 -0.11)">
       <defs>
        <path d="M 31.78125 66.40625 
Q 24.171875 66.40625 20.328125 58.90625 
Q 16.5 51.421875 16.5 36.375 
Q 16.5 21.390625 20.328125 13.890625 
Q 24.171875 6.390625 31.78125 6.390625 
Q 39.453125 6.390625 43.28125 13.890625 
Q 47.125 21.390625 47.125 36.375 
Q 47.125 51.421875 43.28125 58.90625 
Q 39.453125 66.40625 31.78125 66.40625 
z
M 31.78125 74.21875 
Q 44.046875 74.21875 50.515625 64.515625 
Q 56.984375 54.828125 56.984375 36.375 
Q 56.984375 17.96875 50.515625 8.265625 
Q 44.046875 -1.421875 31.78125 -1.421875 
Q 19.53125 -1.421875 13.0625 8.265625 
Q 6.59375 17.96875 6.59375 36.375 
Q 6.59375 54.828125 13.0625 64.515625 
Q 19.53125 74.21875 31.78125 74.21875 
z
" id="DejaVuSans-48"/>
       </defs>
       <use xlink:href="#DejaVuSans-50"/>
       <use x="63.623047" xlink:href="#DejaVuSans-46"/>
       <use x="95.410156" xlink:href="#DejaVuSans-48"/>
      </g>
     </g>
    </g>
    <g id="text_6">
     <!-- Current $I$ -->
     <g transform="translate(275.2975 418.00375)scale(0.14 -0.14)">
      <defs>
       <path d="M 64.40625 67.28125 
L 64.40625 56.890625 
Q 59.421875 61.53125 53.78125 63.8125 
Q 48.140625 66.109375 41.796875 66.109375 
Q 29.296875 66.109375 22.65625 58.46875 
Q 16.015625 50.828125 16.015625 36.375 
Q 16.015625 21.96875 22.65625 14.328125 
Q 29.296875 6.6875 41.796875 6.6875 
Q 48.140625 6.6875 53.78125 8.984375 
Q 59.421875 11.28125 64.40625 15.921875 
L 64.40625 5.609375 
Q 59.234375 2.09375 53.4375 0.328125 
Q 47.65625 -1.421875 41.21875 -1.421875 
Q 24.65625 -1.421875 15.125 8.703125 
Q 5.609375 18.84375 5.609375 36.375 
Q 5.609375 53.953125 15.125 64.078125 
Q 24.65625 74.21875 41.21875 74.21875 
Q 47.75 74.21875 53.53125 72.484375 
Q 59.328125 70.75 64.40625 67.28125 
z
" id="DejaVuSans-67"/>
       <path d="M 8.5 21.578125 
L 8.5 54.6875 
L 17.484375 54.6875 
L 17.484375 21.921875 
Q 17.484375 14.15625 20.5 10.265625 
Q 23.53125 6.390625 29.59375 6.390625 
Q 36.859375 6.390625 41.078125 11.03125 
Q 45.3125 15.671875 45.3125 23.6875 
L 45.3125 54.6875 
L 54.296875 54.6875 
L 54.296875 0 
L 45.3125 0 
L 45.3125 8.40625 
Q 42.046875 3.421875 37.71875 1 
Q 33.40625 -1.421875 27.6875 -1.421875 
Q 18.265625 -1.421875 13.375 4.4375 
Q 8.5 10.296875 8.5 21.578125 
z
M 31.109375 56 
z
" id="DejaVuSans-117"/>
       <path d="M 41.109375 46.296875 
Q 39.59375 47.171875 37.8125 47.578125 
Q 36.03125 48 33.890625 48 
Q 26.265625 48 22.1875 43.046875 
Q 18.109375 38.09375 18.109375 28.8125 
L 18.109375 0 
L 9.078125 0 
L 9.078125 54.6875 
L 18.109375 54.6875 
L 18.109375 46.1875 
Q 20.953125 51.171875 25.484375 53.578125 
Q 30.03125 56 36.53125 56 
Q 37.453125 56 38.578125 55.875 
Q 39.703125 55.765625 41.0625 55.515625 
z
" id="DejaVuSans-114"/>
       <path d="M 56.203125 29.59375 
L 56.203125 25.203125 
L 14.890625 25.203125 
Q 15.484375 15.921875 20.484375 11.0625 
Q 25.484375 6.203125 34.421875 6.203125 
Q 39.59375 6.203125 44.453125 7.46875 
Q 49.3125 8.734375 54.109375 11.28125 
L 54.109375 2.78125 
Q 49.265625 0.734375 44.1875 -0.34375 
Q 39.109375 -1.421875 33.890625 -1.421875 
Q 20.796875 -1.421875 13.15625 6.1875 
Q 5.515625 13.8125 5.515625 26.8125 
Q 5.515625 40.234375 12.765625 48.109375 
Q 20.015625 56 32.328125 56 
Q 43.359375 56 49.78125 48.890625 
Q 56.203125 41.796875 56.203125 29.59375 
z
M 47.21875 32.234375 
Q 47.125 39.59375 43.09375 43.984375 
Q 39.0625 48.390625 32.421875 48.390625 
Q 24.90625 48.390625 20.390625 44.140625 
Q 15.875 39.890625 15.1875 32.171875 
z
" id="DejaVuSans-101"/>
       <path d="M 54.890625 33.015625 
L 54.890625 0 
L 45.90625 0 
L 45.90625 32.71875 
Q 45.90625 40.484375 42.875 44.328125 
Q 39.84375 48.1875 33.796875 48.1875 
Q 26.515625 48.1875 22.3125 43.546875 
Q 18.109375 38.921875 18.109375 30.90625 
L 18.109375 0 
L 9.078125 0 
L 9.078125 54.6875 
L 18.109375 54.6875 
L 18.109375 46.1875 
Q 21.34375 51.125 25.703125 53.5625 
Q 30.078125 56 35.796875 56 
Q 45.21875 56 50.046875 50.171875 
Q 54.890625 44.34375 54.890625 33.015625 
z
" id="DejaVuSans-110"/>
       <path d="M 18.3125 70.21875 
L 18.3125 54.6875 
L 36.8125 54.6875 
L 36.8125 47.703125 
L 18.3125 47.703125 
L 18.3125 18.015625 
Q 18.3125 11.328125 20.140625 9.421875 
Q 21.96875 7.515625 27.59375 7.515625 
L 36.8125 7.515625 
L 36.8125 0 
L 27.59375 0 
Q 17.1875 0 13.234375 3.875 
Q 9.28125 7.765625 9.28125 18.015625 
L 9.28125 47.703125 
L 2.6875 47.703125 
L 2.6875 54.6875 
L 9.28125 54.6875 
L 9.28125 70.21875 
z
" id="DejaVuSans-116"/>
       <path id="DejaVuSans-32"/>
       <path d="M 16.890625 72.90625 
L 26.8125 72.90625 
L 12.59375 0 
L 2.6875 0 
z
" id="DejaVuSans-Oblique-73"/>
      </defs>
      <use transform="translate(0 0.78125)" xlink:href="#DejaVuSans-67"/>
      <use transform="translate(69.824219 0.78125)" xlink:href="#DejaVuSans-117"/>
      <use transform="translate(133.203125 0.78125)" xlink:href="#DejaVuSans-114"/>
      <use transform="translate(174.316406 0.78125)" xlink:href="#DejaVuSans-114"/>
      <use transform="translate(215.429688 0.78125)" xlink:href="#DejaVuSans-101"/>
      <use transform="translate(276.953125 0.78125)" xlink:href="#DejaVuSans-110"/>
      <use transform="translate(340.332031 0.78125)" xlink:href="#DejaVuSans-116"/>
      <use transform="translate(379.541016 0.78125)" xlink:href="#DejaVuSans-32"/>
      <use transform="translate(411.328125 0.78125)" xlink:href="#DejaVuSans-Oblique-73"/>
     </g>
    </g>
   </g>
   <g id="matplotlib.axis_2">
    <g id="ytick_1">
     <g id="line2d_6">
      <defs>
       <path d="M 0 0 
L -3.5 0 
" id="me6bcf6c317" style="stroke:#000000;stroke-width:0.8;"/>
      </defs>
      <g>
       <use style="stroke:#000000;stroke-width:0.8;" x="55.82" xlink:href="#me6bcf6c317" y="364.674537"/>
      </g>
     </g>
     <g id="text_7">
      <!-- 0.0 -->
      <g transform="translate(31.326563 368.853677)scale(0.11 -0.11)">
       <use xlink:href="#DejaVuSans-48"/>
       <use x="63.623047" xlink:href="#DejaVuSans-46"/>
       <use x="95.410156" xlink:href="#DejaVuSans-48"/>
      </g>
     </g>
    </g>
    <g id="ytick_2">
     <g id="line2d_7">
      <g>
       <use style="stroke:#000000;stroke-width:0.8;" x="55.82" xlink:href="#me6bcf6c317" y="302.500722"/>
      </g>
     </g>
     <g id="text_8">
      <!-- 0.2 -->
      <g transform="translate(31.326563 306.679863)scale(0.11 -0.11)">
       <use xlink:href="#DejaVuSans-48"/>
       <use x="63.623047" xlink:href="#DejaVuSans-46"/>
       <use x="95.410156" xlink:href="#DejaVuSans-50"/>
      </g>
     </g>
    </g>
    <g id="ytick_3">
     <g id="line2d_8">
      <g>
       <use style="stroke:#000000;stroke-width:0.8;" x="55.82" xlink:href="#me6bcf6c317" y="240.326907"/>
      </g>
     </g>
     <g id="text_9">
      <!-- 0.4 -->
      <g transform="translate(31.326563 244.506048)scale(0.11 -0.11)">
       <use xlink:href="#DejaVuSans-48"/>
       <use x="63.623047" xlink:href="#DejaVuSans-46"/>
       <use x="95.410156" xlink:href="#DejaVuSans-52"/>
      </g>
     </g>
    </g>
    <g id="ytick_4">
     <g id="line2d_9">
      <g>
       <use style="stroke:#000000;stroke-width:0.8;" x="55.82" xlink:href="#me6bcf6c317" y="178.153093"/>
      </g>
     </g>
     <g id="text_10">
      <!-- 0.6 -->
      <g transform="translate(31.326563 182.332233)scale(0.11 -0.11)">
       <use xlink:href="#DejaVuSans-48"/>
       <use x="63.623047" xlink:href="#DejaVuSans-46"/>
       <use x="95.410156" xlink:href="#DejaVuSans-54"/>
      </g>
     </g>
    </g>
    <g id="ytick_5">
     <g id="line2d_10">
      <g>
       <use style="stroke:#000000;stroke-width:0.8;" x="55.82" xlink:href="#me6bcf6c317" y="115.979278"/>
      </g>
     </g>
     <g id="text_11">
      <!-- 0.8 -->
      <g transform="translate(31.326563 120.158419)scale(0.11 -0.11)">
       <use xlink:href="#DejaVuSans-48"/>
       <use x="63.623047" xlink:href="#DejaVuSans-46"/>
       <use x="95.410156" xlink:href="#DejaVuSans-56"/>
      </g>
     </g>
    </g>
    <g id="ytick_6">
     <g id="line2d_11">
      <g>
       <use style="stroke:#000000;stroke-width:0.8;" x="55.82" xlink:href="#me6bcf6c317" y="53.805463"/>
      </g>
     </g>
     <g id="text_12">
      <!-- 1.0 -->
      <g transform="translate(31.326563 57.984604)scale(0.11 -0.11)">
       <use xlink:href="#DejaVuSans-49"/>
       <use x="63.623047" xlink:href="#DejaVuSans-46"/>
       <use x="95.410156" xlink:href="#DejaVuSans-48"/>
      </g>
     </g>
    </g>
    <g id="text_13">
     <!-- Phase Difference $\phi$ -->
     <g transform="translate(24.386563 275.6)rotate(-90)scale(0.14 -0.14)">
      <defs>
       <path d="M 19.671875 64.796875 
L 19.671875 37.40625 
L 32.078125 37.40625 
Q 38.96875 37.40625 42.71875 40.96875 
Q 46.484375 44.53125 46.484375 51.125 
Q 46.484375 57.671875 42.71875 61.234375 
Q 38.96875 64.796875 32.078125 64.796875 
z
M 9.8125 72.90625 
L 32.078125 72.90625 
Q 44.34375 72.90625 50.609375 67.359375 
Q 56.890625 61.8125 56.890625 51.125 
Q 56.890625 40.328125 50.609375 34.8125 
Q 44.34375 29.296875 32.078125 29.296875 
L 19.671875 29.296875 
L 19.671875 0 
L 9.8125 0 
z
" id="DejaVuSans-80"/>
       <path d="M 54.890625 33.015625 
L 54.890625 0 
L 45.90625 0 
L 45.90625 32.71875 
Q 45.90625 40.484375 42.875 44.328125 
Q 39.84375 48.1875 33.796875 48.1875 
Q 26.515625 48.1875 22.3125 43.546875 
Q 18.109375 38.921875 18.109375 30.90625 
L 18.109375 0 
L 9.078125 0 
L 9.078125 75.984375 
L 18.109375 75.984375 
L 18.109375 46.1875 
Q 21.34375 51.125 25.703125 53.5625 
Q 30.078125 56 35.796875 56 
Q 45.21875 56 50.046875 50.171875 
Q 54.890625 44.34375 54.890625 33.015625 
z
" id="DejaVuSans-104"/>
       <path d="M 34.28125 27.484375 
Q 23.390625 27.484375 19.1875 25 
Q 14.984375 22.515625 14.984375 16.5 
Q 14.984375 11.71875 18.140625 8.90625 
Q 21.296875 6.109375 26.703125 6.109375 
Q 34.1875 6.109375 38.703125 11.40625 
Q 43.21875 16.703125 43.21875 25.484375 
L 43.21875 27.484375 
z
M 52.203125 31.203125 
L 52.203125 0 
L 43.21875 0 
L 43.21875 8.296875 
Q 40.140625 3.328125 35.546875 0.953125 
Q 30.953125 -1.421875 24.3125 -1.421875 
Q 15.921875 -1.421875 10.953125 3.296875 
Q 6 8.015625 6 15.921875 
Q 6 25.140625 12.171875 29.828125 
Q 18.359375 34.515625 30.609375 34.515625 
L 43.21875 34.515625 
L 43.21875 35.40625 
Q 43.21875 41.609375 39.140625 45 
Q 35.0625 48.390625 27.6875 48.390625 
Q 23 48.390625 18.546875 47.265625 
Q 14.109375 46.140625 10.015625 43.890625 
L 10.015625 52.203125 
Q 14.9375 54.109375 19.578125 55.046875 
Q 24.21875 56 28.609375 56 
Q 40.484375 56 46.34375 49.84375 
Q 52.203125 43.703125 52.203125 31.203125 
z
" id="DejaVuSans-97"/>
       <path d="M 44.28125 53.078125 
L 44.28125 44.578125 
Q 40.484375 46.53125 36.375 47.5 
Q 32.28125 48.484375 27.875 48.484375 
Q 21.1875 48.484375 17.84375 46.4375 
Q 14.5 44.390625 14.5 40.28125 
Q 14.5 37.15625 16.890625 35.375 
Q 19.28125 33.59375 26.515625 31.984375 
L 29.59375 31.296875 
Q 39.15625 29.25 43.1875 25.515625 
Q 47.21875 21.78125 47.21875 15.09375 
Q 47.21875 7.46875 41.1875 3.015625 
Q 35.15625 -1.421875 24.609375 -1.421875 
Q 20.21875 -1.421875 15.453125 -0.5625 
Q 10.6875 0.296875 5.421875 2 
L 5.421875 11.28125 
Q 10.40625 8.6875 15.234375 7.390625 
Q 20.0625 6.109375 24.8125 6.109375 
Q 31.15625 6.109375 34.5625 8.28125 
Q 37.984375 10.453125 37.984375 14.40625 
Q 37.984375 18.0625 35.515625 20.015625 
Q 33.0625 21.96875 24.703125 23.78125 
L 21.578125 24.515625 
Q 13.234375 26.265625 9.515625 29.90625 
Q 5.8125 33.546875 5.8125 39.890625 
Q 5.8125 47.609375 11.28125 51.796875 
Q 16.75 56 26.8125 56 
Q 31.78125 56 36.171875 55.265625 
Q 40.578125 54.546875 44.28125 53.078125 
z
" id="DejaVuSans-115"/>
       <path d="M 19.671875 64.796875 
L 19.671875 8.109375 
L 31.59375 8.109375 
Q 46.6875 8.109375 53.6875 14.9375 
Q 60.6875 21.78125 60.6875 36.53125 
Q 60.6875 51.171875 53.6875 57.984375 
Q 46.6875 64.796875 31.59375 64.796875 
z
M 9.8125 72.90625 
L 30.078125 72.90625 
Q 51.265625 72.90625 61.171875 64.09375 
Q 71.09375 55.28125 71.09375 36.53125 
Q 71.09375 17.671875 61.125 8.828125 
Q 51.171875 0 30.078125 0 
L 9.8125 0 
z
" id="DejaVuSans-68"/>
       <path d="M 9.421875 54.6875 
L 18.40625 54.6875 
L 18.40625 0 
L 9.421875 0 
z
M 9.421875 75.984375 
L 18.40625 75.984375 
L 18.40625 64.59375 
L 9.421875 64.59375 
z
" id="DejaVuSans-105"/>
       <path d="M 37.109375 75.984375 
L 37.109375 68.5 
L 28.515625 68.5 
Q 23.6875 68.5 21.796875 66.546875 
Q 19.921875 64.59375 19.921875 59.515625 
L 19.921875 54.6875 
L 34.71875 54.6875 
L 34.71875 47.703125 
L 19.921875 47.703125 
L 19.921875 0 
L 10.890625 0 
L 10.890625 47.703125 
L 2.296875 47.703125 
L 2.296875 54.6875 
L 10.890625 54.6875 
L 10.890625 58.5 
Q 10.890625 67.625 15.140625 71.796875 
Q 19.390625 75.984375 28.609375 75.984375 
z
" id="DejaVuSans-102"/>
       <path d="M 48.78125 52.59375 
L 48.78125 44.1875 
Q 44.96875 46.296875 41.140625 47.34375 
Q 37.3125 48.390625 33.40625 48.390625 
Q 24.65625 48.390625 19.8125 42.84375 
Q 14.984375 37.3125 14.984375 27.296875 
Q 14.984375 17.28125 19.8125 11.734375 
Q 24.65625 6.203125 33.40625 6.203125 
Q 37.3125 6.203125 41.140625 7.25 
Q 44.96875 8.296875 48.78125 10.40625 
L 48.78125 2.09375 
Q 45.015625 0.34375 40.984375 -0.53125 
Q 36.96875 -1.421875 32.421875 -1.421875 
Q 20.0625 -1.421875 12.78125 6.34375 
Q 5.515625 14.109375 5.515625 27.296875 
Q 5.515625 40.671875 12.859375 48.328125 
Q 20.21875 56 33.015625 56 
Q 37.15625 56 41.109375 55.140625 
Q 45.0625 54.296875 48.78125 52.59375 
z
" id="DejaVuSans-99"/>
       <path d="M 46.734375 75.984375 
L 42.78125 55.8125 
Q 52.546875 55.8125 57.5625 48.34375 
Q 62.75 40.71875 60.15625 27.296875 
Q 57.515625 13.875 49.359375 6.25 
Q 41.453125 -1.21875 31.6875 -1.21875 
L 27.875 -20.796875 
L 18.953125 -20.796875 
L 22.75 -1.21875 
Q 13.03125 -1.21875 7.953125 6.25 
Q 2.78125 13.875 5.421875 27.296875 
Q 8.015625 40.71875 16.15625 48.34375 
Q 24.125 55.8125 33.84375 55.8125 
L 37.796875 75.984375 
z
M 33.25 6.78125 
Q 38.765625 6.78125 43.5 11.8125 
Q 48.6875 17.4375 50.6875 27.296875 
Q 52.640625 37.0625 49.515625 42.78125 
Q 46.734375 47.796875 41.21875 47.796875 
z
M 24.3125 6.78125 
L 32.28125 47.796875 
Q 26.8125 47.796875 22.078125 42.78125 
Q 16.75 37.0625 14.890625 27.296875 
Q 13.03125 17.4375 16.0625 11.8125 
Q 18.796875 6.78125 24.3125 6.78125 
z
" id="DejaVuSans-Oblique-981"/>
      </defs>
      <use transform="translate(0 0.015625)" xlink:href="#DejaVuSans-80"/>
      <use transform="translate(60.302734 0.015625)" xlink:href="#DejaVuSans-104"/>
      <use transform="translate(123.681641 0.015625)" xlink:href="#DejaVuSans-97"/>
      <use transform="translate(184.960938 0.015625)" xlink:href="#DejaVuSans-115"/>
      <use transform="translate(237.060547 0.015625)" xlink:href="#DejaVuSans-101"/>
      <use transform="translate(298.583984 0.015625)" xlink:href="#DejaVuSans-32"/>
      <use transform="translate(330.371094 0.015625)" xlink:href="#DejaVuSans-68"/>
      <use transform="translate(407.373047 0.015625)" xlink:href="#DejaVuSans-105"/>
      <use transform="translate(435.15625 0.015625)" xlink:href="#DejaVuSans-102"/>
      <use transform="translate(470.361328 0.015625)" xlink:href="#DejaVuSans-102"/>
      <use transform="translate(505.566406 0.015625)" xlink:href="#DejaVuSans-101"/>
      <use transform="translate(567.089844 0.015625)" xlink:href="#DejaVuSans-114"/>
      <use transform="translate(608.203125 0.015625)" xlink:href="#DejaVuSans-101"/>
      <use transform="translate(669.726562 0.015625)" xlink:href="#DejaVuSans-110"/>
      <use transform="translate(733.105469 0.015625)" xlink:href="#DejaVuSans-99"/>
      <use transform="translate(788.085938 0.015625)" xlink:href="#DejaVuSans-101"/>
      <use transform="translate(849.609375 0.015625)" xlink:href="#DejaVuSans-32"/>
      <use transform="translate(881.396484 0.015625)" xlink:href="#DejaVuSans-Oblique-981"/>
     </g>
    </g>
   </g>
   <g id="line2d_12">
    <path clip-path="url(#pf314818b4e)" d="M 556.515 209.24 
L 369.381794 209.24 
L 369.381794 209.24 
" style="fill:none;stroke:#aa3863;stroke-dasharray:5.55,2.4;stroke-dashoffset:0;stroke-width:1.5;"/>
   </g>
   <g id="line2d_13">
    <path clip-path="url(#pf314818b4e)" d="M 368.436675 209.24 
L 368.436675 209.24 
L 365.895076 209.24 
L 363.353477 209.24 
L 360.811878 209.24 
L 358.270279 209.24 
L 355.72868 209.24 
L 353.187081 209.24 
L 350.645482 209.24 
L 348.103883 209.24 
L 345.562284 209.24 
L 343.020685 209.24 
L 340.479086 209.24 
L 337.937487 209.24 
L 335.395888 209.24 
L 332.854289 209.24 
L 330.31269 209.24 
L 327.771091 209.24 
L 325.229492 209.24 
L 322.687893 209.24 
L 320.146294 209.24 
L 317.604695 209.24 
L 315.063096 209.24 
L 312.521497 209.24 
L 309.979898 209.24 
L 307.438299 209.24 
L 304.896701 209.24 
L 302.355102 209.24 
L 299.813503 209.24 
L 297.271904 209.24 
L 294.730305 209.24 
L 292.188706 209.24 
L 289.647107 209.24 
L 287.105508 209.24 
L 284.563909 209.24 
L 282.02231 209.24 
L 279.480711 209.24 
L 276.939112 209.24 
L 274.397513 209.24 
L 271.855914 209.24 
L 269.314315 209.24 
L 266.772716 209.24 
L 264.231117 209.24 
L 261.689518 209.24 
L 259.147919 209.24 
L 256.60632 209.24 
L 254.064721 209.24 
L 251.523122 209.24 
L 248.981523 209.24 
L 246.439924 209.24 
L 243.898325 209.24 
L 241.356726 209.24 
L 238.815127 209.24 
L 236.273528 209.24 
L 233.731929 209.24 
L 231.19033 209.24 
L 228.648731 209.24 
L 226.107132 209.24 
L 223.565533 209.24 
L 221.023934 209.24 
L 218.482335 209.24 
L 215.940736 209.24 
L 213.399137 209.24 
L 210.857538 209.24 
L 208.315939 209.24 
L 205.77434 209.24 
L 203.232741 209.24 
L 200.691142 209.24 
L 198.149543 209.24 
L 195.607944 209.24 
L 193.066345 209.24 
L 190.524746 209.24 
L 187.983147 209.24 
L 185.441548 209.24 
L 182.899949 209.24 
L 180.35835 209.24 
L 177.816751 209.24 
L 175.275152 209.24 
L 172.733553 209.24 
L 170.191954 209.24 
L 167.650355 209.24 
L 165.108756 209.24 
L 162.567157 209.24 
L 160.025558 209.24 
L 157.483959 209.24 
L 154.94236 209.24 
L 152.400761 209.24 
L 149.859162 209.24 
L 147.317563 209.24 
L 144.775964 209.24 
L 142.234365 209.24 
L 139.692766 209.24 
L 137.151168 209.24 
L 134.609569 209.24 
L 132.06797 209.24 
L 129.526371 209.24 
L 126.984772 209.24 
L 124.443173 209.24 
L 121.901574 209.24 
L 119.359975 209.24 
L 116.818376 209.24 
L 114.276777 209.24 
L 111.735178 209.24 
L 109.193579 209.24 
L 106.65198 209.24 
L 104.110381 209.24 
L 101.568782 209.24 
L 99.027183 209.24 
L 96.485584 209.24 
L 93.943985 209.24 
L 91.402386 209.24 
L 88.860787 209.24 
L 86.319188 209.24 
L 83.777589 209.24 
L 81.23599 209.24 
L 78.694391 209.24 
L 76.152792 209.24 
L 73.611193 209.24 
L 71.069594 209.24 
L 68.527995 209.24 
L 65.986396 209.24 
L 63.444797 209.24 
L 60.903198 209.24 
L 58.361599 209.24 
L 55.82 209.24 
" style="fill:none;stroke:#aa3863;stroke-linecap:square;stroke-width:1.5;"/>
   </g>
   <g id="line2d_14">
    <path clip-path="url(#pf314818b4e)" d="M 368.436675 209.24 
L 368.436675 194.132012 
L 365.895076 186.625705 
L 363.353477 181.278415 
L 360.811878 176.49473 
L 358.270279 172.434376 
L 355.72868 168.939244 
L 353.187081 165.594666 
L 350.645482 162.490514 
L 348.103883 159.712432 
L 345.562284 157.020928 
L 343.020685 154.426695 
L 340.479086 152.066545 
L 337.937487 149.75828 
L 335.395888 147.500407 
L 332.854289 145.430144 
L 330.31269 143.371071 
L 327.771091 141.363448 
L 325.229492 139.515331 
L 322.687893 137.6282 
L 320.146294 135.820807 
L 317.604695 134.155047 
L 315.063096 132.389248 
L 312.521497 130.75187 
L 309.979898 129.174085 
L 307.438299 127.563969 
L 304.896701 126.076958 
L 302.355102 124.556653 
L 299.813503 123.091123 
L 297.271904 121.702471 
L 294.730305 120.259572 
L 292.188706 118.928928 
L 289.647107 117.560607 
L 287.105508 116.250107 
L 284.563909 114.976881 
L 282.02231 113.688453 
L 279.480711 112.494436 
L 276.939112 111.230038 
L 274.397513 110.070061 
L 271.855914 108.863547 
L 269.314315 107.727725 
L 266.772716 106.579778 
L 264.231117 105.470815 
L 261.689518 104.371489 
L 259.147919 103.291996 
L 256.60632 102.232989 
L 254.064721 101.185609 
L 251.523122 100.159835 
L 248.981523 99.147645 
L 246.439924 98.148605 
L 243.898325 97.174839 
L 241.356726 96.197529 
L 238.815127 95.265761 
L 236.273528 94.305579 
L 233.731929 93.414784 
L 231.19033 92.472726 
L 228.648731 91.590076 
L 226.107132 90.700337 
L 223.565533 89.823283 
L 221.023934 88.990868 
L 218.482335 88.116767 
L 215.940736 87.291098 
L 213.399137 86.475689 
L 210.857538 85.648373 
L 208.315939 84.860755 
L 205.77434 84.075842 
L 203.232741 83.284152 
L 200.691142 82.523952 
L 198.149543 81.786633 
L 195.607944 81.021025 
L 193.066345 80.282773 
L 190.524746 79.566997 
L 187.983147 78.86692 
L 185.441548 78.146667 
L 182.899949 77.446341 
L 180.35835 76.761932 
L 177.816751 76.091947 
L 175.275152 75.434521 
L 172.733553 74.785551 
L 170.191954 74.131016 
L 167.650355 73.488947 
L 165.108756 72.858193 
L 162.567157 72.237916 
L 160.025558 71.627649 
L 157.483959 71.027175 
L 154.94236 70.436679 
L 152.400761 69.856753 
L 149.859162 69.288391 
L 147.317563 68.724661 
L 144.775964 68.15863 
L 142.234365 67.604755 
L 139.692766 67.066081 
L 137.151168 66.546712 
L 134.609569 66.017551 
L 132.06797 65.498461 
L 129.526371 65.008283 
L 126.984772 64.497339 
L 124.443173 64.019377 
L 121.901574 63.529945 
L 119.359975 63.071227 
L 116.818376 62.599452 
L 114.276777 62.143811 
L 111.735178 61.700667 
L 109.193579 61.270362 
L 106.65198 60.840803 
L 104.110381 60.419824 
L 101.568782 60.008234 
L 99.027183 59.604664 
L 96.485584 59.220056 
L 93.943985 58.830071 
L 91.402386 58.459391 
L 88.860787 58.094897 
L 86.319188 57.736154 
L 83.777589 57.386644 
L 81.23599 57.058055 
L 78.694391 56.730524 
L 76.152792 56.414308 
L 73.611193 56.102568 
L 71.069594 55.808113 
L 68.527995 55.520217 
L 65.986396 55.256693 
L 63.444797 54.991988 
L 60.903198 54.753583 
L 58.361599 54.501779 
L 55.82 54.258182 
" style="fill:none;stroke:#aa3863;stroke-dasharray:5.55,2.4;stroke-dashoffset:0;stroke-width:1.5;"/>
   </g>
   <g id="line2d_15">
    <path clip-path="url(#pf314818b4e)" d="M 368.436675 209.24 
L 368.436675 224.347988 
L 365.895076 231.854295 
L 363.353477 237.201585 
L 360.811878 241.98527 
L 358.270279 246.045624 
L 355.72868 249.540756 
L 353.187081 252.885334 
L 350.645482 255.989486 
L 348.103883 258.767568 
L 345.562284 261.459072 
L 343.020685 264.053305 
L 340.479086 266.413455 
L 337.937487 268.72172 
L 335.395888 270.979593 
L 332.854289 273.049856 
L 330.31269 275.108929 
L 327.771091 277.116552 
L 325.229492 278.964669 
L 322.687893 280.8518 
L 320.146294 282.659193 
L 317.604695 284.324953 
L 315.063096 286.090752 
L 312.521497 287.72813 
L 309.979898 289.305915 
L 307.438299 290.916031 
L 304.896701 292.403042 
L 302.355102 293.923347 
L 299.813503 295.388877 
L 297.271904 296.777529 
L 294.730305 298.220428 
L 292.188706 299.551072 
L 289.647107 300.919393 
L 287.105508 302.229893 
L 284.563909 303.503119 
L 282.02231 304.791547 
L 279.480711 305.985564 
L 276.939112 307.249962 
L 274.397513 308.409939 
L 271.855914 309.616453 
L 269.314315 310.752275 
L 266.772716 311.900222 
L 264.231117 313.009185 
L 261.689518 314.108511 
L 259.147919 315.188004 
L 256.60632 316.247011 
L 254.064721 317.294391 
L 251.523122 318.320165 
L 248.981523 319.332355 
L 246.439924 320.331395 
L 243.898325 321.305161 
L 241.356726 322.282471 
L 238.815127 323.214239 
L 236.273528 324.174421 
L 233.731929 325.065216 
L 231.19033 326.007274 
L 228.648731 326.889924 
L 226.107132 327.779663 
L 223.565533 328.656717 
L 221.023934 329.489132 
L 218.482335 330.363233 
L 215.940736 331.188902 
L 213.399137 332.004311 
L 210.857538 332.831627 
L 208.315939 333.619245 
L 205.77434 334.404158 
L 203.232741 335.195848 
L 200.691142 335.956048 
L 198.149543 336.693367 
L 195.607944 337.458975 
L 193.066345 338.197227 
L 190.524746 338.913003 
L 187.983147 339.61308 
L 185.441548 340.333333 
L 182.899949 341.033659 
L 180.35835 341.718068 
L 177.816751 342.388053 
L 175.275152 343.045479 
L 172.733553 343.694449 
L 170.191954 344.348984 
L 167.650355 344.991053 
L 165.108756 345.621807 
L 162.567157 346.242084 
L 160.025558 346.852351 
L 157.483959 347.452825 
L 154.94236 348.043321 
L 152.400761 348.623247 
L 149.859162 349.191609 
L 147.317563 349.755339 
L 144.775964 350.32137 
L 142.234365 350.875245 
L 139.692766 351.413919 
L 137.151168 351.933288 
L 134.609569 352.462449 
L 132.06797 352.981539 
L 129.526371 353.471717 
L 126.984772 353.982661 
L 124.443173 354.460623 
L 121.901574 354.950055 
L 119.359975 355.408773 
L 116.818376 355.880548 
L 114.276777 356.336189 
L 111.735178 356.779333 
L 109.193579 357.209638 
L 106.65198 357.639197 
L 104.110381 358.060176 
L 101.568782 358.471766 
L 99.027183 358.875336 
L 96.485584 359.259944 
L 93.943985 359.649929 
L 91.402386 360.020609 
L 88.860787 360.385103 
L 86.319188 360.743846 
L 83.777589 361.093356 
L 81.23599 361.421945 
L 78.694391 361.749476 
L 76.152792 362.065692 
L 73.611193 362.377432 
L 71.069594 362.671887 
L 68.527995 362.959783 
L 65.986396 363.223307 
L 63.444797 363.488012 
L 60.903198 363.726417 
L 58.361599 363.978221 
L 55.82 364.221818 
" style="fill:none;stroke:#aa3863;stroke-dasharray:5.55,2.4;stroke-dashoffset:0;stroke-width:1.5;"/>
   </g>
   <g id="line2d_16">
    <path clip-path="url(#pf314818b4e)" d="M 556.515 209.24 
L 354.208855 209.24 
L 354.208855 209.24 
" style="fill:none;stroke:#d97020;stroke-dasharray:5.55,2.4;stroke-dashoffset:0;stroke-width:1.5;"/>
   </g>
   <g id="line2d_17">
    <path clip-path="url(#pf314818b4e)" d="M 353.187081 209.24 
L 353.187081 209.24 
L 350.645482 209.24 
L 348.103883 209.24 
L 345.562284 209.24 
L 343.020685 209.24 
L 340.479086 209.24 
L 337.937487 209.24 
L 335.395888 209.24 
L 332.854289 209.24 
L 330.31269 209.24 
L 327.771091 209.24 
L 325.229492 209.24 
L 322.687893 209.24 
L 320.146294 209.24 
L 317.604695 209.24 
L 315.063096 209.24 
L 312.521497 209.24 
L 309.979898 209.24 
L 307.438299 209.24 
L 304.896701 209.24 
L 302.355102 209.24 
L 299.813503 209.24 
L 297.271904 209.24 
L 294.730305 209.24 
L 292.188706 209.24 
L 289.647107 209.24 
L 287.105508 209.24 
L 284.563909 209.24 
L 282.02231 209.24 
L 279.480711 209.24 
L 276.939112 209.24 
L 274.397513 209.24 
L 271.855914 209.24 
L 269.314315 209.24 
L 266.772716 209.24 
L 264.231117 209.24 
L 261.689518 209.24 
L 259.147919 209.24 
L 256.60632 209.24 
L 254.064721 209.24 
L 251.523122 209.24 
L 248.981523 209.24 
L 246.439924 209.24 
L 243.898325 209.24 
L 241.356726 209.24 
L 238.815127 209.24 
L 236.273528 209.24 
L 233.731929 209.24 
L 231.19033 209.24 
L 228.648731 209.24 
L 226.107132 209.24 
L 223.565533 209.24 
L 221.023934 209.24 
L 218.482335 209.24 
L 215.940736 209.24 
L 213.399137 209.24 
L 210.857538 209.24 
L 208.315939 209.24 
L 205.77434 209.24 
L 203.232741 209.24 
L 200.691142 209.24 
L 198.149543 209.24 
L 195.607944 209.24 
L 193.066345 209.24 
L 190.524746 209.24 
L 187.983147 209.24 
L 185.441548 209.24 
L 182.899949 209.24 
L 180.35835 209.24 
L 177.816751 209.24 
L 175.275152 209.24 
L 172.733553 209.24 
L 170.191954 209.24 
L 167.650355 209.24 
L 165.108756 209.24 
L 162.567157 209.24 
L 160.025558 209.24 
L 157.483959 209.24 
L 154.94236 209.24 
L 152.400761 209.24 
L 149.859162 209.24 
L 147.317563 209.24 
L 144.775964 209.24 
L 142.234365 209.24 
L 139.692766 209.24 
L 137.151168 209.24 
L 134.609569 209.24 
L 132.06797 209.24 
L 129.526371 209.24 
L 126.984772 209.24 
L 124.443173 209.24 
L 121.901574 209.24 
L 119.359975 209.24 
L 116.818376 209.24 
L 114.276777 209.24 
L 111.735178 209.24 
L 109.193579 209.24 
L 106.65198 209.24 
L 104.110381 209.24 
L 101.568782 209.24 
L 99.027183 209.24 
L 96.485584 209.24 
L 93.943985 209.24 
L 91.402386 209.24 
L 88.860787 209.24 
L 86.319188 209.24 
L 83.777589 209.24 
L 81.23599 209.24 
" style="fill:none;stroke:#d97020;stroke-linecap:square;stroke-width:1.5;"/>
   </g>
   <g id="line2d_18">
    <path clip-path="url(#pf314818b4e)" d="M 353.187081 209.24 
L 353.187081 197.816277 
L 350.645482 188.42629 
L 348.103883 181.932297 
L 345.562284 176.973966 
L 343.020685 172.722272 
L 340.479086 168.705471 
L 337.937487 165.249477 
L 335.395888 162.112466 
L 332.854289 158.981299 
L 330.31269 156.200824 
L 327.771091 153.602581 
L 325.229492 150.979778 
L 322.687893 148.618541 
L 320.146294 146.339591 
L 317.604695 144.067418 
L 315.063096 142.010148 
L 312.521497 139.935812 
L 309.979898 137.933878 
L 307.438299 136.117718 
L 304.896701 134.181097 
L 302.355102 132.401932 
L 299.813503 130.689074 
L 297.271904 128.946404 
L 294.730305 127.361811 
L 292.188706 125.705532 
L 289.647107 124.149694 
L 287.105508 122.644746 
L 284.563909 121.119716 
L 282.02231 119.736317 
L 279.480711 118.245203 
L 276.939112 116.889813 
L 274.397513 115.505389 
L 271.855914 114.1809 
L 269.314315 112.883923 
L 266.772716 111.59335 
L 264.231117 110.368091 
L 261.689518 109.114387 
L 259.147919 107.94782 
L 256.60632 106.733969 
L 254.064721 105.615369 
L 251.523122 104.444543 
L 248.981523 103.36505 
L 246.439924 102.240388 
L 243.898325 101.192697 
L 241.356726 100.117619 
L 238.815127 99.095637 
L 236.273528 98.07353 
L 233.731929 97.072532 
L 231.19033 96.107408 
L 228.648731 95.123196 
L 226.107132 94.20865 
L 223.565533 93.248531 
L 221.023934 92.342348 
L 218.482335 91.450775 
L 215.940736 90.551151 
L 213.399137 89.702013 
L 210.857538 88.839164 
L 208.315939 87.992917 
L 205.77434 87.18646 
L 203.232741 86.367724 
L 200.691142 85.562293 
L 198.149543 84.789317 
L 195.607944 84.030424 
L 193.066345 83.258349 
L 190.524746 82.513352 
L 187.983147 81.791949 
" style="fill:none;stroke:#d97020;stroke-dasharray:5.55,2.4;stroke-dashoffset:0;stroke-width:1.5;"/>
   </g>
   <g id="line2d_19">
    <path clip-path="url(#pf314818b4e)" d="M 353.187081 209.24 
L 353.187081 220.663723 
L 350.645482 230.05371 
L 348.103883 236.547703 
L 345.562284 241.506034 
L 343.020685 245.757728 
L 340.479086 249.774529 
L 337.937487 253.230523 
L 335.395888 256.367534 
L 332.854289 259.498701 
L 330.31269 262.279176 
L 327.771091 264.877419 
L 325.229492 267.500222 
L 322.687893 269.861459 
L 320.146294 272.140409 
L 317.604695 274.412582 
L 315.063096 276.469852 
L 312.521497 278.544188 
L 309.979898 280.546122 
L 307.438299 282.362282 
L 304.896701 284.298903 
L 302.355102 286.078068 
L 299.813503 287.790926 
L 297.271904 289.533596 
L 294.730305 291.118189 
L 292.188706 292.774468 
L 289.647107 294.330306 
L 287.105508 295.835254 
L 284.563909 297.360284 
L 282.02231 298.743683 
L 279.480711 300.234797 
L 276.939112 301.590187 
L 274.397513 302.974611 
L 271.855914 304.2991 
L 269.314315 305.596077 
L 266.772716 306.88665 
L 264.231117 308.111909 
L 261.689518 309.365613 
L 259.147919 310.53218 
L 256.60632 311.746031 
L 254.064721 312.864631 
L 251.523122 314.035457 
L 248.981523 315.11495 
L 246.439924 316.239612 
L 243.898325 317.287303 
L 241.356726 318.362381 
L 238.815127 319.384363 
L 236.273528 320.40647 
L 233.731929 321.407468 
L 231.19033 322.372592 
L 228.648731 323.356804 
L 226.107132 324.27135 
L 223.565533 325.231469 
L 221.023934 326.137652 
L 218.482335 327.029225 
L 215.940736 327.928849 
L 213.399137 328.777987 
L 210.857538 329.640836 
L 208.315939 330.487083 
L 205.77434 331.29354 
L 203.232741 332.112276 
L 200.691142 332.917707 
L 198.149543 333.690683 
L 195.607944 334.449576 
L 193.066345 335.221651 
L 190.524746 335.966648 
L 187.983147 336.688051 
" style="fill:none;stroke:#d97020;stroke-dasharray:5.55,2.4;stroke-dashoffset:0;stroke-width:1.5;"/>
   </g>
   <g id="line2d_20">
    <path clip-path="url(#pf314818b4e)" d="M 556.515 209.24 
L 344.093545 209.24 
L 344.093545 209.24 
" style="fill:none;stroke:#ef9f07;stroke-dasharray:5.55,2.4;stroke-dashoffset:0;stroke-width:1.5;"/>
   </g>
   <g id="line2d_21">
    <path clip-path="url(#pf314818b4e)" d="M 343.020685 209.24 
L 343.020685 209.24 
L 340.479086 209.24 
L 337.937487 209.24 
L 335.395888 209.24 
L 332.854289 209.24 
L 330.31269 209.24 
L 327.771091 209.24 
L 325.229492 209.24 
L 322.687893 209.24 
L 320.146294 209.24 
L 317.604695 209.24 
L 315.063096 209.24 
L 312.521497 209.24 
L 309.979898 209.24 
L 307.438299 209.24 
L 304.896701 209.24 
L 302.355102 209.24 
L 299.813503 209.24 
L 297.271904 209.24 
L 294.730305 209.24 
L 292.188706 209.24 
L 289.647107 209.24 
L 287.105508 209.24 
L 284.563909 209.24 
L 282.02231 209.24 
L 279.480711 209.24 
L 276.939112 209.24 
L 274.397513 209.24 
L 271.855914 209.24 
L 269.314315 209.24 
L 266.772716 209.24 
L 264.231117 209.24 
L 261.689518 209.24 
L 259.147919 209.24 
L 256.60632 209.24 
L 254.064721 209.24 
L 251.523122 209.24 
L 248.981523 209.24 
L 246.439924 209.24 
L 243.898325 209.24 
L 241.356726 209.24 
L 238.815127 209.24 
L 236.273528 209.24 
L 233.731929 209.24 
L 231.19033 209.24 
L 228.648731 209.24 
L 226.107132 209.24 
L 223.565533 209.24 
L 221.023934 209.24 
L 218.482335 209.24 
L 215.940736 209.24 
L 213.399137 209.24 
L 210.857538 209.24 
L 208.315939 209.24 
L 205.77434 209.24 
L 203.232741 209.24 
L 200.691142 209.24 
L 198.149543 209.24 
L 195.607944 209.24 
L 193.066345 209.24 
L 190.524746 209.24 
L 187.983147 209.24 
L 185.441548 209.24 
L 182.899949 209.24 
L 180.35835 209.24 
L 177.816751 209.24 
L 175.275152 209.24 
L 172.733553 209.24 
L 170.191954 209.24 
L 167.650355 209.24 
L 165.108756 209.24 
L 162.567157 209.24 
L 160.025558 209.24 
L 157.483959 209.24 
L 154.94236 209.24 
L 152.400761 209.24 
L 149.859162 209.24 
L 147.317563 209.24 
L 144.775964 209.24 
L 142.234365 209.24 
L 139.692766 209.24 
L 137.151168 209.24 
L 134.609569 209.24 
L 132.06797 209.24 
L 129.526371 209.24 
L 126.984772 209.24 
L 124.443173 209.24 
L 121.901574 209.24 
L 119.359975 209.24 
L 116.818376 209.24 
L 114.276777 209.24 
L 111.735178 209.24 
L 109.193579 209.24 
L 106.65198 209.24 
L 104.110381 209.24 
L 101.568782 209.24 
L 99.027183 209.24 
L 96.485584 209.24 
L 93.943985 209.24 
L 91.402386 209.24 
" style="fill:none;stroke:#ef9f07;stroke-linecap:square;stroke-width:1.5;"/>
   </g>
   <g id="line2d_22">
    <path clip-path="url(#pf314818b4e)" d="M 343.020685 209.24 
L 343.020685 193.06141 
L 340.479086 184.95982 
L 337.937487 179.3454 
L 335.395888 174.772796 
L 332.854289 170.351585 
L 330.31269 166.662408 
L 327.771091 163.419391 
L 325.229492 160.066015 
L 322.687893 157.157741 
L 320.146294 154.50208 
L 317.604695 151.735843 
L 315.063096 149.299748 
L 312.521497 146.973546 
L 309.979898 144.607926 
L 307.438299 142.511518 
L 304.896701 140.386666 
L 302.355102 138.328868 
L 299.813503 136.502543 
L 297.271904 134.505769 
L 294.730305 132.703164 
L 292.188706 130.965779 
L 289.647107 129.191245 
L 287.105508 127.61175 
L 284.563909 125.911887 
L 282.02231 124.354712 
L 279.480711 122.825081 
L 276.939112 121.29573 
L 274.397513 119.900301 
L 271.855914 118.403653 
L 269.314315 117.073506 
L 266.772716 115.654793 
L 264.231117 114.356355 
L 261.689518 113.031524 
L 259.147919 111.769862 
L 256.60632 110.519951 
L 254.064721 109.299883 
L 251.523122 108.109938 
L 248.981523 106.93591 
L 246.439924 105.793995 
L 243.898325 104.670452 
L 241.356726 103.566866 
L 238.815127 102.49785 
L 236.273528 101.425134 
L 233.731929 100.414592 
L 231.19033 99.366777 
L 228.648731 98.408274 
L 226.107132 97.391235 
L 223.565533 96.444638 
L 221.023934 95.499037 
L 218.482335 94.562171 
L 215.940736 93.686421 
L 213.399137 92.763234 
L 210.857538 91.891277 
L 208.315939 91.051122 
" style="fill:none;stroke:#ef9f07;stroke-dasharray:5.55,2.4;stroke-dashoffset:0;stroke-width:1.5;"/>
   </g>
   <g id="line2d_23">
    <path clip-path="url(#pf314818b4e)" d="M 343.020685 209.24 
L 343.020685 225.41859 
L 340.479086 233.52018 
L 337.937487 239.1346 
L 335.395888 243.707204 
L 332.854289 248.128415 
L 330.31269 251.817592 
L 327.771091 255.060609 
L 325.229492 258.413985 
L 322.687893 261.322259 
L 320.146294 263.97792 
L 317.604695 266.744157 
L 315.063096 269.180252 
L 312.521497 271.506454 
L 309.979898 273.872074 
L 307.438299 275.968482 
L 304.896701 278.093334 
L 302.355102 280.151132 
L 299.813503 281.977457 
L 297.271904 283.974231 
L 294.730305 285.776836 
L 292.188706 287.514221 
L 289.647107 289.288755 
L 287.105508 290.86825 
L 284.563909 292.568113 
L 282.02231 294.125288 
L 279.480711 295.654919 
L 276.939112 297.18427 
L 274.397513 298.579699 
L 271.855914 300.076347 
L 269.314315 301.406494 
L 266.772716 302.825207 
L 264.231117 304.123645 
L 261.689518 305.448476 
L 259.147919 306.710138 
L 256.60632 307.960049 
L 254.064721 309.180117 
L 251.523122 310.370062 
L 248.981523 311.54409 
L 246.439924 312.686005 
L 243.898325 313.809548 
L 241.356726 314.913134 
L 238.815127 315.98215 
L 236.273528 317.054866 
L 233.731929 318.065408 
L 231.19033 319.113223 
L 228.648731 320.071726 
L 226.107132 321.088765 
L 223.565533 322.035362 
L 221.023934 322.980963 
L 218.482335 323.917829 
L 215.940736 324.793579 
L 213.399137 325.716766 
L 210.857538 326.588723 
L 208.315939 327.428878 
" style="fill:none;stroke:#ef9f07;stroke-dasharray:5.55,2.4;stroke-dashoffset:0;stroke-width:1.5;"/>
   </g>
   <g id="line2d_24">
    <path clip-path="url(#pf314818b4e)" d="M 556.515 209.24 
L 351.680015 209.24 
L 351.680015 209.24 
" style="fill:none;stroke:#449775;stroke-dasharray:5.55,2.4;stroke-dashoffset:0;stroke-width:1.5;"/>
   </g>
   <g id="line2d_25">
    <path clip-path="url(#pf314818b4e)" d="M 350.645482 209.24 
L 350.645482 209.24 
L 348.103883 209.24 
L 345.562284 209.24 
L 343.020685 209.24 
L 340.479086 209.24 
L 337.937487 209.24 
L 335.395888 209.24 
L 332.854289 209.24 
L 330.31269 209.24 
L 327.771091 209.24 
L 325.229492 209.24 
L 322.687893 209.24 
L 320.146294 209.24 
L 317.604695 209.24 
L 315.063096 209.24 
L 312.521497 209.24 
L 309.979898 209.24 
L 307.438299 209.24 
L 304.896701 209.24 
L 302.355102 209.24 
L 299.813503 209.24 
L 297.271904 209.24 
L 294.730305 209.24 
L 292.188706 209.24 
L 289.647107 209.24 
L 287.105508 209.24 
L 284.563909 209.24 
L 282.02231 209.24 
L 279.480711 209.24 
L 276.939112 209.24 
L 274.397513 209.24 
L 271.855914 209.24 
L 269.314315 209.24 
L 266.772716 209.24 
L 264.231117 209.24 
L 261.689518 209.24 
L 259.147919 209.24 
L 256.60632 209.24 
L 254.064721 209.24 
L 251.523122 209.24 
L 248.981523 209.24 
L 246.439924 209.24 
L 243.898325 209.24 
L 241.356726 209.24 
L 238.815127 209.24 
L 236.273528 209.24 
L 233.731929 209.24 
L 231.19033 209.24 
L 228.648731 209.24 
L 226.107132 209.24 
L 223.565533 209.24 
L 221.023934 209.24 
L 218.482335 209.24 
L 215.940736 209.24 
L 213.399137 209.24 
L 210.857538 209.24 
L 208.315939 209.24 
L 205.77434 209.24 
L 203.232741 209.24 
L 200.691142 209.24 
L 198.149543 209.24 
L 195.607944 209.24 
L 193.066345 209.24 
L 190.524746 209.24 
L 187.983147 209.24 
L 185.441548 209.24 
L 182.899949 209.24 
L 180.35835 209.24 
L 177.816751 209.24 
L 175.275152 209.24 
L 172.733553 209.24 
L 170.191954 209.24 
L 167.650355 209.24 
L 165.108756 209.24 
L 162.567157 209.24 
L 160.025558 209.24 
L 157.483959 209.24 
L 154.94236 209.24 
L 152.400761 209.24 
L 149.859162 209.24 
L 147.317563 209.24 
L 144.775964 209.24 
L 142.234365 209.24 
L 139.692766 209.24 
L 137.151168 209.24 
L 134.609569 209.24 
L 132.06797 209.24 
L 129.526371 209.24 
L 126.984772 209.24 
L 124.443173 209.24 
L 121.901574 209.24 
L 119.359975 209.24 
L 116.818376 209.24 
L 114.276777 209.24 
L 111.735178 209.24 
L 109.193579 209.24 
L 106.65198 209.24 
L 104.110381 209.24 
L 101.568782 209.24 
L 99.027183 209.24 
L 96.485584 209.24 
L 93.943985 209.24 
L 91.402386 209.24 
" style="fill:none;stroke:#449775;stroke-linecap:square;stroke-width:1.5;"/>
   </g>
   <g id="line2d_26">
    <path clip-path="url(#pf314818b4e)" d="M 350.645482 209.24 
L 350.645482 207.88545 
L 348.103883 192.612484 
L 345.562284 185.022118 
L 343.020685 179.799922 
L 340.479086 175.821668 
L 337.937487 171.482433 
L 335.395888 167.890807 
L 332.854289 164.926018 
L 330.31269 161.806447 
L 327.771091 158.897862 
L 325.229492 156.431489 
L 322.687893 153.911771 
L 320.146294 151.425502 
L 317.604695 149.290609 
L 315.063096 147.112536 
L 312.521497 144.936297 
L 309.979898 143.056472 
L 307.438299 141.083044 
L 304.896701 139.158888 
L 302.355102 137.493936 
L 299.813503 135.643239 
L 297.271904 133.937127 
L 294.730305 132.415081 
L 292.188706 130.684131 
L 289.647107 129.175328 
L 287.105508 127.665251 
L 284.563909 126.136054 
L 282.02231 124.811006 
L 279.480711 123.293592 
L 276.939112 121.953467 
L 274.397513 120.608709 
L 271.855914 119.266221 
L 269.314315 118.053272 
L 266.772716 116.718711 
L 264.231117 115.56119 
L 261.689518 114.288523 
L 259.147919 113.142722 
L 256.60632 111.958777 
L 254.064721 110.833991 
L 251.523122 109.71794 
L 248.981523 108.621567 
L 246.439924 107.557089 
L 243.898325 106.49631 
L 241.356726 105.470784 
L 238.815127 104.451538 
L 236.273528 103.455296 
L 233.731929 102.483674 
L 231.19033 101.508944 
L 228.648731 100.589953 
L 226.107132 99.631295 
L 223.565533 98.761794 
L 221.023934 97.823156 
L 218.482335 96.956453 
L 215.940736 96.086082 
" style="fill:none;stroke:#449775;stroke-dasharray:5.55,2.4;stroke-dashoffset:0;stroke-width:1.5;"/>
   </g>
   <g id="line2d_27">
    <path clip-path="url(#pf314818b4e)" d="M 350.645482 209.24 
L 350.645482 210.59455 
L 348.103883 225.867516 
L 345.562284 233.457882 
L 343.020685 238.680078 
L 340.479086 242.658332 
L 337.937487 246.997567 
L 335.395888 250.589193 
L 332.854289 253.553982 
L 330.31269 256.673553 
L 327.771091 259.582138 
L 325.229492 262.048511 
L 322.687893 264.568229 
L 320.146294 267.054498 
L 317.604695 269.189391 
L 315.063096 271.367464 
L 312.521497 273.543703 
L 309.979898 275.423528 
L 307.438299 277.396956 
L 304.896701 279.321112 
L 302.355102 280.986064 
L 299.813503 282.836761 
L 297.271904 284.542873 
L 294.730305 286.064919 
L 292.188706 287.795869 
L 289.647107 289.304672 
L 287.105508 290.814749 
L 284.563909 292.343946 
L 282.02231 293.668994 
L 279.480711 295.186408 
L 276.939112 296.526533 
L 274.397513 297.871291 
L 271.855914 299.213779 
L 269.314315 300.426728 
L 266.772716 301.761289 
L 264.231117 302.91881 
L 261.689518 304.191477 
L 259.147919 305.337278 
L 256.60632 306.521223 
L 254.064721 307.646009 
L 251.523122 308.76206 
L 248.981523 309.858433 
L 246.439924 310.922911 
L 243.898325 311.98369 
L 241.356726 313.009216 
L 238.815127 314.028462 
L 236.273528 315.024704 
L 233.731929 315.996326 
L 231.19033 316.971056 
L 228.648731 317.890047 
L 226.107132 318.848705 
L 223.565533 319.718206 
L 221.023934 320.656844 
L 218.482335 321.523547 
L 215.940736 322.393918 
" style="fill:none;stroke:#449775;stroke-dasharray:5.55,2.4;stroke-dashoffset:0;stroke-width:1.5;"/>
   </g>
   <g id="line2d_28">
    <path clip-path="url(#pf314818b4e)" d="M 556.515 209.24 
L 374.439424 209.24 
L 374.439424 209.24 
" style="fill:none;stroke:#3b7d86;stroke-dasharray:5.55,2.4;stroke-dashoffset:0;stroke-width:1.5;"/>
   </g>
   <g id="line2d_29">
    <path clip-path="url(#pf314818b4e)" d="M 373.519873 209.24 
L 373.519873 209.24 
L 370.978274 209.24 
L 368.436675 209.24 
L 365.895076 209.24 
L 363.353477 209.24 
L 360.811878 209.24 
L 358.270279 209.24 
L 355.72868 209.24 
L 353.187081 209.24 
L 350.645482 209.24 
L 348.103883 209.24 
L 345.562284 209.24 
L 343.020685 209.24 
L 340.479086 209.24 
L 337.937487 209.24 
L 335.395888 209.24 
L 332.854289 209.24 
L 330.31269 209.24 
L 327.771091 209.24 
L 325.229492 209.24 
L 322.687893 209.24 
L 320.146294 209.24 
L 317.604695 209.24 
L 315.063096 209.24 
L 312.521497 209.24 
L 309.979898 209.24 
L 307.438299 209.24 
L 304.896701 209.24 
L 302.355102 209.24 
L 299.813503 209.24 
L 297.271904 209.24 
L 294.730305 209.24 
L 292.188706 209.24 
L 289.647107 209.24 
L 287.105508 209.24 
L 284.563909 209.24 
L 282.02231 209.24 
L 279.480711 209.24 
L 276.939112 209.24 
L 274.397513 209.24 
L 271.855914 209.24 
L 269.314315 209.24 
L 266.772716 209.24 
L 264.231117 209.24 
L 261.689518 209.24 
L 259.147919 209.24 
L 256.60632 209.24 
L 254.064721 209.24 
L 251.523122 209.24 
L 248.981523 209.24 
L 246.439924 209.24 
L 243.898325 209.24 
L 241.356726 209.24 
L 238.815127 209.24 
L 236.273528 209.24 
L 233.731929 209.24 
L 231.19033 209.24 
L 228.648731 209.24 
L 226.107132 209.24 
L 223.565533 209.24 
L 221.023934 209.24 
L 218.482335 209.24 
L 215.940736 209.24 
L 213.399137 209.24 
L 210.857538 209.24 
L 208.315939 209.24 
L 205.77434 209.24 
L 203.232741 209.24 
L 200.691142 209.24 
L 198.149543 209.24 
L 195.607944 209.24 
L 193.066345 209.24 
L 190.524746 209.24 
L 187.983147 209.24 
L 185.441548 209.24 
L 182.899949 209.24 
L 180.35835 209.24 
L 177.816751 209.24 
L 175.275152 209.24 
L 172.733553 209.24 
L 170.191954 209.24 
L 167.650355 209.24 
L 165.108756 209.24 
L 162.567157 209.24 
L 160.025558 209.24 
L 157.483959 209.24 
L 154.94236 209.24 
L 152.400761 209.24 
L 149.859162 209.24 
L 147.317563 209.24 
L 144.775964 209.24 
L 142.234365 209.24 
L 139.692766 209.24 
L 137.151168 209.24 
L 134.609569 209.24 
L 132.06797 209.24 
L 129.526371 209.24 
L 126.984772 209.24 
L 124.443173 209.24 
L 121.901574 209.24 
L 119.359975 209.24 
L 116.818376 209.24 
L 114.276777 209.24 
L 111.735178 209.24 
L 109.193579 209.24 
L 106.65198 209.24 
L 104.110381 209.24 
L 101.568782 209.24 
L 99.027183 209.24 
L 96.485584 209.24 
L 93.943985 209.24 
L 91.402386 209.24 
L 88.860787 209.24 
" style="fill:none;stroke:#3b7d86;stroke-linecap:square;stroke-width:1.5;"/>
   </g>
   <g id="line2d_30">
    <path clip-path="url(#pf314818b4e)" d="M 373.519873 209.24 
L 373.519873 194.974405 
L 370.978274 187.971115 
L 368.436675 183.279603 
L 365.895076 179.774679 
L 363.353477 176.012604 
L 360.811878 172.498135 
L 358.270279 169.634814 
L 355.72868 167.288281 
L 353.187081 164.572808 
L 350.645482 161.97957 
L 348.103883 159.796927 
L 345.562284 157.972125 
L 343.020685 155.624224 
L 340.479086 153.552282 
L 337.937487 151.791675 
L 335.395888 150.072569 
L 332.854289 148.097027 
L 330.31269 146.399122 
L 327.771091 144.957591 
L 325.229492 143.186353 
L 322.687893 141.556901 
L 320.146294 140.162187 
L 317.604695 138.675425 
L 315.063096 137.121763 
L 312.521497 135.785648 
L 309.979898 134.476516 
L 307.438299 133.005857 
L 304.896701 131.737822 
L 302.355102 130.531463 
L 299.813503 129.151329 
L 297.271904 127.9607 
L 294.730305 126.805635 
L 292.188706 125.522057 
L 289.647107 124.416669 
L 287.105508 123.277551 
L 284.563909 122.095938 
L 282.02231 121.083157 
L 279.480711 119.934558 
L 276.939112 118.860008 
L 274.397513 117.891869 
L 271.855914 116.771621 
L 269.314315 115.808362 
L 266.772716 114.785261 
L 264.231117 113.787185 
L 261.689518 112.877209 
L 259.147919 111.857651 
L 256.60632 110.984576 
L 254.064721 110.000053 
L 251.523122 109.113734 
L 248.981523 108.200712 
L 246.439924 107.311813 
L 243.898325 106.450923 
L 241.356726 105.568459 
L 238.815127 104.743382 
L 236.273528 103.875808 
L 233.731929 103.075351 
L 231.19033 102.23044 
L 228.648731 101.444625 
L 226.107132 100.629527 
L 223.565533 99.85167 
L 221.023934 99.07257 
L 218.482335 98.297978 
" style="fill:none;stroke:#3b7d86;stroke-dasharray:5.55,2.4;stroke-dashoffset:0;stroke-width:1.5;"/>
   </g>
   <g id="line2d_31">
    <path clip-path="url(#pf314818b4e)" d="M 373.519873 209.24 
L 373.519873 223.505595 
L 370.978274 230.508885 
L 368.436675 235.200397 
L 365.895076 238.705321 
L 363.353477 242.467396 
L 360.811878 245.981865 
L 358.270279 248.845186 
L 355.72868 251.191719 
L 353.187081 253.907192 
L 350.645482 256.50043 
L 348.103883 258.683073 
L 345.562284 260.507875 
L 343.020685 262.855776 
L 340.479086 264.927718 
L 337.937487 266.688325 
L 335.395888 268.407431 
L 332.854289 270.382973 
L 330.31269 272.080878 
L 327.771091 273.522409 
L 325.229492 275.293647 
L 322.687893 276.923099 
L 320.146294 278.317813 
L 317.604695 279.804575 
L 315.063096 281.358237 
L 312.521497 282.694352 
L 309.979898 284.003484 
L 307.438299 285.474143 
L 304.896701 286.742178 
L 302.355102 287.948537 
L 299.813503 289.328671 
L 297.271904 290.5193 
L 294.730305 291.674365 
L 292.188706 292.957943 
L 289.647107 294.063331 
L 287.105508 295.202449 
L 284.563909 296.384062 
L 282.02231 297.396843 
L 279.480711 298.545442 
L 276.939112 299.619992 
L 274.397513 300.588131 
L 271.855914 301.708379 
L 269.314315 302.671638 
L 266.772716 303.694739 
L 264.231117 304.692815 
L 261.689518 305.602791 
L 259.147919 306.622349 
L 256.60632 307.495424 
L 254.064721 308.479947 
L 251.523122 309.366266 
L 248.981523 310.279288 
L 246.439924 311.168187 
L 243.898325 312.029077 
L 241.356726 312.911541 
L 238.815127 313.736618 
L 236.273528 314.604192 
L 233.731929 315.404649 
L 231.19033 316.24956 
L 228.648731 317.035375 
L 226.107132 317.850473 
L 223.565533 318.62833 
L 221.023934 319.40743 
L 218.482335 320.182022 
" style="fill:none;stroke:#3b7d86;stroke-dasharray:5.55,2.4;stroke-dashoffset:0;stroke-width:1.5;"/>
   </g>
   <g id="patch_3">
    <path d="M 55.82 379.72 
L 55.82 38.76 
" style="fill:none;stroke:#000000;stroke-linecap:square;stroke-linejoin:miter;stroke-width:0.8;"/>
   </g>
   <g id="patch_4">
    <path d="M 556.515 379.72 
L 556.515 38.76 
" style="fill:none;stroke:#000000;stroke-linecap:square;stroke-linejoin:miter;stroke-width:0.8;"/>
   </g>
   <g id="patch_5">
    <path d="M 55.82 379.72 
L 556.515 379.72 
" style="fill:none;stroke:#000000;stroke-linecap:square;stroke-linejoin:miter;stroke-width:0.8;"/>
   </g>
   <g id="patch_6">
    <path d="M 55.82 38.76 
L 556.515 38.76 
" style="fill:none;stroke:#000000;stroke-linecap:square;stroke-linejoin:miter;stroke-width:0.8;"/>
   </g>
   <g id="text_14">
    <!-- Bifurcation diagram for two coupled neurons, $\gamma=0.4, \beta=0.1, \alpha=2$ -->
    <g transform="translate(38.4875 23.76)scale(0.16 -0.16)">
     <defs>
      <path d="M 19.671875 34.8125 
L 19.671875 8.109375 
L 35.5 8.109375 
Q 43.453125 8.109375 47.28125 11.40625 
Q 51.125 14.703125 51.125 21.484375 
Q 51.125 28.328125 47.28125 31.5625 
Q 43.453125 34.8125 35.5 34.8125 
z
M 19.671875 64.796875 
L 19.671875 42.828125 
L 34.28125 42.828125 
Q 41.5 42.828125 45.03125 45.53125 
Q 48.578125 48.25 48.578125 53.8125 
Q 48.578125 59.328125 45.03125 62.0625 
Q 41.5 64.796875 34.28125 64.796875 
z
M 9.8125 72.90625 
L 35.015625 72.90625 
Q 46.296875 72.90625 52.390625 68.21875 
Q 58.5 63.53125 58.5 54.890625 
Q 58.5 48.1875 55.375 44.234375 
Q 52.25 40.28125 46.1875 39.3125 
Q 53.46875 37.75 57.5 32.78125 
Q 61.53125 27.828125 61.53125 20.40625 
Q 61.53125 10.640625 54.890625 5.3125 
Q 48.25 0 35.984375 0 
L 9.8125 0 
z
" id="DejaVuSans-66"/>
      <path d="M 30.609375 48.390625 
Q 23.390625 48.390625 19.1875 42.75 
Q 14.984375 37.109375 14.984375 27.296875 
Q 14.984375 17.484375 19.15625 11.84375 
Q 23.34375 6.203125 30.609375 6.203125 
Q 37.796875 6.203125 41.984375 11.859375 
Q 46.1875 17.53125 46.1875 27.296875 
Q 46.1875 37.015625 41.984375 42.703125 
Q 37.796875 48.390625 30.609375 48.390625 
z
M 30.609375 56 
Q 42.328125 56 49.015625 48.375 
Q 55.71875 40.765625 55.71875 27.296875 
Q 55.71875 13.875 49.015625 6.21875 
Q 42.328125 -1.421875 30.609375 -1.421875 
Q 18.84375 -1.421875 12.171875 6.21875 
Q 5.515625 13.875 5.515625 27.296875 
Q 5.515625 40.765625 12.171875 48.375 
Q 18.84375 56 30.609375 56 
z
" id="DejaVuSans-111"/>
      <path d="M 45.40625 46.390625 
L 45.40625 75.984375 
L 54.390625 75.984375 
L 54.390625 0 
L 45.40625 0 
L 45.40625 8.203125 
Q 42.578125 3.328125 38.25 0.953125 
Q 33.9375 -1.421875 27.875 -1.421875 
Q 17.96875 -1.421875 11.734375 6.484375 
Q 5.515625 14.40625 5.515625 27.296875 
Q 5.515625 40.1875 11.734375 48.09375 
Q 17.96875 56 27.875 56 
Q 33.9375 56 38.25 53.625 
Q 42.578125 51.265625 45.40625 46.390625 
z
M 14.796875 27.296875 
Q 14.796875 17.390625 18.875 11.75 
Q 22.953125 6.109375 30.078125 6.109375 
Q 37.203125 6.109375 41.296875 11.75 
Q 45.40625 17.390625 45.40625 27.296875 
Q 45.40625 37.203125 41.296875 42.84375 
Q 37.203125 48.484375 30.078125 48.484375 
Q 22.953125 48.484375 18.875 42.84375 
Q 14.796875 37.203125 14.796875 27.296875 
z
" id="DejaVuSans-100"/>
      <path d="M 45.40625 27.984375 
Q 45.40625 37.75 41.375 43.109375 
Q 37.359375 48.484375 30.078125 48.484375 
Q 22.859375 48.484375 18.828125 43.109375 
Q 14.796875 37.75 14.796875 27.984375 
Q 14.796875 18.265625 18.828125 12.890625 
Q 22.859375 7.515625 30.078125 7.515625 
Q 37.359375 7.515625 41.375 12.890625 
Q 45.40625 18.265625 45.40625 27.984375 
z
M 54.390625 6.78125 
Q 54.390625 -7.171875 48.1875 -13.984375 
Q 42 -20.796875 29.203125 -20.796875 
Q 24.46875 -20.796875 20.265625 -20.09375 
Q 16.0625 -19.390625 12.109375 -17.921875 
L 12.109375 -9.1875 
Q 16.0625 -11.328125 19.921875 -12.34375 
Q 23.78125 -13.375 27.78125 -13.375 
Q 36.625 -13.375 41.015625 -8.765625 
Q 45.40625 -4.15625 45.40625 5.171875 
L 45.40625 9.625 
Q 42.625 4.78125 38.28125 2.390625 
Q 33.9375 0 27.875 0 
Q 17.828125 0 11.671875 7.65625 
Q 5.515625 15.328125 5.515625 27.984375 
Q 5.515625 40.671875 11.671875 48.328125 
Q 17.828125 56 27.875 56 
Q 33.9375 56 38.28125 53.609375 
Q 42.625 51.21875 45.40625 46.390625 
L 45.40625 54.6875 
L 54.390625 54.6875 
z
" id="DejaVuSans-103"/>
      <path d="M 52 44.1875 
Q 55.375 50.25 60.0625 53.125 
Q 64.75 56 71.09375 56 
Q 79.640625 56 84.28125 50.015625 
Q 88.921875 44.046875 88.921875 33.015625 
L 88.921875 0 
L 79.890625 0 
L 79.890625 32.71875 
Q 79.890625 40.578125 77.09375 44.375 
Q 74.3125 48.1875 68.609375 48.1875 
Q 61.625 48.1875 57.5625 43.546875 
Q 53.515625 38.921875 53.515625 30.90625 
L 53.515625 0 
L 44.484375 0 
L 44.484375 32.71875 
Q 44.484375 40.625 41.703125 44.40625 
Q 38.921875 48.1875 33.109375 48.1875 
Q 26.21875 48.1875 22.15625 43.53125 
Q 18.109375 38.875 18.109375 30.90625 
L 18.109375 0 
L 9.078125 0 
L 9.078125 54.6875 
L 18.109375 54.6875 
L 18.109375 46.1875 
Q 21.1875 51.21875 25.484375 53.609375 
Q 29.78125 56 35.6875 56 
Q 41.65625 56 45.828125 52.96875 
Q 50 49.953125 52 44.1875 
z
" id="DejaVuSans-109"/>
      <path d="M 4.203125 54.6875 
L 13.1875 54.6875 
L 24.421875 12.015625 
L 35.59375 54.6875 
L 46.1875 54.6875 
L 57.421875 12.015625 
L 68.609375 54.6875 
L 77.59375 54.6875 
L 63.28125 0 
L 52.6875 0 
L 40.921875 44.828125 
L 29.109375 0 
L 18.5 0 
z
" id="DejaVuSans-119"/>
      <path d="M 18.109375 8.203125 
L 18.109375 -20.796875 
L 9.078125 -20.796875 
L 9.078125 54.6875 
L 18.109375 54.6875 
L 18.109375 46.390625 
Q 20.953125 51.265625 25.265625 53.625 
Q 29.59375 56 35.59375 56 
Q 45.5625 56 51.78125 48.09375 
Q 58.015625 40.1875 58.015625 27.296875 
Q 58.015625 14.40625 51.78125 6.484375 
Q 45.5625 -1.421875 35.59375 -1.421875 
Q 29.59375 -1.421875 25.265625 0.953125 
Q 20.953125 3.328125 18.109375 8.203125 
z
M 48.6875 27.296875 
Q 48.6875 37.203125 44.609375 42.84375 
Q 40.53125 48.484375 33.40625 48.484375 
Q 26.265625 48.484375 22.1875 42.84375 
Q 18.109375 37.203125 18.109375 27.296875 
Q 18.109375 17.390625 22.1875 11.75 
Q 26.265625 6.109375 33.40625 6.109375 
Q 40.53125 6.109375 44.609375 11.75 
Q 48.6875 17.390625 48.6875 27.296875 
z
" id="DejaVuSans-112"/>
      <path d="M 9.421875 75.984375 
L 18.40625 75.984375 
L 18.40625 0 
L 9.421875 0 
z
" id="DejaVuSans-108"/>
      <path d="M 11.71875 12.40625 
L 22.015625 12.40625 
L 22.015625 4 
L 14.015625 -11.625 
L 7.71875 -11.625 
L 11.71875 4 
z
" id="DejaVuSans-44"/>
      <path d="M 23.296875 46.09375 
L 28.71875 12.3125 
L 54 54.6875 
L 63.53125 54.6875 
L 30.8125 0 
L 26.765625 -20.796875 
L 17.78125 -20.796875 
L 21.828125 0 
L 15.4375 40.828125 
Q 14.453125 46.96875 9.8125 46.96875 
L 7.421875 46.96875 
L 8.890625 54.6875 
L 12.3125 54.6875 
Q 21.921875 54.6875 23.296875 46.09375 
z
" id="DejaVuSans-Oblique-947"/>
      <path d="M 10.59375 45.40625 
L 73.1875 45.40625 
L 73.1875 37.203125 
L 10.59375 37.203125 
z
M 10.59375 25.484375 
L 73.1875 25.484375 
L 73.1875 17.1875 
L 10.59375 17.1875 
z
" id="DejaVuSans-61"/>
      <path d="M 13.625 3.375 
L 8.9375 -20.796875 
L -0.09375 -20.796875 
L 14.5 54.34375 
Q 18.84375 76.609375 39.65625 76.609375 
Q 60.75 76.609375 57.171875 57.8125 
Q 54.734375 44.4375 45.21875 39.546875 
Q 58.015625 35.15625 55.515625 22.125 
Q 51.125 -1.078125 27.484375 -1.03125 
Q 17.140625 -0.984375 13.625 3.375 
z
M 15.921875 15.09375 
Q 19.671875 6.59375 29.296875 6.640625 
Q 43.359375 6.640625 46.34375 21.96875 
Q 49.03125 35.75 26.171875 34.671875 
L 27.78125 42.96875 
Q 45.453125 42.671875 48.53125 58.59375 
Q 50.640625 69.34375 39.203125 69.28125 
Q 26.421875 69.28125 23.484375 54.046875 
z
" id="DejaVuSans-Oblique-946"/>
      <path d="M 40.921875 25.4375 
L 40.96875 36.71875 
Q 41.015625 48.25 32.328125 48.296875 
Q 25.828125 48.34375 21.78125 42.921875 
Q 16.703125 36.234375 14.984375 27.296875 
Q 12.890625 16.546875 15.53125 11.421875 
Q 18.265625 6.203125 24.171875 6.203125 
Q 30.71875 6.203125 36.234375 16.609375 
z
M 33.84375 55.90625 
Q 49.078125 56.15625 48.875 40.375 
Q 48.875 40.375 56.5 54.6875 
L 64.5 54.6875 
L 48.734375 25.046875 
L 48.578125 14.359375 
Q 48.578125 11.96875 49.90625 9.96875 
Q 51.421875 7.625 52.984375 7.625 
L 57.328125 7.625 
L 55.859375 0 
L 50.4375 0 
Q 45.84375 0 42.53125 4.109375 
Q 40.96875 6.15625 40.921875 10.453125 
Q 37.75 5.21875 32.28125 0.78125 
Q 29.6875 -1.265625 22.703125 -1.21875 
Q 11.28125 -1.125 7.125 6.203125 
Q 2.875 13.8125 5.515625 27.296875 
Q 8.34375 41.796875 15.765625 48.390625 
Q 24.125 55.765625 33.84375 55.90625 
z
" id="DejaVuSans-Oblique-945"/>
     </defs>
     <use transform="translate(0 0.390625)" xlink:href="#DejaVuSans-66"/>
     <use transform="translate(68.603516 0.390625)" xlink:href="#DejaVuSans-105"/>
     <use transform="translate(96.386719 0.390625)" xlink:href="#DejaVuSans-102"/>
     <use transform="translate(131.591797 0.390625)" xlink:href="#DejaVuSans-117"/>
     <use transform="translate(194.970703 0.390625)" xlink:href="#DejaVuSans-114"/>
     <use transform="translate(236.083984 0.390625)" xlink:href="#DejaVuSans-99"/>
     <use transform="translate(291.064453 0.390625)" xlink:href="#DejaVuSans-97"/>
     <use transform="translate(352.34375 0.390625)" xlink:href="#DejaVuSans-116"/>
     <use transform="translate(391.552734 0.390625)" xlink:href="#DejaVuSans-105"/>
     <use transform="translate(419.335938 0.390625)" xlink:href="#DejaVuSans-111"/>
     <use transform="translate(480.517578 0.390625)" xlink:href="#DejaVuSans-110"/>
     <use transform="translate(543.896484 0.390625)" xlink:href="#DejaVuSans-32"/>
     <use transform="translate(575.683594 0.390625)" xlink:href="#DejaVuSans-100"/>
     <use transform="translate(639.160156 0.390625)" xlink:href="#DejaVuSans-105"/>
     <use transform="translate(666.943359 0.390625)" xlink:href="#DejaVuSans-97"/>
     <use transform="translate(728.222656 0.390625)" xlink:href="#DejaVuSans-103"/>
     <use transform="translate(791.699219 0.390625)" xlink:href="#DejaVuSans-114"/>
     <use transform="translate(832.8125 0.390625)" xlink:href="#DejaVuSans-97"/>
     <use transform="translate(894.091797 0.390625)" xlink:href="#DejaVuSans-109"/>
     <use transform="translate(991.503906 0.390625)" xlink:href="#DejaVuSans-32"/>
     <use transform="translate(1023.291016 0.390625)" xlink:href="#DejaVuSans-102"/>
     <use transform="translate(1058.496094 0.390625)" xlink:href="#DejaVuSans-111"/>
     <use transform="translate(1119.677734 0.390625)" xlink:href="#DejaVuSans-114"/>
     <use transform="translate(1160.791016 0.390625)" xlink:href="#DejaVuSans-32"/>
     <use transform="translate(1192.578125 0.390625)" xlink:href="#DejaVuSans-116"/>
     <use transform="translate(1231.787109 0.390625)" xlink:href="#DejaVuSans-119"/>
     <use transform="translate(1313.574219 0.390625)" xlink:href="#DejaVuSans-111"/>
     <use transform="translate(1374.755859 0.390625)" xlink:href="#DejaVuSans-32"/>
     <use transform="translate(1406.542969 0.390625)" xlink:href="#DejaVuSans-99"/>
     <use transform="translate(1461.523438 0.390625)" xlink:href="#DejaVuSans-111"/>
     <use transform="translate(1522.705078 0.390625)" xlink:href="#DejaVuSans-117"/>
     <use transform="translate(1586.083984 0.390625)" xlink:href="#DejaVuSans-112"/>
     <use transform="translate(1649.560547 0.390625)" xlink:href="#DejaVuSans-108"/>
     <use transform="translate(1677.34375 0.390625)" xlink:href="#DejaVuSans-101"/>
     <use transform="translate(1738.867188 0.390625)" xlink:href="#DejaVuSans-100"/>
     <use transform="translate(1802.34375 0.390625)" xlink:href="#DejaVuSans-32"/>
     <use transform="translate(1834.130859 0.390625)" xlink:href="#DejaVuSans-110"/>
     <use transform="translate(1897.509766 0.390625)" xlink:href="#DejaVuSans-101"/>
     <use transform="translate(1959.033203 0.390625)" xlink:href="#DejaVuSans-117"/>
     <use transform="translate(2022.412109 0.390625)" xlink:href="#DejaVuSans-114"/>
     <use transform="translate(2063.525391 0.390625)" xlink:href="#DejaVuSans-111"/>
     <use transform="translate(2124.707031 0.390625)" xlink:href="#DejaVuSans-110"/>
     <use transform="translate(2188.085938 0.390625)" xlink:href="#DejaVuSans-115"/>
     <use transform="translate(2240.185547 0.390625)" xlink:href="#DejaVuSans-44"/>
     <use transform="translate(2271.972656 0.390625)" xlink:href="#DejaVuSans-32"/>
     <use transform="translate(2303.759766 0.390625)" xlink:href="#DejaVuSans-Oblique-947"/>
     <use transform="translate(2382.421875 0.390625)" xlink:href="#DejaVuSans-61"/>
     <use transform="translate(2485.693359 0.390625)" xlink:href="#DejaVuSans-48"/>
     <use transform="translate(2549.316406 0.390625)" xlink:href="#DejaVuSans-46"/>
     <use transform="translate(2581.103516 0.390625)" xlink:href="#DejaVuSans-52"/>
     <use transform="translate(2644.726562 0.390625)" xlink:href="#DejaVuSans-44"/>
     <use transform="translate(2695.996094 0.390625)" xlink:href="#DejaVuSans-Oblique-946"/>
     <use transform="translate(2779.296875 0.390625)" xlink:href="#DejaVuSans-61"/>
     <use transform="translate(2882.568359 0.390625)" xlink:href="#DejaVuSans-48"/>
     <use transform="translate(2946.191406 0.390625)" xlink:href="#DejaVuSans-46"/>
     <use transform="translate(2977.978516 0.390625)" xlink:href="#DejaVuSans-49"/>
     <use transform="translate(3041.601562 0.390625)" xlink:href="#DejaVuSans-44"/>
     <use transform="translate(3092.871094 0.390625)" xlink:href="#DejaVuSans-Oblique-945"/>
     <use transform="translate(3178.271484 0.390625)" xlink:href="#DejaVuSans-61"/>
     <use transform="translate(3281.542969 0.390625)" xlink:href="#DejaVuSans-50"/>
    </g>
   </g>
   <g id="legend_1">
    <g id="patch_7">
     <path d="M 471.595 145.337688 
L 548.815 145.337688 
Q 551.015 145.337688 551.015 143.137688 
L 551.015 63.508 
Q 551.015 61.308 548.815 61.308 
L 471.595 61.308 
Q 469.395 61.308 469.395 63.508 
L 469.395 143.137688 
Q 469.395 145.337688 471.595 145.337688 
z
" style="fill:#ffffff;opacity:0.8;stroke:#cccccc;stroke-linejoin:miter;"/>
    </g>
    <g id="line2d_32">
     <path d="M 473.795 70.216281 
L 495.795 70.216281 
" style="fill:none;stroke:#aa3863;stroke-dasharray:5.55,2.4;stroke-dashoffset:0;stroke-width:1.5;"/>
    </g>
    <g id="line2d_33"/>
    <g id="text_15">
     <!-- $r = 0$ -->
     <g transform="translate(504.595 74.066281)scale(0.11 -0.11)">
      <defs>
       <path d="M 44.578125 46.390625 
Q 43.21875 47.125 41.453125 47.515625 
Q 39.703125 47.90625 37.703125 47.90625 
Q 30.515625 47.90625 25.140625 42.453125 
Q 19.78125 37.015625 18.015625 27.875 
L 12.5 0 
L 3.515625 0 
L 14.203125 54.6875 
L 23.1875 54.6875 
L 21.484375 46.1875 
Q 25.046875 50.921875 30 53.453125 
Q 34.96875 56 40.578125 56 
Q 42.046875 56 43.453125 55.828125 
Q 44.875 55.671875 46.296875 55.28125 
z
" id="DejaVuSans-Oblique-114"/>
      </defs>
      <use transform="translate(0 0.78125)" xlink:href="#DejaVuSans-Oblique-114"/>
      <use transform="translate(60.595703 0.78125)" xlink:href="#DejaVuSans-61"/>
      <use transform="translate(163.867188 0.78125)" xlink:href="#DejaVuSans-48"/>
     </g>
    </g>
    <g id="line2d_34">
     <path d="M 473.795 86.362219 
L 495.795 86.362219 
" style="fill:none;stroke:#d97020;stroke-dasharray:5.55,2.4;stroke-dashoffset:0;stroke-width:1.5;"/>
    </g>
    <g id="line2d_35"/>
    <g id="text_16">
     <!-- $r = 0.25$ -->
     <g transform="translate(504.595 90.212219)scale(0.11 -0.11)">
      <defs>
       <path d="M 10.796875 72.90625 
L 49.515625 72.90625 
L 49.515625 64.59375 
L 19.828125 64.59375 
L 19.828125 46.734375 
Q 21.96875 47.46875 24.109375 47.828125 
Q 26.265625 48.1875 28.421875 48.1875 
Q 40.625 48.1875 47.75 41.5 
Q 54.890625 34.8125 54.890625 23.390625 
Q 54.890625 11.625 47.5625 5.09375 
Q 40.234375 -1.421875 26.90625 -1.421875 
Q 22.3125 -1.421875 17.546875 -0.640625 
Q 12.796875 0.140625 7.71875 1.703125 
L 7.71875 11.625 
Q 12.109375 9.234375 16.796875 8.0625 
Q 21.484375 6.890625 26.703125 6.890625 
Q 35.15625 6.890625 40.078125 11.328125 
Q 45.015625 15.765625 45.015625 23.390625 
Q 45.015625 31 40.078125 35.4375 
Q 35.15625 39.890625 26.703125 39.890625 
Q 22.75 39.890625 18.8125 39.015625 
Q 14.890625 38.140625 10.796875 36.28125 
z
" id="DejaVuSans-53"/>
      </defs>
      <use transform="translate(0 0.78125)" xlink:href="#DejaVuSans-Oblique-114"/>
      <use transform="translate(60.595703 0.78125)" xlink:href="#DejaVuSans-61"/>
      <use transform="translate(163.867188 0.78125)" xlink:href="#DejaVuSans-48"/>
      <use transform="translate(227.490234 0.78125)" xlink:href="#DejaVuSans-46"/>
      <use transform="translate(253.777344 0.78125)" xlink:href="#DejaVuSans-50"/>
      <use transform="translate(317.400391 0.78125)" xlink:href="#DejaVuSans-53"/>
     </g>
    </g>
    <g id="line2d_36">
     <path d="M 473.795 102.508156 
L 495.795 102.508156 
" style="fill:none;stroke:#ef9f07;stroke-dasharray:5.55,2.4;stroke-dashoffset:0;stroke-width:1.5;"/>
    </g>
    <g id="line2d_37"/>
    <g id="text_17">
     <!-- $r = 0.5$ -->
     <g transform="translate(504.595 106.358156)scale(0.11 -0.11)">
      <use transform="translate(0 0.78125)" xlink:href="#DejaVuSans-Oblique-114"/>
      <use transform="translate(60.595703 0.78125)" xlink:href="#DejaVuSans-61"/>
      <use transform="translate(163.867188 0.78125)" xlink:href="#DejaVuSans-48"/>
      <use transform="translate(227.490234 0.78125)" xlink:href="#DejaVuSans-46"/>
      <use transform="translate(259.277344 0.78125)" xlink:href="#DejaVuSans-53"/>
     </g>
    </g>
    <g id="line2d_38">
     <path d="M 473.795 118.654094 
L 495.795 118.654094 
" style="fill:none;stroke:#449775;stroke-dasharray:5.55,2.4;stroke-dashoffset:0;stroke-width:1.5;"/>
    </g>
    <g id="line2d_39"/>
    <g id="text_18">
     <!-- $r = 0.75$ -->
     <g transform="translate(504.595 122.504094)scale(0.11 -0.11)">
      <defs>
       <path d="M 8.203125 72.90625 
L 55.078125 72.90625 
L 55.078125 68.703125 
L 28.609375 0 
L 18.3125 0 
L 43.21875 64.59375 
L 8.203125 64.59375 
z
" id="DejaVuSans-55"/>
      </defs>
      <use transform="translate(0 0.78125)" xlink:href="#DejaVuSans-Oblique-114"/>
      <use transform="translate(60.595703 0.78125)" xlink:href="#DejaVuSans-61"/>
      <use transform="translate(163.867188 0.78125)" xlink:href="#DejaVuSans-48"/>
      <use transform="translate(227.490234 0.78125)" xlink:href="#DejaVuSans-46"/>
      <use transform="translate(251.527344 0.78125)" xlink:href="#DejaVuSans-55"/>
      <use transform="translate(315.150391 0.78125)" xlink:href="#DejaVuSans-53"/>
     </g>
    </g>
    <g id="line2d_40">
     <path d="M 473.795 134.800031 
L 495.795 134.800031 
" style="fill:none;stroke:#3b7d86;stroke-dasharray:5.55,2.4;stroke-dashoffset:0;stroke-width:1.5;"/>
    </g>
    <g id="line2d_41"/>
    <g id="text_19">
     <!-- $r = 1$ -->
     <g transform="translate(504.595 138.650031)scale(0.11 -0.11)">
      <use transform="translate(0 0.09375)" xlink:href="#DejaVuSans-Oblique-114"/>
      <use transform="translate(60.595703 0.09375)" xlink:href="#DejaVuSans-61"/>
      <use transform="translate(163.867188 0.09375)" xlink:href="#DejaVuSans-49"/>
     </g>
    </g>
   </g>
  </g>
 </g>
 <defs>
  <clipPath id="pf314818b4e">
   <rect height="340.96" width="500.695" x="55.82" y="38.76"/>
  </clipPath>
 </defs>
</svg>
