<?xml version="1.0" encoding="utf-8" standalone="no"?>
<!DOCTYPE svg PUBLIC "-//W3C//DTD SVG 1.1//EN"
  "http://www.w3.org/Graphics/SVG/1.1/DTD/svg11.dtd">
<!-- Created with matplotlib (https://matplotlib.org/) -->
<svg height="345.6pt" version="1.1" viewBox="0 0 1296 345.6" width="1296pt" xmlns="http://www.w3.org/2000/svg" xmlns:xlink="http://www.w3.org/1999/xlink">
 <metadata>
  <rdf:RDF xmlns:cc="http://creativecommons.org/ns#" xmlns:dc="http://purl.org/dc/elements/1.1/" xmlns:rdf="http://www.w3.org/1999/02/22-rdf-syntax-ns#">
   <cc:Work>
    <dc:type rdf:resource="http://purl.org/dc/dcmitype/StillImage"/>
    <dc:date>2021-08-14T11:38:26.409848</dc:date>
    <dc:format>image/svg+xml</dc:format>
    <dc:creator>
     <cc:Agent>
      <dc:title>Matplotlib v3.3.3, https://matplotlib.org/</dc:title>
     </cc:Agent>
    </dc:creator>
   </cc:Work>
  </rdf:RDF>
 </metadata>
 <defs>
  <style type="text/css">*{stroke-linecap:butt;stroke-linejoin:round;}</style>
 </defs>
 <g id="figure_1">
  <g id="patch_1">
   <path d="M 0 345.6 
L 1296 345.6 
L 1296 0 
L 0 0 
z
" style="fill:#ffffff;"/>
  </g>
  <g id="axes_1">
   <g id="patch_2">
    <path d="M 71.84 296.44 
L 442.046667 296.44 
L 442.046667 63.6 
L 71.84 63.6 
z
" style="fill:#ffffff;"/>
   </g>
   <g id="matplotlib.axis_1">
    <g id="xtick_1">
     <g id="line2d_1">
      <defs>
       <path d="M 0 0 
L 0 3.5 
" id="m45627b93a4" style="stroke:#000000;stroke-width:0.8;"/>
      </defs>
      <g>
       <use style="stroke:#000000;stroke-width:0.8;" x="88.667576" xlink:href="#m45627b93a4" y="296.44"/>
      </g>
     </g>
     <g id="text_1">
      <!-- 0.0 -->
      <g transform="translate(79.920857 311.798281)scale(0.11 -0.11)">
       <defs>
        <path d="M 31.78125 66.40625 
Q 24.171875 66.40625 20.328125 58.90625 
Q 16.5 51.421875 16.5 36.375 
Q 16.5 21.390625 20.328125 13.890625 
Q 24.171875 6.390625 31.78125 6.390625 
Q 39.453125 6.390625 43.28125 13.890625 
Q 47.125 21.390625 47.125 36.375 
Q 47.125 51.421875 43.28125 58.90625 
Q 39.453125 66.40625 31.78125 66.40625 
z
M 31.78125 74.21875 
Q 44.046875 74.21875 50.515625 64.515625 
Q 56.984375 54.828125 56.984375 36.375 
Q 56.984375 17.96875 50.515625 8.265625 
Q 44.046875 -1.421875 31.78125 -1.421875 
Q 19.53125 -1.421875 13.0625 8.265625 
Q 6.59375 17.96875 6.59375 36.375 
Q 6.59375 54.828125 13.0625 64.515625 
Q 19.53125 74.21875 31.78125 74.21875 
z
" id="DejaVuSans-48"/>
        <path d="M 10.6875 12.40625 
L 21 12.40625 
L 21 0 
L 10.6875 0 
z
" id="DejaVuSans-46"/>
       </defs>
       <use xlink:href="#DejaVuSans-48"/>
       <use x="63.623047" xlink:href="#DejaVuSans-46"/>
       <use x="95.410156" xlink:href="#DejaVuSans-48"/>
      </g>
     </g>
    </g>
    <g id="xtick_2">
     <g id="line2d_2">
      <g>
       <use style="stroke:#000000;stroke-width:0.8;" x="155.977879" xlink:href="#m45627b93a4" y="296.44"/>
      </g>
     </g>
     <g id="text_2">
      <!-- 0.2 -->
      <g transform="translate(147.23116 311.798281)scale(0.11 -0.11)">
       <defs>
        <path d="M 19.1875 8.296875 
L 53.609375 8.296875 
L 53.609375 0 
L 7.328125 0 
L 7.328125 8.296875 
Q 12.9375 14.109375 22.625 23.890625 
Q 32.328125 33.6875 34.8125 36.53125 
Q 39.546875 41.84375 41.421875 45.53125 
Q 43.3125 49.21875 43.3125 52.78125 
Q 43.3125 58.59375 39.234375 62.25 
Q 35.15625 65.921875 28.609375 65.921875 
Q 23.96875 65.921875 18.8125 64.3125 
Q 13.671875 62.703125 7.8125 59.421875 
L 7.8125 69.390625 
Q 13.765625 71.78125 18.9375 73 
Q 24.125 74.21875 28.421875 74.21875 
Q 39.75 74.21875 46.484375 68.546875 
Q 53.21875 62.890625 53.21875 53.421875 
Q 53.21875 48.921875 51.53125 44.890625 
Q 49.859375 40.875 45.40625 35.40625 
Q 44.1875 33.984375 37.640625 27.21875 
Q 31.109375 20.453125 19.1875 8.296875 
z
" id="DejaVuSans-50"/>
       </defs>
       <use xlink:href="#DejaVuSans-48"/>
       <use x="63.623047" xlink:href="#DejaVuSans-46"/>
       <use x="95.410156" xlink:href="#DejaVuSans-50"/>
      </g>
     </g>
    </g>
    <g id="xtick_3">
     <g id="line2d_3">
      <g>
       <use style="stroke:#000000;stroke-width:0.8;" x="223.288182" xlink:href="#m45627b93a4" y="296.44"/>
      </g>
     </g>
     <g id="text_3">
      <!-- 0.4 -->
      <g transform="translate(214.541463 311.798281)scale(0.11 -0.11)">
       <defs>
        <path d="M 37.796875 64.3125 
L 12.890625 25.390625 
L 37.796875 25.390625 
z
M 35.203125 72.90625 
L 47.609375 72.90625 
L 47.609375 25.390625 
L 58.015625 25.390625 
L 58.015625 17.1875 
L 47.609375 17.1875 
L 47.609375 0 
L 37.796875 0 
L 37.796875 17.1875 
L 4.890625 17.1875 
L 4.890625 26.703125 
z
" id="DejaVuSans-52"/>
       </defs>
       <use xlink:href="#DejaVuSans-48"/>
       <use x="63.623047" xlink:href="#DejaVuSans-46"/>
       <use x="95.410156" xlink:href="#DejaVuSans-52"/>
      </g>
     </g>
    </g>
    <g id="xtick_4">
     <g id="line2d_4">
      <g>
       <use style="stroke:#000000;stroke-width:0.8;" x="290.598485" xlink:href="#m45627b93a4" y="296.44"/>
      </g>
     </g>
     <g id="text_4">
      <!-- 0.6 -->
      <g transform="translate(281.851766 311.798281)scale(0.11 -0.11)">
       <defs>
        <path d="M 33.015625 40.375 
Q 26.375 40.375 22.484375 35.828125 
Q 18.609375 31.296875 18.609375 23.390625 
Q 18.609375 15.53125 22.484375 10.953125 
Q 26.375 6.390625 33.015625 6.390625 
Q 39.65625 6.390625 43.53125 10.953125 
Q 47.40625 15.53125 47.40625 23.390625 
Q 47.40625 31.296875 43.53125 35.828125 
Q 39.65625 40.375 33.015625 40.375 
z
M 52.59375 71.296875 
L 52.59375 62.3125 
Q 48.875 64.0625 45.09375 64.984375 
Q 41.3125 65.921875 37.59375 65.921875 
Q 27.828125 65.921875 22.671875 59.328125 
Q 17.53125 52.734375 16.796875 39.40625 
Q 19.671875 43.65625 24.015625 45.921875 
Q 28.375 48.1875 33.59375 48.1875 
Q 44.578125 48.1875 50.953125 41.515625 
Q 57.328125 34.859375 57.328125 23.390625 
Q 57.328125 12.15625 50.6875 5.359375 
Q 44.046875 -1.421875 33.015625 -1.421875 
Q 20.359375 -1.421875 13.671875 8.265625 
Q 6.984375 17.96875 6.984375 36.375 
Q 6.984375 53.65625 15.1875 63.9375 
Q 23.390625 74.21875 37.203125 74.21875 
Q 40.921875 74.21875 44.703125 73.484375 
Q 48.484375 72.75 52.59375 71.296875 
z
" id="DejaVuSans-54"/>
       </defs>
       <use xlink:href="#DejaVuSans-48"/>
       <use x="63.623047" xlink:href="#DejaVuSans-46"/>
       <use x="95.410156" xlink:href="#DejaVuSans-54"/>
      </g>
     </g>
    </g>
    <g id="xtick_5">
     <g id="line2d_5">
      <g>
       <use style="stroke:#000000;stroke-width:0.8;" x="357.908788" xlink:href="#m45627b93a4" y="296.44"/>
      </g>
     </g>
     <g id="text_5">
      <!-- 0.8 -->
      <g transform="translate(349.162069 311.798281)scale(0.11 -0.11)">
       <defs>
        <path d="M 31.78125 34.625 
Q 24.75 34.625 20.71875 30.859375 
Q 16.703125 27.09375 16.703125 20.515625 
Q 16.703125 13.921875 20.71875 10.15625 
Q 24.75 6.390625 31.78125 6.390625 
Q 38.8125 6.390625 42.859375 10.171875 
Q 46.921875 13.96875 46.921875 20.515625 
Q 46.921875 27.09375 42.890625 30.859375 
Q 38.875 34.625 31.78125 34.625 
z
M 21.921875 38.8125 
Q 15.578125 40.375 12.03125 44.71875 
Q 8.5 49.078125 8.5 55.328125 
Q 8.5 64.0625 14.71875 69.140625 
Q 20.953125 74.21875 31.78125 74.21875 
Q 42.671875 74.21875 48.875 69.140625 
Q 55.078125 64.0625 55.078125 55.328125 
Q 55.078125 49.078125 51.53125 44.71875 
Q 48 40.375 41.703125 38.8125 
Q 48.828125 37.15625 52.796875 32.3125 
Q 56.78125 27.484375 56.78125 20.515625 
Q 56.78125 9.90625 50.3125 4.234375 
Q 43.84375 -1.421875 31.78125 -1.421875 
Q 19.734375 -1.421875 13.25 4.234375 
Q 6.78125 9.90625 6.78125 20.515625 
Q 6.78125 27.484375 10.78125 32.3125 
Q 14.796875 37.15625 21.921875 38.8125 
z
M 18.3125 54.390625 
Q 18.3125 48.734375 21.84375 45.5625 
Q 25.390625 42.390625 31.78125 42.390625 
Q 38.140625 42.390625 41.71875 45.5625 
Q 45.3125 48.734375 45.3125 54.390625 
Q 45.3125 60.0625 41.71875 63.234375 
Q 38.140625 66.40625 31.78125 66.40625 
Q 25.390625 66.40625 21.84375 63.234375 
Q 18.3125 60.0625 18.3125 54.390625 
z
" id="DejaVuSans-56"/>
       </defs>
       <use xlink:href="#DejaVuSans-48"/>
       <use x="63.623047" xlink:href="#DejaVuSans-46"/>
       <use x="95.410156" xlink:href="#DejaVuSans-56"/>
      </g>
     </g>
    </g>
    <g id="xtick_6">
     <g id="line2d_6">
      <g>
       <use style="stroke:#000000;stroke-width:0.8;" x="425.219091" xlink:href="#m45627b93a4" y="296.44"/>
      </g>
     </g>
     <g id="text_6">
      <!-- 1.0 -->
      <g transform="translate(416.472372 311.798281)scale(0.11 -0.11)">
       <defs>
        <path d="M 12.40625 8.296875 
L 28.515625 8.296875 
L 28.515625 63.921875 
L 10.984375 60.40625 
L 10.984375 69.390625 
L 28.421875 72.90625 
L 38.28125 72.90625 
L 38.28125 8.296875 
L 54.390625 8.296875 
L 54.390625 0 
L 12.40625 0 
z
" id="DejaVuSans-49"/>
       </defs>
       <use xlink:href="#DejaVuSans-49"/>
       <use x="63.623047" xlink:href="#DejaVuSans-46"/>
       <use x="95.410156" xlink:href="#DejaVuSans-48"/>
      </g>
     </g>
    </g>
    <g id="text_7">
     <!-- $\phi$ -->
     <g transform="translate(252.323333 328.725937)scale(0.14 -0.14)">
      <defs>
       <path d="M 46.734375 75.984375 
L 42.78125 55.8125 
Q 52.546875 55.8125 57.5625 48.34375 
Q 62.75 40.71875 60.15625 27.296875 
Q 57.515625 13.875 49.359375 6.25 
Q 41.453125 -1.21875 31.6875 -1.21875 
L 27.875 -20.796875 
L 18.953125 -20.796875 
L 22.75 -1.21875 
Q 13.03125 -1.21875 7.953125 6.25 
Q 2.78125 13.875 5.421875 27.296875 
Q 8.015625 40.71875 16.15625 48.34375 
Q 24.125 55.8125 33.84375 55.8125 
L 37.796875 75.984375 
z
M 33.25 6.78125 
Q 38.765625 6.78125 43.5 11.8125 
Q 48.6875 17.4375 50.6875 27.296875 
Q 52.640625 37.0625 49.515625 42.78125 
Q 46.734375 47.796875 41.21875 47.796875 
z
M 24.3125 6.78125 
L 32.28125 47.796875 
Q 26.8125 47.796875 22.078125 42.78125 
Q 16.75 37.0625 14.890625 27.296875 
Q 13.03125 17.4375 16.0625 11.8125 
Q 18.796875 6.78125 24.3125 6.78125 
z
" id="DejaVuSans-Oblique-981"/>
      </defs>
      <use transform="translate(0 0.015625)" xlink:href="#DejaVuSans-Oblique-981"/>
     </g>
    </g>
   </g>
   <g id="matplotlib.axis_2">
    <g id="ytick_1">
     <g id="line2d_7">
      <defs>
       <path d="M 0 0 
L -3.5 0 
" id="m789c228047" style="stroke:#000000;stroke-width:0.8;"/>
      </defs>
      <g>
       <use style="stroke:#000000;stroke-width:0.8;" x="71.84" xlink:href="#m789c228047" y="277.563763"/>
      </g>
     </g>
     <g id="text_8">
      <!-- −0.04 -->
      <g transform="translate(31.130156 281.742904)scale(0.11 -0.11)">
       <defs>
        <path d="M 10.59375 35.5 
L 73.1875 35.5 
L 73.1875 27.203125 
L 10.59375 27.203125 
z
" id="DejaVuSans-8722"/>
       </defs>
       <use xlink:href="#DejaVuSans-8722"/>
       <use x="83.789062" xlink:href="#DejaVuSans-48"/>
       <use x="147.412109" xlink:href="#DejaVuSans-46"/>
       <use x="179.199219" xlink:href="#DejaVuSans-48"/>
       <use x="242.822266" xlink:href="#DejaVuSans-52"/>
      </g>
     </g>
    </g>
    <g id="ytick_2">
     <g id="line2d_8">
      <g>
       <use style="stroke:#000000;stroke-width:0.8;" x="71.84" xlink:href="#m789c228047" y="229.709616"/>
      </g>
     </g>
     <g id="text_9">
      <!-- −0.02 -->
      <g transform="translate(31.130156 233.888756)scale(0.11 -0.11)">
       <use xlink:href="#DejaVuSans-8722"/>
       <use x="83.789062" xlink:href="#DejaVuSans-48"/>
       <use x="147.412109" xlink:href="#DejaVuSans-46"/>
       <use x="179.199219" xlink:href="#DejaVuSans-48"/>
       <use x="242.822266" xlink:href="#DejaVuSans-50"/>
      </g>
     </g>
    </g>
    <g id="ytick_3">
     <g id="line2d_9">
      <g>
       <use style="stroke:#000000;stroke-width:0.8;" x="71.84" xlink:href="#m789c228047" y="181.855468"/>
      </g>
     </g>
     <g id="text_10">
      <!-- 0.00 -->
      <g transform="translate(40.347812 186.034609)scale(0.11 -0.11)">
       <use xlink:href="#DejaVuSans-48"/>
       <use x="63.623047" xlink:href="#DejaVuSans-46"/>
       <use x="95.410156" xlink:href="#DejaVuSans-48"/>
       <use x="159.033203" xlink:href="#DejaVuSans-48"/>
      </g>
     </g>
    </g>
    <g id="ytick_4">
     <g id="line2d_10">
      <g>
       <use style="stroke:#000000;stroke-width:0.8;" x="71.84" xlink:href="#m789c228047" y="134.001321"/>
      </g>
     </g>
     <g id="text_11">
      <!-- 0.02 -->
      <g transform="translate(40.347812 138.180461)scale(0.11 -0.11)">
       <use xlink:href="#DejaVuSans-48"/>
       <use x="63.623047" xlink:href="#DejaVuSans-46"/>
       <use x="95.410156" xlink:href="#DejaVuSans-48"/>
       <use x="159.033203" xlink:href="#DejaVuSans-50"/>
      </g>
     </g>
    </g>
    <g id="ytick_5">
     <g id="line2d_11">
      <g>
       <use style="stroke:#000000;stroke-width:0.8;" x="71.84" xlink:href="#m789c228047" y="86.147173"/>
      </g>
     </g>
     <g id="text_12">
      <!-- 0.04 -->
      <g transform="translate(40.347812 90.326314)scale(0.11 -0.11)">
       <use xlink:href="#DejaVuSans-48"/>
       <use x="63.623047" xlink:href="#DejaVuSans-46"/>
       <use x="95.410156" xlink:href="#DejaVuSans-48"/>
       <use x="159.033203" xlink:href="#DejaVuSans-52"/>
      </g>
     </g>
    </g>
    <g id="text_13">
     <!-- $H(\phi)$ -->
     <g transform="translate(24.190156 195.42)rotate(-90)scale(0.14 -0.14)">
      <defs>
       <path d="M 16.890625 72.90625 
L 26.8125 72.90625 
L 21 43.015625 
L 56.78125 43.015625 
L 62.59375 72.90625 
L 72.515625 72.90625 
L 58.296875 0 
L 48.390625 0 
L 55.171875 34.71875 
L 19.390625 34.71875 
L 12.59375 0 
L 2.6875 0 
z
" id="DejaVuSans-Oblique-72"/>
       <path d="M 31 75.875 
Q 24.46875 64.65625 21.28125 53.65625 
Q 18.109375 42.671875 18.109375 31.390625 
Q 18.109375 20.125 21.3125 9.0625 
Q 24.515625 -2 31 -13.1875 
L 23.1875 -13.1875 
Q 15.875 -1.703125 12.234375 9.375 
Q 8.59375 20.453125 8.59375 31.390625 
Q 8.59375 42.28125 12.203125 53.3125 
Q 15.828125 64.359375 23.1875 75.875 
z
" id="DejaVuSans-40"/>
       <path d="M 8.015625 75.875 
L 15.828125 75.875 
Q 23.140625 64.359375 26.78125 53.3125 
Q 30.421875 42.28125 30.421875 31.390625 
Q 30.421875 20.453125 26.78125 9.375 
Q 23.140625 -1.703125 15.828125 -13.1875 
L 8.015625 -13.1875 
Q 14.5 -2 17.703125 9.0625 
Q 20.90625 20.125 20.90625 31.390625 
Q 20.90625 42.671875 17.703125 53.65625 
Q 14.5 64.65625 8.015625 75.875 
z
" id="DejaVuSans-41"/>
      </defs>
      <use transform="translate(0 0.015625)" xlink:href="#DejaVuSans-Oblique-72"/>
      <use transform="translate(75.195312 0.015625)" xlink:href="#DejaVuSans-40"/>
      <use transform="translate(114.208984 0.015625)" xlink:href="#DejaVuSans-Oblique-981"/>
      <use transform="translate(180.175781 0.015625)" xlink:href="#DejaVuSans-41"/>
     </g>
    </g>
   </g>
   <g id="line2d_12">
    <path clip-path="url(#pac1b89906e)" d="M 88.667576 181.855468 
L 425.219091 181.855468 
" style="fill:none;stroke:#000000;stroke-dasharray:5.55,2.4;stroke-dashoffset:0;stroke-width:1.5;"/>
   </g>
   <g id="line2d_13">
    <path clip-path="url(#pac1b89906e)" d="M 88.667576 181.855468 
L 94.725503 224.924201 
L 95.062055 224.75342 
L 99.100673 220.313346 
L 103.139291 216.194383 
L 107.177909 212.377831 
L 111.216527 208.846284 
L 115.591697 205.323257 
L 119.966867 202.096428 
L 124.342036 199.147854 
L 128.717206 196.460773 
L 133.092376 194.019489 
L 137.804097 191.648419 
L 142.515818 189.528075 
L 147.227539 187.642253 
L 152.275812 185.864676 
L 157.324085 184.321191 
L 162.708909 182.914132 
L 168.093733 181.735539 
L 173.815109 180.713599 
L 179.873036 179.868112 
L 185.930964 179.243655 
L 192.661994 178.777862 
L 199.729576 178.520891 
L 207.133709 178.479631 
L 215.210945 178.661421 
L 224.297836 179.098064 
L 234.730933 179.831397 
L 248.192994 181.015447 
L 282.184697 184.10831 
L 292.617794 184.775841 
L 301.704685 185.135886 
L 309.781921 185.234372 
L 317.186055 185.103895 
L 323.917085 184.772288 
L 330.311564 184.243707 
L 336.369491 183.53085 
L 342.090867 182.649199 
L 347.812242 181.54156 
L 353.197067 180.273393 
L 358.245339 178.868367 
L 363.293612 177.236984 
L 368.341885 175.36124 
L 373.053606 173.373083 
L 377.765327 171.138477 
L 382.140497 168.827102 
L 386.515667 166.272298 
L 390.890836 163.457556 
L 395.266006 160.365176 
L 399.641176 156.980018 
L 403.679794 153.576095 
L 407.718412 149.883069 
L 411.75703 145.881977 
L 415.795648 141.552406 
L 418.824612 138.076486 
L 419.161164 138.786735 
L 425.219091 181.855468 
L 425.219091 181.855468 
" style="fill:none;stroke:#aa3863;stroke-linecap:square;stroke-width:1.5;"/>
   </g>
   <g id="line2d_14">
    <path clip-path="url(#pac1b89906e)" d="M 88.667576 181.855468 
L 97.754467 245.883113 
L 101.793085 240.714532 
L 105.831703 235.8893 
L 109.870321 231.387042 
L 114.245491 226.852138 
L 118.620661 222.651733 
L 122.99583 218.765076 
L 127.371 215.172855 
L 131.74617 211.85705 
L 136.457891 208.576003 
L 141.169612 205.576314 
L 145.881333 202.839568 
L 150.593055 200.348495 
L 155.641327 197.933684 
L 160.6896 195.763491 
L 166.074424 193.698345 
L 171.459248 191.871216 
L 177.180624 190.169392 
L 182.902 188.693187 
L 188.959927 187.353389 
L 195.354406 186.163381 
L 202.085436 185.13186 
L 209.48957 184.2258 
L 217.566806 183.469509 
L 226.653697 182.854242 
L 237.086794 182.379622 
L 251.221958 181.980345 
L 279.155733 181.239682 
L 289.925382 180.693724 
L 299.012273 180.007961 
L 307.089509 179.17192 
L 314.493642 178.177272 
L 321.224673 177.051001 
L 327.619152 175.757014 
L 333.677079 174.304655 
L 339.398455 172.708035 
L 344.783279 170.985533 
L 350.168103 169.029844 
L 355.216376 166.965976 
L 360.264648 164.66029 
L 364.97637 162.272767 
L 369.688091 159.641719 
L 374.399812 156.755576 
L 378.774982 153.82243 
L 383.150152 150.627998 
L 387.525321 147.153967 
L 391.900491 143.380674 
L 395.939109 139.613752 
L 399.977727 135.555955 
L 404.016345 131.188093 
L 408.054964 126.489535 
L 412.093582 121.439471 
L 415.795648 116.481492 
L 416.1322 117.252369 
L 425.219091 181.855468 
L 425.219091 181.855468 
" style="fill:none;stroke:#d97020;stroke-linecap:square;stroke-width:1.5;"/>
   </g>
   <g id="line2d_15">
    <path clip-path="url(#pac1b89906e)" d="M 88.667576 181.855468 
L 100.446879 265.600226 
L 100.78343 265.968097 
L 104.822048 260.102797 
L 108.860667 254.601473 
L 113.235836 249.026983 
L 117.611006 243.828031 
L 121.986176 238.980717 
L 126.361345 234.46288 
L 130.736515 230.253918 
L 135.111685 226.334628 
L 139.823406 222.41725 
L 144.535127 218.794081 
L 149.246848 215.445544 
L 154.295121 212.141762 
L 159.343394 209.111038 
L 164.391667 206.333517 
L 169.776491 203.628883 
L 175.161315 201.169729 
L 180.882691 198.803334 
L 186.940618 196.549655 
L 192.998545 194.529959 
L 199.393024 192.625086 
L 206.460606 190.758899 
L 213.864739 189.036477 
L 221.941976 187.384738 
L 231.365418 185.695809 
L 242.471618 183.94041 
L 260.981952 181.281913 
L 277.472976 178.82978 
L 287.906073 177.060719 
L 296.656412 175.360698 
L 304.397097 173.640367 
L 311.464679 171.852894 
L 318.195709 169.924558 
L 324.590188 167.858248 
L 330.648115 165.662663 
L 336.369491 163.351766 
L 342.090867 160.795187 
L 347.475691 158.13418 
L 352.523964 155.393764 
L 357.572236 152.394716 
L 362.283958 149.343014 
L 366.995679 146.027983 
L 371.7074 142.42926 
L 376.08257 138.814485 
L 380.457739 134.917487 
L 384.832909 130.71813 
L 389.208079 126.19689 
L 393.246697 121.722619 
L 397.285315 116.931484 
L 401.323933 111.801946 
L 405.362552 106.310803 
L 409.40117 100.433016 
L 412.766685 95.220042 
L 413.103236 95.718003 
L 425.219091 181.855468 
L 425.219091 181.855468 
" style="fill:none;stroke:#ef9f07;stroke-linecap:square;stroke-width:1.5;"/>
   </g>
   <g id="line2d_16">
    <path clip-path="url(#pac1b89906e)" d="M 88.667576 181.855468 
L 103.139291 284.741885 
L 103.475842 285.856364 
L 107.851012 278.760787 
L 112.226182 272.113733 
L 116.601352 265.885442 
L 120.976521 260.047683 
L 125.351691 254.560967 
L 129.726861 249.418978 
L 134.10203 244.599816 
L 138.813752 239.747616 
L 143.525473 235.222457 
L 148.237194 231.002236 
L 152.948915 227.066299 
L 157.997188 223.142737 
L 163.045461 219.501015 
L 168.430285 215.903601 
L 173.815109 212.579189 
L 179.536485 209.321041 
L 185.257861 206.320379 
L 191.315788 203.39725 
L 197.710267 200.56603 
L 204.441297 197.835563 
L 211.508879 195.208495 
L 219.249564 192.570471 
L 227.999903 189.833232 
L 238.096448 186.917326 
L 251.895061 183.187052 
L 277.136424 176.397923 
L 287.23297 173.429613 
L 295.983309 170.626127 
L 303.723994 167.917096 
L 310.791576 165.209608 
L 317.522606 162.386026 
L 323.580533 159.609993 
L 329.301909 156.757695 
L 335.023285 153.655827 
L 340.408109 150.484408 
L 345.792933 147.044219 
L 350.841206 143.552214 
L 355.889479 139.778934 
L 360.6012 135.982112 
L 365.312921 131.900606 
L 370.024642 127.519187 
L 374.399812 123.151908 
L 378.774982 118.475183 
L 383.150152 113.466252 
L 387.525321 108.100606 
L 391.563939 102.808256 
L 395.602558 97.167026 
L 399.641176 91.152772 
L 403.679794 84.742317 
L 407.718412 77.908604 
L 409.737721 74.321126 
L 410.074273 74.183636 
L 425.219091 181.855468 
L 425.219091 181.855468 
" style="fill:none;stroke:#449775;stroke-linecap:square;stroke-width:1.5;"/>
   </g>
   <g id="patch_3">
    <path d="M 71.84 296.44 
L 71.84 63.6 
" style="fill:none;stroke:#000000;stroke-linecap:square;stroke-linejoin:miter;stroke-width:0.8;"/>
   </g>
   <g id="patch_4">
    <path d="M 442.046667 296.44 
L 442.046667 63.6 
" style="fill:none;stroke:#000000;stroke-linecap:square;stroke-linejoin:miter;stroke-width:0.8;"/>
   </g>
   <g id="patch_5">
    <path d="M 71.84 296.44 
L 442.046667 296.44 
" style="fill:none;stroke:#000000;stroke-linecap:square;stroke-linejoin:miter;stroke-width:0.8;"/>
   </g>
   <g id="patch_6">
    <path d="M 71.84 63.6 
L 442.046667 63.6 
" style="fill:none;stroke:#000000;stroke-linecap:square;stroke-linejoin:miter;stroke-width:0.8;"/>
   </g>
   <g id="text_14">
    <!-- $I$ = 1.4, $\gamma$ = 0.1 -->
    <g transform="translate(195.663333 57.6)scale(0.16 -0.16)">
     <defs>
      <path d="M 16.890625 72.90625 
L 26.8125 72.90625 
L 12.59375 0 
L 2.6875 0 
z
" id="DejaVuSans-Oblique-73"/>
      <path id="DejaVuSans-32"/>
      <path d="M 10.59375 45.40625 
L 73.1875 45.40625 
L 73.1875 37.203125 
L 10.59375 37.203125 
z
M 10.59375 25.484375 
L 73.1875 25.484375 
L 73.1875 17.1875 
L 10.59375 17.1875 
z
" id="DejaVuSans-61"/>
      <path d="M 11.71875 12.40625 
L 22.015625 12.40625 
L 22.015625 4 
L 14.015625 -11.625 
L 7.71875 -11.625 
L 11.71875 4 
z
" id="DejaVuSans-44"/>
      <path d="M 23.296875 46.09375 
L 28.71875 12.3125 
L 54 54.6875 
L 63.53125 54.6875 
L 30.8125 0 
L 26.765625 -20.796875 
L 17.78125 -20.796875 
L 21.828125 0 
L 15.4375 40.828125 
Q 14.453125 46.96875 9.8125 46.96875 
L 7.421875 46.96875 
L 8.890625 54.6875 
L 12.3125 54.6875 
Q 21.921875 54.6875 23.296875 46.09375 
z
" id="DejaVuSans-Oblique-947"/>
     </defs>
     <use transform="translate(0 0.78125)" xlink:href="#DejaVuSans-Oblique-73"/>
     <use transform="translate(29.492188 0.78125)" xlink:href="#DejaVuSans-32"/>
     <use transform="translate(61.279297 0.78125)" xlink:href="#DejaVuSans-61"/>
     <use transform="translate(145.068359 0.78125)" xlink:href="#DejaVuSans-32"/>
     <use transform="translate(176.855469 0.78125)" xlink:href="#DejaVuSans-49"/>
     <use transform="translate(240.478516 0.78125)" xlink:href="#DejaVuSans-46"/>
     <use transform="translate(272.265625 0.78125)" xlink:href="#DejaVuSans-52"/>
     <use transform="translate(335.888672 0.78125)" xlink:href="#DejaVuSans-44"/>
     <use transform="translate(367.675781 0.78125)" xlink:href="#DejaVuSans-32"/>
     <use transform="translate(399.462891 0.78125)" xlink:href="#DejaVuSans-Oblique-947"/>
     <use transform="translate(458.642578 0.78125)" xlink:href="#DejaVuSans-32"/>
     <use transform="translate(490.429688 0.78125)" xlink:href="#DejaVuSans-61"/>
     <use transform="translate(574.21875 0.78125)" xlink:href="#DejaVuSans-32"/>
     <use transform="translate(606.005859 0.78125)" xlink:href="#DejaVuSans-48"/>
     <use transform="translate(669.628906 0.78125)" xlink:href="#DejaVuSans-46"/>
     <use transform="translate(701.416016 0.78125)" xlink:href="#DejaVuSans-49"/>
    </g>
   </g>
   <g id="legend_1">
    <g id="patch_7">
     <path d="M 78.84 130.8 
L 151.84 130.8 
Q 153.84 130.8 153.84 128.8 
L 153.84 70.6 
Q 153.84 68.6 151.84 68.6 
L 78.84 68.6 
Q 76.84 68.6 76.84 70.6 
L 76.84 128.8 
Q 76.84 130.8 78.84 130.8 
z
" style="fill:#ffffff;opacity:0.8;stroke:#cccccc;stroke-linejoin:miter;"/>
    </g>
    <g id="line2d_17">
     <path d="M 80.84 76.8 
L 100.84 76.8 
" style="fill:none;stroke:#aa3863;stroke-linecap:square;stroke-width:1.5;"/>
    </g>
    <g id="line2d_18"/>
    <g id="text_15">
     <!-- $\beta = 0.1$ -->
     <g transform="translate(108.84 80.3)scale(0.1 -0.1)">
      <defs>
       <path d="M 13.625 3.375 
L 8.9375 -20.796875 
L -0.09375 -20.796875 
L 14.5 54.34375 
Q 18.84375 76.609375 39.65625 76.609375 
Q 60.75 76.609375 57.171875 57.8125 
Q 54.734375 44.4375 45.21875 39.546875 
Q 58.015625 35.15625 55.515625 22.125 
Q 51.125 -1.078125 27.484375 -1.03125 
Q 17.140625 -0.984375 13.625 3.375 
z
M 15.921875 15.09375 
Q 19.671875 6.59375 29.296875 6.640625 
Q 43.359375 6.640625 46.34375 21.96875 
Q 49.03125 35.75 26.171875 34.671875 
L 27.78125 42.96875 
Q 45.453125 42.671875 48.53125 58.59375 
Q 50.640625 69.34375 39.203125 69.28125 
Q 26.421875 69.28125 23.484375 54.046875 
z
" id="DejaVuSans-Oblique-946"/>
      </defs>
      <use transform="translate(0 0.390625)" xlink:href="#DejaVuSans-Oblique-946"/>
      <use transform="translate(83.300781 0.390625)" xlink:href="#DejaVuSans-61"/>
      <use transform="translate(186.572266 0.390625)" xlink:href="#DejaVuSans-48"/>
      <use transform="translate(250.195312 0.390625)" xlink:href="#DejaVuSans-46"/>
      <use transform="translate(281.982422 0.390625)" xlink:href="#DejaVuSans-49"/>
     </g>
    </g>
    <g id="line2d_19">
     <path d="M 80.84 91.6 
L 100.84 91.6 
" style="fill:none;stroke:#d97020;stroke-linecap:square;stroke-width:1.5;"/>
    </g>
    <g id="line2d_20"/>
    <g id="text_16">
     <!-- $\beta = 0.15$ -->
     <g transform="translate(108.84 95.1)scale(0.1 -0.1)">
      <defs>
       <path d="M 10.796875 72.90625 
L 49.515625 72.90625 
L 49.515625 64.59375 
L 19.828125 64.59375 
L 19.828125 46.734375 
Q 21.96875 47.46875 24.109375 47.828125 
Q 26.265625 48.1875 28.421875 48.1875 
Q 40.625 48.1875 47.75 41.5 
Q 54.890625 34.8125 54.890625 23.390625 
Q 54.890625 11.625 47.5625 5.09375 
Q 40.234375 -1.421875 26.90625 -1.421875 
Q 22.3125 -1.421875 17.546875 -0.640625 
Q 12.796875 0.140625 7.71875 1.703125 
L 7.71875 11.625 
Q 12.109375 9.234375 16.796875 8.0625 
Q 21.484375 6.890625 26.703125 6.890625 
Q 35.15625 6.890625 40.078125 11.328125 
Q 45.015625 15.765625 45.015625 23.390625 
Q 45.015625 31 40.078125 35.4375 
Q 35.15625 39.890625 26.703125 39.890625 
Q 22.75 39.890625 18.8125 39.015625 
Q 14.890625 38.140625 10.796875 36.28125 
z
" id="DejaVuSans-53"/>
      </defs>
      <use transform="translate(0 0.390625)" xlink:href="#DejaVuSans-Oblique-946"/>
      <use transform="translate(83.300781 0.390625)" xlink:href="#DejaVuSans-61"/>
      <use transform="translate(186.572266 0.390625)" xlink:href="#DejaVuSans-48"/>
      <use transform="translate(250.195312 0.390625)" xlink:href="#DejaVuSans-46"/>
      <use transform="translate(281.982422 0.390625)" xlink:href="#DejaVuSans-49"/>
      <use transform="translate(345.605469 0.390625)" xlink:href="#DejaVuSans-53"/>
     </g>
    </g>
    <g id="line2d_21">
     <path d="M 80.84 106.4 
L 100.84 106.4 
" style="fill:none;stroke:#ef9f07;stroke-linecap:square;stroke-width:1.5;"/>
    </g>
    <g id="line2d_22"/>
    <g id="text_17">
     <!-- $\beta = 0.2$ -->
     <g transform="translate(108.84 109.9)scale(0.1 -0.1)">
      <use transform="translate(0 0.390625)" xlink:href="#DejaVuSans-Oblique-946"/>
      <use transform="translate(83.300781 0.390625)" xlink:href="#DejaVuSans-61"/>
      <use transform="translate(186.572266 0.390625)" xlink:href="#DejaVuSans-48"/>
      <use transform="translate(250.195312 0.390625)" xlink:href="#DejaVuSans-46"/>
      <use transform="translate(276.482422 0.390625)" xlink:href="#DejaVuSans-50"/>
     </g>
    </g>
    <g id="line2d_23">
     <path d="M 80.84 121.2 
L 100.84 121.2 
" style="fill:none;stroke:#449775;stroke-linecap:square;stroke-width:1.5;"/>
    </g>
    <g id="line2d_24"/>
    <g id="text_18">
     <!-- $\beta = 0.25$ -->
     <g transform="translate(108.84 124.7)scale(0.1 -0.1)">
      <use transform="translate(0 0.390625)" xlink:href="#DejaVuSans-Oblique-946"/>
      <use transform="translate(83.300781 0.390625)" xlink:href="#DejaVuSans-61"/>
      <use transform="translate(186.572266 0.390625)" xlink:href="#DejaVuSans-48"/>
      <use transform="translate(250.195312 0.390625)" xlink:href="#DejaVuSans-46"/>
      <use transform="translate(276.482422 0.390625)" xlink:href="#DejaVuSans-50"/>
      <use transform="translate(340.105469 0.390625)" xlink:href="#DejaVuSans-53"/>
     </g>
    </g>
   </g>
  </g>
  <g id="axes_2">
   <g id="patch_8">
    <path d="M 493.416667 296.44 
L 863.623333 296.44 
L 863.623333 63.6 
L 493.416667 63.6 
z
" style="fill:#ffffff;"/>
   </g>
   <g id="matplotlib.axis_3">
    <g id="xtick_7">
     <g id="line2d_25">
      <g>
       <use style="stroke:#000000;stroke-width:0.8;" x="510.244242" xlink:href="#m45627b93a4" y="296.44"/>
      </g>
     </g>
     <g id="text_19">
      <!-- 0.0 -->
      <g transform="translate(501.497524 311.798281)scale(0.11 -0.11)">
       <use xlink:href="#DejaVuSans-48"/>
       <use x="63.623047" xlink:href="#DejaVuSans-46"/>
       <use x="95.410156" xlink:href="#DejaVuSans-48"/>
      </g>
     </g>
    </g>
    <g id="xtick_8">
     <g id="line2d_26">
      <g>
       <use style="stroke:#000000;stroke-width:0.8;" x="577.554545" xlink:href="#m45627b93a4" y="296.44"/>
      </g>
     </g>
     <g id="text_20">
      <!-- 0.2 -->
      <g transform="translate(568.807827 311.798281)scale(0.11 -0.11)">
       <use xlink:href="#DejaVuSans-48"/>
       <use x="63.623047" xlink:href="#DejaVuSans-46"/>
       <use x="95.410156" xlink:href="#DejaVuSans-50"/>
      </g>
     </g>
    </g>
    <g id="xtick_9">
     <g id="line2d_27">
      <g>
       <use style="stroke:#000000;stroke-width:0.8;" x="644.864848" xlink:href="#m45627b93a4" y="296.44"/>
      </g>
     </g>
     <g id="text_21">
      <!-- 0.4 -->
      <g transform="translate(636.11813 311.798281)scale(0.11 -0.11)">
       <use xlink:href="#DejaVuSans-48"/>
       <use x="63.623047" xlink:href="#DejaVuSans-46"/>
       <use x="95.410156" xlink:href="#DejaVuSans-52"/>
      </g>
     </g>
    </g>
    <g id="xtick_10">
     <g id="line2d_28">
      <g>
       <use style="stroke:#000000;stroke-width:0.8;" x="712.175152" xlink:href="#m45627b93a4" y="296.44"/>
      </g>
     </g>
     <g id="text_22">
      <!-- 0.6 -->
      <g transform="translate(703.428433 311.798281)scale(0.11 -0.11)">
       <use xlink:href="#DejaVuSans-48"/>
       <use x="63.623047" xlink:href="#DejaVuSans-46"/>
       <use x="95.410156" xlink:href="#DejaVuSans-54"/>
      </g>
     </g>
    </g>
    <g id="xtick_11">
     <g id="line2d_29">
      <g>
       <use style="stroke:#000000;stroke-width:0.8;" x="779.485455" xlink:href="#m45627b93a4" y="296.44"/>
      </g>
     </g>
     <g id="text_23">
      <!-- 0.8 -->
      <g transform="translate(770.738736 311.798281)scale(0.11 -0.11)">
       <use xlink:href="#DejaVuSans-48"/>
       <use x="63.623047" xlink:href="#DejaVuSans-46"/>
       <use x="95.410156" xlink:href="#DejaVuSans-56"/>
      </g>
     </g>
    </g>
    <g id="xtick_12">
     <g id="line2d_30">
      <g>
       <use style="stroke:#000000;stroke-width:0.8;" x="846.795758" xlink:href="#m45627b93a4" y="296.44"/>
      </g>
     </g>
     <g id="text_24">
      <!-- 1.0 -->
      <g transform="translate(838.049039 311.798281)scale(0.11 -0.11)">
       <use xlink:href="#DejaVuSans-49"/>
       <use x="63.623047" xlink:href="#DejaVuSans-46"/>
       <use x="95.410156" xlink:href="#DejaVuSans-48"/>
      </g>
     </g>
    </g>
    <g id="text_25">
     <!-- $\phi$ -->
     <g transform="translate(673.9 328.725937)scale(0.14 -0.14)">
      <use transform="translate(0 0.015625)" xlink:href="#DejaVuSans-Oblique-981"/>
     </g>
    </g>
   </g>
   <g id="matplotlib.axis_4">
    <g id="ytick_6">
     <g id="line2d_31">
      <g>
       <use style="stroke:#000000;stroke-width:0.8;" x="493.416667" xlink:href="#m789c228047" y="289.926993"/>
      </g>
     </g>
     <g id="text_26">
      <!-- −0.08 -->
      <g transform="translate(452.706823 294.106134)scale(0.11 -0.11)">
       <use xlink:href="#DejaVuSans-8722"/>
       <use x="83.789062" xlink:href="#DejaVuSans-48"/>
       <use x="147.412109" xlink:href="#DejaVuSans-46"/>
       <use x="179.199219" xlink:href="#DejaVuSans-48"/>
       <use x="242.822266" xlink:href="#DejaVuSans-56"/>
      </g>
     </g>
    </g>
    <g id="ytick_7">
     <g id="line2d_32">
      <g>
       <use style="stroke:#000000;stroke-width:0.8;" x="493.416667" xlink:href="#m789c228047" y="262.789464"/>
      </g>
     </g>
     <g id="text_27">
      <!-- −0.06 -->
      <g transform="translate(452.706823 266.968604)scale(0.11 -0.11)">
       <use xlink:href="#DejaVuSans-8722"/>
       <use x="83.789062" xlink:href="#DejaVuSans-48"/>
       <use x="147.412109" xlink:href="#DejaVuSans-46"/>
       <use x="179.199219" xlink:href="#DejaVuSans-48"/>
       <use x="242.822266" xlink:href="#DejaVuSans-54"/>
      </g>
     </g>
    </g>
    <g id="ytick_8">
     <g id="line2d_33">
      <g>
       <use style="stroke:#000000;stroke-width:0.8;" x="493.416667" xlink:href="#m789c228047" y="235.651935"/>
      </g>
     </g>
     <g id="text_28">
      <!-- −0.04 -->
      <g transform="translate(452.706823 239.831075)scale(0.11 -0.11)">
       <use xlink:href="#DejaVuSans-8722"/>
       <use x="83.789062" xlink:href="#DejaVuSans-48"/>
       <use x="147.412109" xlink:href="#DejaVuSans-46"/>
       <use x="179.199219" xlink:href="#DejaVuSans-48"/>
       <use x="242.822266" xlink:href="#DejaVuSans-52"/>
      </g>
     </g>
    </g>
    <g id="ytick_9">
     <g id="line2d_34">
      <g>
       <use style="stroke:#000000;stroke-width:0.8;" x="493.416667" xlink:href="#m789c228047" y="208.514406"/>
      </g>
     </g>
     <g id="text_29">
      <!-- −0.02 -->
      <g transform="translate(452.706823 212.693546)scale(0.11 -0.11)">
       <use xlink:href="#DejaVuSans-8722"/>
       <use x="83.789062" xlink:href="#DejaVuSans-48"/>
       <use x="147.412109" xlink:href="#DejaVuSans-46"/>
       <use x="179.199219" xlink:href="#DejaVuSans-48"/>
       <use x="242.822266" xlink:href="#DejaVuSans-50"/>
      </g>
     </g>
    </g>
    <g id="ytick_10">
     <g id="line2d_35">
      <g>
       <use style="stroke:#000000;stroke-width:0.8;" x="493.416667" xlink:href="#m789c228047" y="181.376876"/>
      </g>
     </g>
     <g id="text_30">
      <!-- 0.00 -->
      <g transform="translate(461.924479 185.556017)scale(0.11 -0.11)">
       <use xlink:href="#DejaVuSans-48"/>
       <use x="63.623047" xlink:href="#DejaVuSans-46"/>
       <use x="95.410156" xlink:href="#DejaVuSans-48"/>
       <use x="159.033203" xlink:href="#DejaVuSans-48"/>
      </g>
     </g>
    </g>
    <g id="ytick_11">
     <g id="line2d_36">
      <g>
       <use style="stroke:#000000;stroke-width:0.8;" x="493.416667" xlink:href="#m789c228047" y="154.239347"/>
      </g>
     </g>
     <g id="text_31">
      <!-- 0.02 -->
      <g transform="translate(461.924479 158.418488)scale(0.11 -0.11)">
       <use xlink:href="#DejaVuSans-48"/>
       <use x="63.623047" xlink:href="#DejaVuSans-46"/>
       <use x="95.410156" xlink:href="#DejaVuSans-48"/>
       <use x="159.033203" xlink:href="#DejaVuSans-50"/>
      </g>
     </g>
    </g>
    <g id="ytick_12">
     <g id="line2d_37">
      <g>
       <use style="stroke:#000000;stroke-width:0.8;" x="493.416667" xlink:href="#m789c228047" y="127.101818"/>
      </g>
     </g>
     <g id="text_32">
      <!-- 0.04 -->
      <g transform="translate(461.924479 131.280959)scale(0.11 -0.11)">
       <use xlink:href="#DejaVuSans-48"/>
       <use x="63.623047" xlink:href="#DejaVuSans-46"/>
       <use x="95.410156" xlink:href="#DejaVuSans-48"/>
       <use x="159.033203" xlink:href="#DejaVuSans-52"/>
      </g>
     </g>
    </g>
    <g id="ytick_13">
     <g id="line2d_38">
      <g>
       <use style="stroke:#000000;stroke-width:0.8;" x="493.416667" xlink:href="#m789c228047" y="99.964289"/>
      </g>
     </g>
     <g id="text_33">
      <!-- 0.06 -->
      <g transform="translate(461.924479 104.14343)scale(0.11 -0.11)">
       <use xlink:href="#DejaVuSans-48"/>
       <use x="63.623047" xlink:href="#DejaVuSans-46"/>
       <use x="95.410156" xlink:href="#DejaVuSans-48"/>
       <use x="159.033203" xlink:href="#DejaVuSans-54"/>
      </g>
     </g>
    </g>
    <g id="ytick_14">
     <g id="line2d_39">
      <g>
       <use style="stroke:#000000;stroke-width:0.8;" x="493.416667" xlink:href="#m789c228047" y="72.82676"/>
      </g>
     </g>
     <g id="text_34">
      <!-- 0.08 -->
      <g transform="translate(461.924479 77.005901)scale(0.11 -0.11)">
       <use xlink:href="#DejaVuSans-48"/>
       <use x="63.623047" xlink:href="#DejaVuSans-46"/>
       <use x="95.410156" xlink:href="#DejaVuSans-48"/>
       <use x="159.033203" xlink:href="#DejaVuSans-56"/>
      </g>
     </g>
    </g>
   </g>
   <g id="line2d_40">
    <path clip-path="url(#p98ab72ce3e)" d="M 510.244242 181.376876 
L 846.795758 181.376876 
" style="fill:none;stroke:#000000;stroke-dasharray:5.55,2.4;stroke-dashoffset:0;stroke-width:1.5;"/>
   </g>
   <g id="line2d_41">
    <path clip-path="url(#p98ab72ce3e)" d="M 510.244242 181.376876 
L 517.648376 211.228159 
L 517.984927 211.970776 
L 521.686994 208.035317 
L 525.389061 204.426355 
L 529.091127 201.119015 
L 532.793194 198.09096 
L 536.831812 195.082523 
L 540.87043 192.358907 
L 544.909048 189.898822 
L 548.947667 187.682977 
L 553.322836 185.537788 
L 557.698006 183.638378 
L 562.409727 181.846573 
L 567.121448 180.2974 
L 572.169721 178.885094 
L 577.217994 177.70786 
L 582.602818 176.689152 
L 587.987642 175.893772 
L 593.709018 175.27105 
L 599.766945 174.83746 
L 606.497976 174.59145 
L 613.229006 174.572912 
L 620.633139 174.784819 
L 628.373824 175.230327 
L 637.124164 175.964576 
L 646.884158 177.014844 
L 658.663461 178.52063 
L 675.154485 180.879787 
L 701.068952 184.584222 
L 712.848255 186.028682 
L 722.608248 187.009405 
L 731.358588 187.667632 
L 739.099273 188.035504 
L 746.503406 188.164114 
L 753.234436 188.061973 
L 759.628915 187.744836 
L 765.686842 187.221773 
L 771.408218 186.505791 
L 776.793042 185.614111 
L 782.177867 184.494756 
L 787.226139 183.212444 
L 791.937861 181.792619 
L 796.649582 180.137431 
L 801.024752 178.370794 
L 805.399921 176.363317 
L 809.438539 174.278158 
L 813.477158 171.953988 
L 817.515776 169.370528 
L 821.217842 166.752029 
L 824.919909 163.874017 
L 828.621976 160.714884 
L 832.324042 157.250638 
L 836.026109 153.455149 
L 839.055073 150.168718 
L 846.795758 181.376876 
L 846.795758 181.376876 
" style="fill:none;stroke:#aa3863;stroke-linecap:square;stroke-width:1.5;"/>
   </g>
   <g id="line2d_42">
    <path clip-path="url(#p98ab72ce3e)" d="M 510.244242 181.376876 
L 523.0332 232.938182 
L 523.369752 232.408636 
L 526.062164 226.367396 
L 528.754576 220.848617 
L 531.446988 215.798572 
L 534.1394 211.171539 
L 537.168364 206.423057 
L 540.197327 202.112275 
L 543.226291 198.197861 
L 546.255255 194.64399 
L 549.284218 191.419368 
L 552.313182 188.496474 
L 555.678697 185.573157 
L 559.044212 182.962758 
L 562.409727 180.63912 
L 565.775242 178.578969 
L 569.140758 176.761484 
L 572.842824 175.020241 
L 576.544891 173.5276 
L 580.246958 172.263415 
L 584.285576 171.116042 
L 588.324194 170.190798 
L 592.699364 169.426629 
L 597.074533 168.88836 
L 601.786255 168.538044 
L 606.834527 168.401147 
L 611.8828 168.485794 
L 617.267624 168.793932 
L 622.989 169.339383 
L 629.383479 170.180679 
L 636.114509 171.292049 
L 643.518642 172.736633 
L 652.268982 174.680217 
L 662.702079 177.235258 
L 678.52 181.375625 
L 697.366885 186.262712 
L 707.799982 188.731025 
L 716.21377 190.501261 
L 723.617903 191.842401 
L 730.348933 192.844786 
L 736.743412 193.569941 
L 742.464788 194.001316 
L 747.849612 194.193279 
L 752.897885 194.160931 
L 757.946158 193.902964 
L 762.657879 193.433342 
L 767.033048 192.776595 
L 771.408218 191.884982 
L 775.446836 190.832354 
L 779.485455 189.537132 
L 783.187521 188.116028 
L 786.889588 186.449652 
L 790.591655 184.521133 
L 793.95717 182.514807 
L 797.322685 180.241773 
L 800.6882 177.676333 
L 803.717164 175.093405 
L 806.746127 172.225967 
L 809.775091 169.050738 
L 812.804055 165.537833 
L 815.833018 161.646247 
L 818.52543 157.836058 
L 821.217842 153.661076 
L 823.910255 149.083185 
L 826.602667 144.064461 
L 829.295079 138.547838 
L 831.987491 132.47133 
L 833.670248 128.458695 
L 846.795758 181.376876 
L 846.795758 181.376876 
" style="fill:none;stroke:#d97020;stroke-linecap:square;stroke-width:1.5;"/>
   </g>
   <g id="line2d_43">
    <path clip-path="url(#p98ab72ce3e)" d="M 510.244242 181.376876 
L 529.091127 257.361958 
L 529.427679 257.199418 
L 531.446988 247.760677 
L 533.466297 239.382226 
L 535.485606 231.88634 
L 537.504915 225.138707 
L 539.860776 218.074172 
L 542.216636 211.75708 
L 544.572497 206.085587 
L 546.928358 200.978075 
L 549.284218 196.367959 
L 551.640079 192.200096 
L 554.332491 187.919341 
L 557.024903 184.098005 
L 559.717315 180.687375 
L 562.409727 177.646087 
L 565.102139 174.938669 
L 567.794552 172.534427 
L 570.486964 170.406591 
L 573.515927 168.313997 
L 576.544891 166.496569 
L 579.573855 164.941802 
L 582.602818 163.631144 
L 585.631782 162.544201 
L 588.997297 161.576772 
L 592.362812 160.84075 
L 596.064879 160.274656 
L 599.766945 159.940741 
L 603.805564 159.816391 
L 607.844182 159.918458 
L 612.219352 160.258916 
L 616.931073 160.864752 
L 621.642794 161.69098 
L 627.027618 162.861942 
L 632.748994 164.347308 
L 638.806921 166.153022 
L 645.537952 168.39231 
L 653.278636 171.207589 
L 662.702079 174.885076 
L 676.500691 180.539467 
L 695.347576 188.232319 
L 704.771018 191.834663 
L 712.511703 194.568171 
L 719.242733 196.724934 
L 725.637212 198.539167 
L 731.358588 199.931682 
L 736.743412 201.010398 
L 741.791685 201.788806 
L 746.503406 202.287156 
L 750.878576 202.52598 
L 754.917194 202.532873 
L 758.955812 202.311918 
L 762.657879 201.887747 
L 766.359945 201.22895 
L 769.725461 200.405445 
L 773.090976 199.346002 
L 776.456491 198.031201 
L 779.485455 196.6079 
L 782.514418 194.928837 
L 785.20683 193.200164 
L 787.899242 191.227012 
L 790.591655 188.984966 
L 793.284067 186.446265 
L 795.976479 183.590453 
L 798.668891 180.368113 
L 801.024752 177.213123 
L 803.380612 173.70864 
L 805.736473 169.813741 
L 808.092333 165.486053 
L 810.448194 160.669531 
L 812.804055 155.287042 
L 814.823364 150.158675 
L 816.842673 144.486112 
L 818.861982 138.190839 
L 820.881291 131.182072 
L 822.9006 123.322432 
L 824.919909 114.448353 
L 826.602667 106.123746 
L 827.27577 102.678042 
L 846.795758 181.376876 
L 846.795758 181.376876 
" style="fill:none;stroke:#ef9f07;stroke-linecap:square;stroke-width:1.5;"/>
   </g>
   <g id="line2d_44">
    <path clip-path="url(#p98ab72ce3e)" d="M 510.244242 181.376876 
L 536.158709 285.856364 
L 536.495261 285.818714 
L 537.504915 273.863199 
L 538.851121 260.721707 
L 540.197327 249.763464 
L 541.543533 240.367253 
L 543.226291 230.259966 
L 544.909048 221.54927 
L 546.591806 213.933303 
L 548.274564 207.203656 
L 550.293873 200.08829 
L 552.313182 193.841966 
L 554.332491 188.322996 
L 556.3518 183.423277 
L 558.371109 179.058143 
L 560.390418 175.159841 
L 562.746279 171.128748 
L 565.102139 167.586731 
L 567.458 164.475399 
L 569.813861 161.7464 
L 572.169721 159.338549 
L 574.525582 157.238223 
L 576.881442 155.417663 
L 579.237303 153.851139 
L 581.929715 152.343255 
L 584.622127 151.108825 
L 587.314539 150.122515 
L 590.006952 149.362138 
L 593.035915 148.752495 
L 596.064879 148.379523 
L 599.093842 148.221582 
L 602.459358 148.275011 
L 605.824873 148.546894 
L 609.526939 149.072024 
L 613.229006 149.797614 
L 617.267624 150.811112 
L 621.642794 152.141755 
L 626.354515 153.813208 
L 631.402788 155.842939 
L 637.124164 158.398723 
L 643.182091 161.351996 
L 650.249673 165.053693 
L 658.326909 169.532689 
L 668.760006 175.586895 
L 698.376539 192.923926 
L 706.790327 197.499468 
L 713.857909 201.095197 
L 720.252388 204.097452 
L 725.973764 206.538076 
L 731.21987 208.535662 
L 736.070309 210.148912 
L 740.445479 211.383663 
L 744.820648 212.382345 
L 748.859267 213.068954 
L 752.561333 213.476472 
L 755.926848 213.642341 
L 759.292364 213.59242 
L 762.321327 213.343855 
L 765.350291 212.882336 
L 768.379255 212.186765 
L 771.071667 211.359288 
L 773.764079 210.306226 
L 776.456491 209.00372 
L 779.148903 207.424043 
L 781.504764 205.789057 
L 783.860624 203.891636 
L 786.216485 201.712766 
L 788.572345 199.211166 
L 790.928206 196.342147 
L 792.947515 193.552949 
L 794.966824 190.419537 
L 796.986133 186.901039 
L 799.005442 182.951094 
L 801.024752 178.490992 
L 803.044061 173.436659 
L 805.06337 167.680838 
L 806.746127 162.2526 
L 808.428885 156.149953 
L 810.111642 149.221126 
L 811.7944 141.278944 
L 813.477158 132.060119 
L 815.047487 121.964634 
L 816.16957 113.619004 
L 817.515776 101.920024 
L 818.52543 91.519598 
L 819.535085 79.145308 
L 819.871636 74.434794 
L 820.208188 74.183636 
L 846.795758 181.376876 
L 846.795758 181.376876 
" style="fill:none;stroke:#449775;stroke-linecap:square;stroke-width:1.5;"/>
   </g>
   <g id="patch_9">
    <path d="M 493.416667 296.44 
L 493.416667 63.6 
" style="fill:none;stroke:#000000;stroke-linecap:square;stroke-linejoin:miter;stroke-width:0.8;"/>
   </g>
   <g id="patch_10">
    <path d="M 863.623333 296.44 
L 863.623333 63.6 
" style="fill:none;stroke:#000000;stroke-linecap:square;stroke-linejoin:miter;stroke-width:0.8;"/>
   </g>
   <g id="patch_11">
    <path d="M 493.416667 296.44 
L 863.623333 296.44 
" style="fill:none;stroke:#000000;stroke-linecap:square;stroke-linejoin:miter;stroke-width:0.8;"/>
   </g>
   <g id="patch_12">
    <path d="M 493.416667 63.6 
L 863.623333 63.6 
" style="fill:none;stroke:#000000;stroke-linecap:square;stroke-linejoin:miter;stroke-width:0.8;"/>
   </g>
   <g id="text_35">
    <!-- $I$ = 1.3, $\beta$ = 0.1 -->
    <g transform="translate(616.92 57.6)scale(0.16 -0.16)">
     <defs>
      <path d="M 40.578125 39.3125 
Q 47.65625 37.796875 51.625 33 
Q 55.609375 28.21875 55.609375 21.1875 
Q 55.609375 10.40625 48.1875 4.484375 
Q 40.765625 -1.421875 27.09375 -1.421875 
Q 22.515625 -1.421875 17.65625 -0.515625 
Q 12.796875 0.390625 7.625 2.203125 
L 7.625 11.71875 
Q 11.71875 9.328125 16.59375 8.109375 
Q 21.484375 6.890625 26.8125 6.890625 
Q 36.078125 6.890625 40.9375 10.546875 
Q 45.796875 14.203125 45.796875 21.1875 
Q 45.796875 27.640625 41.28125 31.265625 
Q 36.765625 34.90625 28.71875 34.90625 
L 20.21875 34.90625 
L 20.21875 43.015625 
L 29.109375 43.015625 
Q 36.375 43.015625 40.234375 45.921875 
Q 44.09375 48.828125 44.09375 54.296875 
Q 44.09375 59.90625 40.109375 62.90625 
Q 36.140625 65.921875 28.71875 65.921875 
Q 24.65625 65.921875 20.015625 65.03125 
Q 15.375 64.15625 9.8125 62.3125 
L 9.8125 71.09375 
Q 15.4375 72.65625 20.34375 73.4375 
Q 25.25 74.21875 29.59375 74.21875 
Q 40.828125 74.21875 47.359375 69.109375 
Q 53.90625 64.015625 53.90625 55.328125 
Q 53.90625 49.265625 50.4375 45.09375 
Q 46.96875 40.921875 40.578125 39.3125 
z
" id="DejaVuSans-51"/>
     </defs>
     <use transform="translate(0 0.390625)" xlink:href="#DejaVuSans-Oblique-73"/>
     <use transform="translate(29.492188 0.390625)" xlink:href="#DejaVuSans-32"/>
     <use transform="translate(61.279297 0.390625)" xlink:href="#DejaVuSans-61"/>
     <use transform="translate(145.068359 0.390625)" xlink:href="#DejaVuSans-32"/>
     <use transform="translate(176.855469 0.390625)" xlink:href="#DejaVuSans-49"/>
     <use transform="translate(240.478516 0.390625)" xlink:href="#DejaVuSans-46"/>
     <use transform="translate(272.265625 0.390625)" xlink:href="#DejaVuSans-51"/>
     <use transform="translate(335.888672 0.390625)" xlink:href="#DejaVuSans-44"/>
     <use transform="translate(367.675781 0.390625)" xlink:href="#DejaVuSans-32"/>
     <use transform="translate(399.462891 0.390625)" xlink:href="#DejaVuSans-Oblique-946"/>
     <use transform="translate(463.28125 0.390625)" xlink:href="#DejaVuSans-32"/>
     <use transform="translate(495.068359 0.390625)" xlink:href="#DejaVuSans-61"/>
     <use transform="translate(578.857422 0.390625)" xlink:href="#DejaVuSans-32"/>
     <use transform="translate(610.644531 0.390625)" xlink:href="#DejaVuSans-48"/>
     <use transform="translate(674.267578 0.390625)" xlink:href="#DejaVuSans-46"/>
     <use transform="translate(706.054688 0.390625)" xlink:href="#DejaVuSans-49"/>
    </g>
   </g>
   <g id="legend_2">
    <g id="patch_13">
     <path d="M 500.416667 130.39375 
L 572.916667 130.39375 
Q 574.916667 130.39375 574.916667 128.39375 
L 574.916667 70.6 
Q 574.916667 68.6 572.916667 68.6 
L 500.416667 68.6 
Q 498.416667 68.6 498.416667 70.6 
L 498.416667 128.39375 
Q 498.416667 130.39375 500.416667 130.39375 
z
" style="fill:#ffffff;opacity:0.8;stroke:#cccccc;stroke-linejoin:miter;"/>
    </g>
    <g id="line2d_45">
     <path d="M 502.416667 76.698438 
L 522.416667 76.698438 
" style="fill:none;stroke:#aa3863;stroke-linecap:square;stroke-width:1.5;"/>
    </g>
    <g id="line2d_46"/>
    <g id="text_36">
     <!-- $\gamma = 0.1$ -->
     <g transform="translate(530.416667 80.198438)scale(0.1 -0.1)">
      <use transform="translate(0 0.78125)" xlink:href="#DejaVuSans-Oblique-947"/>
      <use transform="translate(78.662109 0.78125)" xlink:href="#DejaVuSans-61"/>
      <use transform="translate(181.933594 0.78125)" xlink:href="#DejaVuSans-48"/>
      <use transform="translate(245.556641 0.78125)" xlink:href="#DejaVuSans-46"/>
      <use transform="translate(277.34375 0.78125)" xlink:href="#DejaVuSans-49"/>
     </g>
    </g>
    <g id="line2d_47">
     <path d="M 502.416667 91.396875 
L 522.416667 91.396875 
" style="fill:none;stroke:#d97020;stroke-linecap:square;stroke-width:1.5;"/>
    </g>
    <g id="line2d_48"/>
    <g id="text_37">
     <!-- $\gamma = 0.15$ -->
     <g transform="translate(530.416667 94.896875)scale(0.1 -0.1)">
      <use transform="translate(0 0.78125)" xlink:href="#DejaVuSans-Oblique-947"/>
      <use transform="translate(78.662109 0.78125)" xlink:href="#DejaVuSans-61"/>
      <use transform="translate(181.933594 0.78125)" xlink:href="#DejaVuSans-48"/>
      <use transform="translate(245.556641 0.78125)" xlink:href="#DejaVuSans-46"/>
      <use transform="translate(277.34375 0.78125)" xlink:href="#DejaVuSans-49"/>
      <use transform="translate(340.966797 0.78125)" xlink:href="#DejaVuSans-53"/>
     </g>
    </g>
    <g id="line2d_49">
     <path d="M 502.416667 106.095313 
L 522.416667 106.095313 
" style="fill:none;stroke:#ef9f07;stroke-linecap:square;stroke-width:1.5;"/>
    </g>
    <g id="line2d_50"/>
    <g id="text_38">
     <!-- $\gamma = 0.2$ -->
     <g transform="translate(530.416667 109.595313)scale(0.1 -0.1)">
      <use transform="translate(0 0.78125)" xlink:href="#DejaVuSans-Oblique-947"/>
      <use transform="translate(78.662109 0.78125)" xlink:href="#DejaVuSans-61"/>
      <use transform="translate(181.933594 0.78125)" xlink:href="#DejaVuSans-48"/>
      <use transform="translate(245.556641 0.78125)" xlink:href="#DejaVuSans-46"/>
      <use transform="translate(271.84375 0.78125)" xlink:href="#DejaVuSans-50"/>
     </g>
    </g>
    <g id="line2d_51">
     <path d="M 502.416667 120.79375 
L 522.416667 120.79375 
" style="fill:none;stroke:#449775;stroke-linecap:square;stroke-width:1.5;"/>
    </g>
    <g id="line2d_52"/>
    <g id="text_39">
     <!-- $\gamma = 0.25$ -->
     <g transform="translate(530.416667 124.29375)scale(0.1 -0.1)">
      <use transform="translate(0 0.78125)" xlink:href="#DejaVuSans-Oblique-947"/>
      <use transform="translate(78.662109 0.78125)" xlink:href="#DejaVuSans-61"/>
      <use transform="translate(181.933594 0.78125)" xlink:href="#DejaVuSans-48"/>
      <use transform="translate(245.556641 0.78125)" xlink:href="#DejaVuSans-46"/>
      <use transform="translate(271.84375 0.78125)" xlink:href="#DejaVuSans-50"/>
      <use transform="translate(335.466797 0.78125)" xlink:href="#DejaVuSans-53"/>
     </g>
    </g>
   </g>
  </g>
  <g id="axes_3">
   <g id="patch_14">
    <path d="M 914.993333 296.44 
L 1285.2 296.44 
L 1285.2 63.6 
L 914.993333 63.6 
z
" style="fill:#ffffff;"/>
   </g>
   <g id="matplotlib.axis_5">
    <g id="xtick_13">
     <g id="line2d_53">
      <g>
       <use style="stroke:#000000;stroke-width:0.8;" x="931.820909" xlink:href="#m45627b93a4" y="296.44"/>
      </g>
     </g>
     <g id="text_40">
      <!-- 0.0 -->
      <g transform="translate(923.07419 311.798281)scale(0.11 -0.11)">
       <use xlink:href="#DejaVuSans-48"/>
       <use x="63.623047" xlink:href="#DejaVuSans-46"/>
       <use x="95.410156" xlink:href="#DejaVuSans-48"/>
      </g>
     </g>
    </g>
    <g id="xtick_14">
     <g id="line2d_54">
      <g>
       <use style="stroke:#000000;stroke-width:0.8;" x="999.131212" xlink:href="#m45627b93a4" y="296.44"/>
      </g>
     </g>
     <g id="text_41">
      <!-- 0.2 -->
      <g transform="translate(990.384493 311.798281)scale(0.11 -0.11)">
       <use xlink:href="#DejaVuSans-48"/>
       <use x="63.623047" xlink:href="#DejaVuSans-46"/>
       <use x="95.410156" xlink:href="#DejaVuSans-50"/>
      </g>
     </g>
    </g>
    <g id="xtick_15">
     <g id="line2d_55">
      <g>
       <use style="stroke:#000000;stroke-width:0.8;" x="1066.441515" xlink:href="#m45627b93a4" y="296.44"/>
      </g>
     </g>
     <g id="text_42">
      <!-- 0.4 -->
      <g transform="translate(1057.694796 311.798281)scale(0.11 -0.11)">
       <use xlink:href="#DejaVuSans-48"/>
       <use x="63.623047" xlink:href="#DejaVuSans-46"/>
       <use x="95.410156" xlink:href="#DejaVuSans-52"/>
      </g>
     </g>
    </g>
    <g id="xtick_16">
     <g id="line2d_56">
      <g>
       <use style="stroke:#000000;stroke-width:0.8;" x="1133.751818" xlink:href="#m45627b93a4" y="296.44"/>
      </g>
     </g>
     <g id="text_43">
      <!-- 0.6 -->
      <g transform="translate(1125.005099 311.798281)scale(0.11 -0.11)">
       <use xlink:href="#DejaVuSans-48"/>
       <use x="63.623047" xlink:href="#DejaVuSans-46"/>
       <use x="95.410156" xlink:href="#DejaVuSans-54"/>
      </g>
     </g>
    </g>
    <g id="xtick_17">
     <g id="line2d_57">
      <g>
       <use style="stroke:#000000;stroke-width:0.8;" x="1201.062121" xlink:href="#m45627b93a4" y="296.44"/>
      </g>
     </g>
     <g id="text_44">
      <!-- 0.8 -->
      <g transform="translate(1192.315402 311.798281)scale(0.11 -0.11)">
       <use xlink:href="#DejaVuSans-48"/>
       <use x="63.623047" xlink:href="#DejaVuSans-46"/>
       <use x="95.410156" xlink:href="#DejaVuSans-56"/>
      </g>
     </g>
    </g>
    <g id="xtick_18">
     <g id="line2d_58">
      <g>
       <use style="stroke:#000000;stroke-width:0.8;" x="1268.372424" xlink:href="#m45627b93a4" y="296.44"/>
      </g>
     </g>
     <g id="text_45">
      <!-- 1.0 -->
      <g transform="translate(1259.625705 311.798281)scale(0.11 -0.11)">
       <use xlink:href="#DejaVuSans-49"/>
       <use x="63.623047" xlink:href="#DejaVuSans-46"/>
       <use x="95.410156" xlink:href="#DejaVuSans-48"/>
      </g>
     </g>
    </g>
    <g id="text_46">
     <!-- $\phi$ -->
     <g transform="translate(1095.476667 328.725937)scale(0.14 -0.14)">
      <use transform="translate(0 0.015625)" xlink:href="#DejaVuSans-Oblique-981"/>
     </g>
    </g>
   </g>
   <g id="matplotlib.axis_6">
    <g id="ytick_15">
     <g id="line2d_59">
      <g>
       <use style="stroke:#000000;stroke-width:0.8;" x="914.993333" xlink:href="#m789c228047" y="291.354357"/>
      </g>
     </g>
     <g id="text_47">
      <!-- −0.04 -->
      <g transform="translate(874.28349 295.533497)scale(0.11 -0.11)">
       <use xlink:href="#DejaVuSans-8722"/>
       <use x="83.789062" xlink:href="#DejaVuSans-48"/>
       <use x="147.412109" xlink:href="#DejaVuSans-46"/>
       <use x="179.199219" xlink:href="#DejaVuSans-48"/>
       <use x="242.822266" xlink:href="#DejaVuSans-52"/>
      </g>
     </g>
    </g>
    <g id="ytick_16">
     <g id="line2d_60">
      <g>
       <use style="stroke:#000000;stroke-width:0.8;" x="914.993333" xlink:href="#m789c228047" y="263.864392"/>
      </g>
     </g>
     <g id="text_48">
      <!-- −0.03 -->
      <g transform="translate(874.28349 268.043533)scale(0.11 -0.11)">
       <use xlink:href="#DejaVuSans-8722"/>
       <use x="83.789062" xlink:href="#DejaVuSans-48"/>
       <use x="147.412109" xlink:href="#DejaVuSans-46"/>
       <use x="179.199219" xlink:href="#DejaVuSans-48"/>
       <use x="242.822266" xlink:href="#DejaVuSans-51"/>
      </g>
     </g>
    </g>
    <g id="ytick_17">
     <g id="line2d_61">
      <g>
       <use style="stroke:#000000;stroke-width:0.8;" x="914.993333" xlink:href="#m789c228047" y="236.374427"/>
      </g>
     </g>
     <g id="text_49">
      <!-- −0.02 -->
      <g transform="translate(874.28349 240.553568)scale(0.11 -0.11)">
       <use xlink:href="#DejaVuSans-8722"/>
       <use x="83.789062" xlink:href="#DejaVuSans-48"/>
       <use x="147.412109" xlink:href="#DejaVuSans-46"/>
       <use x="179.199219" xlink:href="#DejaVuSans-48"/>
       <use x="242.822266" xlink:href="#DejaVuSans-50"/>
      </g>
     </g>
    </g>
    <g id="ytick_18">
     <g id="line2d_62">
      <g>
       <use style="stroke:#000000;stroke-width:0.8;" x="914.993333" xlink:href="#m789c228047" y="208.884463"/>
      </g>
     </g>
     <g id="text_50">
      <!-- −0.01 -->
      <g transform="translate(874.28349 213.063603)scale(0.11 -0.11)">
       <use xlink:href="#DejaVuSans-8722"/>
       <use x="83.789062" xlink:href="#DejaVuSans-48"/>
       <use x="147.412109" xlink:href="#DejaVuSans-46"/>
       <use x="179.199219" xlink:href="#DejaVuSans-48"/>
       <use x="242.822266" xlink:href="#DejaVuSans-49"/>
      </g>
     </g>
    </g>
    <g id="ytick_19">
     <g id="line2d_63">
      <g>
       <use style="stroke:#000000;stroke-width:0.8;" x="914.993333" xlink:href="#m789c228047" y="181.394498"/>
      </g>
     </g>
     <g id="text_51">
      <!-- 0.00 -->
      <g transform="translate(883.501146 185.573639)scale(0.11 -0.11)">
       <use xlink:href="#DejaVuSans-48"/>
       <use x="63.623047" xlink:href="#DejaVuSans-46"/>
       <use x="95.410156" xlink:href="#DejaVuSans-48"/>
       <use x="159.033203" xlink:href="#DejaVuSans-48"/>
      </g>
     </g>
    </g>
    <g id="ytick_20">
     <g id="line2d_64">
      <g>
       <use style="stroke:#000000;stroke-width:0.8;" x="914.993333" xlink:href="#m789c228047" y="153.904534"/>
      </g>
     </g>
     <g id="text_52">
      <!-- 0.01 -->
      <g transform="translate(883.501146 158.083674)scale(0.11 -0.11)">
       <use xlink:href="#DejaVuSans-48"/>
       <use x="63.623047" xlink:href="#DejaVuSans-46"/>
       <use x="95.410156" xlink:href="#DejaVuSans-48"/>
       <use x="159.033203" xlink:href="#DejaVuSans-49"/>
      </g>
     </g>
    </g>
    <g id="ytick_21">
     <g id="line2d_65">
      <g>
       <use style="stroke:#000000;stroke-width:0.8;" x="914.993333" xlink:href="#m789c228047" y="126.414569"/>
      </g>
     </g>
     <g id="text_53">
      <!-- 0.02 -->
      <g transform="translate(883.501146 130.59371)scale(0.11 -0.11)">
       <use xlink:href="#DejaVuSans-48"/>
       <use x="63.623047" xlink:href="#DejaVuSans-46"/>
       <use x="95.410156" xlink:href="#DejaVuSans-48"/>
       <use x="159.033203" xlink:href="#DejaVuSans-50"/>
      </g>
     </g>
    </g>
    <g id="ytick_22">
     <g id="line2d_66">
      <g>
       <use style="stroke:#000000;stroke-width:0.8;" x="914.993333" xlink:href="#m789c228047" y="98.924604"/>
      </g>
     </g>
     <g id="text_54">
      <!-- 0.03 -->
      <g transform="translate(883.501146 103.103745)scale(0.11 -0.11)">
       <use xlink:href="#DejaVuSans-48"/>
       <use x="63.623047" xlink:href="#DejaVuSans-46"/>
       <use x="95.410156" xlink:href="#DejaVuSans-48"/>
       <use x="159.033203" xlink:href="#DejaVuSans-51"/>
      </g>
     </g>
    </g>
    <g id="ytick_23">
     <g id="line2d_67">
      <g>
       <use style="stroke:#000000;stroke-width:0.8;" x="914.993333" xlink:href="#m789c228047" y="71.43464"/>
      </g>
     </g>
     <g id="text_55">
      <!-- 0.04 -->
      <g transform="translate(883.501146 75.613781)scale(0.11 -0.11)">
       <use xlink:href="#DejaVuSans-48"/>
       <use x="63.623047" xlink:href="#DejaVuSans-46"/>
       <use x="95.410156" xlink:href="#DejaVuSans-48"/>
       <use x="159.033203" xlink:href="#DejaVuSans-52"/>
      </g>
     </g>
    </g>
   </g>
   <g id="line2d_68">
    <path clip-path="url(#pb082bab272)" d="M 931.820909 181.394498 
L 1268.372424 181.394498 
" style="fill:none;stroke:#000000;stroke-dasharray:5.55,2.4;stroke-dashoffset:0;stroke-width:1.5;"/>
   </g>
   <g id="line2d_69">
    <path clip-path="url(#pb082bab272)" d="M 931.820909 181.394498 
L 944.609867 285.856364 
L 944.946418 283.460458 
L 946.629176 265.507789 
L 948.311933 249.604475 
L 950.331242 232.730417 
L 952.350552 217.848932 
L 954.369861 204.630018 
L 956.38917 192.82323 
L 958.408479 182.233274 
L 960.427788 172.704452 
L 962.447097 164.11031 
L 964.466406 156.346523 
L 966.822267 148.222641 
L 969.178127 140.994949 
L 971.533988 134.566846 
L 973.889848 128.856782 
L 976.245709 123.795188 
L 978.60157 119.322156 
L 980.95743 115.385668 
L 983.313291 111.940216 
L 985.3326 109.34729 
L 987.351909 107.063066 
L 989.371218 105.06714 
L 991.390527 103.340965 
L 993.409836 101.867627 
L 995.429145 100.631647 
L 997.448455 99.618816 
L 999.804315 98.701817 
L 1002.160176 98.051721 
L 1004.516036 97.651099 
L 1006.871897 97.483965 
L 1009.227758 97.535609 
L 1011.583618 97.792452 
L 1014.27603 98.321176 
L 1016.968442 99.084212 
L 1019.660855 100.065601 
L 1022.689818 101.412345 
L 1025.718782 102.997428 
L 1029.084297 105.016489 
L 1032.449812 107.285211 
L 1036.151879 110.044418 
L 1040.190497 113.340495 
L 1044.565667 117.213928 
L 1050.287042 122.627249 
L 1055.335315 127.713922 
L 1060.720139 133.465655 
L 1066.778067 140.274996 
L 1073.509097 148.181395 
L 1081.586333 158.024304 
L 1092.355982 171.524637 
L 1116.251139 201.593171 
L 1124.664927 211.766023 
L 1131.732509 219.97612 
L 1138.126988 227.062972 
L 1143.848364 233.070722 
L 1148.896636 238.066634 
L 1153.608358 242.435476 
L 1157.983527 246.207329 
L 1162.022145 249.419023 
L 1166.060764 252.345211 
L 1169.76283 254.752872 
L 1173.128345 256.69322 
L 1176.493861 258.376908 
L 1179.522824 259.655206 
L 1182.551788 260.691325 
L 1185.2442 261.393939 
L 1187.936612 261.876077 
L 1190.629024 262.122001 
L 1192.984885 262.129867 
L 1195.340745 261.93098 
L 1197.696606 261.511467 
L 1200.052467 260.856113 
L 1202.408327 259.948172 
L 1204.764188 258.769148 
L 1206.783497 257.527314 
L 1208.802806 256.057033 
L 1210.822115 254.342629 
L 1212.841424 252.366809 
L 1214.860733 250.110428 
L 1217.216594 247.123154 
L 1219.235903 244.254184 
L 1221.255212 241.03111 
L 1223.274521 237.423271 
L 1225.29383 233.395961 
L 1227.313139 228.909679 
L 1229.332448 223.919201 
L 1231.351758 218.372411 
L 1233.371067 212.208809 
L 1235.390376 205.357597 
L 1237.409685 197.735163 
L 1239.428994 189.241741 
L 1241.448303 179.756881 
L 1243.467612 169.133176 
L 1245.486921 157.187353 
L 1247.50623 143.687266 
L 1249.188988 131.035665 
L 1250.871745 116.87274 
L 1252.554503 100.906718 
L 1254.237261 82.748253 
L 1254.910364 74.75716 
L 1255.246915 74.183636 
L 1268.372424 181.394498 
L 1268.372424 181.394498 
" style="fill:none;stroke:#aa3863;stroke-linecap:square;stroke-width:1.5;"/>
   </g>
   <g id="line2d_70">
    <path clip-path="url(#pb082bab272)" d="M 931.820909 181.394498 
L 941.917455 263.864392 
L 942.254006 265.36637 
L 944.609867 253.655058 
L 946.965727 242.945591 
L 949.658139 231.800097 
L 952.350552 221.697085 
L 955.042964 212.527032 
L 957.735376 204.197002 
L 960.427788 196.627359 
L 963.1202 189.749252 
L 965.812612 183.502685 
L 968.505024 177.835012 
L 971.533988 172.019346 
L 974.2264 167.26472 
L 976.918812 162.974525 
L 979.611224 159.115002 
L 982.303636 155.655728 
L 984.996048 152.569168 
L 987.688461 149.830301 
L 990.380873 147.416308 
L 993.073285 145.306303 
L 995.765697 143.481112 
L 998.458109 141.923073 
L 1001.150521 140.61587 
L 1003.842933 139.544391 
L 1006.535345 138.694601 
L 1009.564309 137.987336 
L 1012.593273 137.526831 
L 1015.622236 137.297032 
L 1018.6512 137.282997 
L 1022.016715 137.503531 
L 1025.38223 137.955412 
L 1028.747745 138.622021 
L 1032.449812 139.584798 
L 1036.151879 140.769308 
L 1040.190497 142.293205 
L 1044.565667 144.19227 
L 1049.277388 146.497044 
L 1054.325661 149.231662 
L 1059.710485 152.412728 
L 1065.431861 156.048204 
L 1071.826339 160.369623 
L 1079.567024 165.885294 
L 1088.990467 172.888341 
L 1121.635964 197.395578 
L 1129.040097 202.548247 
L 1135.434576 206.746296 
L 1141.492503 210.456446 
L 1146.877327 213.496277 
L 1151.9256 216.091809 
L 1156.637321 218.263327 
L 1161.012491 220.037688 
L 1165.051109 221.44727 
L 1169.089727 222.616662 
L 1172.791794 223.458738 
L 1176.493861 224.061974 
L 1179.859376 224.386336 
L 1183.224891 224.480557 
L 1186.253855 224.354046 
L 1189.282818 224.012939 
L 1192.311782 223.442168 
L 1195.340745 222.625372 
L 1198.033158 221.678421 
L 1200.72557 220.509416 
L 1203.417982 219.103592 
L 1206.110394 217.444888 
L 1208.802806 215.515779 
L 1211.495218 213.297088 
L 1214.18763 210.767768 
L 1216.880042 207.904643 
L 1219.572455 204.682109 
L 1222.264867 201.07178 
L 1224.957279 197.042069 
L 1227.649691 192.557683 
L 1230.342103 187.579022 
L 1233.034515 182.080827 
L 1235.390376 176.837208 
L 1237.746236 171.102252 
L 1240.102097 164.832013 
L 1242.457958 157.976747 
L 1244.813818 150.479852 
L 1247.169679 142.276537 
L 1249.525539 133.292161 
L 1251.8814 123.44011 
L 1254.237261 112.619069 
L 1256.593121 100.70946 
L 1257.602776 95.237732 
L 1257.939327 96.175608 
L 1268.372424 181.394498 
L 1268.372424 181.394498 
" style="fill:none;stroke:#d97020;stroke-linecap:square;stroke-width:1.5;"/>
   </g>
   <g id="line2d_71">
    <path clip-path="url(#pb082bab272)" d="M 931.820909 181.394498 
L 940.571248 252.606581 
L 943.600212 243.138713 
L 946.629176 234.444466 
L 949.658139 226.458618 
L 952.687103 219.123718 
L 955.716067 212.38885 
L 958.74503 206.208638 
L 961.773994 200.542443 
L 964.802958 195.353694 
L 967.831921 190.609338 
L 970.860885 186.279381 
L 973.889848 182.336506 
L 976.918812 178.75574 
L 979.947776 175.514184 
L 982.976739 172.590768 
L 986.005703 169.966056 
L 989.034667 167.622063 
L 992.06363 165.542102 
L 995.092594 163.710656 
L 998.458109 161.949619 
L 1001.823624 160.459069 
L 1005.189139 159.221814 
L 1008.554655 158.221825 
L 1011.92017 157.444114 
L 1015.622236 156.828621 
L 1019.324303 156.447587 
L 1023.02637 156.284609 
L 1027.064988 156.337435 
L 1031.103606 156.612677 
L 1035.478776 157.141414 
L 1039.853945 157.889415 
L 1044.565667 158.917435 
L 1049.613939 160.249052 
L 1054.998764 161.902111 
L 1060.720139 163.887751 
L 1067.114618 166.344255 
L 1074.1822 169.296873 
L 1082.595988 173.057416 
L 1094.038739 178.437571 
L 1117.597345 189.572833 
L 1126.347685 193.420472 
L 1133.751818 196.433255 
L 1140.146297 198.802695 
L 1146.204224 200.806423 
L 1151.589048 202.357905 
L 1156.637321 203.588689 
L 1161.349042 204.51864 
L 1166.060764 205.214279 
L 1170.435933 205.629352 
L 1174.474552 205.796814 
L 1178.51317 205.739279 
L 1182.215236 205.472884 
L 1185.917303 204.986156 
L 1189.61937 204.262412 
L 1192.984885 203.383683 
L 1196.3504 202.279669 
L 1199.715915 200.934693 
L 1203.08143 199.331824 
L 1206.110394 197.653626 
L 1209.139358 195.73726 
L 1212.168321 193.567131 
L 1215.197285 191.126366 
L 1218.226248 188.396663 
L 1221.255212 185.358123 
L 1224.284176 181.989053 
L 1227.313139 178.265742 
L 1230.342103 174.162201 
L 1233.371067 169.649859 
L 1236.40003 164.697212 
L 1239.428994 159.269408 
L 1242.457958 153.369842 
L 1245.15037 147.6688 
L 1247.842782 141.487626 
L 1250.535194 134.787461 
L 1253.227606 127.52501 
L 1255.920018 119.65185 
L 1258.61243 111.113592 
L 1259.285533 108.868082 
L 1259.622085 109.92059 
L 1268.372424 181.394498 
L 1268.372424 181.394498 
" style="fill:none;stroke:#ef9f07;stroke-linecap:square;stroke-width:1.5;"/>
   </g>
   <g id="line2d_72">
    <path clip-path="url(#pb082bab272)" d="M 931.820909 181.394498 
L 938.888491 239.123424 
L 939.225042 240.8518 
L 942.590558 233.708424 
L 945.956073 227.108233 
L 949.321588 221.013382 
L 952.687103 215.389562 
L 956.052618 210.205553 
L 959.418133 205.432842 
L 962.783648 201.045305 
L 966.149164 197.018933 
L 969.514679 193.331592 
L 972.880194 189.962824 
L 976.245709 186.893667 
L 979.611224 184.106502 
L 982.976739 181.584919 
L 986.678806 179.099673 
L 990.380873 176.898248 
L 994.082939 174.962924 
L 997.785006 173.277149 
L 1001.487073 171.825422 
L 1005.525691 170.491582 
L 1009.564309 169.401265 
L 1013.602927 168.537853 
L 1017.978097 167.840447 
L 1022.353267 167.372331 
L 1027.064988 167.104494 
L 1031.776709 167.061541 
L 1036.824982 167.242966 
L 1042.209806 167.670958 
L 1047.931182 168.362584 
L 1053.989109 169.329006 
L 1060.383588 170.574701 
L 1067.45117 172.17769 
L 1075.528406 174.242012 
L 1085.2884 176.975425 
L 1100.433218 181.483804 
L 1117.260794 186.434993 
L 1126.684236 188.981478 
L 1134.761473 190.937873 
L 1141.829055 192.423248 
L 1148.223533 193.544156 
L 1154.281461 194.376329 
L 1159.666285 194.901218 
L 1165.051109 195.198255 
L 1170.099382 195.246418 
L 1174.811103 195.06941 
L 1179.186273 194.695137 
L 1183.561442 194.101043 
L 1187.600061 193.341582 
L 1191.638679 192.363517 
L 1195.677297 191.15017 
L 1199.379364 189.815966 
L 1203.08143 188.254195 
L 1206.783497 186.448948 
L 1210.485564 184.383109 
L 1213.851079 182.263436 
L 1217.216594 179.898226 
L 1220.582109 177.271418 
L 1223.947624 174.3657 
L 1227.313139 171.162379 
L 1230.678655 167.641224 
L 1234.04417 163.780294 
L 1237.409685 159.555737 
L 1240.7752 154.941565 
L 1244.140715 149.909393 
L 1247.169679 144.99742 
L 1250.198642 139.696976 
L 1253.227606 133.981072 
L 1256.25657 127.820214 
L 1259.285533 121.182087 
L 1260.631739 118.16758 
L 1268.372424 181.394498 
L 1268.372424 181.394498 
" style="fill:none;stroke:#449775;stroke-linecap:square;stroke-width:1.5;"/>
   </g>
   <g id="patch_15">
    <path d="M 914.993333 296.44 
L 914.993333 63.6 
" style="fill:none;stroke:#000000;stroke-linecap:square;stroke-linejoin:miter;stroke-width:0.8;"/>
   </g>
   <g id="patch_16">
    <path d="M 1285.2 296.44 
L 1285.2 63.6 
" style="fill:none;stroke:#000000;stroke-linecap:square;stroke-linejoin:miter;stroke-width:0.8;"/>
   </g>
   <g id="patch_17">
    <path d="M 914.993333 296.44 
L 1285.2 296.44 
" style="fill:none;stroke:#000000;stroke-linecap:square;stroke-linejoin:miter;stroke-width:0.8;"/>
   </g>
   <g id="patch_18">
    <path d="M 914.993333 63.6 
L 1285.2 63.6 
" style="fill:none;stroke:#000000;stroke-linecap:square;stroke-linejoin:miter;stroke-width:0.8;"/>
   </g>
   <g id="text_56">
    <!-- $\gamma$ = 0.1, $\beta$ = 0.1 -->
    <g transform="translate(1036.096667 57.6)scale(0.16 -0.16)">
     <use transform="translate(0 0.390625)" xlink:href="#DejaVuSans-Oblique-947"/>
     <use transform="translate(59.179688 0.390625)" xlink:href="#DejaVuSans-32"/>
     <use transform="translate(90.966797 0.390625)" xlink:href="#DejaVuSans-61"/>
     <use transform="translate(174.755859 0.390625)" xlink:href="#DejaVuSans-32"/>
     <use transform="translate(206.542969 0.390625)" xlink:href="#DejaVuSans-48"/>
     <use transform="translate(270.166016 0.390625)" xlink:href="#DejaVuSans-46"/>
     <use transform="translate(301.953125 0.390625)" xlink:href="#DejaVuSans-49"/>
     <use transform="translate(365.576172 0.390625)" xlink:href="#DejaVuSans-44"/>
     <use transform="translate(397.363281 0.390625)" xlink:href="#DejaVuSans-32"/>
     <use transform="translate(429.150391 0.390625)" xlink:href="#DejaVuSans-Oblique-946"/>
     <use transform="translate(492.96875 0.390625)" xlink:href="#DejaVuSans-32"/>
     <use transform="translate(524.755859 0.390625)" xlink:href="#DejaVuSans-61"/>
     <use transform="translate(608.544922 0.390625)" xlink:href="#DejaVuSans-32"/>
     <use transform="translate(640.332031 0.390625)" xlink:href="#DejaVuSans-48"/>
     <use transform="translate(703.955078 0.390625)" xlink:href="#DejaVuSans-46"/>
     <use transform="translate(735.742188 0.390625)" xlink:href="#DejaVuSans-49"/>
    </g>
   </g>
   <g id="legend_3">
    <g id="patch_19">
     <path d="M 921.993333 130.3125 
L 991.493333 130.3125 
Q 993.493333 130.3125 993.493333 128.3125 
L 993.493333 70.6 
Q 993.493333 68.6 991.493333 68.6 
L 921.993333 68.6 
Q 919.993333 68.6 919.993333 70.6 
L 919.993333 128.3125 
Q 919.993333 130.3125 921.993333 130.3125 
z
" style="fill:#ffffff;opacity:0.8;stroke:#cccccc;stroke-linejoin:miter;"/>
    </g>
    <g id="line2d_73">
     <path d="M 923.993333 76.698438 
L 943.993333 76.698438 
" style="fill:none;stroke:#aa3863;stroke-linecap:square;stroke-width:1.5;"/>
    </g>
    <g id="line2d_74"/>
    <g id="text_57">
     <!-- $I = 1.15$ -->
     <g transform="translate(951.993333 80.198438)scale(0.1 -0.1)">
      <use transform="translate(0 0.09375)" xlink:href="#DejaVuSans-Oblique-73"/>
      <use transform="translate(48.974609 0.09375)" xlink:href="#DejaVuSans-61"/>
      <use transform="translate(152.246094 0.09375)" xlink:href="#DejaVuSans-49"/>
      <use transform="translate(215.869141 0.09375)" xlink:href="#DejaVuSans-46"/>
      <use transform="translate(247.65625 0.09375)" xlink:href="#DejaVuSans-49"/>
      <use transform="translate(311.279297 0.09375)" xlink:href="#DejaVuSans-53"/>
     </g>
    </g>
    <g id="line2d_75">
     <path d="M 923.993333 91.376563 
L 943.993333 91.376563 
" style="fill:none;stroke:#d97020;stroke-linecap:square;stroke-width:1.5;"/>
    </g>
    <g id="line2d_76"/>
    <g id="text_58">
     <!-- $I = 1.2$ -->
     <g transform="translate(951.993333 94.876563)scale(0.1 -0.1)">
      <use transform="translate(0 0.78125)" xlink:href="#DejaVuSans-Oblique-73"/>
      <use transform="translate(48.974609 0.78125)" xlink:href="#DejaVuSans-61"/>
      <use transform="translate(152.246094 0.78125)" xlink:href="#DejaVuSans-49"/>
      <use transform="translate(215.869141 0.78125)" xlink:href="#DejaVuSans-46"/>
      <use transform="translate(242.15625 0.78125)" xlink:href="#DejaVuSans-50"/>
     </g>
    </g>
    <g id="line2d_77">
     <path d="M 923.993333 106.054688 
L 943.993333 106.054688 
" style="fill:none;stroke:#ef9f07;stroke-linecap:square;stroke-width:1.5;"/>
    </g>
    <g id="line2d_78"/>
    <g id="text_59">
     <!-- $I = 1.25$ -->
     <g transform="translate(951.993333 109.554688)scale(0.1 -0.1)">
      <use transform="translate(0 0.78125)" xlink:href="#DejaVuSans-Oblique-73"/>
      <use transform="translate(48.974609 0.78125)" xlink:href="#DejaVuSans-61"/>
      <use transform="translate(152.246094 0.78125)" xlink:href="#DejaVuSans-49"/>
      <use transform="translate(215.869141 0.78125)" xlink:href="#DejaVuSans-46"/>
      <use transform="translate(242.15625 0.78125)" xlink:href="#DejaVuSans-50"/>
      <use transform="translate(305.779297 0.78125)" xlink:href="#DejaVuSans-53"/>
     </g>
    </g>
    <g id="line2d_79">
     <path d="M 923.993333 120.732813 
L 943.993333 120.732813 
" style="fill:none;stroke:#449775;stroke-linecap:square;stroke-width:1.5;"/>
    </g>
    <g id="line2d_80"/>
    <g id="text_60">
     <!-- $I = 1.3$ -->
     <g transform="translate(951.993333 124.232813)scale(0.1 -0.1)">
      <use transform="translate(0 0.78125)" xlink:href="#DejaVuSans-Oblique-73"/>
      <use transform="translate(48.974609 0.78125)" xlink:href="#DejaVuSans-61"/>
      <use transform="translate(152.246094 0.78125)" xlink:href="#DejaVuSans-49"/>
      <use transform="translate(215.869141 0.78125)" xlink:href="#DejaVuSans-46"/>
      <use transform="translate(247.65625 0.78125)" xlink:href="#DejaVuSans-51"/>
     </g>
    </g>
   </g>
  </g>
  <g id="text_61">
   <!-- H-function for different values of $\beta$, $\gamma$ and $I$ -->
   <g transform="translate(434.5 22.312)scale(0.2 -0.2)">
    <defs>
     <path d="M 9.8125 72.90625 
L 19.671875 72.90625 
L 19.671875 43.015625 
L 55.515625 43.015625 
L 55.515625 72.90625 
L 65.375 72.90625 
L 65.375 0 
L 55.515625 0 
L 55.515625 34.71875 
L 19.671875 34.71875 
L 19.671875 0 
L 9.8125 0 
z
" id="DejaVuSans-72"/>
     <path d="M 4.890625 31.390625 
L 31.203125 31.390625 
L 31.203125 23.390625 
L 4.890625 23.390625 
z
" id="DejaVuSans-45"/>
     <path d="M 37.109375 75.984375 
L 37.109375 68.5 
L 28.515625 68.5 
Q 23.6875 68.5 21.796875 66.546875 
Q 19.921875 64.59375 19.921875 59.515625 
L 19.921875 54.6875 
L 34.71875 54.6875 
L 34.71875 47.703125 
L 19.921875 47.703125 
L 19.921875 0 
L 10.890625 0 
L 10.890625 47.703125 
L 2.296875 47.703125 
L 2.296875 54.6875 
L 10.890625 54.6875 
L 10.890625 58.5 
Q 10.890625 67.625 15.140625 71.796875 
Q 19.390625 75.984375 28.609375 75.984375 
z
" id="DejaVuSans-102"/>
     <path d="M 8.5 21.578125 
L 8.5 54.6875 
L 17.484375 54.6875 
L 17.484375 21.921875 
Q 17.484375 14.15625 20.5 10.265625 
Q 23.53125 6.390625 29.59375 6.390625 
Q 36.859375 6.390625 41.078125 11.03125 
Q 45.3125 15.671875 45.3125 23.6875 
L 45.3125 54.6875 
L 54.296875 54.6875 
L 54.296875 0 
L 45.3125 0 
L 45.3125 8.40625 
Q 42.046875 3.421875 37.71875 1 
Q 33.40625 -1.421875 27.6875 -1.421875 
Q 18.265625 -1.421875 13.375 4.4375 
Q 8.5 10.296875 8.5 21.578125 
z
M 31.109375 56 
z
" id="DejaVuSans-117"/>
     <path d="M 54.890625 33.015625 
L 54.890625 0 
L 45.90625 0 
L 45.90625 32.71875 
Q 45.90625 40.484375 42.875 44.328125 
Q 39.84375 48.1875 33.796875 48.1875 
Q 26.515625 48.1875 22.3125 43.546875 
Q 18.109375 38.921875 18.109375 30.90625 
L 18.109375 0 
L 9.078125 0 
L 9.078125 54.6875 
L 18.109375 54.6875 
L 18.109375 46.1875 
Q 21.34375 51.125 25.703125 53.5625 
Q 30.078125 56 35.796875 56 
Q 45.21875 56 50.046875 50.171875 
Q 54.890625 44.34375 54.890625 33.015625 
z
" id="DejaVuSans-110"/>
     <path d="M 48.78125 52.59375 
L 48.78125 44.1875 
Q 44.96875 46.296875 41.140625 47.34375 
Q 37.3125 48.390625 33.40625 48.390625 
Q 24.65625 48.390625 19.8125 42.84375 
Q 14.984375 37.3125 14.984375 27.296875 
Q 14.984375 17.28125 19.8125 11.734375 
Q 24.65625 6.203125 33.40625 6.203125 
Q 37.3125 6.203125 41.140625 7.25 
Q 44.96875 8.296875 48.78125 10.40625 
L 48.78125 2.09375 
Q 45.015625 0.34375 40.984375 -0.53125 
Q 36.96875 -1.421875 32.421875 -1.421875 
Q 20.0625 -1.421875 12.78125 6.34375 
Q 5.515625 14.109375 5.515625 27.296875 
Q 5.515625 40.671875 12.859375 48.328125 
Q 20.21875 56 33.015625 56 
Q 37.15625 56 41.109375 55.140625 
Q 45.0625 54.296875 48.78125 52.59375 
z
" id="DejaVuSans-99"/>
     <path d="M 18.3125 70.21875 
L 18.3125 54.6875 
L 36.8125 54.6875 
L 36.8125 47.703125 
L 18.3125 47.703125 
L 18.3125 18.015625 
Q 18.3125 11.328125 20.140625 9.421875 
Q 21.96875 7.515625 27.59375 7.515625 
L 36.8125 7.515625 
L 36.8125 0 
L 27.59375 0 
Q 17.1875 0 13.234375 3.875 
Q 9.28125 7.765625 9.28125 18.015625 
L 9.28125 47.703125 
L 2.6875 47.703125 
L 2.6875 54.6875 
L 9.28125 54.6875 
L 9.28125 70.21875 
z
" id="DejaVuSans-116"/>
     <path d="M 9.421875 54.6875 
L 18.40625 54.6875 
L 18.40625 0 
L 9.421875 0 
z
M 9.421875 75.984375 
L 18.40625 75.984375 
L 18.40625 64.59375 
L 9.421875 64.59375 
z
" id="DejaVuSans-105"/>
     <path d="M 30.609375 48.390625 
Q 23.390625 48.390625 19.1875 42.75 
Q 14.984375 37.109375 14.984375 27.296875 
Q 14.984375 17.484375 19.15625 11.84375 
Q 23.34375 6.203125 30.609375 6.203125 
Q 37.796875 6.203125 41.984375 11.859375 
Q 46.1875 17.53125 46.1875 27.296875 
Q 46.1875 37.015625 41.984375 42.703125 
Q 37.796875 48.390625 30.609375 48.390625 
z
M 30.609375 56 
Q 42.328125 56 49.015625 48.375 
Q 55.71875 40.765625 55.71875 27.296875 
Q 55.71875 13.875 49.015625 6.21875 
Q 42.328125 -1.421875 30.609375 -1.421875 
Q 18.84375 -1.421875 12.171875 6.21875 
Q 5.515625 13.875 5.515625 27.296875 
Q 5.515625 40.765625 12.171875 48.375 
Q 18.84375 56 30.609375 56 
z
" id="DejaVuSans-111"/>
     <path d="M 41.109375 46.296875 
Q 39.59375 47.171875 37.8125 47.578125 
Q 36.03125 48 33.890625 48 
Q 26.265625 48 22.1875 43.046875 
Q 18.109375 38.09375 18.109375 28.8125 
L 18.109375 0 
L 9.078125 0 
L 9.078125 54.6875 
L 18.109375 54.6875 
L 18.109375 46.1875 
Q 20.953125 51.171875 25.484375 53.578125 
Q 30.03125 56 36.53125 56 
Q 37.453125 56 38.578125 55.875 
Q 39.703125 55.765625 41.0625 55.515625 
z
" id="DejaVuSans-114"/>
     <path d="M 45.40625 46.390625 
L 45.40625 75.984375 
L 54.390625 75.984375 
L 54.390625 0 
L 45.40625 0 
L 45.40625 8.203125 
Q 42.578125 3.328125 38.25 0.953125 
Q 33.9375 -1.421875 27.875 -1.421875 
Q 17.96875 -1.421875 11.734375 6.484375 
Q 5.515625 14.40625 5.515625 27.296875 
Q 5.515625 40.1875 11.734375 48.09375 
Q 17.96875 56 27.875 56 
Q 33.9375 56 38.25 53.625 
Q 42.578125 51.265625 45.40625 46.390625 
z
M 14.796875 27.296875 
Q 14.796875 17.390625 18.875 11.75 
Q 22.953125 6.109375 30.078125 6.109375 
Q 37.203125 6.109375 41.296875 11.75 
Q 45.40625 17.390625 45.40625 27.296875 
Q 45.40625 37.203125 41.296875 42.84375 
Q 37.203125 48.484375 30.078125 48.484375 
Q 22.953125 48.484375 18.875 42.84375 
Q 14.796875 37.203125 14.796875 27.296875 
z
" id="DejaVuSans-100"/>
     <path d="M 56.203125 29.59375 
L 56.203125 25.203125 
L 14.890625 25.203125 
Q 15.484375 15.921875 20.484375 11.0625 
Q 25.484375 6.203125 34.421875 6.203125 
Q 39.59375 6.203125 44.453125 7.46875 
Q 49.3125 8.734375 54.109375 11.28125 
L 54.109375 2.78125 
Q 49.265625 0.734375 44.1875 -0.34375 
Q 39.109375 -1.421875 33.890625 -1.421875 
Q 20.796875 -1.421875 13.15625 6.1875 
Q 5.515625 13.8125 5.515625 26.8125 
Q 5.515625 40.234375 12.765625 48.109375 
Q 20.015625 56 32.328125 56 
Q 43.359375 56 49.78125 48.890625 
Q 56.203125 41.796875 56.203125 29.59375 
z
M 47.21875 32.234375 
Q 47.125 39.59375 43.09375 43.984375 
Q 39.0625 48.390625 32.421875 48.390625 
Q 24.90625 48.390625 20.390625 44.140625 
Q 15.875 39.890625 15.1875 32.171875 
z
" id="DejaVuSans-101"/>
     <path d="M 2.984375 54.6875 
L 12.5 54.6875 
L 29.59375 8.796875 
L 46.6875 54.6875 
L 56.203125 54.6875 
L 35.6875 0 
L 23.484375 0 
z
" id="DejaVuSans-118"/>
     <path d="M 34.28125 27.484375 
Q 23.390625 27.484375 19.1875 25 
Q 14.984375 22.515625 14.984375 16.5 
Q 14.984375 11.71875 18.140625 8.90625 
Q 21.296875 6.109375 26.703125 6.109375 
Q 34.1875 6.109375 38.703125 11.40625 
Q 43.21875 16.703125 43.21875 25.484375 
L 43.21875 27.484375 
z
M 52.203125 31.203125 
L 52.203125 0 
L 43.21875 0 
L 43.21875 8.296875 
Q 40.140625 3.328125 35.546875 0.953125 
Q 30.953125 -1.421875 24.3125 -1.421875 
Q 15.921875 -1.421875 10.953125 3.296875 
Q 6 8.015625 6 15.921875 
Q 6 25.140625 12.171875 29.828125 
Q 18.359375 34.515625 30.609375 34.515625 
L 43.21875 34.515625 
L 43.21875 35.40625 
Q 43.21875 41.609375 39.140625 45 
Q 35.0625 48.390625 27.6875 48.390625 
Q 23 48.390625 18.546875 47.265625 
Q 14.109375 46.140625 10.015625 43.890625 
L 10.015625 52.203125 
Q 14.9375 54.109375 19.578125 55.046875 
Q 24.21875 56 28.609375 56 
Q 40.484375 56 46.34375 49.84375 
Q 52.203125 43.703125 52.203125 31.203125 
z
" id="DejaVuSans-97"/>
     <path d="M 9.421875 75.984375 
L 18.40625 75.984375 
L 18.40625 0 
L 9.421875 0 
z
" id="DejaVuSans-108"/>
     <path d="M 44.28125 53.078125 
L 44.28125 44.578125 
Q 40.484375 46.53125 36.375 47.5 
Q 32.28125 48.484375 27.875 48.484375 
Q 21.1875 48.484375 17.84375 46.4375 
Q 14.5 44.390625 14.5 40.28125 
Q 14.5 37.15625 16.890625 35.375 
Q 19.28125 33.59375 26.515625 31.984375 
L 29.59375 31.296875 
Q 39.15625 29.25 43.1875 25.515625 
Q 47.21875 21.78125 47.21875 15.09375 
Q 47.21875 7.46875 41.1875 3.015625 
Q 35.15625 -1.421875 24.609375 -1.421875 
Q 20.21875 -1.421875 15.453125 -0.5625 
Q 10.6875 0.296875 5.421875 2 
L 5.421875 11.28125 
Q 10.40625 8.6875 15.234375 7.390625 
Q 20.0625 6.109375 24.8125 6.109375 
Q 31.15625 6.109375 34.5625 8.28125 
Q 37.984375 10.453125 37.984375 14.40625 
Q 37.984375 18.0625 35.515625 20.015625 
Q 33.0625 21.96875 24.703125 23.78125 
L 21.578125 24.515625 
Q 13.234375 26.265625 9.515625 29.90625 
Q 5.8125 33.546875 5.8125 39.890625 
Q 5.8125 47.609375 11.28125 51.796875 
Q 16.75 56 26.8125 56 
Q 31.78125 56 36.171875 55.265625 
Q 40.578125 54.546875 44.28125 53.078125 
z
" id="DejaVuSans-115"/>
    </defs>
    <use transform="translate(0 0.390625)" xlink:href="#DejaVuSans-72"/>
    <use transform="translate(75.195312 0.390625)" xlink:href="#DejaVuSans-45"/>
    <use transform="translate(111.279297 0.390625)" xlink:href="#DejaVuSans-102"/>
    <use transform="translate(146.484375 0.390625)" xlink:href="#DejaVuSans-117"/>
    <use transform="translate(209.863281 0.390625)" xlink:href="#DejaVuSans-110"/>
    <use transform="translate(273.242188 0.390625)" xlink:href="#DejaVuSans-99"/>
    <use transform="translate(328.222656 0.390625)" xlink:href="#DejaVuSans-116"/>
    <use transform="translate(367.431641 0.390625)" xlink:href="#DejaVuSans-105"/>
    <use transform="translate(395.214844 0.390625)" xlink:href="#DejaVuSans-111"/>
    <use transform="translate(456.396484 0.390625)" xlink:href="#DejaVuSans-110"/>
    <use transform="translate(519.775391 0.390625)" xlink:href="#DejaVuSans-32"/>
    <use transform="translate(551.5625 0.390625)" xlink:href="#DejaVuSans-102"/>
    <use transform="translate(586.767578 0.390625)" xlink:href="#DejaVuSans-111"/>
    <use transform="translate(647.949219 0.390625)" xlink:href="#DejaVuSans-114"/>
    <use transform="translate(689.0625 0.390625)" xlink:href="#DejaVuSans-32"/>
    <use transform="translate(720.849609 0.390625)" xlink:href="#DejaVuSans-100"/>
    <use transform="translate(784.326172 0.390625)" xlink:href="#DejaVuSans-105"/>
    <use transform="translate(812.109375 0.390625)" xlink:href="#DejaVuSans-102"/>
    <use transform="translate(847.314453 0.390625)" xlink:href="#DejaVuSans-102"/>
    <use transform="translate(882.519531 0.390625)" xlink:href="#DejaVuSans-101"/>
    <use transform="translate(944.042969 0.390625)" xlink:href="#DejaVuSans-114"/>
    <use transform="translate(985.15625 0.390625)" xlink:href="#DejaVuSans-101"/>
    <use transform="translate(1046.679688 0.390625)" xlink:href="#DejaVuSans-110"/>
    <use transform="translate(1110.058594 0.390625)" xlink:href="#DejaVuSans-116"/>
    <use transform="translate(1149.267578 0.390625)" xlink:href="#DejaVuSans-32"/>
    <use transform="translate(1181.054688 0.390625)" xlink:href="#DejaVuSans-118"/>
    <use transform="translate(1240.234375 0.390625)" xlink:href="#DejaVuSans-97"/>
    <use transform="translate(1301.513672 0.390625)" xlink:href="#DejaVuSans-108"/>
    <use transform="translate(1329.296875 0.390625)" xlink:href="#DejaVuSans-117"/>
    <use transform="translate(1392.675781 0.390625)" xlink:href="#DejaVuSans-101"/>
    <use transform="translate(1454.199219 0.390625)" xlink:href="#DejaVuSans-115"/>
    <use transform="translate(1506.298828 0.390625)" xlink:href="#DejaVuSans-32"/>
    <use transform="translate(1538.085938 0.390625)" xlink:href="#DejaVuSans-111"/>
    <use transform="translate(1599.267578 0.390625)" xlink:href="#DejaVuSans-102"/>
    <use transform="translate(1634.472656 0.390625)" xlink:href="#DejaVuSans-32"/>
    <use transform="translate(1666.259766 0.390625)" xlink:href="#DejaVuSans-Oblique-946"/>
    <use transform="translate(1730.078125 0.390625)" xlink:href="#DejaVuSans-44"/>
    <use transform="translate(1761.865234 0.390625)" xlink:href="#DejaVuSans-32"/>
    <use transform="translate(1793.652344 0.390625)" xlink:href="#DejaVuSans-Oblique-947"/>
    <use transform="translate(1852.832031 0.390625)" xlink:href="#DejaVuSans-32"/>
    <use transform="translate(1884.619141 0.390625)" xlink:href="#DejaVuSans-97"/>
    <use transform="translate(1945.898438 0.390625)" xlink:href="#DejaVuSans-110"/>
    <use transform="translate(2009.277344 0.390625)" xlink:href="#DejaVuSans-100"/>
    <use transform="translate(2072.753906 0.390625)" xlink:href="#DejaVuSans-32"/>
    <use transform="translate(2104.541016 0.390625)" xlink:href="#DejaVuSans-Oblique-73"/>
   </g>
  </g>
 </g>
 <defs>
  <clipPath id="pac1b89906e">
   <rect height="232.84" width="370.206667" x="71.84" y="63.6"/>
  </clipPath>
  <clipPath id="p98ab72ce3e">
   <rect height="232.84" width="370.206667" x="493.416667" y="63.6"/>
  </clipPath>
  <clipPath id="pb082bab272">
   <rect height="232.84" width="370.206667" x="914.993333" y="63.6"/>
  </clipPath>
 </defs>
</svg>
