<?xml version="1.0" encoding="utf-8" standalone="no"?>
<!DOCTYPE svg PUBLIC "-//W3C//DTD SVG 1.1//EN"
  "http://www.w3.org/Graphics/SVG/1.1/DTD/svg11.dtd">
<!-- Created with matplotlib (https://matplotlib.org/) -->
<svg height="345.6pt" version="1.1" viewBox="0 0 460.8 345.6" width="460.8pt" xmlns="http://www.w3.org/2000/svg" xmlns:xlink="http://www.w3.org/1999/xlink">
 <metadata>
  <rdf:RDF xmlns:cc="http://creativecommons.org/ns#" xmlns:dc="http://purl.org/dc/elements/1.1/" xmlns:rdf="http://www.w3.org/1999/02/22-rdf-syntax-ns#">
   <cc:Work>
    <dc:type rdf:resource="http://purl.org/dc/dcmitype/StillImage"/>
    <dc:date>2021-05-18T02:40:56.291342</dc:date>
    <dc:format>image/svg+xml</dc:format>
    <dc:creator>
     <cc:Agent>
      <dc:title>Matplotlib v3.3.3, https://matplotlib.org/</dc:title>
     </cc:Agent>
    </dc:creator>
   </cc:Work>
  </rdf:RDF>
 </metadata>
 <defs>
  <style type="text/css">*{stroke-linecap:butt;stroke-linejoin:round;}</style>
 </defs>
 <g id="figure_1">
  <g id="patch_1">
   <path d="M 0 345.6 
L 460.8 345.6 
L 460.8 0 
L 0 0 
z
" style="fill:#ffffff;"/>
  </g>
  <g id="axes_1">
   <g id="patch_2">
    <path d="M 62.145313 304.421875 
L 450 304.421875 
L 450 26.04 
L 62.145313 26.04 
z
" style="fill:#ffffff;"/>
   </g>
   <g id="matplotlib.axis_1">
    <g id="xtick_1">
     <g id="line2d_1">
      <defs>
       <path d="M 0 0 
L 0 3.5 
" id="mabe6a96bb1" style="stroke:#000000;stroke-width:0.8;"/>
      </defs>
      <g>
       <use style="stroke:#000000;stroke-width:0.8;" x="79.775071" xlink:href="#mabe6a96bb1" y="304.421875"/>
      </g>
     </g>
     <g id="text_1">
      <!-- 0.0 -->
      <g transform="translate(71.823509 319.020312)scale(0.1 -0.1)">
       <defs>
        <path d="M 31.78125 66.40625 
Q 24.171875 66.40625 20.328125 58.90625 
Q 16.5 51.421875 16.5 36.375 
Q 16.5 21.390625 20.328125 13.890625 
Q 24.171875 6.390625 31.78125 6.390625 
Q 39.453125 6.390625 43.28125 13.890625 
Q 47.125 21.390625 47.125 36.375 
Q 47.125 51.421875 43.28125 58.90625 
Q 39.453125 66.40625 31.78125 66.40625 
z
M 31.78125 74.21875 
Q 44.046875 74.21875 50.515625 64.515625 
Q 56.984375 54.828125 56.984375 36.375 
Q 56.984375 17.96875 50.515625 8.265625 
Q 44.046875 -1.421875 31.78125 -1.421875 
Q 19.53125 -1.421875 13.0625 8.265625 
Q 6.59375 17.96875 6.59375 36.375 
Q 6.59375 54.828125 13.0625 64.515625 
Q 19.53125 74.21875 31.78125 74.21875 
z
" id="DejaVuSans-48"/>
        <path d="M 10.6875 12.40625 
L 21 12.40625 
L 21 0 
L 10.6875 0 
z
" id="DejaVuSans-46"/>
       </defs>
       <use xlink:href="#DejaVuSans-48"/>
       <use x="63.623047" xlink:href="#DejaVuSans-46"/>
       <use x="95.410156" xlink:href="#DejaVuSans-48"/>
      </g>
     </g>
    </g>
    <g id="xtick_2">
     <g id="line2d_2">
      <g>
       <use style="stroke:#000000;stroke-width:0.8;" x="150.294105" xlink:href="#mabe6a96bb1" y="304.421875"/>
      </g>
     </g>
     <g id="text_2">
      <!-- 0.2 -->
      <g transform="translate(142.342543 319.020312)scale(0.1 -0.1)">
       <defs>
        <path d="M 19.1875 8.296875 
L 53.609375 8.296875 
L 53.609375 0 
L 7.328125 0 
L 7.328125 8.296875 
Q 12.9375 14.109375 22.625 23.890625 
Q 32.328125 33.6875 34.8125 36.53125 
Q 39.546875 41.84375 41.421875 45.53125 
Q 43.3125 49.21875 43.3125 52.78125 
Q 43.3125 58.59375 39.234375 62.25 
Q 35.15625 65.921875 28.609375 65.921875 
Q 23.96875 65.921875 18.8125 64.3125 
Q 13.671875 62.703125 7.8125 59.421875 
L 7.8125 69.390625 
Q 13.765625 71.78125 18.9375 73 
Q 24.125 74.21875 28.421875 74.21875 
Q 39.75 74.21875 46.484375 68.546875 
Q 53.21875 62.890625 53.21875 53.421875 
Q 53.21875 48.921875 51.53125 44.890625 
Q 49.859375 40.875 45.40625 35.40625 
Q 44.1875 33.984375 37.640625 27.21875 
Q 31.109375 20.453125 19.1875 8.296875 
z
" id="DejaVuSans-50"/>
       </defs>
       <use xlink:href="#DejaVuSans-48"/>
       <use x="63.623047" xlink:href="#DejaVuSans-46"/>
       <use x="95.410156" xlink:href="#DejaVuSans-50"/>
      </g>
     </g>
    </g>
    <g id="xtick_3">
     <g id="line2d_3">
      <g>
       <use style="stroke:#000000;stroke-width:0.8;" x="220.813139" xlink:href="#mabe6a96bb1" y="304.421875"/>
      </g>
     </g>
     <g id="text_3">
      <!-- 0.4 -->
      <g transform="translate(212.861577 319.020312)scale(0.1 -0.1)">
       <defs>
        <path d="M 37.796875 64.3125 
L 12.890625 25.390625 
L 37.796875 25.390625 
z
M 35.203125 72.90625 
L 47.609375 72.90625 
L 47.609375 25.390625 
L 58.015625 25.390625 
L 58.015625 17.1875 
L 47.609375 17.1875 
L 47.609375 0 
L 37.796875 0 
L 37.796875 17.1875 
L 4.890625 17.1875 
L 4.890625 26.703125 
z
" id="DejaVuSans-52"/>
       </defs>
       <use xlink:href="#DejaVuSans-48"/>
       <use x="63.623047" xlink:href="#DejaVuSans-46"/>
       <use x="95.410156" xlink:href="#DejaVuSans-52"/>
      </g>
     </g>
    </g>
    <g id="xtick_4">
     <g id="line2d_4">
      <g>
       <use style="stroke:#000000;stroke-width:0.8;" x="291.332173" xlink:href="#mabe6a96bb1" y="304.421875"/>
      </g>
     </g>
     <g id="text_4">
      <!-- 0.6 -->
      <g transform="translate(283.380611 319.020312)scale(0.1 -0.1)">
       <defs>
        <path d="M 33.015625 40.375 
Q 26.375 40.375 22.484375 35.828125 
Q 18.609375 31.296875 18.609375 23.390625 
Q 18.609375 15.53125 22.484375 10.953125 
Q 26.375 6.390625 33.015625 6.390625 
Q 39.65625 6.390625 43.53125 10.953125 
Q 47.40625 15.53125 47.40625 23.390625 
Q 47.40625 31.296875 43.53125 35.828125 
Q 39.65625 40.375 33.015625 40.375 
z
M 52.59375 71.296875 
L 52.59375 62.3125 
Q 48.875 64.0625 45.09375 64.984375 
Q 41.3125 65.921875 37.59375 65.921875 
Q 27.828125 65.921875 22.671875 59.328125 
Q 17.53125 52.734375 16.796875 39.40625 
Q 19.671875 43.65625 24.015625 45.921875 
Q 28.375 48.1875 33.59375 48.1875 
Q 44.578125 48.1875 50.953125 41.515625 
Q 57.328125 34.859375 57.328125 23.390625 
Q 57.328125 12.15625 50.6875 5.359375 
Q 44.046875 -1.421875 33.015625 -1.421875 
Q 20.359375 -1.421875 13.671875 8.265625 
Q 6.984375 17.96875 6.984375 36.375 
Q 6.984375 53.65625 15.1875 63.9375 
Q 23.390625 74.21875 37.203125 74.21875 
Q 40.921875 74.21875 44.703125 73.484375 
Q 48.484375 72.75 52.59375 71.296875 
z
" id="DejaVuSans-54"/>
       </defs>
       <use xlink:href="#DejaVuSans-48"/>
       <use x="63.623047" xlink:href="#DejaVuSans-46"/>
       <use x="95.410156" xlink:href="#DejaVuSans-54"/>
      </g>
     </g>
    </g>
    <g id="xtick_5">
     <g id="line2d_5">
      <g>
       <use style="stroke:#000000;stroke-width:0.8;" x="361.851207" xlink:href="#mabe6a96bb1" y="304.421875"/>
      </g>
     </g>
     <g id="text_5">
      <!-- 0.8 -->
      <g transform="translate(353.899645 319.020312)scale(0.1 -0.1)">
       <defs>
        <path d="M 31.78125 34.625 
Q 24.75 34.625 20.71875 30.859375 
Q 16.703125 27.09375 16.703125 20.515625 
Q 16.703125 13.921875 20.71875 10.15625 
Q 24.75 6.390625 31.78125 6.390625 
Q 38.8125 6.390625 42.859375 10.171875 
Q 46.921875 13.96875 46.921875 20.515625 
Q 46.921875 27.09375 42.890625 30.859375 
Q 38.875 34.625 31.78125 34.625 
z
M 21.921875 38.8125 
Q 15.578125 40.375 12.03125 44.71875 
Q 8.5 49.078125 8.5 55.328125 
Q 8.5 64.0625 14.71875 69.140625 
Q 20.953125 74.21875 31.78125 74.21875 
Q 42.671875 74.21875 48.875 69.140625 
Q 55.078125 64.0625 55.078125 55.328125 
Q 55.078125 49.078125 51.53125 44.71875 
Q 48 40.375 41.703125 38.8125 
Q 48.828125 37.15625 52.796875 32.3125 
Q 56.78125 27.484375 56.78125 20.515625 
Q 56.78125 9.90625 50.3125 4.234375 
Q 43.84375 -1.421875 31.78125 -1.421875 
Q 19.734375 -1.421875 13.25 4.234375 
Q 6.78125 9.90625 6.78125 20.515625 
Q 6.78125 27.484375 10.78125 32.3125 
Q 14.796875 37.15625 21.921875 38.8125 
z
M 18.3125 54.390625 
Q 18.3125 48.734375 21.84375 45.5625 
Q 25.390625 42.390625 31.78125 42.390625 
Q 38.140625 42.390625 41.71875 45.5625 
Q 45.3125 48.734375 45.3125 54.390625 
Q 45.3125 60.0625 41.71875 63.234375 
Q 38.140625 66.40625 31.78125 66.40625 
Q 25.390625 66.40625 21.84375 63.234375 
Q 18.3125 60.0625 18.3125 54.390625 
z
" id="DejaVuSans-56"/>
       </defs>
       <use xlink:href="#DejaVuSans-48"/>
       <use x="63.623047" xlink:href="#DejaVuSans-46"/>
       <use x="95.410156" xlink:href="#DejaVuSans-56"/>
      </g>
     </g>
    </g>
    <g id="xtick_6">
     <g id="line2d_6">
      <g>
       <use style="stroke:#000000;stroke-width:0.8;" x="432.370241" xlink:href="#mabe6a96bb1" y="304.421875"/>
      </g>
     </g>
     <g id="text_6">
      <!-- 1.0 -->
      <g transform="translate(424.418679 319.020312)scale(0.1 -0.1)">
       <defs>
        <path d="M 12.40625 8.296875 
L 28.515625 8.296875 
L 28.515625 63.921875 
L 10.984375 60.40625 
L 10.984375 69.390625 
L 28.421875 72.90625 
L 38.28125 72.90625 
L 38.28125 8.296875 
L 54.390625 8.296875 
L 54.390625 0 
L 12.40625 0 
z
" id="DejaVuSans-49"/>
       </defs>
       <use xlink:href="#DejaVuSans-49"/>
       <use x="63.623047" xlink:href="#DejaVuSans-46"/>
       <use x="95.410156" xlink:href="#DejaVuSans-48"/>
      </g>
     </g>
    </g>
    <g id="text_7">
     <!-- $\phi$ -->
     <g transform="translate(252.772656 332.7)scale(0.1 -0.1)">
      <defs>
       <path d="M 46.734375 75.984375 
L 42.78125 55.8125 
Q 52.546875 55.8125 57.5625 48.34375 
Q 62.75 40.71875 60.15625 27.296875 
Q 57.515625 13.875 49.359375 6.25 
Q 41.453125 -1.21875 31.6875 -1.21875 
L 27.875 -20.796875 
L 18.953125 -20.796875 
L 22.75 -1.21875 
Q 13.03125 -1.21875 7.953125 6.25 
Q 2.78125 13.875 5.421875 27.296875 
Q 8.015625 40.71875 16.15625 48.34375 
Q 24.125 55.8125 33.84375 55.8125 
L 37.796875 75.984375 
z
M 33.25 6.78125 
Q 38.765625 6.78125 43.5 11.8125 
Q 48.6875 17.4375 50.6875 27.296875 
Q 52.640625 37.0625 49.515625 42.78125 
Q 46.734375 47.796875 41.21875 47.796875 
z
M 24.3125 6.78125 
L 32.28125 47.796875 
Q 26.8125 47.796875 22.078125 42.78125 
Q 16.75 37.0625 14.890625 27.296875 
Q 13.03125 17.4375 16.0625 11.8125 
Q 18.796875 6.78125 24.3125 6.78125 
z
" id="DejaVuSans-Oblique-981"/>
      </defs>
      <use transform="translate(0 0.015625)" xlink:href="#DejaVuSans-Oblique-981"/>
     </g>
    </g>
   </g>
   <g id="matplotlib.axis_2">
    <g id="ytick_1">
     <g id="line2d_7">
      <defs>
       <path d="M 0 0 
L -3.5 0 
" id="m0d1e6b8a13" style="stroke:#000000;stroke-width:0.8;"/>
      </defs>
      <g>
       <use style="stroke:#000000;stroke-width:0.8;" x="62.145313" xlink:href="#m0d1e6b8a13" y="296.187709"/>
      </g>
     </g>
     <g id="text_8">
      <!-- −0.04 -->
      <g transform="translate(24.5 299.986928)scale(0.1 -0.1)">
       <defs>
        <path d="M 10.59375 35.5 
L 73.1875 35.5 
L 73.1875 27.203125 
L 10.59375 27.203125 
z
" id="DejaVuSans-8722"/>
       </defs>
       <use xlink:href="#DejaVuSans-8722"/>
       <use x="83.789062" xlink:href="#DejaVuSans-48"/>
       <use x="147.412109" xlink:href="#DejaVuSans-46"/>
       <use x="179.199219" xlink:href="#DejaVuSans-48"/>
       <use x="242.822266" xlink:href="#DejaVuSans-52"/>
      </g>
     </g>
    </g>
    <g id="ytick_2">
     <g id="line2d_8">
      <g>
       <use style="stroke:#000000;stroke-width:0.8;" x="62.145313" xlink:href="#m0d1e6b8a13" y="263.593534"/>
      </g>
     </g>
     <g id="text_9">
      <!-- −0.03 -->
      <g transform="translate(24.5 267.392753)scale(0.1 -0.1)">
       <defs>
        <path d="M 40.578125 39.3125 
Q 47.65625 37.796875 51.625 33 
Q 55.609375 28.21875 55.609375 21.1875 
Q 55.609375 10.40625 48.1875 4.484375 
Q 40.765625 -1.421875 27.09375 -1.421875 
Q 22.515625 -1.421875 17.65625 -0.515625 
Q 12.796875 0.390625 7.625 2.203125 
L 7.625 11.71875 
Q 11.71875 9.328125 16.59375 8.109375 
Q 21.484375 6.890625 26.8125 6.890625 
Q 36.078125 6.890625 40.9375 10.546875 
Q 45.796875 14.203125 45.796875 21.1875 
Q 45.796875 27.640625 41.28125 31.265625 
Q 36.765625 34.90625 28.71875 34.90625 
L 20.21875 34.90625 
L 20.21875 43.015625 
L 29.109375 43.015625 
Q 36.375 43.015625 40.234375 45.921875 
Q 44.09375 48.828125 44.09375 54.296875 
Q 44.09375 59.90625 40.109375 62.90625 
Q 36.140625 65.921875 28.71875 65.921875 
Q 24.65625 65.921875 20.015625 65.03125 
Q 15.375 64.15625 9.8125 62.3125 
L 9.8125 71.09375 
Q 15.4375 72.65625 20.34375 73.4375 
Q 25.25 74.21875 29.59375 74.21875 
Q 40.828125 74.21875 47.359375 69.109375 
Q 53.90625 64.015625 53.90625 55.328125 
Q 53.90625 49.265625 50.4375 45.09375 
Q 46.96875 40.921875 40.578125 39.3125 
z
" id="DejaVuSans-51"/>
       </defs>
       <use xlink:href="#DejaVuSans-8722"/>
       <use x="83.789062" xlink:href="#DejaVuSans-48"/>
       <use x="147.412109" xlink:href="#DejaVuSans-46"/>
       <use x="179.199219" xlink:href="#DejaVuSans-48"/>
       <use x="242.822266" xlink:href="#DejaVuSans-51"/>
      </g>
     </g>
    </g>
    <g id="ytick_3">
     <g id="line2d_9">
      <g>
       <use style="stroke:#000000;stroke-width:0.8;" x="62.145313" xlink:href="#m0d1e6b8a13" y="230.999358"/>
      </g>
     </g>
     <g id="text_10">
      <!-- −0.02 -->
      <g transform="translate(24.5 234.798577)scale(0.1 -0.1)">
       <use xlink:href="#DejaVuSans-8722"/>
       <use x="83.789062" xlink:href="#DejaVuSans-48"/>
       <use x="147.412109" xlink:href="#DejaVuSans-46"/>
       <use x="179.199219" xlink:href="#DejaVuSans-48"/>
       <use x="242.822266" xlink:href="#DejaVuSans-50"/>
      </g>
     </g>
    </g>
    <g id="ytick_4">
     <g id="line2d_10">
      <g>
       <use style="stroke:#000000;stroke-width:0.8;" x="62.145313" xlink:href="#m0d1e6b8a13" y="198.405182"/>
      </g>
     </g>
     <g id="text_11">
      <!-- −0.01 -->
      <g transform="translate(24.5 202.204401)scale(0.1 -0.1)">
       <use xlink:href="#DejaVuSans-8722"/>
       <use x="83.789062" xlink:href="#DejaVuSans-48"/>
       <use x="147.412109" xlink:href="#DejaVuSans-46"/>
       <use x="179.199219" xlink:href="#DejaVuSans-48"/>
       <use x="242.822266" xlink:href="#DejaVuSans-49"/>
      </g>
     </g>
    </g>
    <g id="ytick_5">
     <g id="line2d_11">
      <g>
       <use style="stroke:#000000;stroke-width:0.8;" x="62.145313" xlink:href="#m0d1e6b8a13" y="165.811007"/>
      </g>
     </g>
     <g id="text_12">
      <!-- 0.00 -->
      <g transform="translate(32.879688 169.610225)scale(0.1 -0.1)">
       <use xlink:href="#DejaVuSans-48"/>
       <use x="63.623047" xlink:href="#DejaVuSans-46"/>
       <use x="95.410156" xlink:href="#DejaVuSans-48"/>
       <use x="159.033203" xlink:href="#DejaVuSans-48"/>
      </g>
     </g>
    </g>
    <g id="ytick_6">
     <g id="line2d_12">
      <g>
       <use style="stroke:#000000;stroke-width:0.8;" x="62.145313" xlink:href="#m0d1e6b8a13" y="133.216831"/>
      </g>
     </g>
     <g id="text_13">
      <!-- 0.01 -->
      <g transform="translate(32.879688 137.01605)scale(0.1 -0.1)">
       <use xlink:href="#DejaVuSans-48"/>
       <use x="63.623047" xlink:href="#DejaVuSans-46"/>
       <use x="95.410156" xlink:href="#DejaVuSans-48"/>
       <use x="159.033203" xlink:href="#DejaVuSans-49"/>
      </g>
     </g>
    </g>
    <g id="ytick_7">
     <g id="line2d_13">
      <g>
       <use style="stroke:#000000;stroke-width:0.8;" x="62.145313" xlink:href="#m0d1e6b8a13" y="100.622655"/>
      </g>
     </g>
     <g id="text_14">
      <!-- 0.02 -->
      <g transform="translate(32.879688 104.421874)scale(0.1 -0.1)">
       <use xlink:href="#DejaVuSans-48"/>
       <use x="63.623047" xlink:href="#DejaVuSans-46"/>
       <use x="95.410156" xlink:href="#DejaVuSans-48"/>
       <use x="159.033203" xlink:href="#DejaVuSans-50"/>
      </g>
     </g>
    </g>
    <g id="ytick_8">
     <g id="line2d_14">
      <g>
       <use style="stroke:#000000;stroke-width:0.8;" x="62.145313" xlink:href="#m0d1e6b8a13" y="68.02848"/>
      </g>
     </g>
     <g id="text_15">
      <!-- 0.03 -->
      <g transform="translate(32.879688 71.827698)scale(0.1 -0.1)">
       <use xlink:href="#DejaVuSans-48"/>
       <use x="63.623047" xlink:href="#DejaVuSans-46"/>
       <use x="95.410156" xlink:href="#DejaVuSans-48"/>
       <use x="159.033203" xlink:href="#DejaVuSans-51"/>
      </g>
     </g>
    </g>
    <g id="ytick_9">
     <g id="line2d_15">
      <g>
       <use style="stroke:#000000;stroke-width:0.8;" x="62.145313" xlink:href="#m0d1e6b8a13" y="35.434304"/>
      </g>
     </g>
     <g id="text_16">
      <!-- 0.04 -->
      <g transform="translate(32.879688 39.233523)scale(0.1 -0.1)">
       <use xlink:href="#DejaVuSans-48"/>
       <use x="63.623047" xlink:href="#DejaVuSans-46"/>
       <use x="95.410156" xlink:href="#DejaVuSans-48"/>
       <use x="159.033203" xlink:href="#DejaVuSans-52"/>
      </g>
     </g>
    </g>
    <g id="text_17">
     <!-- $\Delta \phi$ -->
     <g transform="translate(18.4 171.980937)rotate(-90)scale(0.1 -0.1)">
      <defs>
       <path d="M 34.1875 63.1875 
L 14.15625 8.203125 
L 54.25 8.203125 
z
M 0.78125 0 
L 28.609375 72.90625 
L 39.796875 72.90625 
L 67.578125 0 
z
" id="DejaVuSans-916"/>
      </defs>
      <use transform="translate(0 0.015625)" xlink:href="#DejaVuSans-916"/>
      <use transform="translate(68.408203 0.015625)" xlink:href="#DejaVuSans-Oblique-981"/>
     </g>
    </g>
   </g>
   <g id="line2d_16">
    <path clip-path="url(#p0c1abe13af)" d="M 79.775071 165.811007 
L 93.173687 289.668874 
L 93.526283 291.768153 
L 95.289259 270.146348 
L 97.052234 251.015544 
L 98.81521 233.936483 
L 100.930781 215.65833 
L 103.046352 199.417282 
L 105.161923 184.930135 
L 107.277494 171.948472 
L 109.393065 160.275426 
L 111.508636 149.751909 
L 113.624207 140.247234 
L 115.739778 131.652524 
L 117.855349 123.875962 
L 119.97092 116.839285 
L 122.086491 110.475159 
L 124.202062 104.725163 
L 126.317634 99.538228 
L 128.433205 94.869412 
L 130.548776 90.67892 
L 132.664347 86.931319 
L 134.779918 83.594898 
L 137.248084 80.156914 
L 139.363655 77.5855 
L 141.479226 75.346219 
L 143.594797 73.418004 
L 145.710368 71.781611 
L 147.825939 70.4194 
L 149.94151 69.315156 
L 152.057081 68.45393 
L 154.172652 67.821899 
L 156.288223 67.406256 
L 158.403794 67.1951 
L 160.87196 67.192459 
L 163.340126 67.436759 
L 165.808293 67.912888 
L 168.276459 68.606826 
L 171.09722 69.627205 
L 173.917982 70.895548 
L 176.738743 72.398943 
L 179.912099 74.351775 
L 183.085456 76.561645 
L 186.611408 79.295279 
L 190.489955 82.612566 
L 194.368501 86.226033 
L 198.599643 90.473487 
L 203.535976 95.774137 
L 208.472308 101.410783 
L 213.761236 107.784889 
L 219.755354 115.365022 
L 226.454662 124.204168 
L 234.564351 135.298617 
L 244.437016 149.185673 
L 276.170581 194.114697 
L 284.28027 205.037482 
L 290.979578 213.704494 
L 296.973696 221.117615 
L 302.615219 227.744783 
L 307.551551 233.222872 
L 312.135288 238.006909 
L 316.719026 242.465808 
L 320.950168 246.262472 
L 324.828714 249.446914 
L 328.354666 252.074284 
L 331.880618 254.425357 
L 335.053974 256.286402 
L 338.227331 257.887318 
L 341.048092 259.076154 
L 343.868854 260.032466 
L 346.689615 260.741352 
L 349.157781 261.141579 
L 351.625947 261.322853 
L 354.094114 261.271044 
L 356.56228 260.970736 
L 358.677851 260.502797 
L 360.793422 259.828335 
L 362.908993 258.934766 
L 365.024564 257.812837 
L 367.140135 256.451211 
L 369.255706 254.826152 
L 371.371277 252.919643 
L 373.486848 250.711827 
L 375.602419 248.180741 
L 377.71799 245.302009 
L 379.833561 242.063583 
L 381.949132 238.422167 
L 384.064703 234.342065 
L 386.180274 229.784697 
L 388.295845 224.706272 
L 390.411416 219.074017 
L 392.526987 212.816425 
L 394.642558 205.864444 
L 396.758129 198.140627 
L 398.8737 189.56737 
L 400.989271 180.031968 
L 403.104842 169.396182 
L 405.220413 157.50233 
L 407.335984 144.175889 
L 409.451555 129.156344 
L 411.214531 115.121414 
L 412.977507 99.465117 
L 414.740483 81.906656 
L 416.503459 62.041797 
L 418.266435 39.347356 
L 418.61903 38.693722 
L 432.370241 165.811007 
L 432.370241 165.811007 
" style="fill:none;stroke:#aa3863;stroke-linecap:square;stroke-width:1.5;"/>
   </g>
   <g id="line2d_17">
    <path clip-path="url(#p0c1abe13af)" d="M 79.775071 165.811007 
L 90.705521 266.852951 
L 94.936663 243.547304 
L 97.40483 231.445575 
L 99.872996 220.347417 
L 102.341162 210.157228 
L 104.809328 200.792652 
L 107.630089 191.009924 
L 110.450851 182.11984 
L 113.271612 174.042242 
L 116.092374 166.707203 
L 118.913135 160.053297 
L 121.733896 154.003505 
L 124.554658 148.515309 
L 127.375419 143.565924 
L 130.19618 139.116336 
L 133.016942 135.131354 
L 135.837703 131.5791 
L 138.305869 128.802996 
L 140.774036 126.31815 
L 143.242202 124.108068 
L 146.062963 121.899127 
L 148.883724 120.007964 
L 151.704486 118.415061 
L 154.525247 117.102343 
L 157.346009 116.053036 
L 160.16677 115.25153 
L 162.987531 114.683261 
L 165.808293 114.334613 
L 168.629054 114.192826 
L 171.802411 114.255046 
L 174.975767 114.538433 
L 178.149124 115.03975 
L 181.675075 115.835152 
L 185.201027 116.863882 
L 189.079574 118.244605 
L 192.958121 119.865656 
L 197.189263 121.884703 
L 201.773 124.339713 
L 206.356737 127.04491 
L 211.29307 130.206805 
L 216.934592 134.09612 
L 222.92871 138.501687 
L 229.628018 143.689574 
L 237.737707 150.270791 
L 248.315562 159.174656 
L 274.407605 181.271329 
L 282.517294 187.778086 
L 289.569197 193.152478 
L 295.563315 197.456126 
L 301.204838 201.239978 
L 306.493766 204.514932 
L 311.430098 207.301019 
L 316.013835 209.626058 
L 320.244977 211.524375 
L 324.123524 213.035528 
L 328.002071 214.30835 
L 331.528023 215.241728 
L 335.053974 215.945262 
L 338.227331 216.367522 
L 341.400687 216.575808 
L 344.574044 216.555438 
L 347.394805 216.332618 
L 350.215567 215.904711 
L 353.036328 215.258892 
L 355.857089 214.383207 
L 358.677851 213.269509 
L 361.498612 211.893816 
L 364.319374 210.2386 
L 366.78754 208.546035 
L 369.255706 206.611018 
L 371.723872 204.418549 
L 374.192038 201.952363 
L 376.660205 199.194781 
L 379.128371 196.130536 
L 381.596537 192.744531 
L 384.064703 189.004015 
L 386.532869 184.883566 
L 389.001036 180.355164 
L 391.469202 175.387824 
L 393.937368 169.947168 
L 396.405534 164.006244 
L 398.8737 157.515034 
L 401.341866 150.420798 
L 403.810033 142.669069 
L 406.278199 134.198076 
L 408.746365 124.943578 
L 411.214531 114.826555 
L 413.682697 103.743956 
L 416.150864 91.586655 
L 418.61903 78.226556 
L 421.087196 63.52084 
L 421.439791 64.769062 
L 432.370241 165.811007 
L 432.370241 165.811007 
" style="fill:none;stroke:#d97020;stroke-linecap:square;stroke-width:1.5;"/>
   </g>
   <g id="line2d_18">
    <path clip-path="url(#p0c1abe13af)" d="M 79.775071 165.811007 
L 88.942545 250.555863 
L 89.295141 249.608325 
L 92.115902 239.746081 
L 94.936663 230.602286 
L 98.11002 221.107035 
L 101.283376 212.38416 
L 104.456733 204.372999 
L 107.630089 197.019511 
L 110.803446 190.275311 
L 113.976803 184.096871 
L 117.150159 178.444865 
L 120.323516 173.283618 
L 123.496872 168.580647 
L 126.670229 164.306268 
L 129.843585 160.433267 
L 133.016942 156.936618 
L 136.190298 153.793237 
L 139.363655 150.981771 
L 142.537011 148.4712 
L 145.710368 146.240177 
L 148.883724 144.288081 
L 152.057081 142.598765 
L 155.230437 141.157111 
L 158.403794 139.948933 
L 161.577151 138.960895 
L 165.103102 138.106005 
L 168.629054 137.491175 
L 172.155006 137.101152 
L 175.680957 136.921564 
L 179.559504 136.950887 
L 183.438051 137.201364 
L 187.669193 137.707934 
L 191.900335 138.438804 
L 196.484072 139.462092 
L 201.420405 140.808348 
L 206.356737 142.382112 
L 211.645665 144.292337 
L 217.639783 146.698214 
L 223.986496 149.4805 
L 231.390994 152.983334 
L 239.853278 157.240311 
L 251.488919 163.360785 
L 273.34982 174.8954 
L 282.164699 179.265132 
L 289.569197 182.690851 
L 295.915911 185.395265 
L 301.910028 187.710991 
L 307.551551 189.643326 
L 312.487884 191.109991 
L 317.424216 192.342022 
L 322.007953 193.253424 
L 326.239095 193.876433 
L 330.470237 194.271017 
L 334.348784 194.415346 
L 338.227331 194.335198 
L 341.753283 194.053111 
L 345.279234 193.557552 
L 348.805186 192.838784 
L 352.331138 191.880459 
L 355.504494 190.796195 
L 358.677851 189.488144 
L 361.851207 187.942144 
L 365.024564 186.142994 
L 368.19792 184.074343 
L 371.371277 181.718561 
L 374.544634 179.056596 
L 377.71799 176.067811 
L 380.538751 173.118673 
L 383.712108 169.46142 
L 386.532869 165.879842 
L 389.353631 161.964166 
L 392.174392 157.692361 
L 394.995153 153.04045 
L 397.815915 147.982273 
L 400.636676 142.489216 
L 403.457437 136.532341 
L 406.278199 130.084073 
L 409.09896 123.095613 
L 411.919722 115.524472 
L 414.740483 107.323451 
L 417.561244 98.439918 
L 420.382006 88.815951 
L 422.850172 79.739707 
L 423.202767 81.06615 
L 432.370241 165.811007 
L 432.370241 165.811007 
" style="fill:none;stroke:#ef9f07;stroke-linecap:square;stroke-width:1.5;"/>
   </g>
   <g id="line2d_19">
    <path clip-path="url(#p0c1abe13af)" d="M 79.775071 165.811007 
L 87.532165 237.518193 
L 87.88476 239.30207 
L 91.058116 231.507151 
L 94.231473 224.244882 
L 97.40483 217.481558 
L 100.578186 211.186357 
L 104.104138 204.706407 
L 107.630089 198.733994 
L 111.156041 193.236609 
L 114.681993 188.184421 
L 118.207945 183.549972 
L 121.733896 179.307915 
L 125.259848 175.434786 
L 128.7858 171.908811 
L 132.311751 168.709734 
L 135.837703 165.818664 
L 139.363655 163.217945 
L 142.889607 160.891039 
L 146.415558 158.82242 
L 149.94151 156.997487 
L 153.467462 155.402478 
L 157.346009 153.898041 
L 161.224555 152.639781 
L 165.103102 151.612308 
L 168.981649 150.80108 
L 173.212791 150.146566 
L 177.796528 149.680026 
L 182.380266 149.451188 
L 186.964003 149.448424 
L 191.900335 149.677182 
L 196.836668 150.124976 
L 202.125595 150.824283 
L 207.767118 151.793802 
L 213.761236 153.046101 
L 220.460544 154.677954 
L 227.865043 156.717055 
L 236.327327 159.281544 
L 247.257777 162.840099 
L 278.286152 173.085601 
L 286.748436 175.569275 
L 294.152935 177.516938 
L 300.852243 179.050193 
L 306.846361 180.202086 
L 312.487884 181.067013 
L 317.776811 181.659648 
L 322.713143 182.000495 
L 327.649476 182.115185 
L 332.233213 182.000016 
L 336.81695 181.65229 
L 341.048092 181.107786 
L 345.279234 180.331682 
L 349.157781 179.401751 
L 353.036328 178.247935 
L 356.914875 176.854837 
L 360.793422 175.211929 
L 364.319374 173.486128 
L 367.845325 171.520774 
L 371.371277 169.300702 
L 374.897229 166.809682 
L 378.42318 164.030307 
L 381.949132 160.943875 
L 385.475084 157.530248 
L 388.64844 154.160307 
L 391.821797 150.490704 
L 394.995153 146.503108 
L 398.521105 141.685597 
L 401.694462 136.969985 
L 404.867818 131.868536 
L 408.041175 126.355809 
L 411.214531 120.404179 
L 414.387888 113.983577 
L 417.561244 107.061202 
L 420.734601 99.601982 
L 424.260553 90.844403 
L 432.370241 165.811007 
L 432.370241 165.811007 
" style="fill:none;stroke:#449775;stroke-linecap:square;stroke-width:1.5;"/>
   </g>
   <g id="line2d_20">
    <path clip-path="url(#p0c1abe13af)" d="M 79.775071 165.811007 
L 432.370241 165.811007 
" style="fill:none;stroke:#000000;stroke-dasharray:5.55,2.4;stroke-dashoffset:0;stroke-width:1.5;"/>
   </g>
   <g id="patch_3">
    <path d="M 62.145313 304.421875 
L 62.145313 26.04 
" style="fill:none;stroke:#000000;stroke-linecap:square;stroke-linejoin:miter;stroke-width:0.8;"/>
   </g>
   <g id="patch_4">
    <path d="M 450 304.421875 
L 450 26.04 
" style="fill:none;stroke:#000000;stroke-linecap:square;stroke-linejoin:miter;stroke-width:0.8;"/>
   </g>
   <g id="patch_5">
    <path d="M 62.145313 304.421875 
L 450 304.421875 
" style="fill:none;stroke:#000000;stroke-linecap:square;stroke-linejoin:miter;stroke-width:0.8;"/>
   </g>
   <g id="patch_6">
    <path d="M 62.145313 26.04 
L 450 26.04 
" style="fill:none;stroke:#000000;stroke-linecap:square;stroke-linejoin:miter;stroke-width:0.8;"/>
   </g>
   <g id="text_18">
    <!-- Change in $\phi$ per cycle, $\gamma = 0.1$ and $\beta = 0.1$ -->
    <g transform="translate(130.432656 20.04)scale(0.12 -0.12)">
     <defs>
      <path d="M 64.40625 67.28125 
L 64.40625 56.890625 
Q 59.421875 61.53125 53.78125 63.8125 
Q 48.140625 66.109375 41.796875 66.109375 
Q 29.296875 66.109375 22.65625 58.46875 
Q 16.015625 50.828125 16.015625 36.375 
Q 16.015625 21.96875 22.65625 14.328125 
Q 29.296875 6.6875 41.796875 6.6875 
Q 48.140625 6.6875 53.78125 8.984375 
Q 59.421875 11.28125 64.40625 15.921875 
L 64.40625 5.609375 
Q 59.234375 2.09375 53.4375 0.328125 
Q 47.65625 -1.421875 41.21875 -1.421875 
Q 24.65625 -1.421875 15.125 8.703125 
Q 5.609375 18.84375 5.609375 36.375 
Q 5.609375 53.953125 15.125 64.078125 
Q 24.65625 74.21875 41.21875 74.21875 
Q 47.75 74.21875 53.53125 72.484375 
Q 59.328125 70.75 64.40625 67.28125 
z
" id="DejaVuSans-67"/>
      <path d="M 54.890625 33.015625 
L 54.890625 0 
L 45.90625 0 
L 45.90625 32.71875 
Q 45.90625 40.484375 42.875 44.328125 
Q 39.84375 48.1875 33.796875 48.1875 
Q 26.515625 48.1875 22.3125 43.546875 
Q 18.109375 38.921875 18.109375 30.90625 
L 18.109375 0 
L 9.078125 0 
L 9.078125 75.984375 
L 18.109375 75.984375 
L 18.109375 46.1875 
Q 21.34375 51.125 25.703125 53.5625 
Q 30.078125 56 35.796875 56 
Q 45.21875 56 50.046875 50.171875 
Q 54.890625 44.34375 54.890625 33.015625 
z
" id="DejaVuSans-104"/>
      <path d="M 34.28125 27.484375 
Q 23.390625 27.484375 19.1875 25 
Q 14.984375 22.515625 14.984375 16.5 
Q 14.984375 11.71875 18.140625 8.90625 
Q 21.296875 6.109375 26.703125 6.109375 
Q 34.1875 6.109375 38.703125 11.40625 
Q 43.21875 16.703125 43.21875 25.484375 
L 43.21875 27.484375 
z
M 52.203125 31.203125 
L 52.203125 0 
L 43.21875 0 
L 43.21875 8.296875 
Q 40.140625 3.328125 35.546875 0.953125 
Q 30.953125 -1.421875 24.3125 -1.421875 
Q 15.921875 -1.421875 10.953125 3.296875 
Q 6 8.015625 6 15.921875 
Q 6 25.140625 12.171875 29.828125 
Q 18.359375 34.515625 30.609375 34.515625 
L 43.21875 34.515625 
L 43.21875 35.40625 
Q 43.21875 41.609375 39.140625 45 
Q 35.0625 48.390625 27.6875 48.390625 
Q 23 48.390625 18.546875 47.265625 
Q 14.109375 46.140625 10.015625 43.890625 
L 10.015625 52.203125 
Q 14.9375 54.109375 19.578125 55.046875 
Q 24.21875 56 28.609375 56 
Q 40.484375 56 46.34375 49.84375 
Q 52.203125 43.703125 52.203125 31.203125 
z
" id="DejaVuSans-97"/>
      <path d="M 54.890625 33.015625 
L 54.890625 0 
L 45.90625 0 
L 45.90625 32.71875 
Q 45.90625 40.484375 42.875 44.328125 
Q 39.84375 48.1875 33.796875 48.1875 
Q 26.515625 48.1875 22.3125 43.546875 
Q 18.109375 38.921875 18.109375 30.90625 
L 18.109375 0 
L 9.078125 0 
L 9.078125 54.6875 
L 18.109375 54.6875 
L 18.109375 46.1875 
Q 21.34375 51.125 25.703125 53.5625 
Q 30.078125 56 35.796875 56 
Q 45.21875 56 50.046875 50.171875 
Q 54.890625 44.34375 54.890625 33.015625 
z
" id="DejaVuSans-110"/>
      <path d="M 45.40625 27.984375 
Q 45.40625 37.75 41.375 43.109375 
Q 37.359375 48.484375 30.078125 48.484375 
Q 22.859375 48.484375 18.828125 43.109375 
Q 14.796875 37.75 14.796875 27.984375 
Q 14.796875 18.265625 18.828125 12.890625 
Q 22.859375 7.515625 30.078125 7.515625 
Q 37.359375 7.515625 41.375 12.890625 
Q 45.40625 18.265625 45.40625 27.984375 
z
M 54.390625 6.78125 
Q 54.390625 -7.171875 48.1875 -13.984375 
Q 42 -20.796875 29.203125 -20.796875 
Q 24.46875 -20.796875 20.265625 -20.09375 
Q 16.0625 -19.390625 12.109375 -17.921875 
L 12.109375 -9.1875 
Q 16.0625 -11.328125 19.921875 -12.34375 
Q 23.78125 -13.375 27.78125 -13.375 
Q 36.625 -13.375 41.015625 -8.765625 
Q 45.40625 -4.15625 45.40625 5.171875 
L 45.40625 9.625 
Q 42.625 4.78125 38.28125 2.390625 
Q 33.9375 0 27.875 0 
Q 17.828125 0 11.671875 7.65625 
Q 5.515625 15.328125 5.515625 27.984375 
Q 5.515625 40.671875 11.671875 48.328125 
Q 17.828125 56 27.875 56 
Q 33.9375 56 38.28125 53.609375 
Q 42.625 51.21875 45.40625 46.390625 
L 45.40625 54.6875 
L 54.390625 54.6875 
z
" id="DejaVuSans-103"/>
      <path d="M 56.203125 29.59375 
L 56.203125 25.203125 
L 14.890625 25.203125 
Q 15.484375 15.921875 20.484375 11.0625 
Q 25.484375 6.203125 34.421875 6.203125 
Q 39.59375 6.203125 44.453125 7.46875 
Q 49.3125 8.734375 54.109375 11.28125 
L 54.109375 2.78125 
Q 49.265625 0.734375 44.1875 -0.34375 
Q 39.109375 -1.421875 33.890625 -1.421875 
Q 20.796875 -1.421875 13.15625 6.1875 
Q 5.515625 13.8125 5.515625 26.8125 
Q 5.515625 40.234375 12.765625 48.109375 
Q 20.015625 56 32.328125 56 
Q 43.359375 56 49.78125 48.890625 
Q 56.203125 41.796875 56.203125 29.59375 
z
M 47.21875 32.234375 
Q 47.125 39.59375 43.09375 43.984375 
Q 39.0625 48.390625 32.421875 48.390625 
Q 24.90625 48.390625 20.390625 44.140625 
Q 15.875 39.890625 15.1875 32.171875 
z
" id="DejaVuSans-101"/>
      <path id="DejaVuSans-32"/>
      <path d="M 9.421875 54.6875 
L 18.40625 54.6875 
L 18.40625 0 
L 9.421875 0 
z
M 9.421875 75.984375 
L 18.40625 75.984375 
L 18.40625 64.59375 
L 9.421875 64.59375 
z
" id="DejaVuSans-105"/>
      <path d="M 18.109375 8.203125 
L 18.109375 -20.796875 
L 9.078125 -20.796875 
L 9.078125 54.6875 
L 18.109375 54.6875 
L 18.109375 46.390625 
Q 20.953125 51.265625 25.265625 53.625 
Q 29.59375 56 35.59375 56 
Q 45.5625 56 51.78125 48.09375 
Q 58.015625 40.1875 58.015625 27.296875 
Q 58.015625 14.40625 51.78125 6.484375 
Q 45.5625 -1.421875 35.59375 -1.421875 
Q 29.59375 -1.421875 25.265625 0.953125 
Q 20.953125 3.328125 18.109375 8.203125 
z
M 48.6875 27.296875 
Q 48.6875 37.203125 44.609375 42.84375 
Q 40.53125 48.484375 33.40625 48.484375 
Q 26.265625 48.484375 22.1875 42.84375 
Q 18.109375 37.203125 18.109375 27.296875 
Q 18.109375 17.390625 22.1875 11.75 
Q 26.265625 6.109375 33.40625 6.109375 
Q 40.53125 6.109375 44.609375 11.75 
Q 48.6875 17.390625 48.6875 27.296875 
z
" id="DejaVuSans-112"/>
      <path d="M 41.109375 46.296875 
Q 39.59375 47.171875 37.8125 47.578125 
Q 36.03125 48 33.890625 48 
Q 26.265625 48 22.1875 43.046875 
Q 18.109375 38.09375 18.109375 28.8125 
L 18.109375 0 
L 9.078125 0 
L 9.078125 54.6875 
L 18.109375 54.6875 
L 18.109375 46.1875 
Q 20.953125 51.171875 25.484375 53.578125 
Q 30.03125 56 36.53125 56 
Q 37.453125 56 38.578125 55.875 
Q 39.703125 55.765625 41.0625 55.515625 
z
" id="DejaVuSans-114"/>
      <path d="M 48.78125 52.59375 
L 48.78125 44.1875 
Q 44.96875 46.296875 41.140625 47.34375 
Q 37.3125 48.390625 33.40625 48.390625 
Q 24.65625 48.390625 19.8125 42.84375 
Q 14.984375 37.3125 14.984375 27.296875 
Q 14.984375 17.28125 19.8125 11.734375 
Q 24.65625 6.203125 33.40625 6.203125 
Q 37.3125 6.203125 41.140625 7.25 
Q 44.96875 8.296875 48.78125 10.40625 
L 48.78125 2.09375 
Q 45.015625 0.34375 40.984375 -0.53125 
Q 36.96875 -1.421875 32.421875 -1.421875 
Q 20.0625 -1.421875 12.78125 6.34375 
Q 5.515625 14.109375 5.515625 27.296875 
Q 5.515625 40.671875 12.859375 48.328125 
Q 20.21875 56 33.015625 56 
Q 37.15625 56 41.109375 55.140625 
Q 45.0625 54.296875 48.78125 52.59375 
z
" id="DejaVuSans-99"/>
      <path d="M 32.171875 -5.078125 
Q 28.375 -14.84375 24.75 -17.8125 
Q 21.140625 -20.796875 15.09375 -20.796875 
L 7.90625 -20.796875 
L 7.90625 -13.28125 
L 13.1875 -13.28125 
Q 16.890625 -13.28125 18.9375 -11.515625 
Q 21 -9.765625 23.484375 -3.21875 
L 25.09375 0.875 
L 2.984375 54.6875 
L 12.5 54.6875 
L 29.59375 11.921875 
L 46.6875 54.6875 
L 56.203125 54.6875 
z
" id="DejaVuSans-121"/>
      <path d="M 9.421875 75.984375 
L 18.40625 75.984375 
L 18.40625 0 
L 9.421875 0 
z
" id="DejaVuSans-108"/>
      <path d="M 11.71875 12.40625 
L 22.015625 12.40625 
L 22.015625 4 
L 14.015625 -11.625 
L 7.71875 -11.625 
L 11.71875 4 
z
" id="DejaVuSans-44"/>
      <path d="M 23.296875 46.09375 
L 28.71875 12.3125 
L 54 54.6875 
L 63.53125 54.6875 
L 30.8125 0 
L 26.765625 -20.796875 
L 17.78125 -20.796875 
L 21.828125 0 
L 15.4375 40.828125 
Q 14.453125 46.96875 9.8125 46.96875 
L 7.421875 46.96875 
L 8.890625 54.6875 
L 12.3125 54.6875 
Q 21.921875 54.6875 23.296875 46.09375 
z
" id="DejaVuSans-Oblique-947"/>
      <path d="M 10.59375 45.40625 
L 73.1875 45.40625 
L 73.1875 37.203125 
L 10.59375 37.203125 
z
M 10.59375 25.484375 
L 73.1875 25.484375 
L 73.1875 17.1875 
L 10.59375 17.1875 
z
" id="DejaVuSans-61"/>
      <path d="M 45.40625 46.390625 
L 45.40625 75.984375 
L 54.390625 75.984375 
L 54.390625 0 
L 45.40625 0 
L 45.40625 8.203125 
Q 42.578125 3.328125 38.25 0.953125 
Q 33.9375 -1.421875 27.875 -1.421875 
Q 17.96875 -1.421875 11.734375 6.484375 
Q 5.515625 14.40625 5.515625 27.296875 
Q 5.515625 40.1875 11.734375 48.09375 
Q 17.96875 56 27.875 56 
Q 33.9375 56 38.25 53.625 
Q 42.578125 51.265625 45.40625 46.390625 
z
M 14.796875 27.296875 
Q 14.796875 17.390625 18.875 11.75 
Q 22.953125 6.109375 30.078125 6.109375 
Q 37.203125 6.109375 41.296875 11.75 
Q 45.40625 17.390625 45.40625 27.296875 
Q 45.40625 37.203125 41.296875 42.84375 
Q 37.203125 48.484375 30.078125 48.484375 
Q 22.953125 48.484375 18.875 42.84375 
Q 14.796875 37.203125 14.796875 27.296875 
z
" id="DejaVuSans-100"/>
      <path d="M 13.625 3.375 
L 8.9375 -20.796875 
L -0.09375 -20.796875 
L 14.5 54.34375 
Q 18.84375 76.609375 39.65625 76.609375 
Q 60.75 76.609375 57.171875 57.8125 
Q 54.734375 44.4375 45.21875 39.546875 
Q 58.015625 35.15625 55.515625 22.125 
Q 51.125 -1.078125 27.484375 -1.03125 
Q 17.140625 -0.984375 13.625 3.375 
z
M 15.921875 15.09375 
Q 19.671875 6.59375 29.296875 6.640625 
Q 43.359375 6.640625 46.34375 21.96875 
Q 49.03125 35.75 26.171875 34.671875 
L 27.78125 42.96875 
Q 45.453125 42.671875 48.53125 58.59375 
Q 50.640625 69.34375 39.203125 69.28125 
Q 26.421875 69.28125 23.484375 54.046875 
z
" id="DejaVuSans-Oblique-946"/>
     </defs>
     <use transform="translate(0 0.390625)" xlink:href="#DejaVuSans-67"/>
     <use transform="translate(69.824219 0.390625)" xlink:href="#DejaVuSans-104"/>
     <use transform="translate(133.203125 0.390625)" xlink:href="#DejaVuSans-97"/>
     <use transform="translate(194.482422 0.390625)" xlink:href="#DejaVuSans-110"/>
     <use transform="translate(257.861328 0.390625)" xlink:href="#DejaVuSans-103"/>
     <use transform="translate(321.337891 0.390625)" xlink:href="#DejaVuSans-101"/>
     <use transform="translate(382.861328 0.390625)" xlink:href="#DejaVuSans-32"/>
     <use transform="translate(414.648438 0.390625)" xlink:href="#DejaVuSans-105"/>
     <use transform="translate(442.431641 0.390625)" xlink:href="#DejaVuSans-110"/>
     <use transform="translate(505.810547 0.390625)" xlink:href="#DejaVuSans-32"/>
     <use transform="translate(537.597656 0.390625)" xlink:href="#DejaVuSans-Oblique-981"/>
     <use transform="translate(603.564453 0.390625)" xlink:href="#DejaVuSans-32"/>
     <use transform="translate(635.351562 0.390625)" xlink:href="#DejaVuSans-112"/>
     <use transform="translate(698.828125 0.390625)" xlink:href="#DejaVuSans-101"/>
     <use transform="translate(760.351562 0.390625)" xlink:href="#DejaVuSans-114"/>
     <use transform="translate(801.464844 0.390625)" xlink:href="#DejaVuSans-32"/>
     <use transform="translate(833.251953 0.390625)" xlink:href="#DejaVuSans-99"/>
     <use transform="translate(888.232422 0.390625)" xlink:href="#DejaVuSans-121"/>
     <use transform="translate(947.412109 0.390625)" xlink:href="#DejaVuSans-99"/>
     <use transform="translate(1002.392578 0.390625)" xlink:href="#DejaVuSans-108"/>
     <use transform="translate(1030.175781 0.390625)" xlink:href="#DejaVuSans-101"/>
     <use transform="translate(1091.699219 0.390625)" xlink:href="#DejaVuSans-44"/>
     <use transform="translate(1123.486328 0.390625)" xlink:href="#DejaVuSans-32"/>
     <use transform="translate(1155.273438 0.390625)" xlink:href="#DejaVuSans-Oblique-947"/>
     <use transform="translate(1233.935547 0.390625)" xlink:href="#DejaVuSans-61"/>
     <use transform="translate(1337.207031 0.390625)" xlink:href="#DejaVuSans-48"/>
     <use transform="translate(1400.830078 0.390625)" xlink:href="#DejaVuSans-46"/>
     <use transform="translate(1432.617188 0.390625)" xlink:href="#DejaVuSans-49"/>
     <use transform="translate(1496.240234 0.390625)" xlink:href="#DejaVuSans-32"/>
     <use transform="translate(1528.027344 0.390625)" xlink:href="#DejaVuSans-97"/>
     <use transform="translate(1589.306641 0.390625)" xlink:href="#DejaVuSans-110"/>
     <use transform="translate(1652.685547 0.390625)" xlink:href="#DejaVuSans-100"/>
     <use transform="translate(1716.162109 0.390625)" xlink:href="#DejaVuSans-32"/>
     <use transform="translate(1747.949219 0.390625)" xlink:href="#DejaVuSans-Oblique-946"/>
     <use transform="translate(1831.25 0.390625)" xlink:href="#DejaVuSans-61"/>
     <use transform="translate(1934.521484 0.390625)" xlink:href="#DejaVuSans-48"/>
     <use transform="translate(1998.144531 0.390625)" xlink:href="#DejaVuSans-46"/>
     <use transform="translate(2029.931641 0.390625)" xlink:href="#DejaVuSans-49"/>
    </g>
   </g>
   <g id="legend_1">
    <g id="patch_7">
     <path d="M 69.145313 92.7525 
L 138.645313 92.7525 
Q 140.645313 92.7525 140.645313 90.7525 
L 140.645313 33.04 
Q 140.645313 31.04 138.645313 31.04 
L 69.145313 31.04 
Q 67.145313 31.04 67.145313 33.04 
L 67.145313 90.7525 
Q 67.145313 92.7525 69.145313 92.7525 
z
" style="fill:#ffffff;opacity:0.8;stroke:#cccccc;stroke-linejoin:miter;"/>
    </g>
    <g id="line2d_21">
     <path d="M 71.145313 39.138437 
L 91.145313 39.138437 
" style="fill:none;stroke:#aa3863;stroke-linecap:square;stroke-width:1.5;"/>
    </g>
    <g id="line2d_22"/>
    <g id="text_19">
     <!-- $I = 1.15$ -->
     <g transform="translate(99.145313 42.638437)scale(0.1 -0.1)">
      <defs>
       <path d="M 16.890625 72.90625 
L 26.8125 72.90625 
L 12.59375 0 
L 2.6875 0 
z
" id="DejaVuSans-Oblique-73"/>
       <path d="M 10.796875 72.90625 
L 49.515625 72.90625 
L 49.515625 64.59375 
L 19.828125 64.59375 
L 19.828125 46.734375 
Q 21.96875 47.46875 24.109375 47.828125 
Q 26.265625 48.1875 28.421875 48.1875 
Q 40.625 48.1875 47.75 41.5 
Q 54.890625 34.8125 54.890625 23.390625 
Q 54.890625 11.625 47.5625 5.09375 
Q 40.234375 -1.421875 26.90625 -1.421875 
Q 22.3125 -1.421875 17.546875 -0.640625 
Q 12.796875 0.140625 7.71875 1.703125 
L 7.71875 11.625 
Q 12.109375 9.234375 16.796875 8.0625 
Q 21.484375 6.890625 26.703125 6.890625 
Q 35.15625 6.890625 40.078125 11.328125 
Q 45.015625 15.765625 45.015625 23.390625 
Q 45.015625 31 40.078125 35.4375 
Q 35.15625 39.890625 26.703125 39.890625 
Q 22.75 39.890625 18.8125 39.015625 
Q 14.890625 38.140625 10.796875 36.28125 
z
" id="DejaVuSans-53"/>
      </defs>
      <use transform="translate(0 0.09375)" xlink:href="#DejaVuSans-Oblique-73"/>
      <use transform="translate(48.974609 0.09375)" xlink:href="#DejaVuSans-61"/>
      <use transform="translate(152.246094 0.09375)" xlink:href="#DejaVuSans-49"/>
      <use transform="translate(215.869141 0.09375)" xlink:href="#DejaVuSans-46"/>
      <use transform="translate(247.65625 0.09375)" xlink:href="#DejaVuSans-49"/>
      <use transform="translate(311.279297 0.09375)" xlink:href="#DejaVuSans-53"/>
     </g>
    </g>
    <g id="line2d_23">
     <path d="M 71.145313 53.816562 
L 91.145313 53.816562 
" style="fill:none;stroke:#d97020;stroke-linecap:square;stroke-width:1.5;"/>
    </g>
    <g id="line2d_24"/>
    <g id="text_20">
     <!-- $I = 1.2$ -->
     <g transform="translate(99.145313 57.316562)scale(0.1 -0.1)">
      <use transform="translate(0 0.78125)" xlink:href="#DejaVuSans-Oblique-73"/>
      <use transform="translate(48.974609 0.78125)" xlink:href="#DejaVuSans-61"/>
      <use transform="translate(152.246094 0.78125)" xlink:href="#DejaVuSans-49"/>
      <use transform="translate(215.869141 0.78125)" xlink:href="#DejaVuSans-46"/>
      <use transform="translate(242.15625 0.78125)" xlink:href="#DejaVuSans-50"/>
     </g>
    </g>
    <g id="line2d_25">
     <path d="M 71.145313 68.494687 
L 91.145313 68.494687 
" style="fill:none;stroke:#ef9f07;stroke-linecap:square;stroke-width:1.5;"/>
    </g>
    <g id="line2d_26"/>
    <g id="text_21">
     <!-- $I = 1.25$ -->
     <g transform="translate(99.145313 71.994687)scale(0.1 -0.1)">
      <use transform="translate(0 0.78125)" xlink:href="#DejaVuSans-Oblique-73"/>
      <use transform="translate(48.974609 0.78125)" xlink:href="#DejaVuSans-61"/>
      <use transform="translate(152.246094 0.78125)" xlink:href="#DejaVuSans-49"/>
      <use transform="translate(215.869141 0.78125)" xlink:href="#DejaVuSans-46"/>
      <use transform="translate(242.15625 0.78125)" xlink:href="#DejaVuSans-50"/>
      <use transform="translate(305.779297 0.78125)" xlink:href="#DejaVuSans-53"/>
     </g>
    </g>
    <g id="line2d_27">
     <path d="M 71.145313 83.172812 
L 91.145313 83.172812 
" style="fill:none;stroke:#449775;stroke-linecap:square;stroke-width:1.5;"/>
    </g>
    <g id="line2d_28"/>
    <g id="text_22">
     <!-- $I = 1.3$ -->
     <g transform="translate(99.145313 86.672812)scale(0.1 -0.1)">
      <use transform="translate(0 0.78125)" xlink:href="#DejaVuSans-Oblique-73"/>
      <use transform="translate(48.974609 0.78125)" xlink:href="#DejaVuSans-61"/>
      <use transform="translate(152.246094 0.78125)" xlink:href="#DejaVuSans-49"/>
      <use transform="translate(215.869141 0.78125)" xlink:href="#DejaVuSans-46"/>
      <use transform="translate(247.65625 0.78125)" xlink:href="#DejaVuSans-51"/>
     </g>
    </g>
   </g>
  </g>
 </g>
 <defs>
  <clipPath id="p0c1abe13af">
   <rect height="278.381875" width="387.854687" x="62.145313" y="26.04"/>
  </clipPath>
 </defs>
</svg>
