<?xml version="1.0" encoding="utf-8" standalone="no"?>
<!DOCTYPE svg PUBLIC "-//W3C//DTD SVG 1.1//EN"
  "http://www.w3.org/Graphics/SVG/1.1/DTD/svg11.dtd">
<!-- Created with matplotlib (https://matplotlib.org/) -->
<svg height="432pt" version="1.1" viewBox="0 0 1152 432" width="1152pt" xmlns="http://www.w3.org/2000/svg" xmlns:xlink="http://www.w3.org/1999/xlink">
 <metadata>
  <rdf:RDF xmlns:cc="http://creativecommons.org/ns#" xmlns:dc="http://purl.org/dc/elements/1.1/" xmlns:rdf="http://www.w3.org/1999/02/22-rdf-syntax-ns#">
   <cc:Work>
    <dc:type rdf:resource="http://purl.org/dc/dcmitype/StillImage"/>
    <dc:date>2021-08-23T23:35:27.805839</dc:date>
    <dc:format>image/svg+xml</dc:format>
    <dc:creator>
     <cc:Agent>
      <dc:title>Matplotlib v3.3.3, https://matplotlib.org/</dc:title>
     </cc:Agent>
    </dc:creator>
   </cc:Work>
  </rdf:RDF>
 </metadata>
 <defs>
  <style type="text/css">*{stroke-linecap:butt;stroke-linejoin:round;}</style>
 </defs>
 <g id="figure_1">
  <g id="patch_1">
   <path d="M 0 432 
L 1152 432 
L 1152 0 
L 0 0 
z
" style="fill:#ffffff;"/>
  </g>
  <g id="axes_1">
   <g id="patch_2">
    <path d="M 53.765625 197.951875 
L 1088.6 197.951875 
L 1088.6 33.36 
L 53.765625 33.36 
z
" style="fill:#ffffff;"/>
   </g>
   <g id="matplotlib.axis_1">
    <g id="xtick_1">
     <g id="line2d_1">
      <defs>
       <path d="M 0 0 
L 0 3.5 
" id="m82e7c2785d" style="stroke:#000000;stroke-width:0.8;"/>
      </defs>
      <g>
       <use style="stroke:#000000;stroke-width:0.8;" x="100.803551" xlink:href="#m82e7c2785d" y="197.951875"/>
      </g>
     </g>
     <g id="text_1">
      <!-- 0 -->
      <g transform="translate(97.622301 212.550313)scale(0.1 -0.1)">
       <defs>
        <path d="M 31.78125 66.40625 
Q 24.171875 66.40625 20.328125 58.90625 
Q 16.5 51.421875 16.5 36.375 
Q 16.5 21.390625 20.328125 13.890625 
Q 24.171875 6.390625 31.78125 6.390625 
Q 39.453125 6.390625 43.28125 13.890625 
Q 47.125 21.390625 47.125 36.375 
Q 47.125 51.421875 43.28125 58.90625 
Q 39.453125 66.40625 31.78125 66.40625 
z
M 31.78125 74.21875 
Q 44.046875 74.21875 50.515625 64.515625 
Q 56.984375 54.828125 56.984375 36.375 
Q 56.984375 17.96875 50.515625 8.265625 
Q 44.046875 -1.421875 31.78125 -1.421875 
Q 19.53125 -1.421875 13.0625 8.265625 
Q 6.59375 17.96875 6.59375 36.375 
Q 6.59375 54.828125 13.0625 64.515625 
Q 19.53125 74.21875 31.78125 74.21875 
z
" id="DejaVuSans-48"/>
       </defs>
       <use xlink:href="#DejaVuSans-48"/>
      </g>
     </g>
    </g>
    <g id="xtick_2">
     <g id="line2d_2">
      <g>
       <use style="stroke:#000000;stroke-width:0.8;" x="309.861001" xlink:href="#m82e7c2785d" y="197.951875"/>
      </g>
     </g>
     <g id="text_2">
      <!-- 10 -->
      <g transform="translate(303.498501 212.550313)scale(0.1 -0.1)">
       <defs>
        <path d="M 12.40625 8.296875 
L 28.515625 8.296875 
L 28.515625 63.921875 
L 10.984375 60.40625 
L 10.984375 69.390625 
L 28.421875 72.90625 
L 38.28125 72.90625 
L 38.28125 8.296875 
L 54.390625 8.296875 
L 54.390625 0 
L 12.40625 0 
z
" id="DejaVuSans-49"/>
       </defs>
       <use xlink:href="#DejaVuSans-49"/>
       <use x="63.623047" xlink:href="#DejaVuSans-48"/>
      </g>
     </g>
    </g>
    <g id="xtick_3">
     <g id="line2d_3">
      <g>
       <use style="stroke:#000000;stroke-width:0.8;" x="518.91845" xlink:href="#m82e7c2785d" y="197.951875"/>
      </g>
     </g>
     <g id="text_3">
      <!-- 20 -->
      <g transform="translate(512.55595 212.550313)scale(0.1 -0.1)">
       <defs>
        <path d="M 19.1875 8.296875 
L 53.609375 8.296875 
L 53.609375 0 
L 7.328125 0 
L 7.328125 8.296875 
Q 12.9375 14.109375 22.625 23.890625 
Q 32.328125 33.6875 34.8125 36.53125 
Q 39.546875 41.84375 41.421875 45.53125 
Q 43.3125 49.21875 43.3125 52.78125 
Q 43.3125 58.59375 39.234375 62.25 
Q 35.15625 65.921875 28.609375 65.921875 
Q 23.96875 65.921875 18.8125 64.3125 
Q 13.671875 62.703125 7.8125 59.421875 
L 7.8125 69.390625 
Q 13.765625 71.78125 18.9375 73 
Q 24.125 74.21875 28.421875 74.21875 
Q 39.75 74.21875 46.484375 68.546875 
Q 53.21875 62.890625 53.21875 53.421875 
Q 53.21875 48.921875 51.53125 44.890625 
Q 49.859375 40.875 45.40625 35.40625 
Q 44.1875 33.984375 37.640625 27.21875 
Q 31.109375 20.453125 19.1875 8.296875 
z
" id="DejaVuSans-50"/>
       </defs>
       <use xlink:href="#DejaVuSans-50"/>
       <use x="63.623047" xlink:href="#DejaVuSans-48"/>
      </g>
     </g>
    </g>
    <g id="xtick_4">
     <g id="line2d_4">
      <g>
       <use style="stroke:#000000;stroke-width:0.8;" x="727.9759" xlink:href="#m82e7c2785d" y="197.951875"/>
      </g>
     </g>
     <g id="text_4">
      <!-- 30 -->
      <g transform="translate(721.6134 212.550313)scale(0.1 -0.1)">
       <defs>
        <path d="M 40.578125 39.3125 
Q 47.65625 37.796875 51.625 33 
Q 55.609375 28.21875 55.609375 21.1875 
Q 55.609375 10.40625 48.1875 4.484375 
Q 40.765625 -1.421875 27.09375 -1.421875 
Q 22.515625 -1.421875 17.65625 -0.515625 
Q 12.796875 0.390625 7.625 2.203125 
L 7.625 11.71875 
Q 11.71875 9.328125 16.59375 8.109375 
Q 21.484375 6.890625 26.8125 6.890625 
Q 36.078125 6.890625 40.9375 10.546875 
Q 45.796875 14.203125 45.796875 21.1875 
Q 45.796875 27.640625 41.28125 31.265625 
Q 36.765625 34.90625 28.71875 34.90625 
L 20.21875 34.90625 
L 20.21875 43.015625 
L 29.109375 43.015625 
Q 36.375 43.015625 40.234375 45.921875 
Q 44.09375 48.828125 44.09375 54.296875 
Q 44.09375 59.90625 40.109375 62.90625 
Q 36.140625 65.921875 28.71875 65.921875 
Q 24.65625 65.921875 20.015625 65.03125 
Q 15.375 64.15625 9.8125 62.3125 
L 9.8125 71.09375 
Q 15.4375 72.65625 20.34375 73.4375 
Q 25.25 74.21875 29.59375 74.21875 
Q 40.828125 74.21875 47.359375 69.109375 
Q 53.90625 64.015625 53.90625 55.328125 
Q 53.90625 49.265625 50.4375 45.09375 
Q 46.96875 40.921875 40.578125 39.3125 
z
" id="DejaVuSans-51"/>
       </defs>
       <use xlink:href="#DejaVuSans-51"/>
       <use x="63.623047" xlink:href="#DejaVuSans-48"/>
      </g>
     </g>
    </g>
    <g id="xtick_5">
     <g id="line2d_5">
      <g>
       <use style="stroke:#000000;stroke-width:0.8;" x="937.033349" xlink:href="#m82e7c2785d" y="197.951875"/>
      </g>
     </g>
     <g id="text_5">
      <!-- 40 -->
      <g transform="translate(930.670849 212.550313)scale(0.1 -0.1)">
       <defs>
        <path d="M 37.796875 64.3125 
L 12.890625 25.390625 
L 37.796875 25.390625 
z
M 35.203125 72.90625 
L 47.609375 72.90625 
L 47.609375 25.390625 
L 58.015625 25.390625 
L 58.015625 17.1875 
L 47.609375 17.1875 
L 47.609375 0 
L 37.796875 0 
L 37.796875 17.1875 
L 4.890625 17.1875 
L 4.890625 26.703125 
z
" id="DejaVuSans-52"/>
       </defs>
       <use xlink:href="#DejaVuSans-52"/>
       <use x="63.623047" xlink:href="#DejaVuSans-48"/>
      </g>
     </g>
    </g>
   </g>
   <g id="matplotlib.axis_2">
    <g id="ytick_1">
     <g id="line2d_6">
      <defs>
       <path d="M 0 0 
L -3.5 0 
" id="m3c1533e8ba" style="stroke:#000000;stroke-width:0.8;"/>
      </defs>
      <g>
       <use style="stroke:#000000;stroke-width:0.8;" x="53.765625" xlink:href="#m3c1533e8ba" y="183.639538"/>
      </g>
     </g>
     <g id="text_6">
      <!-- 0.90 -->
      <g transform="translate(24.5 187.438757)scale(0.1 -0.1)">
       <defs>
        <path d="M 10.6875 12.40625 
L 21 12.40625 
L 21 0 
L 10.6875 0 
z
" id="DejaVuSans-46"/>
        <path d="M 10.984375 1.515625 
L 10.984375 10.5 
Q 14.703125 8.734375 18.5 7.8125 
Q 22.3125 6.890625 25.984375 6.890625 
Q 35.75 6.890625 40.890625 13.453125 
Q 46.046875 20.015625 46.78125 33.40625 
Q 43.953125 29.203125 39.59375 26.953125 
Q 35.25 24.703125 29.984375 24.703125 
Q 19.046875 24.703125 12.671875 31.3125 
Q 6.296875 37.9375 6.296875 49.421875 
Q 6.296875 60.640625 12.9375 67.421875 
Q 19.578125 74.21875 30.609375 74.21875 
Q 43.265625 74.21875 49.921875 64.515625 
Q 56.59375 54.828125 56.59375 36.375 
Q 56.59375 19.140625 48.40625 8.859375 
Q 40.234375 -1.421875 26.421875 -1.421875 
Q 22.703125 -1.421875 18.890625 -0.6875 
Q 15.09375 0.046875 10.984375 1.515625 
z
M 30.609375 32.421875 
Q 37.25 32.421875 41.125 36.953125 
Q 45.015625 41.5 45.015625 49.421875 
Q 45.015625 57.28125 41.125 61.84375 
Q 37.25 66.40625 30.609375 66.40625 
Q 23.96875 66.40625 20.09375 61.84375 
Q 16.21875 57.28125 16.21875 49.421875 
Q 16.21875 41.5 20.09375 36.953125 
Q 23.96875 32.421875 30.609375 32.421875 
z
" id="DejaVuSans-57"/>
       </defs>
       <use xlink:href="#DejaVuSans-48"/>
       <use x="63.623047" xlink:href="#DejaVuSans-46"/>
       <use x="95.410156" xlink:href="#DejaVuSans-57"/>
       <use x="159.033203" xlink:href="#DejaVuSans-48"/>
      </g>
     </g>
    </g>
    <g id="ytick_2">
     <g id="line2d_7">
      <g>
       <use style="stroke:#000000;stroke-width:0.8;" x="53.765625" xlink:href="#m3c1533e8ba" y="147.858696"/>
      </g>
     </g>
     <g id="text_7">
      <!-- 0.95 -->
      <g transform="translate(24.5 151.657914)scale(0.1 -0.1)">
       <defs>
        <path d="M 10.796875 72.90625 
L 49.515625 72.90625 
L 49.515625 64.59375 
L 19.828125 64.59375 
L 19.828125 46.734375 
Q 21.96875 47.46875 24.109375 47.828125 
Q 26.265625 48.1875 28.421875 48.1875 
Q 40.625 48.1875 47.75 41.5 
Q 54.890625 34.8125 54.890625 23.390625 
Q 54.890625 11.625 47.5625 5.09375 
Q 40.234375 -1.421875 26.90625 -1.421875 
Q 22.3125 -1.421875 17.546875 -0.640625 
Q 12.796875 0.140625 7.71875 1.703125 
L 7.71875 11.625 
Q 12.109375 9.234375 16.796875 8.0625 
Q 21.484375 6.890625 26.703125 6.890625 
Q 35.15625 6.890625 40.078125 11.328125 
Q 45.015625 15.765625 45.015625 23.390625 
Q 45.015625 31 40.078125 35.4375 
Q 35.15625 39.890625 26.703125 39.890625 
Q 22.75 39.890625 18.8125 39.015625 
Q 14.890625 38.140625 10.796875 36.28125 
z
" id="DejaVuSans-53"/>
       </defs>
       <use xlink:href="#DejaVuSans-48"/>
       <use x="63.623047" xlink:href="#DejaVuSans-46"/>
       <use x="95.410156" xlink:href="#DejaVuSans-57"/>
       <use x="159.033203" xlink:href="#DejaVuSans-53"/>
      </g>
     </g>
    </g>
    <g id="ytick_3">
     <g id="line2d_8">
      <g>
       <use style="stroke:#000000;stroke-width:0.8;" x="53.765625" xlink:href="#m3c1533e8ba" y="112.077853"/>
      </g>
     </g>
     <g id="text_8">
      <!-- 1.00 -->
      <g transform="translate(24.5 115.877072)scale(0.1 -0.1)">
       <use xlink:href="#DejaVuSans-49"/>
       <use x="63.623047" xlink:href="#DejaVuSans-46"/>
       <use x="95.410156" xlink:href="#DejaVuSans-48"/>
       <use x="159.033203" xlink:href="#DejaVuSans-48"/>
      </g>
     </g>
    </g>
    <g id="ytick_4">
     <g id="line2d_9">
      <g>
       <use style="stroke:#000000;stroke-width:0.8;" x="53.765625" xlink:href="#m3c1533e8ba" y="76.297011"/>
      </g>
     </g>
     <g id="text_9">
      <!-- 1.05 -->
      <g transform="translate(24.5 80.09623)scale(0.1 -0.1)">
       <use xlink:href="#DejaVuSans-49"/>
       <use x="63.623047" xlink:href="#DejaVuSans-46"/>
       <use x="95.410156" xlink:href="#DejaVuSans-48"/>
       <use x="159.033203" xlink:href="#DejaVuSans-53"/>
      </g>
     </g>
    </g>
    <g id="ytick_5">
     <g id="line2d_10">
      <g>
       <use style="stroke:#000000;stroke-width:0.8;" x="53.765625" xlink:href="#m3c1533e8ba" y="40.516168"/>
      </g>
     </g>
     <g id="text_10">
      <!-- 1.10 -->
      <g transform="translate(24.5 44.315387)scale(0.1 -0.1)">
       <use xlink:href="#DejaVuSans-49"/>
       <use x="63.623047" xlink:href="#DejaVuSans-46"/>
       <use x="95.410156" xlink:href="#DejaVuSans-49"/>
       <use x="159.033203" xlink:href="#DejaVuSans-48"/>
      </g>
     </g>
    </g>
    <g id="text_11">
     <!-- Current $I_k, k \in \{1,..,5\}$ -->
     <g transform="translate(18.420313 174.555938)rotate(-90)scale(0.1 -0.1)">
      <defs>
       <path d="M 64.40625 67.28125 
L 64.40625 56.890625 
Q 59.421875 61.53125 53.78125 63.8125 
Q 48.140625 66.109375 41.796875 66.109375 
Q 29.296875 66.109375 22.65625 58.46875 
Q 16.015625 50.828125 16.015625 36.375 
Q 16.015625 21.96875 22.65625 14.328125 
Q 29.296875 6.6875 41.796875 6.6875 
Q 48.140625 6.6875 53.78125 8.984375 
Q 59.421875 11.28125 64.40625 15.921875 
L 64.40625 5.609375 
Q 59.234375 2.09375 53.4375 0.328125 
Q 47.65625 -1.421875 41.21875 -1.421875 
Q 24.65625 -1.421875 15.125 8.703125 
Q 5.609375 18.84375 5.609375 36.375 
Q 5.609375 53.953125 15.125 64.078125 
Q 24.65625 74.21875 41.21875 74.21875 
Q 47.75 74.21875 53.53125 72.484375 
Q 59.328125 70.75 64.40625 67.28125 
z
" id="DejaVuSans-67"/>
       <path d="M 8.5 21.578125 
L 8.5 54.6875 
L 17.484375 54.6875 
L 17.484375 21.921875 
Q 17.484375 14.15625 20.5 10.265625 
Q 23.53125 6.390625 29.59375 6.390625 
Q 36.859375 6.390625 41.078125 11.03125 
Q 45.3125 15.671875 45.3125 23.6875 
L 45.3125 54.6875 
L 54.296875 54.6875 
L 54.296875 0 
L 45.3125 0 
L 45.3125 8.40625 
Q 42.046875 3.421875 37.71875 1 
Q 33.40625 -1.421875 27.6875 -1.421875 
Q 18.265625 -1.421875 13.375 4.4375 
Q 8.5 10.296875 8.5 21.578125 
z
M 31.109375 56 
z
" id="DejaVuSans-117"/>
       <path d="M 41.109375 46.296875 
Q 39.59375 47.171875 37.8125 47.578125 
Q 36.03125 48 33.890625 48 
Q 26.265625 48 22.1875 43.046875 
Q 18.109375 38.09375 18.109375 28.8125 
L 18.109375 0 
L 9.078125 0 
L 9.078125 54.6875 
L 18.109375 54.6875 
L 18.109375 46.1875 
Q 20.953125 51.171875 25.484375 53.578125 
Q 30.03125 56 36.53125 56 
Q 37.453125 56 38.578125 55.875 
Q 39.703125 55.765625 41.0625 55.515625 
z
" id="DejaVuSans-114"/>
       <path d="M 56.203125 29.59375 
L 56.203125 25.203125 
L 14.890625 25.203125 
Q 15.484375 15.921875 20.484375 11.0625 
Q 25.484375 6.203125 34.421875 6.203125 
Q 39.59375 6.203125 44.453125 7.46875 
Q 49.3125 8.734375 54.109375 11.28125 
L 54.109375 2.78125 
Q 49.265625 0.734375 44.1875 -0.34375 
Q 39.109375 -1.421875 33.890625 -1.421875 
Q 20.796875 -1.421875 13.15625 6.1875 
Q 5.515625 13.8125 5.515625 26.8125 
Q 5.515625 40.234375 12.765625 48.109375 
Q 20.015625 56 32.328125 56 
Q 43.359375 56 49.78125 48.890625 
Q 56.203125 41.796875 56.203125 29.59375 
z
M 47.21875 32.234375 
Q 47.125 39.59375 43.09375 43.984375 
Q 39.0625 48.390625 32.421875 48.390625 
Q 24.90625 48.390625 20.390625 44.140625 
Q 15.875 39.890625 15.1875 32.171875 
z
" id="DejaVuSans-101"/>
       <path d="M 54.890625 33.015625 
L 54.890625 0 
L 45.90625 0 
L 45.90625 32.71875 
Q 45.90625 40.484375 42.875 44.328125 
Q 39.84375 48.1875 33.796875 48.1875 
Q 26.515625 48.1875 22.3125 43.546875 
Q 18.109375 38.921875 18.109375 30.90625 
L 18.109375 0 
L 9.078125 0 
L 9.078125 54.6875 
L 18.109375 54.6875 
L 18.109375 46.1875 
Q 21.34375 51.125 25.703125 53.5625 
Q 30.078125 56 35.796875 56 
Q 45.21875 56 50.046875 50.171875 
Q 54.890625 44.34375 54.890625 33.015625 
z
" id="DejaVuSans-110"/>
       <path d="M 18.3125 70.21875 
L 18.3125 54.6875 
L 36.8125 54.6875 
L 36.8125 47.703125 
L 18.3125 47.703125 
L 18.3125 18.015625 
Q 18.3125 11.328125 20.140625 9.421875 
Q 21.96875 7.515625 27.59375 7.515625 
L 36.8125 7.515625 
L 36.8125 0 
L 27.59375 0 
Q 17.1875 0 13.234375 3.875 
Q 9.28125 7.765625 9.28125 18.015625 
L 9.28125 47.703125 
L 2.6875 47.703125 
L 2.6875 54.6875 
L 9.28125 54.6875 
L 9.28125 70.21875 
z
" id="DejaVuSans-116"/>
       <path id="DejaVuSans-32"/>
       <path d="M 16.890625 72.90625 
L 26.8125 72.90625 
L 12.59375 0 
L 2.6875 0 
z
" id="DejaVuSans-Oblique-73"/>
       <path d="M 18.3125 75.984375 
L 27.296875 75.984375 
L 18.703125 31.6875 
L 49.515625 54.6875 
L 61.1875 54.6875 
L 26.8125 28.515625 
L 51.90625 0 
L 41.015625 0 
L 17.671875 26.703125 
L 12.5 0 
L 3.515625 0 
z
" id="DejaVuSans-Oblique-107"/>
       <path d="M 11.71875 12.40625 
L 22.015625 12.40625 
L 22.015625 4 
L 14.015625 -11.625 
L 7.71875 -11.625 
L 11.71875 4 
z
" id="DejaVuSans-44"/>
       <path d="M 16.75 30.609375 
Q 17.09375 27 20.171875 21.140625 
Q 23.78125 14.359375 30.609375 10.546875 
Q 37.3125 6.84375 44.53125 6.78125 
L 78.5625 6.78125 
L 78.5625 -0.984375 
L 44.53125 -0.984375 
Q 35.15625 -0.984375 26.484375 3.84375 
Q 17.828125 8.6875 13.1875 17.28125 
Q 8.546875 25.875 8.546875 35.015625 
Q 8.546875 44.046875 13.1875 52.640625 
Q 17.828125 61.234375 26.484375 66.109375 
Q 35.15625 71 44.53125 71 
L 78.5625 71 
L 78.5625 63.234375 
L 44.53125 63.234375 
Q 37.3125 63.1875 30.609375 59.421875 
Q 23.828125 55.5625 20.171875 48.828125 
Q 17.046875 42.96875 16.609375 38.421875 
L 78.5625 38.421875 
L 78.5625 30.609375 
z
" id="DejaVuSans-8712"/>
       <path d="M 51.125 -9.28125 
L 51.125 -16.3125 
L 48.09375 -16.3125 
Q 35.9375 -16.3125 31.8125 -12.6875 
Q 27.6875 -9.078125 27.6875 1.703125 
L 27.6875 13.375 
Q 27.6875 20.75 25.046875 23.578125 
Q 22.40625 26.421875 15.484375 26.421875 
L 12.5 26.421875 
L 12.5 33.40625 
L 15.484375 33.40625 
Q 22.46875 33.40625 25.078125 36.203125 
Q 27.6875 39.015625 27.6875 46.296875 
L 27.6875 58.015625 
Q 27.6875 68.796875 31.8125 72.390625 
Q 35.9375 75.984375 48.09375 75.984375 
L 51.125 75.984375 
L 51.125 69 
L 47.796875 69 
Q 40.921875 69 38.8125 66.84375 
Q 36.71875 64.703125 36.71875 57.8125 
L 36.71875 45.703125 
Q 36.71875 38.03125 34.5 34.5625 
Q 32.28125 31.109375 26.90625 29.890625 
Q 32.328125 28.5625 34.515625 25.09375 
Q 36.71875 21.625 36.71875 14.015625 
L 36.71875 1.90625 
Q 36.71875 -4.984375 38.8125 -7.125 
Q 40.921875 -9.28125 47.796875 -9.28125 
z
" id="DejaVuSans-123"/>
       <path d="M 12.5 -9.28125 
L 15.921875 -9.28125 
Q 22.75 -9.28125 24.828125 -7.171875 
Q 26.90625 -5.078125 26.90625 1.90625 
L 26.90625 14.015625 
Q 26.90625 21.625 29.09375 25.09375 
Q 31.296875 28.5625 36.71875 29.890625 
Q 31.296875 31.109375 29.09375 34.5625 
Q 26.90625 38.03125 26.90625 45.703125 
L 26.90625 57.8125 
Q 26.90625 64.75 24.828125 66.875 
Q 22.75 69 15.921875 69 
L 12.5 69 
L 12.5 75.984375 
L 15.578125 75.984375 
Q 27.734375 75.984375 31.8125 72.390625 
Q 35.890625 68.796875 35.890625 58.015625 
L 35.890625 46.296875 
Q 35.890625 39.015625 38.515625 36.203125 
Q 41.15625 33.40625 48.09375 33.40625 
L 51.125 33.40625 
L 51.125 26.421875 
L 48.09375 26.421875 
Q 41.15625 26.421875 38.515625 23.578125 
Q 35.890625 20.75 35.890625 13.375 
L 35.890625 1.703125 
Q 35.890625 -9.078125 31.8125 -12.6875 
Q 27.734375 -16.3125 15.578125 -16.3125 
L 12.5 -16.3125 
z
" id="DejaVuSans-125"/>
      </defs>
      <use transform="translate(0 0.015625)" xlink:href="#DejaVuSans-67"/>
      <use transform="translate(69.824219 0.015625)" xlink:href="#DejaVuSans-117"/>
      <use transform="translate(133.203125 0.015625)" xlink:href="#DejaVuSans-114"/>
      <use transform="translate(174.316406 0.015625)" xlink:href="#DejaVuSans-114"/>
      <use transform="translate(215.429688 0.015625)" xlink:href="#DejaVuSans-101"/>
      <use transform="translate(276.953125 0.015625)" xlink:href="#DejaVuSans-110"/>
      <use transform="translate(340.332031 0.015625)" xlink:href="#DejaVuSans-116"/>
      <use transform="translate(379.541016 0.015625)" xlink:href="#DejaVuSans-32"/>
      <use transform="translate(411.328125 0.015625)" xlink:href="#DejaVuSans-Oblique-73"/>
      <use transform="translate(440.820312 -16.390625)scale(0.7)" xlink:href="#DejaVuSans-Oblique-107"/>
      <use transform="translate(484.091797 0.015625)" xlink:href="#DejaVuSans-44"/>
      <use transform="translate(535.361328 0.015625)" xlink:href="#DejaVuSans-Oblique-107"/>
      <use transform="translate(612.753906 0.015625)" xlink:href="#DejaVuSans-8712"/>
      <use transform="translate(719.345703 0.015625)" xlink:href="#DejaVuSans-123"/>
      <use transform="translate(782.96875 0.015625)" xlink:href="#DejaVuSans-49"/>
      <use transform="translate(846.591797 0.015625)" xlink:href="#DejaVuSans-44"/>
      <use transform="translate(897.861328 0.015625)" xlink:href="#DejaVuSans-46"/>
      <use transform="translate(949.130859 0.015625)" xlink:href="#DejaVuSans-46"/>
      <use transform="translate(1000.400391 0.015625)" xlink:href="#DejaVuSans-44"/>
      <use transform="translate(1051.669922 0.015625)" xlink:href="#DejaVuSans-53"/>
      <use transform="translate(1113.542969 0.015625)" xlink:href="#DejaVuSans-125"/>
     </g>
    </g>
   </g>
   <g id="line2d_11">
    <path clip-path="url(#pfbfc00ff27)" d="M 100.803551 183.639538 
L 414.389725 183.639538 
L 414.502616 40.516168 
L 623.447175 40.516168 
L 623.560066 183.639538 
L 1041.562074 183.639538 
L 1041.562074 183.639538 
" style="fill:none;stroke:#aa3863;stroke-linecap:square;stroke-opacity:0.75;stroke-width:1.5;"/>
   </g>
   <g id="line2d_12">
    <path clip-path="url(#pfbfc00ff27)" d="M 100.803551 169.327201 
L 414.389725 169.327201 
L 414.502616 40.516168 
L 623.447175 40.516168 
L 623.560066 169.327201 
L 1041.562074 169.327201 
L 1041.562074 169.327201 
" style="fill:none;stroke:#d97020;stroke-linecap:square;stroke-opacity:0.75;stroke-width:1.5;"/>
   </g>
   <g id="line2d_13">
    <path clip-path="url(#pfbfc00ff27)" d="M 100.803551 155.014864 
L 414.389725 155.014864 
L 414.502616 40.516168 
L 623.447175 40.516168 
L 623.560066 155.014864 
L 1041.562074 155.014864 
L 1041.562074 155.014864 
" style="fill:none;stroke:#ef9f07;stroke-linecap:square;stroke-opacity:0.75;stroke-width:1.5;"/>
   </g>
   <g id="line2d_14">
    <path clip-path="url(#pfbfc00ff27)" d="M 100.803551 140.702527 
L 414.389725 140.702527 
L 414.502616 40.516168 
L 623.447175 40.516168 
L 623.560066 140.702527 
L 1041.562074 140.702527 
L 1041.562074 140.702527 
" style="fill:none;stroke:#449775;stroke-linecap:square;stroke-opacity:0.75;stroke-width:1.5;"/>
   </g>
   <g id="line2d_15">
    <path clip-path="url(#pfbfc00ff27)" d="M 100.803551 126.39019 
L 414.389725 126.39019 
L 414.502616 40.516168 
L 623.447175 40.516168 
L 623.560066 126.39019 
L 1041.562074 126.39019 
L 1041.562074 126.39019 
" style="fill:none;stroke:#3b7d86;stroke-linecap:square;stroke-opacity:0.75;stroke-width:1.5;"/>
   </g>
   <g id="patch_3">
    <path d="M 53.765625 197.951875 
L 53.765625 33.36 
" style="fill:none;stroke:#000000;stroke-linecap:square;stroke-linejoin:miter;stroke-width:0.8;"/>
   </g>
   <g id="patch_4">
    <path d="M 1088.6 197.951875 
L 1088.6 33.36 
" style="fill:none;stroke:#000000;stroke-linecap:square;stroke-linejoin:miter;stroke-width:0.8;"/>
   </g>
   <g id="patch_5">
    <path d="M 53.765625 197.951875 
L 1088.6 197.951875 
" style="fill:none;stroke:#000000;stroke-linecap:square;stroke-linejoin:miter;stroke-width:0.8;"/>
   </g>
   <g id="patch_6">
    <path d="M 53.765625 33.36 
L 1088.6 33.36 
" style="fill:none;stroke:#000000;stroke-linecap:square;stroke-linejoin:miter;stroke-width:0.8;"/>
   </g>
   <g id="legend_1">
    <g id="patch_7">
     <path d="M 1096.228805 114.750625 
L 1135.928805 114.750625 
Q 1137.928805 114.750625 1137.928805 112.750625 
L 1137.928805 40.36 
Q 1137.928805 38.36 1135.928805 38.36 
L 1096.228805 38.36 
Q 1094.228805 38.36 1094.228805 40.36 
L 1094.228805 112.750625 
Q 1094.228805 114.750625 1096.228805 114.750625 
z
" style="fill:#ffffff;opacity:0.8;stroke:#cccccc;stroke-linejoin:miter;"/>
    </g>
    <g id="line2d_16">
     <path d="M 1098.228805 46.458438 
L 1118.228805 46.458438 
" style="fill:none;stroke:#aa3863;stroke-linecap:square;stroke-opacity:0.75;stroke-width:1.5;"/>
    </g>
    <g id="line2d_17"/>
    <g id="text_12">
     <!-- $I_1$ -->
     <g transform="translate(1126.228805 49.958438)scale(0.1 -0.1)">
      <use transform="translate(0 0.09375)" xlink:href="#DejaVuSans-Oblique-73"/>
      <use transform="translate(29.492188 -16.3125)scale(0.7)" xlink:href="#DejaVuSans-49"/>
     </g>
    </g>
    <g id="line2d_18">
     <path d="M 1098.228805 61.136563 
L 1118.228805 61.136563 
" style="fill:none;stroke:#d97020;stroke-linecap:square;stroke-opacity:0.75;stroke-width:1.5;"/>
    </g>
    <g id="line2d_19"/>
    <g id="text_13">
     <!-- $I_2$ -->
     <g transform="translate(1126.228805 64.636563)scale(0.1 -0.1)">
      <use transform="translate(0 0.09375)" xlink:href="#DejaVuSans-Oblique-73"/>
      <use transform="translate(29.492188 -16.3125)scale(0.7)" xlink:href="#DejaVuSans-50"/>
     </g>
    </g>
    <g id="line2d_20">
     <path d="M 1098.228805 75.814688 
L 1118.228805 75.814688 
" style="fill:none;stroke:#ef9f07;stroke-linecap:square;stroke-opacity:0.75;stroke-width:1.5;"/>
    </g>
    <g id="line2d_21"/>
    <g id="text_14">
     <!-- $I_3$ -->
     <g transform="translate(1126.228805 79.314688)scale(0.1 -0.1)">
      <use transform="translate(0 0.09375)" xlink:href="#DejaVuSans-Oblique-73"/>
      <use transform="translate(29.492188 -16.3125)scale(0.7)" xlink:href="#DejaVuSans-51"/>
     </g>
    </g>
    <g id="line2d_22">
     <path d="M 1098.228805 90.492813 
L 1118.228805 90.492813 
" style="fill:none;stroke:#449775;stroke-linecap:square;stroke-opacity:0.75;stroke-width:1.5;"/>
    </g>
    <g id="line2d_23"/>
    <g id="text_15">
     <!-- $I_4$ -->
     <g transform="translate(1126.228805 93.992813)scale(0.1 -0.1)">
      <use transform="translate(0 0.09375)" xlink:href="#DejaVuSans-Oblique-73"/>
      <use transform="translate(29.492188 -16.3125)scale(0.7)" xlink:href="#DejaVuSans-52"/>
     </g>
    </g>
    <g id="line2d_24">
     <path d="M 1098.228805 105.170938 
L 1118.228805 105.170938 
" style="fill:none;stroke:#3b7d86;stroke-linecap:square;stroke-opacity:0.75;stroke-width:1.5;"/>
    </g>
    <g id="line2d_25"/>
    <g id="text_16">
     <!-- $I_5$ -->
     <g transform="translate(1126.228805 108.670938)scale(0.1 -0.1)">
      <use transform="translate(0 0.09375)" xlink:href="#DejaVuSans-Oblique-73"/>
      <use transform="translate(29.492188 -16.3125)scale(0.7)" xlink:href="#DejaVuSans-53"/>
     </g>
    </g>
   </g>
  </g>
  <g id="axes_2">
   <g id="patch_8">
    <path d="M 53.765625 390.021875 
L 1088.6 390.021875 
L 1088.6 225.43 
L 53.765625 225.43 
z
" style="fill:#ffffff;"/>
   </g>
   <g id="matplotlib.axis_3">
    <g id="xtick_6">
     <g id="line2d_26">
      <g>
       <use style="stroke:#000000;stroke-width:0.8;" x="100.803551" xlink:href="#m82e7c2785d" y="390.021875"/>
      </g>
     </g>
     <g id="text_17">
      <!-- 0 -->
      <g transform="translate(97.622301 404.620312)scale(0.1 -0.1)">
       <use xlink:href="#DejaVuSans-48"/>
      </g>
     </g>
    </g>
    <g id="xtick_7">
     <g id="line2d_27">
      <g>
       <use style="stroke:#000000;stroke-width:0.8;" x="309.861001" xlink:href="#m82e7c2785d" y="390.021875"/>
      </g>
     </g>
     <g id="text_18">
      <!-- 10 -->
      <g transform="translate(303.498501 404.620312)scale(0.1 -0.1)">
       <use xlink:href="#DejaVuSans-49"/>
       <use x="63.623047" xlink:href="#DejaVuSans-48"/>
      </g>
     </g>
    </g>
    <g id="xtick_8">
     <g id="line2d_28">
      <g>
       <use style="stroke:#000000;stroke-width:0.8;" x="518.91845" xlink:href="#m82e7c2785d" y="390.021875"/>
      </g>
     </g>
     <g id="text_19">
      <!-- 20 -->
      <g transform="translate(512.55595 404.620312)scale(0.1 -0.1)">
       <use xlink:href="#DejaVuSans-50"/>
       <use x="63.623047" xlink:href="#DejaVuSans-48"/>
      </g>
     </g>
    </g>
    <g id="xtick_9">
     <g id="line2d_29">
      <g>
       <use style="stroke:#000000;stroke-width:0.8;" x="727.9759" xlink:href="#m82e7c2785d" y="390.021875"/>
      </g>
     </g>
     <g id="text_20">
      <!-- 30 -->
      <g transform="translate(721.6134 404.620312)scale(0.1 -0.1)">
       <use xlink:href="#DejaVuSans-51"/>
       <use x="63.623047" xlink:href="#DejaVuSans-48"/>
      </g>
     </g>
    </g>
    <g id="xtick_10">
     <g id="line2d_30">
      <g>
       <use style="stroke:#000000;stroke-width:0.8;" x="937.033349" xlink:href="#m82e7c2785d" y="390.021875"/>
      </g>
     </g>
     <g id="text_21">
      <!-- 40 -->
      <g transform="translate(930.670849 404.620312)scale(0.1 -0.1)">
       <use xlink:href="#DejaVuSans-52"/>
       <use x="63.623047" xlink:href="#DejaVuSans-48"/>
      </g>
     </g>
    </g>
    <g id="text_22">
     <!-- Time ($10^{-2}$ seconds) -->
     <g transform="translate(519.532813 419.120312)scale(0.1 -0.1)">
      <defs>
       <path d="M -0.296875 72.90625 
L 61.375 72.90625 
L 61.375 64.59375 
L 35.5 64.59375 
L 35.5 0 
L 25.59375 0 
L 25.59375 64.59375 
L -0.296875 64.59375 
z
" id="DejaVuSans-84"/>
       <path d="M 9.421875 54.6875 
L 18.40625 54.6875 
L 18.40625 0 
L 9.421875 0 
z
M 9.421875 75.984375 
L 18.40625 75.984375 
L 18.40625 64.59375 
L 9.421875 64.59375 
z
" id="DejaVuSans-105"/>
       <path d="M 52 44.1875 
Q 55.375 50.25 60.0625 53.125 
Q 64.75 56 71.09375 56 
Q 79.640625 56 84.28125 50.015625 
Q 88.921875 44.046875 88.921875 33.015625 
L 88.921875 0 
L 79.890625 0 
L 79.890625 32.71875 
Q 79.890625 40.578125 77.09375 44.375 
Q 74.3125 48.1875 68.609375 48.1875 
Q 61.625 48.1875 57.5625 43.546875 
Q 53.515625 38.921875 53.515625 30.90625 
L 53.515625 0 
L 44.484375 0 
L 44.484375 32.71875 
Q 44.484375 40.625 41.703125 44.40625 
Q 38.921875 48.1875 33.109375 48.1875 
Q 26.21875 48.1875 22.15625 43.53125 
Q 18.109375 38.875 18.109375 30.90625 
L 18.109375 0 
L 9.078125 0 
L 9.078125 54.6875 
L 18.109375 54.6875 
L 18.109375 46.1875 
Q 21.1875 51.21875 25.484375 53.609375 
Q 29.78125 56 35.6875 56 
Q 41.65625 56 45.828125 52.96875 
Q 50 49.953125 52 44.1875 
z
" id="DejaVuSans-109"/>
       <path d="M 31 75.875 
Q 24.46875 64.65625 21.28125 53.65625 
Q 18.109375 42.671875 18.109375 31.390625 
Q 18.109375 20.125 21.3125 9.0625 
Q 24.515625 -2 31 -13.1875 
L 23.1875 -13.1875 
Q 15.875 -1.703125 12.234375 9.375 
Q 8.59375 20.453125 8.59375 31.390625 
Q 8.59375 42.28125 12.203125 53.3125 
Q 15.828125 64.359375 23.1875 75.875 
z
" id="DejaVuSans-40"/>
       <path d="M 10.59375 35.5 
L 73.1875 35.5 
L 73.1875 27.203125 
L 10.59375 27.203125 
z
" id="DejaVuSans-8722"/>
       <path d="M 44.28125 53.078125 
L 44.28125 44.578125 
Q 40.484375 46.53125 36.375 47.5 
Q 32.28125 48.484375 27.875 48.484375 
Q 21.1875 48.484375 17.84375 46.4375 
Q 14.5 44.390625 14.5 40.28125 
Q 14.5 37.15625 16.890625 35.375 
Q 19.28125 33.59375 26.515625 31.984375 
L 29.59375 31.296875 
Q 39.15625 29.25 43.1875 25.515625 
Q 47.21875 21.78125 47.21875 15.09375 
Q 47.21875 7.46875 41.1875 3.015625 
Q 35.15625 -1.421875 24.609375 -1.421875 
Q 20.21875 -1.421875 15.453125 -0.5625 
Q 10.6875 0.296875 5.421875 2 
L 5.421875 11.28125 
Q 10.40625 8.6875 15.234375 7.390625 
Q 20.0625 6.109375 24.8125 6.109375 
Q 31.15625 6.109375 34.5625 8.28125 
Q 37.984375 10.453125 37.984375 14.40625 
Q 37.984375 18.0625 35.515625 20.015625 
Q 33.0625 21.96875 24.703125 23.78125 
L 21.578125 24.515625 
Q 13.234375 26.265625 9.515625 29.90625 
Q 5.8125 33.546875 5.8125 39.890625 
Q 5.8125 47.609375 11.28125 51.796875 
Q 16.75 56 26.8125 56 
Q 31.78125 56 36.171875 55.265625 
Q 40.578125 54.546875 44.28125 53.078125 
z
" id="DejaVuSans-115"/>
       <path d="M 48.78125 52.59375 
L 48.78125 44.1875 
Q 44.96875 46.296875 41.140625 47.34375 
Q 37.3125 48.390625 33.40625 48.390625 
Q 24.65625 48.390625 19.8125 42.84375 
Q 14.984375 37.3125 14.984375 27.296875 
Q 14.984375 17.28125 19.8125 11.734375 
Q 24.65625 6.203125 33.40625 6.203125 
Q 37.3125 6.203125 41.140625 7.25 
Q 44.96875 8.296875 48.78125 10.40625 
L 48.78125 2.09375 
Q 45.015625 0.34375 40.984375 -0.53125 
Q 36.96875 -1.421875 32.421875 -1.421875 
Q 20.0625 -1.421875 12.78125 6.34375 
Q 5.515625 14.109375 5.515625 27.296875 
Q 5.515625 40.671875 12.859375 48.328125 
Q 20.21875 56 33.015625 56 
Q 37.15625 56 41.109375 55.140625 
Q 45.0625 54.296875 48.78125 52.59375 
z
" id="DejaVuSans-99"/>
       <path d="M 30.609375 48.390625 
Q 23.390625 48.390625 19.1875 42.75 
Q 14.984375 37.109375 14.984375 27.296875 
Q 14.984375 17.484375 19.15625 11.84375 
Q 23.34375 6.203125 30.609375 6.203125 
Q 37.796875 6.203125 41.984375 11.859375 
Q 46.1875 17.53125 46.1875 27.296875 
Q 46.1875 37.015625 41.984375 42.703125 
Q 37.796875 48.390625 30.609375 48.390625 
z
M 30.609375 56 
Q 42.328125 56 49.015625 48.375 
Q 55.71875 40.765625 55.71875 27.296875 
Q 55.71875 13.875 49.015625 6.21875 
Q 42.328125 -1.421875 30.609375 -1.421875 
Q 18.84375 -1.421875 12.171875 6.21875 
Q 5.515625 13.875 5.515625 27.296875 
Q 5.515625 40.765625 12.171875 48.375 
Q 18.84375 56 30.609375 56 
z
" id="DejaVuSans-111"/>
       <path d="M 45.40625 46.390625 
L 45.40625 75.984375 
L 54.390625 75.984375 
L 54.390625 0 
L 45.40625 0 
L 45.40625 8.203125 
Q 42.578125 3.328125 38.25 0.953125 
Q 33.9375 -1.421875 27.875 -1.421875 
Q 17.96875 -1.421875 11.734375 6.484375 
Q 5.515625 14.40625 5.515625 27.296875 
Q 5.515625 40.1875 11.734375 48.09375 
Q 17.96875 56 27.875 56 
Q 33.9375 56 38.25 53.625 
Q 42.578125 51.265625 45.40625 46.390625 
z
M 14.796875 27.296875 
Q 14.796875 17.390625 18.875 11.75 
Q 22.953125 6.109375 30.078125 6.109375 
Q 37.203125 6.109375 41.296875 11.75 
Q 45.40625 17.390625 45.40625 27.296875 
Q 45.40625 37.203125 41.296875 42.84375 
Q 37.203125 48.484375 30.078125 48.484375 
Q 22.953125 48.484375 18.875 42.84375 
Q 14.796875 37.203125 14.796875 27.296875 
z
" id="DejaVuSans-100"/>
       <path d="M 8.015625 75.875 
L 15.828125 75.875 
Q 23.140625 64.359375 26.78125 53.3125 
Q 30.421875 42.28125 30.421875 31.390625 
Q 30.421875 20.453125 26.78125 9.375 
Q 23.140625 -1.703125 15.828125 -13.1875 
L 8.015625 -13.1875 
Q 14.5 -2 17.703125 9.0625 
Q 20.90625 20.125 20.90625 31.390625 
Q 20.90625 42.671875 17.703125 53.65625 
Q 14.5 64.65625 8.015625 75.875 
z
" id="DejaVuSans-41"/>
      </defs>
      <use transform="translate(0 0.765625)" xlink:href="#DejaVuSans-84"/>
      <use transform="translate(61.083984 0.765625)" xlink:href="#DejaVuSans-105"/>
      <use transform="translate(88.867188 0.765625)" xlink:href="#DejaVuSans-109"/>
      <use transform="translate(186.279297 0.765625)" xlink:href="#DejaVuSans-101"/>
      <use transform="translate(247.802734 0.765625)" xlink:href="#DejaVuSans-32"/>
      <use transform="translate(279.589844 0.765625)" xlink:href="#DejaVuSans-40"/>
      <use transform="translate(318.603516 0.765625)" xlink:href="#DejaVuSans-49"/>
      <use transform="translate(382.226562 0.765625)" xlink:href="#DejaVuSans-48"/>
      <use transform="translate(446.806641 39.046875)scale(0.7)" xlink:href="#DejaVuSans-8722"/>
      <use transform="translate(505.458984 39.046875)scale(0.7)" xlink:href="#DejaVuSans-50"/>
      <use transform="translate(552.729492 0.765625)" xlink:href="#DejaVuSans-32"/>
      <use transform="translate(584.516602 0.765625)" xlink:href="#DejaVuSans-115"/>
      <use transform="translate(636.616211 0.765625)" xlink:href="#DejaVuSans-101"/>
      <use transform="translate(698.139648 0.765625)" xlink:href="#DejaVuSans-99"/>
      <use transform="translate(753.120117 0.765625)" xlink:href="#DejaVuSans-111"/>
      <use transform="translate(814.301758 0.765625)" xlink:href="#DejaVuSans-110"/>
      <use transform="translate(877.680664 0.765625)" xlink:href="#DejaVuSans-100"/>
      <use transform="translate(941.157227 0.765625)" xlink:href="#DejaVuSans-115"/>
      <use transform="translate(993.256836 0.765625)" xlink:href="#DejaVuSans-41"/>
     </g>
    </g>
   </g>
   <g id="matplotlib.axis_4">
    <g id="ytick_6">
     <g id="line2d_31">
      <g>
       <use style="stroke:#000000;stroke-width:0.8;" x="53.765625" xlink:href="#m3c1533e8ba" y="382.540426"/>
      </g>
     </g>
     <g id="text_23">
      <!-- 0.00 -->
      <g transform="translate(24.5 386.339645)scale(0.1 -0.1)">
       <use xlink:href="#DejaVuSans-48"/>
       <use x="63.623047" xlink:href="#DejaVuSans-46"/>
       <use x="95.410156" xlink:href="#DejaVuSans-48"/>
       <use x="159.033203" xlink:href="#DejaVuSans-48"/>
      </g>
     </g>
    </g>
    <g id="ytick_7">
     <g id="line2d_32">
      <g>
       <use style="stroke:#000000;stroke-width:0.8;" x="53.765625" xlink:href="#m3c1533e8ba" y="357.602263"/>
      </g>
     </g>
     <g id="text_24">
      <!-- 0.25 -->
      <g transform="translate(24.5 361.401482)scale(0.1 -0.1)">
       <use xlink:href="#DejaVuSans-48"/>
       <use x="63.623047" xlink:href="#DejaVuSans-46"/>
       <use x="95.410156" xlink:href="#DejaVuSans-50"/>
       <use x="159.033203" xlink:href="#DejaVuSans-53"/>
      </g>
     </g>
    </g>
    <g id="ytick_8">
     <g id="line2d_33">
      <g>
       <use style="stroke:#000000;stroke-width:0.8;" x="53.765625" xlink:href="#m3c1533e8ba" y="332.6641"/>
      </g>
     </g>
     <g id="text_25">
      <!-- 0.50 -->
      <g transform="translate(24.5 336.463319)scale(0.1 -0.1)">
       <use xlink:href="#DejaVuSans-48"/>
       <use x="63.623047" xlink:href="#DejaVuSans-46"/>
       <use x="95.410156" xlink:href="#DejaVuSans-53"/>
       <use x="159.033203" xlink:href="#DejaVuSans-48"/>
      </g>
     </g>
    </g>
    <g id="ytick_9">
     <g id="line2d_34">
      <g>
       <use style="stroke:#000000;stroke-width:0.8;" x="53.765625" xlink:href="#m3c1533e8ba" y="307.725938"/>
      </g>
     </g>
     <g id="text_26">
      <!-- 0.75 -->
      <g transform="translate(24.5 311.525156)scale(0.1 -0.1)">
       <defs>
        <path d="M 8.203125 72.90625 
L 55.078125 72.90625 
L 55.078125 68.703125 
L 28.609375 0 
L 18.3125 0 
L 43.21875 64.59375 
L 8.203125 64.59375 
z
" id="DejaVuSans-55"/>
       </defs>
       <use xlink:href="#DejaVuSans-48"/>
       <use x="63.623047" xlink:href="#DejaVuSans-46"/>
       <use x="95.410156" xlink:href="#DejaVuSans-55"/>
       <use x="159.033203" xlink:href="#DejaVuSans-53"/>
      </g>
     </g>
    </g>
    <g id="ytick_10">
     <g id="line2d_35">
      <g>
       <use style="stroke:#000000;stroke-width:0.8;" x="53.765625" xlink:href="#m3c1533e8ba" y="282.787775"/>
      </g>
     </g>
     <g id="text_27">
      <!-- 1.00 -->
      <g transform="translate(24.5 286.586993)scale(0.1 -0.1)">
       <use xlink:href="#DejaVuSans-49"/>
       <use x="63.623047" xlink:href="#DejaVuSans-46"/>
       <use x="95.410156" xlink:href="#DejaVuSans-48"/>
       <use x="159.033203" xlink:href="#DejaVuSans-48"/>
      </g>
     </g>
    </g>
    <g id="ytick_11">
     <g id="line2d_36">
      <g>
       <use style="stroke:#000000;stroke-width:0.8;" x="53.765625" xlink:href="#m3c1533e8ba" y="257.849612"/>
      </g>
     </g>
     <g id="text_28">
      <!-- 1.25 -->
      <g transform="translate(24.5 261.64883)scale(0.1 -0.1)">
       <use xlink:href="#DejaVuSans-49"/>
       <use x="63.623047" xlink:href="#DejaVuSans-46"/>
       <use x="95.410156" xlink:href="#DejaVuSans-50"/>
       <use x="159.033203" xlink:href="#DejaVuSans-53"/>
      </g>
     </g>
    </g>
    <g id="ytick_12">
     <g id="line2d_37">
      <g>
       <use style="stroke:#000000;stroke-width:0.8;" x="53.765625" xlink:href="#m3c1533e8ba" y="232.911449"/>
      </g>
     </g>
     <g id="text_29">
      <!-- 1.50 -->
      <g transform="translate(24.5 236.710668)scale(0.1 -0.1)">
       <use xlink:href="#DejaVuSans-49"/>
       <use x="63.623047" xlink:href="#DejaVuSans-46"/>
       <use x="95.410156" xlink:href="#DejaVuSans-53"/>
       <use x="159.033203" xlink:href="#DejaVuSans-48"/>
      </g>
     </g>
    </g>
    <g id="text_30">
     <!-- Voltage $V_k, k \in \{1,..,5\}$ -->
     <g transform="translate(18.4 368.725937)rotate(-90)scale(0.1 -0.1)">
      <defs>
       <path d="M 28.609375 0 
L 0.78125 72.90625 
L 11.078125 72.90625 
L 34.1875 11.53125 
L 57.328125 72.90625 
L 67.578125 72.90625 
L 39.796875 0 
z
" id="DejaVuSans-86"/>
       <path d="M 9.421875 75.984375 
L 18.40625 75.984375 
L 18.40625 0 
L 9.421875 0 
z
" id="DejaVuSans-108"/>
       <path d="M 34.28125 27.484375 
Q 23.390625 27.484375 19.1875 25 
Q 14.984375 22.515625 14.984375 16.5 
Q 14.984375 11.71875 18.140625 8.90625 
Q 21.296875 6.109375 26.703125 6.109375 
Q 34.1875 6.109375 38.703125 11.40625 
Q 43.21875 16.703125 43.21875 25.484375 
L 43.21875 27.484375 
z
M 52.203125 31.203125 
L 52.203125 0 
L 43.21875 0 
L 43.21875 8.296875 
Q 40.140625 3.328125 35.546875 0.953125 
Q 30.953125 -1.421875 24.3125 -1.421875 
Q 15.921875 -1.421875 10.953125 3.296875 
Q 6 8.015625 6 15.921875 
Q 6 25.140625 12.171875 29.828125 
Q 18.359375 34.515625 30.609375 34.515625 
L 43.21875 34.515625 
L 43.21875 35.40625 
Q 43.21875 41.609375 39.140625 45 
Q 35.0625 48.390625 27.6875 48.390625 
Q 23 48.390625 18.546875 47.265625 
Q 14.109375 46.140625 10.015625 43.890625 
L 10.015625 52.203125 
Q 14.9375 54.109375 19.578125 55.046875 
Q 24.21875 56 28.609375 56 
Q 40.484375 56 46.34375 49.84375 
Q 52.203125 43.703125 52.203125 31.203125 
z
" id="DejaVuSans-97"/>
       <path d="M 45.40625 27.984375 
Q 45.40625 37.75 41.375 43.109375 
Q 37.359375 48.484375 30.078125 48.484375 
Q 22.859375 48.484375 18.828125 43.109375 
Q 14.796875 37.75 14.796875 27.984375 
Q 14.796875 18.265625 18.828125 12.890625 
Q 22.859375 7.515625 30.078125 7.515625 
Q 37.359375 7.515625 41.375 12.890625 
Q 45.40625 18.265625 45.40625 27.984375 
z
M 54.390625 6.78125 
Q 54.390625 -7.171875 48.1875 -13.984375 
Q 42 -20.796875 29.203125 -20.796875 
Q 24.46875 -20.796875 20.265625 -20.09375 
Q 16.0625 -19.390625 12.109375 -17.921875 
L 12.109375 -9.1875 
Q 16.0625 -11.328125 19.921875 -12.34375 
Q 23.78125 -13.375 27.78125 -13.375 
Q 36.625 -13.375 41.015625 -8.765625 
Q 45.40625 -4.15625 45.40625 5.171875 
L 45.40625 9.625 
Q 42.625 4.78125 38.28125 2.390625 
Q 33.9375 0 27.875 0 
Q 17.828125 0 11.671875 7.65625 
Q 5.515625 15.328125 5.515625 27.984375 
Q 5.515625 40.671875 11.671875 48.328125 
Q 17.828125 56 27.875 56 
Q 33.9375 56 38.28125 53.609375 
Q 42.625 51.21875 45.40625 46.390625 
L 45.40625 54.6875 
L 54.390625 54.6875 
z
" id="DejaVuSans-103"/>
       <path d="M 20.609375 0 
L 7.8125 72.90625 
L 17.484375 72.90625 
L 28.078125 10.203125 
L 63.484375 72.90625 
L 74.21875 72.90625 
L 32.078125 0 
z
" id="DejaVuSans-Oblique-86"/>
      </defs>
      <use transform="translate(0 0.015625)" xlink:href="#DejaVuSans-86"/>
      <use transform="translate(68.408203 0.015625)" xlink:href="#DejaVuSans-111"/>
      <use transform="translate(129.589844 0.015625)" xlink:href="#DejaVuSans-108"/>
      <use transform="translate(157.373047 0.015625)" xlink:href="#DejaVuSans-116"/>
      <use transform="translate(196.582031 0.015625)" xlink:href="#DejaVuSans-97"/>
      <use transform="translate(257.861328 0.015625)" xlink:href="#DejaVuSans-103"/>
      <use transform="translate(321.337891 0.015625)" xlink:href="#DejaVuSans-101"/>
      <use transform="translate(382.861328 0.015625)" xlink:href="#DejaVuSans-32"/>
      <use transform="translate(414.648438 0.015625)" xlink:href="#DejaVuSans-Oblique-86"/>
      <use transform="translate(483.056641 -16.390625)scale(0.7)" xlink:href="#DejaVuSans-Oblique-107"/>
      <use transform="translate(526.328125 0.015625)" xlink:href="#DejaVuSans-44"/>
      <use transform="translate(577.597656 0.015625)" xlink:href="#DejaVuSans-Oblique-107"/>
      <use transform="translate(654.990234 0.015625)" xlink:href="#DejaVuSans-8712"/>
      <use transform="translate(761.582031 0.015625)" xlink:href="#DejaVuSans-123"/>
      <use transform="translate(825.205078 0.015625)" xlink:href="#DejaVuSans-49"/>
      <use transform="translate(888.828125 0.015625)" xlink:href="#DejaVuSans-44"/>
      <use transform="translate(940.097656 0.015625)" xlink:href="#DejaVuSans-46"/>
      <use transform="translate(991.367188 0.015625)" xlink:href="#DejaVuSans-46"/>
      <use transform="translate(1042.636719 0.015625)" xlink:href="#DejaVuSans-44"/>
      <use transform="translate(1093.90625 0.015625)" xlink:href="#DejaVuSans-53"/>
      <use transform="translate(1155.779297 0.015625)" xlink:href="#DejaVuSans-125"/>
     </g>
    </g>
   </g>
   <g id="line2d_38">
    <path clip-path="url(#p2c15dde6f1)" d="M 100.803551 382.540426 
L 103.025832 373.486816 
L 105.260656 365.302669 
L 107.418129 358.189906 
L 109.86201 350.971605 
L 112.253628 344.679307 
L 114.549078 339.280794 
L 116.687736 334.75731 
L 119.056357 330.258964 
L 121.763651 325.704557 
L 124.167812 322.125931 
L 126.939913 318.479573 
L 129.258361 315.780066 
L 131.884122 313.063303 
L 134.921727 310.31791 
L 138.519606 307.542393 
L 141.162092 305.787544 
L 144.293772 303.975537 
L 148.021267 302.144477 
L 152.597534 300.300151 
L 155.319462 299.379932 
L 162.222539 297.519146 
L 165.983483 296.736088 
L 171.076122 295.877118 
L 177.975018 295.001789 
L 188.258554 294.131945 
L 208.25699 293.288936 
L 213.217923 293.177911 
L 216.983048 293.109481 
L 225.065209 292.998456 
L 228.05473 292.967034 
L 244.495008 292.856009 
L 247.051781 292.845236 
L 414.418993 292.735508 
L 417.038483 290.389226 
L 419.359021 288.542605 
L 421.90116 286.741471 
L 426.8161 283.823307 
L 428.879497 282.788373 
L 428.881588 382.536611 
L 428.992388 381.956612 
L 431.206307 370.989269 
L 433.303153 361.619801 
L 435.531705 352.640068 
L 437.76862 344.539654 
L 439.978357 337.344994 
L 442.46405 330.110732 
L 444.531628 324.715111 
L 446.820808 319.331859 
L 449.425663 313.882172 
L 451.840277 309.402281 
L 454.018656 305.781559 
L 456.439541 302.176498 
L 459.213733 298.527346 
L 461.53218 295.82804 
L 464.155851 293.113471 
L 467.193456 290.368078 
L 469.493088 288.539313 
L 473.619882 285.722099 
L 476.567592 284.024308 
L 479.009383 282.788373 
L 479.011474 382.536092 
L 479.122274 381.956096 
L 481.336192 370.98877 
L 483.433039 361.619402 
L 485.661591 352.639669 
L 487.898506 344.539255 
L 490.419739 336.390261 
L 492.926337 329.206574 
L 495.399487 322.914675 
L 497.780651 317.521049 
L 500.002932 313.012429 
L 501.99734 309.354599 
L 504.152722 305.774776 
L 506.569427 302.176398 
L 508.632824 299.416542 
L 511.71433 295.770482 
L 514.285737 293.113371 
L 517.323342 290.367979 
L 519.622974 288.539313 
L 522.160931 286.741371 
L 525.064739 284.93505 
L 528.474466 283.110674 
L 529.139269 282.788373 
L 529.141359 382.535574 
L 529.25216 381.95558 
L 531.466078 370.988271 
L 533.774072 360.726516 
L 536.027712 351.742393 
L 538.291804 343.640882 
L 540.5329 336.440935 
L 542.713369 330.138862 
L 544.7914 324.714612 
L 547.080579 319.33146 
L 549.219237 314.807877 
L 551.587858 310.309431 
L 554.295152 305.754925 
L 556.699312 302.176199 
L 559.471414 298.529741 
L 561.791952 295.82784 
L 564.415623 293.113271 
L 567.453228 290.367879 
L 569.75286 288.539213 
L 572.290817 286.741371 
L 575.196716 284.933753 
L 578.604352 283.110574 
L 579.269155 282.788273 
L 579.271245 382.535056 
L 579.382046 381.955065 
L 581.593873 370.997648 
L 583.903958 360.726117 
L 586.157598 351.741994 
L 588.42169 343.640583 
L 590.662786 336.440636 
L 592.843255 330.138563 
L 594.921286 324.714413 
L 597.210465 319.331261 
L 599.349123 314.807677 
L 601.717744 310.309332 
L 603.848039 306.67654 
L 606.906549 302.067668 
L 608.907229 299.397688 
L 611.969921 295.774872 
L 614.545509 293.113172 
L 617.583113 290.367779 
L 621.180992 287.592261 
L 623.478533 286.083602 
L 630.682653 288.030574 
L 634.366245 288.795179 
L 639.431707 289.648961 
L 646.328513 290.523992 
L 656.61623 291.394234 
L 676.612575 292.237144 
L 681.573508 292.348168 
L 685.338633 292.416599 
L 693.420794 292.527624 
L 696.410315 292.559046 
L 712.850593 292.67007 
L 715.407366 292.680844 
L 1041.562074 292.76304 
L 1041.562074 292.76304 
" style="fill:none;stroke:#aa3863;stroke-linecap:square;stroke-opacity:0.75;stroke-width:1.5;"/>
   </g>
   <g id="line2d_39">
    <path clip-path="url(#p2c15dde6f1)" d="M 100.803551 352.614631 
L 103.05719 346.294303 
L 105.590967 339.956418 
L 107.60419 335.440516 
L 109.809746 330.967607 
L 112.303801 326.446817 
L 114.532354 322.839162 
L 117.032681 319.223927 
L 119.909311 315.565897 
L 122.30511 312.880855 
L 124.211714 310.953335 
L 127.115522 308.335626 
L 129.427697 306.496187 
L 133.558672 303.67608 
L 136.502201 301.980783 
L 140.229696 300.149624 
L 144.805963 298.305197 
L 150.701383 296.45319 
L 154.019125 295.618858 
L 158.116651 294.755499 
L 163.284551 293.882165 
L 170.183447 293.006835 
L 180.469073 292.136793 
L 200.463328 291.293982 
L 205.422171 291.182958 
L 209.187295 291.114527 
L 217.265275 291.003503 
L 220.254797 290.972081 
L 236.68044 290.861056 
L 239.237213 290.850283 
L 414.423175 290.739557 
L 417.117925 288.571533 
L 419.693513 286.744863 
L 422.603593 284.934352 
L 426.011229 283.111173 
L 426.678122 282.787775 
L 426.680213 382.529935 
L 426.791013 381.949971 
L 429.004932 370.983283 
L 431.101778 361.614415 
L 433.32824 352.64326 
L 435.565154 344.542447 
L 437.776982 337.341103 
L 439.926093 331.037135 
L 442.323982 324.72758 
L 444.251491 320.155018 
L 446.31907 315.696873 
L 448.629154 311.210597 
L 451.261188 306.66826 
L 453.604722 303.077963 
L 456.278567 299.444373 
L 458.525934 296.730003 
L 461.038805 294.02112 
L 463.923797 291.287299 
L 467.3168 288.519562 
L 469.831761 286.739177 
L 472.733478 284.934352 
L 476.141115 283.111073 
L 476.805918 282.788772 
L 476.808008 382.540389 
L 476.918809 381.960369 
L 479.132727 370.99256 
L 481.442812 360.721628 
L 483.696451 351.737905 
L 485.958453 343.643974 
L 488.199548 336.443728 
L 490.382108 330.13557 
L 492.821809 323.821626 
L 494.776496 319.268417 
L 496.890067 314.801293 
L 499.256597 310.307337 
L 501.963891 305.75303 
L 504.368052 302.174603 
L 506.429358 299.417639 
L 508.660001 296.725016 
L 512.234883 292.966535 
L 515.103152 290.382742 
L 517.417418 288.541508 
L 519.957466 286.74197 
L 522.863364 284.934252 
L 526.271001 283.111073 
L 526.935803 282.788672 
L 526.937894 382.539871 
L 527.048694 381.959855 
L 529.260522 371.001937 
L 531.572698 360.721229 
L 533.826337 351.737605 
L 535.83747 344.498755 
L 538.036754 337.340505 
L 540.185864 331.036536 
L 542.583753 324.727081 
L 544.879204 319.328667 
L 547.015771 314.809573 
L 549.386483 310.307137 
L 552.093777 305.75283 
L 554.497937 302.174403 
L 557.270039 298.528145 
L 559.588486 295.828738 
L 562.212157 293.114069 
L 565.251853 290.366782 
L 568.849731 287.591364 
L 571.492218 285.836615 
L 574.623898 284.024708 
L 576.691476 282.968826 
L 577.065689 282.788672 
L 577.06778 382.539353 
L 577.17858 381.959339 
L 579.392499 370.991663 
L 581.700493 360.729609 
L 583.956223 351.737206 
L 586.218224 343.643276 
L 588.45932 336.44313 
L 590.64188 330.135071 
L 592.71782 324.716408 
L 595.00909 319.328368 
L 597.611855 313.88317 
L 600.026469 309.403179 
L 602.813205 304.836801 
L 605.282173 301.269547 
L 607.404106 298.522858 
L 609.718372 295.828638 
L 612.342043 293.11397 
L 615.381738 290.366682 
L 618.977527 287.59276 
L 623.371914 284.790808 
L 623.595606 284.79001 
L 627.816476 285.8829 
L 632.045708 286.777681 
L 637.228242 287.653809 
L 644.127138 288.529138 
L 654.410674 289.398981 
L 674.4112 290.242091 
L 679.370043 290.353115 
L 683.135167 290.421546 
L 691.217328 290.53257 
L 694.20685 290.563993 
L 710.649218 290.675017 
L 713.205991 290.685791 
L 1041.562074 290.767987 
L 1041.562074 290.767987 
" style="fill:none;stroke:#d97020;stroke-linecap:square;stroke-opacity:0.75;stroke-width:1.5;"/>
   </g>
   <g id="line2d_40">
    <path clip-path="url(#p2c15dde6f1)" d="M 100.803551 332.6641 
L 103.113636 328.072486 
L 105.67459 323.541521 
L 107.959588 319.941547 
L 110.543538 316.317733 
L 112.726097 313.587104 
L 115.134439 310.886999 
L 117.883545 308.162056 
L 121.088395 305.406289 
L 124.918328 302.621894 
L 129.65766 299.812759 
L 133.029757 298.168237 
L 137.645745 296.306852 
L 140.361402 295.389128 
L 143.355104 294.506317 
L 151.884648 292.58558 
L 156.212138 291.872648 
L 162.998142 291.013478 
L 173.304675 290.14144 
L 193.292657 289.298929 
L 198.2515 289.187905 
L 202.016625 289.119474 
L 210.096695 289.00845 
L 213.086217 288.977028 
L 229.51186 288.866003 
L 232.068633 288.85523 
L 414.427356 288.744504 
L 417.218273 286.753441 
L 420.140896 284.934651 
L 422.097674 283.851437 
L 424.215426 282.787974 
L 424.217516 382.531773 
L 424.328317 381.9518 
L 426.540144 370.994755 
L 428.639081 361.615911 
L 430.867634 352.636576 
L 433.102458 344.543644 
L 435.314285 337.3422 
L 437.465487 331.032247 
L 439.861285 324.728378 
L 442.156736 319.329864 
L 444.295394 314.80648 
L 446.21036 311.130695 
L 448.79431 306.675542 
L 451.139934 303.081554 
L 453.81587 299.444772 
L 456.924554 295.764996 
L 459.489689 293.114668 
L 461.534271 291.223058 
L 464.837379 288.53233 
L 468.951629 285.724094 
L 471.90143 284.025007 
L 473.969008 282.969125 
L 474.345311 282.787974 
L 474.347402 382.531255 
L 474.458202 381.951284 
L 476.672121 370.984381 
L 478.980115 360.723125 
L 481.233754 351.739301 
L 483.244887 344.500251 
L 485.444171 337.341901 
L 487.593282 331.037833 
L 489.991171 324.728178 
L 492.286622 319.329665 
L 494.425279 314.806281 
L 496.340246 311.130495 
L 498.922105 306.678834 
L 501.271911 303.078362 
L 503.945756 299.444672 
L 506.195214 296.727809 
L 508.705994 294.021419 
L 510.677405 292.112752 
L 513.771456 289.457636 
L 517.622294 286.657479 
L 520.406939 284.930861 
L 523.808304 283.111272 
L 524.475197 282.787874 
L 524.477288 382.530737 
L 524.588088 381.950768 
L 526.802007 370.983982 
L 528.898853 361.615113 
L 531.127405 352.635778 
L 533.362229 344.542945 
L 535.574057 337.341602 
L 537.723168 331.037534 
L 540.121057 324.727879 
L 542.416507 319.329365 
L 545.019273 313.884068 
L 547.433886 309.403977 
L 550.220622 304.8375 
L 552.691681 301.267253 
L 555.568312 297.609323 
L 557.962019 294.926575 
L 560.711125 292.201732 
L 562.833058 290.330272 
L 565.09506 288.533827 
L 567.626745 286.740673 
L 570.530553 284.934452 
L 573.93819 283.111173 
L 574.605083 282.787874 
L 574.607174 382.530219 
L 574.717974 381.950253 
L 576.931892 370.983483 
L 579.239887 360.722227 
L 581.493526 351.738503 
L 583.755528 343.644473 
L 585.996623 336.444127 
L 588.179183 330.135969 
L 590.618884 323.821926 
L 592.956146 318.426305 
L 595.621628 312.966044 
L 598.088506 308.496826 
L 600.32124 304.882189 
L 602.821567 301.267153 
L 604.941409 298.523257 
L 608.175528 294.838194 
L 610.83683 292.205522 
L 612.960853 290.331968 
L 615.224945 288.533727 
L 617.756631 286.740673 
L 620.660439 284.934352 
L 623.50153 283.435269 
L 629.800431 284.823826 
L 634.769726 285.659254 
L 641.664441 286.533985 
L 651.952158 287.404228 
L 671.944322 288.246938 
L 676.903165 288.357963 
L 680.668289 288.426393 
L 688.746269 288.537418 
L 691.735791 288.56884 
L 708.163525 288.679864 
L 710.720298 288.690638 
L 1041.562074 288.772934 
L 1041.562074 288.772934 
" style="fill:none;stroke:#ef9f07;stroke-linecap:square;stroke-opacity:0.75;stroke-width:1.5;"/>
   </g>
   <g id="line2d_41">
    <path clip-path="url(#p2c15dde6f1)" d="M 100.803551 302.738305 
L 103.632098 300.718613 
L 106.554722 298.899723 
L 109.962358 297.076544 
L 112.155371 296.050887 
L 116.428505 294.336638 
L 122.409639 292.456001 
L 125.708565 291.627057 
L 129.799819 290.765194 
L 134.96772 289.891859 
L 141.864525 289.016829 
L 152.150151 288.146786 
L 172.148587 287.303777 
L 177.10952 287.192752 
L 180.874645 287.124322 
L 188.956806 287.013297 
L 191.946327 286.981875 
L 208.386605 286.87085 
L 210.943378 286.860077 
L 414.431537 286.750249 
L 417.349979 284.934252 
L 419.306757 283.851138 
L 421.422418 282.788672 
L 421.424509 382.539247 
L 421.535309 381.959233 
L 423.749227 370.991563 
L 426.057222 360.729509 
L 428.312952 351.737107 
L 430.574953 343.643276 
L 432.816049 336.44303 
L 434.998609 330.134972 
L 437.438309 323.821028 
L 439.775571 318.425507 
L 441.95395 313.911899 
L 444.385288 309.399488 
L 447.169933 304.836702 
L 449.638902 301.269447 
L 452.515532 297.611218 
L 455.895991 293.908699 
L 458.661821 291.294381 
L 462.063186 288.519263 
L 466.15444 285.727585 
L 469.110513 284.024608 
L 471.552304 282.788573 
L 471.554394 382.538729 
L 471.665195 381.958719 
L 473.879113 370.991164 
L 475.97805 361.612619 
L 478.204512 352.641664 
L 480.441427 344.54105 
L 482.653254 337.339806 
L 484.802365 331.035938 
L 487.200254 324.726483 
L 489.495705 319.328168 
L 491.632272 314.809074 
L 494.002983 310.306838 
L 496.131188 306.677737 
L 498.478903 303.080457 
L 500.487945 300.307034 
L 503.431474 296.695988 
L 505.915077 294.020721 
L 508.80007 291.287 
L 511.007716 289.435491 
L 514.820924 286.663963 
L 517.613932 284.931659 
L 521.017387 283.110873 
L 521.68219 282.788573 
L 521.68428 382.538211 
L 521.795081 381.958203 
L 524.008999 370.990665 
L 526.105845 361.621098 
L 528.334398 352.641265 
L 530.571312 344.540651 
L 532.78105 337.345991 
L 534.932251 331.035738 
L 536.978923 325.605802 
L 539.2242 320.229633 
L 541.768429 314.796306 
L 544.132869 310.306638 
L 546.261074 306.677537 
L 548.608789 303.080257 
L 551.284724 299.443674 
L 554.393409 295.763999 
L 556.958544 293.11377 
L 559.996148 290.368278 
L 563.596118 287.591164 
L 566.238604 285.836415 
L 569.370284 284.024508 
L 571.812075 282.788573 
L 571.814166 382.537692 
L 571.924966 381.957687 
L 574.138885 370.990166 
L 576.446879 360.728212 
L 578.702609 351.736009 
L 580.964611 343.642279 
L 583.205706 336.442132 
L 585.386176 330.139959 
L 587.464207 324.71561 
L 589.755476 319.32767 
L 592.358242 313.882571 
L 594.772855 309.40268 
L 596.953324 305.778566 
L 599.37421 302.173805 
L 602.144221 298.530239 
L 604.464758 295.828239 
L 607.088429 293.11367 
L 610.126034 290.368178 
L 613.726003 287.591064 
L 616.36849 285.836315 
L 619.50017 284.024408 
L 621.941961 282.788473 
L 621.944052 382.537174 
L 622.054852 381.957171 
L 623.787939 373.499534 
L 625.995585 364.808694 
L 628.286855 356.70848 
L 630.559309 349.50564 
L 632.773228 343.202369 
L 635.258921 336.877054 
L 637.242876 332.341201 
L 639.881181 326.939196 
L 641.858864 323.314085 
L 644.010066 319.741444 
L 646.42886 316.139974 
L 648.490167 313.38301 
L 650.72081 310.690387 
L 653.229499 307.986392 
L 656.114492 305.252571 
L 659.507494 302.484833 
L 662.022455 300.704548 
L 664.924173 298.899623 
L 668.331809 297.076444 
L 672.441879 295.238302 
L 677.597235 293.389287 
L 684.473135 291.536282 
L 688.242441 290.751228 
L 693.337171 289.891859 
L 700.233976 289.016829 
L 710.519603 288.146786 
L 730.518038 287.303777 
L 735.478971 287.192752 
L 739.244096 287.124322 
L 747.326257 287.013297 
L 750.315779 286.981875 
L 766.756057 286.87085 
L 769.312829 286.860077 
L 1041.562074 286.777881 
L 1041.562074 286.777881 
" style="fill:none;stroke:#449775;stroke-linecap:square;stroke-opacity:0.75;stroke-width:1.5;"/>
   </g>
   <g id="line2d_42">
    <path clip-path="url(#p2c15dde6f1)" d="M 100.803551 292.76304 
L 104.518502 291.463761 
L 111.730984 289.514395 
L 121.79501 287.706578 
L 127.330851 287.026365 
L 137.677104 286.150536 
L 157.642091 285.309123 
L 162.598843 285.198098 
L 166.366058 285.129568 
L 174.439857 285.018543 
L 177.429378 284.987121 
L 193.827844 284.876096 
L 196.384617 284.865323 
L 414.439899 284.754298 
L 417.523497 283.116659 
L 418.200843 282.788174 
L 418.202933 382.53367 
L 418.313734 381.953686 
L 420.527652 370.986575 
L 422.835646 360.72502 
L 425.089286 351.740997 
L 427.353378 343.639685 
L 429.594474 336.439738 
L 432.119888 329.199691 
L 434.590947 322.913578 
L 436.972111 317.520052 
L 439.194392 313.011531 
L 441.686357 308.494332 
L 444.556715 303.916683 
L 447.094673 300.3608 
L 450.086285 296.687808 
L 452.563616 294.019724 
L 455.448608 291.286102 
L 457.654165 289.436389 
L 461.469463 286.663265 
L 464.26038 284.932357 
L 467.663835 283.111472 
L 468.330728 282.788074 
L 468.332819 382.533152 
L 468.44362 381.953171 
L 470.655447 370.995952 
L 472.965532 360.724621 
L 475.219171 351.740598 
L 477.483264 343.639286 
L 479.722269 336.445823 
L 481.904829 330.137565 
L 483.98286 324.713515 
L 486.272039 319.330463 
L 488.410697 314.806979 
L 490.779317 310.308633 
L 492.909613 306.676041 
L 495.257328 303.07886 
L 497.931173 299.445171 
L 500.180631 296.728307 
L 502.691411 294.021719 
L 505.578494 291.286002 
L 508.969406 288.519961 
L 513.06066 285.728084 
L 518.201383 282.912565 
L 518.460614 282.788074 
L 518.462705 382.532634 
L 518.573505 381.952656 
L 520.785333 370.995453 
L 523.095418 360.724222 
L 525.349057 351.740299 
L 527.36019 344.501149 
L 529.868879 336.39465 
L 532.034715 330.137266 
L 534.476506 323.817935 
L 536.811677 318.427302 
L 539.47716 312.966942 
L 541.946128 308.494033 
L 544.176771 304.882887 
L 546.677098 301.267751 
L 549.553729 297.609722 
L 552.934188 293.907402 
L 555.697927 291.29518 
L 557.911846 289.437885 
L 561.729235 286.663165 
L 564.522242 284.93096 
L 567.923607 283.111372 
L 568.5905 282.787974 
L 568.592591 382.532115 
L 568.703391 381.95214 
L 570.915219 370.995054 
L 573.014156 361.61621 
L 575.242708 352.636776 
L 577.477532 344.543843 
L 579.68936 337.3424 
L 581.840561 331.032446 
L 584.23636 324.728577 
L 586.53181 319.329964 
L 589.136666 313.880477 
L 591.55128 309.400785 
L 593.729658 305.780162 
L 596.150544 302.175301 
L 598.922645 298.528843 
L 602.160945 294.838593 
L 604.822247 292.205821 
L 608.033369 289.444469 
L 611.861211 286.661669 
L 616.600543 283.852534 
L 618.720386 282.787974 
L 618.722477 382.531597 
L 618.833277 381.951624 
L 621.047195 370.98478 
L 623.144042 361.615811 
L 624.134974 357.891945 
L 626.179556 351.080335 
L 628.577445 343.89595 
L 630.931432 337.600859 
L 633.187161 332.198455 
L 635.731391 326.765327 
L 638.09374 322.27955 
L 640.224035 318.646858 
L 642.57175 315.049677 
L 645.245595 311.415888 
L 647.495053 308.698925 
L 650.005833 305.992436 
L 651.979336 304.081774 
L 655.071295 301.428553 
L 657.485909 299.612855 
L 660.195293 297.810225 
L 663.333246 295.994427 
L 667.058649 294.164465 
L 669.398002 293.171228 
L 674.315033 291.413187 
L 677.340095 290.519902 
L 680.799996 289.644872 
L 684.941424 288.771038 
L 690.111414 287.897305 
L 697.012401 287.021676 
L 707.298027 286.151634 
L 727.292282 285.308823 
L 732.251124 285.197799 
L 736.016249 285.129368 
L 744.094229 285.018344 
L 747.083751 284.986922 
L 763.509394 284.875897 
L 766.066167 284.865124 
L 1041.562074 284.782828 
L 1041.562074 284.782828 
" style="fill:none;stroke:#3b7d86;stroke-linecap:square;stroke-opacity:0.75;stroke-width:1.5;"/>
   </g>
   <g id="line2d_43">
    <path clip-path="url(#p2c15dde6f1)" d="M 428.881588 282.787775 
L 428.881588 232.911449 
" style="fill:none;stroke:#aa3863;stroke-linecap:square;stroke-opacity:0.75;stroke-width:1.5;"/>
   </g>
   <g id="line2d_44">
    <path clip-path="url(#p2c15dde6f1)" d="M 479.011474 282.787775 
L 479.011474 232.911449 
" style="fill:none;stroke:#aa3863;stroke-linecap:square;stroke-opacity:0.75;stroke-width:1.5;"/>
   </g>
   <g id="line2d_45">
    <path clip-path="url(#p2c15dde6f1)" d="M 529.141359 282.787775 
L 529.141359 232.911449 
" style="fill:none;stroke:#aa3863;stroke-linecap:square;stroke-opacity:0.75;stroke-width:1.5;"/>
   </g>
   <g id="line2d_46">
    <path clip-path="url(#p2c15dde6f1)" d="M 579.271245 282.787775 
L 579.271245 232.911449 
" style="fill:none;stroke:#aa3863;stroke-linecap:square;stroke-opacity:0.75;stroke-width:1.5;"/>
   </g>
   <g id="line2d_47">
    <path clip-path="url(#p2c15dde6f1)" d="M 426.680213 282.787775 
L 426.680213 232.911449 
" style="fill:none;stroke:#d97020;stroke-linecap:square;stroke-opacity:0.75;stroke-width:1.5;"/>
   </g>
   <g id="line2d_48">
    <path clip-path="url(#p2c15dde6f1)" d="M 476.808008 282.787775 
L 476.808008 232.911449 
" style="fill:none;stroke:#d97020;stroke-linecap:square;stroke-opacity:0.75;stroke-width:1.5;"/>
   </g>
   <g id="line2d_49">
    <path clip-path="url(#p2c15dde6f1)" d="M 526.937894 282.787775 
L 526.937894 232.911449 
" style="fill:none;stroke:#d97020;stroke-linecap:square;stroke-opacity:0.75;stroke-width:1.5;"/>
   </g>
   <g id="line2d_50">
    <path clip-path="url(#p2c15dde6f1)" d="M 577.06778 282.787775 
L 577.06778 232.911449 
" style="fill:none;stroke:#d97020;stroke-linecap:square;stroke-opacity:0.75;stroke-width:1.5;"/>
   </g>
   <g id="line2d_51">
    <path clip-path="url(#p2c15dde6f1)" d="M 424.217516 282.787775 
L 424.217516 232.911449 
" style="fill:none;stroke:#ef9f07;stroke-linecap:square;stroke-opacity:0.75;stroke-width:1.5;"/>
   </g>
   <g id="line2d_52">
    <path clip-path="url(#p2c15dde6f1)" d="M 474.347402 282.787775 
L 474.347402 232.911449 
" style="fill:none;stroke:#ef9f07;stroke-linecap:square;stroke-opacity:0.75;stroke-width:1.5;"/>
   </g>
   <g id="line2d_53">
    <path clip-path="url(#p2c15dde6f1)" d="M 524.477288 282.787775 
L 524.477288 232.911449 
" style="fill:none;stroke:#ef9f07;stroke-linecap:square;stroke-opacity:0.75;stroke-width:1.5;"/>
   </g>
   <g id="line2d_54">
    <path clip-path="url(#p2c15dde6f1)" d="M 574.607174 282.787775 
L 574.607174 232.911449 
" style="fill:none;stroke:#ef9f07;stroke-linecap:square;stroke-opacity:0.75;stroke-width:1.5;"/>
   </g>
   <g id="line2d_55">
    <path clip-path="url(#p2c15dde6f1)" d="M 421.424509 282.787775 
L 421.424509 232.911449 
" style="fill:none;stroke:#449775;stroke-linecap:square;stroke-opacity:0.75;stroke-width:1.5;"/>
   </g>
   <g id="line2d_56">
    <path clip-path="url(#p2c15dde6f1)" d="M 471.554394 282.787775 
L 471.554394 232.911449 
" style="fill:none;stroke:#449775;stroke-linecap:square;stroke-opacity:0.75;stroke-width:1.5;"/>
   </g>
   <g id="line2d_57">
    <path clip-path="url(#p2c15dde6f1)" d="M 521.68428 282.787775 
L 521.68428 232.911449 
" style="fill:none;stroke:#449775;stroke-linecap:square;stroke-opacity:0.75;stroke-width:1.5;"/>
   </g>
   <g id="line2d_58">
    <path clip-path="url(#p2c15dde6f1)" d="M 571.814166 282.787775 
L 571.814166 232.911449 
" style="fill:none;stroke:#449775;stroke-linecap:square;stroke-opacity:0.75;stroke-width:1.5;"/>
   </g>
   <g id="line2d_59">
    <path clip-path="url(#p2c15dde6f1)" d="M 621.944052 282.787775 
L 621.944052 232.911449 
" style="fill:none;stroke:#449775;stroke-linecap:square;stroke-opacity:0.75;stroke-width:1.5;"/>
   </g>
   <g id="line2d_60">
    <path clip-path="url(#p2c15dde6f1)" d="M 418.202933 282.787775 
L 418.202933 232.911449 
" style="fill:none;stroke:#3b7d86;stroke-linecap:square;stroke-opacity:0.75;stroke-width:1.5;"/>
   </g>
   <g id="line2d_61">
    <path clip-path="url(#p2c15dde6f1)" d="M 468.332819 282.787775 
L 468.332819 232.911449 
" style="fill:none;stroke:#3b7d86;stroke-linecap:square;stroke-opacity:0.75;stroke-width:1.5;"/>
   </g>
   <g id="line2d_62">
    <path clip-path="url(#p2c15dde6f1)" d="M 518.462705 282.787775 
L 518.462705 232.911449 
" style="fill:none;stroke:#3b7d86;stroke-linecap:square;stroke-opacity:0.75;stroke-width:1.5;"/>
   </g>
   <g id="line2d_63">
    <path clip-path="url(#p2c15dde6f1)" d="M 568.592591 282.787775 
L 568.592591 232.911449 
" style="fill:none;stroke:#3b7d86;stroke-linecap:square;stroke-opacity:0.75;stroke-width:1.5;"/>
   </g>
   <g id="line2d_64">
    <path clip-path="url(#p2c15dde6f1)" d="M 618.722477 282.787775 
L 618.722477 232.911449 
" style="fill:none;stroke:#3b7d86;stroke-linecap:square;stroke-opacity:0.75;stroke-width:1.5;"/>
   </g>
   <g id="patch_9">
    <path d="M 53.765625 390.021875 
L 53.765625 225.43 
" style="fill:none;stroke:#000000;stroke-linecap:square;stroke-linejoin:miter;stroke-width:0.8;"/>
   </g>
   <g id="patch_10">
    <path d="M 1088.6 390.021875 
L 1088.6 225.43 
" style="fill:none;stroke:#000000;stroke-linecap:square;stroke-linejoin:miter;stroke-width:0.8;"/>
   </g>
   <g id="patch_11">
    <path d="M 53.765625 390.021875 
L 1088.6 390.021875 
" style="fill:none;stroke:#000000;stroke-linecap:square;stroke-linejoin:miter;stroke-width:0.8;"/>
   </g>
   <g id="patch_12">
    <path d="M 53.765625 225.43 
L 1088.6 225.43 
" style="fill:none;stroke:#000000;stroke-linecap:square;stroke-linejoin:miter;stroke-width:0.8;"/>
   </g>
   <g id="legend_2">
    <g id="patch_13">
     <path d="M 1095.6 306.820625 
L 1139.2 306.820625 
Q 1141.2 306.820625 1141.2 304.820625 
L 1141.2 232.43 
Q 1141.2 230.43 1139.2 230.43 
L 1095.6 230.43 
Q 1093.6 230.43 1093.6 232.43 
L 1093.6 304.820625 
Q 1093.6 306.820625 1095.6 306.820625 
z
" style="fill:#ffffff;opacity:0.8;stroke:#cccccc;stroke-linejoin:miter;"/>
    </g>
    <g id="line2d_65">
     <path d="M 1097.6 238.528438 
L 1117.6 238.528438 
" style="fill:none;stroke:#aa3863;stroke-linecap:square;stroke-opacity:0.75;stroke-width:1.5;"/>
    </g>
    <g id="line2d_66"/>
    <g id="text_31">
     <!-- $V_1$ -->
     <g transform="translate(1125.6 242.028438)scale(0.1 -0.1)">
      <use transform="translate(0 0.09375)" xlink:href="#DejaVuSans-Oblique-86"/>
      <use transform="translate(68.408203 -16.3125)scale(0.7)" xlink:href="#DejaVuSans-49"/>
     </g>
    </g>
    <g id="line2d_67">
     <path d="M 1097.6 253.206563 
L 1117.6 253.206563 
" style="fill:none;stroke:#d97020;stroke-linecap:square;stroke-opacity:0.75;stroke-width:1.5;"/>
    </g>
    <g id="line2d_68"/>
    <g id="text_32">
     <!-- $V_2$ -->
     <g transform="translate(1125.6 256.706563)scale(0.1 -0.1)">
      <use transform="translate(0 0.09375)" xlink:href="#DejaVuSans-Oblique-86"/>
      <use transform="translate(68.408203 -16.3125)scale(0.7)" xlink:href="#DejaVuSans-50"/>
     </g>
    </g>
    <g id="line2d_69">
     <path d="M 1097.6 267.884688 
L 1117.6 267.884688 
" style="fill:none;stroke:#ef9f07;stroke-linecap:square;stroke-opacity:0.75;stroke-width:1.5;"/>
    </g>
    <g id="line2d_70"/>
    <g id="text_33">
     <!-- $V_3$ -->
     <g transform="translate(1125.6 271.384688)scale(0.1 -0.1)">
      <use transform="translate(0 0.09375)" xlink:href="#DejaVuSans-Oblique-86"/>
      <use transform="translate(68.408203 -16.3125)scale(0.7)" xlink:href="#DejaVuSans-51"/>
     </g>
    </g>
    <g id="line2d_71">
     <path d="M 1097.6 282.562813 
L 1117.6 282.562813 
" style="fill:none;stroke:#449775;stroke-linecap:square;stroke-opacity:0.75;stroke-width:1.5;"/>
    </g>
    <g id="line2d_72"/>
    <g id="text_34">
     <!-- $V_4$ -->
     <g transform="translate(1125.6 286.062813)scale(0.1 -0.1)">
      <use transform="translate(0 0.09375)" xlink:href="#DejaVuSans-Oblique-86"/>
      <use transform="translate(68.408203 -16.3125)scale(0.7)" xlink:href="#DejaVuSans-52"/>
     </g>
    </g>
    <g id="line2d_73">
     <path d="M 1097.6 297.240938 
L 1117.6 297.240938 
" style="fill:none;stroke:#3b7d86;stroke-linecap:square;stroke-opacity:0.75;stroke-width:1.5;"/>
    </g>
    <g id="line2d_74"/>
    <g id="text_35">
     <!-- $V_5$ -->
     <g transform="translate(1125.6 300.740938)scale(0.1 -0.1)">
      <use transform="translate(0 0.09375)" xlink:href="#DejaVuSans-Oblique-86"/>
      <use transform="translate(68.408203 -16.3125)scale(0.7)" xlink:href="#DejaVuSans-53"/>
     </g>
    </g>
   </g>
  </g>
  <g id="text_36">
   <!-- Network of 5 electrically coupled neurons, $\beta=0.1$ and $\gamma=0.1$ -->
   <g transform="translate(390.84 17.88)scale(0.12 -0.12)">
    <defs>
     <path d="M 9.8125 72.90625 
L 23.09375 72.90625 
L 55.421875 11.921875 
L 55.421875 72.90625 
L 64.984375 72.90625 
L 64.984375 0 
L 51.703125 0 
L 19.390625 60.984375 
L 19.390625 0 
L 9.8125 0 
z
" id="DejaVuSans-78"/>
     <path d="M 4.203125 54.6875 
L 13.1875 54.6875 
L 24.421875 12.015625 
L 35.59375 54.6875 
L 46.1875 54.6875 
L 57.421875 12.015625 
L 68.609375 54.6875 
L 77.59375 54.6875 
L 63.28125 0 
L 52.6875 0 
L 40.921875 44.828125 
L 29.109375 0 
L 18.5 0 
z
" id="DejaVuSans-119"/>
     <path d="M 9.078125 75.984375 
L 18.109375 75.984375 
L 18.109375 31.109375 
L 44.921875 54.6875 
L 56.390625 54.6875 
L 27.390625 29.109375 
L 57.625 0 
L 45.90625 0 
L 18.109375 26.703125 
L 18.109375 0 
L 9.078125 0 
z
" id="DejaVuSans-107"/>
     <path d="M 37.109375 75.984375 
L 37.109375 68.5 
L 28.515625 68.5 
Q 23.6875 68.5 21.796875 66.546875 
Q 19.921875 64.59375 19.921875 59.515625 
L 19.921875 54.6875 
L 34.71875 54.6875 
L 34.71875 47.703125 
L 19.921875 47.703125 
L 19.921875 0 
L 10.890625 0 
L 10.890625 47.703125 
L 2.296875 47.703125 
L 2.296875 54.6875 
L 10.890625 54.6875 
L 10.890625 58.5 
Q 10.890625 67.625 15.140625 71.796875 
Q 19.390625 75.984375 28.609375 75.984375 
z
" id="DejaVuSans-102"/>
     <path d="M 32.171875 -5.078125 
Q 28.375 -14.84375 24.75 -17.8125 
Q 21.140625 -20.796875 15.09375 -20.796875 
L 7.90625 -20.796875 
L 7.90625 -13.28125 
L 13.1875 -13.28125 
Q 16.890625 -13.28125 18.9375 -11.515625 
Q 21 -9.765625 23.484375 -3.21875 
L 25.09375 0.875 
L 2.984375 54.6875 
L 12.5 54.6875 
L 29.59375 11.921875 
L 46.6875 54.6875 
L 56.203125 54.6875 
z
" id="DejaVuSans-121"/>
     <path d="M 18.109375 8.203125 
L 18.109375 -20.796875 
L 9.078125 -20.796875 
L 9.078125 54.6875 
L 18.109375 54.6875 
L 18.109375 46.390625 
Q 20.953125 51.265625 25.265625 53.625 
Q 29.59375 56 35.59375 56 
Q 45.5625 56 51.78125 48.09375 
Q 58.015625 40.1875 58.015625 27.296875 
Q 58.015625 14.40625 51.78125 6.484375 
Q 45.5625 -1.421875 35.59375 -1.421875 
Q 29.59375 -1.421875 25.265625 0.953125 
Q 20.953125 3.328125 18.109375 8.203125 
z
M 48.6875 27.296875 
Q 48.6875 37.203125 44.609375 42.84375 
Q 40.53125 48.484375 33.40625 48.484375 
Q 26.265625 48.484375 22.1875 42.84375 
Q 18.109375 37.203125 18.109375 27.296875 
Q 18.109375 17.390625 22.1875 11.75 
Q 26.265625 6.109375 33.40625 6.109375 
Q 40.53125 6.109375 44.609375 11.75 
Q 48.6875 17.390625 48.6875 27.296875 
z
" id="DejaVuSans-112"/>
     <path d="M 13.625 3.375 
L 8.9375 -20.796875 
L -0.09375 -20.796875 
L 14.5 54.34375 
Q 18.84375 76.609375 39.65625 76.609375 
Q 60.75 76.609375 57.171875 57.8125 
Q 54.734375 44.4375 45.21875 39.546875 
Q 58.015625 35.15625 55.515625 22.125 
Q 51.125 -1.078125 27.484375 -1.03125 
Q 17.140625 -0.984375 13.625 3.375 
z
M 15.921875 15.09375 
Q 19.671875 6.59375 29.296875 6.640625 
Q 43.359375 6.640625 46.34375 21.96875 
Q 49.03125 35.75 26.171875 34.671875 
L 27.78125 42.96875 
Q 45.453125 42.671875 48.53125 58.59375 
Q 50.640625 69.34375 39.203125 69.28125 
Q 26.421875 69.28125 23.484375 54.046875 
z
" id="DejaVuSans-Oblique-946"/>
     <path d="M 10.59375 45.40625 
L 73.1875 45.40625 
L 73.1875 37.203125 
L 10.59375 37.203125 
z
M 10.59375 25.484375 
L 73.1875 25.484375 
L 73.1875 17.1875 
L 10.59375 17.1875 
z
" id="DejaVuSans-61"/>
     <path d="M 23.296875 46.09375 
L 28.71875 12.3125 
L 54 54.6875 
L 63.53125 54.6875 
L 30.8125 0 
L 26.765625 -20.796875 
L 17.78125 -20.796875 
L 21.828125 0 
L 15.4375 40.828125 
Q 14.453125 46.96875 9.8125 46.96875 
L 7.421875 46.96875 
L 8.890625 54.6875 
L 12.3125 54.6875 
Q 21.921875 54.6875 23.296875 46.09375 
z
" id="DejaVuSans-Oblique-947"/>
    </defs>
    <use transform="translate(0 0.390625)" xlink:href="#DejaVuSans-78"/>
    <use transform="translate(74.804688 0.390625)" xlink:href="#DejaVuSans-101"/>
    <use transform="translate(136.328125 0.390625)" xlink:href="#DejaVuSans-116"/>
    <use transform="translate(175.537109 0.390625)" xlink:href="#DejaVuSans-119"/>
    <use transform="translate(257.324219 0.390625)" xlink:href="#DejaVuSans-111"/>
    <use transform="translate(318.505859 0.390625)" xlink:href="#DejaVuSans-114"/>
    <use transform="translate(359.619141 0.390625)" xlink:href="#DejaVuSans-107"/>
    <use transform="translate(417.529297 0.390625)" xlink:href="#DejaVuSans-32"/>
    <use transform="translate(449.316406 0.390625)" xlink:href="#DejaVuSans-111"/>
    <use transform="translate(510.498047 0.390625)" xlink:href="#DejaVuSans-102"/>
    <use transform="translate(545.703125 0.390625)" xlink:href="#DejaVuSans-32"/>
    <use transform="translate(577.490234 0.390625)" xlink:href="#DejaVuSans-53"/>
    <use transform="translate(641.113281 0.390625)" xlink:href="#DejaVuSans-32"/>
    <use transform="translate(672.900391 0.390625)" xlink:href="#DejaVuSans-101"/>
    <use transform="translate(734.423828 0.390625)" xlink:href="#DejaVuSans-108"/>
    <use transform="translate(762.207031 0.390625)" xlink:href="#DejaVuSans-101"/>
    <use transform="translate(823.730469 0.390625)" xlink:href="#DejaVuSans-99"/>
    <use transform="translate(878.710938 0.390625)" xlink:href="#DejaVuSans-116"/>
    <use transform="translate(917.919922 0.390625)" xlink:href="#DejaVuSans-114"/>
    <use transform="translate(959.033203 0.390625)" xlink:href="#DejaVuSans-105"/>
    <use transform="translate(986.816406 0.390625)" xlink:href="#DejaVuSans-99"/>
    <use transform="translate(1041.796875 0.390625)" xlink:href="#DejaVuSans-97"/>
    <use transform="translate(1103.076172 0.390625)" xlink:href="#DejaVuSans-108"/>
    <use transform="translate(1130.859375 0.390625)" xlink:href="#DejaVuSans-108"/>
    <use transform="translate(1158.642578 0.390625)" xlink:href="#DejaVuSans-121"/>
    <use transform="translate(1217.822266 0.390625)" xlink:href="#DejaVuSans-32"/>
    <use transform="translate(1249.609375 0.390625)" xlink:href="#DejaVuSans-99"/>
    <use transform="translate(1304.589844 0.390625)" xlink:href="#DejaVuSans-111"/>
    <use transform="translate(1365.771484 0.390625)" xlink:href="#DejaVuSans-117"/>
    <use transform="translate(1429.150391 0.390625)" xlink:href="#DejaVuSans-112"/>
    <use transform="translate(1492.626953 0.390625)" xlink:href="#DejaVuSans-108"/>
    <use transform="translate(1520.410156 0.390625)" xlink:href="#DejaVuSans-101"/>
    <use transform="translate(1581.933594 0.390625)" xlink:href="#DejaVuSans-100"/>
    <use transform="translate(1645.410156 0.390625)" xlink:href="#DejaVuSans-32"/>
    <use transform="translate(1677.197266 0.390625)" xlink:href="#DejaVuSans-110"/>
    <use transform="translate(1740.576172 0.390625)" xlink:href="#DejaVuSans-101"/>
    <use transform="translate(1802.099609 0.390625)" xlink:href="#DejaVuSans-117"/>
    <use transform="translate(1865.478516 0.390625)" xlink:href="#DejaVuSans-114"/>
    <use transform="translate(1906.591797 0.390625)" xlink:href="#DejaVuSans-111"/>
    <use transform="translate(1967.773438 0.390625)" xlink:href="#DejaVuSans-110"/>
    <use transform="translate(2031.152344 0.390625)" xlink:href="#DejaVuSans-115"/>
    <use transform="translate(2083.251953 0.390625)" xlink:href="#DejaVuSans-44"/>
    <use transform="translate(2115.039062 0.390625)" xlink:href="#DejaVuSans-32"/>
    <use transform="translate(2146.826172 0.390625)" xlink:href="#DejaVuSans-Oblique-946"/>
    <use transform="translate(2230.126953 0.390625)" xlink:href="#DejaVuSans-61"/>
    <use transform="translate(2333.398438 0.390625)" xlink:href="#DejaVuSans-48"/>
    <use transform="translate(2397.021484 0.390625)" xlink:href="#DejaVuSans-46"/>
    <use transform="translate(2428.808594 0.390625)" xlink:href="#DejaVuSans-49"/>
    <use transform="translate(2492.431641 0.390625)" xlink:href="#DejaVuSans-32"/>
    <use transform="translate(2524.21875 0.390625)" xlink:href="#DejaVuSans-97"/>
    <use transform="translate(2585.498047 0.390625)" xlink:href="#DejaVuSans-110"/>
    <use transform="translate(2648.876953 0.390625)" xlink:href="#DejaVuSans-100"/>
    <use transform="translate(2712.353516 0.390625)" xlink:href="#DejaVuSans-32"/>
    <use transform="translate(2744.140625 0.390625)" xlink:href="#DejaVuSans-Oblique-947"/>
    <use transform="translate(2822.802734 0.390625)" xlink:href="#DejaVuSans-61"/>
    <use transform="translate(2926.074219 0.390625)" xlink:href="#DejaVuSans-48"/>
    <use transform="translate(2989.697266 0.390625)" xlink:href="#DejaVuSans-46"/>
    <use transform="translate(3021.484375 0.390625)" xlink:href="#DejaVuSans-49"/>
   </g>
  </g>
 </g>
 <defs>
  <clipPath id="pfbfc00ff27">
   <rect height="164.591875" width="1034.834375" x="53.765625" y="33.36"/>
  </clipPath>
  <clipPath id="p2c15dde6f1">
   <rect height="164.591875" width="1034.834375" x="53.765625" y="225.43"/>
  </clipPath>
 </defs>
</svg>
