<?xml version="1.0" encoding="utf-8" standalone="no"?>
<!DOCTYPE svg PUBLIC "-//W3C//DTD SVG 1.1//EN"
  "http://www.w3.org/Graphics/SVG/1.1/DTD/svg11.dtd">
<svg height="345.6pt" version="1.1" viewBox="0 0 460.8 345.6" width="460.8pt" xmlns="http://www.w3.org/2000/svg" xmlns:xlink="http://www.w3.org/1999/xlink">
 <metadata>
  <rdf:RDF xmlns:cc="http://creativecommons.org/ns#" xmlns:dc="http://purl.org/dc/elements/1.1/" xmlns:rdf="http://www.w3.org/1999/02/22-rdf-syntax-ns#">
   <cc:Work>
    <dc:type rdf:resource="http://purl.org/dc/dcmitype/StillImage"/>
    <dc:date>2021-08-19T00:24:03.197487</dc:date>
    <dc:format>image/svg+xml</dc:format>
    <dc:creator>
     <cc:Agent>
      <dc:title>Matplotlib v3.4.2, https://matplotlib.org/</dc:title>
     </cc:Agent>
    </dc:creator>
   </cc:Work>
  </rdf:RDF>
 </metadata>
 <defs>
  <style type="text/css">*{stroke-linecap:butt;stroke-linejoin:round;}</style>
 </defs>
 <g id="figure_1">
  <g id="patch_1">
   <path d="M 0 345.6 
L 460.8 345.6 
L 460.8 0 
L 0 0 
z
" style="fill:#ffffff;"/>
  </g>
  <g id="axes_1">
   <g id="patch_2">
    <path d="M 57.6 307.584 
L 414.72 307.584 
L 414.72 41.472 
L 57.6 41.472 
z
" style="fill:#ffffff;"/>
   </g>
   <g id="patch_3">
    <path clip-path="url(#pc0224d7cb0)" d="M 63.319634 307.584 
L 63.319634 41.472 
L 104.429538 41.472 
L 104.429538 307.584 
z
" style="fill:#333333;opacity:0.1;"/>
   </g>
   <g id="matplotlib.axis_1">
    <g id="xtick_1">
     <g id="line2d_1">
      <defs>
       <path d="M 0 0 
L 0 3.5 
" id="m45c3831241" style="stroke:#000000;stroke-width:0.8;"/>
      </defs>
      <g>
       <use style="stroke:#000000;stroke-width:0.8;" x="57.6" xlink:href="#m45c3831241" y="307.584"/>
      </g>
     </g>
     <g id="text_1">
      <!-- 1.0 -->
      <g transform="translate(49.648438 322.182437)scale(0.1 -0.1)">
       <defs>
        <path d="M 794 531 
L 1825 531 
L 1825 4091 
L 703 3866 
L 703 4441 
L 1819 4666 
L 2450 4666 
L 2450 531 
L 3481 531 
L 3481 0 
L 794 0 
L 794 531 
z
" id="DejaVuSans-31" transform="scale(0.015625)"/>
        <path d="M 684 794 
L 1344 794 
L 1344 0 
L 684 0 
L 684 794 
z
" id="DejaVuSans-2e" transform="scale(0.015625)"/>
        <path d="M 2034 4250 
Q 1547 4250 1301 3770 
Q 1056 3291 1056 2328 
Q 1056 1369 1301 889 
Q 1547 409 2034 409 
Q 2525 409 2770 889 
Q 3016 1369 3016 2328 
Q 3016 3291 2770 3770 
Q 2525 4250 2034 4250 
z
M 2034 4750 
Q 2819 4750 3233 4129 
Q 3647 3509 3647 2328 
Q 3647 1150 3233 529 
Q 2819 -91 2034 -91 
Q 1250 -91 836 529 
Q 422 1150 422 2328 
Q 422 3509 836 4129 
Q 1250 4750 2034 4750 
z
" id="DejaVuSans-30" transform="scale(0.015625)"/>
       </defs>
       <use xlink:href="#DejaVuSans-31"/>
       <use x="63.623047" xlink:href="#DejaVuSans-2e"/>
       <use x="95.410156" xlink:href="#DejaVuSans-30"/>
      </g>
     </g>
    </g>
    <g id="xtick_2">
     <g id="line2d_2">
      <g>
       <use style="stroke:#000000;stroke-width:0.8;" x="129.024" xlink:href="#m45c3831241" y="307.584"/>
      </g>
     </g>
     <g id="text_2">
      <!-- 1.2 -->
      <g transform="translate(121.072438 322.182437)scale(0.1 -0.1)">
       <defs>
        <path d="M 1228 531 
L 3431 531 
L 3431 0 
L 469 0 
L 469 531 
Q 828 903 1448 1529 
Q 2069 2156 2228 2338 
Q 2531 2678 2651 2914 
Q 2772 3150 2772 3378 
Q 2772 3750 2511 3984 
Q 2250 4219 1831 4219 
Q 1534 4219 1204 4116 
Q 875 4013 500 3803 
L 500 4441 
Q 881 4594 1212 4672 
Q 1544 4750 1819 4750 
Q 2544 4750 2975 4387 
Q 3406 4025 3406 3419 
Q 3406 3131 3298 2873 
Q 3191 2616 2906 2266 
Q 2828 2175 2409 1742 
Q 1991 1309 1228 531 
z
" id="DejaVuSans-32" transform="scale(0.015625)"/>
       </defs>
       <use xlink:href="#DejaVuSans-31"/>
       <use x="63.623047" xlink:href="#DejaVuSans-2e"/>
       <use x="95.410156" xlink:href="#DejaVuSans-32"/>
      </g>
     </g>
    </g>
    <g id="xtick_3">
     <g id="line2d_3">
      <g>
       <use style="stroke:#000000;stroke-width:0.8;" x="200.448" xlink:href="#m45c3831241" y="307.584"/>
      </g>
     </g>
     <g id="text_3">
      <!-- 1.4 -->
      <g transform="translate(192.496438 322.182437)scale(0.1 -0.1)">
       <defs>
        <path d="M 2419 4116 
L 825 1625 
L 2419 1625 
L 2419 4116 
z
M 2253 4666 
L 3047 4666 
L 3047 1625 
L 3713 1625 
L 3713 1100 
L 3047 1100 
L 3047 0 
L 2419 0 
L 2419 1100 
L 313 1100 
L 313 1709 
L 2253 4666 
z
" id="DejaVuSans-34" transform="scale(0.015625)"/>
       </defs>
       <use xlink:href="#DejaVuSans-31"/>
       <use x="63.623047" xlink:href="#DejaVuSans-2e"/>
       <use x="95.410156" xlink:href="#DejaVuSans-34"/>
      </g>
     </g>
    </g>
    <g id="xtick_4">
     <g id="line2d_4">
      <g>
       <use style="stroke:#000000;stroke-width:0.8;" x="271.872" xlink:href="#m45c3831241" y="307.584"/>
      </g>
     </g>
     <g id="text_4">
      <!-- 1.6 -->
      <g transform="translate(263.920438 322.182437)scale(0.1 -0.1)">
       <defs>
        <path d="M 2113 2584 
Q 1688 2584 1439 2293 
Q 1191 2003 1191 1497 
Q 1191 994 1439 701 
Q 1688 409 2113 409 
Q 2538 409 2786 701 
Q 3034 994 3034 1497 
Q 3034 2003 2786 2293 
Q 2538 2584 2113 2584 
z
M 3366 4563 
L 3366 3988 
Q 3128 4100 2886 4159 
Q 2644 4219 2406 4219 
Q 1781 4219 1451 3797 
Q 1122 3375 1075 2522 
Q 1259 2794 1537 2939 
Q 1816 3084 2150 3084 
Q 2853 3084 3261 2657 
Q 3669 2231 3669 1497 
Q 3669 778 3244 343 
Q 2819 -91 2113 -91 
Q 1303 -91 875 529 
Q 447 1150 447 2328 
Q 447 3434 972 4092 
Q 1497 4750 2381 4750 
Q 2619 4750 2861 4703 
Q 3103 4656 3366 4563 
z
" id="DejaVuSans-36" transform="scale(0.015625)"/>
       </defs>
       <use xlink:href="#DejaVuSans-31"/>
       <use x="63.623047" xlink:href="#DejaVuSans-2e"/>
       <use x="95.410156" xlink:href="#DejaVuSans-36"/>
      </g>
     </g>
    </g>
    <g id="xtick_5">
     <g id="line2d_5">
      <g>
       <use style="stroke:#000000;stroke-width:0.8;" x="343.296" xlink:href="#m45c3831241" y="307.584"/>
      </g>
     </g>
     <g id="text_5">
      <!-- 1.8 -->
      <g transform="translate(335.344438 322.182437)scale(0.1 -0.1)">
       <defs>
        <path d="M 2034 2216 
Q 1584 2216 1326 1975 
Q 1069 1734 1069 1313 
Q 1069 891 1326 650 
Q 1584 409 2034 409 
Q 2484 409 2743 651 
Q 3003 894 3003 1313 
Q 3003 1734 2745 1975 
Q 2488 2216 2034 2216 
z
M 1403 2484 
Q 997 2584 770 2862 
Q 544 3141 544 3541 
Q 544 4100 942 4425 
Q 1341 4750 2034 4750 
Q 2731 4750 3128 4425 
Q 3525 4100 3525 3541 
Q 3525 3141 3298 2862 
Q 3072 2584 2669 2484 
Q 3125 2378 3379 2068 
Q 3634 1759 3634 1313 
Q 3634 634 3220 271 
Q 2806 -91 2034 -91 
Q 1263 -91 848 271 
Q 434 634 434 1313 
Q 434 1759 690 2068 
Q 947 2378 1403 2484 
z
M 1172 3481 
Q 1172 3119 1398 2916 
Q 1625 2713 2034 2713 
Q 2441 2713 2670 2916 
Q 2900 3119 2900 3481 
Q 2900 3844 2670 4047 
Q 2441 4250 2034 4250 
Q 1625 4250 1398 4047 
Q 1172 3844 1172 3481 
z
" id="DejaVuSans-38" transform="scale(0.015625)"/>
       </defs>
       <use xlink:href="#DejaVuSans-31"/>
       <use x="63.623047" xlink:href="#DejaVuSans-2e"/>
       <use x="95.410156" xlink:href="#DejaVuSans-38"/>
      </g>
     </g>
    </g>
    <g id="xtick_6">
     <g id="line2d_6">
      <g>
       <use style="stroke:#000000;stroke-width:0.8;" x="414.72" xlink:href="#m45c3831241" y="307.584"/>
      </g>
     </g>
     <g id="text_6">
      <!-- 2.0 -->
      <g transform="translate(406.768438 322.182437)scale(0.1 -0.1)">
       <use xlink:href="#DejaVuSans-32"/>
       <use x="63.623047" xlink:href="#DejaVuSans-2e"/>
       <use x="95.410156" xlink:href="#DejaVuSans-30"/>
      </g>
     </g>
    </g>
    <g id="text_7">
     <!-- Current $I$ -->
     <g transform="translate(213.0075 336.240484)scale(0.105 -0.105)">
      <defs>
       <path d="M 4122 4306 
L 4122 3641 
Q 3803 3938 3442 4084 
Q 3081 4231 2675 4231 
Q 1875 4231 1450 3742 
Q 1025 3253 1025 2328 
Q 1025 1406 1450 917 
Q 1875 428 2675 428 
Q 3081 428 3442 575 
Q 3803 722 4122 1019 
L 4122 359 
Q 3791 134 3420 21 
Q 3050 -91 2638 -91 
Q 1578 -91 968 557 
Q 359 1206 359 2328 
Q 359 3453 968 4101 
Q 1578 4750 2638 4750 
Q 3056 4750 3426 4639 
Q 3797 4528 4122 4306 
z
" id="DejaVuSans-43" transform="scale(0.015625)"/>
       <path d="M 544 1381 
L 544 3500 
L 1119 3500 
L 1119 1403 
Q 1119 906 1312 657 
Q 1506 409 1894 409 
Q 2359 409 2629 706 
Q 2900 1003 2900 1516 
L 2900 3500 
L 3475 3500 
L 3475 0 
L 2900 0 
L 2900 538 
Q 2691 219 2414 64 
Q 2138 -91 1772 -91 
Q 1169 -91 856 284 
Q 544 659 544 1381 
z
M 1991 3584 
L 1991 3584 
z
" id="DejaVuSans-75" transform="scale(0.015625)"/>
       <path d="M 2631 2963 
Q 2534 3019 2420 3045 
Q 2306 3072 2169 3072 
Q 1681 3072 1420 2755 
Q 1159 2438 1159 1844 
L 1159 0 
L 581 0 
L 581 3500 
L 1159 3500 
L 1159 2956 
Q 1341 3275 1631 3429 
Q 1922 3584 2338 3584 
Q 2397 3584 2469 3576 
Q 2541 3569 2628 3553 
L 2631 2963 
z
" id="DejaVuSans-72" transform="scale(0.015625)"/>
       <path d="M 3597 1894 
L 3597 1613 
L 953 1613 
Q 991 1019 1311 708 
Q 1631 397 2203 397 
Q 2534 397 2845 478 
Q 3156 559 3463 722 
L 3463 178 
Q 3153 47 2828 -22 
Q 2503 -91 2169 -91 
Q 1331 -91 842 396 
Q 353 884 353 1716 
Q 353 2575 817 3079 
Q 1281 3584 2069 3584 
Q 2775 3584 3186 3129 
Q 3597 2675 3597 1894 
z
M 3022 2063 
Q 3016 2534 2758 2815 
Q 2500 3097 2075 3097 
Q 1594 3097 1305 2825 
Q 1016 2553 972 2059 
L 3022 2063 
z
" id="DejaVuSans-65" transform="scale(0.015625)"/>
       <path d="M 3513 2113 
L 3513 0 
L 2938 0 
L 2938 2094 
Q 2938 2591 2744 2837 
Q 2550 3084 2163 3084 
Q 1697 3084 1428 2787 
Q 1159 2491 1159 1978 
L 1159 0 
L 581 0 
L 581 3500 
L 1159 3500 
L 1159 2956 
Q 1366 3272 1645 3428 
Q 1925 3584 2291 3584 
Q 2894 3584 3203 3211 
Q 3513 2838 3513 2113 
z
" id="DejaVuSans-6e" transform="scale(0.015625)"/>
       <path d="M 1172 4494 
L 1172 3500 
L 2356 3500 
L 2356 3053 
L 1172 3053 
L 1172 1153 
Q 1172 725 1289 603 
Q 1406 481 1766 481 
L 2356 481 
L 2356 0 
L 1766 0 
Q 1100 0 847 248 
Q 594 497 594 1153 
L 594 3053 
L 172 3053 
L 172 3500 
L 594 3500 
L 594 4494 
L 1172 4494 
z
" id="DejaVuSans-74" transform="scale(0.015625)"/>
       <path id="DejaVuSans-20" transform="scale(0.015625)"/>
       <path d="M 1081 4666 
L 1716 4666 
L 806 0 
L 172 0 
L 1081 4666 
z
" id="DejaVuSans-Oblique-49" transform="scale(0.015625)"/>
      </defs>
      <use transform="translate(0 0.78125)" xlink:href="#DejaVuSans-43"/>
      <use transform="translate(69.824219 0.78125)" xlink:href="#DejaVuSans-75"/>
      <use transform="translate(133.203125 0.78125)" xlink:href="#DejaVuSans-72"/>
      <use transform="translate(174.316406 0.78125)" xlink:href="#DejaVuSans-72"/>
      <use transform="translate(215.429688 0.78125)" xlink:href="#DejaVuSans-65"/>
      <use transform="translate(276.953125 0.78125)" xlink:href="#DejaVuSans-6e"/>
      <use transform="translate(340.332031 0.78125)" xlink:href="#DejaVuSans-74"/>
      <use transform="translate(379.541016 0.78125)" xlink:href="#DejaVuSans-20"/>
      <use transform="translate(411.328125 0.78125)" xlink:href="#DejaVuSans-Oblique-49"/>
     </g>
    </g>
   </g>
   <g id="matplotlib.axis_2">
    <g id="ytick_1">
     <g id="line2d_7">
      <defs>
       <path d="M 0 0 
L -3.5 0 
" id="m0c3749eacb" style="stroke:#000000;stroke-width:0.8;"/>
      </defs>
      <g>
       <use style="stroke:#000000;stroke-width:0.8;" x="57.6" xlink:href="#m0c3749eacb" y="295.488"/>
      </g>
     </g>
     <g id="text_8">
      <!-- 0.0 -->
      <g transform="translate(34.696875 299.287219)scale(0.1 -0.1)">
       <use xlink:href="#DejaVuSans-30"/>
       <use x="63.623047" xlink:href="#DejaVuSans-2e"/>
       <use x="95.410156" xlink:href="#DejaVuSans-30"/>
      </g>
     </g>
    </g>
    <g id="ytick_2">
     <g id="line2d_8">
      <g>
       <use style="stroke:#000000;stroke-width:0.8;" x="57.6" xlink:href="#m0c3749eacb" y="247.104"/>
      </g>
     </g>
     <g id="text_9">
      <!-- 0.2 -->
      <g transform="translate(34.696875 250.903219)scale(0.1 -0.1)">
       <use xlink:href="#DejaVuSans-30"/>
       <use x="63.623047" xlink:href="#DejaVuSans-2e"/>
       <use x="95.410156" xlink:href="#DejaVuSans-32"/>
      </g>
     </g>
    </g>
    <g id="ytick_3">
     <g id="line2d_9">
      <g>
       <use style="stroke:#000000;stroke-width:0.8;" x="57.6" xlink:href="#m0c3749eacb" y="198.72"/>
      </g>
     </g>
     <g id="text_10">
      <!-- 0.4 -->
      <g transform="translate(34.696875 202.519219)scale(0.1 -0.1)">
       <use xlink:href="#DejaVuSans-30"/>
       <use x="63.623047" xlink:href="#DejaVuSans-2e"/>
       <use x="95.410156" xlink:href="#DejaVuSans-34"/>
      </g>
     </g>
    </g>
    <g id="ytick_4">
     <g id="line2d_10">
      <g>
       <use style="stroke:#000000;stroke-width:0.8;" x="57.6" xlink:href="#m0c3749eacb" y="150.336"/>
      </g>
     </g>
     <g id="text_11">
      <!-- 0.6 -->
      <g transform="translate(34.696875 154.135219)scale(0.1 -0.1)">
       <use xlink:href="#DejaVuSans-30"/>
       <use x="63.623047" xlink:href="#DejaVuSans-2e"/>
       <use x="95.410156" xlink:href="#DejaVuSans-36"/>
      </g>
     </g>
    </g>
    <g id="ytick_5">
     <g id="line2d_11">
      <g>
       <use style="stroke:#000000;stroke-width:0.8;" x="57.6" xlink:href="#m0c3749eacb" y="101.952"/>
      </g>
     </g>
     <g id="text_12">
      <!-- 0.8 -->
      <g transform="translate(34.696875 105.751219)scale(0.1 -0.1)">
       <use xlink:href="#DejaVuSans-30"/>
       <use x="63.623047" xlink:href="#DejaVuSans-2e"/>
       <use x="95.410156" xlink:href="#DejaVuSans-38"/>
      </g>
     </g>
    </g>
    <g id="ytick_6">
     <g id="line2d_12">
      <g>
       <use style="stroke:#000000;stroke-width:0.8;" x="57.6" xlink:href="#m0c3749eacb" y="53.568"/>
      </g>
     </g>
     <g id="text_13">
      <!-- 1.0 -->
      <g transform="translate(34.696875 57.367219)scale(0.1 -0.1)">
       <use xlink:href="#DejaVuSans-31"/>
       <use x="63.623047" xlink:href="#DejaVuSans-2e"/>
       <use x="95.410156" xlink:href="#DejaVuSans-30"/>
      </g>
     </g>
    </g>
    <g id="text_14">
     <!-- Phase Difference $\phi$ -->
     <g transform="translate(28.491875 224.298)rotate(-90)scale(0.105 -0.105)">
      <defs>
       <path d="M 1259 4147 
L 1259 2394 
L 2053 2394 
Q 2494 2394 2734 2622 
Q 2975 2850 2975 3272 
Q 2975 3691 2734 3919 
Q 2494 4147 2053 4147 
L 1259 4147 
z
M 628 4666 
L 2053 4666 
Q 2838 4666 3239 4311 
Q 3641 3956 3641 3272 
Q 3641 2581 3239 2228 
Q 2838 1875 2053 1875 
L 1259 1875 
L 1259 0 
L 628 0 
L 628 4666 
z
" id="DejaVuSans-50" transform="scale(0.015625)"/>
       <path d="M 3513 2113 
L 3513 0 
L 2938 0 
L 2938 2094 
Q 2938 2591 2744 2837 
Q 2550 3084 2163 3084 
Q 1697 3084 1428 2787 
Q 1159 2491 1159 1978 
L 1159 0 
L 581 0 
L 581 4863 
L 1159 4863 
L 1159 2956 
Q 1366 3272 1645 3428 
Q 1925 3584 2291 3584 
Q 2894 3584 3203 3211 
Q 3513 2838 3513 2113 
z
" id="DejaVuSans-68" transform="scale(0.015625)"/>
       <path d="M 2194 1759 
Q 1497 1759 1228 1600 
Q 959 1441 959 1056 
Q 959 750 1161 570 
Q 1363 391 1709 391 
Q 2188 391 2477 730 
Q 2766 1069 2766 1631 
L 2766 1759 
L 2194 1759 
z
M 3341 1997 
L 3341 0 
L 2766 0 
L 2766 531 
Q 2569 213 2275 61 
Q 1981 -91 1556 -91 
Q 1019 -91 701 211 
Q 384 513 384 1019 
Q 384 1609 779 1909 
Q 1175 2209 1959 2209 
L 2766 2209 
L 2766 2266 
Q 2766 2663 2505 2880 
Q 2244 3097 1772 3097 
Q 1472 3097 1187 3025 
Q 903 2953 641 2809 
L 641 3341 
Q 956 3463 1253 3523 
Q 1550 3584 1831 3584 
Q 2591 3584 2966 3190 
Q 3341 2797 3341 1997 
z
" id="DejaVuSans-61" transform="scale(0.015625)"/>
       <path d="M 2834 3397 
L 2834 2853 
Q 2591 2978 2328 3040 
Q 2066 3103 1784 3103 
Q 1356 3103 1142 2972 
Q 928 2841 928 2578 
Q 928 2378 1081 2264 
Q 1234 2150 1697 2047 
L 1894 2003 
Q 2506 1872 2764 1633 
Q 3022 1394 3022 966 
Q 3022 478 2636 193 
Q 2250 -91 1575 -91 
Q 1294 -91 989 -36 
Q 684 19 347 128 
L 347 722 
Q 666 556 975 473 
Q 1284 391 1588 391 
Q 1994 391 2212 530 
Q 2431 669 2431 922 
Q 2431 1156 2273 1281 
Q 2116 1406 1581 1522 
L 1381 1569 
Q 847 1681 609 1914 
Q 372 2147 372 2553 
Q 372 3047 722 3315 
Q 1072 3584 1716 3584 
Q 2034 3584 2315 3537 
Q 2597 3491 2834 3397 
z
" id="DejaVuSans-73" transform="scale(0.015625)"/>
       <path d="M 1259 4147 
L 1259 519 
L 2022 519 
Q 2988 519 3436 956 
Q 3884 1394 3884 2338 
Q 3884 3275 3436 3711 
Q 2988 4147 2022 4147 
L 1259 4147 
z
M 628 4666 
L 1925 4666 
Q 3281 4666 3915 4102 
Q 4550 3538 4550 2338 
Q 4550 1131 3912 565 
Q 3275 0 1925 0 
L 628 0 
L 628 4666 
z
" id="DejaVuSans-44" transform="scale(0.015625)"/>
       <path d="M 603 3500 
L 1178 3500 
L 1178 0 
L 603 0 
L 603 3500 
z
M 603 4863 
L 1178 4863 
L 1178 4134 
L 603 4134 
L 603 4863 
z
" id="DejaVuSans-69" transform="scale(0.015625)"/>
       <path d="M 2375 4863 
L 2375 4384 
L 1825 4384 
Q 1516 4384 1395 4259 
Q 1275 4134 1275 3809 
L 1275 3500 
L 2222 3500 
L 2222 3053 
L 1275 3053 
L 1275 0 
L 697 0 
L 697 3053 
L 147 3053 
L 147 3500 
L 697 3500 
L 697 3744 
Q 697 4328 969 4595 
Q 1241 4863 1831 4863 
L 2375 4863 
z
" id="DejaVuSans-66" transform="scale(0.015625)"/>
       <path d="M 3122 3366 
L 3122 2828 
Q 2878 2963 2633 3030 
Q 2388 3097 2138 3097 
Q 1578 3097 1268 2742 
Q 959 2388 959 1747 
Q 959 1106 1268 751 
Q 1578 397 2138 397 
Q 2388 397 2633 464 
Q 2878 531 3122 666 
L 3122 134 
Q 2881 22 2623 -34 
Q 2366 -91 2075 -91 
Q 1284 -91 818 406 
Q 353 903 353 1747 
Q 353 2603 823 3093 
Q 1294 3584 2113 3584 
Q 2378 3584 2631 3529 
Q 2884 3475 3122 3366 
z
" id="DejaVuSans-63" transform="scale(0.015625)"/>
       <path d="M 2991 4863 
L 2738 3572 
Q 3363 3572 3684 3094 
Q 4016 2606 3850 1747 
Q 3681 888 3159 400 
Q 2653 -78 2028 -78 
L 1784 -1331 
L 1213 -1331 
L 1456 -78 
Q 834 -78 509 400 
Q 178 888 347 1747 
Q 513 2606 1034 3094 
Q 1544 3572 2166 3572 
L 2419 4863 
L 2991 4863 
z
M 2128 434 
Q 2481 434 2784 756 
Q 3116 1116 3244 1747 
Q 3369 2372 3169 2738 
Q 2991 3059 2638 3059 
L 2128 434 
z
M 1556 434 
L 2066 3059 
Q 1716 3059 1413 2738 
Q 1072 2372 953 1747 
Q 834 1116 1028 756 
Q 1203 434 1556 434 
z
" id="DejaVuSans-Oblique-3d5" transform="scale(0.015625)"/>
      </defs>
      <use transform="translate(0 0.015625)" xlink:href="#DejaVuSans-50"/>
      <use transform="translate(60.302734 0.015625)" xlink:href="#DejaVuSans-68"/>
      <use transform="translate(123.681641 0.015625)" xlink:href="#DejaVuSans-61"/>
      <use transform="translate(184.960938 0.015625)" xlink:href="#DejaVuSans-73"/>
      <use transform="translate(237.060547 0.015625)" xlink:href="#DejaVuSans-65"/>
      <use transform="translate(298.583984 0.015625)" xlink:href="#DejaVuSans-20"/>
      <use transform="translate(330.371094 0.015625)" xlink:href="#DejaVuSans-44"/>
      <use transform="translate(407.373047 0.015625)" xlink:href="#DejaVuSans-69"/>
      <use transform="translate(435.15625 0.015625)" xlink:href="#DejaVuSans-66"/>
      <use transform="translate(470.361328 0.015625)" xlink:href="#DejaVuSans-66"/>
      <use transform="translate(505.566406 0.015625)" xlink:href="#DejaVuSans-65"/>
      <use transform="translate(567.089844 0.015625)" xlink:href="#DejaVuSans-72"/>
      <use transform="translate(608.203125 0.015625)" xlink:href="#DejaVuSans-65"/>
      <use transform="translate(669.726562 0.015625)" xlink:href="#DejaVuSans-6e"/>
      <use transform="translate(733.105469 0.015625)" xlink:href="#DejaVuSans-63"/>
      <use transform="translate(788.085938 0.015625)" xlink:href="#DejaVuSans-65"/>
      <use transform="translate(849.609375 0.015625)" xlink:href="#DejaVuSans-20"/>
      <use transform="translate(881.396484 0.015625)" xlink:href="#DejaVuSans-Oblique-3d5"/>
     </g>
    </g>
   </g>
   <g id="line2d_13">
    <path clip-path="url(#pc0224d7cb0)" d="M 414.72 174.528 
L 104.429538 174.528 
L 104.429538 174.528 
" style="fill:none;stroke:#000000;stroke-dasharray:5.55,2.4;stroke-dashoffset:0;stroke-width:1.5;"/>
   </g>
   <g id="line2d_14">
    <path clip-path="url(#pc0224d7cb0)" d="M 104.429538 174.528 
L 104.429538 174.528 
L 104.072061 174.528 
L 103.714584 174.528 
L 103.357107 174.528 
L 102.99963 174.528 
L 102.642153 174.528 
L 102.284676 174.528 
L 101.927199 174.528 
L 101.569721 174.528 
L 101.212244 174.528 
L 100.854767 174.528 
L 100.49729 174.528 
L 100.139813 174.528 
L 99.782336 174.528 
L 99.424859 174.528 
L 99.067382 174.528 
L 98.709905 174.528 
L 98.352427 174.528 
L 97.99495 174.528 
L 97.637473 174.528 
L 97.279996 174.528 
L 96.922519 174.528 
L 96.565042 174.528 
L 96.207565 174.528 
L 95.850088 174.528 
L 95.49261 174.528 
L 95.135133 174.528 
L 94.777656 174.528 
L 94.420179 174.528 
L 94.062702 174.528 
L 93.705225 174.528 
L 93.347748 174.528 
L 92.990271 174.528 
L 92.632793 174.528 
L 92.275316 174.528 
L 91.917839 174.528 
L 91.560362 174.528 
L 91.202885 174.528 
L 90.845408 174.528 
L 90.487931 174.528 
L 90.130454 174.528 
L 89.772977 174.528 
L 89.415499 174.528 
L 89.058022 174.528 
L 88.700545 174.528 
L 88.343068 174.528 
L 87.985591 174.528 
L 87.628114 174.528 
L 87.270637 174.528 
L 86.91316 174.528 
L 86.555682 174.528 
L 86.198205 174.528 
L 85.840728 174.528 
L 85.483251 174.528 
L 85.125774 174.528 
L 84.768297 174.528 
L 84.41082 174.528 
L 84.053343 174.528 
L 83.695865 174.528 
L 83.338388 174.528 
L 82.980911 174.528 
L 82.623434 174.528 
L 82.265957 174.528 
L 81.90848 174.528 
L 81.551003 174.528 
L 81.193526 174.528 
L 80.836049 174.528 
L 80.478571 174.528 
L 80.121094 174.528 
L 79.763617 174.528 
L 79.40614 174.528 
L 79.048663 174.528 
L 78.691186 174.528 
L 78.333709 174.528 
L 77.976232 174.528 
L 77.618754 174.528 
L 77.261277 174.528 
L 76.9038 174.528 
L 76.546323 174.528 
L 76.188846 174.528 
L 75.831369 174.528 
L 75.473892 174.528 
L 75.116379 174.528 
L 74.758902 174.528 
L 74.401425 174.528 
L 74.043948 174.528 
L 73.68647 174.528 
L 73.328993 174.528 
L 72.971516 174.528 
L 72.614039 174.528 
L 72.256562 174.528 
L 71.899085 174.528 
L 71.541608 174.528 
L 71.184131 174.528 
L 70.826653 174.528 
L 70.469176 174.528 
L 70.111699 174.528 
L 69.754222 174.528 
L 69.396745 174.528 
L 69.039268 174.528 
L 68.681791 174.528 
L 68.324314 174.528 
L 67.966836 174.528 
L 67.609359 174.528 
L 67.251882 174.528 
L 66.894405 174.528 
L 66.536928 174.528 
L 66.179451 174.528 
L 65.821974 174.528 
L 65.464497 174.528 
L 65.10702 174.528 
L 64.749542 174.528 
L 64.392065 174.528 
L 64.034588 174.528 
L 63.677111 174.528 
L 63.319634 174.528 
" style="fill:none;stroke:#000000;stroke-linecap:square;stroke-width:1.5;"/>
   </g>
   <g id="line2d_15">
    <path clip-path="url(#pc0224d7cb0)" d="M 104.429538 174.528 
L 104.429538 167.058333 
L 104.072061 162.976973 
L 103.714584 160.036823 
L 103.357107 157.628388 
L 102.99963 155.481106 
L 102.642153 153.564132 
L 102.284676 151.826711 
L 101.927199 150.211073 
L 101.569721 148.677977 
L 101.212244 147.244045 
L 100.854767 145.892994 
L 100.49729 144.595142 
L 100.139813 143.342528 
L 99.782336 142.147105 
L 99.424859 141.001493 
L 99.067382 139.896088 
L 98.709905 138.80977 
L 98.352427 137.761313 
L 97.99495 136.747112 
L 97.637473 135.763489 
L 97.279996 134.806768 
L 96.922519 133.860232 
L 96.565042 132.938783 
L 96.207565 132.040219 
L 95.850088 131.162679 
L 95.49261 130.304395 
L 95.135133 129.463941 
L 94.777656 128.638098 
L 94.420179 127.821715 
L 94.062702 127.02096 
L 93.705225 126.234647 
L 93.347748 125.461882 
L 92.990271 124.701746 
L 92.632793 123.953681 
L 92.275316 123.216937 
L 91.917839 122.490887 
L 91.560362 121.774997 
L 91.202885 121.068809 
L 90.845408 120.372007 
L 90.487931 119.684059 
L 90.130454 119.004554 
L 89.772977 118.33354 
L 89.415499 117.670365 
L 89.058022 117.015125 
L 88.700545 116.36736 
L 88.343068 115.72707 
L 87.985591 115.09411 
L 87.628114 114.468288 
L 87.270637 113.849505 
L 86.91316 113.234036 
L 86.555682 112.623914 
L 86.198205 112.020493 
L 85.840728 111.423749 
L 85.483251 110.833682 
L 85.125774 110.249348 
L 84.768297 109.665764 
L 84.41082 109.088785 
L 84.053343 108.518701 
L 83.695865 107.953261 
L 83.338388 107.388789 
L 82.980911 106.831405 
L 82.623434 106.279489 
L 82.265957 105.727645 
" style="fill:none;stroke:#000000;stroke-dasharray:5.55,2.4;stroke-dashoffset:0;stroke-width:1.5;"/>
   </g>
   <g id="line2d_16">
    <path clip-path="url(#pc0224d7cb0)" d="M 104.429538 174.528 
L 104.429538 181.997667 
L 104.072061 186.079027 
L 103.714584 189.019177 
L 103.357107 191.427612 
L 102.99963 193.574894 
L 102.642153 195.491868 
L 102.284676 197.229289 
L 101.927199 198.844927 
L 101.569721 200.378023 
L 101.212244 201.811955 
L 100.854767 203.163006 
L 100.49729 204.460858 
L 100.139813 205.713472 
L 99.782336 206.908895 
L 99.424859 208.054507 
L 99.067382 209.159912 
L 98.709905 210.24623 
L 98.352427 211.294687 
L 97.99495 212.308888 
L 97.637473 213.292511 
L 97.279996 214.249232 
L 96.922519 215.195768 
L 96.565042 216.117217 
L 96.207565 217.015781 
L 95.850088 217.893321 
L 95.49261 218.751605 
L 95.135133 219.592059 
L 94.777656 220.417902 
L 94.420179 221.234285 
L 94.062702 222.03504 
L 93.705225 222.821353 
L 93.347748 223.594118 
L 92.990271 224.354254 
L 92.632793 225.102319 
L 92.275316 225.839063 
L 91.917839 226.565113 
L 91.560362 227.281003 
L 91.202885 227.987191 
L 90.845408 228.683993 
L 90.487931 229.371941 
L 90.130454 230.051446 
L 89.772977 230.72246 
L 89.415499 231.385635 
L 89.058022 232.040875 
L 88.700545 232.68864 
L 88.343068 233.32893 
L 87.985591 233.96189 
L 87.628114 234.587712 
L 87.270637 235.206495 
L 86.91316 235.821964 
L 86.555682 236.432086 
L 86.198205 237.035507 
L 85.840728 237.632251 
L 85.483251 238.222318 
L 85.125774 238.806652 
L 84.768297 239.390236 
L 84.41082 239.967215 
L 84.053343 240.537299 
L 83.695865 241.102739 
L 83.338388 241.667211 
L 82.980911 242.224595 
L 82.623434 242.776511 
L 82.265957 243.328355 
" style="fill:none;stroke:#000000;stroke-dasharray:5.55,2.4;stroke-dashoffset:0;stroke-width:1.5;"/>
   </g>
   <g id="patch_4">
    <path d="M 57.6 307.584 
L 57.6 41.472 
" style="fill:none;stroke:#000000;stroke-linecap:square;stroke-linejoin:miter;stroke-width:0.8;"/>
   </g>
   <g id="patch_5">
    <path d="M 414.72 307.584 
L 414.72 41.472 
" style="fill:none;stroke:#000000;stroke-linecap:square;stroke-linejoin:miter;stroke-width:0.8;"/>
   </g>
   <g id="patch_6">
    <path d="M 57.6 307.584 
L 414.72 307.584 
" style="fill:none;stroke:#000000;stroke-linecap:square;stroke-linejoin:miter;stroke-width:0.8;"/>
   </g>
   <g id="patch_7">
    <path d="M 57.6 41.472 
L 414.72 41.472 
" style="fill:none;stroke:#000000;stroke-linecap:square;stroke-linejoin:miter;stroke-width:0.8;"/>
   </g>
   <g id="text_15">
    <!-- Bifurcation diagram for two coupled neurons, $\gamma=0.1, \beta=0.1$ -->
    <g transform="translate(68.85 35.472)scale(0.11 -0.11)">
     <defs>
      <path d="M 1259 2228 
L 1259 519 
L 2272 519 
Q 2781 519 3026 730 
Q 3272 941 3272 1375 
Q 3272 1813 3026 2020 
Q 2781 2228 2272 2228 
L 1259 2228 
z
M 1259 4147 
L 1259 2741 
L 2194 2741 
Q 2656 2741 2882 2914 
Q 3109 3088 3109 3444 
Q 3109 3797 2882 3972 
Q 2656 4147 2194 4147 
L 1259 4147 
z
M 628 4666 
L 2241 4666 
Q 2963 4666 3353 4366 
Q 3744 4066 3744 3513 
Q 3744 3084 3544 2831 
Q 3344 2578 2956 2516 
Q 3422 2416 3680 2098 
Q 3938 1781 3938 1306 
Q 3938 681 3513 340 
Q 3088 0 2303 0 
L 628 0 
L 628 4666 
z
" id="DejaVuSans-42" transform="scale(0.015625)"/>
      <path d="M 1959 3097 
Q 1497 3097 1228 2736 
Q 959 2375 959 1747 
Q 959 1119 1226 758 
Q 1494 397 1959 397 
Q 2419 397 2687 759 
Q 2956 1122 2956 1747 
Q 2956 2369 2687 2733 
Q 2419 3097 1959 3097 
z
M 1959 3584 
Q 2709 3584 3137 3096 
Q 3566 2609 3566 1747 
Q 3566 888 3137 398 
Q 2709 -91 1959 -91 
Q 1206 -91 779 398 
Q 353 888 353 1747 
Q 353 2609 779 3096 
Q 1206 3584 1959 3584 
z
" id="DejaVuSans-6f" transform="scale(0.015625)"/>
      <path d="M 2906 2969 
L 2906 4863 
L 3481 4863 
L 3481 0 
L 2906 0 
L 2906 525 
Q 2725 213 2448 61 
Q 2172 -91 1784 -91 
Q 1150 -91 751 415 
Q 353 922 353 1747 
Q 353 2572 751 3078 
Q 1150 3584 1784 3584 
Q 2172 3584 2448 3432 
Q 2725 3281 2906 2969 
z
M 947 1747 
Q 947 1113 1208 752 
Q 1469 391 1925 391 
Q 2381 391 2643 752 
Q 2906 1113 2906 1747 
Q 2906 2381 2643 2742 
Q 2381 3103 1925 3103 
Q 1469 3103 1208 2742 
Q 947 2381 947 1747 
z
" id="DejaVuSans-64" transform="scale(0.015625)"/>
      <path d="M 2906 1791 
Q 2906 2416 2648 2759 
Q 2391 3103 1925 3103 
Q 1463 3103 1205 2759 
Q 947 2416 947 1791 
Q 947 1169 1205 825 
Q 1463 481 1925 481 
Q 2391 481 2648 825 
Q 2906 1169 2906 1791 
z
M 3481 434 
Q 3481 -459 3084 -895 
Q 2688 -1331 1869 -1331 
Q 1566 -1331 1297 -1286 
Q 1028 -1241 775 -1147 
L 775 -588 
Q 1028 -725 1275 -790 
Q 1522 -856 1778 -856 
Q 2344 -856 2625 -561 
Q 2906 -266 2906 331 
L 2906 616 
Q 2728 306 2450 153 
Q 2172 0 1784 0 
Q 1141 0 747 490 
Q 353 981 353 1791 
Q 353 2603 747 3093 
Q 1141 3584 1784 3584 
Q 2172 3584 2450 3431 
Q 2728 3278 2906 2969 
L 2906 3500 
L 3481 3500 
L 3481 434 
z
" id="DejaVuSans-67" transform="scale(0.015625)"/>
      <path d="M 3328 2828 
Q 3544 3216 3844 3400 
Q 4144 3584 4550 3584 
Q 5097 3584 5394 3201 
Q 5691 2819 5691 2113 
L 5691 0 
L 5113 0 
L 5113 2094 
Q 5113 2597 4934 2840 
Q 4756 3084 4391 3084 
Q 3944 3084 3684 2787 
Q 3425 2491 3425 1978 
L 3425 0 
L 2847 0 
L 2847 2094 
Q 2847 2600 2669 2842 
Q 2491 3084 2119 3084 
Q 1678 3084 1418 2786 
Q 1159 2488 1159 1978 
L 1159 0 
L 581 0 
L 581 3500 
L 1159 3500 
L 1159 2956 
Q 1356 3278 1631 3431 
Q 1906 3584 2284 3584 
Q 2666 3584 2933 3390 
Q 3200 3197 3328 2828 
z
" id="DejaVuSans-6d" transform="scale(0.015625)"/>
      <path d="M 269 3500 
L 844 3500 
L 1563 769 
L 2278 3500 
L 2956 3500 
L 3675 769 
L 4391 3500 
L 4966 3500 
L 4050 0 
L 3372 0 
L 2619 2869 
L 1863 0 
L 1184 0 
L 269 3500 
z
" id="DejaVuSans-77" transform="scale(0.015625)"/>
      <path d="M 1159 525 
L 1159 -1331 
L 581 -1331 
L 581 3500 
L 1159 3500 
L 1159 2969 
Q 1341 3281 1617 3432 
Q 1894 3584 2278 3584 
Q 2916 3584 3314 3078 
Q 3713 2572 3713 1747 
Q 3713 922 3314 415 
Q 2916 -91 2278 -91 
Q 1894 -91 1617 61 
Q 1341 213 1159 525 
z
M 3116 1747 
Q 3116 2381 2855 2742 
Q 2594 3103 2138 3103 
Q 1681 3103 1420 2742 
Q 1159 2381 1159 1747 
Q 1159 1113 1420 752 
Q 1681 391 2138 391 
Q 2594 391 2855 752 
Q 3116 1113 3116 1747 
z
" id="DejaVuSans-70" transform="scale(0.015625)"/>
      <path d="M 603 4863 
L 1178 4863 
L 1178 0 
L 603 0 
L 603 4863 
z
" id="DejaVuSans-6c" transform="scale(0.015625)"/>
      <path d="M 750 794 
L 1409 794 
L 1409 256 
L 897 -744 
L 494 -744 
L 750 256 
L 750 794 
z
" id="DejaVuSans-2c" transform="scale(0.015625)"/>
      <path d="M 1491 2950 
L 1838 788 
L 3456 3500 
L 4066 3500 
L 1972 0 
L 1713 -1331 
L 1138 -1331 
L 1397 0 
L 988 2613 
Q 925 3006 628 3006 
L 475 3006 
L 569 3500 
L 788 3500 
Q 1403 3500 1491 2950 
z
" id="DejaVuSans-Oblique-3b3" transform="scale(0.015625)"/>
      <path d="M 678 2906 
L 4684 2906 
L 4684 2381 
L 678 2381 
L 678 2906 
z
M 678 1631 
L 4684 1631 
L 4684 1100 
L 678 1100 
L 678 1631 
z
" id="DejaVuSans-3d" transform="scale(0.015625)"/>
      <path d="M 872 216 
L 572 -1331 
L -6 -1331 
L 928 3478 
Q 1206 4903 2538 4903 
Q 3888 4903 3659 3700 
Q 3503 2844 2894 2531 
Q 3713 2250 3553 1416 
Q 3272 -69 1759 -66 
Q 1097 -63 872 216 
z
M 1019 966 
Q 1259 422 1875 425 
Q 2775 425 2966 1406 
Q 3138 2288 1675 2219 
L 1778 2750 
Q 2909 2731 3106 3750 
Q 3241 4438 2509 4434 
Q 1691 4434 1503 3459 
L 1019 966 
z
" id="DejaVuSans-Oblique-3b2" transform="scale(0.015625)"/>
     </defs>
     <use transform="translate(0 0.390625)" xlink:href="#DejaVuSans-42"/>
     <use transform="translate(68.603516 0.390625)" xlink:href="#DejaVuSans-69"/>
     <use transform="translate(96.386719 0.390625)" xlink:href="#DejaVuSans-66"/>
     <use transform="translate(131.591797 0.390625)" xlink:href="#DejaVuSans-75"/>
     <use transform="translate(194.970703 0.390625)" xlink:href="#DejaVuSans-72"/>
     <use transform="translate(236.083984 0.390625)" xlink:href="#DejaVuSans-63"/>
     <use transform="translate(291.064453 0.390625)" xlink:href="#DejaVuSans-61"/>
     <use transform="translate(352.34375 0.390625)" xlink:href="#DejaVuSans-74"/>
     <use transform="translate(391.552734 0.390625)" xlink:href="#DejaVuSans-69"/>
     <use transform="translate(419.335938 0.390625)" xlink:href="#DejaVuSans-6f"/>
     <use transform="translate(480.517578 0.390625)" xlink:href="#DejaVuSans-6e"/>
     <use transform="translate(543.896484 0.390625)" xlink:href="#DejaVuSans-20"/>
     <use transform="translate(575.683594 0.390625)" xlink:href="#DejaVuSans-64"/>
     <use transform="translate(639.160156 0.390625)" xlink:href="#DejaVuSans-69"/>
     <use transform="translate(666.943359 0.390625)" xlink:href="#DejaVuSans-61"/>
     <use transform="translate(728.222656 0.390625)" xlink:href="#DejaVuSans-67"/>
     <use transform="translate(791.699219 0.390625)" xlink:href="#DejaVuSans-72"/>
     <use transform="translate(832.8125 0.390625)" xlink:href="#DejaVuSans-61"/>
     <use transform="translate(894.091797 0.390625)" xlink:href="#DejaVuSans-6d"/>
     <use transform="translate(991.503906 0.390625)" xlink:href="#DejaVuSans-20"/>
     <use transform="translate(1023.291016 0.390625)" xlink:href="#DejaVuSans-66"/>
     <use transform="translate(1058.496094 0.390625)" xlink:href="#DejaVuSans-6f"/>
     <use transform="translate(1119.677734 0.390625)" xlink:href="#DejaVuSans-72"/>
     <use transform="translate(1160.791016 0.390625)" xlink:href="#DejaVuSans-20"/>
     <use transform="translate(1192.578125 0.390625)" xlink:href="#DejaVuSans-74"/>
     <use transform="translate(1231.787109 0.390625)" xlink:href="#DejaVuSans-77"/>
     <use transform="translate(1313.574219 0.390625)" xlink:href="#DejaVuSans-6f"/>
     <use transform="translate(1374.755859 0.390625)" xlink:href="#DejaVuSans-20"/>
     <use transform="translate(1406.542969 0.390625)" xlink:href="#DejaVuSans-63"/>
     <use transform="translate(1461.523438 0.390625)" xlink:href="#DejaVuSans-6f"/>
     <use transform="translate(1522.705078 0.390625)" xlink:href="#DejaVuSans-75"/>
     <use transform="translate(1586.083984 0.390625)" xlink:href="#DejaVuSans-70"/>
     <use transform="translate(1649.560547 0.390625)" xlink:href="#DejaVuSans-6c"/>
     <use transform="translate(1677.34375 0.390625)" xlink:href="#DejaVuSans-65"/>
     <use transform="translate(1738.867188 0.390625)" xlink:href="#DejaVuSans-64"/>
     <use transform="translate(1802.34375 0.390625)" xlink:href="#DejaVuSans-20"/>
     <use transform="translate(1834.130859 0.390625)" xlink:href="#DejaVuSans-6e"/>
     <use transform="translate(1897.509766 0.390625)" xlink:href="#DejaVuSans-65"/>
     <use transform="translate(1959.033203 0.390625)" xlink:href="#DejaVuSans-75"/>
     <use transform="translate(2022.412109 0.390625)" xlink:href="#DejaVuSans-72"/>
     <use transform="translate(2063.525391 0.390625)" xlink:href="#DejaVuSans-6f"/>
     <use transform="translate(2124.707031 0.390625)" xlink:href="#DejaVuSans-6e"/>
     <use transform="translate(2188.085938 0.390625)" xlink:href="#DejaVuSans-73"/>
     <use transform="translate(2240.185547 0.390625)" xlink:href="#DejaVuSans-2c"/>
     <use transform="translate(2271.972656 0.390625)" xlink:href="#DejaVuSans-20"/>
     <use transform="translate(2303.759766 0.390625)" xlink:href="#DejaVuSans-Oblique-3b3"/>
     <use transform="translate(2382.421875 0.390625)" xlink:href="#DejaVuSans-3d"/>
     <use transform="translate(2485.693359 0.390625)" xlink:href="#DejaVuSans-30"/>
     <use transform="translate(2549.316406 0.390625)" xlink:href="#DejaVuSans-2e"/>
     <use transform="translate(2581.103516 0.390625)" xlink:href="#DejaVuSans-31"/>
     <use transform="translate(2644.726562 0.390625)" xlink:href="#DejaVuSans-2c"/>
     <use transform="translate(2695.996094 0.390625)" xlink:href="#DejaVuSans-Oblique-3b2"/>
     <use transform="translate(2779.296875 0.390625)" xlink:href="#DejaVuSans-3d"/>
     <use transform="translate(2882.568359 0.390625)" xlink:href="#DejaVuSans-30"/>
     <use transform="translate(2946.191406 0.390625)" xlink:href="#DejaVuSans-2e"/>
     <use transform="translate(2977.978516 0.390625)" xlink:href="#DejaVuSans-31"/>
    </g>
   </g>
   <g id="legend_1">
    <g id="patch_8">
     <path d="M 332.5075 92.13385 
L 407.72 92.13385 
Q 409.72 92.13385 409.72 90.13385 
L 409.72 61.7776 
Q 409.72 59.7776 407.72 59.7776 
L 332.5075 59.7776 
Q 330.5075 59.7776 330.5075 61.7776 
L 330.5075 90.13385 
Q 330.5075 92.13385 332.5075 92.13385 
z
" style="fill:#ffffff;opacity:0.8;stroke:#cccccc;stroke-linejoin:miter;"/>
    </g>
    <g id="line2d_17">
     <path d="M 334.5075 67.876037 
L 354.5075 67.876037 
" style="fill:none;stroke:#000000;stroke-dasharray:5.55,2.4;stroke-dashoffset:0;stroke-width:1.5;"/>
    </g>
    <g id="line2d_18"/>
    <g id="text_16">
     <!-- unstable -->
     <g transform="translate(362.5075 71.376037)scale(0.1 -0.1)">
      <defs>
       <path d="M 3116 1747 
Q 3116 2381 2855 2742 
Q 2594 3103 2138 3103 
Q 1681 3103 1420 2742 
Q 1159 2381 1159 1747 
Q 1159 1113 1420 752 
Q 1681 391 2138 391 
Q 2594 391 2855 752 
Q 3116 1113 3116 1747 
z
M 1159 2969 
Q 1341 3281 1617 3432 
Q 1894 3584 2278 3584 
Q 2916 3584 3314 3078 
Q 3713 2572 3713 1747 
Q 3713 922 3314 415 
Q 2916 -91 2278 -91 
Q 1894 -91 1617 61 
Q 1341 213 1159 525 
L 1159 0 
L 581 0 
L 581 4863 
L 1159 4863 
L 1159 2969 
z
" id="DejaVuSans-62" transform="scale(0.015625)"/>
      </defs>
      <use xlink:href="#DejaVuSans-75"/>
      <use x="63.378906" xlink:href="#DejaVuSans-6e"/>
      <use x="126.757812" xlink:href="#DejaVuSans-73"/>
      <use x="178.857422" xlink:href="#DejaVuSans-74"/>
      <use x="218.066406" xlink:href="#DejaVuSans-61"/>
      <use x="279.345703" xlink:href="#DejaVuSans-62"/>
      <use x="342.822266" xlink:href="#DejaVuSans-6c"/>
      <use x="370.605469" xlink:href="#DejaVuSans-65"/>
     </g>
    </g>
    <g id="line2d_19">
     <path d="M 334.5075 82.554163 
L 354.5075 82.554163 
" style="fill:none;stroke:#000000;stroke-linecap:square;stroke-width:1.5;"/>
    </g>
    <g id="line2d_20"/>
    <g id="text_17">
     <!-- stable -->
     <g transform="translate(362.5075 86.054163)scale(0.1 -0.1)">
      <use xlink:href="#DejaVuSans-73"/>
      <use x="52.099609" xlink:href="#DejaVuSans-74"/>
      <use x="91.308594" xlink:href="#DejaVuSans-61"/>
      <use x="152.587891" xlink:href="#DejaVuSans-62"/>
      <use x="216.064453" xlink:href="#DejaVuSans-6c"/>
      <use x="243.847656" xlink:href="#DejaVuSans-65"/>
     </g>
    </g>
   </g>
  </g>
 </g>
 <defs>
  <clipPath id="pc0224d7cb0">
   <rect height="266.112" width="357.12" x="57.6" y="41.472"/>
  </clipPath>
 </defs>
</svg>
