<?xml version="1.0" encoding="utf-8" standalone="no"?>
<!DOCTYPE svg PUBLIC "-//W3C//DTD SVG 1.1//EN"
  "http://www.w3.org/Graphics/SVG/1.1/DTD/svg11.dtd">
<!-- Created with matplotlib (https://matplotlib.org/) -->
<svg height="432pt" version="1.1" viewBox="0 0 576 432" width="576pt" xmlns="http://www.w3.org/2000/svg" xmlns:xlink="http://www.w3.org/1999/xlink">
 <metadata>
  <rdf:RDF xmlns:cc="http://creativecommons.org/ns#" xmlns:dc="http://purl.org/dc/elements/1.1/" xmlns:rdf="http://www.w3.org/1999/02/22-rdf-syntax-ns#">
   <cc:Work>
    <dc:type rdf:resource="http://purl.org/dc/dcmitype/StillImage"/>
    <dc:date>2021-08-16T16:55:56.809997</dc:date>
    <dc:format>image/svg+xml</dc:format>
    <dc:creator>
     <cc:Agent>
      <dc:title>Matplotlib v3.3.3, https://matplotlib.org/</dc:title>
     </cc:Agent>
    </dc:creator>
   </cc:Work>
  </rdf:RDF>
 </metadata>
 <defs>
  <style type="text/css">*{stroke-linecap:butt;stroke-linejoin:round;}</style>
 </defs>
 <g id="figure_1">
  <g id="patch_1">
   <path d="M 0 432 
L 576 432 
L 576 0 
L 0 0 
z
" style="fill:#ffffff;"/>
  </g>
  <g id="axes_1">
   <g id="patch_2">
    <path d="M 55.82 379.72 
L 556.515 379.72 
L 556.515 38.76 
L 55.82 38.76 
z
" style="fill:#ffffff;"/>
   </g>
   <g id="matplotlib.axis_1">
    <g id="xtick_1">
     <g id="line2d_1">
      <defs>
       <path d="M 0 0 
L 0 3.5 
" id="ma977152d92" style="stroke:#000000;stroke-width:0.8;"/>
      </defs>
      <g>
       <use style="stroke:#000000;stroke-width:0.8;" x="55.82" xlink:href="#ma977152d92" y="379.72"/>
      </g>
     </g>
     <g id="text_1">
      <!-- 1.0 -->
      <g transform="translate(47.073281 395.078281)scale(0.11 -0.11)">
       <defs>
        <path d="M 12.40625 8.296875 
L 28.515625 8.296875 
L 28.515625 63.921875 
L 10.984375 60.40625 
L 10.984375 69.390625 
L 28.421875 72.90625 
L 38.28125 72.90625 
L 38.28125 8.296875 
L 54.390625 8.296875 
L 54.390625 0 
L 12.40625 0 
z
" id="DejaVuSans-49"/>
        <path d="M 10.6875 12.40625 
L 21 12.40625 
L 21 0 
L 10.6875 0 
z
" id="DejaVuSans-46"/>
        <path d="M 31.78125 66.40625 
Q 24.171875 66.40625 20.328125 58.90625 
Q 16.5 51.421875 16.5 36.375 
Q 16.5 21.390625 20.328125 13.890625 
Q 24.171875 6.390625 31.78125 6.390625 
Q 39.453125 6.390625 43.28125 13.890625 
Q 47.125 21.390625 47.125 36.375 
Q 47.125 51.421875 43.28125 58.90625 
Q 39.453125 66.40625 31.78125 66.40625 
z
M 31.78125 74.21875 
Q 44.046875 74.21875 50.515625 64.515625 
Q 56.984375 54.828125 56.984375 36.375 
Q 56.984375 17.96875 50.515625 8.265625 
Q 44.046875 -1.421875 31.78125 -1.421875 
Q 19.53125 -1.421875 13.0625 8.265625 
Q 6.59375 17.96875 6.59375 36.375 
Q 6.59375 54.828125 13.0625 64.515625 
Q 19.53125 74.21875 31.78125 74.21875 
z
" id="DejaVuSans-48"/>
       </defs>
       <use xlink:href="#DejaVuSans-49"/>
       <use x="63.623047" xlink:href="#DejaVuSans-46"/>
       <use x="95.410156" xlink:href="#DejaVuSans-48"/>
      </g>
     </g>
    </g>
    <g id="xtick_2">
     <g id="line2d_2">
      <g>
       <use style="stroke:#000000;stroke-width:0.8;" x="155.959" xlink:href="#ma977152d92" y="379.72"/>
      </g>
     </g>
     <g id="text_2">
      <!-- 1.2 -->
      <g transform="translate(147.212281 395.078281)scale(0.11 -0.11)">
       <defs>
        <path d="M 19.1875 8.296875 
L 53.609375 8.296875 
L 53.609375 0 
L 7.328125 0 
L 7.328125 8.296875 
Q 12.9375 14.109375 22.625 23.890625 
Q 32.328125 33.6875 34.8125 36.53125 
Q 39.546875 41.84375 41.421875 45.53125 
Q 43.3125 49.21875 43.3125 52.78125 
Q 43.3125 58.59375 39.234375 62.25 
Q 35.15625 65.921875 28.609375 65.921875 
Q 23.96875 65.921875 18.8125 64.3125 
Q 13.671875 62.703125 7.8125 59.421875 
L 7.8125 69.390625 
Q 13.765625 71.78125 18.9375 73 
Q 24.125 74.21875 28.421875 74.21875 
Q 39.75 74.21875 46.484375 68.546875 
Q 53.21875 62.890625 53.21875 53.421875 
Q 53.21875 48.921875 51.53125 44.890625 
Q 49.859375 40.875 45.40625 35.40625 
Q 44.1875 33.984375 37.640625 27.21875 
Q 31.109375 20.453125 19.1875 8.296875 
z
" id="DejaVuSans-50"/>
       </defs>
       <use xlink:href="#DejaVuSans-49"/>
       <use x="63.623047" xlink:href="#DejaVuSans-46"/>
       <use x="95.410156" xlink:href="#DejaVuSans-50"/>
      </g>
     </g>
    </g>
    <g id="xtick_3">
     <g id="line2d_3">
      <g>
       <use style="stroke:#000000;stroke-width:0.8;" x="256.098" xlink:href="#ma977152d92" y="379.72"/>
      </g>
     </g>
     <g id="text_3">
      <!-- 1.4 -->
      <g transform="translate(247.351281 395.078281)scale(0.11 -0.11)">
       <defs>
        <path d="M 37.796875 64.3125 
L 12.890625 25.390625 
L 37.796875 25.390625 
z
M 35.203125 72.90625 
L 47.609375 72.90625 
L 47.609375 25.390625 
L 58.015625 25.390625 
L 58.015625 17.1875 
L 47.609375 17.1875 
L 47.609375 0 
L 37.796875 0 
L 37.796875 17.1875 
L 4.890625 17.1875 
L 4.890625 26.703125 
z
" id="DejaVuSans-52"/>
       </defs>
       <use xlink:href="#DejaVuSans-49"/>
       <use x="63.623047" xlink:href="#DejaVuSans-46"/>
       <use x="95.410156" xlink:href="#DejaVuSans-52"/>
      </g>
     </g>
    </g>
    <g id="xtick_4">
     <g id="line2d_4">
      <g>
       <use style="stroke:#000000;stroke-width:0.8;" x="356.237" xlink:href="#ma977152d92" y="379.72"/>
      </g>
     </g>
     <g id="text_4">
      <!-- 1.6 -->
      <g transform="translate(347.490281 395.078281)scale(0.11 -0.11)">
       <defs>
        <path d="M 33.015625 40.375 
Q 26.375 40.375 22.484375 35.828125 
Q 18.609375 31.296875 18.609375 23.390625 
Q 18.609375 15.53125 22.484375 10.953125 
Q 26.375 6.390625 33.015625 6.390625 
Q 39.65625 6.390625 43.53125 10.953125 
Q 47.40625 15.53125 47.40625 23.390625 
Q 47.40625 31.296875 43.53125 35.828125 
Q 39.65625 40.375 33.015625 40.375 
z
M 52.59375 71.296875 
L 52.59375 62.3125 
Q 48.875 64.0625 45.09375 64.984375 
Q 41.3125 65.921875 37.59375 65.921875 
Q 27.828125 65.921875 22.671875 59.328125 
Q 17.53125 52.734375 16.796875 39.40625 
Q 19.671875 43.65625 24.015625 45.921875 
Q 28.375 48.1875 33.59375 48.1875 
Q 44.578125 48.1875 50.953125 41.515625 
Q 57.328125 34.859375 57.328125 23.390625 
Q 57.328125 12.15625 50.6875 5.359375 
Q 44.046875 -1.421875 33.015625 -1.421875 
Q 20.359375 -1.421875 13.671875 8.265625 
Q 6.984375 17.96875 6.984375 36.375 
Q 6.984375 53.65625 15.1875 63.9375 
Q 23.390625 74.21875 37.203125 74.21875 
Q 40.921875 74.21875 44.703125 73.484375 
Q 48.484375 72.75 52.59375 71.296875 
z
" id="DejaVuSans-54"/>
       </defs>
       <use xlink:href="#DejaVuSans-49"/>
       <use x="63.623047" xlink:href="#DejaVuSans-46"/>
       <use x="95.410156" xlink:href="#DejaVuSans-54"/>
      </g>
     </g>
    </g>
    <g id="xtick_5">
     <g id="line2d_5">
      <g>
       <use style="stroke:#000000;stroke-width:0.8;" x="456.376" xlink:href="#ma977152d92" y="379.72"/>
      </g>
     </g>
     <g id="text_5">
      <!-- 1.8 -->
      <g transform="translate(447.629281 395.078281)scale(0.11 -0.11)">
       <defs>
        <path d="M 31.78125 34.625 
Q 24.75 34.625 20.71875 30.859375 
Q 16.703125 27.09375 16.703125 20.515625 
Q 16.703125 13.921875 20.71875 10.15625 
Q 24.75 6.390625 31.78125 6.390625 
Q 38.8125 6.390625 42.859375 10.171875 
Q 46.921875 13.96875 46.921875 20.515625 
Q 46.921875 27.09375 42.890625 30.859375 
Q 38.875 34.625 31.78125 34.625 
z
M 21.921875 38.8125 
Q 15.578125 40.375 12.03125 44.71875 
Q 8.5 49.078125 8.5 55.328125 
Q 8.5 64.0625 14.71875 69.140625 
Q 20.953125 74.21875 31.78125 74.21875 
Q 42.671875 74.21875 48.875 69.140625 
Q 55.078125 64.0625 55.078125 55.328125 
Q 55.078125 49.078125 51.53125 44.71875 
Q 48 40.375 41.703125 38.8125 
Q 48.828125 37.15625 52.796875 32.3125 
Q 56.78125 27.484375 56.78125 20.515625 
Q 56.78125 9.90625 50.3125 4.234375 
Q 43.84375 -1.421875 31.78125 -1.421875 
Q 19.734375 -1.421875 13.25 4.234375 
Q 6.78125 9.90625 6.78125 20.515625 
Q 6.78125 27.484375 10.78125 32.3125 
Q 14.796875 37.15625 21.921875 38.8125 
z
M 18.3125 54.390625 
Q 18.3125 48.734375 21.84375 45.5625 
Q 25.390625 42.390625 31.78125 42.390625 
Q 38.140625 42.390625 41.71875 45.5625 
Q 45.3125 48.734375 45.3125 54.390625 
Q 45.3125 60.0625 41.71875 63.234375 
Q 38.140625 66.40625 31.78125 66.40625 
Q 25.390625 66.40625 21.84375 63.234375 
Q 18.3125 60.0625 18.3125 54.390625 
z
" id="DejaVuSans-56"/>
       </defs>
       <use xlink:href="#DejaVuSans-49"/>
       <use x="63.623047" xlink:href="#DejaVuSans-46"/>
       <use x="95.410156" xlink:href="#DejaVuSans-56"/>
      </g>
     </g>
    </g>
    <g id="xtick_6">
     <g id="line2d_6">
      <g>
       <use style="stroke:#000000;stroke-width:0.8;" x="556.515" xlink:href="#ma977152d92" y="379.72"/>
      </g>
     </g>
     <g id="text_6">
      <!-- 2.0 -->
      <g transform="translate(547.768281 395.078281)scale(0.11 -0.11)">
       <use xlink:href="#DejaVuSans-50"/>
       <use x="63.623047" xlink:href="#DejaVuSans-46"/>
       <use x="95.410156" xlink:href="#DejaVuSans-48"/>
      </g>
     </g>
    </g>
    <g id="text_7">
     <!-- Current $I$ -->
     <g transform="translate(275.2975 418.00375)scale(0.14 -0.14)">
      <defs>
       <path d="M 64.40625 67.28125 
L 64.40625 56.890625 
Q 59.421875 61.53125 53.78125 63.8125 
Q 48.140625 66.109375 41.796875 66.109375 
Q 29.296875 66.109375 22.65625 58.46875 
Q 16.015625 50.828125 16.015625 36.375 
Q 16.015625 21.96875 22.65625 14.328125 
Q 29.296875 6.6875 41.796875 6.6875 
Q 48.140625 6.6875 53.78125 8.984375 
Q 59.421875 11.28125 64.40625 15.921875 
L 64.40625 5.609375 
Q 59.234375 2.09375 53.4375 0.328125 
Q 47.65625 -1.421875 41.21875 -1.421875 
Q 24.65625 -1.421875 15.125 8.703125 
Q 5.609375 18.84375 5.609375 36.375 
Q 5.609375 53.953125 15.125 64.078125 
Q 24.65625 74.21875 41.21875 74.21875 
Q 47.75 74.21875 53.53125 72.484375 
Q 59.328125 70.75 64.40625 67.28125 
z
" id="DejaVuSans-67"/>
       <path d="M 8.5 21.578125 
L 8.5 54.6875 
L 17.484375 54.6875 
L 17.484375 21.921875 
Q 17.484375 14.15625 20.5 10.265625 
Q 23.53125 6.390625 29.59375 6.390625 
Q 36.859375 6.390625 41.078125 11.03125 
Q 45.3125 15.671875 45.3125 23.6875 
L 45.3125 54.6875 
L 54.296875 54.6875 
L 54.296875 0 
L 45.3125 0 
L 45.3125 8.40625 
Q 42.046875 3.421875 37.71875 1 
Q 33.40625 -1.421875 27.6875 -1.421875 
Q 18.265625 -1.421875 13.375 4.4375 
Q 8.5 10.296875 8.5 21.578125 
z
M 31.109375 56 
z
" id="DejaVuSans-117"/>
       <path d="M 41.109375 46.296875 
Q 39.59375 47.171875 37.8125 47.578125 
Q 36.03125 48 33.890625 48 
Q 26.265625 48 22.1875 43.046875 
Q 18.109375 38.09375 18.109375 28.8125 
L 18.109375 0 
L 9.078125 0 
L 9.078125 54.6875 
L 18.109375 54.6875 
L 18.109375 46.1875 
Q 20.953125 51.171875 25.484375 53.578125 
Q 30.03125 56 36.53125 56 
Q 37.453125 56 38.578125 55.875 
Q 39.703125 55.765625 41.0625 55.515625 
z
" id="DejaVuSans-114"/>
       <path d="M 56.203125 29.59375 
L 56.203125 25.203125 
L 14.890625 25.203125 
Q 15.484375 15.921875 20.484375 11.0625 
Q 25.484375 6.203125 34.421875 6.203125 
Q 39.59375 6.203125 44.453125 7.46875 
Q 49.3125 8.734375 54.109375 11.28125 
L 54.109375 2.78125 
Q 49.265625 0.734375 44.1875 -0.34375 
Q 39.109375 -1.421875 33.890625 -1.421875 
Q 20.796875 -1.421875 13.15625 6.1875 
Q 5.515625 13.8125 5.515625 26.8125 
Q 5.515625 40.234375 12.765625 48.109375 
Q 20.015625 56 32.328125 56 
Q 43.359375 56 49.78125 48.890625 
Q 56.203125 41.796875 56.203125 29.59375 
z
M 47.21875 32.234375 
Q 47.125 39.59375 43.09375 43.984375 
Q 39.0625 48.390625 32.421875 48.390625 
Q 24.90625 48.390625 20.390625 44.140625 
Q 15.875 39.890625 15.1875 32.171875 
z
" id="DejaVuSans-101"/>
       <path d="M 54.890625 33.015625 
L 54.890625 0 
L 45.90625 0 
L 45.90625 32.71875 
Q 45.90625 40.484375 42.875 44.328125 
Q 39.84375 48.1875 33.796875 48.1875 
Q 26.515625 48.1875 22.3125 43.546875 
Q 18.109375 38.921875 18.109375 30.90625 
L 18.109375 0 
L 9.078125 0 
L 9.078125 54.6875 
L 18.109375 54.6875 
L 18.109375 46.1875 
Q 21.34375 51.125 25.703125 53.5625 
Q 30.078125 56 35.796875 56 
Q 45.21875 56 50.046875 50.171875 
Q 54.890625 44.34375 54.890625 33.015625 
z
" id="DejaVuSans-110"/>
       <path d="M 18.3125 70.21875 
L 18.3125 54.6875 
L 36.8125 54.6875 
L 36.8125 47.703125 
L 18.3125 47.703125 
L 18.3125 18.015625 
Q 18.3125 11.328125 20.140625 9.421875 
Q 21.96875 7.515625 27.59375 7.515625 
L 36.8125 7.515625 
L 36.8125 0 
L 27.59375 0 
Q 17.1875 0 13.234375 3.875 
Q 9.28125 7.765625 9.28125 18.015625 
L 9.28125 47.703125 
L 2.6875 47.703125 
L 2.6875 54.6875 
L 9.28125 54.6875 
L 9.28125 70.21875 
z
" id="DejaVuSans-116"/>
       <path id="DejaVuSans-32"/>
       <path d="M 16.890625 72.90625 
L 26.8125 72.90625 
L 12.59375 0 
L 2.6875 0 
z
" id="DejaVuSans-Oblique-73"/>
      </defs>
      <use transform="translate(0 0.78125)" xlink:href="#DejaVuSans-67"/>
      <use transform="translate(69.824219 0.78125)" xlink:href="#DejaVuSans-117"/>
      <use transform="translate(133.203125 0.78125)" xlink:href="#DejaVuSans-114"/>
      <use transform="translate(174.316406 0.78125)" xlink:href="#DejaVuSans-114"/>
      <use transform="translate(215.429688 0.78125)" xlink:href="#DejaVuSans-101"/>
      <use transform="translate(276.953125 0.78125)" xlink:href="#DejaVuSans-110"/>
      <use transform="translate(340.332031 0.78125)" xlink:href="#DejaVuSans-116"/>
      <use transform="translate(379.541016 0.78125)" xlink:href="#DejaVuSans-32"/>
      <use transform="translate(411.328125 0.78125)" xlink:href="#DejaVuSans-Oblique-73"/>
     </g>
    </g>
   </g>
   <g id="matplotlib.axis_2">
    <g id="ytick_1">
     <g id="line2d_7">
      <defs>
       <path d="M 0 0 
L -3.5 0 
" id="mec989b93af" style="stroke:#000000;stroke-width:0.8;"/>
      </defs>
      <g>
       <use style="stroke:#000000;stroke-width:0.8;" x="55.82" xlink:href="#mec989b93af" y="317.711638"/>
      </g>
     </g>
     <g id="text_8">
      <!-- 0.2 -->
      <g transform="translate(31.326563 321.890779)scale(0.11 -0.11)">
       <use xlink:href="#DejaVuSans-48"/>
       <use x="63.623047" xlink:href="#DejaVuSans-46"/>
       <use x="95.410156" xlink:href="#DejaVuSans-50"/>
      </g>
     </g>
    </g>
    <g id="ytick_2">
     <g id="line2d_8">
      <g>
       <use style="stroke:#000000;stroke-width:0.8;" x="55.82" xlink:href="#mec989b93af" y="245.397213"/>
      </g>
     </g>
     <g id="text_9">
      <!-- 0.4 -->
      <g transform="translate(31.326563 249.576353)scale(0.11 -0.11)">
       <use xlink:href="#DejaVuSans-48"/>
       <use x="63.623047" xlink:href="#DejaVuSans-46"/>
       <use x="95.410156" xlink:href="#DejaVuSans-52"/>
      </g>
     </g>
    </g>
    <g id="ytick_3">
     <g id="line2d_9">
      <g>
       <use style="stroke:#000000;stroke-width:0.8;" x="55.82" xlink:href="#mec989b93af" y="173.082787"/>
      </g>
     </g>
     <g id="text_10">
      <!-- 0.6 -->
      <g transform="translate(31.326563 177.261928)scale(0.11 -0.11)">
       <use xlink:href="#DejaVuSans-48"/>
       <use x="63.623047" xlink:href="#DejaVuSans-46"/>
       <use x="95.410156" xlink:href="#DejaVuSans-54"/>
      </g>
     </g>
    </g>
    <g id="ytick_4">
     <g id="line2d_10">
      <g>
       <use style="stroke:#000000;stroke-width:0.8;" x="55.82" xlink:href="#mec989b93af" y="100.768362"/>
      </g>
     </g>
     <g id="text_11">
      <!-- 0.8 -->
      <g transform="translate(31.326563 104.947502)scale(0.11 -0.11)">
       <use xlink:href="#DejaVuSans-48"/>
       <use x="63.623047" xlink:href="#DejaVuSans-46"/>
       <use x="95.410156" xlink:href="#DejaVuSans-56"/>
      </g>
     </g>
    </g>
    <g id="text_12">
     <!-- Phase Difference $\phi$ -->
     <g transform="translate(24.386563 275.6)rotate(-90)scale(0.14 -0.14)">
      <defs>
       <path d="M 19.671875 64.796875 
L 19.671875 37.40625 
L 32.078125 37.40625 
Q 38.96875 37.40625 42.71875 40.96875 
Q 46.484375 44.53125 46.484375 51.125 
Q 46.484375 57.671875 42.71875 61.234375 
Q 38.96875 64.796875 32.078125 64.796875 
z
M 9.8125 72.90625 
L 32.078125 72.90625 
Q 44.34375 72.90625 50.609375 67.359375 
Q 56.890625 61.8125 56.890625 51.125 
Q 56.890625 40.328125 50.609375 34.8125 
Q 44.34375 29.296875 32.078125 29.296875 
L 19.671875 29.296875 
L 19.671875 0 
L 9.8125 0 
z
" id="DejaVuSans-80"/>
       <path d="M 54.890625 33.015625 
L 54.890625 0 
L 45.90625 0 
L 45.90625 32.71875 
Q 45.90625 40.484375 42.875 44.328125 
Q 39.84375 48.1875 33.796875 48.1875 
Q 26.515625 48.1875 22.3125 43.546875 
Q 18.109375 38.921875 18.109375 30.90625 
L 18.109375 0 
L 9.078125 0 
L 9.078125 75.984375 
L 18.109375 75.984375 
L 18.109375 46.1875 
Q 21.34375 51.125 25.703125 53.5625 
Q 30.078125 56 35.796875 56 
Q 45.21875 56 50.046875 50.171875 
Q 54.890625 44.34375 54.890625 33.015625 
z
" id="DejaVuSans-104"/>
       <path d="M 34.28125 27.484375 
Q 23.390625 27.484375 19.1875 25 
Q 14.984375 22.515625 14.984375 16.5 
Q 14.984375 11.71875 18.140625 8.90625 
Q 21.296875 6.109375 26.703125 6.109375 
Q 34.1875 6.109375 38.703125 11.40625 
Q 43.21875 16.703125 43.21875 25.484375 
L 43.21875 27.484375 
z
M 52.203125 31.203125 
L 52.203125 0 
L 43.21875 0 
L 43.21875 8.296875 
Q 40.140625 3.328125 35.546875 0.953125 
Q 30.953125 -1.421875 24.3125 -1.421875 
Q 15.921875 -1.421875 10.953125 3.296875 
Q 6 8.015625 6 15.921875 
Q 6 25.140625 12.171875 29.828125 
Q 18.359375 34.515625 30.609375 34.515625 
L 43.21875 34.515625 
L 43.21875 35.40625 
Q 43.21875 41.609375 39.140625 45 
Q 35.0625 48.390625 27.6875 48.390625 
Q 23 48.390625 18.546875 47.265625 
Q 14.109375 46.140625 10.015625 43.890625 
L 10.015625 52.203125 
Q 14.9375 54.109375 19.578125 55.046875 
Q 24.21875 56 28.609375 56 
Q 40.484375 56 46.34375 49.84375 
Q 52.203125 43.703125 52.203125 31.203125 
z
" id="DejaVuSans-97"/>
       <path d="M 44.28125 53.078125 
L 44.28125 44.578125 
Q 40.484375 46.53125 36.375 47.5 
Q 32.28125 48.484375 27.875 48.484375 
Q 21.1875 48.484375 17.84375 46.4375 
Q 14.5 44.390625 14.5 40.28125 
Q 14.5 37.15625 16.890625 35.375 
Q 19.28125 33.59375 26.515625 31.984375 
L 29.59375 31.296875 
Q 39.15625 29.25 43.1875 25.515625 
Q 47.21875 21.78125 47.21875 15.09375 
Q 47.21875 7.46875 41.1875 3.015625 
Q 35.15625 -1.421875 24.609375 -1.421875 
Q 20.21875 -1.421875 15.453125 -0.5625 
Q 10.6875 0.296875 5.421875 2 
L 5.421875 11.28125 
Q 10.40625 8.6875 15.234375 7.390625 
Q 20.0625 6.109375 24.8125 6.109375 
Q 31.15625 6.109375 34.5625 8.28125 
Q 37.984375 10.453125 37.984375 14.40625 
Q 37.984375 18.0625 35.515625 20.015625 
Q 33.0625 21.96875 24.703125 23.78125 
L 21.578125 24.515625 
Q 13.234375 26.265625 9.515625 29.90625 
Q 5.8125 33.546875 5.8125 39.890625 
Q 5.8125 47.609375 11.28125 51.796875 
Q 16.75 56 26.8125 56 
Q 31.78125 56 36.171875 55.265625 
Q 40.578125 54.546875 44.28125 53.078125 
z
" id="DejaVuSans-115"/>
       <path d="M 19.671875 64.796875 
L 19.671875 8.109375 
L 31.59375 8.109375 
Q 46.6875 8.109375 53.6875 14.9375 
Q 60.6875 21.78125 60.6875 36.53125 
Q 60.6875 51.171875 53.6875 57.984375 
Q 46.6875 64.796875 31.59375 64.796875 
z
M 9.8125 72.90625 
L 30.078125 72.90625 
Q 51.265625 72.90625 61.171875 64.09375 
Q 71.09375 55.28125 71.09375 36.53125 
Q 71.09375 17.671875 61.125 8.828125 
Q 51.171875 0 30.078125 0 
L 9.8125 0 
z
" id="DejaVuSans-68"/>
       <path d="M 9.421875 54.6875 
L 18.40625 54.6875 
L 18.40625 0 
L 9.421875 0 
z
M 9.421875 75.984375 
L 18.40625 75.984375 
L 18.40625 64.59375 
L 9.421875 64.59375 
z
" id="DejaVuSans-105"/>
       <path d="M 37.109375 75.984375 
L 37.109375 68.5 
L 28.515625 68.5 
Q 23.6875 68.5 21.796875 66.546875 
Q 19.921875 64.59375 19.921875 59.515625 
L 19.921875 54.6875 
L 34.71875 54.6875 
L 34.71875 47.703125 
L 19.921875 47.703125 
L 19.921875 0 
L 10.890625 0 
L 10.890625 47.703125 
L 2.296875 47.703125 
L 2.296875 54.6875 
L 10.890625 54.6875 
L 10.890625 58.5 
Q 10.890625 67.625 15.140625 71.796875 
Q 19.390625 75.984375 28.609375 75.984375 
z
" id="DejaVuSans-102"/>
       <path d="M 48.78125 52.59375 
L 48.78125 44.1875 
Q 44.96875 46.296875 41.140625 47.34375 
Q 37.3125 48.390625 33.40625 48.390625 
Q 24.65625 48.390625 19.8125 42.84375 
Q 14.984375 37.3125 14.984375 27.296875 
Q 14.984375 17.28125 19.8125 11.734375 
Q 24.65625 6.203125 33.40625 6.203125 
Q 37.3125 6.203125 41.140625 7.25 
Q 44.96875 8.296875 48.78125 10.40625 
L 48.78125 2.09375 
Q 45.015625 0.34375 40.984375 -0.53125 
Q 36.96875 -1.421875 32.421875 -1.421875 
Q 20.0625 -1.421875 12.78125 6.34375 
Q 5.515625 14.109375 5.515625 27.296875 
Q 5.515625 40.671875 12.859375 48.328125 
Q 20.21875 56 33.015625 56 
Q 37.15625 56 41.109375 55.140625 
Q 45.0625 54.296875 48.78125 52.59375 
z
" id="DejaVuSans-99"/>
       <path d="M 46.734375 75.984375 
L 42.78125 55.8125 
Q 52.546875 55.8125 57.5625 48.34375 
Q 62.75 40.71875 60.15625 27.296875 
Q 57.515625 13.875 49.359375 6.25 
Q 41.453125 -1.21875 31.6875 -1.21875 
L 27.875 -20.796875 
L 18.953125 -20.796875 
L 22.75 -1.21875 
Q 13.03125 -1.21875 7.953125 6.25 
Q 2.78125 13.875 5.421875 27.296875 
Q 8.015625 40.71875 16.15625 48.34375 
Q 24.125 55.8125 33.84375 55.8125 
L 37.796875 75.984375 
z
M 33.25 6.78125 
Q 38.765625 6.78125 43.5 11.8125 
Q 48.6875 17.4375 50.6875 27.296875 
Q 52.640625 37.0625 49.515625 42.78125 
Q 46.734375 47.796875 41.21875 47.796875 
z
M 24.3125 6.78125 
L 32.28125 47.796875 
Q 26.8125 47.796875 22.078125 42.78125 
Q 16.75 37.0625 14.890625 27.296875 
Q 13.03125 17.4375 16.0625 11.8125 
Q 18.796875 6.78125 24.3125 6.78125 
z
" id="DejaVuSans-Oblique-981"/>
      </defs>
      <use transform="translate(0 0.015625)" xlink:href="#DejaVuSans-80"/>
      <use transform="translate(60.302734 0.015625)" xlink:href="#DejaVuSans-104"/>
      <use transform="translate(123.681641 0.015625)" xlink:href="#DejaVuSans-97"/>
      <use transform="translate(184.960938 0.015625)" xlink:href="#DejaVuSans-115"/>
      <use transform="translate(237.060547 0.015625)" xlink:href="#DejaVuSans-101"/>
      <use transform="translate(298.583984 0.015625)" xlink:href="#DejaVuSans-32"/>
      <use transform="translate(330.371094 0.015625)" xlink:href="#DejaVuSans-68"/>
      <use transform="translate(407.373047 0.015625)" xlink:href="#DejaVuSans-105"/>
      <use transform="translate(435.15625 0.015625)" xlink:href="#DejaVuSans-102"/>
      <use transform="translate(470.361328 0.015625)" xlink:href="#DejaVuSans-102"/>
      <use transform="translate(505.566406 0.015625)" xlink:href="#DejaVuSans-101"/>
      <use transform="translate(567.089844 0.015625)" xlink:href="#DejaVuSans-114"/>
      <use transform="translate(608.203125 0.015625)" xlink:href="#DejaVuSans-101"/>
      <use transform="translate(669.726562 0.015625)" xlink:href="#DejaVuSans-110"/>
      <use transform="translate(733.105469 0.015625)" xlink:href="#DejaVuSans-99"/>
      <use transform="translate(788.085938 0.015625)" xlink:href="#DejaVuSans-101"/>
      <use transform="translate(849.609375 0.015625)" xlink:href="#DejaVuSans-32"/>
      <use transform="translate(881.396484 0.015625)" xlink:href="#DejaVuSans-Oblique-981"/>
     </g>
    </g>
   </g>
   <g id="line2d_11">
    <path clip-path="url(#p642014c58f)" d="M 556.515 209.24 
L 256.362167 209.24 
L 256.362167 209.24 
" style="fill:none;stroke:#aa3863;stroke-dasharray:5.55,2.4;stroke-dashoffset:0;stroke-width:1.5;"/>
   </g>
   <g id="line2d_12">
    <path clip-path="url(#p642014c58f)" d="M 254.846262 209.24 
L 254.846262 209.24 
L 253.594525 209.24 
L 252.342787 209.24 
L 251.09105 209.24 
L 249.839313 209.24 
L 248.587575 209.24 
L 247.335838 209.24 
L 246.0841 209.24 
L 244.832362 209.24 
L 243.580625 209.24 
L 242.328888 209.24 
L 241.07715 209.24 
L 239.825412 209.24 
L 238.573675 209.24 
L 237.321937 209.24 
L 236.0702 209.24 
L 234.818463 209.24 
L 233.566725 209.24 
L 232.314988 209.24 
L 231.06325 209.24 
L 229.811512 209.24 
L 228.559775 209.24 
L 227.308037 209.24 
L 226.0563 209.24 
L 224.804562 209.24 
L 223.552825 209.24 
L 222.301087 209.24 
L 221.04935 209.24 
L 219.797612 209.24 
L 218.545875 209.24 
L 217.294138 209.24 
L 216.0424 209.24 
L 214.790662 209.24 
L 213.538925 209.24 
L 212.287187 209.24 
L 211.03545 209.24 
L 209.783713 209.24 
L 208.531975 209.24 
L 207.280237 209.24 
L 206.0285 209.24 
L 204.776763 209.24 
L 203.525025 209.24 
L 202.273288 209.24 
L 201.02155 209.24 
L 199.769813 209.24 
L 198.518075 209.24 
L 197.266337 209.24 
L 196.0146 209.24 
L 194.762862 209.24 
L 193.511125 209.24 
L 192.259388 209.24 
L 191.00765 209.24 
L 189.755913 209.24 
L 188.504175 209.24 
L 187.252437 209.24 
L 186.0007 209.24 
L 184.748963 209.24 
L 183.497225 209.24 
L 182.245487 209.24 
L 180.99375 209.24 
L 179.742012 209.24 
L 178.490275 209.24 
L 177.238538 209.24 
L 175.9868 209.24 
L 174.735063 209.24 
L 173.483325 209.24 
L 172.231587 209.24 
L 170.97985 209.24 
L 169.728113 209.24 
L 168.476375 209.24 
L 167.224637 209.24 
L 165.9729 209.24 
L 164.721162 209.24 
L 163.469425 209.24 
L 162.217687 209.24 
L 160.96595 209.24 
L 159.714213 209.24 
L 158.462475 209.24 
L 157.210737 209.24 
L 155.959 209.24 
L 154.707262 209.24 
L 153.455525 209.24 
L 152.203787 209.24 
L 150.95205 209.24 
L 149.700312 209.24 
L 148.448575 209.24 
L 147.196838 209.24 
L 145.9451 209.24 
L 144.693363 209.24 
L 143.441625 209.24 
L 142.189888 209.24 
L 140.93815 209.24 
L 139.686412 209.24 
L 138.434675 209.24 
L 137.182937 209.24 
L 135.9312 209.24 
L 134.679462 209.24 
L 133.427725 209.24 
L 132.175988 209.24 
L 130.92425 209.24 
L 129.672512 209.24 
L 128.420775 209.24 
L 127.169038 209.24 
L 125.9173 209.24 
L 124.665562 209.24 
L 123.413825 209.24 
L 122.162087 209.24 
L 120.91035 209.24 
L 119.658613 209.24 
" style="fill:none;stroke:#aa3863;stroke-linecap:square;stroke-width:1.5;"/>
   </g>
   <g id="line2d_13">
    <path clip-path="url(#p642014c58f)" d="M 254.846262 209.24 
L 254.846262 196.636572 
L 253.594525 188.317448 
L 252.342787 182.542526 
L 251.09105 177.931976 
L 249.839313 173.88056 
L 248.587575 170.180701 
L 247.335838 166.892528 
L 246.0841 163.896903 
L 244.832362 160.958587 
L 243.580625 158.263392 
L 242.328888 155.779283 
L 241.07715 153.295608 
L 239.825412 150.960647 
L 238.573675 148.782718 
L 237.321937 146.615129 
L 236.0702 144.530268 
L 234.818463 142.572825 
L 233.566725 140.628218 
L 232.314988 138.732603 
L 231.06325 136.944991 
L 229.811512 135.165767 
L 228.559775 133.422121 
L 227.308037 131.772846 
L 226.0563 130.119449 
L 224.804562 128.502246 
L 223.552825 126.970337 
L 222.301087 125.414709 
L 221.04935 123.906555 
L 219.797612 122.477044 
L 218.545875 120.998395 
L 217.294138 119.587251 
L 216.0424 118.224775 
L 214.790662 116.831457 
L 213.538925 115.508247 
L 212.287187 114.192486 
L 211.03545 112.883884 
L 209.783713 111.642282 
L 208.531975 110.362642 
L 207.280237 109.133297 
L 206.0285 107.932877 
L 204.776763 106.716259 
L 203.525025 105.562483 
L 202.273288 104.381299 
L 201.02155 103.238948 
L 199.769813 102.120027 
L 198.518075 100.989825 
L 197.266337 99.919933 
L 196.0146 98.80799 
L 194.762862 97.749741 
L 193.511125 96.687297 
L 192.259388 95.64163 
L 191.00765 94.622576 
L 189.755913 93.590287 
L 188.504175 92.608872 
L 187.252437 91.591083 
L 186.0007 90.631217 
L 184.748963 89.640401 
L 183.497225 88.695215 
L 182.245487 87.734952 
L 180.99375 86.805675 
L 179.742012 85.87159 
L 178.490275 84.959741 
L 177.238538 84.048399 
L 175.9868 83.155099 
L 174.735063 82.263462 
L 173.483325 81.389976 
L 172.231587 80.515477 
L 170.97985 79.663143 
L 169.728113 78.80271 
L 168.476375 77.973915 
L 167.224637 77.12516 
L 165.9729 76.320337 
L 164.721162 75.482755 
L 163.469425 74.685525 
L 162.217687 73.874554 
L 160.96595 73.08329 
L 159.714213 72.302222 
L 158.462475 71.515658 
L 157.210737 70.761816 
L 155.959 69.982809 
L 154.707262 69.230269 
L 153.455525 68.486732 
L 152.203787 67.734879 
L 150.95205 67.009457 
L 149.700312 66.278033 
L 148.448575 65.551381 
L 147.196838 64.847147 
L 145.9451 64.134524 
L 144.693363 63.427832 
L 143.441625 62.740339 
L 142.189888 62.054147 
L 140.93815 61.363472 
L 139.686412 60.68867 
L 138.434675 60.028403 
L 137.182937 59.358916 
L 135.9312 58.695612 
L 134.679462 58.045216 
L 133.427725 57.405848 
L 132.175988 56.769987 
L 130.92425 56.127907 
L 129.672512 55.496422 
L 128.420775 54.873939 
L 127.169038 54.258182 
" style="fill:none;stroke:#aa3863;stroke-dasharray:5.55,2.4;stroke-dashoffset:0;stroke-width:1.5;"/>
   </g>
   <g id="line2d_14">
    <path clip-path="url(#p642014c58f)" d="M 254.846262 209.24 
L 254.846262 221.843428 
L 253.594525 230.162552 
L 252.342787 235.937474 
L 251.09105 240.548024 
L 249.839313 244.59944 
L 248.587575 248.299299 
L 247.335838 251.587472 
L 246.0841 254.583097 
L 244.832362 257.521413 
L 243.580625 260.216608 
L 242.328888 262.700717 
L 241.07715 265.184392 
L 239.825412 267.519353 
L 238.573675 269.697282 
L 237.321937 271.864871 
L 236.0702 273.949732 
L 234.818463 275.907175 
L 233.566725 277.851782 
L 232.314988 279.747397 
L 231.06325 281.535009 
L 229.811512 283.314233 
L 228.559775 285.057879 
L 227.308037 286.707154 
L 226.0563 288.360551 
L 224.804562 289.977754 
L 223.552825 291.509663 
L 222.301087 293.065291 
L 221.04935 294.573445 
L 219.797612 296.002956 
L 218.545875 297.481605 
L 217.294138 298.892749 
L 216.0424 300.255225 
L 214.790662 301.648543 
L 213.538925 302.971753 
L 212.287187 304.287514 
L 211.03545 305.596116 
L 209.783713 306.837718 
L 208.531975 308.117358 
L 207.280237 309.346703 
L 206.0285 310.547123 
L 204.776763 311.763741 
L 203.525025 312.917517 
L 202.273288 314.098701 
L 201.02155 315.241052 
L 199.769813 316.359973 
L 198.518075 317.490175 
L 197.266337 318.560067 
L 196.0146 319.67201 
L 194.762862 320.730259 
L 193.511125 321.792703 
L 192.259388 322.83837 
L 191.00765 323.857424 
L 189.755913 324.889713 
L 188.504175 325.871128 
L 187.252437 326.888917 
L 186.0007 327.848783 
L 184.748963 328.839599 
L 183.497225 329.784785 
L 182.245487 330.745048 
L 180.99375 331.674325 
L 179.742012 332.60841 
L 178.490275 333.520259 
L 177.238538 334.431601 
L 175.9868 335.324901 
L 174.735063 336.216538 
L 173.483325 337.090024 
L 172.231587 337.964523 
L 170.97985 338.816857 
L 169.728113 339.67729 
L 168.476375 340.506085 
L 167.224637 341.35484 
L 165.9729 342.159663 
L 164.721162 342.997245 
L 163.469425 343.794475 
L 162.217687 344.605446 
L 160.96595 345.39671 
L 159.714213 346.177778 
L 158.462475 346.964342 
L 157.210737 347.718184 
L 155.959 348.497191 
L 154.707262 349.249731 
L 153.455525 349.993268 
L 152.203787 350.745121 
L 150.95205 351.470543 
L 149.700312 352.201967 
L 148.448575 352.928619 
L 147.196838 353.632853 
L 145.9451 354.345476 
L 144.693363 355.052168 
L 143.441625 355.739661 
L 142.189888 356.425853 
L 140.93815 357.116528 
L 139.686412 357.79133 
L 138.434675 358.451597 
L 137.182937 359.121084 
L 135.9312 359.784388 
L 134.679462 360.434784 
L 133.427725 361.074152 
L 132.175988 361.710013 
L 130.92425 362.352093 
L 129.672512 362.983578 
L 128.420775 363.606061 
L 127.169038 364.221818 
" style="fill:none;stroke:#aa3863;stroke-dasharray:5.55,2.4;stroke-dashoffset:0;stroke-width:1.5;"/>
   </g>
   <g id="line2d_15">
    <path clip-path="url(#p642014c58f)" d="M 556.515 209.24 
L 266.325747 209.24 
L 266.325747 209.24 
" style="fill:none;stroke:#d97020;stroke-dasharray:5.55,2.4;stroke-dashoffset:0;stroke-width:1.5;"/>
   </g>
   <g id="line2d_16">
    <path clip-path="url(#p642014c58f)" d="M 264.860163 209.24 
L 264.860163 209.24 
L 263.608425 209.24 
L 262.356688 209.24 
L 261.10495 209.24 
L 259.853212 209.24 
L 258.601475 209.24 
L 257.349738 209.24 
L 256.098 209.24 
L 254.846262 209.24 
L 253.594525 209.24 
L 252.342787 209.24 
L 251.09105 209.24 
L 249.839313 209.24 
L 248.587575 209.24 
L 247.335838 209.24 
L 246.0841 209.24 
L 244.832362 209.24 
L 243.580625 209.24 
L 242.328888 209.24 
L 241.07715 209.24 
L 239.825412 209.24 
L 238.573675 209.24 
L 237.321937 209.24 
L 236.0702 209.24 
L 234.818463 209.24 
L 233.566725 209.24 
L 232.314988 209.24 
L 231.06325 209.24 
L 229.811512 209.24 
L 228.559775 209.24 
L 227.308037 209.24 
L 226.0563 209.24 
L 224.804562 209.24 
L 223.552825 209.24 
L 222.301087 209.24 
L 221.04935 209.24 
L 219.797612 209.24 
L 218.545875 209.24 
L 217.294138 209.24 
L 216.0424 209.24 
L 214.790662 209.24 
L 213.538925 209.24 
L 212.287187 209.24 
L 211.03545 209.24 
L 209.783713 209.24 
L 208.531975 209.24 
L 207.280237 209.24 
L 206.0285 209.24 
L 204.776763 209.24 
L 203.525025 209.24 
L 202.273288 209.24 
L 201.02155 209.24 
L 199.769813 209.24 
L 198.518075 209.24 
L 197.266337 209.24 
L 196.0146 209.24 
L 194.762862 209.24 
L 193.511125 209.24 
L 192.259388 209.24 
L 191.00765 209.24 
L 189.755913 209.24 
L 188.504175 209.24 
L 187.252437 209.24 
L 186.0007 209.24 
L 184.748963 209.24 
L 183.497225 209.24 
L 182.245487 209.24 
L 180.99375 209.24 
L 179.742012 209.24 
L 178.490275 209.24 
L 177.238538 209.24 
L 175.9868 209.24 
L 174.735063 209.24 
L 173.483325 209.24 
L 172.231587 209.24 
L 170.97985 209.24 
L 169.728113 209.24 
L 168.476375 209.24 
L 167.224637 209.24 
L 165.9729 209.24 
L 164.721162 209.24 
L 163.469425 209.24 
L 162.217687 209.24 
L 160.96595 209.24 
L 159.714213 209.24 
L 158.462475 209.24 
L 157.210737 209.24 
L 155.959 209.24 
L 154.707262 209.24 
L 153.455525 209.24 
L 152.203787 209.24 
L 150.95205 209.24 
L 149.700312 209.24 
L 148.448575 209.24 
L 147.196838 209.24 
L 145.9451 209.24 
L 144.693363 209.24 
L 143.441625 209.24 
L 142.189888 209.24 
L 140.93815 209.24 
L 139.686412 209.24 
L 138.434675 209.24 
L 137.182937 209.24 
L 135.9312 209.24 
L 134.679462 209.24 
L 133.427725 209.24 
L 132.175988 209.24 
L 130.92425 209.24 
L 129.672512 209.24 
L 128.420775 209.24 
L 127.169038 209.24 
L 125.9173 209.24 
L 124.665562 209.24 
L 123.413825 209.24 
L 122.162087 209.24 
L 120.91035 209.24 
L 119.658613 209.24 
L 118.406875 209.24 
L 117.155138 209.24 
" style="fill:none;stroke:#d97020;stroke-linecap:square;stroke-width:1.5;"/>
   </g>
   <g id="line2d_17">
    <path clip-path="url(#p642014c58f)" d="M 264.860163 209.24 
L 264.860163 204.090815 
L 263.608425 191.686975 
L 262.356688 185.165985 
L 261.10495 179.633787 
L 259.853212 175.146677 
L 258.601475 171.335092 
L 257.349738 167.836773 
L 256.098 164.480552 
L 254.846262 161.47813 
L 253.594525 158.771401 
L 252.342787 156.015498 
L 251.09105 153.44566 
L 249.839313 151.090054 
L 248.587575 148.808281 
L 247.335838 146.521265 
L 246.0841 144.405236 
L 244.832362 142.443165 
L 243.580625 140.362498 
L 242.328888 138.425846 
L 241.07715 136.625723 
L 239.825412 134.773569 
L 238.573675 132.980895 
L 237.321937 131.309058 
L 236.0702 129.631725 
L 234.818463 127.959526 
L 233.566725 126.396377 
L 232.314988 124.852717 
L 231.06325 123.285266 
L 229.811512 121.818295 
L 228.559775 120.377069 
L 227.308037 118.903446 
L 226.0563 117.523723 
L 224.804562 116.161716 
L 223.552825 114.774075 
L 222.301087 113.474982 
L 221.04935 112.173865 
L 219.797612 110.866565 
L 218.545875 109.643981 
L 217.294138 108.388747 
L 216.0424 107.158137 
L 214.790662 106.008807 
L 213.538925 104.78767 
L 212.287187 103.63082 
L 211.03545 102.517069 
L 209.783713 101.356061 
L 208.531975 100.271525 
L 207.280237 99.171008 
L 206.0285 98.082929 
L 204.776763 97.064381 
L 203.525025 95.97594 
L 202.273288 94.960465 
L 201.02155 93.941048 
L 199.769813 92.925826 
L 198.518075 91.970119 
L 197.266337 90.957897 
L 196.0146 90.016761 
L 194.762862 89.049701 
L 193.511125 88.112614 
L 192.259388 87.195522 
L 191.00765 86.264908 
L 189.755913 85.390518 
L 188.504175 84.468726 
L 187.252437 83.616175 
L 186.0007 82.719874 
L 184.748963 81.877592 
L 183.497225 81.015025 
L 182.245487 80.185326 
L 180.99375 79.351541 
L 179.742012 78.536449 
L 178.490275 77.727214 
L 177.238538 76.929152 
L 175.9868 76.140563 
L 174.735063 75.361375 
L 173.483325 74.590178 
L 172.231587 73.832251 
L 170.97985 73.075661 
L 169.728113 72.341163 
" style="fill:none;stroke:#d97020;stroke-dasharray:5.55,2.4;stroke-dashoffset:0;stroke-width:1.5;"/>
   </g>
   <g id="line2d_18">
    <path clip-path="url(#p642014c58f)" d="M 264.860163 209.24 
L 264.860163 214.389185 
L 263.608425 226.793025 
L 262.356688 233.314015 
L 261.10495 238.846213 
L 259.853212 243.333323 
L 258.601475 247.144908 
L 257.349738 250.643227 
L 256.098 253.999448 
L 254.846262 257.00187 
L 253.594525 259.708599 
L 252.342787 262.464502 
L 251.09105 265.03434 
L 249.839313 267.389946 
L 248.587575 269.671719 
L 247.335838 271.958735 
L 246.0841 274.074764 
L 244.832362 276.036835 
L 243.580625 278.117502 
L 242.328888 280.054154 
L 241.07715 281.854277 
L 239.825412 283.706431 
L 238.573675 285.499105 
L 237.321937 287.170942 
L 236.0702 288.848275 
L 234.818463 290.520474 
L 233.566725 292.083623 
L 232.314988 293.627283 
L 231.06325 295.194734 
L 229.811512 296.661705 
L 228.559775 298.102931 
L 227.308037 299.576554 
L 226.0563 300.956277 
L 224.804562 302.318284 
L 223.552825 303.705925 
L 222.301087 305.005018 
L 221.04935 306.306135 
L 219.797612 307.613435 
L 218.545875 308.836019 
L 217.294138 310.091253 
L 216.0424 311.321863 
L 214.790662 312.471193 
L 213.538925 313.69233 
L 212.287187 314.84918 
L 211.03545 315.962931 
L 209.783713 317.123939 
L 208.531975 318.208475 
L 207.280237 319.308992 
L 206.0285 320.397071 
L 204.776763 321.415619 
L 203.525025 322.50406 
L 202.273288 323.519535 
L 201.02155 324.538952 
L 199.769813 325.554174 
L 198.518075 326.509881 
L 197.266337 327.522103 
L 196.0146 328.463239 
L 194.762862 329.430299 
L 193.511125 330.367386 
L 192.259388 331.284478 
L 191.00765 332.215092 
L 189.755913 333.089482 
L 188.504175 334.011274 
L 187.252437 334.863825 
L 186.0007 335.760126 
L 184.748963 336.602408 
L 183.497225 337.464975 
L 182.245487 338.294674 
L 180.99375 339.128459 
L 179.742012 339.943551 
L 178.490275 340.752786 
L 177.238538 341.550848 
L 175.9868 342.339437 
L 174.735063 343.118625 
L 173.483325 343.889822 
L 172.231587 344.647749 
L 170.97985 345.404339 
L 169.728113 346.138837 
" style="fill:none;stroke:#d97020;stroke-dasharray:5.55,2.4;stroke-dashoffset:0;stroke-width:1.5;"/>
   </g>
   <g id="line2d_19">
    <path clip-path="url(#p642014c58f)" d="M 556.515 209.24 
L 293.72563 209.24 
L 293.72563 209.24 
" style="fill:none;stroke:#ef9f07;stroke-dasharray:5.55,2.4;stroke-dashoffset:0;stroke-width:1.5;"/>
   </g>
   <g id="line2d_20">
    <path clip-path="url(#p642014c58f)" d="M 292.398387 209.24 
L 112.148188 209.24 
L 112.148188 209.24 
" style="fill:none;stroke:#ef9f07;stroke-linecap:square;stroke-width:1.5;"/>
   </g>
   <g id="line2d_21">
    <path clip-path="url(#p642014c58f)" d="M 292.398387 209.24 
L 292.398387 197.890721 
L 291.14665 189.989502 
L 289.894913 184.556881 
L 288.643175 179.49234 
L 287.391437 175.398512 
L 286.1397 171.958045 
L 284.887962 169.009641 
L 283.636225 165.841691 
L 282.384487 162.930529 
L 281.13275 160.351688 
L 279.881012 158.058344 
L 278.629275 155.684913 
L 277.377537 153.309167 
L 276.1258 151.164357 
L 274.874063 149.228428 
L 273.622325 147.272069 
L 272.370588 145.228717 
L 271.11885 143.36803 
L 269.867112 141.676668 
L 268.615375 139.96325 
L 267.363638 138.161826 
L 266.1119 136.512587 
L 264.860163 135.008808 
L 263.608425 133.441502 
L 262.356688 131.83124 
L 261.10495 130.354435 
L 259.853212 129.00559 
L 258.601475 127.523578 
L 257.349738 126.075084 
L 256.098 124.74627 
L 254.846262 123.513526 
L 253.594525 122.095332 
L 252.342787 120.789478 
L 251.09105 119.592132 
L 249.839313 118.360256 
L 248.587575 117.080074 
L 247.335838 115.903409 
L 246.0841 114.827805 
L 244.832362 113.577741 
L 243.580625 112.425194 
L 242.328888 111.369548 
L 241.07715 110.250735 
L 239.825412 109.126029 
L 238.573675 108.094066 
L 237.321937 107.076132 
L 236.0702 105.982557 
L 234.818463 104.977821 
L 233.566725 104.03531 
L 232.314988 102.975904 
L 231.06325 102.002154 
L 229.811512 101.113229 
L 228.559775 100.092656 
L 227.308037 99.152821 
L 226.0563 98.295172 
L 224.804562 97.322218 
L 223.552825 96.418866 
L 222.301087 95.595747 
L 221.04935 94.656238 
L 219.797612 93.792804 
L 218.545875 92.987076 
L 217.294138 92.089437 
L 216.0424 91.268199 
L 214.790662 90.469233 
L 213.538925 89.617983 
L 212.287187 88.84111 
L 211.03545 88.041818 
L 209.783713 87.239164 
L 208.531975 86.509439 
L 207.280237 85.703893 
L 206.0285 84.951678 
L 204.776763 84.224882 
L 203.525025 83.455023 
L 202.273288 82.755561 
L 201.02155 82.010289 
L 199.769813 81.296148 
L 198.518075 80.609956 
L 197.266337 79.885257 
L 196.0146 79.228823 
L 194.762862 78.516309 
L 193.511125 77.851884 
L 192.259388 77.183988 
L 191.00765 76.515152 
" style="fill:none;stroke:#ef9f07;stroke-dasharray:5.55,2.4;stroke-dashoffset:0;stroke-width:1.5;"/>
   </g>
   <g id="line2d_22">
    <path clip-path="url(#p642014c58f)" d="M 292.398387 209.24 
L 292.398387 220.589279 
L 291.14665 228.490498 
L 289.894913 233.923119 
L 288.643175 238.98766 
L 287.391437 243.081488 
L 286.1397 246.521955 
L 284.887962 249.470359 
L 283.636225 252.638309 
L 282.384487 255.549471 
L 281.13275 258.128312 
L 279.881012 260.421656 
L 278.629275 262.795087 
L 277.377537 265.170833 
L 276.1258 267.315643 
L 274.874063 269.251572 
L 273.622325 271.207931 
L 272.370588 273.251283 
L 271.11885 275.11197 
L 269.867112 276.803332 
L 268.615375 278.51675 
L 267.363638 280.318174 
L 266.1119 281.967413 
L 264.860163 283.471192 
L 263.608425 285.038498 
L 262.356688 286.64876 
L 261.10495 288.125565 
L 259.853212 289.47441 
L 258.601475 290.956422 
L 257.349738 292.404916 
L 256.098 293.73373 
L 254.846262 294.966474 
L 253.594525 296.384668 
L 252.342787 297.690522 
L 251.09105 298.887868 
L 249.839313 300.119744 
L 248.587575 301.399926 
L 247.335838 302.576591 
L 246.0841 303.652195 
L 244.832362 304.902259 
L 243.580625 306.054806 
L 242.328888 307.110452 
L 241.07715 308.229265 
L 239.825412 309.353971 
L 238.573675 310.385934 
L 237.321937 311.403868 
L 236.0702 312.497443 
L 234.818463 313.502179 
L 233.566725 314.44469 
L 232.314988 315.504096 
L 231.06325 316.477846 
L 229.811512 317.366771 
L 228.559775 318.387344 
L 227.308037 319.327179 
L 226.0563 320.184828 
L 224.804562 321.157782 
L 223.552825 322.061134 
L 222.301087 322.884253 
L 221.04935 323.823762 
L 219.797612 324.687196 
L 218.545875 325.492924 
L 217.294138 326.390563 
L 216.0424 327.211801 
L 214.790662 328.010767 
L 213.538925 328.862017 
L 212.287187 329.63889 
L 211.03545 330.438182 
L 209.783713 331.240836 
L 208.531975 331.970561 
L 207.280237 332.776107 
L 206.0285 333.528322 
L 204.776763 334.255118 
L 203.525025 335.024977 
L 202.273288 335.724439 
L 201.02155 336.469711 
L 199.769813 337.183852 
L 198.518075 337.870044 
L 197.266337 338.594743 
L 196.0146 339.251177 
L 194.762862 339.963691 
L 193.511125 340.628116 
L 192.259388 341.296012 
L 191.00765 341.964848 
" style="fill:none;stroke:#ef9f07;stroke-dasharray:5.55,2.4;stroke-dashoffset:0;stroke-width:1.5;"/>
   </g>
   <g id="line2d_23">
    <path clip-path="url(#p642014c58f)" d="M 556.515 209.24 
L 344.788959 209.24 
L 344.788959 209.24 
" style="fill:none;stroke:#449775;stroke-dasharray:5.55,2.4;stroke-dashoffset:0;stroke-width:1.5;"/>
   </g>
   <g id="line2d_24">
    <path clip-path="url(#p642014c58f)" d="M 343.719625 209.24 
L 104.637763 209.24 
L 104.637763 209.24 
" style="fill:none;stroke:#449775;stroke-linecap:square;stroke-width:1.5;"/>
   </g>
   <g id="line2d_25">
    <path clip-path="url(#p642014c58f)" d="M 343.719625 209.24 
L 343.719625 207.227923 
L 342.467887 196.493896 
L 341.21615 190.483446 
L 339.964412 185.466886 
L 338.712675 181.582155 
L 337.460938 178.399633 
L 336.2092 175.721143 
L 334.957463 173.433765 
L 333.705725 171.012208 
L 332.453988 168.35299 
L 331.20225 166.014016 
L 329.950513 163.944522 
L 328.698775 162.111351 
L 327.447037 160.488218 
L 326.1953 158.638632 
L 324.943562 156.657252 
L 323.691825 154.871231 
L 322.440088 153.26332 
L 321.18835 151.819996 
L 319.936613 150.530087 
L 318.684875 148.850476 
L 317.433137 147.24882 
L 316.1814 145.793312 
L 314.929663 144.475092 
L 313.677925 143.288087 
L 312.426187 142.021066 
L 311.17445 140.55941 
L 309.922712 139.224775 
L 308.670975 138.009025 
L 307.419238 136.908761 
L 306.1675 135.877341 
L 304.915763 134.535474 
L 303.664025 133.30443 
L 302.412287 132.181278 
L 301.16055 131.160958 
L 299.908813 130.241191 
L 298.657075 129.017594 
L 297.405337 127.883162 
L 296.1536 126.84639 
L 294.901862 125.903952 
L 293.650125 125.043121 
L 292.398387 123.908399 
L 291.14665 122.866095 
L 289.894913 121.913208 
L 288.643175 121.046664 
L 287.391437 120.183122 
L 286.1397 119.144687 
L 284.887962 118.191293 
L 283.636225 117.320808 
L 282.384487 116.531605 
L 281.13275 115.628253 
L 279.881012 114.68379 
L 278.629275 113.817861 
L 277.377537 113.029851 
L 276.1258 112.279191 
L 274.874063 111.350782 
L 273.622325 110.497798 
L 272.370588 109.719622 
L 271.11885 109.014484 
L 269.867112 108.16479 
L 268.615375 107.331583 
L 267.363638 106.569895 
L 266.1119 105.878967 
L 264.860163 105.105455 
L 263.608425 104.298571 
L 262.356688 103.560205 
L 261.10495 102.889561 
L 259.853212 102.160559 
L 258.601475 101.384589 
L 257.349738 100.674787 
L 256.098 100.030357 
L 254.846262 99.32041 
L 253.594525 98.580091 
L 252.342787 97.903806 
L 251.09105 97.291267 
L 249.839313 96.58085 
L 248.587575 95.880304 
L 247.335838 95.241696 
L 246.0841 94.656166 
L 244.832362 93.938409 
L 243.580625 93.281505 
L 242.328888 92.684657 
L 241.07715 92.062898 
L 239.825412 91.393664 
L 238.573675 90.783656 
L 237.321937 90.231788 
L 236.0702 89.565809 
L 234.818463 88.94828 
L 233.566725 88.387734 
L 232.314988 87.788284 
L 231.06325 87.168405 
L 229.811512 86.604424 
L 228.559775 86.053895 
L 227.308037 85.436438 
L 226.0563 84.873759 
L 224.804562 84.357362 
L 223.552825 83.746667 
L 222.301087 83.19046 
L 221.04935 82.687658 
L 219.797612 82.096198 
L 218.545875 81.549646 
L 217.294138 81.056317 
L 216.0424 80.481996 
L 214.790662 79.949436 
L 213.538925 79.468509 
L 212.287187 78.90377 
L 211.03545 78.387987 
L 209.783713 77.906735 
" style="fill:none;stroke:#449775;stroke-dasharray:5.55,2.4;stroke-dashoffset:0;stroke-width:1.5;"/>
   </g>
   <g id="line2d_26">
    <path clip-path="url(#p642014c58f)" d="M 343.719625 209.24 
L 343.719625 211.252077 
L 342.467887 221.986104 
L 341.21615 227.996554 
L 339.964412 233.013114 
L 338.712675 236.897845 
L 337.460938 240.080367 
L 336.2092 242.758857 
L 334.957463 245.046235 
L 333.705725 247.467792 
L 332.453988 250.12701 
L 331.20225 252.465984 
L 329.950513 254.535478 
L 328.698775 256.368649 
L 327.447037 257.991782 
L 326.1953 259.841368 
L 324.943562 261.822748 
L 323.691825 263.608769 
L 322.440088 265.21668 
L 321.18835 266.660004 
L 319.936613 267.949913 
L 318.684875 269.629524 
L 317.433137 271.23118 
L 316.1814 272.686688 
L 314.929663 274.004908 
L 313.677925 275.191913 
L 312.426187 276.458934 
L 311.17445 277.92059 
L 309.922712 279.255225 
L 308.670975 280.470975 
L 307.419238 281.571239 
L 306.1675 282.602659 
L 304.915763 283.944526 
L 303.664025 285.17557 
L 302.412287 286.298722 
L 301.16055 287.319042 
L 299.908813 288.238809 
L 298.657075 289.462406 
L 297.405337 290.596838 
L 296.1536 291.63361 
L 294.901862 292.576048 
L 293.650125 293.436879 
L 292.398387 294.571601 
L 291.14665 295.613905 
L 289.894913 296.566792 
L 288.643175 297.433336 
L 287.391437 298.296878 
L 286.1397 299.335313 
L 284.887962 300.288707 
L 283.636225 301.159192 
L 282.384487 301.948395 
L 281.13275 302.851747 
L 279.881012 303.79621 
L 278.629275 304.662139 
L 277.377537 305.450149 
L 276.1258 306.200809 
L 274.874063 307.129218 
L 273.622325 307.982202 
L 272.370588 308.760378 
L 271.11885 309.465516 
L 269.867112 310.31521 
L 268.615375 311.148417 
L 267.363638 311.910105 
L 266.1119 312.601033 
L 264.860163 313.374545 
L 263.608425 314.181429 
L 262.356688 314.919795 
L 261.10495 315.590439 
L 259.853212 316.319441 
L 258.601475 317.095411 
L 257.349738 317.805213 
L 256.098 318.449643 
L 254.846262 319.15959 
L 253.594525 319.899909 
L 252.342787 320.576194 
L 251.09105 321.188733 
L 249.839313 321.89915 
L 248.587575 322.599696 
L 247.335838 323.238304 
L 246.0841 323.823834 
L 244.832362 324.541591 
L 243.580625 325.198495 
L 242.328888 325.795343 
L 241.07715 326.417102 
L 239.825412 327.086336 
L 238.573675 327.696344 
L 237.321937 328.248212 
L 236.0702 328.914191 
L 234.818463 329.53172 
L 233.566725 330.092266 
L 232.314988 330.691716 
L 231.06325 331.311595 
L 229.811512 331.875576 
L 228.559775 332.426105 
L 227.308037 333.043562 
L 226.0563 333.606241 
L 224.804562 334.122638 
L 223.552825 334.733333 
L 222.301087 335.28954 
L 221.04935 335.792342 
L 219.797612 336.383802 
L 218.545875 336.930354 
L 217.294138 337.423683 
L 216.0424 337.998004 
L 214.790662 338.530564 
L 213.538925 339.011491 
L 212.287187 339.57623 
L 211.03545 340.092013 
L 209.783713 340.573265 
" style="fill:none;stroke:#449775;stroke-dasharray:5.55,2.4;stroke-dashoffset:0;stroke-width:1.5;"/>
   </g>
   <g id="line2d_27">
    <path clip-path="url(#p642014c58f)" d="M 556.515 209.24 
L 378.416036 209.24 
L 378.416036 209.24 
" style="fill:none;stroke:#3b7d86;stroke-dasharray:5.55,2.4;stroke-dashoffset:0;stroke-width:1.5;"/>
   </g>
   <g id="line2d_28">
    <path clip-path="url(#p642014c58f)" d="M 377.516538 209.24 
L 94.623862 209.24 
L 94.623862 209.24 
" style="fill:none;stroke:#3b7d86;stroke-linecap:square;stroke-width:1.5;"/>
   </g>
   <g id="line2d_29">
    <path clip-path="url(#p642014c58f)" d="M 377.516538 209.24 
L 377.516538 197.222174 
L 376.2648 192.365971 
L 375.013062 188.849068 
L 373.761325 186.052849 
L 372.509588 182.369189 
L 371.25785 179.283315 
L 370.006112 176.628942 
L 368.754375 174.307179 
L 367.502637 172.254462 
L 366.2509 170.42892 
L 364.999163 168.799061 
L 363.747425 167.263284 
L 362.495688 165.17723 
L 361.24395 163.285629 
L 359.992212 161.565775 
L 358.740475 159.999408 
L 357.488737 158.572066 
L 356.237 157.273082 
L 354.985262 156.091609 
L 353.733525 154.700316 
L 352.481787 153.149677 
L 351.23005 151.72078 
L 349.978312 150.405309 
L 348.726575 149.19444 
L 347.474838 148.08351 
L 346.2231 147.066082 
L 344.971362 145.998106 
L 343.719625 144.667955 
L 342.467887 143.433294 
L 341.21615 142.29116 
L 339.964412 141.235297 
L 338.712675 140.262777 
L 337.460938 139.369404 
L 336.2092 138.411744 
L 334.957463 137.249001 
L 333.705725 136.167611 
L 332.453988 135.164067 
L 331.20225 134.235514 
L 329.950513 133.378335 
L 328.698775 132.59065 
L 327.447037 131.625469 
L 326.1953 130.60392 
L 324.943562 129.65266 
L 323.691825 128.770424 
L 322.440088 127.953596 
L 321.18835 127.201056 
L 319.936613 126.426279 
L 318.684875 125.46569 
L 317.433137 124.569498 
L 316.1814 123.736725 
L 314.929663 122.964805 
L 313.677925 122.252544 
L 312.426187 121.568883 
L 311.17445 120.669617 
L 309.922712 119.83142 
L 308.670975 119.051473 
L 307.419238 118.328474 
L 306.1675 117.66112 
L 304.915763 116.998141 
L 303.664025 116.16385 
L 302.412287 115.385313 
L 301.16055 114.661481 
L 299.908813 113.991199 
L 298.657075 113.373091 
L 297.405337 112.68191 
L 296.1536 111.913533 
L 294.901862 111.19744 
L 293.650125 110.532581 
L 292.398387 109.918884 
L 291.14665 109.351542 
L 289.894913 108.60052 
L 288.643175 107.899649 
L 287.391437 107.24806 
L 286.1397 106.645572 
L 284.887962 106.090667 
L 283.636225 105.421253 
L 282.384487 104.741931 
L 281.13275 104.110807 
L 279.881012 103.526325 
L 278.629275 102.987655 
L 277.377537 102.361015 
L 276.1258 101.709281 
L 274.874063 101.103141 
L 273.622325 100.542849 
L 272.370588 100.026524 
L 271.11885 99.409935 
L 269.867112 98.790634 
L 268.615375 98.21512 
L 267.363638 97.684043 
L 266.1119 97.190316 
L 264.860163 96.564326 
L 263.608425 95.9814 
L 262.356688 95.441356 
L 261.10495 94.943435 
L 259.853212 94.407621 
L 258.601475 93.823067 
L 257.349738 93.280673 
L 256.098 92.779389 
L 254.846262 92.308405 
L 253.594525 91.727612 
L 252.342787 91.188689 
L 251.09105 90.689647 
L 249.839313 90.231029 
L 248.587575 89.687441 
L 247.335838 89.156003 
L 246.0841 88.664771 
L 244.832362 88.212553 
L 243.580625 87.696047 
L 242.328888 87.177697 
L 241.07715 86.697782 
L 239.825412 86.256773 
L 238.573675 85.751693 
L 237.321937 85.249614 
L 236.0702 84.786078 
L 234.818463 84.360363 
L 233.566725 83.853041 
L 232.314988 83.371572 
L 231.06325 82.927814 
L 229.811512 82.49617 
L 228.559775 82.00143 
L 227.308037 81.543969 
L 226.0563 81.123208 
L 224.804562 80.666398 
L 223.552825 80.199246 
" style="fill:none;stroke:#3b7d86;stroke-dasharray:5.55,2.4;stroke-dashoffset:0;stroke-width:1.5;"/>
   </g>
   <g id="line2d_30">
    <path clip-path="url(#p642014c58f)" d="M 377.516538 209.24 
L 377.516538 221.257826 
L 376.2648 226.114029 
L 375.013062 229.630932 
L 373.761325 232.427151 
L 372.509588 236.110811 
L 371.25785 239.196685 
L 370.006112 241.851058 
L 368.754375 244.172821 
L 367.502637 246.225538 
L 366.2509 248.05108 
L 364.999163 249.680939 
L 363.747425 251.216716 
L 362.495688 253.30277 
L 361.24395 255.194371 
L 359.992212 256.914225 
L 358.740475 258.480592 
L 357.488737 259.907934 
L 356.237 261.206918 
L 354.985262 262.388391 
L 353.733525 263.779684 
L 352.481787 265.330323 
L 351.23005 266.75922 
L 349.978312 268.074691 
L 348.726575 269.28556 
L 347.474838 270.39649 
L 346.2231 271.413918 
L 344.971362 272.481894 
L 343.719625 273.812045 
L 342.467887 275.046706 
L 341.21615 276.18884 
L 339.964412 277.244703 
L 338.712675 278.217223 
L 337.460938 279.110596 
L 336.2092 280.068256 
L 334.957463 281.230999 
L 333.705725 282.312389 
L 332.453988 283.315933 
L 331.20225 284.244486 
L 329.950513 285.101665 
L 328.698775 285.88935 
L 327.447037 286.854531 
L 326.1953 287.87608 
L 324.943562 288.82734 
L 323.691825 289.709576 
L 322.440088 290.526404 
L 321.18835 291.278944 
L 319.936613 292.053721 
L 318.684875 293.01431 
L 317.433137 293.910502 
L 316.1814 294.743275 
L 314.929663 295.515195 
L 313.677925 296.227456 
L 312.426187 296.911117 
L 311.17445 297.810383 
L 309.922712 298.64858 
L 308.670975 299.428527 
L 307.419238 300.151526 
L 306.1675 300.81888 
L 304.915763 301.481859 
L 303.664025 302.31615 
L 302.412287 303.094687 
L 301.16055 303.818519 
L 299.908813 304.488801 
L 298.657075 305.106909 
L 297.405337 305.79809 
L 296.1536 306.566467 
L 294.901862 307.28256 
L 293.650125 307.947419 
L 292.398387 308.561116 
L 291.14665 309.128458 
L 289.894913 309.87948 
L 288.643175 310.580351 
L 287.391437 311.23194 
L 286.1397 311.834428 
L 284.887962 312.389333 
L 283.636225 313.058747 
L 282.384487 313.738069 
L 281.13275 314.369193 
L 279.881012 314.953675 
L 278.629275 315.492345 
L 277.377537 316.118985 
L 276.1258 316.770719 
L 274.874063 317.376859 
L 273.622325 317.937151 
L 272.370588 318.453476 
L 271.11885 319.070065 
L 269.867112 319.689366 
L 268.615375 320.26488 
L 267.363638 320.795957 
L 266.1119 321.289684 
L 264.860163 321.915674 
L 263.608425 322.4986 
L 262.356688 323.038644 
L 261.10495 323.536565 
L 259.853212 324.072379 
L 258.601475 324.656933 
L 257.349738 325.199327 
L 256.098 325.700611 
L 254.846262 326.171595 
L 253.594525 326.752388 
L 252.342787 327.291311 
L 251.09105 327.790353 
L 249.839313 328.248971 
L 248.587575 328.792559 
L 247.335838 329.323997 
L 246.0841 329.815229 
L 244.832362 330.267447 
L 243.580625 330.783953 
L 242.328888 331.302303 
L 241.07715 331.782218 
L 239.825412 332.223227 
L 238.573675 332.728307 
L 237.321937 333.230386 
L 236.0702 333.693922 
L 234.818463 334.119637 
L 233.566725 334.626959 
L 232.314988 335.108428 
L 231.06325 335.552186 
L 229.811512 335.98383 
L 228.559775 336.47857 
L 227.308037 336.936031 
L 226.0563 337.356792 
L 224.804562 337.813602 
L 223.552825 338.280754 
" style="fill:none;stroke:#3b7d86;stroke-dasharray:5.55,2.4;stroke-dashoffset:0;stroke-width:1.5;"/>
   </g>
   <g id="patch_3">
    <path d="M 55.82 379.72 
L 55.82 38.76 
" style="fill:none;stroke:#000000;stroke-linecap:square;stroke-linejoin:miter;stroke-width:0.8;"/>
   </g>
   <g id="patch_4">
    <path d="M 556.515 379.72 
L 556.515 38.76 
" style="fill:none;stroke:#000000;stroke-linecap:square;stroke-linejoin:miter;stroke-width:0.8;"/>
   </g>
   <g id="patch_5">
    <path d="M 55.82 379.72 
L 556.515 379.72 
" style="fill:none;stroke:#000000;stroke-linecap:square;stroke-linejoin:miter;stroke-width:0.8;"/>
   </g>
   <g id="patch_6">
    <path d="M 55.82 38.76 
L 556.515 38.76 
" style="fill:none;stroke:#000000;stroke-linecap:square;stroke-linejoin:miter;stroke-width:0.8;"/>
   </g>
   <g id="text_13">
    <!-- Bifurcation diagram for two coupled neurons, $\gamma=0.4, \beta=0.1, \alpha=2$ -->
    <g transform="translate(55.2175 23.76)scale(0.15 -0.15)">
     <defs>
      <path d="M 19.671875 34.8125 
L 19.671875 8.109375 
L 35.5 8.109375 
Q 43.453125 8.109375 47.28125 11.40625 
Q 51.125 14.703125 51.125 21.484375 
Q 51.125 28.328125 47.28125 31.5625 
Q 43.453125 34.8125 35.5 34.8125 
z
M 19.671875 64.796875 
L 19.671875 42.828125 
L 34.28125 42.828125 
Q 41.5 42.828125 45.03125 45.53125 
Q 48.578125 48.25 48.578125 53.8125 
Q 48.578125 59.328125 45.03125 62.0625 
Q 41.5 64.796875 34.28125 64.796875 
z
M 9.8125 72.90625 
L 35.015625 72.90625 
Q 46.296875 72.90625 52.390625 68.21875 
Q 58.5 63.53125 58.5 54.890625 
Q 58.5 48.1875 55.375 44.234375 
Q 52.25 40.28125 46.1875 39.3125 
Q 53.46875 37.75 57.5 32.78125 
Q 61.53125 27.828125 61.53125 20.40625 
Q 61.53125 10.640625 54.890625 5.3125 
Q 48.25 0 35.984375 0 
L 9.8125 0 
z
" id="DejaVuSans-66"/>
      <path d="M 30.609375 48.390625 
Q 23.390625 48.390625 19.1875 42.75 
Q 14.984375 37.109375 14.984375 27.296875 
Q 14.984375 17.484375 19.15625 11.84375 
Q 23.34375 6.203125 30.609375 6.203125 
Q 37.796875 6.203125 41.984375 11.859375 
Q 46.1875 17.53125 46.1875 27.296875 
Q 46.1875 37.015625 41.984375 42.703125 
Q 37.796875 48.390625 30.609375 48.390625 
z
M 30.609375 56 
Q 42.328125 56 49.015625 48.375 
Q 55.71875 40.765625 55.71875 27.296875 
Q 55.71875 13.875 49.015625 6.21875 
Q 42.328125 -1.421875 30.609375 -1.421875 
Q 18.84375 -1.421875 12.171875 6.21875 
Q 5.515625 13.875 5.515625 27.296875 
Q 5.515625 40.765625 12.171875 48.375 
Q 18.84375 56 30.609375 56 
z
" id="DejaVuSans-111"/>
      <path d="M 45.40625 46.390625 
L 45.40625 75.984375 
L 54.390625 75.984375 
L 54.390625 0 
L 45.40625 0 
L 45.40625 8.203125 
Q 42.578125 3.328125 38.25 0.953125 
Q 33.9375 -1.421875 27.875 -1.421875 
Q 17.96875 -1.421875 11.734375 6.484375 
Q 5.515625 14.40625 5.515625 27.296875 
Q 5.515625 40.1875 11.734375 48.09375 
Q 17.96875 56 27.875 56 
Q 33.9375 56 38.25 53.625 
Q 42.578125 51.265625 45.40625 46.390625 
z
M 14.796875 27.296875 
Q 14.796875 17.390625 18.875 11.75 
Q 22.953125 6.109375 30.078125 6.109375 
Q 37.203125 6.109375 41.296875 11.75 
Q 45.40625 17.390625 45.40625 27.296875 
Q 45.40625 37.203125 41.296875 42.84375 
Q 37.203125 48.484375 30.078125 48.484375 
Q 22.953125 48.484375 18.875 42.84375 
Q 14.796875 37.203125 14.796875 27.296875 
z
" id="DejaVuSans-100"/>
      <path d="M 45.40625 27.984375 
Q 45.40625 37.75 41.375 43.109375 
Q 37.359375 48.484375 30.078125 48.484375 
Q 22.859375 48.484375 18.828125 43.109375 
Q 14.796875 37.75 14.796875 27.984375 
Q 14.796875 18.265625 18.828125 12.890625 
Q 22.859375 7.515625 30.078125 7.515625 
Q 37.359375 7.515625 41.375 12.890625 
Q 45.40625 18.265625 45.40625 27.984375 
z
M 54.390625 6.78125 
Q 54.390625 -7.171875 48.1875 -13.984375 
Q 42 -20.796875 29.203125 -20.796875 
Q 24.46875 -20.796875 20.265625 -20.09375 
Q 16.0625 -19.390625 12.109375 -17.921875 
L 12.109375 -9.1875 
Q 16.0625 -11.328125 19.921875 -12.34375 
Q 23.78125 -13.375 27.78125 -13.375 
Q 36.625 -13.375 41.015625 -8.765625 
Q 45.40625 -4.15625 45.40625 5.171875 
L 45.40625 9.625 
Q 42.625 4.78125 38.28125 2.390625 
Q 33.9375 0 27.875 0 
Q 17.828125 0 11.671875 7.65625 
Q 5.515625 15.328125 5.515625 27.984375 
Q 5.515625 40.671875 11.671875 48.328125 
Q 17.828125 56 27.875 56 
Q 33.9375 56 38.28125 53.609375 
Q 42.625 51.21875 45.40625 46.390625 
L 45.40625 54.6875 
L 54.390625 54.6875 
z
" id="DejaVuSans-103"/>
      <path d="M 52 44.1875 
Q 55.375 50.25 60.0625 53.125 
Q 64.75 56 71.09375 56 
Q 79.640625 56 84.28125 50.015625 
Q 88.921875 44.046875 88.921875 33.015625 
L 88.921875 0 
L 79.890625 0 
L 79.890625 32.71875 
Q 79.890625 40.578125 77.09375 44.375 
Q 74.3125 48.1875 68.609375 48.1875 
Q 61.625 48.1875 57.5625 43.546875 
Q 53.515625 38.921875 53.515625 30.90625 
L 53.515625 0 
L 44.484375 0 
L 44.484375 32.71875 
Q 44.484375 40.625 41.703125 44.40625 
Q 38.921875 48.1875 33.109375 48.1875 
Q 26.21875 48.1875 22.15625 43.53125 
Q 18.109375 38.875 18.109375 30.90625 
L 18.109375 0 
L 9.078125 0 
L 9.078125 54.6875 
L 18.109375 54.6875 
L 18.109375 46.1875 
Q 21.1875 51.21875 25.484375 53.609375 
Q 29.78125 56 35.6875 56 
Q 41.65625 56 45.828125 52.96875 
Q 50 49.953125 52 44.1875 
z
" id="DejaVuSans-109"/>
      <path d="M 4.203125 54.6875 
L 13.1875 54.6875 
L 24.421875 12.015625 
L 35.59375 54.6875 
L 46.1875 54.6875 
L 57.421875 12.015625 
L 68.609375 54.6875 
L 77.59375 54.6875 
L 63.28125 0 
L 52.6875 0 
L 40.921875 44.828125 
L 29.109375 0 
L 18.5 0 
z
" id="DejaVuSans-119"/>
      <path d="M 18.109375 8.203125 
L 18.109375 -20.796875 
L 9.078125 -20.796875 
L 9.078125 54.6875 
L 18.109375 54.6875 
L 18.109375 46.390625 
Q 20.953125 51.265625 25.265625 53.625 
Q 29.59375 56 35.59375 56 
Q 45.5625 56 51.78125 48.09375 
Q 58.015625 40.1875 58.015625 27.296875 
Q 58.015625 14.40625 51.78125 6.484375 
Q 45.5625 -1.421875 35.59375 -1.421875 
Q 29.59375 -1.421875 25.265625 0.953125 
Q 20.953125 3.328125 18.109375 8.203125 
z
M 48.6875 27.296875 
Q 48.6875 37.203125 44.609375 42.84375 
Q 40.53125 48.484375 33.40625 48.484375 
Q 26.265625 48.484375 22.1875 42.84375 
Q 18.109375 37.203125 18.109375 27.296875 
Q 18.109375 17.390625 22.1875 11.75 
Q 26.265625 6.109375 33.40625 6.109375 
Q 40.53125 6.109375 44.609375 11.75 
Q 48.6875 17.390625 48.6875 27.296875 
z
" id="DejaVuSans-112"/>
      <path d="M 9.421875 75.984375 
L 18.40625 75.984375 
L 18.40625 0 
L 9.421875 0 
z
" id="DejaVuSans-108"/>
      <path d="M 11.71875 12.40625 
L 22.015625 12.40625 
L 22.015625 4 
L 14.015625 -11.625 
L 7.71875 -11.625 
L 11.71875 4 
z
" id="DejaVuSans-44"/>
      <path d="M 23.296875 46.09375 
L 28.71875 12.3125 
L 54 54.6875 
L 63.53125 54.6875 
L 30.8125 0 
L 26.765625 -20.796875 
L 17.78125 -20.796875 
L 21.828125 0 
L 15.4375 40.828125 
Q 14.453125 46.96875 9.8125 46.96875 
L 7.421875 46.96875 
L 8.890625 54.6875 
L 12.3125 54.6875 
Q 21.921875 54.6875 23.296875 46.09375 
z
" id="DejaVuSans-Oblique-947"/>
      <path d="M 10.59375 45.40625 
L 73.1875 45.40625 
L 73.1875 37.203125 
L 10.59375 37.203125 
z
M 10.59375 25.484375 
L 73.1875 25.484375 
L 73.1875 17.1875 
L 10.59375 17.1875 
z
" id="DejaVuSans-61"/>
      <path d="M 13.625 3.375 
L 8.9375 -20.796875 
L -0.09375 -20.796875 
L 14.5 54.34375 
Q 18.84375 76.609375 39.65625 76.609375 
Q 60.75 76.609375 57.171875 57.8125 
Q 54.734375 44.4375 45.21875 39.546875 
Q 58.015625 35.15625 55.515625 22.125 
Q 51.125 -1.078125 27.484375 -1.03125 
Q 17.140625 -0.984375 13.625 3.375 
z
M 15.921875 15.09375 
Q 19.671875 6.59375 29.296875 6.640625 
Q 43.359375 6.640625 46.34375 21.96875 
Q 49.03125 35.75 26.171875 34.671875 
L 27.78125 42.96875 
Q 45.453125 42.671875 48.53125 58.59375 
Q 50.640625 69.34375 39.203125 69.28125 
Q 26.421875 69.28125 23.484375 54.046875 
z
" id="DejaVuSans-Oblique-946"/>
      <path d="M 40.921875 25.4375 
L 40.96875 36.71875 
Q 41.015625 48.25 32.328125 48.296875 
Q 25.828125 48.34375 21.78125 42.921875 
Q 16.703125 36.234375 14.984375 27.296875 
Q 12.890625 16.546875 15.53125 11.421875 
Q 18.265625 6.203125 24.171875 6.203125 
Q 30.71875 6.203125 36.234375 16.609375 
z
M 33.84375 55.90625 
Q 49.078125 56.15625 48.875 40.375 
Q 48.875 40.375 56.5 54.6875 
L 64.5 54.6875 
L 48.734375 25.046875 
L 48.578125 14.359375 
Q 48.578125 11.96875 49.90625 9.96875 
Q 51.421875 7.625 52.984375 7.625 
L 57.328125 7.625 
L 55.859375 0 
L 50.4375 0 
Q 45.84375 0 42.53125 4.109375 
Q 40.96875 6.15625 40.921875 10.453125 
Q 37.75 5.21875 32.28125 0.78125 
Q 29.6875 -1.265625 22.703125 -1.21875 
Q 11.28125 -1.125 7.125 6.203125 
Q 2.875 13.8125 5.515625 27.296875 
Q 8.34375 41.796875 15.765625 48.390625 
Q 24.125 55.765625 33.84375 55.90625 
z
" id="DejaVuSans-Oblique-945"/>
     </defs>
     <use transform="translate(0 0.390625)" xlink:href="#DejaVuSans-66"/>
     <use transform="translate(68.603516 0.390625)" xlink:href="#DejaVuSans-105"/>
     <use transform="translate(96.386719 0.390625)" xlink:href="#DejaVuSans-102"/>
     <use transform="translate(131.591797 0.390625)" xlink:href="#DejaVuSans-117"/>
     <use transform="translate(194.970703 0.390625)" xlink:href="#DejaVuSans-114"/>
     <use transform="translate(236.083984 0.390625)" xlink:href="#DejaVuSans-99"/>
     <use transform="translate(291.064453 0.390625)" xlink:href="#DejaVuSans-97"/>
     <use transform="translate(352.34375 0.390625)" xlink:href="#DejaVuSans-116"/>
     <use transform="translate(391.552734 0.390625)" xlink:href="#DejaVuSans-105"/>
     <use transform="translate(419.335938 0.390625)" xlink:href="#DejaVuSans-111"/>
     <use transform="translate(480.517578 0.390625)" xlink:href="#DejaVuSans-110"/>
     <use transform="translate(543.896484 0.390625)" xlink:href="#DejaVuSans-32"/>
     <use transform="translate(575.683594 0.390625)" xlink:href="#DejaVuSans-100"/>
     <use transform="translate(639.160156 0.390625)" xlink:href="#DejaVuSans-105"/>
     <use transform="translate(666.943359 0.390625)" xlink:href="#DejaVuSans-97"/>
     <use transform="translate(728.222656 0.390625)" xlink:href="#DejaVuSans-103"/>
     <use transform="translate(791.699219 0.390625)" xlink:href="#DejaVuSans-114"/>
     <use transform="translate(832.8125 0.390625)" xlink:href="#DejaVuSans-97"/>
     <use transform="translate(894.091797 0.390625)" xlink:href="#DejaVuSans-109"/>
     <use transform="translate(991.503906 0.390625)" xlink:href="#DejaVuSans-32"/>
     <use transform="translate(1023.291016 0.390625)" xlink:href="#DejaVuSans-102"/>
     <use transform="translate(1058.496094 0.390625)" xlink:href="#DejaVuSans-111"/>
     <use transform="translate(1119.677734 0.390625)" xlink:href="#DejaVuSans-114"/>
     <use transform="translate(1160.791016 0.390625)" xlink:href="#DejaVuSans-32"/>
     <use transform="translate(1192.578125 0.390625)" xlink:href="#DejaVuSans-116"/>
     <use transform="translate(1231.787109 0.390625)" xlink:href="#DejaVuSans-119"/>
     <use transform="translate(1313.574219 0.390625)" xlink:href="#DejaVuSans-111"/>
     <use transform="translate(1374.755859 0.390625)" xlink:href="#DejaVuSans-32"/>
     <use transform="translate(1406.542969 0.390625)" xlink:href="#DejaVuSans-99"/>
     <use transform="translate(1461.523438 0.390625)" xlink:href="#DejaVuSans-111"/>
     <use transform="translate(1522.705078 0.390625)" xlink:href="#DejaVuSans-117"/>
     <use transform="translate(1586.083984 0.390625)" xlink:href="#DejaVuSans-112"/>
     <use transform="translate(1649.560547 0.390625)" xlink:href="#DejaVuSans-108"/>
     <use transform="translate(1677.34375 0.390625)" xlink:href="#DejaVuSans-101"/>
     <use transform="translate(1738.867188 0.390625)" xlink:href="#DejaVuSans-100"/>
     <use transform="translate(1802.34375 0.390625)" xlink:href="#DejaVuSans-32"/>
     <use transform="translate(1834.130859 0.390625)" xlink:href="#DejaVuSans-110"/>
     <use transform="translate(1897.509766 0.390625)" xlink:href="#DejaVuSans-101"/>
     <use transform="translate(1959.033203 0.390625)" xlink:href="#DejaVuSans-117"/>
     <use transform="translate(2022.412109 0.390625)" xlink:href="#DejaVuSans-114"/>
     <use transform="translate(2063.525391 0.390625)" xlink:href="#DejaVuSans-111"/>
     <use transform="translate(2124.707031 0.390625)" xlink:href="#DejaVuSans-110"/>
     <use transform="translate(2188.085938 0.390625)" xlink:href="#DejaVuSans-115"/>
     <use transform="translate(2240.185547 0.390625)" xlink:href="#DejaVuSans-44"/>
     <use transform="translate(2271.972656 0.390625)" xlink:href="#DejaVuSans-32"/>
     <use transform="translate(2303.759766 0.390625)" xlink:href="#DejaVuSans-Oblique-947"/>
     <use transform="translate(2382.421875 0.390625)" xlink:href="#DejaVuSans-61"/>
     <use transform="translate(2485.693359 0.390625)" xlink:href="#DejaVuSans-48"/>
     <use transform="translate(2549.316406 0.390625)" xlink:href="#DejaVuSans-46"/>
     <use transform="translate(2581.103516 0.390625)" xlink:href="#DejaVuSans-52"/>
     <use transform="translate(2644.726562 0.390625)" xlink:href="#DejaVuSans-44"/>
     <use transform="translate(2695.996094 0.390625)" xlink:href="#DejaVuSans-Oblique-946"/>
     <use transform="translate(2779.296875 0.390625)" xlink:href="#DejaVuSans-61"/>
     <use transform="translate(2882.568359 0.390625)" xlink:href="#DejaVuSans-48"/>
     <use transform="translate(2946.191406 0.390625)" xlink:href="#DejaVuSans-46"/>
     <use transform="translate(2977.978516 0.390625)" xlink:href="#DejaVuSans-49"/>
     <use transform="translate(3041.601562 0.390625)" xlink:href="#DejaVuSans-44"/>
     <use transform="translate(3092.871094 0.390625)" xlink:href="#DejaVuSans-Oblique-945"/>
     <use transform="translate(3178.271484 0.390625)" xlink:href="#DejaVuSans-61"/>
     <use transform="translate(3281.542969 0.390625)" xlink:href="#DejaVuSans-50"/>
    </g>
   </g>
   <g id="legend_1">
    <g id="patch_7">
     <path d="M 469.175 145.449406 
L 548.815 145.449406 
Q 551.015 145.449406 551.015 143.249406 
L 551.015 63.508 
Q 551.015 61.308 548.815 61.308 
L 469.175 61.308 
Q 466.975 61.308 466.975 63.508 
L 466.975 143.249406 
Q 466.975 145.449406 469.175 145.449406 
z
" style="fill:#ffffff;opacity:0.8;stroke:#cccccc;stroke-linejoin:miter;"/>
    </g>
    <g id="line2d_31">
     <path d="M 471.375 70.216281 
L 493.375 70.216281 
" style="fill:none;stroke:#aa3863;stroke-dasharray:5.55,2.4;stroke-dashoffset:0;stroke-width:1.5;"/>
    </g>
    <g id="line2d_32"/>
    <g id="text_14">
     <!-- $\rho = 0$ -->
     <g transform="translate(502.175 74.066281)scale(0.11 -0.11)">
      <defs>
       <path d="M 18.796875 44.921875 
Q 22.703125 49.90625 30.953125 54.296875 
Q 34.1875 56 43.0625 56 
Q 53.03125 56 57.71875 48.09375 
Q 62.40625 40.1875 59.90625 27.296875 
Q 57.375 14.40625 49.609375 6.484375 
Q 41.84375 -1.421875 31.890625 -1.421875 
Q 25.875 -1.421875 22.015625 0.984375 
Q 18.171875 3.328125 16.3125 8.203125 
L 10.640625 -20.796875 
L 1.609375 -20.796875 
L 10.890625 26.8125 
Q 13.09375 38.09375 18.796875 44.921875 
z
M 50.59375 27.296875 
Q 52.484375 37.203125 49.515625 42.875 
Q 46.53125 48.484375 39.40625 48.484375 
Q 32.28125 48.484375 27.09375 42.875 
Q 21.921875 37.203125 20.015625 27.296875 
Q 18.0625 17.390625 21.046875 11.71875 
Q 24.03125 6.109375 31.15625 6.109375 
Q 38.28125 6.109375 43.453125 11.71875 
Q 48.640625 17.390625 50.59375 27.296875 
z
" id="DejaVuSans-Oblique-961"/>
      </defs>
      <use transform="translate(0 0.78125)" xlink:href="#DejaVuSans-Oblique-961"/>
      <use transform="translate(82.958984 0.78125)" xlink:href="#DejaVuSans-61"/>
      <use transform="translate(186.230469 0.78125)" xlink:href="#DejaVuSans-48"/>
     </g>
    </g>
    <g id="line2d_33">
     <path d="M 471.375 86.384562 
L 493.375 86.384562 
" style="fill:none;stroke:#d97020;stroke-dasharray:5.55,2.4;stroke-dashoffset:0;stroke-width:1.5;"/>
    </g>
    <g id="line2d_34"/>
    <g id="text_15">
     <!-- $\rho = 0.25$ -->
     <g transform="translate(502.175 90.234562)scale(0.11 -0.11)">
      <defs>
       <path d="M 10.796875 72.90625 
L 49.515625 72.90625 
L 49.515625 64.59375 
L 19.828125 64.59375 
L 19.828125 46.734375 
Q 21.96875 47.46875 24.109375 47.828125 
Q 26.265625 48.1875 28.421875 48.1875 
Q 40.625 48.1875 47.75 41.5 
Q 54.890625 34.8125 54.890625 23.390625 
Q 54.890625 11.625 47.5625 5.09375 
Q 40.234375 -1.421875 26.90625 -1.421875 
Q 22.3125 -1.421875 17.546875 -0.640625 
Q 12.796875 0.140625 7.71875 1.703125 
L 7.71875 11.625 
Q 12.109375 9.234375 16.796875 8.0625 
Q 21.484375 6.890625 26.703125 6.890625 
Q 35.15625 6.890625 40.078125 11.328125 
Q 45.015625 15.765625 45.015625 23.390625 
Q 45.015625 31 40.078125 35.4375 
Q 35.15625 39.890625 26.703125 39.890625 
Q 22.75 39.890625 18.8125 39.015625 
Q 14.890625 38.140625 10.796875 36.28125 
z
" id="DejaVuSans-53"/>
      </defs>
      <use transform="translate(0 0.78125)" xlink:href="#DejaVuSans-Oblique-961"/>
      <use transform="translate(82.958984 0.78125)" xlink:href="#DejaVuSans-61"/>
      <use transform="translate(186.230469 0.78125)" xlink:href="#DejaVuSans-48"/>
      <use transform="translate(249.853516 0.78125)" xlink:href="#DejaVuSans-46"/>
      <use transform="translate(276.140625 0.78125)" xlink:href="#DejaVuSans-50"/>
      <use transform="translate(339.763672 0.78125)" xlink:href="#DejaVuSans-53"/>
     </g>
    </g>
    <g id="line2d_35">
     <path d="M 471.375 102.552844 
L 493.375 102.552844 
" style="fill:none;stroke:#ef9f07;stroke-dasharray:5.55,2.4;stroke-dashoffset:0;stroke-width:1.5;"/>
    </g>
    <g id="line2d_36"/>
    <g id="text_16">
     <!-- $\rho = 0.5$ -->
     <g transform="translate(502.175 106.402844)scale(0.11 -0.11)">
      <use transform="translate(0 0.78125)" xlink:href="#DejaVuSans-Oblique-961"/>
      <use transform="translate(82.958984 0.78125)" xlink:href="#DejaVuSans-61"/>
      <use transform="translate(186.230469 0.78125)" xlink:href="#DejaVuSans-48"/>
      <use transform="translate(249.853516 0.78125)" xlink:href="#DejaVuSans-46"/>
      <use transform="translate(281.640625 0.78125)" xlink:href="#DejaVuSans-53"/>
     </g>
    </g>
    <g id="line2d_37">
     <path d="M 471.375 118.721125 
L 493.375 118.721125 
" style="fill:none;stroke:#449775;stroke-dasharray:5.55,2.4;stroke-dashoffset:0;stroke-width:1.5;"/>
    </g>
    <g id="line2d_38"/>
    <g id="text_17">
     <!-- $\rho = 0.75$ -->
     <g transform="translate(502.175 122.571125)scale(0.11 -0.11)">
      <defs>
       <path d="M 8.203125 72.90625 
L 55.078125 72.90625 
L 55.078125 68.703125 
L 28.609375 0 
L 18.3125 0 
L 43.21875 64.59375 
L 8.203125 64.59375 
z
" id="DejaVuSans-55"/>
      </defs>
      <use transform="translate(0 0.78125)" xlink:href="#DejaVuSans-Oblique-961"/>
      <use transform="translate(82.958984 0.78125)" xlink:href="#DejaVuSans-61"/>
      <use transform="translate(186.230469 0.78125)" xlink:href="#DejaVuSans-48"/>
      <use transform="translate(249.853516 0.78125)" xlink:href="#DejaVuSans-46"/>
      <use transform="translate(273.890625 0.78125)" xlink:href="#DejaVuSans-55"/>
      <use transform="translate(337.513672 0.78125)" xlink:href="#DejaVuSans-53"/>
     </g>
    </g>
    <g id="line2d_39">
     <path d="M 471.375 134.889406 
L 493.375 134.889406 
" style="fill:none;stroke:#3b7d86;stroke-dasharray:5.55,2.4;stroke-dashoffset:0;stroke-width:1.5;"/>
    </g>
    <g id="line2d_40"/>
    <g id="text_18">
     <!-- $\rho = 1$ -->
     <g transform="translate(502.175 138.739406)scale(0.11 -0.11)">
      <use transform="translate(0 0.09375)" xlink:href="#DejaVuSans-Oblique-961"/>
      <use transform="translate(82.958984 0.09375)" xlink:href="#DejaVuSans-61"/>
      <use transform="translate(186.230469 0.09375)" xlink:href="#DejaVuSans-49"/>
     </g>
    </g>
   </g>
  </g>
 </g>
 <defs>
  <clipPath id="p642014c58f">
   <rect height="340.96" width="500.695" x="55.82" y="38.76"/>
  </clipPath>
 </defs>
</svg>
